<?xml version="1.0" encoding="UTF-8"?>
<svg xmlns="http://www.w3.org/2000/svg" xmlns:xlink="http://www.w3.org/1999/xlink" width="1024pt" height="1024pt" viewBox="0 0 1024 1024" version="1.1">
<g id="surface11">
<path style="fill:none;stroke-width:0.001;stroke-linecap:butt;stroke-linejoin:miter;stroke:rgb(0%,0%,0%);stroke-opacity:1;stroke-miterlimit:10;" d="M -0.000000000000000028 0.5 L 0.00999832 0.5 L 0.0149994 0.491341 L 0.00999832 0.482681 L 0.0149994 0.474022 L 0.0249977 0.474022 L 0.0299988 0.482681 L 0.0249977 0.491341 L 0.0299988 0.5 L 0.0399971 0.5 L 0.0449982 0.491341 L 0.0549965 0.491341 L 0.0599976 0.5 L 0.0699959 0.5 L 0.0749969 0.491341 L 0.0699959 0.482681 L 0.0599976 0.482681 L 0.0549965 0.474022 L 0.0599976 0.465363 L 0.0549965 0.456703 L 0.0449982 0.456703 L 0.0399971 0.465363 L 0.0299988 0.465363 L 0.0249977 0.456703 L 0.0299988 0.448044 L 0.0399971 0.448044 L 0.0449982 0.439384 L 0.0399971 0.430725 L 0.0449982 0.422066 L 0.0549965 0.422066 L 0.0599976 0.430725 L 0.0699959 0.430725 L 0.0749969 0.422066 L 0.0699959 0.413406 L 0.0599976 0.413406 L 0.0549965 0.404747 L 0.0599976 0.396088 L 0.0699959 0.396088 L 0.0749969 0.387428 L 0.0699959 0.378769 L 0.0749969 0.37011 L 0.0849953 0.37011 L 0.0899963 0.378769 L 0.0849953 0.387428 L 0.0899963 0.396088 L 0.0999947 0.396088 L 0.104996 0.404747 L 0.0999947 0.413406 L 0.0899963 0.413406 L 0.0849953 0.422066 L 0.0899963 0.430725 L 0.0999947 0.430725 L 0.104996 0.422066 L 0.114994 0.422066 L 0.119995 0.430725 L 0.114994 0.439384 L 0.119995 0.448044 L 0.129993 0.448044 L 0.134995 0.456703 L 0.129993 0.465363 L 0.119995 0.465363 L 0.114994 0.456703 L 0.104996 0.456703 L 0.0999947 0.465363 L 0.104996 0.474022 L 0.0999947 0.482681 L 0.0899963 0.482681 L 0.0849953 0.491341 L 0.0899963 0.5 L 0.0999947 0.5 L 0.104996 0.491341 L 0.114994 0.491341 L 0.119995 0.5 L 0.129993 0.5 L 0.134995 0.491341 L 0.129993 0.482681 L 0.134995 0.474022 L 0.144993 0.474022 L 0.149994 0.482681 L 0.144993 0.491341 L 0.149994 0.5 L 0.159992 0.5 " transform="matrix(1024,-0.000000000000056843,0.000000000000056843,1024,0,0)"/>
</g>
</svg>
