<?xml version="1.0" encoding="UTF-8"?>
<svg xmlns="http://www.w3.org/2000/svg" xmlns:xlink="http://www.w3.org/1999/xlink" width="1024pt" height="1024pt" viewBox="0 0 1024 1024" version="1.1">
<g id="surface56">
<path style="fill:none;stroke-width:0.001;stroke-linecap:butt;stroke-linejoin:miter;stroke:rgb(0%,0%,0%);stroke-opacity:1;stroke-miterlimit:10;" d="M 0.5 0.5 L 0.5 0.489998 L 0.505001 0.489998 L 0.5 0.489998 L 0.5 0.474995 L 0.505001 0.474995 L 0.5 0.474995 L 0.5 0.469994 L 0.510002 0.469994 L 0.510002 0.474995 L 0.510002 0.469994 L 0.515003 0.469994 L 0.505001 0.469994 L 0.505001 0.464993 L 0.505001 0.469994 L 0.5 0.469994 L 0.5 0.459991 L 0.505001 0.459991 L 0.5 0.459991 L 0.5 0.444988 L 0.505001 0.444988 L 0.5 0.444988 L 0.5 0.429985 L 0.505001 0.429985 L 0.5 0.429985 L 0.5 0.424984 L 0.510002 0.424984 L 0.510002 0.429985 L 0.510002 0.424984 L 0.515003 0.424984 L 0.505001 0.424984 L 0.505001 0.419983 L 0.505001 0.424984 L 0.5 0.424984 L 0.5 0.414982 L 0.505001 0.414982 L 0.5 0.414982 L 0.5 0.409981 L 0.510002 0.409981 L 0.510002 0.414982 L 0.510002 0.409981 L 0.525005 0.409981 L 0.525005 0.414982 L 0.525005 0.409981 L 0.530006 0.409981 L 0.530006 0.419983 L 0.525005 0.419983 L 0.530006 0.419983 L 0.530006 0.424984 L 0.530006 0.414982 L 0.535007 0.414982 L 0.530006 0.414982 L 0.530006 0.409981 L 0.540009 0.409981 L 0.540009 0.414982 L 0.540009 0.409981 L 0.54501 0.409981 L 0.535007 0.409981 L 0.535007 0.40498 L 0.535007 0.409981 L 0.520004 0.409981 L 0.520004 0.40498 L 0.520004 0.409981 L 0.515003 0.409981 L 0.515003 0.399979 L 0.520004 0.399979 L 0.515003 0.399979 L 0.515003 0.394978 L 0.515003 0.40498 L 0.510002 0.40498 L 0.515003 0.40498 L 0.515003 0.409981 L 0.505001 0.409981 L 0.505001 0.40498 L 0.505001 0.409981 L 0.5 0.409981 L 0.5 0.399979 L 0.505001 0.399979 L 0.5 0.399979 L 0.5 0.384975 L 0.505001 0.384975 L 0.5 0.384975 L 0.5 0.379974 L 0.510002 0.379974 L 0.510002 0.384975 L 0.510002 0.379974 L 0.515003 0.379974 L 0.505001 0.379974 L 0.505001 0.374973 L 0.505001 0.379974 L 0.5 0.379974 L 0.5 0.369972 L 0.505001 0.369972 L 0.5 0.369972 L 0.5 0.354969 L 0.505001 0.354969 L 0.5 0.354969 L 0.5 0.339966 L 0.505001 0.339966 L 0.5 0.339966 L 0.5 0.334965 L 0.510002 0.334965 L 0.510002 0.339966 L 0.510002 0.334965 L 0.515003 0.334965 L 0.505001 0.334965 L 0.505001 0.329964 L 0.505001 0.334965 L 0.5 0.334965 L 0.5 0.324963 L 0.505001 0.324963 L 0.5 0.324963 L 0.5 0.309959 L 0.505001 0.309959 L 0.5 0.309959 L 0.5 0.294956 L 0.505001 0.294956 L 0.5 0.294956 L 0.5 0.289955 L 0.510002 0.289955 L 0.510002 0.294956 L 0.510002 0.289955 L 0.515003 0.289955 L 0.505001 0.289955 L 0.505001 0.284954 L 0.505001 0.289955 L 0.5 0.289955 L 0.5 0.279953 L 0.505001 0.279953 L 0.5 0.279953 L 0.5 0.274952 L 0.510002 0.274952 L 0.510002 0.279953 L 0.510002 0.274952 L 0.525005 0.274952 L 0.525005 0.279953 L 0.525005 0.274952 L 0.530006 0.274952 L 0.530006 0.284954 L 0.525005 0.284954 L 0.530006 0.284954 L 0.530006 0.289955 L 0.530006 0.279953 L 0.535007 0.279953 L 0.530006 0.279953 L 0.530006 0.274952 L 0.540009 0.274952 L 0.540009 0.279953 L 0.540009 0.274952 L 0.54501 0.274952 L 0.535007 0.274952 L 0.535007 0.269951 L 0.535007 0.274952 L 0.520004 0.274952 L 0.520004 0.269951 L 0.520004 0.274952 L 0.515003 0.274952 L 0.515003 0.26495 L 0.520004 0.26495 L 0.515003 0.26495 L 0.515003 0.259949 L 0.515003 0.269951 L 0.510002 0.269951 L 0.515003 0.269951 L 0.515003 0.274952 L 0.505001 0.274952 L 0.505001 0.269951 L 0.505001 0.274952 L 0.5 0.274952 L 0.5 0.26495 L 0.505001 0.26495 L 0.5 0.26495 L 0.5 0.249947 L 0.505001 0.249947 L 0.5 0.249947 L 0.5 0.244946 L 0.510002 0.244946 L 0.510002 0.249947 L 0.510002 0.244946 L 0.515003 0.244946 L 0.505001 0.244946 L 0.505001 0.239944 L 0.505001 0.244946 L 0.5 0.244946 L 0.5 0.234943 L 0.505001 0.234943 L 0.5 0.234943 L 0.5 0.229942 L 0.510002 0.229942 L 0.510002 0.234943 L 0.510002 0.229942 L 0.525005 0.229942 L 0.525005 0.234943 L 0.525005 0.229942 L 0.530006 0.229942 L 0.530006 0.239944 L 0.525005 0.239944 L 0.530006 0.239944 L 0.530006 0.244946 L 0.530006 0.234943 L 0.535007 0.234943 L 0.530006 0.234943 L 0.530006 0.229942 L 0.540009 0.229942 L 0.540009 0.234943 L 0.540009 0.229942 L 0.555012 0.229942 L 0.555012 0.234943 L 0.555012 0.229942 L 0.570015 0.229942 L 0.570015 0.234943 L 0.570015 0.229942 L 0.575016 0.229942 L 0.575016 0.239944 L 0.570015 0.239944 L 0.575016 0.239944 L 0.575016 0.244946 L 0.575016 0.234943 L 0.580017 0.234943 L 0.575016 0.234943 L 0.575016 0.229942 L 0.585018 0.229942 L 0.585018 0.234943 L 0.585018 0.229942 L 0.590019 0.229942 L 0.590019 0.239944 L 0.585018 0.239944 L 0.590019 0.239944 L 0.590019 0.254948 L 0.585018 0.254948 L 0.590019 0.254948 L 0.590019 0.259949 L 0.580017 0.259949 L 0.580017 0.254948 L 0.580017 0.259949 L 0.575016 0.259949 L 0.585018 0.259949 L 0.585018 0.26495 L 0.585018 0.259949 L 0.590019 0.259949 L 0.590019 0.269951 L 0.585018 0.269951 L 0.590019 0.269951 L 0.590019 0.274952 L 0.590019 0.26495 L 0.59502 0.26495 L 0.590019 0.26495 L 0.590019 0.249947 L 0.59502 0.249947 L 0.590019 0.249947 L 0.590019 0.244946 L 0.600021 0.244946 L 0.600021 0.249947 L 0.600021 0.244946 L 0.605022 0.244946 L 0.59502 0.244946 L 0.59502 0.239944 L 0.59502 0.244946 L 0.590019 0.244946 L 0.590019 0.234943 L 0.59502 0.234943 L 0.590019 0.234943 L 0.590019 0.229942 L 0.600021 0.229942 L 0.600021 0.234943 L 0.600021 0.229942 L 0.615025 0.229942 L 0.615025 0.234943 L 0.615025 0.229942 L 0.620026 0.229942 L 0.620026 0.239944 L 0.615025 0.239944 L 0.620026 0.239944 L 0.620026 0.244946 L 0.620026 0.234943 L 0.625027 0.234943 L 0.620026 0.234943 L 0.620026 0.229942 L 0.630028 0.229942 L 0.630028 0.234943 L 0.630028 0.229942 L 0.635029 0.229942 L 0.625027 0.229942 L 0.625027 0.224941 L 0.625027 0.229942 L 0.610023 0.229942 L 0.610023 0.224941 L 0.610023 0.229942 L 0.605022 0.229942 L 0.605022 0.21994 L 0.610023 0.21994 L 0.605022 0.21994 L 0.605022 0.214939 L 0.605022 0.224941 L 0.600021 0.224941 L 0.605022 0.224941 L 0.605022 0.229942 L 0.59502 0.229942 L 0.59502 0.224941 L 0.59502 0.229942 L 0.580017 0.229942 L 0.580017 0.224941 L 0.580017 0.229942 L 0.565014 0.229942 L 0.565014 0.224941 L 0.565014 0.229942 L 0.560013 0.229942 L 0.560013 0.21994 L 0.565014 0.21994 L 0.560013 0.21994 L 0.560013 0.214939 L 0.560013 0.224941 L 0.555012 0.224941 L 0.560013 0.224941 L 0.560013 0.229942 L 0.550011 0.229942 L 0.550011 0.224941 L 0.550011 0.229942 L 0.54501 0.229942 L 0.54501 0.21994 L 0.550011 0.21994 L 0.54501 0.21994 L 0.54501 0.204937 L 0.550011 0.204937 L 0.54501 0.204937 L 0.54501 0.199936 L 0.555012 0.199936 L 0.555012 0.204937 L 0.555012 0.199936 L 0.560013 0.199936 L 0.550011 0.199936 L 0.550011 0.194935 L 0.550011 0.199936 L 0.54501 0.199936 L 0.54501 0.189934 L 0.550011 0.189934 L 0.54501 0.189934 L 0.54501 0.184933 L 0.54501 0.194935 L 0.540009 0.194935 L 0.54501 0.194935 L 0.54501 0.209938 L 0.540009 0.209938 L 0.54501 0.209938 L 0.54501 0.214939 L 0.535007 0.214939 L 0.535007 0.209938 L 0.535007 0.214939 L 0.530006 0.214939 L 0.540009 0.214939 L 0.540009 0.21994 L 0.540009 0.214939 L 0.54501 0.214939 L 0.54501 0.224941 L 0.540009 0.224941 L 0.54501 0.224941 L 0.54501 0.229942 L 0.535007 0.229942 L 0.535007 0.224941 L 0.535007 0.229942 L 0.520004 0.229942 L 0.520004 0.224941 L 0.520004 0.229942 L 0.515003 0.229942 L 0.515003 0.21994 L 0.520004 0.21994 L 0.515003 0.21994 L 0.515003 0.214939 L 0.515003 0.224941 L 0.510002 0.224941 L 0.515003 0.224941 L 0.515003 0.229942 L 0.505001 0.229942 L 0.505001 0.224941 L 0.505001 0.229942 L 0.5 0.229942 L 0.5 0.21994 L 0.505001 0.21994 L 0.5 0.21994 L 0.5 0.204937 L 0.505001 0.204937 L 0.5 0.204937 L 0.5 0.199936 L 0.510002 0.199936 L 0.510002 0.204937 L 0.510002 0.199936 L 0.515003 0.199936 L 0.505001 0.199936 L 0.505001 0.194935 L 0.505001 0.199936 L 0.5 0.199936 L 0.5 0.189934 L 0.505001 0.189934 L 0.5 0.189934 L 0.5 0.174931 L 0.505001 0.174931 L 0.5 0.174931 L 0.5 0.159927 L 0.505001 0.159927 L 0.5 0.159927 L 0.5 0.154926 L 0.510002 0.154926 L 0.510002 0.159927 L 0.510002 0.154926 L 0.515003 0.154926 L 0.505001 0.154926 L 0.505001 0.149925 L 0.505001 0.154926 L 0.5 0.154926 L 0.5 0.144924 L 0.505001 0.144924 L 0.5 0.144924 L 0.5 0.139923 L 0.510002 0.139923 L 0.510002 0.144924 L 0.510002 0.139923 L 0.525005 0.139923 L 0.525005 0.144924 L 0.525005 0.139923 L 0.530006 0.139923 L 0.530006 0.149925 L 0.525005 0.149925 L 0.530006 0.149925 L 0.530006 0.154926 L 0.530006 0.144924 L 0.535007 0.144924 L 0.530006 0.144924 L 0.530006 0.139923 L 0.540009 0.139923 L 0.540009 0.144924 L 0.540009 0.139923 L 0.54501 0.139923 L 0.535007 0.139923 L 0.535007 0.134922 L 0.535007 0.139923 L 0.520004 0.139923 L 0.520004 0.134922 L 0.520004 0.139923 L 0.515003 0.139923 L 0.515003 0.129921 L 0.520004 0.129921 L 0.515003 0.129921 L 0.515003 0.12492 L 0.515003 0.134922 L 0.510002 0.134922 L 0.515003 0.134922 L 0.515003 0.139923 L 0.505001 0.139923 L 0.505001 0.134922 L 0.505001 0.139923 L 0.5 0.139923 L 0.5 0.129921 L 0.505001 0.129921 L 0.5 0.129921 L 0.5 0.114918 L 0.505001 0.114918 L 0.5 0.114918 L 0.5 0.109917 L 0.510002 0.109917 L 0.510002 0.114918 L 0.510002 0.109917 L 0.515003 0.109917 L 0.505001 0.109917 L 0.505001 0.104916 L 0.505001 0.109917 L 0.5 0.109917 L 0.5 0.0999146 L 0.505001 0.0999146 L 0.5 0.0999146 L 0.5 0.0949135 L 0.510002 0.0949135 L 0.510002 0.0999146 L 0.510002 0.0949135 L 0.525005 0.0949135 L 0.525005 0.0999146 L 0.525005 0.0949135 L 0.530006 0.0949135 L 0.530006 0.104916 L 0.525005 0.104916 L 0.530006 0.104916 L 0.530006 0.109917 L 0.530006 0.0999146 L 0.535007 0.0999146 L 0.530006 0.0999146 L 0.530006 0.0949135 L 0.540009 0.0949135 L 0.540009 0.0999146 L 0.540009 0.0949135 L 0.555012 0.0949135 L 0.555012 0.0999146 L 0.555012 0.0949135 L 0.570015 0.0949135 L 0.570015 0.0999146 L 0.570015 0.0949135 L 0.575016 0.0949135 L 0.575016 0.104916 L 0.570015 0.104916 L 0.575016 0.104916 L 0.575016 0.109917 L 0.575016 0.0999146 L 0.580017 0.0999146 L 0.575016 0.0999146 L 0.575016 0.0949135 L 0.585018 0.0949135 L 0.585018 0.0999146 L 0.585018 0.0949135 L 0.590019 0.0949135 L 0.590019 0.104916 L 0.585018 0.104916 L 0.590019 0.104916 L 0.590019 0.119919 L 0.585018 0.119919 L 0.590019 0.119919 L 0.590019 0.12492 L 0.580017 0.12492 L 0.580017 0.119919 L 0.580017 0.12492 L 0.575016 0.12492 L 0.585018 0.12492 L 0.585018 0.129921 L 0.585018 0.12492 L 0.590019 0.12492 L 0.590019 0.134922 L 0.585018 0.134922 L 0.590019 0.134922 L 0.590019 0.139923 L 0.590019 0.129921 L 0.59502 0.129921 L 0.590019 0.129921 L 0.590019 0.114918 L 0.59502 0.114918 L 0.590019 0.114918 L 0.590019 0.109917 L 0.600021 0.109917 L 0.600021 0.114918 L 0.600021 0.109917 L 0.605022 0.109917 L 0.59502 0.109917 L 0.59502 0.104916 L 0.59502 0.109917 L 0.590019 0.109917 L 0.590019 0.0999146 L 0.59502 0.0999146 L 0.590019 0.0999146 L 0.590019 0.0949135 L 0.600021 0.0949135 L 0.600021 0.0999146 L 0.600021 0.0949135 L 0.615025 0.0949135 L 0.615025 0.0999146 L 0.615025 0.0949135 L 0.620026 0.0949135 L 0.620026 0.104916 L 0.615025 0.104916 L 0.620026 0.104916 L 0.620026 0.109917 L 0.620026 0.0999146 L 0.625027 0.0999146 L 0.620026 0.0999146 L 0.620026 0.0949135 L 0.630028 0.0949135 L 0.630028 0.0999146 L 0.630028 0.0949135 L 0.645031 0.0949135 L 0.645031 0.0999146 L 0.645031 0.0949135 L 0.660034 0.0949135 L 0.660034 0.0999146 L 0.660034 0.0949135 L 0.665035 0.0949135 L 0.665035 0.104916 L 0.660034 0.104916 L 0.665035 0.104916 L 0.665035 0.109917 L 0.665035 0.0999146 L 0.670036 0.0999146 L 0.665035 0.0999146 L 0.665035 0.0949135 L 0.675037 0.0949135 L 0.675037 0.0999146 L 0.675037 0.0949135 L 0.690041 0.0949135 L 0.690041 0.0999146 L 0.690041 0.0949135 L 0.705044 0.0949135 L 0.705044 0.0999146 L 0.705044 0.0949135 L 0.710045 0.0949135 L 0.710045 0.104916 L 0.705044 0.104916 L 0.710045 0.104916 L 0.710045 0.109917 L 0.710045 0.0999146 L 0.715046 0.0999146 L 0.710045 0.0999146 L 0.710045 0.0949135 L 0.720047 0.0949135 L 0.720047 0.0999146 L 0.720047 0.0949135 L 0.725048 0.0949135 L 0.725048 0.104916 L 0.720047 0.104916 L 0.725048 0.104916 L 0.725048 0.119919 L 0.720047 0.119919 L 0.725048 0.119919 L 0.725048 0.12492 L 0.715046 0.12492 L 0.715046 0.119919 L 0.715046 0.12492 L 0.710045 0.12492 L 0.720047 0.12492 L 0.720047 0.129921 L 0.720047 0.12492 L 0.725048 0.12492 L 0.725048 0.134922 L 0.720047 0.134922 L 0.725048 0.134922 L 0.725048 0.139923 L 0.725048 0.129921 L 0.730049 0.129921 L 0.725048 0.129921 L 0.725048 0.114918 L 0.730049 0.114918 L 0.725048 0.114918 L 0.725048 0.109917 L 0.73505 0.109917 L 0.73505 0.114918 L 0.73505 0.109917 L 0.740051 0.109917 L 0.730049 0.109917 L 0.730049 0.104916 L 0.730049 0.109917 L 0.725048 0.109917 L 0.725048 0.0999146 L 0.730049 0.0999146 L 0.725048 0.0999146 L 0.725048 0.0949135 L 0.73505 0.0949135 L 0.73505 0.0999146 L 0.73505 0.0949135 L 0.750053 0.0949135 L 0.750053 0.0999146 L 0.750053 0.0949135 L 0.755054 0.0949135 L 0.755054 0.104916 L 0.750053 0.104916 L 0.755054 0.104916 L 0.755054 0.109917 L 0.755054 0.0999146 L 0.760056 0.0999146 L 0.755054 0.0999146 L 0.755054 0.0949135 L 0.765057 0.0949135 L 0.765057 0.0999146 L 0.765057 0.0949135 L 0.770058 0.0949135 L 0.770058 0.104916 L 0.765057 0.104916 L 0.770058 0.104916 L 0.770058 0.119919 L 0.765057 0.119919 L 0.770058 0.119919 L 0.770058 0.12492 L 0.760056 0.12492 L 0.760056 0.119919 L 0.760056 0.12492 L 0.755054 0.12492 L 0.765057 0.12492 L 0.765057 0.129921 L 0.765057 0.12492 L 0.770058 0.12492 L 0.770058 0.134922 L 0.765057 0.134922 L 0.770058 0.134922 L 0.770058 0.149925 L 0.765057 0.149925 L 0.770058 0.149925 L 0.770058 0.164928 L 0.765057 0.164928 L 0.770058 0.164928 L 0.770058 0.16993 L 0.760056 0.16993 L 0.760056 0.164928 L 0.760056 0.16993 L 0.755054 0.16993 L 0.765057 0.16993 L 0.765057 0.174931 L 0.765057 0.16993 L 0.770058 0.16993 L 0.770058 0.179932 L 0.765057 0.179932 L 0.770058 0.179932 L 0.770058 0.184933 L 0.760056 0.184933 L 0.760056 0.179932 L 0.760056 0.184933 L 0.745052 0.184933 L 0.745052 0.179932 L 0.745052 0.184933 L 0.740051 0.184933 L 0.740051 0.174931 L 0.745052 0.174931 L 0.740051 0.174931 L 0.740051 0.16993 L 0.740051 0.179932 L 0.73505 0.179932 L 0.740051 0.179932 L 0.740051 0.184933 L 0.730049 0.184933 L 0.730049 0.179932 L 0.730049 0.184933 L 0.725048 0.184933 L 0.73505 0.184933 L 0.73505 0.189934 L 0.73505 0.184933 L 0.750053 0.184933 L 0.750053 0.189934 L 0.750053 0.184933 L 0.755054 0.184933 L 0.755054 0.194935 L 0.750053 0.194935 L 0.755054 0.194935 L 0.755054 0.199936 L 0.755054 0.189934 L 0.760056 0.189934 L 0.755054 0.189934 L 0.755054 0.184933 L 0.765057 0.184933 L 0.765057 0.189934 L 0.765057 0.184933 L 0.770058 0.184933 L 0.770058 0.194935 L 0.765057 0.194935 L 0.770058 0.194935 L 0.770058 0.209938 L 0.765057 0.209938 L 0.770058 0.209938 L 0.770058 0.214939 L 0.760056 0.214939 L 0.760056 0.209938 L 0.760056 0.214939 L 0.755054 0.214939 L 0.765057 0.214939 L 0.765057 0.21994 L 0.765057 0.214939 L 0.770058 0.214939 L 0.770058 0.224941 L 0.765057 0.224941 L 0.770058 0.224941 L 0.770058 0.229942 L 0.770058 0.21994 L 0.775059 0.21994 L 0.770058 0.21994 L 0.770058 0.204937 L 0.775059 0.204937 L 0.770058 0.204937 L 0.770058 0.199936 L 0.78006 0.199936 L 0.78006 0.204937 L 0.78006 0.199936 L 0.785061 0.199936 L 0.775059 0.199936 L 0.775059 0.194935 L 0.775059 0.199936 L 0.770058 0.199936 L 0.770058 0.189934 L 0.775059 0.189934 L 0.770058 0.189934 L 0.770058 0.174931 L 0.775059 0.174931 L 0.770058 0.174931 L 0.770058 0.159927 L 0.775059 0.159927 L 0.770058 0.159927 L 0.770058 0.154926 L 0.78006 0.154926 L 0.78006 0.159927 L 0.78006 0.154926 L 0.785061 0.154926 L 0.775059 0.154926 L 0.775059 0.149925 L 0.775059 0.154926 L 0.770058 0.154926 L 0.770058 0.144924 L 0.775059 0.144924 L 0.770058 0.144924 L 0.770058 0.139923 L 0.78006 0.139923 L 0.78006 0.144924 L 0.78006 0.139923 L 0.795063 0.139923 L 0.795063 0.144924 L 0.795063 0.139923 L 0.800064 0.139923 L 0.800064 0.149925 L 0.795063 0.149925 L 0.800064 0.149925 L 0.800064 0.154926 L 0.800064 0.144924 L 0.805065 0.144924 L 0.800064 0.144924 L 0.800064 0.139923 L 0.810066 0.139923 L 0.810066 0.144924 L 0.810066 0.139923 L 0.815067 0.139923 L 0.805065 0.139923 L 0.805065 0.134922 L 0.805065 0.139923 L 0.790062 0.139923 L 0.790062 0.134922 L 0.790062 0.139923 L 0.785061 0.139923 L 0.785061 0.129921 L 0.790062 0.129921 L 0.785061 0.129921 L 0.785061 0.12492 L 0.785061 0.134922 L 0.78006 0.134922 L 0.785061 0.134922 L 0.785061 0.139923 L 0.775059 0.139923 L 0.775059 0.134922 L 0.775059 0.139923 L 0.770058 0.139923 L 0.770058 0.129921 L 0.775059 0.129921 L 0.770058 0.129921 L 0.770058 0.114918 L 0.775059 0.114918 L 0.770058 0.114918 L 0.770058 0.109917 L 0.78006 0.109917 L 0.78006 0.114918 L 0.78006 0.109917 L 0.785061 0.109917 L 0.775059 0.109917 L 0.775059 0.104916 L 0.775059 0.109917 L 0.770058 0.109917 L 0.770058 0.0999146 L 0.775059 0.0999146 L 0.770058 0.0999146 L 0.770058 0.0949135 L 0.78006 0.0949135 L 0.78006 0.0999146 L 0.78006 0.0949135 L 0.795063 0.0949135 L 0.795063 0.0999146 L 0.795063 0.0949135 L 0.800064 0.0949135 L 0.800064 0.104916 L 0.795063 0.104916 L 0.800064 0.104916 L 0.800064 0.109917 L 0.800064 0.0999146 L 0.805065 0.0999146 L 0.800064 0.0999146 L 0.800064 0.0949135 L 0.810066 0.0949135 L 0.810066 0.0999146 L 0.810066 0.0949135 L 0.825069 0.0949135 L 0.825069 0.0999146 L 0.825069 0.0949135 L 0.840073 0.0949135 L 0.840073 0.0999146 L 0.840073 0.0949135 L 0.845074 0.0949135 L 0.845074 0.104916 L 0.840073 0.104916 L 0.845074 0.104916 L 0.845074 0.109917 L 0.845074 0.0999146 L 0.850075 0.0999146 L 0.845074 0.0999146 L 0.845074 0.0949135 L 0.855076 0.0949135 L 0.855076 0.0999146 L 0.855076 0.0949135 L 0.860077 0.0949135 L 0.860077 0.104916 L 0.855076 0.104916 L 0.860077 0.104916 L 0.860077 0.119919 L 0.855076 0.119919 L 0.860077 0.119919 L 0.860077 0.12492 L 0.850075 0.12492 L 0.850075 0.119919 L 0.850075 0.12492 L 0.845074 0.12492 L 0.855076 0.12492 L 0.855076 0.129921 L 0.855076 0.12492 L 0.860077 0.12492 L 0.860077 0.134922 L 0.855076 0.134922 L 0.860077 0.134922 L 0.860077 0.139923 L 0.860077 0.129921 L 0.865078 0.129921 L 0.860077 0.129921 L 0.860077 0.114918 L 0.865078 0.114918 L 0.860077 0.114918 L 0.860077 0.109917 L 0.870079 0.109917 L 0.870079 0.114918 L 0.870079 0.109917 L 0.87508 0.109917 L 0.865078 0.109917 L 0.865078 0.104916 L 0.865078 0.109917 L 0.860077 0.109917 L 0.860077 0.0999146 L 0.865078 0.0999146 L 0.860077 0.0999146 L 0.860077 0.0949135 L 0.870079 0.0949135 L 0.870079 0.0999146 L 0.870079 0.0949135 L 0.885082 0.0949135 L 0.885082 0.0999146 L 0.885082 0.0949135 L 0.890083 0.0949135 L 0.890083 0.104916 L 0.885082 0.104916 L 0.890083 0.104916 L 0.890083 0.109917 L 0.890083 0.0999146 L 0.895084 0.0999146 L 0.890083 0.0999146 L 0.890083 0.0949135 L 0.900085 0.0949135 L 0.900085 0.0999146 L 0.900085 0.0949135 L 0.905087 0.0949135 L 0.905087 0.104916 L 0.900085 0.104916 L 0.905087 0.104916 L 0.905087 0.119919 L 0.900085 0.119919 L 0.905087 0.119919 L 0.905087 0.12492 L 0.895084 0.12492 L 0.895084 0.119919 L 0.895084 0.12492 L 0.890083 0.12492 L 0.900085 0.12492 L 0.900085 0.129921 L 0.900085 0.12492 L 0.905087 0.12492 L 0.905087 0.134922 L 0.900085 0.134922 L 0.905087 0.134922 L 0.905087 0.149925 L 0.900085 0.149925 L 0.905087 0.149925 L 0.905087 0.164928 L 0.900085 0.164928 L 0.905087 0.164928 L 0.905087 0.16993 L 0.895084 0.16993 L 0.895084 0.164928 L 0.895084 0.16993 L 0.890083 0.16993 L 0.900085 0.16993 L 0.900085 0.174931 L 0.900085 0.16993 L 0.905087 0.16993 L 0.905087 0.179932 L 0.900085 0.179932 L 0.905087 0.179932 L 0.905087 0.184933 L 0.895084 0.184933 L 0.895084 0.179932 L 0.895084 0.184933 L 0.880081 0.184933 L 0.880081 0.179932 L 0.880081 0.184933 L 0.87508 0.184933 L 0.87508 0.174931 L 0.880081 0.174931 L 0.87508 0.174931 L 0.87508 0.16993 L 0.87508 0.179932 L 0.870079 0.179932 L 0.87508 0.179932 L 0.87508 0.184933 L 0.865078 0.184933 L 0.865078 0.179932 L 0.865078 0.184933 L 0.860077 0.184933 L 0.870079 0.184933 L 0.870079 0.189934 L 0.870079 0.184933 L 0.885082 0.184933 L 0.885082 0.189934 L 0.885082 0.184933 L 0.890083 0.184933 L 0.890083 0.194935 L 0.885082 0.194935 L 0.890083 0.194935 L 0.890083 0.199936 L 0.890083 0.189934 L 0.895084 0.189934 L 0.890083 0.189934 L 0.890083 0.184933 L 0.900085 0.184933 L 0.900085 0.189934 L 0.900085 0.184933 L 0.905087 0.184933 L 0.905087 0.194935 L 0.900085 0.194935 L 0.905087 0.194935 L 0.905087 0.209938 L 0.900085 0.209938 L 0.905087 0.209938 L 0.905087 0.214939 L 0.895084 0.214939 L 0.895084 0.209938 L 0.895084 0.214939 L 0.890083 0.214939 L 0.900085 0.214939 L 0.900085 0.21994 L 0.900085 0.214939 L 0.905087 0.214939 L 0.905087 0.224941 L 0.900085 0.224941 L 0.905087 0.224941 L 0.905087 0.239944 L 0.900085 0.239944 L 0.905087 0.239944 L 0.905087 0.254948 L 0.900085 0.254948 L 0.905087 0.254948 L 0.905087 0.259949 L 0.895084 0.259949 L 0.895084 0.254948 L 0.895084 0.259949 L 0.890083 0.259949 L 0.900085 0.259949 L 0.900085 0.26495 L 0.900085 0.259949 L 0.905087 0.259949 L 0.905087 0.269951 L 0.900085 0.269951 L 0.905087 0.269951 L 0.905087 0.284954 L 0.900085 0.284954 L 0.905087 0.284954 L 0.905087 0.299957 L 0.900085 0.299957 L 0.905087 0.299957 L 0.905087 0.304958 L 0.895084 0.304958 L 0.895084 0.299957 L 0.895084 0.304958 L 0.890083 0.304958 L 0.900085 0.304958 L 0.900085 0.309959 L 0.900085 0.304958 L 0.905087 0.304958 L 0.905087 0.31496 L 0.900085 0.31496 L 0.905087 0.31496 L 0.905087 0.319962 L 0.895084 0.319962 L 0.895084 0.31496 L 0.895084 0.319962 L 0.880081 0.319962 L 0.880081 0.31496 L 0.880081 0.319962 L 0.87508 0.319962 L 0.87508 0.309959 L 0.880081 0.309959 L 0.87508 0.309959 L 0.87508 0.304958 L 0.87508 0.31496 L 0.870079 0.31496 L 0.87508 0.31496 L 0.87508 0.319962 L 0.865078 0.319962 L 0.865078 0.31496 L 0.865078 0.319962 L 0.860077 0.319962 L 0.870079 0.319962 L 0.870079 0.324963 L 0.870079 0.319962 L 0.885082 0.319962 L 0.885082 0.324963 L 0.885082 0.319962 L 0.890083 0.319962 L 0.890083 0.329964 L 0.885082 0.329964 L 0.890083 0.329964 L 0.890083 0.334965 L 0.890083 0.324963 L 0.895084 0.324963 L 0.890083 0.324963 L 0.890083 0.319962 L 0.900085 0.319962 L 0.900085 0.324963 L 0.900085 0.319962 L 0.905087 0.319962 L 0.905087 0.329964 L 0.900085 0.329964 L 0.905087 0.329964 L 0.905087 0.344967 L 0.900085 0.344967 L 0.905087 0.344967 L 0.905087 0.349968 L 0.895084 0.349968 L 0.895084 0.344967 L 0.895084 0.349968 L 0.890083 0.349968 L 0.900085 0.349968 L 0.900085 0.354969 L 0.900085 0.349968 L 0.905087 0.349968 L 0.905087 0.35997 L 0.900085 0.35997 L 0.905087 0.35997 L 0.905087 0.364971 L 0.895084 0.364971 L 0.895084 0.35997 L 0.895084 0.364971 L 0.880081 0.364971 L 0.880081 0.35997 L 0.880081 0.364971 L 0.87508 0.364971 L 0.87508 0.354969 L 0.880081 0.354969 L 0.87508 0.354969 L 0.87508 0.349968 L 0.87508 0.35997 L 0.870079 0.35997 L 0.87508 0.35997 L 0.87508 0.364971 L 0.865078 0.364971 L 0.865078 0.35997 L 0.865078 0.364971 L 0.850075 0.364971 L 0.850075 0.35997 L 0.850075 0.364971 L 0.835072 0.364971 L 0.835072 0.35997 L 0.835072 0.364971 L 0.83007 0.364971 L 0.83007 0.354969 L 0.835072 0.354969 L 0.83007 0.354969 L 0.83007 0.349968 L 0.83007 0.35997 L 0.825069 0.35997 L 0.83007 0.35997 L 0.83007 0.364971 L 0.820068 0.364971 L 0.820068 0.35997 L 0.820068 0.364971 L 0.815067 0.364971 L 0.815067 0.354969 L 0.820068 0.354969 L 0.815067 0.354969 L 0.815067 0.339966 L 0.820068 0.339966 L 0.815067 0.339966 L 0.815067 0.334965 L 0.825069 0.334965 L 0.825069 0.339966 L 0.825069 0.334965 L 0.83007 0.334965 L 0.820068 0.334965 L 0.820068 0.329964 L 0.820068 0.334965 L 0.815067 0.334965 L 0.815067 0.324963 L 0.820068 0.324963 L 0.815067 0.324963 L 0.815067 0.319962 L 0.815067 0.329964 L 0.810066 0.329964 L 0.815067 0.329964 L 0.815067 0.344967 L 0.810066 0.344967 L 0.815067 0.344967 L 0.815067 0.349968 L 0.805065 0.349968 L 0.805065 0.344967 L 0.805065 0.349968 L 0.800064 0.349968 L 0.810066 0.349968 L 0.810066 0.354969 L 0.810066 0.349968 L 0.815067 0.349968 L 0.815067 0.35997 L 0.810066 0.35997 L 0.815067 0.35997 L 0.815067 0.364971 L 0.805065 0.364971 L 0.805065 0.35997 L 0.805065 0.364971 L 0.790062 0.364971 L 0.790062 0.35997 L 0.790062 0.364971 L 0.785061 0.364971 L 0.785061 0.354969 L 0.790062 0.354969 L 0.785061 0.354969 L 0.785061 0.349968 L 0.785061 0.35997 L 0.78006 0.35997 L 0.785061 0.35997 L 0.785061 0.364971 L 0.775059 0.364971 L 0.775059 0.35997 L 0.775059 0.364971 L 0.770058 0.364971 L 0.78006 0.364971 L 0.78006 0.369972 L 0.78006 0.364971 L 0.795063 0.364971 L 0.795063 0.369972 L 0.795063 0.364971 L 0.800064 0.364971 L 0.800064 0.374973 L 0.795063 0.374973 L 0.800064 0.374973 L 0.800064 0.379974 L 0.800064 0.369972 L 0.805065 0.369972 L 0.800064 0.369972 L 0.800064 0.364971 L 0.810066 0.364971 L 0.810066 0.369972 L 0.810066 0.364971 L 0.825069 0.364971 L 0.825069 0.369972 L 0.825069 0.364971 L 0.840073 0.364971 L 0.840073 0.369972 L 0.840073 0.364971 L 0.845074 0.364971 L 0.845074 0.374973 L 0.840073 0.374973 L 0.845074 0.374973 L 0.845074 0.379974 L 0.845074 0.369972 L 0.850075 0.369972 L 0.845074 0.369972 L 0.845074 0.364971 L 0.855076 0.364971 L 0.855076 0.369972 L 0.855076 0.364971 L 0.860077 0.364971 L 0.860077 0.374973 L 0.855076 0.374973 L 0.860077 0.374973 L 0.860077 0.389977 L 0.855076 0.389977 L 0.860077 0.389977 L 0.860077 0.394978 L 0.850075 0.394978 L 0.850075 0.389977 L 0.850075 0.394978 L 0.845074 0.394978 L 0.855076 0.394978 L 0.855076 0.399979 L 0.855076 0.394978 L 0.860077 0.394978 L 0.860077 0.40498 L 0.855076 0.40498 L 0.860077 0.40498 L 0.860077 0.409981 L 0.860077 0.399979 L 0.865078 0.399979 L 0.860077 0.399979 L 0.860077 0.384975 L 0.865078 0.384975 L 0.860077 0.384975 L 0.860077 0.379974 L 0.870079 0.379974 L 0.870079 0.384975 L 0.870079 0.379974 L 0.87508 0.379974 L 0.865078 0.379974 L 0.865078 0.374973 L 0.865078 0.379974 L 0.860077 0.379974 L 0.860077 0.369972 L 0.865078 0.369972 L 0.860077 0.369972 L 0.860077 0.364971 L 0.870079 0.364971 L 0.870079 0.369972 L 0.870079 0.364971 L 0.885082 0.364971 L 0.885082 0.369972 L 0.885082 0.364971 L 0.890083 0.364971 L 0.890083 0.374973 L 0.885082 0.374973 L 0.890083 0.374973 L 0.890083 0.379974 L 0.890083 0.369972 L 0.895084 0.369972 L 0.890083 0.369972 L 0.890083 0.364971 L 0.900085 0.364971 L 0.900085 0.369972 L 0.900085 0.364971 L 0.905087 0.364971 L 0.905087 0.374973 L 0.900085 0.374973 L 0.905087 0.374973 L 0.905087 0.389977 L 0.900085 0.389977 L 0.905087 0.389977 L 0.905087 0.394978 L 0.895084 0.394978 L 0.895084 0.389977 L 0.895084 0.394978 L 0.890083 0.394978 L 0.900085 0.394978 L 0.900085 0.399979 L 0.900085 0.394978 L 0.905087 0.394978 L 0.905087 0.40498 L 0.900085 0.40498 L 0.905087 0.40498 L 0.905087 0.419983 L 0.900085 0.419983 L 0.905087 0.419983 L 0.905087 0.434986 L 0.900085 0.434986 L 0.905087 0.434986 L 0.905087 0.439987 L 0.895084 0.439987 L 0.895084 0.434986 L 0.895084 0.439987 L 0.890083 0.439987 L 0.900085 0.439987 L 0.900085 0.444988 L 0.900085 0.439987 L 0.905087 0.439987 L 0.905087 0.449989 L 0.900085 0.449989 L 0.905087 0.449989 L 0.905087 0.45499 L 0.895084 0.45499 L 0.895084 0.449989 L 0.895084 0.45499 L 0.880081 0.45499 L 0.880081 0.449989 L 0.880081 0.45499 L 0.87508 0.45499 L 0.87508 0.444988 L 0.880081 0.444988 L 0.87508 0.444988 L 0.87508 0.439987 L 0.87508 0.449989 L 0.870079 0.449989 L 0.87508 0.449989 L 0.87508 0.45499 L 0.865078 0.45499 L 0.865078 0.449989 L 0.865078 0.45499 L 0.860077 0.45499 L 0.870079 0.45499 L 0.870079 0.459991 L 0.870079 0.45499 L 0.885082 0.45499 L 0.885082 0.459991 L 0.885082 0.45499 L 0.890083 0.45499 L 0.890083 0.464993 L 0.885082 0.464993 L 0.890083 0.464993 L 0.890083 0.469994 L 0.890083 0.459991 L 0.895084 0.459991 L 0.890083 0.459991 L 0.890083 0.45499 L 0.900085 0.45499 L 0.900085 0.459991 L 0.900085 0.45499 L 0.905087 0.45499 L 0.905087 0.464993 L 0.900085 0.464993 L 0.905087 0.464993 L 0.905087 0.479996 L 0.900085 0.479996 L 0.905087 0.479996 L 0.905087 0.484997 L 0.895084 0.484997 L 0.895084 0.479996 L 0.895084 0.484997 L 0.890083 0.484997 L 0.900085 0.484997 L 0.900085 0.489998 L 0.900085 0.484997 L 0.905087 0.484997 L 0.905087 0.494999 L 0.900085 0.494999 L 0.905087 0.494999 L 0.905087 0.5 L 0.895084 0.5 L 0.895084 0.494999 L 0.895084 0.5 L 0.880081 0.5 L 0.880081 0.494999 L 0.880081 0.5 L 0.87508 0.5 L 0.87508 0.489998 L 0.880081 0.489998 L 0.87508 0.489998 L 0.87508 0.484997 L 0.87508 0.494999 L 0.870079 0.494999 L 0.87508 0.494999 L 0.87508 0.5 L 0.865078 0.5 L 0.865078 0.494999 L 0.865078 0.5 L 0.850075 0.5 L 0.850075 0.494999 L 0.850075 0.5 L 0.835072 0.5 L 0.835072 0.494999 L 0.835072 0.5 L 0.83007 0.5 L 0.83007 0.489998 L 0.835072 0.489998 L 0.83007 0.489998 L 0.83007 0.484997 L 0.83007 0.494999 L 0.825069 0.494999 L 0.83007 0.494999 L 0.83007 0.5 L 0.820068 0.5 L 0.820068 0.494999 L 0.820068 0.5 L 0.815067 0.5 L 0.815067 0.489998 L 0.820068 0.489998 L 0.815067 0.489998 L 0.815067 0.474995 L 0.820068 0.474995 L 0.815067 0.474995 L 0.815067 0.469994 L 0.825069 0.469994 L 0.825069 0.474995 L 0.825069 0.469994 L 0.83007 0.469994 L 0.820068 0.469994 L 0.820068 0.464993 L 0.820068 0.469994 L 0.815067 0.469994 L 0.815067 0.459991 L 0.820068 0.459991 L 0.815067 0.459991 L 0.815067 0.45499 L 0.815067 0.464993 L 0.810066 0.464993 L 0.815067 0.464993 L 0.815067 0.479996 L 0.810066 0.479996 L 0.815067 0.479996 L 0.815067 0.484997 L 0.805065 0.484997 L 0.805065 0.479996 L 0.805065 0.484997 L 0.800064 0.484997 L 0.810066 0.484997 L 0.810066 0.489998 L 0.810066 0.484997 L 0.815067 0.484997 L 0.815067 0.494999 L 0.810066 0.494999 L 0.815067 0.494999 L 0.815067 0.5 L 0.805065 0.5 L 0.805065 0.494999 L 0.805065 0.5 L 0.790062 0.5 L 0.790062 0.494999 L 0.790062 0.5 L 0.785061 0.5 L 0.785061 0.489998 L 0.790062 0.489998 L 0.785061 0.489998 L 0.785061 0.484997 L 0.785061 0.494999 L 0.78006 0.494999 L 0.785061 0.494999 L 0.785061 0.5 L 0.775059 0.5 L 0.775059 0.494999 L 0.775059 0.5 L 0.760056 0.5 L 0.760056 0.494999 L 0.760056 0.5 L 0.745052 0.5 L 0.745052 0.494999 L 0.745052 0.5 L 0.740051 0.5 L 0.740051 0.489998 L 0.745052 0.489998 L 0.740051 0.489998 L 0.740051 0.484997 L 0.740051 0.494999 L 0.73505 0.494999 L 0.740051 0.494999 L 0.740051 0.5 L 0.730049 0.5 L 0.730049 0.494999 L 0.730049 0.5 L 0.715046 0.5 L 0.715046 0.494999 L 0.715046 0.5 L 0.700043 0.5 L 0.700043 0.494999 L 0.700043 0.5 L 0.695042 0.5 L 0.695042 0.489998 L 0.700043 0.489998 L 0.695042 0.489998 L 0.695042 0.484997 L 0.695042 0.494999 L 0.690041 0.494999 L 0.695042 0.494999 L 0.695042 0.5 L 0.68504 0.5 L 0.68504 0.494999 L 0.68504 0.5 L 0.680038 0.5 L 0.680038 0.489998 L 0.68504 0.489998 L 0.680038 0.489998 L 0.680038 0.474995 L 0.68504 0.474995 L 0.680038 0.474995 L 0.680038 0.469994 L 0.690041 0.469994 L 0.690041 0.474995 L 0.690041 0.469994 L 0.695042 0.469994 L 0.68504 0.469994 L 0.68504 0.464993 L 0.68504 0.469994 L 0.680038 0.469994 L 0.680038 0.459991 L 0.68504 0.459991 L 0.680038 0.459991 L 0.680038 0.45499 L 0.680038 0.464993 L 0.675037 0.464993 L 0.680038 0.464993 L 0.680038 0.479996 L 0.675037 0.479996 L 0.680038 0.479996 L 0.680038 0.484997 L 0.670036 0.484997 L 0.670036 0.479996 L 0.670036 0.484997 L 0.665035 0.484997 L 0.675037 0.484997 L 0.675037 0.489998 L 0.675037 0.484997 L 0.680038 0.484997 L 0.680038 0.494999 L 0.675037 0.494999 L 0.680038 0.494999 L 0.680038 0.5 L 0.670036 0.5 L 0.670036 0.494999 L 0.670036 0.5 L 0.655033 0.5 L 0.655033 0.494999 L 0.655033 0.5 L 0.650032 0.5 L 0.650032 0.489998 L 0.655033 0.489998 L 0.650032 0.489998 L 0.650032 0.484997 L 0.650032 0.494999 L 0.645031 0.494999 L 0.650032 0.494999 L 0.650032 0.5 L 0.64003 0.5 L 0.64003 0.494999 L 0.64003 0.5 L 0.635029 0.5 L 0.635029 0.489998 L 0.64003 0.489998 L 0.635029 0.489998 L 0.635029 0.474995 L 0.64003 0.474995 L 0.635029 0.474995 L 0.635029 0.469994 L 0.645031 0.469994 L 0.645031 0.474995 L 0.645031 0.469994 L 0.650032 0.469994 L 0.64003 0.469994 L 0.64003 0.464993 L 0.64003 0.469994 L 0.635029 0.469994 L 0.635029 0.459991 L 0.64003 0.459991 L 0.635029 0.459991 L 0.635029 0.444988 L 0.64003 0.444988 L 0.635029 0.444988 L 0.635029 0.429985 L 0.64003 0.429985 L 0.635029 0.429985 L 0.635029 0.424984 L 0.645031 0.424984 L 0.645031 0.429985 L 0.645031 0.424984 L 0.650032 0.424984 L 0.64003 0.424984 L 0.64003 0.419983 L 0.64003 0.424984 L 0.635029 0.424984 L 0.635029 0.414982 L 0.64003 0.414982 L 0.635029 0.414982 L 0.635029 0.409981 L 0.645031 0.409981 L 0.645031 0.414982 L 0.645031 0.409981 L 0.660034 0.409981 L 0.660034 0.414982 L 0.660034 0.409981 L 0.665035 0.409981 L 0.665035 0.419983 L 0.660034 0.419983 L 0.665035 0.419983 L 0.665035 0.424984 L 0.665035 0.414982 L 0.670036 0.414982 L 0.665035 0.414982 L 0.665035 0.409981 L 0.675037 0.409981 L 0.675037 0.414982 L 0.675037 0.409981 L 0.680038 0.409981 L 0.670036 0.409981 L 0.670036 0.40498 L 0.670036 0.409981 L 0.655033 0.409981 L 0.655033 0.40498 L 0.655033 0.409981 L 0.650032 0.409981 L 0.650032 0.399979 L 0.655033 0.399979 L 0.650032 0.399979 L 0.650032 0.394978 L 0.650032 0.40498 L 0.645031 0.40498 L 0.650032 0.40498 L 0.650032 0.409981 L 0.64003 0.409981 L 0.64003 0.40498 L 0.64003 0.409981 L 0.635029 0.409981 L 0.635029 0.399979 L 0.64003 0.399979 L 0.635029 0.399979 L 0.635029 0.384975 L 0.64003 0.384975 L 0.635029 0.384975 L 0.635029 0.379974 L 0.645031 0.379974 L 0.645031 0.384975 L 0.645031 0.379974 L 0.650032 0.379974 L 0.64003 0.379974 L 0.64003 0.374973 L 0.64003 0.379974 L 0.635029 0.379974 L 0.635029 0.369972 L 0.64003 0.369972 L 0.635029 0.369972 L 0.635029 0.364971 L 0.635029 0.374973 L 0.630028 0.374973 L 0.635029 0.374973 L 0.635029 0.389977 L 0.630028 0.389977 L 0.635029 0.389977 L 0.635029 0.394978 L 0.625027 0.394978 L 0.625027 0.389977 L 0.625027 0.394978 L 0.620026 0.394978 L 0.630028 0.394978 L 0.630028 0.399979 L 0.630028 0.394978 L 0.635029 0.394978 L 0.635029 0.40498 L 0.630028 0.40498 L 0.635029 0.40498 L 0.635029 0.419983 L 0.630028 0.419983 L 0.635029 0.419983 L 0.635029 0.434986 L 0.630028 0.434986 L 0.635029 0.434986 L 0.635029 0.439987 L 0.625027 0.439987 L 0.625027 0.434986 L 0.625027 0.439987 L 0.620026 0.439987 L 0.630028 0.439987 L 0.630028 0.444988 L 0.630028 0.439987 L 0.635029 0.439987 L 0.635029 0.449989 L 0.630028 0.449989 L 0.635029 0.449989 L 0.635029 0.45499 L 0.625027 0.45499 L 0.625027 0.449989 L 0.625027 0.45499 L 0.610023 0.45499 L 0.610023 0.449989 L 0.610023 0.45499 L 0.605022 0.45499 L 0.605022 0.444988 L 0.610023 0.444988 L 0.605022 0.444988 L 0.605022 0.439987 L 0.605022 0.449989 L 0.600021 0.449989 L 0.605022 0.449989 L 0.605022 0.45499 L 0.59502 0.45499 L 0.59502 0.449989 L 0.59502 0.45499 L 0.590019 0.45499 L 0.600021 0.45499 L 0.600021 0.459991 L 0.600021 0.45499 L 0.615025 0.45499 L 0.615025 0.459991 L 0.615025 0.45499 L 0.620026 0.45499 L 0.620026 0.464993 L 0.615025 0.464993 L 0.620026 0.464993 L 0.620026 0.469994 L 0.620026 0.459991 L 0.625027 0.459991 L 0.620026 0.459991 L 0.620026 0.45499 L 0.630028 0.45499 L 0.630028 0.459991 L 0.630028 0.45499 L 0.635029 0.45499 L 0.635029 0.464993 L 0.630028 0.464993 L 0.635029 0.464993 L 0.635029 0.479996 L 0.630028 0.479996 L 0.635029 0.479996 L 0.635029 0.484997 L 0.625027 0.484997 L 0.625027 0.479996 L 0.625027 0.484997 L 0.620026 0.484997 L 0.630028 0.484997 L 0.630028 0.489998 L 0.630028 0.484997 L 0.635029 0.484997 L 0.635029 0.494999 L 0.630028 0.494999 L 0.635029 0.494999 L 0.635029 0.5 L 0.625027 0.5 L 0.625027 0.494999 L 0.625027 0.5 L 0.610023 0.5 L 0.610023 0.494999 L 0.610023 0.5 L 0.605022 0.5 L 0.605022 0.489998 L 0.610023 0.489998 L 0.605022 0.489998 L 0.605022 0.484997 L 0.605022 0.494999 L 0.600021 0.494999 L 0.605022 0.494999 L 0.605022 0.5 L 0.59502 0.5 L 0.59502 0.494999 L 0.59502 0.5 L 0.580017 0.5 L 0.580017 0.494999 L 0.580017 0.5 L 0.565014 0.5 L 0.565014 0.494999 L 0.565014 0.5 L 0.560013 0.5 L 0.560013 0.489998 L 0.565014 0.489998 L 0.560013 0.489998 L 0.560013 0.484997 L 0.560013 0.494999 L 0.555012 0.494999 L 0.560013 0.494999 L 0.560013 0.5 L 0.550011 0.5 L 0.550011 0.494999 L 0.550011 0.5 L 0.54501 0.5 L 0.54501 0.489998 L 0.550011 0.489998 L 0.54501 0.489998 L 0.54501 0.474995 L 0.550011 0.474995 L 0.54501 0.474995 L 0.54501 0.469994 L 0.555012 0.469994 L 0.555012 0.474995 L 0.555012 0.469994 L 0.560013 0.469994 L 0.550011 0.469994 L 0.550011 0.464993 L 0.550011 0.469994 L 0.54501 0.469994 L 0.54501 0.459991 L 0.550011 0.459991 L 0.54501 0.459991 L 0.54501 0.45499 L 0.54501 0.464993 L 0.540009 0.464993 L 0.54501 0.464993 L 0.54501 0.479996 L 0.540009 0.479996 L 0.54501 0.479996 L 0.54501 0.484997 L 0.535007 0.484997 L 0.535007 0.479996 L 0.535007 0.484997 L 0.530006 0.484997 L 0.540009 0.484997 L 0.540009 0.489998 L 0.540009 0.484997 L 0.54501 0.484997 L 0.54501 0.494999 L 0.540009 0.494999 L 0.54501 0.494999 L 0.54501 0.5 L 0.535007 0.5 L 0.535007 0.494999 L 0.535007 0.5 L 0.520004 0.5 L 0.520004 0.494999 L 0.520004 0.5 L 0.515003 0.5 L 0.515003 0.489998 L 0.520004 0.489998 L 0.515003 0.489998 L 0.515003 0.484997 L 0.515003 0.494999 L 0.510002 0.494999 L 0.515003 0.494999 L 0.515003 0.5 L 0.505001 0.5 L 0.505001 0.494999 L 0.505001 0.5 L 0.5 0.5 " transform="matrix(1024,0,0,1024,0,0)"/>
</g>
</svg>
