<?xml version="1.0" encoding="UTF-8"?>
<svg xmlns="http://www.w3.org/2000/svg" xmlns:xlink="http://www.w3.org/1999/xlink" width="1024pt" height="1024pt" viewBox="0 0 1024 1024" version="1.1">
<g id="surface16">
<path style="fill:none;stroke-width:0.001;stroke-linecap:butt;stroke-linejoin:miter;stroke:rgb(0%,0%,0%);stroke-opacity:1;stroke-miterlimit:10;" d="M 0.5 0.5 L 0.5 0.494999 L 0.505001 0.494999 L 0.505001 0.5 L 0.510002 0.5 L 0.510002 0.505001 L 0.505001 0.505001 L 0.505001 0.510002 L 0.510002 0.510002 L 0.510002 0.515003 L 0.505001 0.515003 L 0.505001 0.510002 L 0.5 0.510002 L 0.5 0.515003 L 0.494999 0.515003 L 0.494999 0.520004 L 0.5 0.520004 L 0.5 0.525005 L 0.494999 0.525005 L 0.494999 0.520004 L 0.489998 0.520004 L 0.489998 0.515003 L 0.494999 0.515003 L 0.494999 0.510002 L 0.489998 0.510002 L 0.489998 0.515003 L 0.484997 0.515003 L 0.484997 0.510002 L 0.479996 0.510002 L 0.479996 0.515003 L 0.474995 0.515003 L 0.474995 0.520004 L 0.479996 0.520004 L 0.479996 0.525005 L 0.474995 0.525005 L 0.474995 0.520004 L 0.469994 0.520004 L 0.469994 0.515003 L 0.474995 0.515003 L 0.474995 0.510002 L 0.469994 0.510002 L 0.469994 0.505001 L 0.474995 0.505001 L 0.474995 0.510002 L 0.479996 0.510002 L 0.479996 0.505001 L 0.484997 0.505001 L 0.484997 0.5 L 0.479996 0.5 L 0.479996 0.505001 L 0.474995 0.505001 L 0.474995 0.5 L 0.469994 0.5 L 0.469994 0.494999 L 0.474995 0.494999 L 0.474995 0.489998 L 0.469994 0.489998 L 0.469994 0.494999 L 0.464993 0.494999 L 0.464993 0.489998 L 0.459991 0.489998 L 0.459991 0.494999 L 0.45499 0.494999 L 0.45499 0.5 L 0.459991 0.5 L 0.459991 0.505001 L 0.45499 0.505001 L 0.45499 0.5 L 0.449989 0.5 L 0.449989 0.494999 L 0.45499 0.494999 L 0.45499 0.489998 L 0.449989 0.489998 L 0.449989 0.484997 L 0.45499 0.484997 L 0.45499 0.489998 L 0.459991 0.489998 L 0.459991 0.484997 L 0.464993 0.484997 L 0.464993 0.479996 L 0.459991 0.479996 L 0.459991 0.474995 L 0.464993 0.474995 L 0.464993 0.479996 L 0.469994 0.479996 L 0.469994 0.484997 L 0.464993 0.484997 L 0.464993 0.489998 L 0.469994 0.489998 L 0.469994 0.484997 L 0.474995 0.484997 L 0.474995 0.489998 L 0.479996 0.489998 L 0.479996 0.484997 L 0.484997 0.484997 L 0.484997 0.479996 L 0.479996 0.479996 L 0.479996 0.484997 L 0.474995 0.484997 L 0.474995 0.479996 L 0.469994 0.479996 L 0.469994 0.474995 L 0.474995 0.474995 L 0.474995 0.469994 L 0.469994 0.469994 L 0.469994 0.464993 L 0.474995 0.464993 L 0.474995 0.469994 L 0.479996 0.469994 L 0.479996 0.464993 L 0.484997 0.464993 L 0.484997 0.459991 L 0.479996 0.459991 L 0.479996 0.464993 L 0.474995 0.464993 L 0.474995 0.459991 L 0.469994 0.459991 L 0.469994 0.45499 L 0.474995 0.45499 L 0.474995 0.449989 L 0.469994 0.449989 L 0.469994 0.45499 L 0.464993 0.45499 L 0.464993 0.449989 L 0.459991 0.449989 L 0.459991 0.45499 L 0.45499 0.45499 L 0.45499 0.459991 L 0.459991 0.459991 L 0.459991 0.464993 L 0.45499 0.464993 L 0.45499 0.459991 L 0.449989 0.459991 L 0.449989 0.45499 L 0.45499 0.45499 L 0.45499 0.449989 L 0.449989 0.449989 L 0.449989 0.444988 L 0.45499 0.444988 L 0.45499 0.449989 L 0.459991 0.449989 L 0.459991 0.444988 L 0.464993 0.444988 L 0.464993 0.439987 L 0.459991 0.439987 L 0.459991 0.434986 L 0.464993 0.434986 L 0.464993 0.439987 L 0.469994 0.439987 L 0.469994 0.444988 L 0.464993 0.444988 L 0.464993 0.449989 L 0.469994 0.449989 L 0.469994 0.444988 L 0.474995 0.444988 L 0.474995 0.449989 L 0.479996 0.449989 L 0.479996 0.444988 L 0.484997 0.444988 L 0.484997 0.439987 L 0.479996 0.439987 L 0.479996 0.434986 L 0.484997 0.434986 L 0.484997 0.439987 L 0.489998 0.439987 L 0.489998 0.444988 L 0.484997 0.444988 L 0.484997 0.449989 L 0.489998 0.449989 L 0.489998 0.45499 L 0.484997 0.45499 L 0.484997 0.449989 L 0.479996 0.449989 L 0.479996 0.45499 L 0.474995 0.45499 L 0.474995 0.459991 L 0.479996 0.459991 L 0.479996 0.45499 L 0.484997 0.45499 L 0.484997 0.459991 L 0.489998 0.459991 L 0.489998 0.464993 L 0.484997 0.464993 L 0.484997 0.469994 L 0.489998 0.469994 L 0.489998 0.464993 L 0.494999 0.464993 L 0.494999 0.469994 L 0.5 0.469994 L 0.5 0.464993 L 0.505001 0.464993 L 0.505001 0.459991 L 0.5 0.459991 L 0.5 0.464993 L 0.494999 0.464993 L 0.494999 0.459991 L 0.489998 0.459991 L 0.489998 0.45499 L 0.494999 0.45499 L 0.494999 0.449989 L 0.489998 0.449989 L 0.489998 0.444988 L 0.494999 0.444988 L 0.494999 0.449989 L 0.5 0.449989 L 0.5 0.444988 L 0.505001 0.444988 L 0.505001 0.439987 L 0.5 0.439987 L 0.5 0.434986 L 0.505001 0.434986 L 0.505001 0.439987 L 0.510002 0.439987 L 0.510002 0.444988 L 0.505001 0.444988 L 0.505001 0.449989 L 0.510002 0.449989 L 0.510002 0.444988 L 0.515003 0.444988 L 0.515003 0.449989 L 0.520004 0.449989 L 0.520004 0.444988 L 0.525005 0.444988 L 0.525005 0.439987 L 0.520004 0.439987 L 0.520004 0.444988 L 0.515003 0.444988 L 0.515003 0.439987 L 0.510002 0.439987 L 0.510002 0.434986 L 0.515003 0.434986 L 0.515003 0.429985 L 0.510002 0.429985 L 0.510002 0.424984 L 0.515003 0.424984 L 0.515003 0.429985 L 0.520004 0.429985 L 0.520004 0.424984 L 0.525005 0.424984 L 0.525005 0.419983 L 0.520004 0.419983 L 0.520004 0.424984 L 0.515003 0.424984 L 0.515003 0.419983 L 0.510002 0.419983 L 0.510002 0.414982 L 0.515003 0.414982 L 0.515003 0.409981 L 0.510002 0.409981 L 0.510002 0.414982 L 0.505001 0.414982 L 0.505001 0.409981 L 0.5 0.409981 L 0.5 0.414982 L 0.494999 0.414982 L 0.494999 0.419983 L 0.5 0.419983 L 0.5 0.424984 L 0.494999 0.424984 L 0.494999 0.419983 L 0.489998 0.419983 L 0.489998 0.414982 L 0.494999 0.414982 L 0.494999 0.409981 L 0.489998 0.409981 L 0.489998 0.40498 L 0.494999 0.40498 L 0.494999 0.409981 L 0.5 0.409981 L 0.5 0.40498 L 0.505001 0.40498 L 0.505001 0.399979 L 0.5 0.399979 L 0.5 0.394978 L 0.505001 0.394978 L 0.505001 0.399979 L 0.510002 0.399979 L 0.510002 0.40498 L 0.505001 0.40498 L 0.505001 0.409981 L 0.510002 0.409981 L 0.510002 0.40498 L 0.515003 0.40498 L 0.515003 0.409981 L 0.520004 0.409981 L 0.520004 0.40498 L 0.525005 0.40498 L 0.525005 0.399979 L 0.520004 0.399979 L 0.520004 0.394978 L 0.525005 0.394978 L 0.525005 0.399979 L 0.530006 0.399979 L 0.530006 0.40498 L 0.525005 0.40498 L 0.525005 0.409981 L 0.530006 0.409981 L 0.530006 0.414982 L 0.525005 0.414982 L 0.525005 0.409981 L 0.520004 0.409981 L 0.520004 0.414982 L 0.515003 0.414982 L 0.515003 0.419983 L 0.520004 0.419983 L 0.520004 0.414982 L 0.525005 0.414982 L 0.525005 0.419983 L 0.530006 0.419983 L 0.530006 0.424984 L 0.525005 0.424984 L 0.525005 0.429985 L 0.530006 0.429985 L 0.530006 0.424984 L 0.535007 0.424984 L 0.535007 0.429985 L 0.540009 0.429985 L 0.540009 0.424984 L 0.54501 0.424984 L 0.54501 0.419983 L 0.540009 0.419983 L 0.540009 0.414982 L 0.54501 0.414982 L 0.54501 0.419983 L 0.550011 0.419983 L 0.550011 0.424984 L 0.54501 0.424984 L 0.54501 0.429985 L 0.550011 0.429985 L 0.550011 0.434986 L 0.54501 0.434986 L 0.54501 0.429985 L 0.540009 0.429985 L 0.540009 0.434986 L 0.535007 0.434986 L 0.535007 0.439987 L 0.540009 0.439987 L 0.540009 0.444988 L 0.535007 0.444988 L 0.535007 0.439987 L 0.530006 0.439987 L 0.530006 0.434986 L 0.535007 0.434986 L 0.535007 0.429985 L 0.530006 0.429985 L 0.530006 0.434986 L 0.525005 0.434986 L 0.525005 0.429985 L 0.520004 0.429985 L 0.520004 0.434986 L 0.515003 0.434986 L 0.515003 0.439987 L 0.520004 0.439987 L 0.520004 0.434986 L 0.525005 0.434986 L 0.525005 0.439987 L 0.530006 0.439987 L 0.530006 0.444988 L 0.525005 0.444988 L 0.525005 0.449989 L 0.530006 0.449989 L 0.530006 0.45499 L 0.525005 0.45499 L 0.525005 0.449989 L 0.520004 0.449989 L 0.520004 0.45499 L 0.515003 0.45499 L 0.515003 0.459991 L 0.520004 0.459991 L 0.520004 0.45499 L 0.525005 0.45499 L 0.525005 0.459991 L 0.530006 0.459991 L 0.530006 0.464993 L 0.525005 0.464993 L 0.525005 0.469994 L 0.530006 0.469994 L 0.530006 0.464993 L 0.535007 0.464993 L 0.535007 0.469994 L 0.540009 0.469994 L 0.540009 0.464993 L 0.54501 0.464993 L 0.54501 0.459991 L 0.540009 0.459991 L 0.540009 0.464993 L 0.535007 0.464993 L 0.535007 0.459991 L 0.530006 0.459991 L 0.530006 0.45499 L 0.535007 0.45499 L 0.535007 0.449989 L 0.530006 0.449989 L 0.530006 0.444988 L 0.535007 0.444988 L 0.535007 0.449989 L 0.540009 0.449989 L 0.540009 0.444988 L 0.54501 0.444988 L 0.54501 0.439987 L 0.540009 0.439987 L 0.540009 0.434986 L 0.54501 0.434986 L 0.54501 0.439987 L 0.550011 0.439987 L 0.550011 0.444988 L 0.54501 0.444988 L 0.54501 0.449989 L 0.550011 0.449989 L 0.550011 0.444988 L 0.555012 0.444988 L 0.555012 0.449989 L 0.560013 0.449989 L 0.560013 0.444988 L 0.565014 0.444988 L 0.565014 0.439987 L 0.560013 0.439987 L 0.560013 0.434986 L 0.565014 0.434986 L 0.565014 0.439987 L 0.570015 0.439987 L 0.570015 0.444988 L 0.565014 0.444988 L 0.565014 0.449989 L 0.570015 0.449989 L 0.570015 0.45499 L 0.565014 0.45499 L 0.565014 0.449989 L 0.560013 0.449989 L 0.560013 0.45499 L 0.555012 0.45499 L 0.555012 0.459991 L 0.560013 0.459991 L 0.560013 0.45499 L 0.565014 0.45499 L 0.565014 0.459991 L 0.570015 0.459991 L 0.570015 0.464993 L 0.565014 0.464993 L 0.565014 0.469994 L 0.570015 0.469994 L 0.570015 0.464993 L 0.575016 0.464993 L 0.575016 0.469994 L 0.580017 0.469994 L 0.580017 0.464993 L 0.585018 0.464993 L 0.585018 0.459991 L 0.580017 0.459991 L 0.580017 0.464993 L 0.575016 0.464993 L 0.575016 0.459991 L 0.570015 0.459991 L 0.570015 0.45499 L 0.575016 0.45499 L 0.575016 0.449989 L 0.570015 0.449989 L 0.570015 0.444988 L 0.575016 0.444988 L 0.575016 0.449989 L 0.580017 0.449989 L 0.580017 0.444988 L 0.585018 0.444988 L 0.585018 0.439987 L 0.580017 0.439987 L 0.580017 0.434986 L 0.585018 0.434986 L 0.585018 0.439987 L 0.590019 0.439987 L 0.590019 0.444988 L 0.585018 0.444988 L 0.585018 0.449989 L 0.590019 0.449989 L 0.590019 0.444988 L 0.59502 0.444988 L 0.59502 0.449989 L 0.600021 0.449989 L 0.600021 0.444988 L 0.605022 0.444988 L 0.605022 0.439987 L 0.600021 0.439987 L 0.600021 0.444988 L 0.59502 0.444988 L 0.59502 0.439987 L 0.590019 0.439987 L 0.590019 0.434986 L 0.59502 0.434986 L 0.59502 0.429985 L 0.590019 0.429985 L 0.590019 0.424984 L 0.59502 0.424984 L 0.59502 0.429985 L 0.600021 0.429985 L 0.600021 0.424984 L 0.605022 0.424984 L 0.605022 0.419983 L 0.600021 0.419983 L 0.600021 0.424984 L 0.59502 0.424984 L 0.59502 0.419983 L 0.590019 0.419983 L 0.590019 0.414982 L 0.59502 0.414982 L 0.59502 0.409981 L 0.590019 0.409981 L 0.590019 0.414982 L 0.585018 0.414982 L 0.585018 0.409981 L 0.580017 0.409981 L 0.580017 0.414982 L 0.575016 0.414982 L 0.575016 0.419983 L 0.580017 0.419983 L 0.580017 0.424984 L 0.575016 0.424984 L 0.575016 0.419983 L 0.570015 0.419983 L 0.570015 0.414982 L 0.575016 0.414982 L 0.575016 0.409981 L 0.570015 0.409981 L 0.570015 0.40498 L 0.575016 0.40498 L 0.575016 0.409981 L 0.580017 0.409981 L 0.580017 0.40498 L 0.585018 0.40498 L 0.585018 0.399979 L 0.580017 0.399979 L 0.580017 0.394978 L 0.585018 0.394978 L 0.585018 0.399979 L 0.590019 0.399979 L 0.590019 0.40498 L 0.585018 0.40498 L 0.585018 0.409981 L 0.590019 0.409981 L 0.590019 0.40498 L 0.59502 0.40498 L 0.59502 0.409981 L 0.600021 0.409981 L 0.600021 0.40498 L 0.605022 0.40498 L 0.605022 0.399979 L 0.600021 0.399979 L 0.600021 0.394978 L 0.605022 0.394978 L 0.605022 0.399979 L 0.610023 0.399979 L 0.610023 0.40498 L 0.605022 0.40498 L 0.605022 0.409981 L 0.610023 0.409981 L 0.610023 0.414982 L 0.605022 0.414982 L 0.605022 0.409981 L 0.600021 0.409981 L 0.600021 0.414982 L 0.59502 0.414982 L 0.59502 0.419983 L 0.600021 0.419983 L 0.600021 0.414982 L 0.605022 0.414982 L 0.605022 0.419983 L 0.610023 0.419983 L 0.610023 0.424984 L 0.605022 0.424984 L 0.605022 0.429985 L 0.610023 0.429985 L 0.610023 0.424984 L 0.615025 0.424984 L 0.615025 0.429985 L 0.620026 0.429985 L 0.620026 0.424984 L 0.625027 0.424984 L 0.625027 0.419983 L 0.620026 0.419983 L 0.620026 0.414982 L 0.625027 0.414982 L 0.625027 0.419983 L 0.630028 0.419983 L 0.630028 0.424984 L 0.625027 0.424984 L 0.625027 0.429985 L 0.630028 0.429985 L 0.630028 0.434986 L 0.625027 0.434986 L 0.625027 0.429985 L 0.620026 0.429985 L 0.620026 0.434986 L 0.615025 0.434986 L 0.615025 0.439987 L 0.620026 0.439987 L 0.620026 0.444988 L 0.615025 0.444988 L 0.615025 0.439987 L 0.610023 0.439987 L 0.610023 0.434986 L 0.615025 0.434986 L 0.615025 0.429985 L 0.610023 0.429985 L 0.610023 0.434986 L 0.605022 0.434986 L 0.605022 0.429985 L 0.600021 0.429985 L 0.600021 0.434986 L 0.59502 0.434986 L 0.59502 0.439987 L 0.600021 0.439987 L 0.600021 0.434986 L 0.605022 0.434986 L 0.605022 0.439987 L 0.610023 0.439987 L 0.610023 0.444988 L 0.605022 0.444988 L 0.605022 0.449989 L 0.610023 0.449989 L 0.610023 0.45499 L 0.605022 0.45499 L 0.605022 0.449989 L 0.600021 0.449989 L 0.600021 0.45499 L 0.59502 0.45499 L 0.59502 0.459991 L 0.600021 0.459991 L 0.600021 0.45499 L 0.605022 0.45499 L 0.605022 0.459991 L 0.610023 0.459991 L 0.610023 0.464993 L 0.605022 0.464993 L 0.605022 0.469994 L 0.610023 0.469994 L 0.610023 0.464993 L 0.615025 0.464993 L 0.615025 0.469994 L 0.620026 0.469994 L 0.620026 0.464993 L 0.625027 0.464993 L 0.625027 0.459991 L 0.620026 0.459991 L 0.620026 0.45499 L 0.625027 0.45499 L 0.625027 0.459991 L 0.630028 0.459991 L 0.630028 0.464993 L 0.625027 0.464993 L 0.625027 0.469994 L 0.630028 0.469994 L 0.630028 0.474995 L 0.625027 0.474995 L 0.625027 0.469994 L 0.620026 0.469994 L 0.620026 0.474995 L 0.615025 0.474995 L 0.615025 0.479996 L 0.620026 0.479996 L 0.620026 0.484997 L 0.615025 0.484997 L 0.615025 0.479996 L 0.610023 0.479996 L 0.610023 0.474995 L 0.615025 0.474995 L 0.615025 0.469994 L 0.610023 0.469994 L 0.610023 0.474995 L 0.605022 0.474995 L 0.605022 0.469994 L 0.600021 0.469994 L 0.600021 0.474995 L 0.59502 0.474995 L 0.59502 0.479996 L 0.600021 0.479996 L 0.600021 0.484997 L 0.59502 0.484997 L 0.59502 0.479996 L 0.590019 0.479996 L 0.590019 0.474995 L 0.59502 0.474995 L 0.59502 0.469994 L 0.590019 0.469994 L 0.590019 0.464993 L 0.59502 0.464993 L 0.59502 0.469994 L 0.600021 0.469994 L 0.600021 0.464993 L 0.605022 0.464993 L 0.605022 0.459991 L 0.600021 0.459991 L 0.600021 0.464993 L 0.59502 0.464993 L 0.59502 0.459991 L 0.590019 0.459991 L 0.590019 0.45499 L 0.59502 0.45499 L 0.59502 0.449989 L 0.590019 0.449989 L 0.590019 0.45499 L 0.585018 0.45499 L 0.585018 0.449989 L 0.580017 0.449989 L 0.580017 0.45499 L 0.575016 0.45499 L 0.575016 0.459991 L 0.580017 0.459991 L 0.580017 0.45499 L 0.585018 0.45499 L 0.585018 0.459991 L 0.590019 0.459991 L 0.590019 0.464993 L 0.585018 0.464993 L 0.585018 0.469994 L 0.590019 0.469994 L 0.590019 0.474995 L 0.585018 0.474995 L 0.585018 0.469994 L 0.580017 0.469994 L 0.580017 0.474995 L 0.575016 0.474995 L 0.575016 0.479996 L 0.580017 0.479996 L 0.580017 0.484997 L 0.575016 0.484997 L 0.575016 0.479996 L 0.570015 0.479996 L 0.570015 0.474995 L 0.575016 0.474995 L 0.575016 0.469994 L 0.570015 0.469994 L 0.570015 0.474995 L 0.565014 0.474995 L 0.565014 0.469994 L 0.560013 0.469994 L 0.560013 0.474995 L 0.555012 0.474995 L 0.555012 0.479996 L 0.560013 0.479996 L 0.560013 0.474995 L 0.565014 0.474995 L 0.565014 0.479996 L 0.570015 0.479996 L 0.570015 0.484997 L 0.565014 0.484997 L 0.565014 0.489998 L 0.570015 0.489998 L 0.570015 0.494999 L 0.565014 0.494999 L 0.565014 0.489998 L 0.560013 0.489998 L 0.560013 0.494999 L 0.555012 0.494999 L 0.555012 0.5 L 0.560013 0.5 L 0.560013 0.494999 L 0.565014 0.494999 L 0.565014 0.5 L 0.570015 0.5 L 0.570015 0.505001 L 0.565014 0.505001 L 0.565014 0.510002 L 0.570015 0.510002 L 0.570015 0.505001 L 0.575016 0.505001 L 0.575016 0.510002 L 0.580017 0.510002 L 0.580017 0.505001 L 0.585018 0.505001 L 0.585018 0.5 L 0.580017 0.5 L 0.580017 0.505001 L 0.575016 0.505001 L 0.575016 0.5 L 0.570015 0.5 L 0.570015 0.494999 L 0.575016 0.494999 L 0.575016 0.489998 L 0.570015 0.489998 L 0.570015 0.484997 L 0.575016 0.484997 L 0.575016 0.489998 L 0.580017 0.489998 L 0.580017 0.484997 L 0.585018 0.484997 L 0.585018 0.479996 L 0.580017 0.479996 L 0.580017 0.474995 L 0.585018 0.474995 L 0.585018 0.479996 L 0.590019 0.479996 L 0.590019 0.484997 L 0.585018 0.484997 L 0.585018 0.489998 L 0.590019 0.489998 L 0.590019 0.484997 L 0.59502 0.484997 L 0.59502 0.489998 L 0.600021 0.489998 L 0.600021 0.484997 L 0.605022 0.484997 L 0.605022 0.479996 L 0.600021 0.479996 L 0.600021 0.474995 L 0.605022 0.474995 L 0.605022 0.479996 L 0.610023 0.479996 L 0.610023 0.484997 L 0.605022 0.484997 L 0.605022 0.489998 L 0.610023 0.489998 L 0.610023 0.494999 L 0.605022 0.494999 L 0.605022 0.489998 L 0.600021 0.489998 L 0.600021 0.494999 L 0.59502 0.494999 L 0.59502 0.5 L 0.600021 0.5 L 0.600021 0.494999 L 0.605022 0.494999 L 0.605022 0.5 L 0.610023 0.5 L 0.610023 0.505001 L 0.605022 0.505001 L 0.605022 0.510002 L 0.610023 0.510002 L 0.610023 0.505001 L 0.615025 0.505001 L 0.615025 0.510002 L 0.620026 0.510002 L 0.620026 0.505001 L 0.625027 0.505001 L 0.625027 0.5 L 0.620026 0.5 L 0.620026 0.494999 L 0.625027 0.494999 L 0.625027 0.5 L 0.630028 0.5 L 0.630028 0.505001 L 0.625027 0.505001 L 0.625027 0.510002 L 0.630028 0.510002 L 0.630028 0.515003 L 0.625027 0.515003 L 0.625027 0.510002 L 0.620026 0.510002 L 0.620026 0.515003 L 0.615025 0.515003 L 0.615025 0.520004 L 0.620026 0.520004 L 0.620026 0.525005 L 0.615025 0.525005 L 0.615025 0.520004 L 0.610023 0.520004 L 0.610023 0.515003 L 0.615025 0.515003 L 0.615025 0.510002 L 0.610023 0.510002 L 0.610023 0.515003 L 0.605022 0.515003 L 0.605022 0.510002 L 0.600021 0.510002 L 0.600021 0.515003 L 0.59502 0.515003 L 0.59502 0.520004 L 0.600021 0.520004 L 0.600021 0.515003 L 0.605022 0.515003 L 0.605022 0.520004 L 0.610023 0.520004 L 0.610023 0.525005 L 0.605022 0.525005 L 0.605022 0.530006 L 0.610023 0.530006 L 0.610023 0.535007 L 0.605022 0.535007 L 0.605022 0.530006 L 0.600021 0.530006 L 0.600021 0.535007 L 0.59502 0.535007 L 0.59502 0.540009 L 0.600021 0.540009 L 0.600021 0.535007 L 0.605022 0.535007 L 0.605022 0.540009 L 0.610023 0.540009 L 0.610023 0.54501 L 0.605022 0.54501 L 0.605022 0.550011 L 0.610023 0.550011 L 0.610023 0.54501 L 0.615025 0.54501 L 0.615025 0.550011 L 0.620026 0.550011 L 0.620026 0.54501 L 0.625027 0.54501 L 0.625027 0.540009 L 0.620026 0.540009 L 0.620026 0.54501 L 0.615025 0.54501 L 0.615025 0.540009 L 0.610023 0.540009 L 0.610023 0.535007 L 0.615025 0.535007 L 0.615025 0.530006 L 0.610023 0.530006 L 0.610023 0.525005 L 0.615025 0.525005 L 0.615025 0.530006 L 0.620026 0.530006 L 0.620026 0.525005 L 0.625027 0.525005 L 0.625027 0.520004 L 0.620026 0.520004 L 0.620026 0.515003 L 0.625027 0.515003 L 0.625027 0.520004 L 0.630028 0.520004 L 0.630028 0.525005 L 0.625027 0.525005 L 0.625027 0.530006 L 0.630028 0.530006 L 0.630028 0.525005 L 0.635029 0.525005 L 0.635029 0.530006 L 0.64003 0.530006 L 0.64003 0.525005 L 0.645031 0.525005 L 0.645031 0.520004 L 0.64003 0.520004 L 0.64003 0.515003 L 0.645031 0.515003 L 0.645031 0.520004 L 0.650032 0.520004 L 0.650032 0.525005 L 0.645031 0.525005 L 0.645031 0.530006 L 0.650032 0.530006 L 0.650032 0.535007 L 0.645031 0.535007 L 0.645031 0.530006 L 0.64003 0.530006 L 0.64003 0.535007 L 0.635029 0.535007 L 0.635029 0.540009 L 0.64003 0.540009 L 0.64003 0.535007 L 0.645031 0.535007 L 0.645031 0.540009 L 0.650032 0.540009 L 0.650032 0.54501 L 0.645031 0.54501 L 0.645031 0.550011 L 0.650032 0.550011 L 0.650032 0.54501 L 0.655033 0.54501 L 0.655033 0.550011 L 0.660034 0.550011 L 0.660034 0.54501 L 0.665035 0.54501 L 0.665035 0.540009 L 0.660034 0.540009 L 0.660034 0.54501 L 0.655033 0.54501 L 0.655033 0.540009 L 0.650032 0.540009 L 0.650032 0.535007 L 0.655033 0.535007 L 0.655033 0.530006 L 0.650032 0.530006 L 0.650032 0.525005 L 0.655033 0.525005 L 0.655033 0.530006 L 0.660034 0.530006 L 0.660034 0.525005 L 0.665035 0.525005 L 0.665035 0.520004 L 0.660034 0.520004 L 0.660034 0.515003 L 0.665035 0.515003 L 0.665035 0.520004 L 0.670036 0.520004 L 0.670036 0.525005 L 0.665035 0.525005 L 0.665035 0.530006 L 0.670036 0.530006 L 0.670036 0.525005 L 0.675037 0.525005 L 0.675037 0.530006 L 0.680038 0.530006 L 0.680038 0.525005 L 0.68504 0.525005 L 0.68504 0.520004 L 0.680038 0.520004 L 0.680038 0.525005 L 0.675037 0.525005 L 0.675037 0.520004 L 0.670036 0.520004 L 0.670036 0.515003 L 0.675037 0.515003 L 0.675037 0.510002 L 0.670036 0.510002 L 0.670036 0.505001 L 0.675037 0.505001 L 0.675037 0.510002 L 0.680038 0.510002 L 0.680038 0.505001 L 0.68504 0.505001 L 0.68504 0.5 L 0.680038 0.5 L 0.680038 0.505001 L 0.675037 0.505001 L 0.675037 0.5 L 0.670036 0.5 L 0.670036 0.494999 L 0.675037 0.494999 L 0.675037 0.489998 L 0.670036 0.489998 L 0.670036 0.494999 L 0.665035 0.494999 L 0.665035 0.489998 L 0.660034 0.489998 L 0.660034 0.494999 L 0.655033 0.494999 L 0.655033 0.5 L 0.660034 0.5 L 0.660034 0.505001 L 0.655033 0.505001 L 0.655033 0.5 L 0.650032 0.5 L 0.650032 0.494999 L 0.655033 0.494999 L 0.655033 0.489998 L 0.650032 0.489998 L 0.650032 0.484997 L 0.655033 0.484997 L 0.655033 0.489998 L 0.660034 0.489998 L 0.660034 0.484997 L 0.665035 0.484997 L 0.665035 0.479996 L 0.660034 0.479996 L 0.660034 0.474995 L 0.665035 0.474995 L 0.665035 0.479996 L 0.670036 0.479996 L 0.670036 0.484997 L 0.665035 0.484997 L 0.665035 0.489998 L 0.670036 0.489998 L 0.670036 0.484997 L 0.675037 0.484997 L 0.675037 0.489998 L 0.680038 0.489998 L 0.680038 0.484997 L 0.68504 0.484997 L 0.68504 0.479996 L 0.680038 0.479996 L 0.680038 0.474995 L 0.68504 0.474995 L 0.68504 0.479996 L 0.690041 0.479996 L 0.690041 0.484997 L 0.68504 0.484997 L 0.68504 0.489998 L 0.690041 0.489998 L 0.690041 0.494999 L 0.68504 0.494999 L 0.68504 0.489998 L 0.680038 0.489998 L 0.680038 0.494999 L 0.675037 0.494999 L 0.675037 0.5 L 0.680038 0.5 L 0.680038 0.494999 L 0.68504 0.494999 L 0.68504 0.5 L 0.690041 0.5 L 0.690041 0.505001 L 0.68504 0.505001 L 0.68504 0.510002 L 0.690041 0.510002 L 0.690041 0.505001 L 0.695042 0.505001 L 0.695042 0.510002 L 0.700043 0.510002 L 0.700043 0.505001 L 0.705044 0.505001 L 0.705044 0.5 L 0.700043 0.5 L 0.700043 0.494999 L 0.705044 0.494999 L 0.705044 0.5 L 0.710045 0.5 L 0.710045 0.505001 L 0.705044 0.505001 L 0.705044 0.510002 L 0.710045 0.510002 L 0.710045 0.515003 L 0.705044 0.515003 L 0.705044 0.510002 L 0.700043 0.510002 L 0.700043 0.515003 L 0.695042 0.515003 L 0.695042 0.520004 L 0.700043 0.520004 L 0.700043 0.525005 L 0.695042 0.525005 L 0.695042 0.520004 L 0.690041 0.520004 L 0.690041 0.515003 L 0.695042 0.515003 L 0.695042 0.510002 L 0.690041 0.510002 L 0.690041 0.515003 L 0.68504 0.515003 L 0.68504 0.510002 L 0.680038 0.510002 L 0.680038 0.515003 L 0.675037 0.515003 L 0.675037 0.520004 L 0.680038 0.520004 L 0.680038 0.515003 L 0.68504 0.515003 L 0.68504 0.520004 L 0.690041 0.520004 L 0.690041 0.525005 L 0.68504 0.525005 L 0.68504 0.530006 L 0.690041 0.530006 L 0.690041 0.535007 L 0.68504 0.535007 L 0.68504 0.530006 L 0.680038 0.530006 L 0.680038 0.535007 L 0.675037 0.535007 L 0.675037 0.540009 L 0.680038 0.540009 L 0.680038 0.535007 L 0.68504 0.535007 L 0.68504 0.540009 L 0.690041 0.540009 L 0.690041 0.54501 L 0.68504 0.54501 L 0.68504 0.550011 L 0.690041 0.550011 L 0.690041 0.54501 L 0.695042 0.54501 L 0.695042 0.550011 L 0.700043 0.550011 L 0.700043 0.54501 L 0.705044 0.54501 L 0.705044 0.540009 L 0.700043 0.540009 L 0.700043 0.535007 L 0.705044 0.535007 L 0.705044 0.540009 L 0.710045 0.540009 L 0.710045 0.54501 L 0.705044 0.54501 L 0.705044 0.550011 L 0.710045 0.550011 L 0.710045 0.555012 L 0.705044 0.555012 L 0.705044 0.550011 L 0.700043 0.550011 L 0.700043 0.555012 L 0.695042 0.555012 L 0.695042 0.560013 L 0.700043 0.560013 L 0.700043 0.565014 L 0.695042 0.565014 L 0.695042 0.560013 L 0.690041 0.560013 L 0.690041 0.555012 L 0.695042 0.555012 L 0.695042 0.550011 L 0.690041 0.550011 L 0.690041 0.555012 L 0.68504 0.555012 L 0.68504 0.550011 L 0.680038 0.550011 L 0.680038 0.555012 L 0.675037 0.555012 L 0.675037 0.560013 L 0.680038 0.560013 L 0.680038 0.565014 L 0.675037 0.565014 L 0.675037 0.560013 L 0.670036 0.560013 L 0.670036 0.555012 L 0.675037 0.555012 L 0.675037 0.550011 L 0.670036 0.550011 L 0.670036 0.54501 L 0.675037 0.54501 L 0.675037 0.550011 L 0.680038 0.550011 L 0.680038 0.54501 L 0.68504 0.54501 L 0.68504 0.540009 L 0.680038 0.540009 L 0.680038 0.54501 L 0.675037 0.54501 L 0.675037 0.540009 L 0.670036 0.540009 L 0.670036 0.535007 L 0.675037 0.535007 L 0.675037 0.530006 L 0.670036 0.530006 L 0.670036 0.535007 L 0.665035 0.535007 L 0.665035 0.530006 L 0.660034 0.530006 L 0.660034 0.535007 L 0.655033 0.535007 L 0.655033 0.540009 L 0.660034 0.540009 L 0.660034 0.535007 L 0.665035 0.535007 L 0.665035 0.540009 L 0.670036 0.540009 L 0.670036 0.54501 L 0.665035 0.54501 L 0.665035 0.550011 L 0.670036 0.550011 L 0.670036 0.555012 L 0.665035 0.555012 L 0.665035 0.550011 L 0.660034 0.550011 L 0.660034 0.555012 L 0.655033 0.555012 L 0.655033 0.560013 L 0.660034 0.560013 L 0.660034 0.565014 L 0.655033 0.565014 L 0.655033 0.560013 L 0.650032 0.560013 L 0.650032 0.555012 L 0.655033 0.555012 L 0.655033 0.550011 L 0.650032 0.550011 L 0.650032 0.555012 L 0.645031 0.555012 L 0.645031 0.550011 L 0.64003 0.550011 L 0.64003 0.555012 L 0.635029 0.555012 L 0.635029 0.560013 L 0.64003 0.560013 L 0.64003 0.555012 L 0.645031 0.555012 L 0.645031 0.560013 L 0.650032 0.560013 L 0.650032 0.565014 L 0.645031 0.565014 L 0.645031 0.570015 L 0.650032 0.570015 L 0.650032 0.575016 L 0.645031 0.575016 L 0.645031 0.570015 L 0.64003 0.570015 L 0.64003 0.575016 L 0.635029 0.575016 L 0.635029 0.580017 L 0.64003 0.580017 L 0.64003 0.575016 L 0.645031 0.575016 L 0.645031 0.580017 L 0.650032 0.580017 L 0.650032 0.585018 L 0.645031 0.585018 L 0.645031 0.590019 L 0.650032 0.590019 L 0.650032 0.585018 L 0.655033 0.585018 L 0.655033 0.590019 L 0.660034 0.590019 L 0.660034 0.585018 L 0.665035 0.585018 L 0.665035 0.580017 L 0.660034 0.580017 L 0.660034 0.575016 L 0.665035 0.575016 L 0.665035 0.580017 L 0.670036 0.580017 L 0.670036 0.585018 L 0.665035 0.585018 L 0.665035 0.590019 L 0.670036 0.590019 L 0.670036 0.59502 L 0.665035 0.59502 L 0.665035 0.590019 L 0.660034 0.590019 L 0.660034 0.59502 L 0.655033 0.59502 L 0.655033 0.600021 L 0.660034 0.600021 L 0.660034 0.605022 L 0.655033 0.605022 L 0.655033 0.600021 L 0.650032 0.600021 L 0.650032 0.59502 L 0.655033 0.59502 L 0.655033 0.590019 L 0.650032 0.590019 L 0.650032 0.59502 L 0.645031 0.59502 L 0.645031 0.590019 L 0.64003 0.590019 L 0.64003 0.59502 L 0.635029 0.59502 L 0.635029 0.600021 L 0.64003 0.600021 L 0.64003 0.605022 L 0.635029 0.605022 L 0.635029 0.600021 L 0.630028 0.600021 L 0.630028 0.59502 L 0.635029 0.59502 L 0.635029 0.590019 L 0.630028 0.590019 L 0.630028 0.585018 L 0.635029 0.585018 L 0.635029 0.590019 L 0.64003 0.590019 L 0.64003 0.585018 L 0.645031 0.585018 L 0.645031 0.580017 L 0.64003 0.580017 L 0.64003 0.585018 L 0.635029 0.585018 L 0.635029 0.580017 L 0.630028 0.580017 L 0.630028 0.575016 L 0.635029 0.575016 L 0.635029 0.570015 L 0.630028 0.570015 L 0.630028 0.575016 L 0.625027 0.575016 L 0.625027 0.570015 L 0.620026 0.570015 L 0.620026 0.575016 L 0.615025 0.575016 L 0.615025 0.580017 L 0.620026 0.580017 L 0.620026 0.585018 L 0.615025 0.585018 L 0.615025 0.580017 L 0.610023 0.580017 L 0.610023 0.575016 L 0.615025 0.575016 L 0.615025 0.570015 L 0.610023 0.570015 L 0.610023 0.565014 L 0.615025 0.565014 L 0.615025 0.570015 L 0.620026 0.570015 L 0.620026 0.565014 L 0.625027 0.565014 L 0.625027 0.560013 L 0.620026 0.560013 L 0.620026 0.555012 L 0.625027 0.555012 L 0.625027 0.560013 L 0.630028 0.560013 L 0.630028 0.565014 L 0.625027 0.565014 L 0.625027 0.570015 L 0.630028 0.570015 L 0.630028 0.565014 L 0.635029 0.565014 L 0.635029 0.570015 L 0.64003 0.570015 L 0.64003 0.565014 L 0.645031 0.565014 L 0.645031 0.560013 L 0.64003 0.560013 L 0.64003 0.565014 L 0.635029 0.565014 L 0.635029 0.560013 L 0.630028 0.560013 L 0.630028 0.555012 L 0.635029 0.555012 L 0.635029 0.550011 L 0.630028 0.550011 L 0.630028 0.54501 L 0.635029 0.54501 L 0.635029 0.550011 L 0.64003 0.550011 L 0.64003 0.54501 L 0.645031 0.54501 L 0.645031 0.540009 L 0.64003 0.540009 L 0.64003 0.54501 L 0.635029 0.54501 L 0.635029 0.540009 L 0.630028 0.540009 L 0.630028 0.535007 L 0.635029 0.535007 L 0.635029 0.530006 L 0.630028 0.530006 L 0.630028 0.535007 L 0.625027 0.535007 L 0.625027 0.530006 L 0.620026 0.530006 L 0.620026 0.535007 L 0.615025 0.535007 L 0.615025 0.540009 L 0.620026 0.540009 L 0.620026 0.535007 L 0.625027 0.535007 L 0.625027 0.540009 L 0.630028 0.540009 L 0.630028 0.54501 L 0.625027 0.54501 L 0.625027 0.550011 L 0.630028 0.550011 L 0.630028 0.555012 L 0.625027 0.555012 L 0.625027 0.550011 L 0.620026 0.550011 L 0.620026 0.555012 L 0.615025 0.555012 L 0.615025 0.560013 L 0.620026 0.560013 L 0.620026 0.565014 L 0.615025 0.565014 L 0.615025 0.560013 L 0.610023 0.560013 L 0.610023 0.555012 L 0.615025 0.555012 L 0.615025 0.550011 L 0.610023 0.550011 L 0.610023 0.555012 L 0.605022 0.555012 L 0.605022 0.550011 L 0.600021 0.550011 L 0.600021 0.555012 L 0.59502 0.555012 L 0.59502 0.560013 L 0.600021 0.560013 L 0.600021 0.565014 L 0.59502 0.565014 L 0.59502 0.560013 L 0.590019 0.560013 L 0.590019 0.555012 L 0.59502 0.555012 L 0.59502 0.550011 L 0.590019 0.550011 L 0.590019 0.54501 L 0.59502 0.54501 L 0.59502 0.550011 L 0.600021 0.550011 L 0.600021 0.54501 L 0.605022 0.54501 L 0.605022 0.540009 L 0.600021 0.540009 L 0.600021 0.54501 L 0.59502 0.54501 L 0.59502 0.540009 L 0.590019 0.540009 L 0.590019 0.535007 L 0.59502 0.535007 L 0.59502 0.530006 L 0.590019 0.530006 L 0.590019 0.535007 L 0.585018 0.535007 L 0.585018 0.530006 L 0.580017 0.530006 L 0.580017 0.535007 L 0.575016 0.535007 L 0.575016 0.540009 L 0.580017 0.540009 L 0.580017 0.535007 L 0.585018 0.535007 L 0.585018 0.540009 L 0.590019 0.540009 L 0.590019 0.54501 L 0.585018 0.54501 L 0.585018 0.550011 L 0.590019 0.550011 L 0.590019 0.555012 L 0.585018 0.555012 L 0.585018 0.550011 L 0.580017 0.550011 L 0.580017 0.555012 L 0.575016 0.555012 L 0.575016 0.560013 L 0.580017 0.560013 L 0.580017 0.565014 L 0.575016 0.565014 L 0.575016 0.560013 L 0.570015 0.560013 L 0.570015 0.555012 L 0.575016 0.555012 L 0.575016 0.550011 L 0.570015 0.550011 L 0.570015 0.555012 L 0.565014 0.555012 L 0.565014 0.550011 L 0.560013 0.550011 L 0.560013 0.555012 L 0.555012 0.555012 L 0.555012 0.560013 L 0.560013 0.560013 L 0.560013 0.555012 L 0.565014 0.555012 L 0.565014 0.560013 L 0.570015 0.560013 L 0.570015 0.565014 L 0.565014 0.565014 L 0.565014 0.570015 L 0.570015 0.570015 L 0.570015 0.575016 L 0.565014 0.575016 L 0.565014 0.570015 L 0.560013 0.570015 L 0.560013 0.575016 L 0.555012 0.575016 L 0.555012 0.580017 L 0.560013 0.580017 L 0.560013 0.575016 L 0.565014 0.575016 L 0.565014 0.580017 L 0.570015 0.580017 L 0.570015 0.585018 L 0.565014 0.585018 L 0.565014 0.590019 L 0.570015 0.590019 L 0.570015 0.585018 L 0.575016 0.585018 L 0.575016 0.590019 L 0.580017 0.590019 L 0.580017 0.585018 L 0.585018 0.585018 L 0.585018 0.580017 L 0.580017 0.580017 L 0.580017 0.585018 L 0.575016 0.585018 L 0.575016 0.580017 L 0.570015 0.580017 L 0.570015 0.575016 L 0.575016 0.575016 L 0.575016 0.570015 L 0.570015 0.570015 L 0.570015 0.565014 L 0.575016 0.565014 L 0.575016 0.570015 L 0.580017 0.570015 L 0.580017 0.565014 L 0.585018 0.565014 L 0.585018 0.560013 L 0.580017 0.560013 L 0.580017 0.555012 L 0.585018 0.555012 L 0.585018 0.560013 L 0.590019 0.560013 L 0.590019 0.565014 L 0.585018 0.565014 L 0.585018 0.570015 L 0.590019 0.570015 L 0.590019 0.565014 L 0.59502 0.565014 L 0.59502 0.570015 L 0.600021 0.570015 L 0.600021 0.565014 L 0.605022 0.565014 L 0.605022 0.560013 L 0.600021 0.560013 L 0.600021 0.555012 L 0.605022 0.555012 L 0.605022 0.560013 L 0.610023 0.560013 L 0.610023 0.565014 L 0.605022 0.565014 L 0.605022 0.570015 L 0.610023 0.570015 L 0.610023 0.575016 L 0.605022 0.575016 L 0.605022 0.570015 L 0.600021 0.570015 L 0.600021 0.575016 L 0.59502 0.575016 L 0.59502 0.580017 L 0.600021 0.580017 L 0.600021 0.575016 L 0.605022 0.575016 L 0.605022 0.580017 L 0.610023 0.580017 L 0.610023 0.585018 L 0.605022 0.585018 L 0.605022 0.590019 L 0.610023 0.590019 L 0.610023 0.585018 L 0.615025 0.585018 L 0.615025 0.590019 L 0.620026 0.590019 L 0.620026 0.585018 L 0.625027 0.585018 L 0.625027 0.580017 L 0.620026 0.580017 L 0.620026 0.575016 L 0.625027 0.575016 L 0.625027 0.580017 L 0.630028 0.580017 L 0.630028 0.585018 L 0.625027 0.585018 L 0.625027 0.590019 L 0.630028 0.590019 L 0.630028 0.59502 L 0.625027 0.59502 L 0.625027 0.590019 L 0.620026 0.590019 L 0.620026 0.59502 L 0.615025 0.59502 L 0.615025 0.600021 L 0.620026 0.600021 L 0.620026 0.605022 L 0.615025 0.605022 L 0.615025 0.600021 L 0.610023 0.600021 L 0.610023 0.59502 L 0.615025 0.59502 L 0.615025 0.590019 L 0.610023 0.590019 L 0.610023 0.59502 L 0.605022 0.59502 L 0.605022 0.590019 L 0.600021 0.590019 L 0.600021 0.59502 L 0.59502 0.59502 L 0.59502 0.600021 L 0.600021 0.600021 L 0.600021 0.59502 L 0.605022 0.59502 L 0.605022 0.600021 L 0.610023 0.600021 L 0.610023 0.605022 L 0.605022 0.605022 L 0.605022 0.610023 L 0.610023 0.610023 L 0.610023 0.615025 L 0.605022 0.615025 L 0.605022 0.610023 L 0.600021 0.610023 L 0.600021 0.615025 L 0.59502 0.615025 L 0.59502 0.620026 L 0.600021 0.620026 L 0.600021 0.615025 L 0.605022 0.615025 L 0.605022 0.620026 L 0.610023 0.620026 L 0.610023 0.625027 L 0.605022 0.625027 L 0.605022 0.630028 L 0.610023 0.630028 L 0.610023 0.625027 L 0.615025 0.625027 L 0.615025 0.630028 L 0.620026 0.630028 L 0.620026 0.625027 L 0.625027 0.625027 L 0.625027 0.620026 L 0.620026 0.620026 L 0.620026 0.615025 L 0.625027 0.615025 L 0.625027 0.620026 L 0.630028 0.620026 L 0.630028 0.625027 L 0.625027 0.625027 L 0.625027 0.630028 L 0.630028 0.630028 L 0.630028 0.635029 L 0.625027 0.635029 L 0.625027 0.630028 L 0.620026 0.630028 L 0.620026 0.635029 L 0.615025 0.635029 L 0.615025 0.64003 L 0.620026 0.64003 L 0.620026 0.645031 L 0.615025 0.645031 L 0.615025 0.64003 L 0.610023 0.64003 L 0.610023 0.635029 L 0.615025 0.635029 L 0.615025 0.630028 L 0.610023 0.630028 L 0.610023 0.635029 L 0.605022 0.635029 L 0.605022 0.630028 L 0.600021 0.630028 L 0.600021 0.635029 L 0.59502 0.635029 L 0.59502 0.64003 L 0.600021 0.64003 L 0.600021 0.645031 L 0.59502 0.645031 L 0.59502 0.64003 L 0.590019 0.64003 L 0.590019 0.635029 L 0.59502 0.635029 L 0.59502 0.630028 L 0.590019 0.630028 L 0.590019 0.625027 L 0.59502 0.625027 L 0.59502 0.630028 L 0.600021 0.630028 L 0.600021 0.625027 L 0.605022 0.625027 L 0.605022 0.620026 L 0.600021 0.620026 L 0.600021 0.625027 L 0.59502 0.625027 L 0.59502 0.620026 L 0.590019 0.620026 L 0.590019 0.615025 L 0.59502 0.615025 L 0.59502 0.610023 L 0.590019 0.610023 L 0.590019 0.615025 L 0.585018 0.615025 L 0.585018 0.610023 L 0.580017 0.610023 L 0.580017 0.615025 L 0.575016 0.615025 L 0.575016 0.620026 L 0.580017 0.620026 L 0.580017 0.615025 L 0.585018 0.615025 L 0.585018 0.620026 L 0.590019 0.620026 L 0.590019 0.625027 L 0.585018 0.625027 L 0.585018 0.630028 L 0.590019 0.630028 L 0.590019 0.635029 L 0.585018 0.635029 L 0.585018 0.630028 L 0.580017 0.630028 L 0.580017 0.635029 L 0.575016 0.635029 L 0.575016 0.64003 L 0.580017 0.64003 L 0.580017 0.645031 L 0.575016 0.645031 L 0.575016 0.64003 L 0.570015 0.64003 L 0.570015 0.635029 L 0.575016 0.635029 L 0.575016 0.630028 L 0.570015 0.630028 L 0.570015 0.635029 L 0.565014 0.635029 L 0.565014 0.630028 L 0.560013 0.630028 L 0.560013 0.635029 L 0.555012 0.635029 L 0.555012 0.64003 L 0.560013 0.64003 L 0.560013 0.635029 L 0.565014 0.635029 L 0.565014 0.64003 L 0.570015 0.64003 L 0.570015 0.645031 L 0.565014 0.645031 L 0.565014 0.650032 L 0.570015 0.650032 L 0.570015 0.655033 L 0.565014 0.655033 L 0.565014 0.650032 L 0.560013 0.650032 L 0.560013 0.655033 L 0.555012 0.655033 L 0.555012 0.660034 L 0.560013 0.660034 L 0.560013 0.655033 L 0.565014 0.655033 L 0.565014 0.660034 L 0.570015 0.660034 L 0.570015 0.665035 L 0.565014 0.665035 L 0.565014 0.670036 L 0.570015 0.670036 L 0.570015 0.665035 L 0.575016 0.665035 L 0.575016 0.670036 L 0.580017 0.670036 L 0.580017 0.665035 L 0.585018 0.665035 L 0.585018 0.660034 L 0.580017 0.660034 L 0.580017 0.665035 L 0.575016 0.665035 L 0.575016 0.660034 L 0.570015 0.660034 L 0.570015 0.655033 L 0.575016 0.655033 L 0.575016 0.650032 L 0.570015 0.650032 L 0.570015 0.645031 L 0.575016 0.645031 L 0.575016 0.650032 L 0.580017 0.650032 L 0.580017 0.645031 L 0.585018 0.645031 L 0.585018 0.64003 L 0.580017 0.64003 L 0.580017 0.635029 L 0.585018 0.635029 L 0.585018 0.64003 L 0.590019 0.64003 L 0.590019 0.645031 L 0.585018 0.645031 L 0.585018 0.650032 L 0.590019 0.650032 L 0.590019 0.645031 L 0.59502 0.645031 L 0.59502 0.650032 L 0.600021 0.650032 L 0.600021 0.645031 L 0.605022 0.645031 L 0.605022 0.64003 L 0.600021 0.64003 L 0.600021 0.635029 L 0.605022 0.635029 L 0.605022 0.64003 L 0.610023 0.64003 L 0.610023 0.645031 L 0.605022 0.645031 L 0.605022 0.650032 L 0.610023 0.650032 L 0.610023 0.655033 L 0.605022 0.655033 L 0.605022 0.650032 L 0.600021 0.650032 L 0.600021 0.655033 L 0.59502 0.655033 L 0.59502 0.660034 L 0.600021 0.660034 L 0.600021 0.655033 L 0.605022 0.655033 L 0.605022 0.660034 L 0.610023 0.660034 L 0.610023 0.665035 L 0.605022 0.665035 L 0.605022 0.670036 L 0.610023 0.670036 L 0.610023 0.665035 L 0.615025 0.665035 L 0.615025 0.670036 L 0.620026 0.670036 L 0.620026 0.665035 L 0.625027 0.665035 L 0.625027 0.660034 L 0.620026 0.660034 L 0.620026 0.655033 L 0.625027 0.655033 L 0.625027 0.660034 L 0.630028 0.660034 L 0.630028 0.665035 L 0.625027 0.665035 L 0.625027 0.670036 L 0.630028 0.670036 L 0.630028 0.675037 L 0.625027 0.675037 L 0.625027 0.670036 L 0.620026 0.670036 L 0.620026 0.675037 L 0.615025 0.675037 L 0.615025 0.680038 L 0.620026 0.680038 L 0.620026 0.68504 L 0.615025 0.68504 L 0.615025 0.680038 L 0.610023 0.680038 L 0.610023 0.675037 L 0.615025 0.675037 L 0.615025 0.670036 L 0.610023 0.670036 L 0.610023 0.675037 L 0.605022 0.675037 L 0.605022 0.670036 L 0.600021 0.670036 L 0.600021 0.675037 L 0.59502 0.675037 L 0.59502 0.680038 L 0.600021 0.680038 L 0.600021 0.675037 L 0.605022 0.675037 L 0.605022 0.680038 L 0.610023 0.680038 L 0.610023 0.68504 L 0.605022 0.68504 L 0.605022 0.690041 L 0.610023 0.690041 L 0.610023 0.695042 L 0.605022 0.695042 L 0.605022 0.690041 L 0.600021 0.690041 L 0.600021 0.695042 L 0.59502 0.695042 L 0.59502 0.700043 L 0.600021 0.700043 L 0.600021 0.695042 L 0.605022 0.695042 L 0.605022 0.700043 L 0.610023 0.700043 L 0.610023 0.705044 L 0.605022 0.705044 L 0.605022 0.710045 L 0.610023 0.710045 L 0.610023 0.705044 L 0.615025 0.705044 L 0.615025 0.710045 L 0.620026 0.710045 L 0.620026 0.705044 L 0.625027 0.705044 L 0.625027 0.700043 L 0.620026 0.700043 L 0.620026 0.705044 L 0.615025 0.705044 L 0.615025 0.700043 L 0.610023 0.700043 L 0.610023 0.695042 L 0.615025 0.695042 L 0.615025 0.690041 L 0.610023 0.690041 L 0.610023 0.68504 L 0.615025 0.68504 L 0.615025 0.690041 L 0.620026 0.690041 L 0.620026 0.68504 L 0.625027 0.68504 L 0.625027 0.680038 L 0.620026 0.680038 L 0.620026 0.675037 L 0.625027 0.675037 L 0.625027 0.680038 L 0.630028 0.680038 L 0.630028 0.68504 L 0.625027 0.68504 L 0.625027 0.690041 L 0.630028 0.690041 L 0.630028 0.68504 L 0.635029 0.68504 L 0.635029 0.690041 L 0.64003 0.690041 L 0.64003 0.68504 L 0.645031 0.68504 L 0.645031 0.680038 L 0.64003 0.680038 L 0.64003 0.675037 L 0.645031 0.675037 L 0.645031 0.680038 L 0.650032 0.680038 L 0.650032 0.68504 L 0.645031 0.68504 L 0.645031 0.690041 L 0.650032 0.690041 L 0.650032 0.695042 L 0.645031 0.695042 L 0.645031 0.690041 L 0.64003 0.690041 L 0.64003 0.695042 L 0.635029 0.695042 L 0.635029 0.700043 L 0.64003 0.700043 L 0.64003 0.695042 L 0.645031 0.695042 L 0.645031 0.700043 L 0.650032 0.700043 L 0.650032 0.705044 L 0.645031 0.705044 L 0.645031 0.710045 L 0.650032 0.710045 L 0.650032 0.705044 L 0.655033 0.705044 L 0.655033 0.710045 L 0.660034 0.710045 L 0.660034 0.705044 L 0.665035 0.705044 L 0.665035 0.700043 L 0.660034 0.700043 L 0.660034 0.705044 L 0.655033 0.705044 L 0.655033 0.700043 L 0.650032 0.700043 L 0.650032 0.695042 L 0.655033 0.695042 L 0.655033 0.690041 L 0.650032 0.690041 L 0.650032 0.68504 L 0.655033 0.68504 L 0.655033 0.690041 L 0.660034 0.690041 L 0.660034 0.68504 L 0.665035 0.68504 L 0.665035 0.680038 L 0.660034 0.680038 L 0.660034 0.675037 L 0.665035 0.675037 L 0.665035 0.680038 L 0.670036 0.680038 L 0.670036 0.68504 L 0.665035 0.68504 L 0.665035 0.690041 L 0.670036 0.690041 L 0.670036 0.68504 L 0.675037 0.68504 L 0.675037 0.690041 L 0.680038 0.690041 L 0.680038 0.68504 L 0.68504 0.68504 L 0.68504 0.680038 L 0.680038 0.680038 L 0.680038 0.68504 L 0.675037 0.68504 L 0.675037 0.680038 L 0.670036 0.680038 L 0.670036 0.675037 L 0.675037 0.675037 L 0.675037 0.670036 L 0.670036 0.670036 L 0.670036 0.665035 L 0.675037 0.665035 L 0.675037 0.670036 L 0.680038 0.670036 L 0.680038 0.665035 L 0.68504 0.665035 L 0.68504 0.660034 L 0.680038 0.660034 L 0.680038 0.665035 L 0.675037 0.665035 L 0.675037 0.660034 L 0.670036 0.660034 L 0.670036 0.655033 L 0.675037 0.655033 L 0.675037 0.650032 L 0.670036 0.650032 L 0.670036 0.655033 L 0.665035 0.655033 L 0.665035 0.650032 L 0.660034 0.650032 L 0.660034 0.655033 L 0.655033 0.655033 L 0.655033 0.660034 L 0.660034 0.660034 L 0.660034 0.665035 L 0.655033 0.665035 L 0.655033 0.660034 L 0.650032 0.660034 L 0.650032 0.655033 L 0.655033 0.655033 L 0.655033 0.650032 L 0.650032 0.650032 L 0.650032 0.645031 L 0.655033 0.645031 L 0.655033 0.650032 L 0.660034 0.650032 L 0.660034 0.645031 L 0.665035 0.645031 L 0.665035 0.64003 L 0.660034 0.64003 L 0.660034 0.635029 L 0.665035 0.635029 L 0.665035 0.64003 L 0.670036 0.64003 L 0.670036 0.645031 L 0.665035 0.645031 L 0.665035 0.650032 L 0.670036 0.650032 L 0.670036 0.645031 L 0.675037 0.645031 L 0.675037 0.650032 L 0.680038 0.650032 L 0.680038 0.645031 L 0.68504 0.645031 L 0.68504 0.64003 L 0.680038 0.64003 L 0.680038 0.635029 L 0.68504 0.635029 L 0.68504 0.64003 L 0.690041 0.64003 L 0.690041 0.645031 L 0.68504 0.645031 L 0.68504 0.650032 L 0.690041 0.650032 L 0.690041 0.655033 L 0.68504 0.655033 L 0.68504 0.650032 L 0.680038 0.650032 L 0.680038 0.655033 L 0.675037 0.655033 L 0.675037 0.660034 L 0.680038 0.660034 L 0.680038 0.655033 L 0.68504 0.655033 L 0.68504 0.660034 L 0.690041 0.660034 L 0.690041 0.665035 L 0.68504 0.665035 L 0.68504 0.670036 L 0.690041 0.670036 L 0.690041 0.665035 L 0.695042 0.665035 L 0.695042 0.670036 L 0.700043 0.670036 L 0.700043 0.665035 L 0.705044 0.665035 L 0.705044 0.660034 L 0.700043 0.660034 L 0.700043 0.655033 L 0.705044 0.655033 L 0.705044 0.660034 L 0.710045 0.660034 L 0.710045 0.665035 L 0.705044 0.665035 L 0.705044 0.670036 L 0.710045 0.670036 L 0.710045 0.675037 L 0.705044 0.675037 L 0.705044 0.670036 L 0.700043 0.670036 L 0.700043 0.675037 L 0.695042 0.675037 L 0.695042 0.680038 L 0.700043 0.680038 L 0.700043 0.68504 L 0.695042 0.68504 L 0.695042 0.680038 L 0.690041 0.680038 L 0.690041 0.675037 L 0.695042 0.675037 L 0.695042 0.670036 L 0.690041 0.670036 L 0.690041 0.675037 L 0.68504 0.675037 L 0.68504 0.670036 L 0.680038 0.670036 L 0.680038 0.675037 L 0.675037 0.675037 L 0.675037 0.680038 L 0.680038 0.680038 L 0.680038 0.675037 L 0.68504 0.675037 L 0.68504 0.680038 L 0.690041 0.680038 L 0.690041 0.68504 L 0.68504 0.68504 L 0.68504 0.690041 L 0.690041 0.690041 L 0.690041 0.695042 L 0.68504 0.695042 L 0.68504 0.690041 L 0.680038 0.690041 L 0.680038 0.695042 L 0.675037 0.695042 L 0.675037 0.700043 L 0.680038 0.700043 L 0.680038 0.695042 L 0.68504 0.695042 L 0.68504 0.700043 L 0.690041 0.700043 L 0.690041 0.705044 L 0.68504 0.705044 L 0.68504 0.710045 L 0.690041 0.710045 L 0.690041 0.705044 L 0.695042 0.705044 L 0.695042 0.710045 L 0.700043 0.710045 L 0.700043 0.705044 L 0.705044 0.705044 L 0.705044 0.700043 L 0.700043 0.700043 L 0.700043 0.695042 L 0.705044 0.695042 L 0.705044 0.700043 L 0.710045 0.700043 L 0.710045 0.705044 L 0.705044 0.705044 L 0.705044 0.710045 L 0.710045 0.710045 L 0.710045 0.715046 L 0.705044 0.715046 L 0.705044 0.710045 L 0.700043 0.710045 L 0.700043 0.715046 L 0.695042 0.715046 L 0.695042 0.720047 L 0.700043 0.720047 L 0.700043 0.725048 L 0.695042 0.725048 L 0.695042 0.720047 L 0.690041 0.720047 L 0.690041 0.715046 L 0.695042 0.715046 L 0.695042 0.710045 L 0.690041 0.710045 L 0.690041 0.715046 L 0.68504 0.715046 L 0.68504 0.710045 L 0.680038 0.710045 L 0.680038 0.715046 L 0.675037 0.715046 L 0.675037 0.720047 L 0.680038 0.720047 L 0.680038 0.725048 L 0.675037 0.725048 L 0.675037 0.720047 L 0.670036 0.720047 L 0.670036 0.715046 L 0.675037 0.715046 L 0.675037 0.710045 L 0.670036 0.710045 L 0.670036 0.705044 L 0.675037 0.705044 L 0.675037 0.710045 L 0.680038 0.710045 L 0.680038 0.705044 L 0.68504 0.705044 L 0.68504 0.700043 L 0.680038 0.700043 L 0.680038 0.705044 L 0.675037 0.705044 L 0.675037 0.700043 L 0.670036 0.700043 L 0.670036 0.695042 L 0.675037 0.695042 L 0.675037 0.690041 L 0.670036 0.690041 L 0.670036 0.695042 L 0.665035 0.695042 L 0.665035 0.690041 L 0.660034 0.690041 L 0.660034 0.695042 L 0.655033 0.695042 L 0.655033 0.700043 L 0.660034 0.700043 L 0.660034 0.695042 L 0.665035 0.695042 L 0.665035 0.700043 L 0.670036 0.700043 L 0.670036 0.705044 L 0.665035 0.705044 L 0.665035 0.710045 L 0.670036 0.710045 L 0.670036 0.715046 L 0.665035 0.715046 L 0.665035 0.710045 L 0.660034 0.710045 L 0.660034 0.715046 L 0.655033 0.715046 L 0.655033 0.720047 L 0.660034 0.720047 L 0.660034 0.725048 L 0.655033 0.725048 L 0.655033 0.720047 L 0.650032 0.720047 L 0.650032 0.715046 L 0.655033 0.715046 L 0.655033 0.710045 L 0.650032 0.710045 L 0.650032 0.715046 L 0.645031 0.715046 L 0.645031 0.710045 L 0.64003 0.710045 L 0.64003 0.715046 L 0.635029 0.715046 L 0.635029 0.720047 L 0.64003 0.720047 L 0.64003 0.715046 L 0.645031 0.715046 L 0.645031 0.720047 L 0.650032 0.720047 L 0.650032 0.725048 L 0.645031 0.725048 L 0.645031 0.730049 L 0.650032 0.730049 L 0.650032 0.73505 L 0.645031 0.73505 L 0.645031 0.730049 L 0.64003 0.730049 L 0.64003 0.73505 L 0.635029 0.73505 L 0.635029 0.740051 L 0.64003 0.740051 L 0.64003 0.73505 L 0.645031 0.73505 L 0.645031 0.740051 L 0.650032 0.740051 L 0.650032 0.745052 L 0.645031 0.745052 L 0.645031 0.750053 L 0.650032 0.750053 L 0.650032 0.745052 L 0.655033 0.745052 L 0.655033 0.750053 L 0.660034 0.750053 L 0.660034 0.745052 L 0.665035 0.745052 L 0.665035 0.740051 L 0.660034 0.740051 L 0.660034 0.73505 L 0.665035 0.73505 L 0.665035 0.740051 L 0.670036 0.740051 L 0.670036 0.745052 L 0.665035 0.745052 L 0.665035 0.750053 L 0.670036 0.750053 L 0.670036 0.755054 L 0.665035 0.755054 L 0.665035 0.750053 L 0.660034 0.750053 L 0.660034 0.755054 L 0.655033 0.755054 L 0.655033 0.760056 L 0.660034 0.760056 L 0.660034 0.765057 L 0.655033 0.765057 L 0.655033 0.760056 L 0.650032 0.760056 L 0.650032 0.755054 L 0.655033 0.755054 L 0.655033 0.750053 L 0.650032 0.750053 L 0.650032 0.755054 L 0.645031 0.755054 L 0.645031 0.750053 L 0.64003 0.750053 L 0.64003 0.755054 L 0.635029 0.755054 L 0.635029 0.760056 L 0.64003 0.760056 L 0.64003 0.765057 L 0.635029 0.765057 L 0.635029 0.760056 L 0.630028 0.760056 L 0.630028 0.755054 L 0.635029 0.755054 L 0.635029 0.750053 L 0.630028 0.750053 L 0.630028 0.745052 L 0.635029 0.745052 L 0.635029 0.750053 L 0.64003 0.750053 L 0.64003 0.745052 L 0.645031 0.745052 L 0.645031 0.740051 L 0.64003 0.740051 L 0.64003 0.745052 L 0.635029 0.745052 L 0.635029 0.740051 L 0.630028 0.740051 L 0.630028 0.73505 L 0.635029 0.73505 L 0.635029 0.730049 L 0.630028 0.730049 L 0.630028 0.73505 L 0.625027 0.73505 L 0.625027 0.730049 L 0.620026 0.730049 L 0.620026 0.73505 L 0.615025 0.73505 L 0.615025 0.740051 L 0.620026 0.740051 L 0.620026 0.745052 L 0.615025 0.745052 L 0.615025 0.740051 L 0.610023 0.740051 L 0.610023 0.73505 L 0.615025 0.73505 L 0.615025 0.730049 L 0.610023 0.730049 L 0.610023 0.725048 L 0.615025 0.725048 L 0.615025 0.730049 L 0.620026 0.730049 L 0.620026 0.725048 L 0.625027 0.725048 L 0.625027 0.720047 L 0.620026 0.720047 L 0.620026 0.715046 L 0.625027 0.715046 L 0.625027 0.720047 L 0.630028 0.720047 L 0.630028 0.725048 L 0.625027 0.725048 L 0.625027 0.730049 L 0.630028 0.730049 L 0.630028 0.725048 L 0.635029 0.725048 L 0.635029 0.730049 L 0.64003 0.730049 L 0.64003 0.725048 L 0.645031 0.725048 L 0.645031 0.720047 L 0.64003 0.720047 L 0.64003 0.725048 L 0.635029 0.725048 L 0.635029 0.720047 L 0.630028 0.720047 L 0.630028 0.715046 L 0.635029 0.715046 L 0.635029 0.710045 L 0.630028 0.710045 L 0.630028 0.705044 L 0.635029 0.705044 L 0.635029 0.710045 L 0.64003 0.710045 L 0.64003 0.705044 L 0.645031 0.705044 L 0.645031 0.700043 L 0.64003 0.700043 L 0.64003 0.705044 L 0.635029 0.705044 L 0.635029 0.700043 L 0.630028 0.700043 L 0.630028 0.695042 L 0.635029 0.695042 L 0.635029 0.690041 L 0.630028 0.690041 L 0.630028 0.695042 L 0.625027 0.695042 L 0.625027 0.690041 L 0.620026 0.690041 L 0.620026 0.695042 L 0.615025 0.695042 L 0.615025 0.700043 L 0.620026 0.700043 L 0.620026 0.695042 L 0.625027 0.695042 L 0.625027 0.700043 L 0.630028 0.700043 L 0.630028 0.705044 L 0.625027 0.705044 L 0.625027 0.710045 L 0.630028 0.710045 L 0.630028 0.715046 L 0.625027 0.715046 L 0.625027 0.710045 L 0.620026 0.710045 L 0.620026 0.715046 L 0.615025 0.715046 L 0.615025 0.720047 L 0.620026 0.720047 L 0.620026 0.725048 L 0.615025 0.725048 L 0.615025 0.720047 L 0.610023 0.720047 L 0.610023 0.715046 L 0.615025 0.715046 L 0.615025 0.710045 L 0.610023 0.710045 L 0.610023 0.715046 L 0.605022 0.715046 L 0.605022 0.710045 L 0.600021 0.710045 L 0.600021 0.715046 L 0.59502 0.715046 L 0.59502 0.720047 L 0.600021 0.720047 L 0.600021 0.725048 L 0.59502 0.725048 L 0.59502 0.720047 L 0.590019 0.720047 L 0.590019 0.715046 L 0.59502 0.715046 L 0.59502 0.710045 L 0.590019 0.710045 L 0.590019 0.705044 L 0.59502 0.705044 L 0.59502 0.710045 L 0.600021 0.710045 L 0.600021 0.705044 L 0.605022 0.705044 L 0.605022 0.700043 L 0.600021 0.700043 L 0.600021 0.705044 L 0.59502 0.705044 L 0.59502 0.700043 L 0.590019 0.700043 L 0.590019 0.695042 L 0.59502 0.695042 L 0.59502 0.690041 L 0.590019 0.690041 L 0.590019 0.695042 L 0.585018 0.695042 L 0.585018 0.690041 L 0.580017 0.690041 L 0.580017 0.695042 L 0.575016 0.695042 L 0.575016 0.700043 L 0.580017 0.700043 L 0.580017 0.695042 L 0.585018 0.695042 L 0.585018 0.700043 L 0.590019 0.700043 L 0.590019 0.705044 L 0.585018 0.705044 L 0.585018 0.710045 L 0.590019 0.710045 L 0.590019 0.715046 L 0.585018 0.715046 L 0.585018 0.710045 L 0.580017 0.710045 L 0.580017 0.715046 L 0.575016 0.715046 L 0.575016 0.720047 L 0.580017 0.720047 L 0.580017 0.725048 L 0.575016 0.725048 L 0.575016 0.720047 L 0.570015 0.720047 L 0.570015 0.715046 L 0.575016 0.715046 L 0.575016 0.710045 L 0.570015 0.710045 L 0.570015 0.715046 L 0.565014 0.715046 L 0.565014 0.710045 L 0.560013 0.710045 L 0.560013 0.715046 L 0.555012 0.715046 L 0.555012 0.720047 L 0.560013 0.720047 L 0.560013 0.715046 L 0.565014 0.715046 L 0.565014 0.720047 L 0.570015 0.720047 L 0.570015 0.725048 L 0.565014 0.725048 L 0.565014 0.730049 L 0.570015 0.730049 L 0.570015 0.73505 L 0.565014 0.73505 L 0.565014 0.730049 L 0.560013 0.730049 L 0.560013 0.73505 L 0.555012 0.73505 L 0.555012 0.740051 L 0.560013 0.740051 L 0.560013 0.73505 L 0.565014 0.73505 L 0.565014 0.740051 L 0.570015 0.740051 L 0.570015 0.745052 L 0.565014 0.745052 L 0.565014 0.750053 L 0.570015 0.750053 L 0.570015 0.745052 L 0.575016 0.745052 L 0.575016 0.750053 L 0.580017 0.750053 L 0.580017 0.745052 L 0.585018 0.745052 L 0.585018 0.740051 L 0.580017 0.740051 L 0.580017 0.73505 L 0.585018 0.73505 L 0.585018 0.740051 L 0.590019 0.740051 L 0.590019 0.745052 L 0.585018 0.745052 L 0.585018 0.750053 L 0.590019 0.750053 L 0.590019 0.755054 L 0.585018 0.755054 L 0.585018 0.750053 L 0.580017 0.750053 L 0.580017 0.755054 L 0.575016 0.755054 L 0.575016 0.760056 L 0.580017 0.760056 L 0.580017 0.765057 L 0.575016 0.765057 L 0.575016 0.760056 L 0.570015 0.760056 L 0.570015 0.755054 L 0.575016 0.755054 L 0.575016 0.750053 L 0.570015 0.750053 L 0.570015 0.755054 L 0.565014 0.755054 L 0.565014 0.750053 L 0.560013 0.750053 L 0.560013 0.755054 L 0.555012 0.755054 L 0.555012 0.760056 L 0.560013 0.760056 L 0.560013 0.765057 L 0.555012 0.765057 L 0.555012 0.760056 L 0.550011 0.760056 L 0.550011 0.755054 L 0.555012 0.755054 L 0.555012 0.750053 L 0.550011 0.750053 L 0.550011 0.745052 L 0.555012 0.745052 L 0.555012 0.750053 L 0.560013 0.750053 L 0.560013 0.745052 L 0.565014 0.745052 L 0.565014 0.740051 L 0.560013 0.740051 L 0.560013 0.745052 L 0.555012 0.745052 L 0.555012 0.740051 L 0.550011 0.740051 L 0.550011 0.73505 L 0.555012 0.73505 L 0.555012 0.730049 L 0.550011 0.730049 L 0.550011 0.73505 L 0.54501 0.73505 L 0.54501 0.730049 L 0.540009 0.730049 L 0.540009 0.73505 L 0.535007 0.73505 L 0.535007 0.740051 L 0.540009 0.740051 L 0.540009 0.745052 L 0.535007 0.745052 L 0.535007 0.740051 L 0.530006 0.740051 L 0.530006 0.73505 L 0.535007 0.73505 L 0.535007 0.730049 L 0.530006 0.730049 L 0.530006 0.725048 L 0.535007 0.725048 L 0.535007 0.730049 L 0.540009 0.730049 L 0.540009 0.725048 L 0.54501 0.725048 L 0.54501 0.720047 L 0.540009 0.720047 L 0.540009 0.715046 L 0.54501 0.715046 L 0.54501 0.720047 L 0.550011 0.720047 L 0.550011 0.725048 L 0.54501 0.725048 L 0.54501 0.730049 L 0.550011 0.730049 L 0.550011 0.725048 L 0.555012 0.725048 L 0.555012 0.730049 L 0.560013 0.730049 L 0.560013 0.725048 L 0.565014 0.725048 L 0.565014 0.720047 L 0.560013 0.720047 L 0.560013 0.725048 L 0.555012 0.725048 L 0.555012 0.720047 L 0.550011 0.720047 L 0.550011 0.715046 L 0.555012 0.715046 L 0.555012 0.710045 L 0.550011 0.710045 L 0.550011 0.705044 L 0.555012 0.705044 L 0.555012 0.710045 L 0.560013 0.710045 L 0.560013 0.705044 L 0.565014 0.705044 L 0.565014 0.700043 L 0.560013 0.700043 L 0.560013 0.705044 L 0.555012 0.705044 L 0.555012 0.700043 L 0.550011 0.700043 L 0.550011 0.695042 L 0.555012 0.695042 L 0.555012 0.690041 L 0.550011 0.690041 L 0.550011 0.695042 L 0.54501 0.695042 L 0.54501 0.690041 L 0.540009 0.690041 L 0.540009 0.695042 L 0.535007 0.695042 L 0.535007 0.700043 L 0.540009 0.700043 L 0.540009 0.705044 L 0.535007 0.705044 L 0.535007 0.700043 L 0.530006 0.700043 L 0.530006 0.695042 L 0.535007 0.695042 L 0.535007 0.690041 L 0.530006 0.690041 L 0.530006 0.68504 L 0.535007 0.68504 L 0.535007 0.690041 L 0.540009 0.690041 L 0.540009 0.68504 L 0.54501 0.68504 L 0.54501 0.680038 L 0.540009 0.680038 L 0.540009 0.675037 L 0.54501 0.675037 L 0.54501 0.680038 L 0.550011 0.680038 L 0.550011 0.68504 L 0.54501 0.68504 L 0.54501 0.690041 L 0.550011 0.690041 L 0.550011 0.68504 L 0.555012 0.68504 L 0.555012 0.690041 L 0.560013 0.690041 L 0.560013 0.68504 L 0.565014 0.68504 L 0.565014 0.680038 L 0.560013 0.680038 L 0.560013 0.675037 L 0.565014 0.675037 L 0.565014 0.680038 L 0.570015 0.680038 L 0.570015 0.68504 L 0.565014 0.68504 L 0.565014 0.690041 L 0.570015 0.690041 L 0.570015 0.695042 L 0.565014 0.695042 L 0.565014 0.690041 L 0.560013 0.690041 L 0.560013 0.695042 L 0.555012 0.695042 L 0.555012 0.700043 L 0.560013 0.700043 L 0.560013 0.695042 L 0.565014 0.695042 L 0.565014 0.700043 L 0.570015 0.700043 L 0.570015 0.705044 L 0.565014 0.705044 L 0.565014 0.710045 L 0.570015 0.710045 L 0.570015 0.705044 L 0.575016 0.705044 L 0.575016 0.710045 L 0.580017 0.710045 L 0.580017 0.705044 L 0.585018 0.705044 L 0.585018 0.700043 L 0.580017 0.700043 L 0.580017 0.705044 L 0.575016 0.705044 L 0.575016 0.700043 L 0.570015 0.700043 L 0.570015 0.695042 L 0.575016 0.695042 L 0.575016 0.690041 L 0.570015 0.690041 L 0.570015 0.68504 L 0.575016 0.68504 L 0.575016 0.690041 L 0.580017 0.690041 L 0.580017 0.68504 L 0.585018 0.68504 L 0.585018 0.680038 L 0.580017 0.680038 L 0.580017 0.675037 L 0.585018 0.675037 L 0.585018 0.680038 L 0.590019 0.680038 L 0.590019 0.68504 L 0.585018 0.68504 L 0.585018 0.690041 L 0.590019 0.690041 L 0.590019 0.68504 L 0.59502 0.68504 L 0.59502 0.690041 L 0.600021 0.690041 L 0.600021 0.68504 L 0.605022 0.68504 L 0.605022 0.680038 L 0.600021 0.680038 L 0.600021 0.68504 L 0.59502 0.68504 L 0.59502 0.680038 L 0.590019 0.680038 L 0.590019 0.675037 L 0.59502 0.675037 L 0.59502 0.670036 L 0.590019 0.670036 L 0.590019 0.665035 L 0.59502 0.665035 L 0.59502 0.670036 L 0.600021 0.670036 L 0.600021 0.665035 L 0.605022 0.665035 L 0.605022 0.660034 L 0.600021 0.660034 L 0.600021 0.665035 L 0.59502 0.665035 L 0.59502 0.660034 L 0.590019 0.660034 L 0.590019 0.655033 L 0.59502 0.655033 L 0.59502 0.650032 L 0.590019 0.650032 L 0.590019 0.655033 L 0.585018 0.655033 L 0.585018 0.650032 L 0.580017 0.650032 L 0.580017 0.655033 L 0.575016 0.655033 L 0.575016 0.660034 L 0.580017 0.660034 L 0.580017 0.655033 L 0.585018 0.655033 L 0.585018 0.660034 L 0.590019 0.660034 L 0.590019 0.665035 L 0.585018 0.665035 L 0.585018 0.670036 L 0.590019 0.670036 L 0.590019 0.675037 L 0.585018 0.675037 L 0.585018 0.670036 L 0.580017 0.670036 L 0.580017 0.675037 L 0.575016 0.675037 L 0.575016 0.680038 L 0.580017 0.680038 L 0.580017 0.68504 L 0.575016 0.68504 L 0.575016 0.680038 L 0.570015 0.680038 L 0.570015 0.675037 L 0.575016 0.675037 L 0.575016 0.670036 L 0.570015 0.670036 L 0.570015 0.675037 L 0.565014 0.675037 L 0.565014 0.670036 L 0.560013 0.670036 L 0.560013 0.675037 L 0.555012 0.675037 L 0.555012 0.680038 L 0.560013 0.680038 L 0.560013 0.68504 L 0.555012 0.68504 L 0.555012 0.680038 L 0.550011 0.680038 L 0.550011 0.675037 L 0.555012 0.675037 L 0.555012 0.670036 L 0.550011 0.670036 L 0.550011 0.665035 L 0.555012 0.665035 L 0.555012 0.670036 L 0.560013 0.670036 L 0.560013 0.665035 L 0.565014 0.665035 L 0.565014 0.660034 L 0.560013 0.660034 L 0.560013 0.665035 L 0.555012 0.665035 L 0.555012 0.660034 L 0.550011 0.660034 L 0.550011 0.655033 L 0.555012 0.655033 L 0.555012 0.650032 L 0.550011 0.650032 L 0.550011 0.655033 L 0.54501 0.655033 L 0.54501 0.650032 L 0.540009 0.650032 L 0.540009 0.655033 L 0.535007 0.655033 L 0.535007 0.660034 L 0.540009 0.660034 L 0.540009 0.665035 L 0.535007 0.665035 L 0.535007 0.660034 L 0.530006 0.660034 L 0.530006 0.655033 L 0.535007 0.655033 L 0.535007 0.650032 L 0.530006 0.650032 L 0.530006 0.645031 L 0.535007 0.645031 L 0.535007 0.650032 L 0.540009 0.650032 L 0.540009 0.645031 L 0.54501 0.645031 L 0.54501 0.64003 L 0.540009 0.64003 L 0.540009 0.635029 L 0.54501 0.635029 L 0.54501 0.64003 L 0.550011 0.64003 L 0.550011 0.645031 L 0.54501 0.645031 L 0.54501 0.650032 L 0.550011 0.650032 L 0.550011 0.645031 L 0.555012 0.645031 L 0.555012 0.650032 L 0.560013 0.650032 L 0.560013 0.645031 L 0.565014 0.645031 L 0.565014 0.64003 L 0.560013 0.64003 L 0.560013 0.645031 L 0.555012 0.645031 L 0.555012 0.64003 L 0.550011 0.64003 L 0.550011 0.635029 L 0.555012 0.635029 L 0.555012 0.630028 L 0.550011 0.630028 L 0.550011 0.625027 L 0.555012 0.625027 L 0.555012 0.630028 L 0.560013 0.630028 L 0.560013 0.625027 L 0.565014 0.625027 L 0.565014 0.620026 L 0.560013 0.620026 L 0.560013 0.625027 L 0.555012 0.625027 L 0.555012 0.620026 L 0.550011 0.620026 L 0.550011 0.615025 L 0.555012 0.615025 L 0.555012 0.610023 L 0.550011 0.610023 L 0.550011 0.615025 L 0.54501 0.615025 L 0.54501 0.610023 L 0.540009 0.610023 L 0.540009 0.615025 L 0.535007 0.615025 L 0.535007 0.620026 L 0.540009 0.620026 L 0.540009 0.615025 L 0.54501 0.615025 L 0.54501 0.620026 L 0.550011 0.620026 L 0.550011 0.625027 L 0.54501 0.625027 L 0.54501 0.630028 L 0.550011 0.630028 L 0.550011 0.635029 L 0.54501 0.635029 L 0.54501 0.630028 L 0.540009 0.630028 L 0.540009 0.635029 L 0.535007 0.635029 L 0.535007 0.64003 L 0.540009 0.64003 L 0.540009 0.645031 L 0.535007 0.645031 L 0.535007 0.64003 L 0.530006 0.64003 L 0.530006 0.635029 L 0.535007 0.635029 L 0.535007 0.630028 L 0.530006 0.630028 L 0.530006 0.635029 L 0.525005 0.635029 L 0.525005 0.630028 L 0.520004 0.630028 L 0.520004 0.635029 L 0.515003 0.635029 L 0.515003 0.64003 L 0.520004 0.64003 L 0.520004 0.645031 L 0.515003 0.645031 L 0.515003 0.64003 L 0.510002 0.64003 L 0.510002 0.635029 L 0.515003 0.635029 L 0.515003 0.630028 L 0.510002 0.630028 L 0.510002 0.625027 L 0.515003 0.625027 L 0.515003 0.630028 L 0.520004 0.630028 L 0.520004 0.625027 L 0.525005 0.625027 L 0.525005 0.620026 L 0.520004 0.620026 L 0.520004 0.625027 L 0.515003 0.625027 L 0.515003 0.620026 L 0.510002 0.620026 L 0.510002 0.615025 L 0.515003 0.615025 L 0.515003 0.610023 L 0.510002 0.610023 L 0.510002 0.615025 L 0.505001 0.615025 L 0.505001 0.610023 L 0.5 0.610023 L 0.5 0.615025 L 0.494999 0.615025 L 0.494999 0.620026 L 0.5 0.620026 L 0.5 0.615025 L 0.505001 0.615025 L 0.505001 0.620026 L 0.510002 0.620026 L 0.510002 0.625027 L 0.505001 0.625027 L 0.505001 0.630028 L 0.510002 0.630028 L 0.510002 0.635029 L 0.505001 0.635029 L 0.505001 0.630028 L 0.5 0.630028 L 0.5 0.635029 L 0.494999 0.635029 L 0.494999 0.64003 L 0.5 0.64003 L 0.5 0.645031 L 0.494999 0.645031 L 0.494999 0.64003 L 0.489998 0.64003 L 0.489998 0.635029 L 0.494999 0.635029 L 0.494999 0.630028 L 0.489998 0.630028 L 0.489998 0.635029 L 0.484997 0.635029 L 0.484997 0.630028 L 0.479996 0.630028 L 0.479996 0.635029 L 0.474995 0.635029 L 0.474995 0.64003 L 0.479996 0.64003 L 0.479996 0.635029 L 0.484997 0.635029 L 0.484997 0.64003 L 0.489998 0.64003 L 0.489998 0.645031 L 0.484997 0.645031 L 0.484997 0.650032 L 0.489998 0.650032 L 0.489998 0.655033 L 0.484997 0.655033 L 0.484997 0.650032 L 0.479996 0.650032 L 0.479996 0.655033 L 0.474995 0.655033 L 0.474995 0.660034 L 0.479996 0.660034 L 0.479996 0.655033 L 0.484997 0.655033 L 0.484997 0.660034 L 0.489998 0.660034 L 0.489998 0.665035 L 0.484997 0.665035 L 0.484997 0.670036 L 0.489998 0.670036 L 0.489998 0.665035 L 0.494999 0.665035 L 0.494999 0.670036 L 0.5 0.670036 L 0.5 0.665035 L 0.505001 0.665035 L 0.505001 0.660034 L 0.5 0.660034 L 0.5 0.665035 L 0.494999 0.665035 L 0.494999 0.660034 L 0.489998 0.660034 L 0.489998 0.655033 L 0.494999 0.655033 L 0.494999 0.650032 L 0.489998 0.650032 L 0.489998 0.645031 L 0.494999 0.645031 L 0.494999 0.650032 L 0.5 0.650032 L 0.5 0.645031 L 0.505001 0.645031 L 0.505001 0.64003 L 0.5 0.64003 L 0.5 0.635029 L 0.505001 0.635029 L 0.505001 0.64003 L 0.510002 0.64003 L 0.510002 0.645031 L 0.505001 0.645031 L 0.505001 0.650032 L 0.510002 0.650032 L 0.510002 0.645031 L 0.515003 0.645031 L 0.515003 0.650032 L 0.520004 0.650032 L 0.520004 0.645031 L 0.525005 0.645031 L 0.525005 0.64003 L 0.520004 0.64003 L 0.520004 0.635029 L 0.525005 0.635029 L 0.525005 0.64003 L 0.530006 0.64003 L 0.530006 0.645031 L 0.525005 0.645031 L 0.525005 0.650032 L 0.530006 0.650032 L 0.530006 0.655033 L 0.525005 0.655033 L 0.525005 0.650032 L 0.520004 0.650032 L 0.520004 0.655033 L 0.515003 0.655033 L 0.515003 0.660034 L 0.520004 0.660034 L 0.520004 0.655033 L 0.525005 0.655033 L 0.525005 0.660034 L 0.530006 0.660034 L 0.530006 0.665035 L 0.525005 0.665035 L 0.525005 0.670036 L 0.530006 0.670036 L 0.530006 0.665035 L 0.535007 0.665035 L 0.535007 0.670036 L 0.540009 0.670036 L 0.540009 0.665035 L 0.54501 0.665035 L 0.54501 0.660034 L 0.540009 0.660034 L 0.540009 0.655033 L 0.54501 0.655033 L 0.54501 0.660034 L 0.550011 0.660034 L 0.550011 0.665035 L 0.54501 0.665035 L 0.54501 0.670036 L 0.550011 0.670036 L 0.550011 0.675037 L 0.54501 0.675037 L 0.54501 0.670036 L 0.540009 0.670036 L 0.540009 0.675037 L 0.535007 0.675037 L 0.535007 0.680038 L 0.540009 0.680038 L 0.540009 0.68504 L 0.535007 0.68504 L 0.535007 0.680038 L 0.530006 0.680038 L 0.530006 0.675037 L 0.535007 0.675037 L 0.535007 0.670036 L 0.530006 0.670036 L 0.530006 0.675037 L 0.525005 0.675037 L 0.525005 0.670036 L 0.520004 0.670036 L 0.520004 0.675037 L 0.515003 0.675037 L 0.515003 0.680038 L 0.520004 0.680038 L 0.520004 0.675037 L 0.525005 0.675037 L 0.525005 0.680038 L 0.530006 0.680038 L 0.530006 0.68504 L 0.525005 0.68504 L 0.525005 0.690041 L 0.530006 0.690041 L 0.530006 0.695042 L 0.525005 0.695042 L 0.525005 0.690041 L 0.520004 0.690041 L 0.520004 0.695042 L 0.515003 0.695042 L 0.515003 0.700043 L 0.520004 0.700043 L 0.520004 0.695042 L 0.525005 0.695042 L 0.525005 0.700043 L 0.530006 0.700043 L 0.530006 0.705044 L 0.525005 0.705044 L 0.525005 0.710045 L 0.530006 0.710045 L 0.530006 0.705044 L 0.535007 0.705044 L 0.535007 0.710045 L 0.540009 0.710045 L 0.540009 0.705044 L 0.54501 0.705044 L 0.54501 0.700043 L 0.540009 0.700043 L 0.540009 0.695042 L 0.54501 0.695042 L 0.54501 0.700043 L 0.550011 0.700043 L 0.550011 0.705044 L 0.54501 0.705044 L 0.54501 0.710045 L 0.550011 0.710045 L 0.550011 0.715046 L 0.54501 0.715046 L 0.54501 0.710045 L 0.540009 0.710045 L 0.540009 0.715046 L 0.535007 0.715046 L 0.535007 0.720047 L 0.540009 0.720047 L 0.540009 0.725048 L 0.535007 0.725048 L 0.535007 0.720047 L 0.530006 0.720047 L 0.530006 0.715046 L 0.535007 0.715046 L 0.535007 0.710045 L 0.530006 0.710045 L 0.530006 0.715046 L 0.525005 0.715046 L 0.525005 0.710045 L 0.520004 0.710045 L 0.520004 0.715046 L 0.515003 0.715046 L 0.515003 0.720047 L 0.520004 0.720047 L 0.520004 0.725048 L 0.515003 0.725048 L 0.515003 0.720047 L 0.510002 0.720047 L 0.510002 0.715046 L 0.515003 0.715046 L 0.515003 0.710045 L 0.510002 0.710045 L 0.510002 0.705044 L 0.515003 0.705044 L 0.515003 0.710045 L 0.520004 0.710045 L 0.520004 0.705044 L 0.525005 0.705044 L 0.525005 0.700043 L 0.520004 0.700043 L 0.520004 0.705044 L 0.515003 0.705044 L 0.515003 0.700043 L 0.510002 0.700043 L 0.510002 0.695042 L 0.515003 0.695042 L 0.515003 0.690041 L 0.510002 0.690041 L 0.510002 0.695042 L 0.505001 0.695042 L 0.505001 0.690041 L 0.5 0.690041 L 0.5 0.695042 L 0.494999 0.695042 L 0.494999 0.700043 L 0.5 0.700043 L 0.5 0.695042 L 0.505001 0.695042 L 0.505001 0.700043 L 0.510002 0.700043 L 0.510002 0.705044 L 0.505001 0.705044 L 0.505001 0.710045 L 0.510002 0.710045 L 0.510002 0.715046 L 0.505001 0.715046 L 0.505001 0.710045 L 0.5 0.710045 L 0.5 0.715046 L 0.494999 0.715046 L 0.494999 0.720047 L 0.5 0.720047 L 0.5 0.725048 L 0.494999 0.725048 L 0.494999 0.720047 L 0.489998 0.720047 L 0.489998 0.715046 L 0.494999 0.715046 L 0.494999 0.710045 L 0.489998 0.710045 L 0.489998 0.715046 L 0.484997 0.715046 L 0.484997 0.710045 L 0.479996 0.710045 L 0.479996 0.715046 L 0.474995 0.715046 L 0.474995 0.720047 L 0.479996 0.720047 L 0.479996 0.715046 L 0.484997 0.715046 L 0.484997 0.720047 L 0.489998 0.720047 L 0.489998 0.725048 L 0.484997 0.725048 L 0.484997 0.730049 L 0.489998 0.730049 L 0.489998 0.73505 L 0.484997 0.73505 L 0.484997 0.730049 L 0.479996 0.730049 L 0.479996 0.73505 L 0.474995 0.73505 L 0.474995 0.740051 L 0.479996 0.740051 L 0.479996 0.73505 L 0.484997 0.73505 L 0.484997 0.740051 L 0.489998 0.740051 L 0.489998 0.745052 L 0.484997 0.745052 L 0.484997 0.750053 L 0.489998 0.750053 L 0.489998 0.745052 L 0.494999 0.745052 L 0.494999 0.750053 L 0.5 0.750053 L 0.5 0.745052 L 0.505001 0.745052 L 0.505001 0.740051 L 0.5 0.740051 L 0.5 0.73505 L 0.505001 0.73505 L 0.505001 0.740051 L 0.510002 0.740051 L 0.510002 0.745052 L 0.505001 0.745052 L 0.505001 0.750053 L 0.510002 0.750053 L 0.510002 0.755054 L 0.505001 0.755054 L 0.505001 0.750053 L 0.5 0.750053 L 0.5 0.755054 L 0.494999 0.755054 L 0.494999 0.760056 L 0.5 0.760056 L 0.5 0.765057 L 0.494999 0.765057 L 0.494999 0.760056 L 0.489998 0.760056 L 0.489998 0.755054 L 0.494999 0.755054 L 0.494999 0.750053 L 0.489998 0.750053 L 0.489998 0.755054 L 0.484997 0.755054 L 0.484997 0.750053 L 0.479996 0.750053 L 0.479996 0.755054 L 0.474995 0.755054 L 0.474995 0.760056 L 0.479996 0.760056 L 0.479996 0.765057 L 0.474995 0.765057 L 0.474995 0.760056 L 0.469994 0.760056 L 0.469994 0.755054 L 0.474995 0.755054 L 0.474995 0.750053 L 0.469994 0.750053 L 0.469994 0.745052 L 0.474995 0.745052 L 0.474995 0.750053 L 0.479996 0.750053 L 0.479996 0.745052 L 0.484997 0.745052 L 0.484997 0.740051 L 0.479996 0.740051 L 0.479996 0.745052 L 0.474995 0.745052 L 0.474995 0.740051 L 0.469994 0.740051 L 0.469994 0.73505 L 0.474995 0.73505 L 0.474995 0.730049 L 0.469994 0.730049 L 0.469994 0.73505 L 0.464993 0.73505 L 0.464993 0.730049 L 0.459991 0.730049 L 0.459991 0.73505 L 0.45499 0.73505 L 0.45499 0.740051 L 0.459991 0.740051 L 0.459991 0.745052 L 0.45499 0.745052 L 0.45499 0.740051 L 0.449989 0.740051 L 0.449989 0.73505 L 0.45499 0.73505 L 0.45499 0.730049 L 0.449989 0.730049 L 0.449989 0.725048 L 0.45499 0.725048 L 0.45499 0.730049 L 0.459991 0.730049 L 0.459991 0.725048 L 0.464993 0.725048 L 0.464993 0.720047 L 0.459991 0.720047 L 0.459991 0.715046 L 0.464993 0.715046 L 0.464993 0.720047 L 0.469994 0.720047 L 0.469994 0.725048 L 0.464993 0.725048 L 0.464993 0.730049 L 0.469994 0.730049 L 0.469994 0.725048 L 0.474995 0.725048 L 0.474995 0.730049 L 0.479996 0.730049 L 0.479996 0.725048 L 0.484997 0.725048 L 0.484997 0.720047 L 0.479996 0.720047 L 0.479996 0.725048 L 0.474995 0.725048 L 0.474995 0.720047 L 0.469994 0.720047 L 0.469994 0.715046 L 0.474995 0.715046 L 0.474995 0.710045 L 0.469994 0.710045 L 0.469994 0.705044 L 0.474995 0.705044 L 0.474995 0.710045 L 0.479996 0.710045 L 0.479996 0.705044 L 0.484997 0.705044 L 0.484997 0.700043 L 0.479996 0.700043 L 0.479996 0.705044 L 0.474995 0.705044 L 0.474995 0.700043 L 0.469994 0.700043 L 0.469994 0.695042 L 0.474995 0.695042 L 0.474995 0.690041 L 0.469994 0.690041 L 0.469994 0.695042 L 0.464993 0.695042 L 0.464993 0.690041 L 0.459991 0.690041 L 0.459991 0.695042 L 0.45499 0.695042 L 0.45499 0.700043 L 0.459991 0.700043 L 0.459991 0.695042 L 0.464993 0.695042 L 0.464993 0.700043 L 0.469994 0.700043 L 0.469994 0.705044 L 0.464993 0.705044 L 0.464993 0.710045 L 0.469994 0.710045 L 0.469994 0.715046 L 0.464993 0.715046 L 0.464993 0.710045 L 0.459991 0.710045 L 0.459991 0.715046 L 0.45499 0.715046 L 0.45499 0.720047 L 0.459991 0.720047 L 0.459991 0.725048 L 0.45499 0.725048 L 0.45499 0.720047 L 0.449989 0.720047 L 0.449989 0.715046 L 0.45499 0.715046 L 0.45499 0.710045 L 0.449989 0.710045 L 0.449989 0.715046 L 0.444988 0.715046 L 0.444988 0.710045 L 0.439987 0.710045 L 0.439987 0.715046 L 0.434986 0.715046 L 0.434986 0.720047 L 0.439987 0.720047 L 0.439987 0.725048 L 0.434986 0.725048 L 0.434986 0.720047 L 0.429985 0.720047 L 0.429985 0.715046 L 0.434986 0.715046 L 0.434986 0.710045 L 0.429985 0.710045 L 0.429985 0.705044 L 0.434986 0.705044 L 0.434986 0.710045 L 0.439987 0.710045 L 0.439987 0.705044 L 0.444988 0.705044 L 0.444988 0.700043 L 0.439987 0.700043 L 0.439987 0.705044 L 0.434986 0.705044 L 0.434986 0.700043 L 0.429985 0.700043 L 0.429985 0.695042 L 0.434986 0.695042 L 0.434986 0.690041 L 0.429985 0.690041 L 0.429985 0.695042 L 0.424984 0.695042 L 0.424984 0.690041 L 0.419983 0.690041 L 0.419983 0.695042 L 0.414982 0.695042 L 0.414982 0.700043 L 0.419983 0.700043 L 0.419983 0.695042 L 0.424984 0.695042 L 0.424984 0.700043 L 0.429985 0.700043 L 0.429985 0.705044 L 0.424984 0.705044 L 0.424984 0.710045 L 0.429985 0.710045 L 0.429985 0.715046 L 0.424984 0.715046 L 0.424984 0.710045 L 0.419983 0.710045 L 0.419983 0.715046 L 0.414982 0.715046 L 0.414982 0.720047 L 0.419983 0.720047 L 0.419983 0.725048 L 0.414982 0.725048 L 0.414982 0.720047 L 0.409981 0.720047 L 0.409981 0.715046 L 0.414982 0.715046 L 0.414982 0.710045 L 0.409981 0.710045 L 0.409981 0.715046 L 0.40498 0.715046 L 0.40498 0.710045 L 0.399979 0.710045 L 0.399979 0.715046 L 0.394978 0.715046 L 0.394978 0.720047 L 0.399979 0.720047 L 0.399979 0.715046 L 0.40498 0.715046 L 0.40498 0.720047 L 0.409981 0.720047 L 0.409981 0.725048 L 0.40498 0.725048 L 0.40498 0.730049 L 0.409981 0.730049 L 0.409981 0.73505 L 0.40498 0.73505 L 0.40498 0.730049 L 0.399979 0.730049 L 0.399979 0.73505 L 0.394978 0.73505 L 0.394978 0.740051 L 0.399979 0.740051 L 0.399979 0.73505 L 0.40498 0.73505 L 0.40498 0.740051 L 0.409981 0.740051 L 0.409981 0.745052 L 0.40498 0.745052 L 0.40498 0.750053 L 0.409981 0.750053 L 0.409981 0.745052 L 0.414982 0.745052 L 0.414982 0.750053 L 0.419983 0.750053 L 0.419983 0.745052 L 0.424984 0.745052 L 0.424984 0.740051 L 0.419983 0.740051 L 0.419983 0.745052 L 0.414982 0.745052 L 0.414982 0.740051 L 0.409981 0.740051 L 0.409981 0.73505 L 0.414982 0.73505 L 0.414982 0.730049 L 0.409981 0.730049 L 0.409981 0.725048 L 0.414982 0.725048 L 0.414982 0.730049 L 0.419983 0.730049 L 0.419983 0.725048 L 0.424984 0.725048 L 0.424984 0.720047 L 0.419983 0.720047 L 0.419983 0.715046 L 0.424984 0.715046 L 0.424984 0.720047 L 0.429985 0.720047 L 0.429985 0.725048 L 0.424984 0.725048 L 0.424984 0.730049 L 0.429985 0.730049 L 0.429985 0.725048 L 0.434986 0.725048 L 0.434986 0.730049 L 0.439987 0.730049 L 0.439987 0.725048 L 0.444988 0.725048 L 0.444988 0.720047 L 0.439987 0.720047 L 0.439987 0.715046 L 0.444988 0.715046 L 0.444988 0.720047 L 0.449989 0.720047 L 0.449989 0.725048 L 0.444988 0.725048 L 0.444988 0.730049 L 0.449989 0.730049 L 0.449989 0.73505 L 0.444988 0.73505 L 0.444988 0.730049 L 0.439987 0.730049 L 0.439987 0.73505 L 0.434986 0.73505 L 0.434986 0.740051 L 0.439987 0.740051 L 0.439987 0.73505 L 0.444988 0.73505 L 0.444988 0.740051 L 0.449989 0.740051 L 0.449989 0.745052 L 0.444988 0.745052 L 0.444988 0.750053 L 0.449989 0.750053 L 0.449989 0.745052 L 0.45499 0.745052 L 0.45499 0.750053 L 0.459991 0.750053 L 0.459991 0.745052 L 0.464993 0.745052 L 0.464993 0.740051 L 0.459991 0.740051 L 0.459991 0.73505 L 0.464993 0.73505 L 0.464993 0.740051 L 0.469994 0.740051 L 0.469994 0.745052 L 0.464993 0.745052 L 0.464993 0.750053 L 0.469994 0.750053 L 0.469994 0.755054 L 0.464993 0.755054 L 0.464993 0.750053 L 0.459991 0.750053 L 0.459991 0.755054 L 0.45499 0.755054 L 0.45499 0.760056 L 0.459991 0.760056 L 0.459991 0.765057 L 0.45499 0.765057 L 0.45499 0.760056 L 0.449989 0.760056 L 0.449989 0.755054 L 0.45499 0.755054 L 0.45499 0.750053 L 0.449989 0.750053 L 0.449989 0.755054 L 0.444988 0.755054 L 0.444988 0.750053 L 0.439987 0.750053 L 0.439987 0.755054 L 0.434986 0.755054 L 0.434986 0.760056 L 0.439987 0.760056 L 0.439987 0.755054 L 0.444988 0.755054 L 0.444988 0.760056 L 0.449989 0.760056 L 0.449989 0.765057 L 0.444988 0.765057 L 0.444988 0.770058 L 0.449989 0.770058 L 0.449989 0.775059 L 0.444988 0.775059 L 0.444988 0.770058 L 0.439987 0.770058 L 0.439987 0.775059 L 0.434986 0.775059 L 0.434986 0.78006 L 0.439987 0.78006 L 0.439987 0.775059 L 0.444988 0.775059 L 0.444988 0.78006 L 0.449989 0.78006 L 0.449989 0.785061 L 0.444988 0.785061 L 0.444988 0.790062 L 0.449989 0.790062 L 0.449989 0.785061 L 0.45499 0.785061 L 0.45499 0.790062 L 0.459991 0.790062 L 0.459991 0.785061 L 0.464993 0.785061 L 0.464993 0.78006 L 0.459991 0.78006 L 0.459991 0.775059 L 0.464993 0.775059 L 0.464993 0.78006 L 0.469994 0.78006 L 0.469994 0.785061 L 0.464993 0.785061 L 0.464993 0.790062 L 0.469994 0.790062 L 0.469994 0.795063 L 0.464993 0.795063 L 0.464993 0.790062 L 0.459991 0.790062 L 0.459991 0.795063 L 0.45499 0.795063 L 0.45499 0.800064 L 0.459991 0.800064 L 0.459991 0.805065 L 0.45499 0.805065 L 0.45499 0.800064 L 0.449989 0.800064 L 0.449989 0.795063 L 0.45499 0.795063 L 0.45499 0.790062 L 0.449989 0.790062 L 0.449989 0.795063 L 0.444988 0.795063 L 0.444988 0.790062 L 0.439987 0.790062 L 0.439987 0.795063 L 0.434986 0.795063 L 0.434986 0.800064 L 0.439987 0.800064 L 0.439987 0.805065 L 0.434986 0.805065 L 0.434986 0.800064 L 0.429985 0.800064 L 0.429985 0.795063 L 0.434986 0.795063 L 0.434986 0.790062 L 0.429985 0.790062 L 0.429985 0.785061 L 0.434986 0.785061 L 0.434986 0.790062 L 0.439987 0.790062 L 0.439987 0.785061 L 0.444988 0.785061 L 0.444988 0.78006 L 0.439987 0.78006 L 0.439987 0.785061 L 0.434986 0.785061 L 0.434986 0.78006 L 0.429985 0.78006 L 0.429985 0.775059 L 0.434986 0.775059 L 0.434986 0.770058 L 0.429985 0.770058 L 0.429985 0.775059 L 0.424984 0.775059 L 0.424984 0.770058 L 0.419983 0.770058 L 0.419983 0.775059 L 0.414982 0.775059 L 0.414982 0.78006 L 0.419983 0.78006 L 0.419983 0.775059 L 0.424984 0.775059 L 0.424984 0.78006 L 0.429985 0.78006 L 0.429985 0.785061 L 0.424984 0.785061 L 0.424984 0.790062 L 0.429985 0.790062 L 0.429985 0.795063 L 0.424984 0.795063 L 0.424984 0.790062 L 0.419983 0.790062 L 0.419983 0.795063 L 0.414982 0.795063 L 0.414982 0.800064 L 0.419983 0.800064 L 0.419983 0.805065 L 0.414982 0.805065 L 0.414982 0.800064 L 0.409981 0.800064 L 0.409981 0.795063 L 0.414982 0.795063 L 0.414982 0.790062 L 0.409981 0.790062 L 0.409981 0.795063 L 0.40498 0.795063 L 0.40498 0.790062 L 0.399979 0.790062 L 0.399979 0.795063 L 0.394978 0.795063 L 0.394978 0.800064 L 0.399979 0.800064 L 0.399979 0.795063 L 0.40498 0.795063 L 0.40498 0.800064 L 0.409981 0.800064 L 0.409981 0.805065 L 0.40498 0.805065 L 0.40498 0.810066 L 0.409981 0.810066 L 0.409981 0.815067 L 0.40498 0.815067 L 0.40498 0.810066 L 0.399979 0.810066 L 0.399979 0.815067 L 0.394978 0.815067 L 0.394978 0.820068 L 0.399979 0.820068 L 0.399979 0.815067 L 0.40498 0.815067 L 0.40498 0.820068 L 0.409981 0.820068 L 0.409981 0.825069 L 0.40498 0.825069 L 0.40498 0.83007 L 0.409981 0.83007 L 0.409981 0.825069 L 0.414982 0.825069 L 0.414982 0.83007 L 0.419983 0.83007 L 0.419983 0.825069 L 0.424984 0.825069 L 0.424984 0.820068 L 0.419983 0.820068 L 0.419983 0.825069 L 0.414982 0.825069 L 0.414982 0.820068 L 0.409981 0.820068 L 0.409981 0.815067 L 0.414982 0.815067 L 0.414982 0.810066 L 0.409981 0.810066 L 0.409981 0.805065 L 0.414982 0.805065 L 0.414982 0.810066 L 0.419983 0.810066 L 0.419983 0.805065 L 0.424984 0.805065 L 0.424984 0.800064 L 0.419983 0.800064 L 0.419983 0.795063 L 0.424984 0.795063 L 0.424984 0.800064 L 0.429985 0.800064 L 0.429985 0.805065 L 0.424984 0.805065 L 0.424984 0.810066 L 0.429985 0.810066 L 0.429985 0.805065 L 0.434986 0.805065 L 0.434986 0.810066 L 0.439987 0.810066 L 0.439987 0.805065 L 0.444988 0.805065 L 0.444988 0.800064 L 0.439987 0.800064 L 0.439987 0.795063 L 0.444988 0.795063 L 0.444988 0.800064 L 0.449989 0.800064 L 0.449989 0.805065 L 0.444988 0.805065 L 0.444988 0.810066 L 0.449989 0.810066 L 0.449989 0.815067 L 0.444988 0.815067 L 0.444988 0.810066 L 0.439987 0.810066 L 0.439987 0.815067 L 0.434986 0.815067 L 0.434986 0.820068 L 0.439987 0.820068 L 0.439987 0.815067 L 0.444988 0.815067 L 0.444988 0.820068 L 0.449989 0.820068 L 0.449989 0.825069 L 0.444988 0.825069 L 0.444988 0.83007 L 0.449989 0.83007 L 0.449989 0.825069 L 0.45499 0.825069 L 0.45499 0.83007 L 0.459991 0.83007 L 0.459991 0.825069 L 0.464993 0.825069 L 0.464993 0.820068 L 0.459991 0.820068 L 0.459991 0.815067 L 0.464993 0.815067 L 0.464993 0.820068 L 0.469994 0.820068 L 0.469994 0.825069 L 0.464993 0.825069 L 0.464993 0.83007 L 0.469994 0.83007 L 0.469994 0.835072 L 0.464993 0.835072 L 0.464993 0.83007 L 0.459991 0.83007 L 0.459991 0.835072 L 0.45499 0.835072 L 0.45499 0.840073 L 0.459991 0.840073 L 0.459991 0.845074 L 0.45499 0.845074 L 0.45499 0.840073 L 0.449989 0.840073 L 0.449989 0.835072 L 0.45499 0.835072 L 0.45499 0.83007 L 0.449989 0.83007 L 0.449989 0.835072 L 0.444988 0.835072 L 0.444988 0.83007 L 0.439987 0.83007 L 0.439987 0.835072 L 0.434986 0.835072 L 0.434986 0.840073 L 0.439987 0.840073 L 0.439987 0.835072 L 0.444988 0.835072 L 0.444988 0.840073 L 0.449989 0.840073 L 0.449989 0.845074 L 0.444988 0.845074 L 0.444988 0.850075 L 0.449989 0.850075 L 0.449989 0.855076 L 0.444988 0.855076 L 0.444988 0.850075 L 0.439987 0.850075 L 0.439987 0.855076 L 0.434986 0.855076 L 0.434986 0.860077 L 0.439987 0.860077 L 0.439987 0.855076 L 0.444988 0.855076 L 0.444988 0.860077 L 0.449989 0.860077 L 0.449989 0.865078 L 0.444988 0.865078 L 0.444988 0.870079 L 0.449989 0.870079 L 0.449989 0.865078 L 0.45499 0.865078 L 0.45499 0.870079 L 0.459991 0.870079 L 0.459991 0.865078 L 0.464993 0.865078 L 0.464993 0.860077 L 0.459991 0.860077 L 0.459991 0.865078 L 0.45499 0.865078 L 0.45499 0.860077 L 0.449989 0.860077 L 0.449989 0.855076 L 0.45499 0.855076 L 0.45499 0.850075 L 0.449989 0.850075 L 0.449989 0.845074 L 0.45499 0.845074 L 0.45499 0.850075 L 0.459991 0.850075 L 0.459991 0.845074 L 0.464993 0.845074 L 0.464993 0.840073 L 0.459991 0.840073 L 0.459991 0.835072 L 0.464993 0.835072 L 0.464993 0.840073 L 0.469994 0.840073 L 0.469994 0.845074 L 0.464993 0.845074 L 0.464993 0.850075 L 0.469994 0.850075 L 0.469994 0.845074 L 0.474995 0.845074 L 0.474995 0.850075 L 0.479996 0.850075 L 0.479996 0.845074 L 0.484997 0.845074 L 0.484997 0.840073 L 0.479996 0.840073 L 0.479996 0.835072 L 0.484997 0.835072 L 0.484997 0.840073 L 0.489998 0.840073 L 0.489998 0.845074 L 0.484997 0.845074 L 0.484997 0.850075 L 0.489998 0.850075 L 0.489998 0.855076 L 0.484997 0.855076 L 0.484997 0.850075 L 0.479996 0.850075 L 0.479996 0.855076 L 0.474995 0.855076 L 0.474995 0.860077 L 0.479996 0.860077 L 0.479996 0.855076 L 0.484997 0.855076 L 0.484997 0.860077 L 0.489998 0.860077 L 0.489998 0.865078 L 0.484997 0.865078 L 0.484997 0.870079 L 0.489998 0.870079 L 0.489998 0.865078 L 0.494999 0.865078 L 0.494999 0.870079 L 0.5 0.870079 L 0.5 0.865078 L 0.505001 0.865078 L 0.505001 0.860077 L 0.5 0.860077 L 0.5 0.865078 L 0.494999 0.865078 L 0.494999 0.860077 L 0.489998 0.860077 L 0.489998 0.855076 L 0.494999 0.855076 L 0.494999 0.850075 L 0.489998 0.850075 L 0.489998 0.845074 L 0.494999 0.845074 L 0.494999 0.850075 L 0.5 0.850075 L 0.5 0.845074 L 0.505001 0.845074 L 0.505001 0.840073 L 0.5 0.840073 L 0.5 0.835072 L 0.505001 0.835072 L 0.505001 0.840073 L 0.510002 0.840073 L 0.510002 0.845074 L 0.505001 0.845074 L 0.505001 0.850075 L 0.510002 0.850075 L 0.510002 0.845074 L 0.515003 0.845074 L 0.515003 0.850075 L 0.520004 0.850075 L 0.520004 0.845074 L 0.525005 0.845074 L 0.525005 0.840073 L 0.520004 0.840073 L 0.520004 0.845074 L 0.515003 0.845074 L 0.515003 0.840073 L 0.510002 0.840073 L 0.510002 0.835072 L 0.515003 0.835072 L 0.515003 0.83007 L 0.510002 0.83007 L 0.510002 0.825069 L 0.515003 0.825069 L 0.515003 0.83007 L 0.520004 0.83007 L 0.520004 0.825069 L 0.525005 0.825069 L 0.525005 0.820068 L 0.520004 0.820068 L 0.520004 0.825069 L 0.515003 0.825069 L 0.515003 0.820068 L 0.510002 0.820068 L 0.510002 0.815067 L 0.515003 0.815067 L 0.515003 0.810066 L 0.510002 0.810066 L 0.510002 0.815067 L 0.505001 0.815067 L 0.505001 0.810066 L 0.5 0.810066 L 0.5 0.815067 L 0.494999 0.815067 L 0.494999 0.820068 L 0.5 0.820068 " transform="matrix(1024,0,0,1024,0,0)"/>
</g>
</svg>
