<?xml version="1.0" encoding="UTF-8"?>
<svg xmlns="http://www.w3.org/2000/svg" xmlns:xlink="http://www.w3.org/1999/xlink" width="1024pt" height="1024pt" viewBox="0 0 1024 1024" version="1.1">
<g id="surface16">
<path style="fill:none;stroke-width:0.001;stroke-linecap:butt;stroke-linejoin:miter;stroke:rgb(0%,0%,0%);stroke-opacity:1;stroke-miterlimit:10;" d="M -0.000000000000000061 -0.5 L -0.00999832 -0.5 L -0.00999832 -0.490002 L -0.00000000000000006 -0.490002 L -0.000000000000000059 -0.480003 L 0.00999832 -0.480003 L 0.00999832 -0.490002 L 0.0199966 -0.490002 L 0.0199966 -0.480003 L 0.029995 -0.480003 L 0.029995 -0.490002 L 0.0199966 -0.490002 L 0.0199966 -0.5 L 0.029995 -0.5 L 0.029995 -0.509998 L 0.0399933 -0.509998 L 0.0399933 -0.5 L 0.0499916 -0.5 L 0.0499916 -0.509998 L 0.0399933 -0.509998 L 0.0399933 -0.519997 L 0.029995 -0.519997 L 0.029995 -0.509998 L 0.0199966 -0.509998 L 0.0199966 -0.519997 L 0.029995 -0.519997 L 0.029995 -0.529995 L 0.0199966 -0.529995 L 0.0199966 -0.539993 L 0.029995 -0.539993 L 0.029995 -0.549992 L 0.0399933 -0.549992 L 0.0399933 -0.539993 L 0.0499916 -0.539993 L 0.0499916 -0.549992 L 0.0399933 -0.549992 L 0.0399933 -0.55999 L 0.029995 -0.55999 L 0.029995 -0.549992 L 0.0199966 -0.549992 L 0.0199966 -0.55999 L 0.00999832 -0.55999 L 0.00999832 -0.549992 L 0.0199966 -0.549992 L 0.0199966 -0.539993 L 0.00999832 -0.539993 L 0.00999832 -0.529995 L -0.000000000000000065 -0.529995 L -0.000000000000000066 -0.539993 L 0.00999832 -0.539993 L 0.00999832 -0.549992 L -0.000000000000000067 -0.549992 L -0.000000000000000069 -0.55999 L -0.00999832 -0.55999 L -0.00999832 -0.549992 L -0.0199966 -0.549992 L -0.0199966 -0.55999 L -0.00999832 -0.55999 L -0.00999832 -0.569988 L -0.0199966 -0.569988 L -0.0199966 -0.579987 L -0.00999832 -0.579987 L -0.00999832 -0.589985 L -0.000000000000000072 -0.589985 L -0.000000000000000071 -0.579987 L 0.00999832 -0.579987 L 0.00999832 -0.589985 L -0.000000000000000072 -0.589985 L -0.000000000000000073 -0.599983 L -0.00999832 -0.599983 L -0.00999832 -0.589985 L -0.0199966 -0.589985 L -0.0199966 -0.599983 L -0.029995 -0.599983 L -0.029995 -0.589985 L -0.0199966 -0.589985 L -0.0199966 -0.579987 L -0.029995 -0.579987 L -0.029995 -0.569988 L -0.0399933 -0.569988 L -0.0399933 -0.579987 L -0.0499916 -0.579987 L -0.0499916 -0.569988 L -0.0399933 -0.569988 L -0.0399933 -0.55999 L -0.029995 -0.55999 L -0.029995 -0.569988 L -0.0199966 -0.569988 L -0.0199966 -0.55999 L -0.029995 -0.55999 L -0.029995 -0.549992 L -0.0199966 -0.549992 L -0.0199966 -0.539993 L -0.029995 -0.539993 L -0.029995 -0.529995 L -0.0399933 -0.529995 L -0.0399933 -0.539993 L -0.029995 -0.539993 L -0.029995 -0.549992 L -0.0399933 -0.549992 L -0.0399933 -0.55999 L -0.0499916 -0.55999 L -0.0499916 -0.549992 L -0.0599899 -0.549992 L -0.0599899 -0.55999 L -0.0699883 -0.55999 L -0.0699883 -0.549992 L -0.0599899 -0.549992 L -0.0599899 -0.539993 L -0.0699883 -0.539993 L -0.0699883 -0.529995 L -0.0799866 -0.529995 L -0.0799866 -0.539993 L -0.0699883 -0.539993 L -0.0699883 -0.549992 L -0.0799866 -0.549992 L -0.0799866 -0.55999 L -0.0899849 -0.55999 L -0.0899849 -0.549992 L -0.0999832 -0.549992 L -0.0999832 -0.55999 L -0.0899849 -0.55999 L -0.0899849 -0.569988 L -0.0999832 -0.569988 L -0.0999832 -0.579987 L -0.0899849 -0.579987 L -0.0899849 -0.589985 L -0.0799866 -0.589985 L -0.0799866 -0.579987 L -0.0699883 -0.579987 L -0.0699883 -0.589985 L -0.0799866 -0.589985 L -0.0799866 -0.599983 L -0.0899849 -0.599983 L -0.0899849 -0.589985 L -0.0999832 -0.589985 L -0.0999832 -0.599983 L -0.109982 -0.599983 L -0.109982 -0.589985 L -0.0999832 -0.589985 L -0.0999832 -0.579987 L -0.109982 -0.579987 L -0.109982 -0.569988 L -0.11998 -0.569988 L -0.11998 -0.579987 L -0.129978 -0.579987 L -0.129978 -0.569988 L -0.11998 -0.569988 L -0.11998 -0.55999 L -0.109982 -0.55999 L -0.109982 -0.569988 L -0.0999832 -0.569988 L -0.0999832 -0.55999 L -0.109982 -0.55999 L -0.109982 -0.549992 L -0.0999832 -0.549992 L -0.0999832 -0.539993 L -0.109982 -0.539993 L -0.109982 -0.529995 L -0.11998 -0.529995 L -0.11998 -0.539993 L -0.129978 -0.539993 L -0.129978 -0.529995 L -0.11998 -0.529995 L -0.11998 -0.519997 L -0.109982 -0.519997 L -0.109982 -0.529995 L -0.0999832 -0.529995 L -0.0999832 -0.519997 L -0.0899849 -0.519997 L -0.0899849 -0.529995 L -0.0999832 -0.529995 L -0.0999832 -0.539993 L -0.0899849 -0.539993 L -0.0899849 -0.549992 L -0.0799866 -0.549992 L -0.0799866 -0.539993 L -0.0899849 -0.539993 L -0.0899849 -0.529995 L -0.0799866 -0.529995 L -0.0799866 -0.519997 L -0.0699883 -0.519997 L -0.0699883 -0.529995 L -0.0599899 -0.529995 L -0.0599899 -0.519997 L -0.0699883 -0.519997 L -0.0699883 -0.509998 L -0.0599899 -0.509998 L -0.0599899 -0.5 L -0.0699883 -0.5 L -0.0699883 -0.490002 L -0.0799866 -0.490002 L -0.0799866 -0.5 L -0.0699883 -0.5 L -0.0699883 -0.509998 L -0.0799866 -0.509998 L -0.0799866 -0.519997 L -0.0899849 -0.519997 L -0.0899849 -0.509998 L -0.0999832 -0.509998 L -0.0999832 -0.519997 L -0.109982 -0.519997 L -0.109982 -0.509998 L -0.0999832 -0.509998 L -0.0999832 -0.5 L -0.109982 -0.5 L -0.109982 -0.490002 L -0.11998 -0.490002 L -0.11998 -0.5 L -0.129978 -0.5 L -0.129978 -0.490002 L -0.11998 -0.490002 L -0.11998 -0.480003 L -0.109982 -0.480003 L -0.109982 -0.490002 L -0.0999832 -0.490002 L -0.0999832 -0.480003 L -0.109982 -0.480003 L -0.109982 -0.470005 L -0.0999832 -0.470005 L -0.0999832 -0.460007 L -0.109982 -0.460007 L -0.109982 -0.450008 L -0.11998 -0.450008 L -0.11998 -0.460007 L -0.109982 -0.460007 L -0.109982 -0.470005 L -0.11998 -0.470005 L -0.11998 -0.480003 L -0.129978 -0.480003 L -0.129978 -0.470005 L -0.139977 -0.470005 L -0.139977 -0.480003 L -0.149975 -0.480003 L -0.149975 -0.470005 L -0.139977 -0.470005 L -0.139977 -0.460007 L -0.149975 -0.460007 L -0.149975 -0.450008 L -0.159973 -0.450008 L -0.159973 -0.460007 L -0.149975 -0.460007 L -0.149975 -0.470005 L -0.159973 -0.470005 L -0.159973 -0.480003 L -0.169971 -0.480003 L -0.169971 -0.470005 L -0.17997 -0.470005 L -0.17997 -0.480003 L -0.169971 -0.480003 L -0.169971 -0.490002 L -0.17997 -0.490002 L -0.17997 -0.5 L -0.169971 -0.5 L -0.169971 -0.509998 L -0.159973 -0.509998 L -0.159973 -0.5 L -0.149975 -0.5 L -0.149975 -0.509998 L -0.159973 -0.509998 L -0.159973 -0.519997 L -0.169971 -0.519997 L -0.169971 -0.509998 L -0.17997 -0.509998 L -0.17997 -0.519997 L -0.189968 -0.519997 L -0.189968 -0.509998 L -0.17997 -0.509998 L -0.17997 -0.5 L -0.189968 -0.5 L -0.189968 -0.490002 L -0.199966 -0.490002 L -0.199966 -0.5 L -0.209965 -0.5 L -0.209965 -0.490002 L -0.199966 -0.490002 L -0.199966 -0.480003 L -0.189968 -0.480003 L -0.189968 -0.490002 L -0.17997 -0.490002 L -0.17997 -0.480003 L -0.189968 -0.480003 L -0.189968 -0.470005 L -0.17997 -0.470005 L -0.17997 -0.460007 L -0.189968 -0.460007 L -0.189968 -0.450008 L -0.199966 -0.450008 L -0.199966 -0.460007 L -0.209965 -0.460007 L -0.209965 -0.450008 L -0.199966 -0.450008 L -0.199966 -0.44001 L -0.189968 -0.44001 L -0.189968 -0.450008 L -0.17997 -0.450008 L -0.17997 -0.44001 L -0.169971 -0.44001 L -0.169971 -0.450008 L -0.17997 -0.450008 L -0.17997 -0.460007 L -0.169971 -0.460007 L -0.169971 -0.470005 L -0.159973 -0.470005 L -0.159973 -0.460007 L -0.169971 -0.460007 L -0.169971 -0.450008 L -0.159973 -0.450008 L -0.159973 -0.44001 L -0.149975 -0.44001 L -0.149975 -0.450008 L -0.139977 -0.450008 L -0.139977 -0.44001 L -0.149975 -0.44001 L -0.149975 -0.430012 L -0.139977 -0.430012 L -0.139977 -0.420013 L -0.149975 -0.420013 L -0.149975 -0.410015 L -0.159973 -0.410015 L -0.159973 -0.420013 L -0.169971 -0.420013 L -0.169971 -0.410015 L -0.159973 -0.410015 L -0.159973 -0.400017 L -0.149975 -0.400017 L -0.149975 -0.410015 L -0.139977 -0.410015 L -0.139977 -0.400017 L -0.129978 -0.400017 L -0.129978 -0.410015 L -0.139977 -0.410015 L -0.139977 -0.420013 L -0.129978 -0.420013 L -0.129978 -0.430012 L -0.11998 -0.430012 L -0.11998 -0.420013 L -0.109982 -0.420013 L -0.109982 -0.430012 L -0.11998 -0.430012 L -0.11998 -0.44001 L -0.129978 -0.44001 L -0.129978 -0.430012 L -0.139977 -0.430012 L -0.139977 -0.44001 L -0.129978 -0.44001 L -0.129978 -0.450008 L -0.139977 -0.450008 L -0.139977 -0.460007 L -0.129978 -0.460007 L -0.129978 -0.470005 L -0.11998 -0.470005 L -0.11998 -0.460007 L -0.129978 -0.460007 L -0.129978 -0.450008 L -0.11998 -0.450008 L -0.11998 -0.44001 L -0.109982 -0.44001 L -0.109982 -0.450008 L -0.0999832 -0.450008 L -0.0999832 -0.44001 L -0.0899849 -0.44001 L -0.0899849 -0.450008 L -0.0999832 -0.450008 L -0.0999832 -0.460007 L -0.0899849 -0.460007 L -0.0899849 -0.470005 L -0.0799866 -0.470005 L -0.0799866 -0.460007 L -0.0899849 -0.460007 L -0.0899849 -0.450008 L -0.0799866 -0.450008 L -0.0799866 -0.44001 L -0.0699883 -0.44001 L -0.0699883 -0.450008 L -0.0599899 -0.450008 L -0.0599899 -0.44001 L -0.0699883 -0.44001 L -0.0699883 -0.430012 L -0.0599899 -0.430012 L -0.0599899 -0.420013 L -0.0699883 -0.420013 L -0.0699883 -0.410015 L -0.0799866 -0.410015 L -0.0799866 -0.420013 L -0.0699883 -0.420013 L -0.0699883 -0.430012 L -0.0799866 -0.430012 L -0.0799866 -0.44001 L -0.0899849 -0.44001 L -0.0899849 -0.430012 L -0.0999832 -0.430012 L -0.0999832 -0.44001 L -0.109982 -0.44001 L -0.109982 -0.430012 L -0.0999832 -0.430012 L -0.0999832 -0.420013 L -0.109982 -0.420013 L -0.109982 -0.410015 L -0.11998 -0.410015 L -0.11998 -0.420013 L -0.129978 -0.420013 L -0.129978 -0.410015 L -0.11998 -0.410015 L -0.11998 -0.400017 L -0.109982 -0.400017 L -0.109982 -0.410015 L -0.0999832 -0.410015 L -0.0999832 -0.400017 L -0.109982 -0.400017 L -0.109982 -0.390018 L -0.0999832 -0.390018 L -0.0999832 -0.38002 L -0.109982 -0.38002 L -0.109982 -0.370022 L -0.11998 -0.370022 L -0.11998 -0.38002 L -0.129978 -0.38002 L -0.129978 -0.370022 L -0.11998 -0.370022 L -0.11998 -0.360023 L -0.109982 -0.360023 L -0.109982 -0.370022 L -0.0999832 -0.370022 L -0.0999832 -0.360023 L -0.0899849 -0.360023 L -0.0899849 -0.370022 L -0.0999832 -0.370022 L -0.0999832 -0.38002 L -0.0899849 -0.38002 L -0.0899849 -0.390018 L -0.0799866 -0.390018 L -0.0799866 -0.38002 L -0.0899849 -0.38002 L -0.0899849 -0.370022 L -0.0799866 -0.370022 L -0.0799866 -0.360023 L -0.0699883 -0.360023 L -0.0699883 -0.370022 L -0.0599899 -0.370022 L -0.0599899 -0.360023 L -0.0699883 -0.360023 L -0.0699883 -0.350025 L -0.0599899 -0.350025 L -0.0599899 -0.340027 L -0.0699883 -0.340027 L -0.0699883 -0.330029 L -0.0799866 -0.330029 L -0.0799866 -0.340027 L -0.0699883 -0.340027 L -0.0699883 -0.350025 L -0.0799866 -0.350025 L -0.0799866 -0.360023 L -0.0899849 -0.360023 L -0.0899849 -0.350025 L -0.0999832 -0.350025 L -0.0999832 -0.360023 L -0.109982 -0.360023 L -0.109982 -0.350025 L -0.0999832 -0.350025 L -0.0999832 -0.340027 L -0.109982 -0.340027 L -0.109982 -0.330029 L -0.11998 -0.330029 L -0.11998 -0.340027 L -0.129978 -0.340027 L -0.129978 -0.330029 L -0.11998 -0.330029 L -0.11998 -0.32003 L -0.109982 -0.32003 L -0.109982 -0.330029 L -0.0999832 -0.330029 L -0.0999832 -0.32003 L -0.109982 -0.32003 L -0.109982 -0.310032 L -0.0999832 -0.310032 L -0.0999832 -0.300034 L -0.109982 -0.300034 L -0.109982 -0.290035 L -0.11998 -0.290035 L -0.11998 -0.300034 L -0.109982 -0.300034 L -0.109982 -0.310032 L -0.11998 -0.310032 L -0.11998 -0.32003 L -0.129978 -0.32003 L -0.129978 -0.310032 L -0.139977 -0.310032 L -0.139977 -0.32003 L -0.149975 -0.32003 L -0.149975 -0.310032 L -0.139977 -0.310032 L -0.139977 -0.300034 L -0.149975 -0.300034 L -0.149975 -0.290035 L -0.159973 -0.290035 L -0.159973 -0.300034 L -0.149975 -0.300034 L -0.149975 -0.310032 L -0.159973 -0.310032 L -0.159973 -0.32003 L -0.169971 -0.32003 L -0.169971 -0.310032 L -0.17997 -0.310032 L -0.17997 -0.32003 L -0.169971 -0.32003 L -0.169971 -0.330029 L -0.17997 -0.330029 L -0.17997 -0.340027 L -0.169971 -0.340027 L -0.169971 -0.350025 L -0.159973 -0.350025 L -0.159973 -0.340027 L -0.149975 -0.340027 L -0.149975 -0.350025 L -0.159973 -0.350025 L -0.159973 -0.360023 L -0.169971 -0.360023 L -0.169971 -0.350025 L -0.17997 -0.350025 L -0.17997 -0.360023 L -0.189968 -0.360023 L -0.189968 -0.350025 L -0.17997 -0.350025 L -0.17997 -0.340027 L -0.189968 -0.340027 L -0.189968 -0.330029 L -0.199966 -0.330029 L -0.199966 -0.340027 L -0.209965 -0.340027 L -0.209965 -0.330029 L -0.199966 -0.330029 L -0.199966 -0.32003 L -0.189968 -0.32003 L -0.189968 -0.330029 L -0.17997 -0.330029 L -0.17997 -0.32003 L -0.189968 -0.32003 L -0.189968 -0.310032 L -0.17997 -0.310032 L -0.17997 -0.300034 L -0.189968 -0.300034 L -0.189968 -0.290035 L -0.199966 -0.290035 L -0.199966 -0.300034 L -0.209965 -0.300034 L -0.209965 -0.290035 L -0.199966 -0.290035 L -0.199966 -0.280037 L -0.189968 -0.280037 L -0.189968 -0.290035 L -0.17997 -0.290035 L -0.17997 -0.280037 L -0.169971 -0.280037 L -0.169971 -0.290035 L -0.17997 -0.290035 L -0.17997 -0.300034 L -0.169971 -0.300034 L -0.169971 -0.310032 L -0.159973 -0.310032 L -0.159973 -0.300034 L -0.169971 -0.300034 L -0.169971 -0.290035 L -0.159973 -0.290035 L -0.159973 -0.280037 L -0.149975 -0.280037 L -0.149975 -0.290035 L -0.139977 -0.290035 L -0.139977 -0.280037 L -0.149975 -0.280037 L -0.149975 -0.270039 L -0.139977 -0.270039 L -0.139977 -0.26004 L -0.149975 -0.26004 L -0.149975 -0.250042 L -0.159973 -0.250042 L -0.159973 -0.26004 L -0.169971 -0.26004 L -0.169971 -0.250042 L -0.159973 -0.250042 L -0.159973 -0.240044 L -0.149975 -0.240044 L -0.149975 -0.250042 L -0.139977 -0.250042 L -0.139977 -0.240044 L -0.129978 -0.240044 L -0.129978 -0.250042 L -0.139977 -0.250042 L -0.139977 -0.26004 L -0.129978 -0.26004 L -0.129978 -0.270039 L -0.11998 -0.270039 L -0.11998 -0.26004 L -0.109982 -0.26004 L -0.109982 -0.270039 L -0.11998 -0.270039 L -0.11998 -0.280037 L -0.129978 -0.280037 L -0.129978 -0.270039 L -0.139977 -0.270039 L -0.139977 -0.280037 L -0.129978 -0.280037 L -0.129978 -0.290035 L -0.139977 -0.290035 L -0.139977 -0.300034 L -0.129978 -0.300034 L -0.129978 -0.310032 L -0.11998 -0.310032 L -0.11998 -0.300034 L -0.129978 -0.300034 L -0.129978 -0.290035 L -0.11998 -0.290035 L -0.11998 -0.280037 L -0.109982 -0.280037 L -0.109982 -0.290035 L -0.0999832 -0.290035 L -0.0999832 -0.280037 L -0.0899849 -0.280037 L -0.0899849 -0.290035 L -0.0999832 -0.290035 L -0.0999832 -0.300034 L -0.0899849 -0.300034 L -0.0899849 -0.310032 L -0.0799866 -0.310032 L -0.0799866 -0.300034 L -0.0899849 -0.300034 L -0.0899849 -0.290035 L -0.0799866 -0.290035 L -0.0799866 -0.280037 L -0.0699883 -0.280037 L -0.0699883 -0.290035 L -0.0599899 -0.290035 L -0.0599899 -0.280037 L -0.0699883 -0.280037 L -0.0699883 -0.270039 L -0.0599899 -0.270039 L -0.0599899 -0.26004 L -0.0699883 -0.26004 L -0.0699883 -0.250042 L -0.0799866 -0.250042 L -0.0799866 -0.26004 L -0.0899849 -0.26004 L -0.0899849 -0.250042 L -0.0799866 -0.250042 L -0.0799866 -0.240044 L -0.0699883 -0.240044 L -0.0699883 -0.250042 L -0.0599899 -0.250042 L -0.0599899 -0.240044 L -0.0499916 -0.240044 L -0.0499916 -0.250042 L -0.0599899 -0.250042 L -0.0599899 -0.26004 L -0.0499916 -0.26004 L -0.0499916 -0.270039 L -0.0399933 -0.270039 L -0.0399933 -0.26004 L -0.029995 -0.26004 L -0.029995 -0.270039 L -0.0399933 -0.270039 L -0.0399933 -0.280037 L -0.0499916 -0.280037 L -0.0499916 -0.270039 L -0.0599899 -0.270039 L -0.0599899 -0.280037 L -0.0499916 -0.280037 L -0.0499916 -0.290035 L -0.0599899 -0.290035 L -0.0599899 -0.300034 L -0.0499916 -0.300034 L -0.0499916 -0.310032 L -0.0399933 -0.310032 L -0.0399933 -0.300034 L -0.029995 -0.300034 L -0.029995 -0.310032 L -0.0399933 -0.310032 L -0.0399933 -0.32003 L -0.0499916 -0.32003 L -0.0499916 -0.310032 L -0.0599899 -0.310032 L -0.0599899 -0.32003 L -0.0699883 -0.32003 L -0.0699883 -0.310032 L -0.0599899 -0.310032 L -0.0599899 -0.300034 L -0.0699883 -0.300034 L -0.0699883 -0.290035 L -0.0799866 -0.290035 L -0.0799866 -0.300034 L -0.0699883 -0.300034 L -0.0699883 -0.310032 L -0.0799866 -0.310032 L -0.0799866 -0.32003 L -0.0899849 -0.32003 L -0.0899849 -0.310032 L -0.0999832 -0.310032 L -0.0999832 -0.32003 L -0.0899849 -0.32003 L -0.0899849 -0.330029 L -0.0999832 -0.330029 L -0.0999832 -0.340027 L -0.0899849 -0.340027 L -0.0899849 -0.350025 L -0.0799866 -0.350025 L -0.0799866 -0.340027 L -0.0899849 -0.340027 L -0.0899849 -0.330029 L -0.0799866 -0.330029 L -0.0799866 -0.32003 L -0.0699883 -0.32003 L -0.0699883 -0.330029 L -0.0599899 -0.330029 L -0.0599899 -0.32003 L -0.0499916 -0.32003 L -0.0499916 -0.330029 L -0.0599899 -0.330029 L -0.0599899 -0.340027 L -0.0499916 -0.340027 L -0.0499916 -0.350025 L -0.0399933 -0.350025 L -0.0399933 -0.340027 L -0.029995 -0.340027 L -0.029995 -0.350025 L -0.0399933 -0.350025 L -0.0399933 -0.360023 L -0.0499916 -0.360023 L -0.0499916 -0.350025 L -0.0599899 -0.350025 L -0.0599899 -0.360023 L -0.0499916 -0.360023 L -0.0499916 -0.370022 L -0.0599899 -0.370022 L -0.0599899 -0.38002 L -0.0499916 -0.38002 L -0.0499916 -0.390018 L -0.0399933 -0.390018 L -0.0399933 -0.38002 L -0.0499916 -0.38002 L -0.0499916 -0.370022 L -0.0399933 -0.370022 L -0.0399933 -0.360023 L -0.029995 -0.360023 L -0.029995 -0.370022 L -0.0199966 -0.370022 L -0.0199966 -0.360023 L -0.00999832 -0.360023 L -0.00999832 -0.370022 L -0.0199966 -0.370022 L -0.0199966 -0.38002 L -0.00999832 -0.38002 L -0.00999832 -0.390018 L -0.000000000000000048 -0.390018 L -0.000000000000000047 -0.38002 L -0.00999832 -0.38002 L -0.00999832 -0.370022 L -0.000000000000000045 -0.370022 L -0.000000000000000044 -0.360023 L 0.00999832 -0.360023 L 0.00999832 -0.370022 L 0.0199966 -0.370022 L 0.0199966 -0.360023 L 0.00999832 -0.360023 L 0.00999832 -0.350025 L 0.0199966 -0.350025 L 0.0199966 -0.340027 L 0.00999832 -0.340027 L 0.00999832 -0.330029 L -0.00000000000000004 -0.330029 L -0.000000000000000042 -0.340027 L 0.00999832 -0.340027 L 0.00999832 -0.350025 L -0.000000000000000043 -0.350025 L -0.000000000000000044 -0.360023 L -0.00999832 -0.360023 L -0.00999832 -0.350025 L -0.0199966 -0.350025 L -0.0199966 -0.360023 L -0.029995 -0.360023 L -0.029995 -0.350025 L -0.0199966 -0.350025 L -0.0199966 -0.340027 L -0.029995 -0.340027 L -0.029995 -0.330029 L -0.0399933 -0.330029 L -0.0399933 -0.340027 L -0.0499916 -0.340027 L -0.0499916 -0.330029 L -0.0399933 -0.330029 L -0.0399933 -0.32003 L -0.029995 -0.32003 L -0.029995 -0.330029 L -0.0199966 -0.330029 L -0.0199966 -0.32003 L -0.029995 -0.32003 L -0.029995 -0.310032 L -0.0199966 -0.310032 L -0.0199966 -0.300034 L -0.029995 -0.300034 L -0.029995 -0.290035 L -0.0399933 -0.290035 L -0.0399933 -0.300034 L -0.0499916 -0.300034 L -0.0499916 -0.290035 L -0.0399933 -0.290035 L -0.0399933 -0.280037 L -0.029995 -0.280037 L -0.029995 -0.290035 L -0.0199966 -0.290035 L -0.0199966 -0.280037 L -0.00999832 -0.280037 L -0.00999832 -0.290035 L -0.0199966 -0.290035 L -0.0199966 -0.300034 L -0.00999832 -0.300034 L -0.00999832 -0.310032 L -0.000000000000000038 -0.310032 L -0.000000000000000037 -0.300034 L -0.00999832 -0.300034 L -0.00999832 -0.290035 L -0.000000000000000036 -0.290035 L -0.000000000000000034 -0.280037 L 0.00999832 -0.280037 L 0.00999832 -0.290035 L 0.0199966 -0.290035 L 0.0199966 -0.280037 L 0.00999832 -0.280037 L 0.00999832 -0.270039 L 0.0199966 -0.270039 L 0.0199966 -0.26004 L 0.00999832 -0.26004 L 0.00999832 -0.250042 L -0.000000000000000031 -0.250042 L -0.000000000000000032 -0.26004 L -0.00999832 -0.26004 L -0.00999832 -0.250042 L -0.000000000000000031 -0.250042 L -0.000000000000000029 -0.240044 L 0.00999832 -0.240044 L 0.00999832 -0.250042 L 0.0199966 -0.250042 L 0.0199966 -0.240044 L 0.029995 -0.240044 L 0.029995 -0.250042 L 0.0199966 -0.250042 L 0.0199966 -0.26004 L 0.029995 -0.26004 L 0.029995 -0.270039 L 0.0399933 -0.270039 L 0.0399933 -0.26004 L 0.0499916 -0.26004 L 0.0499916 -0.270039 L 0.0399933 -0.270039 L 0.0399933 -0.280037 L 0.029995 -0.280037 L 0.029995 -0.270039 L 0.0199966 -0.270039 L 0.0199966 -0.280037 L 0.029995 -0.280037 L 0.029995 -0.290035 L 0.0199966 -0.290035 L 0.0199966 -0.300034 L 0.029995 -0.300034 L 0.029995 -0.310032 L 0.0399933 -0.310032 L 0.0399933 -0.300034 L 0.029995 -0.300034 L 0.029995 -0.290035 L 0.0399933 -0.290035 L 0.0399933 -0.280037 L 0.0499916 -0.280037 L 0.0499916 -0.290035 L 0.0599899 -0.290035 L 0.0599899 -0.280037 L 0.0699883 -0.280037 L 0.0699883 -0.290035 L 0.0599899 -0.290035 L 0.0599899 -0.300034 L 0.0699883 -0.300034 L 0.0699883 -0.310032 L 0.0799866 -0.310032 L 0.0799866 -0.300034 L 0.0699883 -0.300034 L 0.0699883 -0.290035 L 0.0799866 -0.290035 L 0.0799866 -0.280037 L 0.0899849 -0.280037 L 0.0899849 -0.290035 L 0.0999832 -0.290035 L 0.0999832 -0.280037 L 0.0899849 -0.280037 L 0.0899849 -0.270039 L 0.0999832 -0.270039 L 0.0999832 -0.26004 L 0.0899849 -0.26004 L 0.0899849 -0.250042 L 0.0799866 -0.250042 L 0.0799866 -0.26004 L 0.0899849 -0.26004 L 0.0899849 -0.270039 L 0.0799866 -0.270039 L 0.0799866 -0.280037 L 0.0699883 -0.280037 L 0.0699883 -0.270039 L 0.0599899 -0.270039 L 0.0599899 -0.280037 L 0.0499916 -0.280037 L 0.0499916 -0.270039 L 0.0599899 -0.270039 L 0.0599899 -0.26004 L 0.0499916 -0.26004 L 0.0499916 -0.250042 L 0.0399933 -0.250042 L 0.0399933 -0.26004 L 0.029995 -0.26004 L 0.029995 -0.250042 L 0.0399933 -0.250042 L 0.0399933 -0.240044 L 0.0499916 -0.240044 L 0.0499916 -0.250042 L 0.0599899 -0.250042 L 0.0599899 -0.240044 L 0.0499916 -0.240044 L 0.0499916 -0.230045 L 0.0599899 -0.230045 L 0.0599899 -0.220047 L 0.0499916 -0.220047 L 0.0499916 -0.210049 L 0.0399933 -0.210049 L 0.0399933 -0.220047 L 0.029995 -0.220047 L 0.029995 -0.210049 L 0.0399933 -0.210049 L 0.0399933 -0.20005 L 0.0499916 -0.20005 L 0.0499916 -0.210049 L 0.0599899 -0.210049 L 0.0599899 -0.20005 L 0.0699883 -0.20005 L 0.0699883 -0.210049 L 0.0599899 -0.210049 L 0.0599899 -0.220047 L 0.0699883 -0.220047 L 0.0699883 -0.230045 L 0.0799866 -0.230045 L 0.0799866 -0.220047 L 0.0699883 -0.220047 L 0.0699883 -0.210049 L 0.0799866 -0.210049 L 0.0799866 -0.20005 L 0.0899849 -0.20005 L 0.0899849 -0.210049 L 0.0999832 -0.210049 L 0.0999832 -0.20005 L 0.0899849 -0.20005 L 0.0899849 -0.190052 L 0.0999832 -0.190052 L 0.0999832 -0.180054 L 0.0899849 -0.180054 L 0.0899849 -0.170055 L 0.0799866 -0.170055 L 0.0799866 -0.180054 L 0.0899849 -0.180054 L 0.0899849 -0.190052 L 0.0799866 -0.190052 L 0.0799866 -0.20005 L 0.0699883 -0.20005 L 0.0699883 -0.190052 L 0.0599899 -0.190052 L 0.0599899 -0.20005 L 0.0499916 -0.20005 L 0.0499916 -0.190052 L 0.0599899 -0.190052 L 0.0599899 -0.180054 L 0.0499916 -0.180054 L 0.0499916 -0.170055 L 0.0399933 -0.170055 L 0.0399933 -0.180054 L 0.029995 -0.180054 L 0.029995 -0.170055 L 0.0399933 -0.170055 L 0.0399933 -0.160057 L 0.0499916 -0.160057 L 0.0499916 -0.170055 L 0.0599899 -0.170055 L 0.0599899 -0.160057 L 0.0499916 -0.160057 L 0.0499916 -0.150059 L 0.0599899 -0.150059 L 0.0599899 -0.14006 L 0.0499916 -0.14006 L 0.0499916 -0.130062 L 0.0399933 -0.130062 L 0.0399933 -0.14006 L 0.0499916 -0.14006 L 0.0499916 -0.150059 L 0.0399933 -0.150059 L 0.0399933 -0.160057 L 0.029995 -0.160057 L 0.029995 -0.150059 L 0.0199966 -0.150059 L 0.0199966 -0.160057 L 0.00999832 -0.160057 L 0.00999832 -0.150059 L 0.0199966 -0.150059 L 0.0199966 -0.14006 L 0.00999832 -0.14006 L 0.00999832 -0.130062 L -0.000000000000000016 -0.130062 L -0.000000000000000017 -0.14006 L 0.00999832 -0.14006 L 0.00999832 -0.150059 L -0.000000000000000018 -0.150059 L -0.00000000000000002 -0.160057 L -0.00999832 -0.160057 L -0.00999832 -0.150059 L -0.0199966 -0.150059 L -0.0199966 -0.160057 L -0.00999832 -0.160057 L -0.00999832 -0.170055 L -0.0199966 -0.170055 L -0.0199966 -0.180054 L -0.00999832 -0.180054 L -0.00999832 -0.190052 L -0.000000000000000023 -0.190052 L -0.000000000000000022 -0.180054 " transform="matrix(-1024,-0.000000000000125404,0.000000000000125404,-1024,0,0)"/>
</g>
</svg>
