<?xml version="1.0" encoding="UTF-8"?>
<svg xmlns="http://www.w3.org/2000/svg" xmlns:xlink="http://www.w3.org/1999/xlink" width="1024pt" height="1024pt" viewBox="0 0 1024 1024" version="1.1">
<g id="surface46">
<path style="fill:none;stroke-width:0.001;stroke-linecap:butt;stroke-linejoin:miter;stroke:rgb(0%,0%,0%);stroke-opacity:1;stroke-miterlimit:10;" d="M 0.5 0.5 L 0.50433 0.497501 L 0.50433 0.502502 L 0.508659 0.505001 L 0.508659 0.494999 L 0.50433 0.4925 L 0.50433 0.487499 L 0.512989 0.482502 L 0.512989 0.487503 L 0.508659 0.490002 L 0.512989 0.4925 L 0.517319 0.490002 L 0.521648 0.4925 L 0.521648 0.502502 L 0.517319 0.500004 L 0.517319 0.495003 L 0.512989 0.497501 L 0.512989 0.502502 L 0.517319 0.505001 L 0.517319 0.510002 L 0.512989 0.507504 L 0.508659 0.510002 L 0.517319 0.514999 L 0.521648 0.512501 L 0.521648 0.5075 L 0.525978 0.505001 L 0.525978 0.510002 L 0.530308 0.512501 L 0.530308 0.502499 L 0.525978 0.5 L 0.525978 0.494999 L 0.530308 0.4925 L 0.530308 0.497501 L 0.534637 0.5 L 0.534637 0.489998 L 0.530308 0.487499 L 0.525978 0.489998 L 0.517319 0.485001 L 0.521648 0.482502 L 0.525978 0.485001 L 0.525978 0.48 L 0.521648 0.477501 L 0.521648 0.4725 L 0.525978 0.470001 L 0.525978 0.475002 L 0.530308 0.477501 L 0.530308 0.467499 L 0.525978 0.465 L 0.525978 0.459999 L 0.534637 0.455002 L 0.534637 0.460003 L 0.530308 0.462502 L 0.534637 0.465 L 0.538967 0.462502 L 0.538967 0.4575 L 0.547626 0.452503 L 0.547626 0.457504 L 0.543297 0.460003 L 0.547626 0.462502 L 0.551956 0.460003 L 0.556286 0.462502 L 0.556286 0.472504 L 0.551956 0.470005 L 0.551956 0.465004 L 0.547626 0.467503 L 0.547626 0.472504 L 0.543297 0.475002 L 0.538967 0.472504 L 0.543297 0.470005 L 0.543297 0.465004 L 0.534637 0.470001 L 0.534637 0.475002 L 0.538967 0.477501 L 0.538967 0.482502 L 0.534637 0.480003 L 0.530308 0.482502 L 0.538967 0.487499 L 0.543297 0.485001 L 0.543297 0.48 L 0.551956 0.475002 L 0.551956 0.480003 L 0.547626 0.482502 L 0.551956 0.485001 L 0.556286 0.482502 L 0.560616 0.485001 L 0.560616 0.490002 L 0.556286 0.487503 L 0.551956 0.490002 L 0.560616 0.494999 L 0.564945 0.4925 L 0.569275 0.494999 L 0.569275 0.505001 L 0.564945 0.502502 L 0.564945 0.497501 L 0.560616 0.5 L 0.560616 0.505001 L 0.564945 0.5075 L 0.564945 0.517502 L 0.560616 0.515003 L 0.560616 0.510002 L 0.556286 0.512501 L 0.556286 0.517502 L 0.551956 0.52 L 0.543297 0.515003 L 0.547626 0.512505 L 0.551956 0.515003 L 0.551956 0.510002 L 0.547626 0.507504 L 0.547626 0.502502 L 0.551956 0.500004 L 0.551956 0.505005 L 0.556286 0.507504 L 0.556286 0.497501 L 0.551956 0.495003 L 0.547626 0.497501 L 0.543297 0.495003 L 0.547626 0.492504 L 0.547626 0.487503 L 0.538967 0.4925 L 0.538967 0.497501 L 0.543297 0.5 L 0.543297 0.510002 L 0.538967 0.507504 L 0.538967 0.502502 L 0.534637 0.505001 L 0.534637 0.510002 L 0.538967 0.512501 L 0.538967 0.517502 L 0.534637 0.515003 L 0.530308 0.517502 L 0.538967 0.522499 L 0.543297 0.52 L 0.547626 0.522499 L 0.547626 0.532501 L 0.543297 0.530003 L 0.543297 0.525002 L 0.538967 0.5275 L 0.538967 0.532501 L 0.534637 0.535 L 0.525978 0.530003 L 0.530308 0.527504 L 0.534637 0.530003 L 0.534637 0.525002 L 0.530308 0.522503 L 0.525978 0.525002 L 0.521648 0.522503 L 0.525978 0.520004 L 0.525978 0.515003 L 0.517319 0.52 L 0.517319 0.525002 L 0.521648 0.5275 L 0.521648 0.532501 L 0.517319 0.530003 L 0.512989 0.532501 L 0.521648 0.537498 L 0.525978 0.535 L 0.530308 0.537498 L 0.530308 0.5425 L 0.525978 0.540001 L 0.521648 0.5425 L 0.530308 0.547497 L 0.534637 0.544998 L 0.534637 0.539997 L 0.543297 0.535 L 0.543297 0.540001 L 0.538967 0.5425 L 0.543297 0.544998 L 0.547626 0.5425 L 0.547626 0.537498 L 0.551956 0.535 L 0.551956 0.540001 L 0.556286 0.5425 L 0.556286 0.532497 L 0.551956 0.529999 L 0.551956 0.524998 L 0.560616 0.52 L 0.560616 0.525002 L 0.556286 0.5275 L 0.560616 0.529999 L 0.564945 0.5275 L 0.569275 0.529999 L 0.569275 0.540001 L 0.564945 0.537502 L 0.564945 0.532501 L 0.560616 0.535 L 0.560616 0.540001 L 0.564945 0.5425 L 0.564945 0.547501 L 0.560616 0.545002 L 0.556286 0.547501 L 0.564945 0.552498 L 0.569275 0.549999 L 0.569275 0.544998 L 0.573605 0.5425 L 0.573605 0.547501 L 0.577934 0.549999 L 0.577934 0.539997 L 0.573605 0.537498 L 0.573605 0.532497 L 0.577934 0.529999 L 0.577934 0.535 L 0.582264 0.537498 L 0.582264 0.527496 L 0.577934 0.524998 L 0.573605 0.527496 L 0.564945 0.522499 L 0.569275 0.52 L 0.573605 0.522499 L 0.573605 0.517498 L 0.569275 0.514999 L 0.569275 0.509998 L 0.573605 0.5075 L 0.573605 0.512501 L 0.577934 0.514999 L 0.577934 0.504997 L 0.573605 0.502499 L 0.573605 0.497498 L 0.582264 0.4925 L 0.582264 0.497501 L 0.577934 0.5 L 0.582264 0.502499 L 0.586594 0.5 L 0.590923 0.502499 L 0.590923 0.512501 L 0.586594 0.510002 L 0.586594 0.505001 L 0.582264 0.5075 L 0.582264 0.512501 L 0.586594 0.514999 L 0.586594 0.52 L 0.582264 0.517502 L 0.577934 0.52 L 0.586594 0.524998 L 0.590923 0.522499 L 0.590923 0.517498 L 0.595253 0.514999 L 0.595253 0.52 L 0.599583 0.522499 L 0.599583 0.512497 L 0.595253 0.509998 L 0.595253 0.504997 L 0.599583 0.502499 L 0.599583 0.5075 L 0.603912 0.509998 L 0.603912 0.499996 L 0.599583 0.497498 L 0.595253 0.499996 L 0.586594 0.494999 L 0.590923 0.4925 L 0.595253 0.494999 L 0.595253 0.489998 L 0.590923 0.487499 L 0.586594 0.489998 L 0.582264 0.487499 L 0.586594 0.485001 L 0.586594 0.48 L 0.577934 0.484997 L 0.577934 0.489998 L 0.573605 0.492496 L 0.564945 0.487499 L 0.569275 0.485001 L 0.573605 0.487499 L 0.573605 0.482498 L 0.569275 0.48 L 0.564945 0.482498 L 0.556286 0.477501 L 0.560616 0.475002 L 0.564945 0.477501 L 0.564945 0.4725 L 0.560616 0.470001 L 0.560616 0.465 L 0.569275 0.460003 L 0.569275 0.465004 L 0.564945 0.467503 L 0.569275 0.470001 L 0.573605 0.467503 L 0.577934 0.470001 L 0.577934 0.475002 L 0.573605 0.472504 L 0.569275 0.475002 L 0.577934 0.48 L 0.582264 0.477501 L 0.582264 0.4725 L 0.586594 0.470001 L 0.586594 0.475002 L 0.590923 0.477501 L 0.590923 0.467499 L 0.586594 0.465 L 0.582264 0.467499 L 0.573605 0.462502 L 0.577934 0.460003 L 0.582264 0.462502 L 0.582264 0.4575 L 0.577934 0.455002 L 0.577934 0.450001 L 0.582264 0.447502 L 0.582264 0.452503 L 0.586594 0.455002 L 0.586594 0.445 L 0.582264 0.442501 L 0.582264 0.4375 L 0.590923 0.432503 L 0.590923 0.437504 L 0.586594 0.440002 L 0.590923 0.442501 L 0.595253 0.440002 L 0.599583 0.442501 L 0.599583 0.452503 L 0.595253 0.450005 L 0.595253 0.445004 L 0.590923 0.447502 L 0.590923 0.452503 L 0.595253 0.455002 L 0.595253 0.460003 L 0.590923 0.457504 L 0.586594 0.460003 L 0.595253 0.465 L 0.599583 0.462502 L 0.599583 0.4575 L 0.603912 0.455002 L 0.603912 0.460003 L 0.608242 0.462502 L 0.608242 0.452499 L 0.603912 0.450001 L 0.603912 0.445 L 0.608242 0.442501 L 0.608242 0.447502 L 0.612572 0.450001 L 0.612572 0.439999 L 0.608242 0.4375 L 0.603912 0.439999 L 0.595253 0.435001 L 0.599583 0.432503 L 0.603912 0.435001 L 0.603912 0.43 L 0.599583 0.427502 L 0.599583 0.422501 L 0.603912 0.420002 L 0.603912 0.425003 L 0.608242 0.427502 L 0.608242 0.4175 L 0.603912 0.415001 L 0.603912 0.41 L 0.612572 0.405003 L 0.612572 0.410004 L 0.608242 0.412502 L 0.612572 0.415001 L 0.616901 0.412502 L 0.616901 0.407501 L 0.625561 0.402504 L 0.625561 0.407505 L 0.621231 0.410004 L 0.625561 0.412502 L 0.62989 0.410004 L 0.63422 0.412502 L 0.63422 0.422504 L 0.62989 0.420006 L 0.62989 0.415005 L 0.625561 0.417503 L 0.625561 0.422504 L 0.621231 0.425003 L 0.616901 0.422504 L 0.621231 0.420006 L 0.621231 0.415005 L 0.612572 0.420002 L 0.612572 0.425003 L 0.616901 0.427502 L 0.616901 0.432503 L 0.612572 0.430004 L 0.608242 0.432503 L 0.616901 0.4375 L 0.621231 0.435001 L 0.621231 0.43 L 0.62989 0.425003 L 0.62989 0.430004 L 0.625561 0.432503 L 0.62989 0.435001 L 0.63422 0.432503 L 0.63422 0.427502 L 0.63855 0.425003 L 0.63855 0.430004 L 0.642879 0.432503 L 0.642879 0.422501 L 0.63855 0.420002 L 0.63855 0.415001 L 0.647209 0.410004 L 0.647209 0.415005 L 0.642879 0.417503 L 0.647209 0.420002 L 0.651539 0.417503 L 0.651539 0.412502 L 0.660198 0.407505 L 0.660198 0.412506 L 0.655869 0.415005 L 0.660198 0.417503 L 0.664528 0.415005 L 0.668858 0.417503 L 0.668858 0.427505 L 0.664528 0.425007 L 0.664528 0.420006 L 0.660198 0.422504 L 0.660198 0.427505 L 0.655869 0.430004 L 0.651539 0.427505 L 0.655869 0.425007 L 0.655869 0.420006 L 0.647209 0.425003 L 0.647209 0.430004 L 0.651539 0.432503 L 0.651539 0.437504 L 0.647209 0.435005 L 0.642879 0.437504 L 0.651539 0.442501 L 0.655869 0.440002 L 0.655869 0.435001 L 0.664528 0.430004 L 0.664528 0.435005 L 0.660198 0.437504 L 0.664528 0.440002 L 0.668858 0.437504 L 0.673187 0.440002 L 0.673187 0.445004 L 0.668858 0.442505 L 0.664528 0.445004 L 0.673187 0.450001 L 0.677517 0.447502 L 0.681847 0.450001 L 0.681847 0.460003 L 0.677517 0.457504 L 0.677517 0.452503 L 0.673187 0.455002 L 0.673187 0.460003 L 0.677517 0.462502 L 0.677517 0.472504 L 0.673187 0.470005 L 0.673187 0.465004 L 0.668858 0.467503 L 0.668858 0.472504 L 0.664528 0.475002 L 0.655869 0.470005 L 0.660198 0.467506 L 0.664528 0.470005 L 0.664528 0.465004 L 0.660198 0.462505 L 0.660198 0.457504 L 0.664528 0.455006 L 0.664528 0.460007 L 0.668858 0.462505 L 0.668858 0.452503 L 0.664528 0.450005 L 0.660198 0.452503 L 0.655869 0.450005 L 0.660198 0.447506 L 0.660198 0.442505 L 0.651539 0.447502 L 0.651539 0.452503 L 0.655869 0.455002 L 0.655869 0.465004 L 0.651539 0.462505 L 0.651539 0.457504 L 0.647209 0.460003 L 0.647209 0.465004 L 0.642879 0.467503 L 0.63855 0.465004 L 0.642879 0.462505 L 0.642879 0.457504 L 0.63422 0.462502 L 0.63422 0.467503 L 0.62989 0.470001 L 0.621231 0.465004 L 0.625561 0.462505 L 0.62989 0.465004 L 0.62989 0.460003 L 0.625561 0.457504 L 0.625561 0.452503 L 0.63422 0.447506 L 0.63422 0.452507 L 0.62989 0.455006 L 0.63422 0.457504 L 0.63855 0.455006 L 0.63855 0.450005 L 0.642879 0.447506 L 0.642879 0.452507 L 0.647209 0.455006 L 0.647209 0.445004 L 0.642879 0.442505 L 0.63855 0.445004 L 0.63422 0.442505 L 0.63855 0.440006 L 0.63855 0.435005 L 0.62989 0.440002 L 0.62989 0.445004 L 0.625561 0.447502 L 0.621231 0.445004 L 0.625561 0.442505 L 0.625561 0.437504 L 0.616901 0.442501 L 0.616901 0.447502 L 0.621231 0.450001 L 0.621231 0.460003 L 0.616901 0.457504 L 0.616901 0.452503 L 0.612572 0.455002 L 0.612572 0.460003 L 0.616901 0.462502 L 0.616901 0.467503 L 0.612572 0.465004 L 0.608242 0.467503 L 0.616901 0.4725 L 0.621231 0.470001 L 0.625561 0.4725 L 0.625561 0.482502 L 0.621231 0.480003 L 0.621231 0.475002 L 0.616901 0.477501 L 0.616901 0.482502 L 0.612572 0.485001 L 0.603912 0.480003 L 0.608242 0.477505 L 0.612572 0.480003 L 0.612572 0.475002 L 0.608242 0.472504 L 0.603912 0.475002 L 0.599583 0.472504 L 0.603912 0.470005 L 0.603912 0.465004 L 0.595253 0.470001 L 0.595253 0.475002 L 0.599583 0.477501 L 0.599583 0.482502 L 0.595253 0.480003 L 0.590923 0.482502 L 0.599583 0.487499 L 0.603912 0.485001 L 0.608242 0.487499 L 0.608242 0.4925 L 0.603912 0.490002 L 0.599583 0.4925 L 0.608242 0.497498 L 0.612572 0.494999 L 0.612572 0.489998 L 0.621231 0.485001 L 0.621231 0.490002 L 0.616901 0.4925 L 0.621231 0.494999 L 0.625561 0.4925 L 0.625561 0.487499 L 0.62989 0.485001 L 0.62989 0.490002 L 0.63422 0.4925 L 0.63422 0.482498 L 0.62989 0.48 L 0.62989 0.474998 L 0.63855 0.470001 L 0.63855 0.475002 L 0.63422 0.477501 L 0.63855 0.48 L 0.642879 0.477501 L 0.642879 0.4725 L 0.651539 0.467503 L 0.651539 0.472504 L 0.647209 0.475002 L 0.651539 0.477501 L 0.655869 0.475002 L 0.660198 0.477501 L 0.660198 0.487503 L 0.655869 0.485004 L 0.655869 0.480003 L 0.651539 0.482502 L 0.651539 0.487503 L 0.647209 0.490002 L 0.642879 0.487503 L 0.647209 0.485004 L 0.647209 0.480003 L 0.63855 0.485001 L 0.63855 0.490002 L 0.642879 0.4925 L 0.642879 0.497501 L 0.63855 0.495003 L 0.63422 0.497501 L 0.642879 0.502499 L 0.647209 0.5 L 0.647209 0.494999 L 0.655869 0.490002 L 0.655869 0.495003 L 0.651539 0.497501 L 0.655869 0.5 L 0.660198 0.497501 L 0.664528 0.5 L 0.664528 0.505001 L 0.660198 0.502502 L 0.655869 0.505001 L 0.664528 0.509998 L 0.668858 0.5075 L 0.673187 0.509998 L 0.673187 0.52 L 0.668858 0.517502 L 0.668858 0.512501 L 0.664528 0.514999 L 0.664528 0.52 L 0.660198 0.522499 L 0.651539 0.517502 L 0.655869 0.515003 L 0.660198 0.517502 L 0.660198 0.512501 L 0.655869 0.510002 L 0.651539 0.512501 L 0.647209 0.510002 L 0.651539 0.507504 L 0.651539 0.502502 L 0.642879 0.5075 L 0.642879 0.512501 L 0.647209 0.514999 L 0.647209 0.52 L 0.642879 0.517502 L 0.63855 0.52 L 0.647209 0.524998 L 0.651539 0.522499 L 0.655869 0.524998 L 0.655869 0.529999 L 0.651539 0.5275 L 0.647209 0.529999 L 0.655869 0.534996 L 0.660198 0.532497 L 0.660198 0.527496 L 0.668858 0.522499 L 0.668858 0.5275 L 0.664528 0.529999 L 0.668858 0.532497 L 0.673187 0.529999 L 0.677517 0.532497 L 0.677517 0.537498 L 0.673187 0.535 L 0.668858 0.537498 L 0.677517 0.542496 L 0.681847 0.539997 L 0.686176 0.542496 L 0.686176 0.552498 L 0.681847 0.549999 L 0.681847 0.544998 L 0.677517 0.547497 L 0.677517 0.552498 L 0.681847 0.554996 L 0.681847 0.564999 L 0.677517 0.5625 L 0.677517 0.557499 L 0.673187 0.559998 L 0.673187 0.564999 L 0.668858 0.567497 L 0.660198 0.5625 L 0.664528 0.560001 L 0.668858 0.5625 L 0.668858 0.557499 L 0.664528 0.555 L 0.664528 0.549999 L 0.668858 0.547501 L 0.668858 0.552502 L 0.673187 0.555 L 0.673187 0.544998 L 0.668858 0.5425 L 0.664528 0.544998 L 0.660198 0.5425 L 0.664528 0.540001 L 0.664528 0.535 L 0.655869 0.539997 L 0.655869 0.544998 L 0.660198 0.547497 L 0.660198 0.557499 L 0.655869 0.555 L 0.655869 0.549999 L 0.651539 0.552498 L 0.651539 0.557499 L 0.655869 0.559998 L 0.655869 0.564999 L 0.651539 0.5625 L 0.647209 0.564999 L 0.655869 0.569996 L 0.660198 0.567497 L 0.664528 0.569996 L 0.664528 0.579998 L 0.660198 0.577499 L 0.660198 0.572498 L 0.655869 0.574997 L 0.655869 0.579998 L 0.660198 0.582497 L 0.660198 0.592499 L 0.655869 0.59 L 0.655869 0.584999 L 0.651539 0.587498 L 0.651539 0.592499 L 0.647209 0.594997 L 0.63855 0.59 L 0.642879 0.587502 L 0.647209 0.59 L 0.647209 0.584999 L 0.642879 0.5825 L 0.642879 0.577499 L 0.647209 0.575001 L 0.647209 0.580002 L 0.651539 0.5825 L 0.651539 0.572498 L 0.647209 0.57 L 0.642879 0.572498 L 0.63855 0.57 L 0.642879 0.567501 L 0.642879 0.5625 L 0.63422 0.567497 L 0.63422 0.572498 L 0.63855 0.574997 L 0.63855 0.584999 L 0.63422 0.5825 L 0.63422 0.577499 L 0.62989 0.579998 L 0.62989 0.584999 L 0.625561 0.587498 L 0.621231 0.584999 L 0.625561 0.5825 L 0.625561 0.577499 L 0.616901 0.582497 L 0.616901 0.587498 L 0.612572 0.589996 L 0.603912 0.584999 L 0.608242 0.5825 L 0.612572 0.584999 L 0.612572 0.579998 L 0.608242 0.577499 L 0.603912 0.579998 L 0.595253 0.575001 L 0.599583 0.572502 L 0.603912 0.575001 L 0.603912 0.57 L 0.599583 0.567501 L 0.599583 0.5625 L 0.608242 0.557503 L 0.608242 0.562504 L 0.603912 0.565002 L 0.608242 0.567501 L 0.612572 0.565002 L 0.616901 0.567501 L 0.616901 0.572502 L 0.612572 0.570004 L 0.608242 0.572502 L 0.616901 0.577499 L 0.621231 0.575001 L 0.621231 0.57 L 0.625561 0.567501 L 0.625561 0.572502 L 0.62989 0.575001 L 0.62989 0.564999 L 0.625561 0.5625 L 0.621231 0.564999 L 0.612572 0.560001 L 0.616901 0.557503 L 0.621231 0.560001 L 0.621231 0.555 L 0.616901 0.552502 L 0.616901 0.547501 L 0.621231 0.545002 L 0.621231 0.550003 L 0.625561 0.552502 L 0.625561 0.5425 L 0.621231 0.540001 L 0.621231 0.535 L 0.62989 0.530003 L 0.62989 0.535004 L 0.625561 0.537502 L 0.62989 0.540001 L 0.63422 0.537502 L 0.63855 0.540001 L 0.63855 0.550003 L 0.63422 0.547504 L 0.63422 0.542503 L 0.62989 0.545002 L 0.62989 0.550003 L 0.63422 0.552502 L 0.63422 0.557503 L 0.62989 0.555004 L 0.625561 0.557503 L 0.63422 0.5625 L 0.63855 0.560001 L 0.63855 0.555 L 0.642879 0.552502 L 0.642879 0.557503 L 0.647209 0.560001 L 0.647209 0.549999 L 0.642879 0.547501 L 0.642879 0.5425 L 0.647209 0.540001 L 0.647209 0.545002 L 0.651539 0.547501 L 0.651539 0.537498 L 0.647209 0.535 L 0.642879 0.537498 L 0.63422 0.532501 L 0.63855 0.530003 L 0.642879 0.532501 L 0.642879 0.5275 L 0.63855 0.525002 L 0.63422 0.5275 L 0.62989 0.525002 L 0.63422 0.522503 L 0.63422 0.517502 L 0.625561 0.522499 L 0.625561 0.5275 L 0.621231 0.529999 L 0.612572 0.525002 L 0.616901 0.522503 L 0.621231 0.525002 L 0.621231 0.52 L 0.616901 0.517502 L 0.616901 0.512501 L 0.625561 0.507504 L 0.625561 0.512505 L 0.621231 0.515003 L 0.625561 0.517502 L 0.62989 0.515003 L 0.62989 0.510002 L 0.63422 0.507504 L 0.63422 0.512505 L 0.63855 0.515003 L 0.63855 0.505001 L 0.63422 0.502502 L 0.62989 0.505001 L 0.625561 0.502502 L 0.62989 0.500004 L 0.62989 0.495003 L 0.621231 0.5 L 0.621231 0.505001 L 0.616901 0.5075 L 0.612572 0.505001 L 0.616901 0.502502 L 0.616901 0.497501 L 0.608242 0.502499 L 0.608242 0.5075 L 0.612572 0.509998 L 0.612572 0.52 L 0.608242 0.517502 L 0.608242 0.512501 L 0.603912 0.514999 L 0.603912 0.52 L 0.608242 0.522499 L 0.608242 0.5275 L 0.603912 0.525002 L 0.599583 0.5275 L 0.608242 0.532497 L 0.612572 0.529999 L 0.616901 0.532497 L 0.616901 0.5425 L 0.612572 0.540001 L 0.612572 0.535 L 0.608242 0.537498 L 0.608242 0.5425 L 0.612572 0.544998 L 0.612572 0.555 L 0.608242 0.552502 L 0.608242 0.547501 L 0.603912 0.549999 L 0.603912 0.555 L 0.599583 0.557499 L 0.590923 0.552502 L 0.595253 0.550003 L 0.599583 0.552502 L 0.599583 0.547501 L 0.595253 0.545002 L 0.595253 0.540001 L 0.599583 0.537502 L 0.599583 0.542503 L 0.603912 0.545002 L 0.603912 0.535 L 0.599583 0.532501 L 0.595253 0.535 L 0.590923 0.532501 L 0.595253 0.530003 L 0.595253 0.525002 L 0.586594 0.529999 L 0.586594 0.535 L 0.590923 0.537498 L 0.590923 0.547501 L 0.586594 0.545002 L 0.586594 0.540001 L 0.582264 0.5425 L 0.582264 0.547501 L 0.586594 0.549999 L 0.586594 0.555 L 0.582264 0.552502 L 0.577934 0.555 L 0.586594 0.559998 L 0.590923 0.557499 L 0.595253 0.559998 L 0.595253 0.57 L 0.590923 0.567501 L 0.590923 0.5625 L 0.586594 0.564999 L 0.586594 0.57 L 0.582264 0.572498 L 0.573605 0.567501 L 0.577934 0.565002 L 0.582264 0.567501 L 0.582264 0.5625 L 0.577934 0.560001 L 0.573605 0.5625 L 0.569275 0.560001 L 0.573605 0.557503 L 0.573605 0.552502 L 0.564945 0.557499 L 0.564945 0.5625 L 0.569275 0.564999 L 0.569275 0.57 L 0.564945 0.567501 L 0.560616 0.57 L 0.569275 0.574997 L 0.573605 0.572498 L 0.577934 0.574997 L 0.577934 0.579998 L 0.573605 0.577499 L 0.569275 0.579998 L 0.577934 0.584995 L 0.582264 0.582497 L 0.582264 0.577496 L 0.590923 0.572498 L 0.590923 0.577499 L 0.586594 0.579998 L 0.590923 0.582497 L 0.595253 0.579998 L 0.599583 0.582497 L 0.599583 0.587498 L 0.595253 0.584999 L 0.590923 0.587498 L 0.599583 0.592495 L 0.603912 0.589996 L 0.608242 0.592495 L 0.608242 0.602497 L 0.603912 0.599998 L 0.603912 0.594997 L 0.599583 0.597496 L 0.599583 0.602497 L 0.603912 0.604996 L 0.603912 0.614998 L 0.599583 0.612499 L 0.599583 0.607498 L 0.595253 0.609997 L 0.595253 0.614998 L 0.590923 0.617496 L 0.582264 0.612499 L 0.586594 0.610001 L 0.590923 0.612499 L 0.590923 0.607498 L 0.586594 0.605 L 0.586594 0.599998 L 0.590923 0.5975 L 0.590923 0.602501 L 0.595253 0.605 L 0.595253 0.594997 L 0.590923 0.592499 L 0.586594 0.594997 L 0.582264 0.592499 L 0.586594 0.59 L 0.586594 0.584999 L 0.577934 0.589996 L 0.577934 0.594997 L 0.582264 0.597496 L 0.582264 0.607498 L 0.577934 0.605 L 0.577934 0.599998 L 0.573605 0.602497 L 0.573605 0.607498 L 0.569275 0.609997 L 0.564945 0.607498 L 0.569275 0.605 L 0.569275 0.599998 L 0.560616 0.604996 L 0.560616 0.609997 L 0.556286 0.612495 L 0.547626 0.607498 L 0.551956 0.605 L 0.556286 0.607498 L 0.556286 0.602497 L 0.551956 0.599998 L 0.547626 0.602497 L 0.538967 0.5975 L 0.543297 0.595001 L 0.547626 0.5975 L 0.547626 0.592499 L 0.543297 0.59 L 0.543297 0.584999 L 0.551956 0.580002 L 0.551956 0.585003 L 0.547626 0.587502 L 0.551956 0.59 L 0.556286 0.587502 L 0.560616 0.59 L 0.560616 0.595001 L 0.556286 0.592503 L 0.551956 0.595001 L 0.560616 0.599998 L 0.564945 0.5975 L 0.564945 0.592499 L 0.569275 0.59 L 0.569275 0.595001 L 0.573605 0.5975 L 0.573605 0.587498 L 0.569275 0.584999 L 0.564945 0.587498 L 0.556286 0.5825 L 0.560616 0.580002 L 0.564945 0.5825 L 0.564945 0.577499 L 0.560616 0.575001 L 0.556286 0.577499 L 0.551956 0.575001 L 0.556286 0.572502 L 0.556286 0.567501 L 0.547626 0.572498 L 0.547626 0.577499 L 0.543297 0.579998 L 0.534637 0.575001 L 0.538967 0.572502 L 0.543297 0.575001 L 0.543297 0.57 L 0.538967 0.567501 L 0.538967 0.5625 L 0.547626 0.557503 L 0.547626 0.562504 L 0.543297 0.565002 L 0.547626 0.567501 L 0.551956 0.565002 L 0.551956 0.560001 L 0.556286 0.557503 L 0.556286 0.562504 L 0.560616 0.565002 L 0.560616 0.555 L 0.556286 0.552502 L 0.551956 0.555 L 0.547626 0.552502 L 0.551956 0.550003 L 0.551956 0.545002 L 0.543297 0.549999 L 0.543297 0.555 L 0.538967 0.557499 L 0.534637 0.555 L 0.538967 0.552502 L 0.538967 0.547501 L 0.530308 0.552498 L 0.530308 0.557499 L 0.534637 0.559998 L 0.534637 0.57 L 0.530308 0.567501 L 0.530308 0.5625 L 0.525978 0.564999 L 0.525978 0.57 L 0.530308 0.572498 L 0.530308 0.577499 L 0.525978 0.575001 L 0.521648 0.577499 L 0.530308 0.582497 L 0.534637 0.579998 L 0.538967 0.582497 L 0.538967 0.592499 L 0.534637 0.59 L 0.534637 0.584999 L 0.530308 0.587498 L 0.530308 0.592499 L 0.525978 0.594997 L 0.517319 0.59 L 0.521648 0.587502 L 0.525978 0.59 L 0.525978 0.584999 L 0.521648 0.5825 L 0.517319 0.584999 L 0.512989 0.5825 L 0.517319 0.580002 L 0.517319 0.575001 L 0.508659 0.579998 L 0.508659 0.584999 L 0.512989 0.587498 L 0.512989 0.592499 L 0.508659 0.59 L 0.50433 0.592499 L 0.512989 0.597496 L 0.517319 0.594997 L 0.521648 0.597496 L 0.521648 0.602497 L 0.517319 0.599998 L 0.512989 0.602497 L 0.521648 0.607494 L 0.525978 0.604996 L 0.525978 0.599995 L 0.534637 0.594997 L 0.534637 0.599998 L 0.530308 0.602497 L 0.534637 0.604996 L 0.538967 0.602497 L 0.543297 0.604996 L 0.543297 0.609997 L 0.538967 0.607498 L 0.534637 0.609997 L 0.543297 0.614994 L 0.547626 0.612495 L 0.551956 0.614994 L 0.551956 0.624996 L 0.547626 0.622498 L 0.547626 0.617496 L 0.543297 0.619995 L 0.543297 0.624996 L 0.538967 0.627495 L 0.530308 0.622498 L 0.534637 0.619999 L 0.538967 0.622498 L 0.538967 0.617496 L 0.534637 0.614998 L 0.530308 0.617496 L 0.525978 0.614998 L 0.530308 0.612499 L 0.530308 0.607498 L 0.521648 0.612495 L 0.521648 0.617496 L 0.525978 0.619995 L 0.525978 0.624996 L 0.521648 0.622498 L 0.517319 0.624996 L 0.525978 0.629993 L 0.530308 0.627495 L 0.534637 0.629993 L 0.534637 0.634995 L 0.530308 0.632496 L 0.525978 0.634995 L 0.534637 0.639992 L 0.538967 0.637493 L 0.538967 0.632492 L 0.547626 0.627495 L 0.547626 0.632496 L 0.543297 0.634995 L 0.547626 0.637493 L 0.551956 0.634995 L 0.551956 0.629993 L 0.556286 0.627495 L 0.556286 0.632496 L 0.560616 0.634995 L 0.560616 0.624992 L 0.556286 0.622494 L 0.556286 0.617493 L 0.564945 0.612495 L 0.564945 0.617496 L 0.560616 0.619995 L 0.564945 0.622494 L 0.569275 0.619995 L 0.569275 0.614994 L 0.577934 0.609997 L 0.577934 0.614998 L 0.573605 0.617496 L 0.577934 0.619995 L 0.582264 0.617496 L 0.586594 0.619995 L 0.586594 0.629997 L 0.582264 0.627499 L 0.582264 0.622498 L 0.577934 0.624996 L 0.577934 0.629997 L 0.573605 0.632496 L 0.569275 0.629997 L 0.573605 0.627499 L 0.573605 0.622498 L 0.564945 0.627495 L 0.564945 0.632496 L 0.569275 0.634995 L 0.569275 0.639996 L 0.564945 0.637497 L 0.560616 0.639996 L 0.569275 0.644993 L 0.573605 0.642494 L 0.573605 0.637493 L 0.582264 0.632496 L 0.582264 0.637497 L 0.577934 0.639996 L 0.582264 0.642494 L 0.586594 0.639996 L 0.586594 0.634995 L 0.590923 0.632496 L 0.590923 0.637497 L 0.595253 0.639996 L 0.595253 0.629993 L 0.590923 0.627495 L 0.590923 0.622494 L 0.599583 0.617496 L 0.599583 0.622498 L 0.595253 0.624996 L 0.599583 0.627495 L 0.603912 0.624996 L 0.608242 0.627495 L 0.608242 0.637497 L 0.603912 0.634998 L 0.603912 0.629997 L 0.599583 0.632496 L 0.599583 0.637497 L 0.603912 0.639996 L 0.603912 0.644997 L 0.599583 0.642498 L 0.595253 0.644997 L 0.603912 0.649994 L 0.608242 0.647495 L 0.608242 0.642494 L 0.612572 0.639996 L 0.612572 0.644997 L 0.616901 0.647495 L 0.616901 0.637493 L 0.612572 0.634995 L 0.612572 0.629993 L 0.616901 0.627495 L 0.616901 0.632496 L 0.621231 0.634995 L 0.621231 0.624992 L 0.616901 0.622494 L 0.612572 0.624992 L 0.603912 0.619995 L 0.608242 0.617496 L 0.612572 0.619995 L 0.612572 0.614994 L 0.608242 0.612495 L 0.608242 0.607494 L 0.612572 0.604996 L 0.612572 0.609997 L 0.616901 0.612495 L 0.616901 0.602493 L 0.612572 0.599995 L 0.612572 0.594994 L 0.621231 0.589996 L 0.621231 0.594997 L 0.616901 0.597496 L 0.621231 0.599995 L 0.625561 0.597496 L 0.625561 0.592495 L 0.63422 0.587498 L 0.63422 0.592499 L 0.62989 0.594997 L 0.63422 0.597496 L 0.63855 0.594997 L 0.642879 0.597496 L 0.642879 0.607498 L 0.63855 0.605 L 0.63855 0.599998 L 0.63422 0.602497 L 0.63422 0.607498 L 0.62989 0.609997 L 0.625561 0.607498 L 0.62989 0.605 L 0.62989 0.599998 L 0.621231 0.604996 L 0.621231 0.609997 L 0.625561 0.612495 L 0.625561 0.617496 L 0.621231 0.614998 L 0.616901 0.617496 L 0.625561 0.622494 L 0.62989 0.619995 L 0.62989 0.614994 L 0.63855 0.609997 L 0.63855 0.614998 L 0.63422 0.617496 L 0.63855 0.619995 L 0.642879 0.617496 L 0.647209 0.619995 L 0.647209 0.624996 L 0.642879 0.622498 L 0.63855 0.624996 L 0.647209 0.629993 L 0.651539 0.627495 L 0.655869 0.629993 L 0.655869 0.639996 L 0.651539 0.637497 L 0.651539 0.632496 L 0.647209 0.634995 L 0.647209 0.639996 L 0.651539 0.642494 L 0.651539 0.652496 L 0.647209 0.649998 L 0.647209 0.644997 L 0.642879 0.647495 L 0.642879 0.652496 L 0.63855 0.654995 L 0.62989 0.649998 L 0.63422 0.647499 L 0.63855 0.649998 L 0.63855 0.644997 L 0.63422 0.642498 L 0.63422 0.637497 L 0.63855 0.634998 L 0.63855 0.639999 L 0.642879 0.642498 L 0.642879 0.632496 L 0.63855 0.629997 L 0.63422 0.632496 L 0.62989 0.629997 L 0.63422 0.627499 L 0.63422 0.622498 L 0.625561 0.627495 L 0.625561 0.632496 L 0.62989 0.634995 L 0.62989 0.644997 L 0.625561 0.642498 L 0.625561 0.637497 L 0.621231 0.639996 L 0.621231 0.644997 L 0.625561 0.647495 L 0.625561 0.652496 L 0.621231 0.649998 L 0.616901 0.652496 L 0.625561 0.657494 L 0.62989 0.654995 L 0.63422 0.657494 L 0.63422 0.667496 L 0.62989 0.664997 L 0.62989 0.659996 L 0.625561 0.662495 L 0.625561 0.667496 L 0.621231 0.669994 L 0.612572 0.664997 L 0.616901 0.662498 L 0.621231 0.664997 L 0.621231 0.659996 L 0.616901 0.657497 L 0.612572 0.659996 L 0.608242 0.657497 L 0.612572 0.654999 L 0.612572 0.649998 L 0.603912 0.654995 L 0.603912 0.659996 L 0.608242 0.662495 L 0.608242 0.667496 L 0.603912 0.664997 L 0.599583 0.667496 L 0.608242 0.672493 L 0.612572 0.669994 L 0.616901 0.672493 L 0.616901 0.677494 L 0.612572 0.674995 L 0.608242 0.677494 L 0.616901 0.682491 L 0.621231 0.679993 L 0.621231 0.674992 L 0.62989 0.669994 L 0.62989 0.674995 L 0.625561 0.677494 L 0.62989 0.679993 L 0.63422 0.677494 L 0.63422 0.672493 L 0.63855 0.669994 L 0.63855 0.674995 L 0.642879 0.677494 L 0.642879 0.667492 L 0.63855 0.664993 L 0.63855 0.659992 L 0.647209 0.654995 L 0.647209 0.659996 L 0.642879 0.662495 L 0.647209 0.664993 L 0.651539 0.662495 L 0.655869 0.664993 L 0.655869 0.674995 L 0.651539 0.672497 L 0.651539 0.667496 L 0.647209 0.669994 L 0.647209 0.674995 L 0.651539 0.677494 L 0.651539 0.682495 L 0.647209 0.679996 L 0.642879 0.682495 L 0.651539 0.687492 L 0.655869 0.684994 L 0.655869 0.679993 L 0.660198 0.677494 L 0.660198 0.682495 L 0.664528 0.684994 L 0.664528 0.674992 L 0.660198 0.672493 L 0.660198 0.667492 L 0.664528 0.664993 L 0.664528 0.669994 L 0.668858 0.672493 L 0.668858 0.662491 L 0.664528 0.659992 L 0.660198 0.662491 L 0.651539 0.657494 L 0.655869 0.654995 L 0.660198 0.657494 L 0.660198 0.652493 L 0.655869 0.649994 L 0.655869 0.644993 L 0.660198 0.642494 L 0.660198 0.647495 L 0.664528 0.649994 L 0.664528 0.639992 L 0.660198 0.637493 L 0.660198 0.632492 L 0.668858 0.627495 L 0.668858 0.632496 L 0.664528 0.634995 L 0.668858 0.637493 L 0.673187 0.634995 L 0.677517 0.637493 L 0.677517 0.647495 L 0.673187 0.644997 L 0.673187 0.639996 L 0.668858 0.642494 L 0.668858 0.647495 L 0.673187 0.649994 L 0.673187 0.654995 L 0.668858 0.652496 L 0.664528 0.654995 L 0.673187 0.659992 L 0.677517 0.657494 L 0.677517 0.652493 L 0.681847 0.649994 L 0.681847 0.654995 L 0.686176 0.657494 L 0.686176 0.647491 L 0.681847 0.644993 L 0.681847 0.639992 L 0.686176 0.637493 L 0.686176 0.642494 L 0.690506 0.644993 L 0.690506 0.634991 L 0.686176 0.632492 L 0.681847 0.634991 L 0.673187 0.629993 L 0.677517 0.627495 L 0.681847 0.629993 L 0.681847 0.624992 L 0.677517 0.622494 L 0.673187 0.624992 L 0.668858 0.622494 L 0.673187 0.619995 L 0.673187 0.614994 L 0.664528 0.619991 L 0.664528 0.624992 L 0.660198 0.627491 L 0.651539 0.622494 L 0.655869 0.619995 L 0.660198 0.622494 L 0.660198 0.617493 L 0.655869 0.614994 L 0.651539 0.617493 L 0.642879 0.612495 L 0.647209 0.609997 L 0.651539 0.612495 L 0.651539 0.607494 L 0.647209 0.604996 L 0.647209 0.599995 L 0.655869 0.594997 L 0.655869 0.599998 L 0.651539 0.602497 L 0.655869 0.604996 L 0.660198 0.602497 L 0.664528 0.604996 L 0.664528 0.609997 L 0.660198 0.607498 L 0.655869 0.609997 L 0.664528 0.614994 L 0.668858 0.612495 L 0.668858 0.607494 L 0.673187 0.604996 L 0.673187 0.609997 L 0.677517 0.612495 L 0.677517 0.602493 L 0.673187 0.599995 L 0.668858 0.602493 L 0.660198 0.597496 L 0.664528 0.594997 L 0.668858 0.597496 L 0.668858 0.592495 L 0.664528 0.589996 L 0.664528 0.584995 L 0.668858 0.582497 L 0.668858 0.587498 L 0.673187 0.589996 L 0.673187 0.579994 L 0.668858 0.577496 L 0.668858 0.572495 L 0.677517 0.567497 L 0.677517 0.572498 L 0.673187 0.574997 L 0.677517 0.577496 L 0.681847 0.574997 L 0.686176 0.577496 L 0.686176 0.587498 L 0.681847 0.584999 L 0.681847 0.579998 L 0.677517 0.582497 L 0.677517 0.587498 L 0.681847 0.589996 L 0.681847 0.594997 L 0.677517 0.592499 L 0.673187 0.594997 L 0.681847 0.599995 L 0.686176 0.597496 L 0.686176 0.592495 L 0.690506 0.589996 L 0.690506 0.594997 L 0.694836 0.597496 L 0.694836 0.587494 L 0.690506 0.584995 L 0.690506 0.579994 L 0.694836 0.577496 L 0.694836 0.582497 L 0.699165 0.584995 L 0.699165 0.574993 L 0.694836 0.572495 L 0.690506 0.574993 L 0.681847 0.569996 L 0.686176 0.567497 L 0.690506 0.569996 L 0.690506 0.564995 L 0.686176 0.562496 L 0.686176 0.557495 L 0.690506 0.554996 L 0.690506 0.559998 L 0.694836 0.562496 L 0.694836 0.552494 L 0.690506 0.549995 L 0.690506 0.544994 L 0.699165 0.539997 L 0.699165 0.544998 L 0.694836 0.547497 L 0.699165 0.549995 L 0.703495 0.547497 L 0.703495 0.542496 L 0.712154 0.537498 L 0.712154 0.5425 L 0.707825 0.544998 L 0.712154 0.547497 L 0.716484 0.544998 L 0.720814 0.547497 L 0.720814 0.557499 L 0.716484 0.555 L 0.716484 0.549999 L 0.712154 0.552498 L 0.712154 0.557499 L 0.707825 0.559998 L 0.703495 0.557499 L 0.707825 0.555 L 0.707825 0.549999 L 0.699165 0.554996 L 0.699165 0.559998 L 0.703495 0.562496 L 0.703495 0.567497 L 0.699165 0.564999 L 0.694836 0.567497 L 0.703495 0.572495 L 0.707825 0.569996 L 0.707825 0.564995 L 0.716484 0.559998 L 0.716484 0.564999 L 0.712154 0.567497 L 0.716484 0.569996 L 0.720814 0.567497 L 0.725143 0.569996 L 0.725143 0.574997 L 0.720814 0.572498 L 0.716484 0.574997 L 0.725143 0.579994 L 0.729473 0.577496 L 0.733803 0.579994 L 0.733803 0.589996 L 0.729473 0.587498 L 0.729473 0.582497 L 0.725143 0.584995 L 0.725143 0.589996 L 0.729473 0.592495 L 0.729473 0.602497 L 0.725143 0.599998 L 0.725143 0.594997 L 0.720814 0.597496 L 0.720814 0.602497 L 0.716484 0.604996 L 0.707825 0.599998 L 0.712154 0.5975 L 0.716484 0.599998 L 0.716484 0.594997 L 0.712154 0.592499 L 0.712154 0.587498 L 0.716484 0.584999 L 0.716484 0.59 L 0.720814 0.592499 L 0.720814 0.582497 L 0.716484 0.579998 L 0.712154 0.582497 L 0.707825 0.579998 L 0.712154 0.577499 L 0.712154 0.572498 L 0.703495 0.577496 L 0.703495 0.582497 L 0.707825 0.584995 L 0.707825 0.594997 L 0.703495 0.592499 L 0.703495 0.587498 L 0.699165 0.589996 L 0.699165 0.594997 L 0.703495 0.597496 L 0.703495 0.602497 L 0.699165 0.599998 L 0.694836 0.602497 L 0.703495 0.607494 L 0.707825 0.604996 L 0.712154 0.607494 L 0.712154 0.617496 L 0.707825 0.614998 L 0.707825 0.609997 L 0.703495 0.612495 L 0.703495 0.617496 L 0.699165 0.619995 L 0.690506 0.614998 L 0.694836 0.612499 L 0.699165 0.614998 L 0.699165 0.609997 L 0.694836 0.607498 L 0.690506 0.609997 L 0.686176 0.607498 L 0.690506 0.605 L 0.690506 0.599998 L 0.681847 0.604996 L 0.681847 0.609997 L 0.686176 0.612495 L 0.686176 0.617496 L 0.681847 0.614998 L 0.677517 0.617496 L 0.686176 0.622494 L 0.690506 0.619995 L 0.694836 0.622494 L 0.694836 0.627495 L 0.690506 0.624996 L 0.686176 0.627495 L 0.694836 0.632492 L 0.699165 0.629993 L 0.699165 0.624992 L 0.707825 0.619995 L 0.707825 0.624996 L 0.703495 0.627495 L 0.707825 0.629993 L 0.712154 0.627495 L 0.712154 0.622494 L 0.716484 0.619995 L 0.716484 0.624996 L 0.720814 0.627495 L 0.720814 0.617493 L 0.716484 0.614994 L 0.716484 0.609993 L 0.725143 0.604996 L 0.725143 0.609997 L 0.720814 0.612495 L 0.725143 0.614994 L 0.729473 0.612495 L 0.733803 0.614994 L 0.733803 0.624996 L 0.729473 0.622498 L 0.729473 0.617496 L 0.725143 0.619995 L 0.725143 0.624996 L 0.729473 0.627495 L 0.729473 0.632496 L 0.725143 0.629997 L 0.720814 0.632496 L 0.729473 0.637493 L 0.733803 0.634995 L 0.733803 0.629993 L 0.738132 0.627495 L 0.738132 0.632496 L 0.742462 0.634995 L 0.742462 0.624992 L 0.738132 0.622494 L 0.738132 0.617493 L 0.742462 0.614994 L 0.742462 0.619995 L 0.746792 0.622494 L 0.746792 0.612492 L 0.742462 0.609993 L 0.738132 0.612492 L 0.729473 0.607494 L 0.733803 0.604996 L 0.738132 0.607494 L 0.738132 0.602493 L 0.733803 0.599995 L 0.733803 0.594994 L 0.738132 0.592495 L 0.738132 0.597496 L 0.742462 0.599995 L 0.742462 0.589993 L 0.738132 0.587494 L 0.738132 0.582493 L 0.746792 0.577496 L 0.746792 0.582497 L 0.742462 0.584995 L 0.746792 0.587494 L 0.751122 0.584995 L 0.755451 0.587494 L 0.755451 0.597496 L 0.751122 0.594997 L 0.751122 0.589996 L 0.746792 0.592495 L 0.746792 0.597496 L 0.751122 0.599995 L 0.751122 0.604996 L 0.746792 0.602497 L 0.742462 0.604996 L 0.751122 0.609993 L 0.755451 0.607494 L 0.755451 0.602493 L 0.759781 0.599995 L 0.759781 0.604996 L 0.764111 0.607494 L 0.764111 0.597492 L 0.759781 0.594994 L 0.759781 0.589993 L 0.764111 0.587494 L 0.764111 0.592495 L 0.76844 0.594994 L 0.76844 0.584991 L 0.764111 0.582493 L 0.759781 0.584991 L 0.751122 0.579994 L 0.755451 0.577496 L 0.759781 0.579994 L 0.759781 0.574993 L 0.755451 0.572495 L 0.751122 0.574993 L 0.746792 0.572495 L 0.751122 0.569996 L 0.751122 0.564995 L 0.742462 0.569992 L 0.742462 0.574993 L 0.738132 0.577492 L 0.729473 0.572495 L 0.733803 0.569996 L 0.738132 0.572495 L 0.738132 0.567493 L 0.733803 0.564995 L 0.729473 0.567493 L 0.720814 0.562496 L 0.725143 0.559998 L 0.729473 0.562496 L 0.729473 0.557495 L 0.725143 0.554996 L 0.725143 0.549995 L 0.733803 0.544998 L 0.733803 0.549999 L 0.729473 0.552498 L 0.733803 0.554996 L 0.738132 0.552498 L 0.742462 0.554996 L 0.742462 0.559998 L 0.738132 0.557499 L 0.733803 0.559998 L 0.742462 0.564995 L 0.746792 0.562496 L 0.746792 0.557495 L 0.751122 0.554996 L 0.751122 0.559998 L 0.755451 0.562496 L 0.755451 0.552494 L 0.751122 0.549995 L 0.746792 0.552494 L 0.738132 0.547497 L 0.742462 0.544998 L 0.746792 0.547497 L 0.746792 0.542496 L 0.742462 0.539997 L 0.738132 0.542496 L 0.733803 0.539997 L 0.738132 0.537498 L 0.738132 0.532497 L 0.729473 0.537495 L 0.729473 0.542496 L 0.725143 0.544994 L 0.716484 0.539997 L 0.720814 0.537498 L 0.725143 0.539997 L 0.725143 0.534996 L 0.720814 0.532497 L 0.720814 0.527496 L 0.729473 0.522499 L 0.729473 0.5275 L 0.725143 0.529999 L 0.729473 0.532497 L 0.733803 0.529999 L 0.733803 0.524998 L 0.738132 0.522499 L 0.738132 0.5275 L 0.742462 0.529999 L 0.742462 0.519997 L 0.738132 0.517498 L 0.733803 0.519997 L 0.729473 0.517498 L 0.733803 0.514999 L 0.733803 0.509998 L 0.725143 0.514996 L 0.725143 0.519997 L 0.720814 0.522495 L 0.716484 0.519997 L 0.720814 0.517498 L 0.720814 0.512497 L 0.712154 0.517494 L 0.712154 0.522495 L 0.716484 0.524994 L 0.716484 0.534996 L 0.712154 0.532497 L 0.712154 0.527496 L 0.707825 0.529995 L 0.707825 0.534996 L 0.703495 0.537495 L 0.699165 0.534996 L 0.703495 0.532497 L 0.703495 0.527496 L 0.694836 0.532494 L 0.694836 0.537495 L 0.690506 0.539993 L 0.681847 0.534996 L 0.686176 0.532497 L 0.690506 0.534996 L 0.690506 0.529995 L 0.686176 0.527496 L 0.681847 0.529995 L 0.673187 0.524998 L 0.677517 0.522499 L 0.681847 0.524998 L 0.681847 0.519997 L 0.677517 0.517498 L 0.677517 0.512497 L 0.686176 0.5075 L 0.686176 0.512501 L 0.681847 0.514999 L 0.686176 0.517498 L 0.690506 0.514999 L 0.694836 0.517498 L 0.694836 0.522499 L 0.690506 0.52 L 0.686176 0.522499 L 0.694836 0.527496 L 0.699165 0.524998 L 0.699165 0.519997 L 0.703495 0.517498 L 0.703495 0.522499 L 0.707825 0.524998 L 0.707825 0.514996 L 0.703495 0.512497 L 0.699165 0.514996 L 0.690506 0.509998 L 0.694836 0.5075 L 0.699165 0.509998 L 0.699165 0.504997 L 0.694836 0.502499 L 0.690506 0.504997 L 0.686176 0.502499 L 0.690506 0.5 L 0.690506 0.494999 L 0.681847 0.499996 L 0.681847 0.504997 L 0.677517 0.507496 L 0.668858 0.502499 L 0.673187 0.5 L 0.677517 0.502499 L 0.677517 0.497498 L 0.673187 0.494999 L 0.668858 0.497498 L 0.660198 0.4925 L 0.664528 0.490002 L 0.668858 0.4925 L 0.668858 0.487499 L 0.664528 0.485001 L 0.664528 0.48 L 0.673187 0.475002 L 0.673187 0.480003 L 0.668858 0.482502 L 0.673187 0.485001 L 0.677517 0.482502 L 0.681847 0.485001 L 0.681847 0.490002 L 0.677517 0.487503 L 0.673187 0.490002 L 0.681847 0.494999 L 0.686176 0.4925 L 0.686176 0.487499 L 0.690506 0.485001 L 0.690506 0.490002 L 0.694836 0.4925 L 0.694836 0.482498 L 0.690506 0.48 L 0.686176 0.482498 L 0.677517 0.477501 L 0.681847 0.475002 L 0.686176 0.477501 L 0.686176 0.4725 L 0.681847 0.470001 L 0.681847 0.465 L 0.686176 0.462502 L 0.686176 0.467503 L 0.690506 0.470001 L 0.690506 0.459999 L 0.686176 0.4575 L 0.686176 0.452499 L 0.694836 0.447502 L 0.694836 0.452503 L 0.690506 0.455002 L 0.694836 0.4575 L 0.699165 0.455002 L 0.699165 0.450001 L 0.707825 0.445004 L 0.707825 0.450005 L 0.703495 0.452503 L 0.707825 0.455002 L 0.712154 0.452503 L 0.716484 0.455002 L 0.716484 0.465004 L 0.712154 0.462505 L 0.712154 0.457504 L 0.707825 0.460003 L 0.707825 0.465004 L 0.703495 0.467503 L 0.699165 0.465004 L 0.703495 0.462505 L 0.703495 0.457504 L 0.694836 0.462502 L 0.694836 0.467503 L 0.699165 0.470001 L 0.699165 0.475002 L 0.694836 0.472504 L 0.690506 0.475002 L 0.699165 0.48 L 0.703495 0.477501 L 0.703495 0.4725 L 0.712154 0.467503 L 0.712154 0.472504 L 0.707825 0.475002 L 0.712154 0.477501 L 0.716484 0.475002 L 0.720814 0.477501 L 0.720814 0.482502 L 0.716484 0.480003 L 0.712154 0.482502 L 0.720814 0.487499 L 0.725143 0.485001 L 0.729473 0.487499 L 0.729473 0.497501 L 0.725143 0.495003 L 0.725143 0.490002 L 0.720814 0.4925 L 0.720814 0.497501 L 0.716484 0.5 L 0.707825 0.495003 L 0.712154 0.492504 L 0.716484 0.495003 L 0.716484 0.490002 L 0.712154 0.487503 L 0.707825 0.490002 L 0.703495 0.487503 L 0.707825 0.485004 L 0.707825 0.480003 L 0.699165 0.485001 L 0.699165 0.490002 L 0.703495 0.4925 L 0.703495 0.497501 L 0.699165 0.495003 L 0.694836 0.497501 L 0.703495 0.502499 L 0.707825 0.5 L 0.712154 0.502499 L 0.712154 0.5075 L 0.707825 0.505001 L 0.703495 0.5075 L 0.712154 0.512497 L 0.716484 0.509998 L 0.716484 0.504997 L 0.725143 0.5 L 0.725143 0.505001 L 0.720814 0.5075 L 0.725143 0.509998 L 0.729473 0.5075 L 0.729473 0.502499 L 0.733803 0.5 L 0.733803 0.505001 L 0.738132 0.5075 L 0.738132 0.497498 L 0.733803 0.494999 L 0.733803 0.489998 L 0.742462 0.485001 L 0.742462 0.490002 L 0.738132 0.4925 L 0.742462 0.494999 L 0.746792 0.4925 L 0.751122 0.494999 L 0.751122 0.505001 L 0.746792 0.502502 L 0.746792 0.497501 L 0.742462 0.5 L 0.742462 0.505001 L 0.746792 0.5075 L 0.746792 0.512501 L 0.742462 0.510002 L 0.738132 0.512501 L 0.746792 0.517498 L 0.751122 0.514999 L 0.751122 0.509998 L 0.755451 0.5075 L 0.755451 0.512501 L 0.759781 0.514999 L 0.759781 0.504997 L 0.755451 0.502499 L 0.755451 0.497498 L 0.759781 0.494999 L 0.759781 0.5 L 0.764111 0.502499 L 0.764111 0.492496 L 0.759781 0.489998 L 0.755451 0.492496 L 0.746792 0.487499 L 0.751122 0.485001 L 0.755451 0.487499 L 0.755451 0.482498 L 0.751122 0.48 L 0.746792 0.482498 L 0.742462 0.48 L 0.746792 0.477501 L 0.746792 0.4725 L 0.738132 0.477497 L 0.738132 0.482498 L 0.733803 0.484997 L 0.725143 0.48 L 0.729473 0.477501 L 0.733803 0.48 L 0.733803 0.474998 L 0.729473 0.4725 L 0.725143 0.474998 L 0.716484 0.470001 L 0.720814 0.467503 L 0.725143 0.470001 L 0.725143 0.465 L 0.720814 0.462502 L 0.720814 0.4575 L 0.729473 0.452503 L 0.729473 0.457504 L 0.725143 0.460003 L 0.729473 0.462502 L 0.733803 0.460003 L 0.738132 0.462502 L 0.738132 0.467503 L 0.733803 0.465004 L 0.729473 0.467503 L 0.738132 0.4725 L 0.742462 0.470001 L 0.742462 0.465 L 0.746792 0.462502 L 0.746792 0.467503 L 0.751122 0.470001 L 0.751122 0.459999 L 0.746792 0.4575 L 0.742462 0.459999 L 0.733803 0.455002 L 0.738132 0.452503 L 0.742462 0.455002 L 0.742462 0.450001 L 0.738132 0.447502 L 0.738132 0.442501 " transform="matrix(1024,0,0,1024,0,0)"/>
</g>
</svg>
