<?xml version="1.0" encoding="UTF-8"?>
<svg xmlns="http://www.w3.org/2000/svg" xmlns:xlink="http://www.w3.org/1999/xlink" width="1024pt" height="1024pt" viewBox="0 0 1024 1024" version="1.1">
<g id="surface31">
<path style="fill:none;stroke-width:0.001;stroke-linecap:butt;stroke-linejoin:miter;stroke:rgb(0%,0%,0%);stroke-opacity:1;stroke-miterlimit:10;" d="M 0.5 0.5 L 0.5 0.494999 L 0.494999 0.494999 L 0.494999 0.5 L 0.484997 0.5 L 0.484997 0.494999 L 0.489998 0.494999 L 0.489998 0.489998 L 0.484997 0.489998 L 0.484997 0.484997 L 0.494999 0.484997 L 0.494999 0.489998 L 0.5 0.489998 L 0.5 0.479996 L 0.494999 0.479996 L 0.494999 0.474995 L 0.5 0.474995 L 0.5 0.464993 L 0.494999 0.464993 L 0.494999 0.469994 L 0.489998 0.469994 L 0.489998 0.464993 L 0.484997 0.464993 L 0.484997 0.474995 L 0.489998 0.474995 L 0.489998 0.479996 L 0.474995 0.479996 L 0.474995 0.474995 L 0.479996 0.474995 L 0.479996 0.464993 L 0.474995 0.464993 L 0.474995 0.469994 L 0.469994 0.469994 L 0.469994 0.464993 L 0.464993 0.464993 L 0.464993 0.474995 L 0.469994 0.474995 L 0.469994 0.479996 L 0.464993 0.479996 L 0.464993 0.489998 L 0.469994 0.489998 L 0.469994 0.484997 L 0.479996 0.484997 L 0.479996 0.489998 L 0.474995 0.489998 L 0.474995 0.494999 L 0.479996 0.494999 L 0.479996 0.5 L 0.469994 0.5 L 0.469994 0.494999 L 0.464993 0.494999 L 0.464993 0.5 L 0.45499 0.5 L 0.45499 0.494999 L 0.459991 0.494999 L 0.459991 0.484997 L 0.45499 0.484997 L 0.45499 0.489998 L 0.449989 0.489998 L 0.449989 0.484997 L 0.444988 0.484997 L 0.444988 0.494999 L 0.449989 0.494999 L 0.449989 0.5 L 0.439987 0.5 L 0.439987 0.494999 L 0.434986 0.494999 L 0.434986 0.5 L 0.424984 0.5 L 0.424984 0.494999 L 0.429985 0.494999 L 0.429985 0.489998 L 0.424984 0.489998 L 0.424984 0.484997 L 0.434986 0.484997 L 0.434986 0.489998 L 0.439987 0.489998 L 0.439987 0.474995 L 0.434986 0.474995 L 0.434986 0.479996 L 0.424984 0.479996 L 0.424984 0.474995 L 0.429985 0.474995 L 0.429985 0.469994 L 0.424984 0.469994 L 0.424984 0.464993 L 0.434986 0.464993 L 0.434986 0.469994 L 0.439987 0.469994 L 0.439987 0.464993 L 0.449989 0.464993 L 0.449989 0.469994 L 0.444988 0.469994 L 0.444988 0.479996 L 0.449989 0.479996 L 0.449989 0.474995 L 0.45499 0.474995 L 0.45499 0.479996 L 0.459991 0.479996 L 0.459991 0.469994 L 0.45499 0.469994 L 0.45499 0.464993 L 0.459991 0.464993 L 0.459991 0.459991 L 0.45499 0.459991 L 0.45499 0.45499 L 0.459991 0.45499 L 0.459991 0.444988 L 0.45499 0.444988 L 0.45499 0.449989 L 0.449989 0.449989 L 0.449989 0.444988 L 0.444988 0.444988 L 0.444988 0.45499 L 0.449989 0.45499 L 0.449989 0.459991 L 0.439987 0.459991 L 0.439987 0.45499 L 0.434986 0.45499 L 0.434986 0.459991 L 0.424984 0.459991 L 0.424984 0.45499 L 0.429985 0.45499 L 0.429985 0.449989 L 0.424984 0.449989 L 0.424984 0.444988 L 0.434986 0.444988 L 0.434986 0.449989 L 0.439987 0.449989 L 0.439987 0.434986 L 0.434986 0.434986 L 0.434986 0.439987 L 0.424984 0.439987 L 0.424984 0.434986 L 0.429985 0.434986 L 0.429985 0.429985 L 0.424984 0.429985 L 0.424984 0.424984 L 0.434986 0.424984 L 0.434986 0.429985 L 0.439987 0.429985 L 0.439987 0.424984 L 0.449989 0.424984 L 0.449989 0.429985 L 0.444988 0.429985 L 0.444988 0.439987 L 0.449989 0.439987 L 0.449989 0.434986 L 0.45499 0.434986 L 0.45499 0.439987 L 0.459991 0.439987 L 0.459991 0.429985 L 0.45499 0.429985 L 0.45499 0.424984 L 0.464993 0.424984 L 0.464993 0.429985 L 0.469994 0.429985 L 0.469994 0.424984 L 0.479996 0.424984 L 0.479996 0.429985 L 0.474995 0.429985 L 0.474995 0.434986 L 0.479996 0.434986 L 0.479996 0.439987 L 0.469994 0.439987 L 0.469994 0.434986 L 0.464993 0.434986 L 0.464993 0.444988 L 0.469994 0.444988 L 0.469994 0.449989 L 0.464993 0.449989 L 0.464993 0.459991 L 0.469994 0.459991 L 0.469994 0.45499 L 0.474995 0.45499 L 0.474995 0.459991 L 0.479996 0.459991 L 0.479996 0.449989 L 0.474995 0.449989 L 0.474995 0.444988 L 0.489998 0.444988 L 0.489998 0.449989 L 0.484997 0.449989 L 0.484997 0.459991 L 0.489998 0.459991 L 0.489998 0.45499 L 0.494999 0.45499 L 0.494999 0.459991 L 0.5 0.459991 L 0.5 0.449989 L 0.494999 0.449989 L 0.494999 0.444988 L 0.5 0.444988 L 0.5 0.434986 L 0.494999 0.434986 L 0.494999 0.439987 L 0.484997 0.439987 L 0.484997 0.434986 L 0.489998 0.434986 L 0.489998 0.429985 L 0.484997 0.429985 L 0.484997 0.424984 L 0.494999 0.424984 L 0.494999 0.429985 L 0.5 0.429985 L 0.5 0.419983 L 0.494999 0.419983 L 0.494999 0.414982 L 0.5 0.414982 L 0.5 0.40498 L 0.494999 0.40498 L 0.494999 0.409981 L 0.489998 0.409981 L 0.489998 0.40498 L 0.484997 0.40498 L 0.484997 0.414982 L 0.489998 0.414982 L 0.489998 0.419983 L 0.479996 0.419983 L 0.479996 0.414982 L 0.474995 0.414982 L 0.474995 0.419983 L 0.464993 0.419983 L 0.464993 0.414982 L 0.469994 0.414982 L 0.469994 0.409981 L 0.464993 0.409981 L 0.464993 0.40498 L 0.474995 0.40498 L 0.474995 0.409981 L 0.479996 0.409981 L 0.479996 0.394978 L 0.474995 0.394978 L 0.474995 0.399979 L 0.464993 0.399979 L 0.464993 0.394978 L 0.469994 0.394978 L 0.469994 0.389977 L 0.464993 0.389977 L 0.464993 0.384975 L 0.474995 0.384975 L 0.474995 0.389977 L 0.479996 0.389977 L 0.479996 0.384975 L 0.489998 0.384975 L 0.489998 0.389977 L 0.484997 0.389977 L 0.484997 0.399979 L 0.489998 0.399979 L 0.489998 0.394978 L 0.494999 0.394978 L 0.494999 0.399979 L 0.5 0.399979 L 0.5 0.389977 L 0.494999 0.389977 L 0.494999 0.384975 L 0.5 0.384975 L 0.5 0.374973 L 0.494999 0.374973 L 0.494999 0.379974 L 0.484997 0.379974 L 0.484997 0.374973 L 0.489998 0.374973 L 0.489998 0.369972 L 0.484997 0.369972 L 0.484997 0.364971 L 0.494999 0.364971 L 0.494999 0.369972 L 0.5 0.369972 L 0.5 0.35997 L 0.494999 0.35997 L 0.494999 0.354969 L 0.5 0.354969 L 0.5 0.344967 L 0.494999 0.344967 L 0.494999 0.349968 L 0.489998 0.349968 L 0.489998 0.344967 L 0.484997 0.344967 L 0.484997 0.354969 L 0.489998 0.354969 L 0.489998 0.35997 L 0.474995 0.35997 L 0.474995 0.354969 L 0.479996 0.354969 L 0.479996 0.344967 L 0.474995 0.344967 L 0.474995 0.349968 L 0.469994 0.349968 L 0.469994 0.344967 L 0.464993 0.344967 L 0.464993 0.354969 L 0.469994 0.354969 L 0.469994 0.35997 L 0.464993 0.35997 L 0.464993 0.369972 L 0.469994 0.369972 L 0.469994 0.364971 L 0.479996 0.364971 L 0.479996 0.369972 L 0.474995 0.369972 L 0.474995 0.374973 L 0.479996 0.374973 L 0.479996 0.379974 L 0.469994 0.379974 L 0.469994 0.374973 L 0.464993 0.374973 L 0.464993 0.379974 L 0.459991 0.379974 L 0.459991 0.374973 L 0.45499 0.374973 L 0.45499 0.379974 L 0.444988 0.379974 L 0.444988 0.374973 L 0.449989 0.374973 L 0.449989 0.369972 L 0.444988 0.369972 L 0.444988 0.364971 L 0.45499 0.364971 L 0.45499 0.369972 L 0.459991 0.369972 L 0.459991 0.35997 L 0.45499 0.35997 L 0.45499 0.354969 L 0.459991 0.354969 L 0.459991 0.344967 L 0.45499 0.344967 L 0.45499 0.349968 L 0.449989 0.349968 L 0.449989 0.344967 L 0.444988 0.344967 L 0.444988 0.354969 L 0.449989 0.354969 L 0.449989 0.35997 L 0.434986 0.35997 L 0.434986 0.354969 L 0.439987 0.354969 L 0.439987 0.344967 L 0.434986 0.344967 L 0.434986 0.349968 L 0.429985 0.349968 L 0.429985 0.344967 L 0.424984 0.344967 L 0.424984 0.354969 L 0.429985 0.354969 L 0.429985 0.35997 L 0.424984 0.35997 L 0.424984 0.369972 L 0.429985 0.369972 L 0.429985 0.364971 L 0.439987 0.364971 L 0.439987 0.369972 L 0.434986 0.369972 L 0.434986 0.374973 L 0.439987 0.374973 L 0.439987 0.379974 L 0.429985 0.379974 L 0.429985 0.374973 L 0.424984 0.374973 L 0.424984 0.384975 L 0.429985 0.384975 L 0.429985 0.389977 L 0.424984 0.389977 L 0.424984 0.399979 L 0.429985 0.399979 L 0.429985 0.394978 L 0.434986 0.394978 L 0.434986 0.399979 L 0.439987 0.399979 L 0.439987 0.389977 L 0.434986 0.389977 L 0.434986 0.384975 L 0.444988 0.384975 L 0.444988 0.389977 L 0.449989 0.389977 L 0.449989 0.384975 L 0.459991 0.384975 L 0.459991 0.389977 L 0.45499 0.389977 L 0.45499 0.394978 L 0.459991 0.394978 L 0.459991 0.399979 L 0.449989 0.399979 L 0.449989 0.394978 L 0.444988 0.394978 L 0.444988 0.409981 L 0.449989 0.409981 L 0.449989 0.40498 L 0.459991 0.40498 L 0.459991 0.409981 L 0.45499 0.409981 L 0.45499 0.414982 L 0.459991 0.414982 L 0.459991 0.419983 L 0.449989 0.419983 L 0.449989 0.414982 L 0.444988 0.414982 L 0.444988 0.419983 L 0.434986 0.419983 L 0.434986 0.414982 L 0.439987 0.414982 L 0.439987 0.40498 L 0.434986 0.40498 L 0.434986 0.409981 L 0.429985 0.409981 L 0.429985 0.40498 L 0.424984 0.40498 L 0.424984 0.414982 L 0.429985 0.414982 L 0.429985 0.419983 L 0.414982 0.419983 L 0.414982 0.414982 L 0.419983 0.414982 L 0.419983 0.40498 L 0.414982 0.40498 L 0.414982 0.409981 L 0.409981 0.409981 L 0.409981 0.40498 L 0.40498 0.40498 L 0.40498 0.414982 L 0.409981 0.414982 L 0.409981 0.419983 L 0.399979 0.419983 L 0.399979 0.414982 L 0.394978 0.414982 L 0.394978 0.419983 L 0.384975 0.419983 L 0.384975 0.414982 L 0.389977 0.414982 L 0.389977 0.409981 L 0.384975 0.409981 L 0.384975 0.40498 L 0.394978 0.40498 L 0.394978 0.409981 L 0.399979 0.409981 L 0.399979 0.394978 L 0.394978 0.394978 L 0.394978 0.399979 L 0.384975 0.399979 L 0.384975 0.394978 L 0.389977 0.394978 L 0.389977 0.389977 L 0.384975 0.389977 L 0.384975 0.384975 L 0.394978 0.384975 L 0.394978 0.389977 L 0.399979 0.389977 L 0.399979 0.384975 L 0.409981 0.384975 L 0.409981 0.389977 L 0.40498 0.389977 L 0.40498 0.399979 L 0.409981 0.399979 L 0.409981 0.394978 L 0.414982 0.394978 L 0.414982 0.399979 L 0.419983 0.399979 L 0.419983 0.389977 L 0.414982 0.389977 L 0.414982 0.384975 L 0.419983 0.384975 L 0.419983 0.374973 L 0.414982 0.374973 L 0.414982 0.379974 L 0.40498 0.379974 L 0.40498 0.374973 L 0.409981 0.374973 L 0.409981 0.369972 L 0.40498 0.369972 L 0.40498 0.364971 L 0.414982 0.364971 L 0.414982 0.369972 L 0.419983 0.369972 L 0.419983 0.35997 L 0.414982 0.35997 L 0.414982 0.354969 L 0.419983 0.354969 L 0.419983 0.344967 L 0.414982 0.344967 L 0.414982 0.349968 L 0.409981 0.349968 L 0.409981 0.344967 L 0.40498 0.344967 L 0.40498 0.354969 L 0.409981 0.354969 L 0.409981 0.35997 L 0.394978 0.35997 L 0.394978 0.354969 L 0.399979 0.354969 L 0.399979 0.344967 L 0.394978 0.344967 L 0.394978 0.349968 L 0.389977 0.349968 L 0.389977 0.344967 L 0.384975 0.344967 L 0.384975 0.354969 L 0.389977 0.354969 L 0.389977 0.35997 L 0.384975 0.35997 L 0.384975 0.369972 L 0.389977 0.369972 L 0.389977 0.364971 L 0.399979 0.364971 L 0.399979 0.369972 L 0.394978 0.369972 L 0.394978 0.374973 L 0.399979 0.374973 L 0.399979 0.379974 L 0.389977 0.379974 L 0.389977 0.374973 L 0.384975 0.374973 L 0.384975 0.379974 L 0.379974 0.379974 L 0.379974 0.374973 L 0.374973 0.374973 L 0.374973 0.379974 L 0.364971 0.379974 L 0.364971 0.374973 L 0.369972 0.374973 L 0.369972 0.369972 L 0.364971 0.369972 L 0.364971 0.364971 L 0.374973 0.364971 L 0.374973 0.369972 L 0.379974 0.369972 L 0.379974 0.35997 L 0.374973 0.35997 L 0.374973 0.354969 L 0.379974 0.354969 L 0.379974 0.344967 L 0.374973 0.344967 L 0.374973 0.349968 L 0.369972 0.349968 L 0.369972 0.344967 L 0.364971 0.344967 L 0.364971 0.354969 L 0.369972 0.354969 L 0.369972 0.35997 L 0.354969 0.35997 L 0.354969 0.354969 L 0.35997 0.354969 L 0.35997 0.344967 L 0.354969 0.344967 L 0.354969 0.349968 L 0.349968 0.349968 L 0.349968 0.344967 L 0.344967 0.344967 L 0.344967 0.354969 L 0.349968 0.354969 L 0.349968 0.35997 L 0.344967 0.35997 L 0.344967 0.369972 L 0.349968 0.369972 L 0.349968 0.364971 L 0.35997 0.364971 L 0.35997 0.369972 L 0.354969 0.369972 L 0.354969 0.374973 L 0.35997 0.374973 L 0.35997 0.379974 L 0.349968 0.379974 L 0.349968 0.374973 L 0.344967 0.374973 L 0.344967 0.384975 L 0.349968 0.384975 L 0.349968 0.389977 L 0.344967 0.389977 L 0.344967 0.399979 L 0.349968 0.399979 L 0.349968 0.394978 L 0.354969 0.394978 L 0.354969 0.399979 L 0.35997 0.399979 L 0.35997 0.389977 L 0.354969 0.389977 L 0.354969 0.384975 L 0.364971 0.384975 L 0.364971 0.389977 L 0.369972 0.389977 L 0.369972 0.384975 L 0.379974 0.384975 L 0.379974 0.389977 L 0.374973 0.389977 L 0.374973 0.394978 L 0.379974 0.394978 L 0.379974 0.399979 L 0.369972 0.399979 L 0.369972 0.394978 L 0.364971 0.394978 L 0.364971 0.409981 L 0.369972 0.409981 L 0.369972 0.40498 L 0.379974 0.40498 L 0.379974 0.409981 L 0.374973 0.409981 L 0.374973 0.414982 L 0.379974 0.414982 L 0.379974 0.419983 L 0.369972 0.419983 L 0.369972 0.414982 L 0.364971 0.414982 L 0.364971 0.419983 L 0.354969 0.419983 L 0.354969 0.414982 L 0.35997 0.414982 L 0.35997 0.40498 L 0.354969 0.40498 L 0.354969 0.409981 L 0.349968 0.409981 L 0.349968 0.40498 L 0.344967 0.40498 L 0.344967 0.414982 L 0.349968 0.414982 L 0.349968 0.419983 L 0.344967 0.419983 L 0.344967 0.429985 L 0.349968 0.429985 L 0.349968 0.424984 L 0.35997 0.424984 L 0.35997 0.429985 L 0.354969 0.429985 L 0.354969 0.434986 L 0.35997 0.434986 L 0.35997 0.439987 L 0.349968 0.439987 L 0.349968 0.434986 L 0.344967 0.434986 L 0.344967 0.444988 L 0.349968 0.444988 L 0.349968 0.449989 L 0.344967 0.449989 L 0.344967 0.459991 L 0.349968 0.459991 L 0.349968 0.45499 L 0.354969 0.45499 L 0.354969 0.459991 L 0.35997 0.459991 L 0.35997 0.449989 L 0.354969 0.449989 L 0.354969 0.444988 L 0.369972 0.444988 L 0.369972 0.449989 L 0.364971 0.449989 L 0.364971 0.459991 L 0.369972 0.459991 L 0.369972 0.45499 L 0.374973 0.45499 L 0.374973 0.459991 L 0.379974 0.459991 L 0.379974 0.449989 L 0.374973 0.449989 L 0.374973 0.444988 L 0.379974 0.444988 L 0.379974 0.434986 L 0.374973 0.434986 L 0.374973 0.439987 L 0.364971 0.439987 L 0.364971 0.434986 L 0.369972 0.434986 L 0.369972 0.429985 L 0.364971 0.429985 L 0.364971 0.424984 L 0.374973 0.424984 L 0.374973 0.429985 L 0.379974 0.429985 L 0.379974 0.424984 L 0.389977 0.424984 L 0.389977 0.429985 L 0.384975 0.429985 L 0.384975 0.439987 L 0.389977 0.439987 L 0.389977 0.434986 L 0.394978 0.434986 L 0.394978 0.439987 L 0.399979 0.439987 L 0.399979 0.429985 L 0.394978 0.429985 L 0.394978 0.424984 L 0.40498 0.424984 L 0.40498 0.429985 L 0.409981 0.429985 L 0.409981 0.424984 L 0.419983 0.424984 L 0.419983 0.429985 L 0.414982 0.429985 L 0.414982 0.434986 L 0.419983 0.434986 L 0.419983 0.439987 L 0.409981 0.439987 L 0.409981 0.434986 L 0.40498 0.434986 L 0.40498 0.449989 L 0.409981 0.449989 L 0.409981 0.444988 L 0.419983 0.444988 L 0.419983 0.449989 L 0.414982 0.449989 L 0.414982 0.45499 L 0.419983 0.45499 L 0.419983 0.459991 L 0.409981 0.459991 L 0.409981 0.45499 L 0.40498 0.45499 L 0.40498 0.459991 L 0.394978 0.459991 L 0.394978 0.45499 L 0.399979 0.45499 L 0.399979 0.444988 L 0.394978 0.444988 L 0.394978 0.449989 L 0.389977 0.449989 L 0.389977 0.444988 L 0.384975 0.444988 L 0.384975 0.45499 L 0.389977 0.45499 L 0.389977 0.459991 L 0.384975 0.459991 L 0.384975 0.464993 L 0.389977 0.464993 L 0.389977 0.469994 L 0.384975 0.469994 L 0.384975 0.479996 L 0.389977 0.479996 L 0.389977 0.474995 L 0.394978 0.474995 L 0.394978 0.479996 L 0.399979 0.479996 L 0.399979 0.469994 L 0.394978 0.469994 L 0.394978 0.464993 L 0.40498 0.464993 L 0.40498 0.469994 L 0.409981 0.469994 L 0.409981 0.464993 L 0.419983 0.464993 L 0.419983 0.469994 L 0.414982 0.469994 L 0.414982 0.474995 L 0.419983 0.474995 L 0.419983 0.479996 L 0.409981 0.479996 L 0.409981 0.474995 L 0.40498 0.474995 L 0.40498 0.489998 L 0.409981 0.489998 L 0.409981 0.484997 L 0.419983 0.484997 L 0.419983 0.489998 L 0.414982 0.489998 L 0.414982 0.494999 L 0.419983 0.494999 L 0.419983 0.5 L 0.409981 0.5 L 0.409981 0.494999 L 0.40498 0.494999 L 0.40498 0.5 L 0.394978 0.5 L 0.394978 0.494999 L 0.399979 0.494999 L 0.399979 0.484997 L 0.394978 0.484997 L 0.394978 0.489998 L 0.389977 0.489998 L 0.389977 0.484997 L 0.384975 0.484997 L 0.384975 0.494999 L 0.389977 0.494999 L 0.389977 0.5 L 0.379974 0.5 L 0.379974 0.494999 L 0.374973 0.494999 L 0.374973 0.5 L 0.364971 0.5 L 0.364971 0.494999 L 0.369972 0.494999 L 0.369972 0.489998 L 0.364971 0.489998 L 0.364971 0.484997 L 0.374973 0.484997 L 0.374973 0.489998 L 0.379974 0.489998 L 0.379974 0.479996 L 0.374973 0.479996 L 0.374973 0.474995 L 0.379974 0.474995 L 0.379974 0.464993 L 0.374973 0.464993 L 0.374973 0.469994 L 0.369972 0.469994 L 0.369972 0.464993 L 0.364971 0.464993 L 0.364971 0.474995 L 0.369972 0.474995 L 0.369972 0.479996 L 0.354969 0.479996 L 0.354969 0.474995 L 0.35997 0.474995 L 0.35997 0.464993 L 0.354969 0.464993 L 0.354969 0.469994 L 0.349968 0.469994 L 0.349968 0.464993 L 0.344967 0.464993 L 0.344967 0.474995 L 0.349968 0.474995 L 0.349968 0.479996 L 0.344967 0.479996 L 0.344967 0.489998 L 0.349968 0.489998 L 0.349968 0.484997 L 0.35997 0.484997 L 0.35997 0.489998 L 0.354969 0.489998 L 0.354969 0.494999 L 0.35997 0.494999 L 0.35997 0.5 L 0.349968 0.5 L 0.349968 0.494999 L 0.344967 0.494999 L 0.344967 0.5 L 0.334965 0.5 L 0.334965 0.494999 L 0.339966 0.494999 L 0.339966 0.484997 L 0.334965 0.484997 L 0.334965 0.489998 L 0.329964 0.489998 L 0.329964 0.484997 L 0.324963 0.484997 L 0.324963 0.494999 L 0.329964 0.494999 L 0.329964 0.5 L 0.319962 0.5 L 0.319962 0.494999 L 0.31496 0.494999 L 0.31496 0.5 L 0.304958 0.5 L 0.304958 0.494999 L 0.309959 0.494999 L 0.309959 0.489998 L 0.304958 0.489998 L 0.304958 0.484997 L 0.31496 0.484997 L 0.31496 0.489998 L 0.319962 0.489998 L 0.319962 0.474995 L 0.31496 0.474995 L 0.31496 0.479996 L 0.304958 0.479996 L 0.304958 0.474995 L 0.309959 0.474995 L 0.309959 0.469994 L 0.304958 0.469994 L 0.304958 0.464993 L 0.31496 0.464993 L 0.31496 0.469994 L 0.319962 0.469994 L 0.319962 0.464993 L 0.329964 0.464993 L 0.329964 0.469994 L 0.324963 0.469994 L 0.324963 0.479996 L 0.329964 0.479996 L 0.329964 0.474995 L 0.334965 0.474995 L 0.334965 0.479996 L 0.339966 0.479996 L 0.339966 0.469994 L 0.334965 0.469994 L 0.334965 0.464993 L 0.339966 0.464993 L 0.339966 0.45499 L 0.334965 0.45499 L 0.334965 0.459991 L 0.324963 0.459991 L 0.324963 0.45499 L 0.329964 0.45499 L 0.329964 0.449989 L 0.324963 0.449989 L 0.324963 0.444988 L 0.334965 0.444988 L 0.334965 0.449989 L 0.339966 0.449989 L 0.339966 0.439987 L 0.334965 0.439987 L 0.334965 0.434986 L 0.339966 0.434986 L 0.339966 0.424984 L 0.334965 0.424984 L 0.334965 0.429985 L 0.329964 0.429985 L 0.329964 0.424984 L 0.324963 0.424984 L 0.324963 0.434986 L 0.329964 0.434986 L 0.329964 0.439987 L 0.31496 0.439987 L 0.31496 0.434986 L 0.319962 0.434986 L 0.319962 0.424984 L 0.31496 0.424984 L 0.31496 0.429985 L 0.309959 0.429985 L 0.309959 0.424984 L 0.304958 0.424984 L 0.304958 0.434986 L 0.309959 0.434986 L 0.309959 0.439987 L 0.304958 0.439987 L 0.304958 0.449989 L 0.309959 0.449989 L 0.309959 0.444988 L 0.319962 0.444988 L 0.319962 0.449989 L 0.31496 0.449989 L 0.31496 0.45499 L 0.319962 0.45499 L 0.319962 0.459991 L 0.309959 0.459991 L 0.309959 0.45499 L 0.304958 0.45499 L 0.304958 0.459991 L 0.299957 0.459991 L 0.299957 0.45499 L 0.294956 0.45499 L 0.294956 0.459991 L 0.284954 0.459991 L 0.284954 0.45499 L 0.289955 0.45499 L 0.289955 0.449989 L 0.284954 0.449989 L 0.284954 0.444988 L 0.294956 0.444988 L 0.294956 0.449989 L 0.299957 0.449989 L 0.299957 0.439987 L 0.294956 0.439987 L 0.294956 0.434986 L 0.299957 0.434986 L 0.299957 0.424984 L 0.294956 0.424984 L 0.294956 0.429985 L 0.289955 0.429985 L 0.289955 0.424984 L 0.284954 0.424984 L 0.284954 0.434986 L 0.289955 0.434986 L 0.289955 0.439987 L 0.274952 0.439987 L 0.274952 0.434986 L 0.279953 0.434986 L 0.279953 0.424984 L 0.274952 0.424984 L 0.274952 0.429985 L 0.269951 0.429985 L 0.269951 0.424984 L 0.26495 0.424984 L 0.26495 0.434986 L 0.269951 0.434986 L 0.269951 0.439987 L 0.26495 0.439987 L 0.26495 0.449989 L 0.269951 0.449989 L 0.269951 0.444988 L 0.279953 0.444988 L 0.279953 0.449989 L 0.274952 0.449989 L 0.274952 0.45499 L 0.279953 0.45499 L 0.279953 0.459991 L 0.269951 0.459991 L 0.269951 0.45499 L 0.26495 0.45499 L 0.26495 0.464993 L 0.269951 0.464993 L 0.269951 0.469994 L 0.26495 0.469994 L 0.26495 0.479996 L 0.269951 0.479996 L 0.269951 0.474995 L 0.274952 0.474995 L 0.274952 0.479996 L 0.279953 0.479996 L 0.279953 0.469994 L 0.274952 0.469994 L 0.274952 0.464993 L 0.284954 0.464993 L 0.284954 0.469994 L 0.289955 0.469994 L 0.289955 0.464993 L 0.299957 0.464993 L 0.299957 0.469994 L 0.294956 0.469994 L 0.294956 0.474995 L 0.299957 0.474995 L 0.299957 0.479996 L 0.289955 0.479996 L 0.289955 0.474995 L 0.284954 0.474995 L 0.284954 0.489998 L 0.289955 0.489998 L 0.289955 0.484997 L 0.299957 0.484997 L 0.299957 0.489998 L 0.294956 0.489998 L 0.294956 0.494999 L 0.299957 0.494999 L 0.299957 0.5 L 0.289955 0.5 L 0.289955 0.494999 L 0.284954 0.494999 L 0.284954 0.5 L 0.274952 0.5 L 0.274952 0.494999 L 0.279953 0.494999 L 0.279953 0.484997 L 0.274952 0.484997 L 0.274952 0.489998 L 0.269951 0.489998 L 0.269951 0.484997 L 0.26495 0.484997 L 0.26495 0.494999 L 0.269951 0.494999 L 0.269951 0.5 L 0.259949 0.5 L 0.259949 0.494999 L 0.254948 0.494999 L 0.254948 0.5 L 0.244946 0.5 L 0.244946 0.494999 L 0.249947 0.494999 L 0.249947 0.489998 L 0.244946 0.489998 L 0.244946 0.484997 L 0.254948 0.484997 L 0.254948 0.489998 L 0.259949 0.489998 L 0.259949 0.479996 L 0.254948 0.479996 L 0.254948 0.474995 L 0.259949 0.474995 L 0.259949 0.464993 L 0.254948 0.464993 L 0.254948 0.469994 L 0.249947 0.469994 L 0.249947 0.464993 L 0.244946 0.464993 L 0.244946 0.474995 L 0.249947 0.474995 L 0.249947 0.479996 L 0.234943 0.479996 L 0.234943 0.474995 L 0.239944 0.474995 L 0.239944 0.464993 L 0.234943 0.464993 L 0.234943 0.469994 L 0.229942 0.469994 L 0.229942 0.464993 L 0.224941 0.464993 L 0.224941 0.474995 L 0.229942 0.474995 L 0.229942 0.479996 L 0.224941 0.479996 L 0.224941 0.489998 L 0.229942 0.489998 L 0.229942 0.484997 L 0.239944 0.484997 L 0.239944 0.489998 L 0.234943 0.489998 L 0.234943 0.494999 L 0.239944 0.494999 L 0.239944 0.5 L 0.229942 0.5 L 0.229942 0.494999 L 0.224941 0.494999 L 0.224941 0.5 L 0.214939 0.5 L 0.214939 0.494999 L 0.21994 0.494999 L 0.21994 0.484997 L 0.214939 0.484997 L 0.214939 0.489998 L 0.209938 0.489998 L 0.209938 0.484997 L 0.204937 0.484997 L 0.204937 0.494999 L 0.209938 0.494999 L 0.209938 0.5 L 0.199936 0.5 L 0.199936 0.494999 L 0.194935 0.494999 L 0.194935 0.5 L 0.184933 0.5 L 0.184933 0.494999 L 0.189934 0.494999 L 0.189934 0.489998 L 0.184933 0.489998 L 0.184933 0.484997 L 0.194935 0.484997 L 0.194935 0.489998 L 0.199936 0.489998 L 0.199936 0.474995 L 0.194935 0.474995 L 0.194935 0.479996 L 0.184933 0.479996 L 0.184933 0.474995 L 0.189934 0.474995 L 0.189934 0.469994 L 0.184933 0.469994 L 0.184933 0.464993 L 0.194935 0.464993 L 0.194935 0.469994 L 0.199936 0.469994 L 0.199936 0.464993 L 0.209938 0.464993 L 0.209938 0.469994 L 0.204937 0.469994 L 0.204937 0.479996 L 0.209938 0.479996 L 0.209938 0.474995 L 0.214939 0.474995 L 0.214939 0.479996 L 0.21994 0.479996 L 0.21994 0.469994 L 0.214939 0.469994 L 0.214939 0.464993 L 0.21994 0.464993 L 0.21994 0.459991 L 0.214939 0.459991 L 0.214939 0.45499 L 0.21994 0.45499 L 0.21994 0.444988 L 0.214939 0.444988 L 0.214939 0.449989 L 0.209938 0.449989 L 0.209938 0.444988 L 0.204937 0.444988 L 0.204937 0.45499 L 0.209938 0.45499 L 0.209938 0.459991 L 0.199936 0.459991 L 0.199936 0.45499 L 0.194935 0.45499 L 0.194935 0.459991 L 0.184933 0.459991 L 0.184933 0.45499 L 0.189934 0.45499 L 0.189934 0.449989 L 0.184933 0.449989 L 0.184933 0.444988 L 0.194935 0.444988 L 0.194935 0.449989 L 0.199936 0.449989 L 0.199936 0.434986 L 0.194935 0.434986 L 0.194935 0.439987 L 0.184933 0.439987 L 0.184933 0.434986 L 0.189934 0.434986 L 0.189934 0.429985 L 0.184933 0.429985 L 0.184933 0.424984 L 0.194935 0.424984 L 0.194935 0.429985 L 0.199936 0.429985 L 0.199936 0.424984 L 0.209938 0.424984 L 0.209938 0.429985 L 0.204937 0.429985 L 0.204937 0.439987 L 0.209938 0.439987 L 0.209938 0.434986 L 0.214939 0.434986 L 0.214939 0.439987 L 0.21994 0.439987 L 0.21994 0.429985 L 0.214939 0.429985 L 0.214939 0.424984 L 0.224941 0.424984 L 0.224941 0.429985 L 0.229942 0.429985 L 0.229942 0.424984 L 0.239944 0.424984 L 0.239944 0.429985 L 0.234943 0.429985 L 0.234943 0.434986 L 0.239944 0.434986 L 0.239944 0.439987 L 0.229942 0.439987 L 0.229942 0.434986 L 0.224941 0.434986 L 0.224941 0.444988 L 0.229942 0.444988 L 0.229942 0.449989 L 0.224941 0.449989 L 0.224941 0.459991 L 0.229942 0.459991 L 0.229942 0.45499 L 0.234943 0.45499 L 0.234943 0.459991 L 0.239944 0.459991 L 0.239944 0.449989 L 0.234943 0.449989 L 0.234943 0.444988 L 0.249947 0.444988 L 0.249947 0.449989 L 0.244946 0.449989 L 0.244946 0.459991 L 0.249947 0.459991 L 0.249947 0.45499 L 0.254948 0.45499 L 0.254948 0.459991 L 0.259949 0.459991 L 0.259949 0.449989 L 0.254948 0.449989 L 0.254948 0.444988 L 0.259949 0.444988 L 0.259949 0.434986 L 0.254948 0.434986 L 0.254948 0.439987 L 0.244946 0.439987 L 0.244946 0.434986 L 0.249947 0.434986 L 0.249947 0.429985 L 0.244946 0.429985 L 0.244946 0.424984 L 0.254948 0.424984 L 0.254948 0.429985 L 0.259949 0.429985 L 0.259949 0.414982 L 0.254948 0.414982 L 0.254948 0.419983 L 0.244946 0.419983 L 0.244946 0.414982 L 0.249947 0.414982 L 0.249947 0.409981 L 0.244946 0.409981 L 0.244946 0.40498 L 0.254948 0.40498 L 0.254948 0.409981 L 0.259949 0.409981 L 0.259949 0.399979 L 0.254948 0.399979 L 0.254948 0.394978 L 0.259949 0.394978 L 0.259949 0.384975 L 0.254948 0.384975 L 0.254948 0.389977 L 0.249947 0.389977 L 0.249947 0.384975 L 0.244946 0.384975 L 0.244946 0.394978 L 0.249947 0.394978 L 0.249947 0.399979 L 0.234943 0.399979 L 0.234943 0.394978 L 0.239944 0.394978 L 0.239944 0.384975 L 0.234943 0.384975 L 0.234943 0.389977 L 0.229942 0.389977 L 0.229942 0.384975 L 0.224941 0.384975 L 0.224941 0.394978 L 0.229942 0.394978 L 0.229942 0.399979 L 0.224941 0.399979 L 0.224941 0.409981 L 0.229942 0.409981 L 0.229942 0.40498 L 0.239944 0.40498 L 0.239944 0.409981 L 0.234943 0.409981 L 0.234943 0.414982 L 0.239944 0.414982 L 0.239944 0.419983 L 0.229942 0.419983 L 0.229942 0.414982 L 0.224941 0.414982 L 0.224941 0.419983 L 0.214939 0.419983 L 0.214939 0.414982 L 0.21994 0.414982 L 0.21994 0.40498 L 0.214939 0.40498 L 0.214939 0.409981 L 0.209938 0.409981 L 0.209938 0.40498 L 0.204937 0.40498 L 0.204937 0.414982 L 0.209938 0.414982 L 0.209938 0.419983 L 0.199936 0.419983 L 0.199936 0.414982 L 0.194935 0.414982 L 0.194935 0.419983 L 0.184933 0.419983 L 0.184933 0.414982 L 0.189934 0.414982 L 0.189934 0.409981 L 0.184933 0.409981 L 0.184933 0.40498 L 0.194935 0.40498 L 0.194935 0.409981 L 0.199936 0.409981 L 0.199936 0.394978 L 0.194935 0.394978 L 0.194935 0.399979 L 0.184933 0.399979 L 0.184933 0.394978 L 0.189934 0.394978 L 0.189934 0.389977 L 0.184933 0.389977 L 0.184933 0.384975 L 0.194935 0.384975 L 0.194935 0.389977 L 0.199936 0.389977 L 0.199936 0.384975 L 0.209938 0.384975 L 0.209938 0.389977 L 0.204937 0.389977 L 0.204937 0.399979 L 0.209938 0.399979 L 0.209938 0.394978 L 0.214939 0.394978 L 0.214939 0.399979 L 0.21994 0.399979 L 0.21994 0.389977 L 0.214939 0.389977 L 0.214939 0.384975 L 0.21994 0.384975 L 0.21994 0.379974 L 0.214939 0.379974 L 0.214939 0.374973 L 0.21994 0.374973 L 0.21994 0.364971 L 0.214939 0.364971 L 0.214939 0.369972 L 0.209938 0.369972 L 0.209938 0.364971 L 0.204937 0.364971 L 0.204937 0.374973 L 0.209938 0.374973 L 0.209938 0.379974 L 0.199936 0.379974 L 0.199936 0.374973 L 0.194935 0.374973 L 0.194935 0.379974 L 0.184933 0.379974 L 0.184933 0.374973 L 0.189934 0.374973 L 0.189934 0.369972 L 0.184933 0.369972 L 0.184933 0.364971 L 0.194935 0.364971 L 0.194935 0.369972 L 0.199936 0.369972 L 0.199936 0.354969 L 0.194935 0.354969 L 0.194935 0.35997 L 0.184933 0.35997 L 0.184933 0.354969 L 0.189934 0.354969 L 0.189934 0.349968 L 0.184933 0.349968 L 0.184933 0.344967 L 0.194935 0.344967 L 0.194935 0.349968 L 0.199936 0.349968 L 0.199936 0.344967 L 0.209938 0.344967 L 0.209938 0.349968 L 0.204937 0.349968 L 0.204937 0.35997 L 0.209938 0.35997 L 0.209938 0.354969 L 0.214939 0.354969 L 0.214939 0.35997 L 0.21994 0.35997 L 0.21994 0.349968 L 0.214939 0.349968 L 0.214939 0.344967 L 0.224941 0.344967 L 0.224941 0.349968 L 0.229942 0.349968 L 0.229942 0.344967 L 0.239944 0.344967 L 0.239944 0.349968 L 0.234943 0.349968 L 0.234943 0.354969 L 0.239944 0.354969 L 0.239944 0.35997 L 0.229942 0.35997 L 0.229942 0.354969 L 0.224941 0.354969 L 0.224941 0.364971 L 0.229942 0.364971 L 0.229942 0.369972 L 0.224941 0.369972 L 0.224941 0.379974 L 0.229942 0.379974 L 0.229942 0.374973 L 0.234943 0.374973 L 0.234943 0.379974 L 0.239944 0.379974 L 0.239944 0.369972 L 0.234943 0.369972 L 0.234943 0.364971 L 0.249947 0.364971 L 0.249947 0.369972 L 0.244946 0.369972 L 0.244946 0.379974 L 0.249947 0.379974 L 0.249947 0.374973 L 0.254948 0.374973 L 0.254948 0.379974 L 0.259949 0.379974 L 0.259949 0.369972 L 0.254948 0.369972 L 0.254948 0.364971 L 0.259949 0.364971 L 0.259949 0.354969 L 0.254948 0.354969 L 0.254948 0.35997 L 0.244946 0.35997 L 0.244946 0.354969 L 0.249947 0.354969 L 0.249947 0.349968 L 0.244946 0.349968 L 0.244946 0.344967 L 0.254948 0.344967 L 0.254948 0.349968 L 0.259949 0.349968 L 0.259949 0.344967 L 0.269951 0.344967 L 0.269951 0.349968 L 0.26495 0.349968 L 0.26495 0.35997 L 0.269951 0.35997 L 0.269951 0.354969 L 0.274952 0.354969 L 0.274952 0.35997 L 0.279953 0.35997 L 0.279953 0.349968 L 0.274952 0.349968 L 0.274952 0.344967 L 0.284954 0.344967 L 0.284954 0.349968 L 0.289955 0.349968 L 0.289955 0.344967 L 0.299957 0.344967 L 0.299957 0.349968 L 0.294956 0.349968 L 0.294956 0.354969 L 0.299957 0.354969 L 0.299957 0.35997 L 0.289955 0.35997 L 0.289955 0.354969 L 0.284954 0.354969 L 0.284954 0.369972 L 0.289955 0.369972 L 0.289955 0.364971 L 0.299957 0.364971 L 0.299957 0.369972 L 0.294956 0.369972 L 0.294956 0.374973 L 0.299957 0.374973 L 0.299957 0.379974 L 0.289955 0.379974 L 0.289955 0.374973 L 0.284954 0.374973 L 0.284954 0.379974 L 0.274952 0.379974 L 0.274952 0.374973 L 0.279953 0.374973 L 0.279953 0.364971 L 0.274952 0.364971 L 0.274952 0.369972 L 0.269951 0.369972 L 0.269951 0.364971 L 0.26495 0.364971 L 0.26495 0.374973 L 0.269951 0.374973 L 0.269951 0.379974 L 0.26495 0.379974 L 0.26495 0.389977 L 0.269951 0.389977 L 0.269951 0.384975 L 0.279953 0.384975 L 0.279953 0.389977 L 0.274952 0.389977 L 0.274952 0.394978 L 0.279953 0.394978 L 0.279953 0.399979 L 0.269951 0.399979 L 0.269951 0.394978 L 0.26495 0.394978 L 0.26495 0.40498 L 0.269951 0.40498 L 0.269951 0.409981 L 0.26495 0.409981 L 0.26495 0.419983 L 0.269951 0.419983 L 0.269951 0.414982 L 0.274952 0.414982 L 0.274952 0.419983 L 0.279953 0.419983 L 0.279953 0.409981 L 0.274952 0.409981 L 0.274952 0.40498 L 0.289955 0.40498 L 0.289955 0.409981 L 0.284954 0.409981 L 0.284954 0.419983 L 0.289955 0.419983 L 0.289955 0.414982 L 0.294956 0.414982 L 0.294956 0.419983 L 0.299957 0.419983 L 0.299957 0.409981 L 0.294956 0.409981 L 0.294956 0.40498 L 0.299957 0.40498 L 0.299957 0.394978 L 0.294956 0.394978 L 0.294956 0.399979 L 0.284954 0.399979 L 0.284954 0.394978 L 0.289955 0.394978 L 0.289955 0.389977 L 0.284954 0.389977 L 0.284954 0.384975 L 0.294956 0.384975 L 0.294956 0.389977 L 0.299957 0.389977 L 0.299957 0.384975 L 0.304958 0.384975 L 0.304958 0.389977 L 0.309959 0.389977 L 0.309959 0.384975 L 0.319962 0.384975 L 0.319962 0.389977 L 0.31496 0.389977 L 0.31496 0.394978 L 0.319962 0.394978 L 0.319962 0.399979 L 0.309959 0.399979 L 0.309959 0.394978 L 0.304958 0.394978 L 0.304958 0.40498 L 0.309959 0.40498 L 0.309959 0.409981 L 0.304958 0.409981 L 0.304958 0.419983 L 0.309959 0.419983 L 0.309959 0.414982 L 0.31496 0.414982 L 0.31496 0.419983 L 0.319962 0.419983 L 0.319962 0.409981 L 0.31496 0.409981 L 0.31496 0.40498 L 0.329964 0.40498 L 0.329964 0.409981 L 0.324963 0.409981 L 0.324963 0.419983 L 0.329964 0.419983 L 0.329964 0.414982 L 0.334965 0.414982 L 0.334965 0.419983 L 0.339966 0.419983 L 0.339966 0.409981 L 0.334965 0.409981 L 0.334965 0.40498 L 0.339966 0.40498 L 0.339966 0.394978 L 0.334965 0.394978 L 0.334965 0.399979 L 0.324963 0.399979 L 0.324963 0.394978 L 0.329964 0.394978 L 0.329964 0.389977 L 0.324963 0.389977 L 0.324963 0.384975 L 0.334965 0.384975 L 0.334965 0.389977 L 0.339966 0.389977 L 0.339966 0.379974 L 0.334965 0.379974 L 0.334965 0.374973 L 0.339966 0.374973 L 0.339966 0.364971 L 0.334965 0.364971 L 0.334965 0.369972 L 0.329964 0.369972 L 0.329964 0.364971 L 0.324963 0.364971 L 0.324963 0.374973 L 0.329964 0.374973 L 0.329964 0.379974 L 0.319962 0.379974 L 0.319962 0.374973 L 0.31496 0.374973 L 0.31496 0.379974 L 0.304958 0.379974 L 0.304958 0.374973 L 0.309959 0.374973 L 0.309959 0.369972 L 0.304958 0.369972 L 0.304958 0.364971 L 0.31496 0.364971 L 0.31496 0.369972 L 0.319962 0.369972 L 0.319962 0.354969 L 0.31496 0.354969 L 0.31496 0.35997 L 0.304958 0.35997 L 0.304958 0.354969 L 0.309959 0.354969 L 0.309959 0.349968 L 0.304958 0.349968 L 0.304958 0.344967 L 0.31496 0.344967 L 0.31496 0.349968 L 0.319962 0.349968 L 0.319962 0.344967 L 0.329964 0.344967 L 0.329964 0.349968 L 0.324963 0.349968 L 0.324963 0.35997 L 0.329964 0.35997 L 0.329964 0.354969 L 0.334965 0.354969 L 0.334965 0.35997 L 0.339966 0.35997 L 0.339966 0.349968 L 0.334965 0.349968 L 0.334965 0.344967 L 0.339966 0.344967 L 0.339966 0.339966 L 0.334965 0.339966 L 0.334965 0.334965 L 0.339966 0.334965 L 0.339966 0.324963 L 0.334965 0.324963 L 0.334965 0.329964 L 0.329964 0.329964 L 0.329964 0.324963 L 0.324963 0.324963 L 0.324963 0.334965 L 0.329964 0.334965 L 0.329964 0.339966 L 0.319962 0.339966 L 0.319962 0.334965 L 0.31496 0.334965 L 0.31496 0.339966 L 0.304958 0.339966 L 0.304958 0.334965 L 0.309959 0.334965 L 0.309959 0.329964 L 0.304958 0.329964 L 0.304958 0.324963 L 0.31496 0.324963 L 0.31496 0.329964 L 0.319962 0.329964 L 0.319962 0.31496 L 0.31496 0.31496 L 0.31496 0.319962 L 0.304958 0.319962 L 0.304958 0.31496 L 0.309959 0.31496 L 0.309959 0.309959 L 0.304958 0.309959 L 0.304958 0.304958 L 0.31496 0.304958 L 0.31496 0.309959 L 0.319962 0.309959 L 0.319962 0.304958 L 0.329964 0.304958 L 0.329964 0.309959 L 0.324963 0.309959 L 0.324963 0.319962 L 0.329964 0.319962 L 0.329964 0.31496 L 0.334965 0.31496 L 0.334965 0.319962 L 0.339966 0.319962 L 0.339966 0.309959 L 0.334965 0.309959 L 0.334965 0.304958 L 0.339966 0.304958 L 0.339966 0.294956 L 0.334965 0.294956 L 0.334965 0.299957 L 0.324963 0.299957 L 0.324963 0.294956 L 0.329964 0.294956 L 0.329964 0.289955 L 0.324963 0.289955 L 0.324963 0.284954 L 0.334965 0.284954 L 0.334965 0.289955 L 0.339966 0.289955 L 0.339966 0.279953 L 0.334965 0.279953 L 0.334965 0.274952 L 0.339966 0.274952 L 0.339966 0.26495 L 0.334965 0.26495 L 0.334965 0.269951 L 0.329964 0.269951 L 0.329964 0.26495 L 0.324963 0.26495 L 0.324963 0.274952 L 0.329964 0.274952 L 0.329964 0.279953 L 0.31496 0.279953 L 0.31496 0.274952 L 0.319962 0.274952 L 0.319962 0.26495 L 0.31496 0.26495 L 0.31496 0.269951 L 0.309959 0.269951 L 0.309959 0.26495 L 0.304958 0.26495 L 0.304958 0.274952 L 0.309959 0.274952 L 0.309959 0.279953 L 0.304958 0.279953 L 0.304958 0.289955 L 0.309959 0.289955 L 0.309959 0.284954 L 0.319962 0.284954 L 0.319962 0.289955 L 0.31496 0.289955 L 0.31496 0.294956 L 0.319962 0.294956 L 0.319962 0.299957 L 0.309959 0.299957 L 0.309959 0.294956 L 0.304958 0.294956 L 0.304958 0.299957 L 0.299957 0.299957 L 0.299957 0.294956 L 0.294956 0.294956 L 0.294956 0.299957 L 0.284954 0.299957 L 0.284954 0.294956 L 0.289955 0.294956 L 0.289955 0.289955 L 0.284954 0.289955 L 0.284954 0.284954 L 0.294956 0.284954 L 0.294956 0.289955 L 0.299957 0.289955 L 0.299957 0.279953 L 0.294956 0.279953 L 0.294956 0.274952 L 0.299957 0.274952 L 0.299957 0.26495 L 0.294956 0.26495 L 0.294956 0.269951 L 0.289955 0.269951 L 0.289955 0.26495 L 0.284954 0.26495 L 0.284954 0.274952 L 0.289955 0.274952 L 0.289955 0.279953 L 0.274952 0.279953 L 0.274952 0.274952 L 0.279953 0.274952 L 0.279953 0.26495 L 0.274952 0.26495 L 0.274952 0.269951 L 0.269951 0.269951 L 0.269951 0.26495 L 0.26495 0.26495 L 0.26495 0.274952 L 0.269951 0.274952 L 0.269951 0.279953 L 0.26495 0.279953 L 0.26495 0.289955 L 0.269951 0.289955 L 0.269951 0.284954 L 0.279953 0.284954 L 0.279953 0.289955 L 0.274952 0.289955 L 0.274952 0.294956 L 0.279953 0.294956 L 0.279953 0.299957 L 0.269951 0.299957 L 0.269951 0.294956 L 0.26495 0.294956 L 0.26495 0.304958 L 0.269951 0.304958 L 0.269951 0.309959 L 0.26495 0.309959 L 0.26495 0.319962 L 0.269951 0.319962 L 0.269951 0.31496 L 0.274952 0.31496 L 0.274952 0.319962 L 0.279953 0.319962 L 0.279953 0.309959 L 0.274952 0.309959 L 0.274952 0.304958 L 0.284954 0.304958 L 0.284954 0.309959 L 0.289955 0.309959 L 0.289955 0.304958 L 0.299957 0.304958 L 0.299957 0.309959 L 0.294956 0.309959 L 0.294956 0.31496 L 0.299957 0.31496 L 0.299957 0.319962 L 0.289955 0.319962 L 0.289955 0.31496 L 0.284954 0.31496 L 0.284954 0.329964 L 0.289955 0.329964 L 0.289955 0.324963 L 0.299957 0.324963 L 0.299957 0.329964 L 0.294956 0.329964 L 0.294956 0.334965 L 0.299957 0.334965 L 0.299957 0.339966 L 0.289955 0.339966 L 0.289955 0.334965 L 0.284954 0.334965 L 0.284954 0.339966 L 0.274952 0.339966 L 0.274952 0.334965 L 0.279953 0.334965 L 0.279953 0.324963 L 0.274952 0.324963 L 0.274952 0.329964 L 0.269951 0.329964 L 0.269951 0.324963 L 0.26495 0.324963 L 0.26495 0.334965 L 0.269951 0.334965 L 0.269951 0.339966 L 0.259949 0.339966 L 0.259949 0.334965 L 0.254948 0.334965 L 0.254948 0.339966 L 0.244946 0.339966 L 0.244946 0.334965 L 0.249947 0.334965 L 0.249947 0.329964 L 0.244946 0.329964 L 0.244946 0.324963 L 0.254948 0.324963 L 0.254948 0.329964 L 0.259949 0.329964 L 0.259949 0.319962 L 0.254948 0.319962 L 0.254948 0.31496 L 0.259949 0.31496 L 0.259949 0.304958 L 0.254948 0.304958 L 0.254948 0.309959 L 0.249947 0.309959 L 0.249947 0.304958 L 0.244946 0.304958 L 0.244946 0.31496 L 0.249947 0.31496 L 0.249947 0.319962 L 0.234943 0.319962 L 0.234943 0.31496 L 0.239944 0.31496 L 0.239944 0.304958 L 0.234943 0.304958 L 0.234943 0.309959 L 0.229942 0.309959 L 0.229942 0.304958 L 0.224941 0.304958 L 0.224941 0.31496 L 0.229942 0.31496 L 0.229942 0.319962 L 0.224941 0.319962 L 0.224941 0.329964 L 0.229942 0.329964 L 0.229942 0.324963 L 0.239944 0.324963 L 0.239944 0.329964 L 0.234943 0.329964 L 0.234943 0.334965 L 0.239944 0.334965 L 0.239944 0.339966 L 0.229942 0.339966 L 0.229942 0.334965 L 0.224941 0.334965 L 0.224941 0.339966 L 0.214939 0.339966 L 0.214939 0.334965 L 0.21994 0.334965 L 0.21994 0.324963 L 0.214939 0.324963 L 0.214939 0.329964 L 0.209938 0.329964 L 0.209938 0.324963 L 0.204937 0.324963 L 0.204937 0.334965 L 0.209938 0.334965 L 0.209938 0.339966 L 0.199936 0.339966 L 0.199936 0.334965 L 0.194935 0.334965 L 0.194935 0.339966 L 0.184933 0.339966 L 0.184933 0.334965 L 0.189934 0.334965 L 0.189934 0.329964 L 0.184933 0.329964 L 0.184933 0.324963 L 0.194935 0.324963 L 0.194935 0.329964 L 0.199936 0.329964 L 0.199936 0.31496 L 0.194935 0.31496 L 0.194935 0.319962 L 0.184933 0.319962 L 0.184933 0.31496 L 0.189934 0.31496 L 0.189934 0.309959 L 0.184933 0.309959 L 0.184933 0.304958 L 0.194935 0.304958 L 0.194935 0.309959 L 0.199936 0.309959 L 0.199936 0.304958 L 0.209938 0.304958 L 0.209938 0.309959 L 0.204937 0.309959 L 0.204937 0.319962 L 0.209938 0.319962 L 0.209938 0.31496 L 0.214939 0.31496 L 0.214939 0.319962 L 0.21994 0.319962 L 0.21994 0.309959 L 0.214939 0.309959 L 0.214939 0.304958 L 0.21994 0.304958 L 0.21994 0.299957 L 0.214939 0.299957 L 0.214939 0.294956 L 0.21994 0.294956 L 0.21994 0.284954 L 0.214939 0.284954 L 0.214939 0.289955 L 0.209938 0.289955 L 0.209938 0.284954 L 0.204937 0.284954 L 0.204937 0.294956 L 0.209938 0.294956 L 0.209938 0.299957 L 0.199936 0.299957 L 0.199936 0.294956 L 0.194935 0.294956 L 0.194935 0.299957 L 0.184933 0.299957 L 0.184933 0.294956 L 0.189934 0.294956 L 0.189934 0.289955 L 0.184933 0.289955 L 0.184933 0.284954 L 0.194935 0.284954 L 0.194935 0.289955 L 0.199936 0.289955 L 0.199936 0.274952 L 0.194935 0.274952 L 0.194935 0.279953 L 0.184933 0.279953 L 0.184933 0.274952 L 0.189934 0.274952 L 0.189934 0.269951 L 0.184933 0.269951 L 0.184933 0.26495 L 0.194935 0.26495 L 0.194935 0.269951 L 0.199936 0.269951 L 0.199936 0.26495 L 0.209938 0.26495 L 0.209938 0.269951 L 0.204937 0.269951 L 0.204937 0.279953 L 0.209938 0.279953 L 0.209938 0.274952 L 0.214939 0.274952 L 0.214939 0.279953 L 0.21994 0.279953 L 0.21994 0.269951 L 0.214939 0.269951 L 0.214939 0.26495 L 0.224941 0.26495 L 0.224941 0.269951 L 0.229942 0.269951 L 0.229942 0.26495 L 0.239944 0.26495 L 0.239944 0.269951 L 0.234943 0.269951 L 0.234943 0.274952 L 0.239944 0.274952 L 0.239944 0.279953 L 0.229942 0.279953 L 0.229942 0.274952 L 0.224941 0.274952 L 0.224941 0.284954 L 0.229942 0.284954 L 0.229942 0.289955 L 0.224941 0.289955 L 0.224941 0.299957 L 0.229942 0.299957 L 0.229942 0.294956 L 0.234943 0.294956 L 0.234943 0.299957 L 0.239944 0.299957 L 0.239944 0.289955 L 0.234943 0.289955 L 0.234943 0.284954 L 0.249947 0.284954 L 0.249947 0.289955 L 0.244946 0.289955 L 0.244946 0.299957 L 0.249947 0.299957 L 0.249947 0.294956 L 0.254948 0.294956 L 0.254948 0.299957 L 0.259949 0.299957 L 0.259949 0.289955 L 0.254948 0.289955 L 0.254948 0.284954 L 0.259949 0.284954 L 0.259949 0.274952 L 0.254948 0.274952 L 0.254948 0.279953 L 0.244946 0.279953 L 0.244946 0.274952 L 0.249947 0.274952 L 0.249947 0.269951 L 0.244946 0.269951 L 0.244946 0.26495 L 0.254948 0.26495 L 0.254948 0.269951 L 0.259949 0.269951 L 0.259949 0.254948 L 0.254948 0.254948 L 0.254948 0.259949 L 0.244946 0.259949 L 0.244946 0.254948 L 0.249947 0.254948 L 0.249947 0.249947 L 0.244946 0.249947 L 0.244946 0.244946 L 0.254948 0.244946 L 0.254948 0.249947 L 0.259949 0.249947 L 0.259949 0.239944 L 0.254948 0.239944 L 0.254948 0.234943 L 0.259949 0.234943 L 0.259949 0.224941 L 0.254948 0.224941 L 0.254948 0.229942 L 0.249947 0.229942 L 0.249947 0.224941 L 0.244946 0.224941 L 0.244946 0.234943 L 0.249947 0.234943 L 0.249947 0.239944 L 0.234943 0.239944 L 0.234943 0.234943 L 0.239944 0.234943 L 0.239944 0.224941 L 0.234943 0.224941 L 0.234943 0.229942 L 0.229942 0.229942 L 0.229942 0.224941 L 0.224941 0.224941 L 0.224941 0.234943 L 0.229942 0.234943 L 0.229942 0.239944 L 0.224941 0.239944 L 0.224941 0.249947 L 0.229942 0.249947 L 0.229942 0.244946 L 0.239944 0.244946 L 0.239944 0.249947 L 0.234943 0.249947 L 0.234943 0.254948 L 0.239944 0.254948 L 0.239944 0.259949 L 0.229942 0.259949 L 0.229942 0.254948 L 0.224941 0.254948 L 0.224941 0.259949 L 0.214939 0.259949 L 0.214939 0.254948 L 0.21994 0.254948 L 0.21994 0.244946 L 0.214939 0.244946 L 0.214939 0.249947 L 0.209938 0.249947 L 0.209938 0.244946 L 0.204937 0.244946 L 0.204937 0.254948 L 0.209938 0.254948 L 0.209938 0.259949 L 0.199936 0.259949 L 0.199936 0.254948 L 0.194935 0.254948 L 0.194935 0.259949 L 0.184933 0.259949 L 0.184933 0.254948 L 0.189934 0.254948 L 0.189934 0.249947 L 0.184933 0.249947 L 0.184933 0.244946 L 0.194935 0.244946 L 0.194935 0.249947 L 0.199936 0.249947 L 0.199936 0.234943 L 0.194935 0.234943 L 0.194935 0.239944 L 0.184933 0.239944 L 0.184933 0.234943 L 0.189934 0.234943 L 0.189934 0.229942 L 0.184933 0.229942 L 0.184933 0.224941 L 0.194935 0.224941 L 0.194935 0.229942 L 0.199936 0.229942 L 0.199936 0.224941 L 0.209938 0.224941 L 0.209938 0.229942 L 0.204937 0.229942 L 0.204937 0.239944 L 0.209938 0.239944 L 0.209938 0.234943 L 0.214939 0.234943 L 0.214939 0.239944 L 0.21994 0.239944 L 0.21994 0.229942 L 0.214939 0.229942 L 0.214939 0.224941 L 0.21994 0.224941 L 0.21994 0.21994 L 0.214939 0.21994 L 0.214939 0.214939 L 0.21994 0.214939 L 0.21994 0.204937 L 0.214939 0.204937 L 0.214939 0.209938 L 0.209938 0.209938 L 0.209938 0.204937 L 0.204937 0.204937 L 0.204937 0.214939 L 0.209938 0.214939 L 0.209938 0.21994 L 0.199936 0.21994 L 0.199936 0.214939 L 0.194935 0.214939 L 0.194935 0.21994 L 0.184933 0.21994 L 0.184933 0.214939 L 0.189934 0.214939 L 0.189934 0.209938 L 0.184933 0.209938 L 0.184933 0.204937 L 0.194935 0.204937 L 0.194935 0.209938 L 0.199936 0.209938 L 0.199936 0.194935 L 0.194935 0.194935 L 0.194935 0.199936 L 0.184933 0.199936 L 0.184933 0.194935 L 0.189934 0.194935 L 0.189934 0.189934 L 0.184933 0.189934 L 0.184933 0.184933 L 0.194935 0.184933 L 0.194935 0.189934 L 0.199936 0.189934 L 0.199936 0.184933 L 0.209938 0.184933 L 0.209938 0.189934 L 0.204937 0.189934 L 0.204937 0.199936 L 0.209938 0.199936 L 0.209938 0.194935 L 0.214939 0.194935 L 0.214939 0.199936 L 0.21994 0.199936 L 0.21994 0.189934 L 0.214939 0.189934 L 0.214939 0.184933 L 0.224941 0.184933 L 0.224941 0.189934 L 0.229942 0.189934 L 0.229942 0.184933 L 0.239944 0.184933 L 0.239944 0.189934 L 0.234943 0.189934 L 0.234943 0.194935 L 0.239944 0.194935 L 0.239944 0.199936 L 0.229942 0.199936 L 0.229942 0.194935 L 0.224941 0.194935 L 0.224941 0.204937 L 0.229942 0.204937 L 0.229942 0.209938 L 0.224941 0.209938 L 0.224941 0.21994 L 0.229942 0.21994 L 0.229942 0.214939 L 0.234943 0.214939 L 0.234943 0.21994 L 0.239944 0.21994 L 0.239944 0.209938 L 0.234943 0.209938 L 0.234943 0.204937 L 0.249947 0.204937 L 0.249947 0.209938 L 0.244946 0.209938 L 0.244946 0.21994 L 0.249947 0.21994 L 0.249947 0.214939 L 0.254948 0.214939 L 0.254948 0.21994 L 0.259949 0.21994 L 0.259949 0.209938 L 0.254948 0.209938 L 0.254948 0.204937 L 0.259949 0.204937 L 0.259949 0.194935 L 0.254948 0.194935 L 0.254948 0.199936 L 0.244946 0.199936 L 0.244946 0.194935 L 0.249947 0.194935 L 0.249947 0.189934 L 0.244946 0.189934 L 0.244946 0.184933 L 0.254948 0.184933 L 0.254948 0.189934 L 0.259949 0.189934 L 0.259949 0.184933 L 0.269951 0.184933 L 0.269951 0.189934 L 0.26495 0.189934 L 0.26495 0.199936 L 0.269951 0.199936 L 0.269951 0.194935 L 0.274952 0.194935 L 0.274952 0.199936 L 0.279953 0.199936 L 0.279953 0.189934 L 0.274952 0.189934 L 0.274952 0.184933 L 0.284954 0.184933 L 0.284954 0.189934 L 0.289955 0.189934 L 0.289955 0.184933 L 0.299957 0.184933 L 0.299957 0.189934 L 0.294956 0.189934 L 0.294956 0.194935 L 0.299957 0.194935 L 0.299957 0.199936 L 0.289955 0.199936 L 0.289955 0.194935 L 0.284954 0.194935 L 0.284954 0.209938 L 0.289955 0.209938 L 0.289955 0.204937 L 0.299957 0.204937 L 0.299957 0.209938 L 0.294956 0.209938 L 0.294956 0.214939 L 0.299957 0.214939 L 0.299957 0.21994 L 0.289955 0.21994 L 0.289955 0.214939 L 0.284954 0.214939 L 0.284954 0.21994 L 0.274952 0.21994 L 0.274952 0.214939 L 0.279953 0.214939 L 0.279953 0.204937 L 0.274952 0.204937 L 0.274952 0.209938 L 0.269951 0.209938 L 0.269951 0.204937 L 0.26495 0.204937 L 0.26495 0.214939 L 0.269951 0.214939 L 0.269951 0.21994 L 0.26495 0.21994 L 0.26495 0.229942 L 0.269951 0.229942 L 0.269951 0.224941 L 0.279953 0.224941 L 0.279953 0.229942 L 0.274952 0.229942 L 0.274952 0.234943 L 0.279953 0.234943 L 0.279953 0.239944 L 0.269951 0.239944 L 0.269951 0.234943 L 0.26495 0.234943 L 0.26495 0.244946 L 0.269951 0.244946 L 0.269951 0.249947 L 0.26495 0.249947 L 0.26495 0.259949 L 0.269951 0.259949 L 0.269951 0.254948 L 0.274952 0.254948 L 0.274952 0.259949 L 0.279953 0.259949 L 0.279953 0.249947 L 0.274952 0.249947 L 0.274952 0.244946 L 0.289955 0.244946 L 0.289955 0.249947 L 0.284954 0.249947 L 0.284954 0.259949 L 0.289955 0.259949 L 0.289955 0.254948 L 0.294956 0.254948 L 0.294956 0.259949 L 0.299957 0.259949 L 0.299957 0.249947 L 0.294956 0.249947 L 0.294956 0.244946 L 0.299957 0.244946 L 0.299957 0.234943 L 0.294956 0.234943 L 0.294956 0.239944 L 0.284954 0.239944 L 0.284954 0.234943 L 0.289955 0.234943 L 0.289955 0.229942 L 0.284954 0.229942 L 0.284954 0.224941 L 0.294956 0.224941 L 0.294956 0.229942 L 0.299957 0.229942 L 0.299957 0.224941 L 0.304958 0.224941 L 0.304958 0.229942 L 0.309959 0.229942 L 0.309959 0.224941 L 0.319962 0.224941 L 0.319962 0.229942 L 0.31496 0.229942 L 0.31496 0.234943 L 0.319962 0.234943 L 0.319962 0.239944 L 0.309959 0.239944 L 0.309959 0.234943 L 0.304958 0.234943 L 0.304958 0.244946 L 0.309959 0.244946 L 0.309959 0.249947 L 0.304958 0.249947 L 0.304958 0.259949 L 0.309959 0.259949 L 0.309959 0.254948 L 0.31496 0.254948 L 0.31496 0.259949 L 0.319962 0.259949 L 0.319962 0.249947 L 0.31496 0.249947 L 0.31496 0.244946 L 0.329964 0.244946 L 0.329964 0.249947 L 0.324963 0.249947 L 0.324963 0.259949 L 0.329964 0.259949 L 0.329964 0.254948 L 0.334965 0.254948 L 0.334965 0.259949 L 0.339966 0.259949 L 0.339966 0.249947 L 0.334965 0.249947 L 0.334965 0.244946 L 0.339966 0.244946 L 0.339966 0.234943 L 0.334965 0.234943 L 0.334965 0.239944 L 0.324963 0.239944 L 0.324963 0.234943 L 0.329964 0.234943 L 0.329964 0.229942 L 0.324963 0.229942 L 0.324963 0.224941 L 0.334965 0.224941 L 0.334965 0.229942 L 0.339966 0.229942 L 0.339966 0.21994 L 0.334965 0.21994 L 0.334965 0.214939 L 0.339966 0.214939 L 0.339966 0.204937 L 0.334965 0.204937 L 0.334965 0.209938 L 0.329964 0.209938 L 0.329964 0.204937 L 0.324963 0.204937 L 0.324963 0.214939 L 0.329964 0.214939 L 0.329964 0.21994 L 0.319962 0.21994 L 0.319962 0.214939 L 0.31496 0.214939 L 0.31496 0.21994 L 0.304958 0.21994 L 0.304958 0.214939 L 0.309959 0.214939 L 0.309959 0.209938 L 0.304958 0.209938 L 0.304958 0.204937 L 0.31496 0.204937 L 0.31496 0.209938 L 0.319962 0.209938 L 0.319962 0.194935 L 0.31496 0.194935 L 0.31496 0.199936 L 0.304958 0.199936 L 0.304958 0.194935 L 0.309959 0.194935 L 0.309959 0.189934 L 0.304958 0.189934 L 0.304958 0.184933 L 0.31496 0.184933 L 0.31496 0.189934 L 0.319962 0.189934 L 0.319962 0.184933 L 0.329964 0.184933 L 0.329964 0.189934 L 0.324963 0.189934 L 0.324963 0.199936 L 0.329964 0.199936 L 0.329964 0.194935 L 0.334965 0.194935 L 0.334965 0.199936 L 0.339966 0.199936 L 0.339966 0.189934 L 0.334965 0.189934 L 0.334965 0.184933 L 0.344967 0.184933 L 0.344967 0.189934 L 0.349968 0.189934 L 0.349968 0.184933 L 0.35997 0.184933 L 0.35997 0.189934 L 0.354969 0.189934 L 0.354969 0.194935 L 0.35997 0.194935 L 0.35997 0.199936 L 0.349968 0.199936 L 0.349968 0.194935 L 0.344967 0.194935 L 0.344967 0.204937 L 0.349968 0.204937 L 0.349968 0.209938 L 0.344967 0.209938 L 0.344967 0.21994 L 0.349968 0.21994 L 0.349968 0.214939 L 0.354969 0.214939 L 0.354969 0.21994 L 0.35997 0.21994 L 0.35997 0.209938 L 0.354969 0.209938 L 0.354969 0.204937 L 0.369972 0.204937 L 0.369972 0.209938 L 0.364971 0.209938 L 0.364971 0.21994 L 0.369972 0.21994 L 0.369972 0.214939 L 0.374973 0.214939 L 0.374973 0.21994 L 0.379974 0.21994 L 0.379974 0.209938 L 0.374973 0.209938 L 0.374973 0.204937 L 0.379974 0.204937 L 0.379974 0.194935 L 0.374973 0.194935 L 0.374973 0.199936 L 0.364971 0.199936 L 0.364971 0.194935 L 0.369972 0.194935 L 0.369972 0.189934 L 0.364971 0.189934 L 0.364971 0.184933 L 0.374973 0.184933 L 0.374973 0.189934 L 0.379974 0.189934 L 0.379974 0.184933 L 0.389977 0.184933 L 0.389977 0.189934 L 0.384975 0.189934 L 0.384975 0.199936 L 0.389977 0.199936 L 0.389977 0.194935 L 0.394978 0.194935 L 0.394978 0.199936 L 0.399979 0.199936 L 0.399979 0.189934 L 0.394978 0.189934 L 0.394978 0.184933 L 0.40498 0.184933 L 0.40498 0.189934 L 0.409981 0.189934 L 0.409981 0.184933 L 0.419983 0.184933 L 0.419983 0.189934 L 0.414982 0.189934 L 0.414982 0.194935 L 0.419983 0.194935 L 0.419983 0.199936 L 0.409981 0.199936 L 0.409981 0.194935 L 0.40498 0.194935 L 0.40498 0.209938 L 0.409981 0.209938 L 0.409981 0.204937 L 0.419983 0.204937 L 0.419983 0.209938 L 0.414982 0.209938 L 0.414982 0.214939 L 0.419983 0.214939 L 0.419983 0.21994 L 0.409981 0.21994 L 0.409981 0.214939 L 0.40498 0.214939 L 0.40498 0.21994 L 0.394978 0.21994 L 0.394978 0.214939 L 0.399979 0.214939 L 0.399979 0.204937 L 0.394978 0.204937 L 0.394978 0.209938 L 0.389977 0.209938 L 0.389977 0.204937 L 0.384975 0.204937 L 0.384975 0.214939 L 0.389977 0.214939 L 0.389977 0.21994 L 0.384975 0.21994 L 0.384975 0.224941 L 0.389977 0.224941 L 0.389977 0.229942 L 0.384975 0.229942 L 0.384975 0.239944 L 0.389977 0.239944 L 0.389977 0.234943 L 0.394978 0.234943 L 0.394978 0.239944 L 0.399979 0.239944 L 0.399979 0.229942 L 0.394978 0.229942 L 0.394978 0.224941 L 0.40498 0.224941 L 0.40498 0.229942 L 0.409981 0.229942 L 0.409981 0.224941 L 0.419983 0.224941 L 0.419983 0.229942 L 0.414982 0.229942 L 0.414982 0.234943 L 0.419983 0.234943 L 0.419983 0.239944 L 0.409981 0.239944 L 0.409981 0.234943 L 0.40498 0.234943 L 0.40498 0.249947 L 0.409981 0.249947 L 0.409981 0.244946 L 0.419983 0.244946 L 0.419983 0.249947 L 0.414982 0.249947 L 0.414982 0.254948 L 0.419983 0.254948 L 0.419983 0.259949 L 0.409981 0.259949 L 0.409981 0.254948 L 0.40498 0.254948 L 0.40498 0.259949 L 0.394978 0.259949 L 0.394978 0.254948 L 0.399979 0.254948 L 0.399979 0.244946 L 0.394978 0.244946 L 0.394978 0.249947 L 0.389977 0.249947 L 0.389977 0.244946 L 0.384975 0.244946 L 0.384975 0.254948 L 0.389977 0.254948 L 0.389977 0.259949 L 0.379974 0.259949 L 0.379974 0.254948 L 0.374973 0.254948 L 0.374973 0.259949 L 0.364971 0.259949 L 0.364971 0.254948 L 0.369972 0.254948 L 0.369972 0.249947 L 0.364971 0.249947 L 0.364971 0.244946 L 0.374973 0.244946 L 0.374973 0.249947 L 0.379974 0.249947 L 0.379974 0.239944 L 0.374973 0.239944 L 0.374973 0.234943 L 0.379974 0.234943 L 0.379974 0.224941 L 0.374973 0.224941 L 0.374973 0.229942 L 0.369972 0.229942 L 0.369972 0.224941 L 0.364971 0.224941 L 0.364971 0.234943 L 0.369972 0.234943 L 0.369972 0.239944 L 0.354969 0.239944 L 0.354969 0.234943 L 0.35997 0.234943 L 0.35997 0.224941 L 0.354969 0.224941 L 0.354969 0.229942 L 0.349968 0.229942 L 0.349968 0.224941 L 0.344967 0.224941 L 0.344967 0.234943 L 0.349968 0.234943 L 0.349968 0.239944 L 0.344967 0.239944 L 0.344967 0.249947 L 0.349968 0.249947 L 0.349968 0.244946 L 0.35997 0.244946 L 0.35997 0.249947 L 0.354969 0.249947 L 0.354969 0.254948 L 0.35997 0.254948 L 0.35997 0.259949 L 0.349968 0.259949 L 0.349968 0.254948 L 0.344967 0.254948 L 0.344967 0.26495 L 0.349968 0.26495 L 0.349968 0.269951 L 0.344967 0.269951 L 0.344967 0.279953 L 0.349968 0.279953 L 0.349968 0.274952 L 0.354969 0.274952 L 0.354969 0.279953 L 0.35997 0.279953 L 0.35997 0.269951 L 0.354969 0.269951 L 0.354969 0.26495 L 0.364971 0.26495 L 0.364971 0.269951 L 0.369972 0.269951 L 0.369972 0.26495 L 0.379974 0.26495 L 0.379974 0.269951 L 0.374973 0.269951 L 0.374973 0.274952 L 0.379974 0.274952 L 0.379974 0.279953 L 0.369972 0.279953 L 0.369972 0.274952 L 0.364971 0.274952 L 0.364971 0.289955 L 0.369972 0.289955 L 0.369972 0.284954 L 0.379974 0.284954 L 0.379974 0.289955 L 0.374973 0.289955 L 0.374973 0.294956 L 0.379974 0.294956 L 0.379974 0.299957 L 0.369972 0.299957 L 0.369972 0.294956 L 0.364971 0.294956 L 0.364971 0.299957 L 0.354969 0.299957 L 0.354969 0.294956 L 0.35997 0.294956 L 0.35997 0.284954 L 0.354969 0.284954 L 0.354969 0.289955 L 0.349968 0.289955 L 0.349968 0.284954 L 0.344967 0.284954 L 0.344967 0.294956 L 0.349968 0.294956 L 0.349968 0.299957 L 0.344967 0.299957 L 0.344967 0.309959 L 0.349968 0.309959 L 0.349968 0.304958 L 0.35997 0.304958 L 0.35997 0.309959 L 0.354969 0.309959 L 0.354969 0.31496 L 0.35997 0.31496 L 0.35997 0.319962 L 0.349968 0.319962 L 0.349968 0.31496 L 0.344967 0.31496 L 0.344967 0.324963 L 0.349968 0.324963 L 0.349968 0.329964 L 0.344967 0.329964 L 0.344967 0.339966 L 0.349968 0.339966 L 0.349968 0.334965 L 0.354969 0.334965 L 0.354969 0.339966 L 0.35997 0.339966 L 0.35997 0.329964 L 0.354969 0.329964 L 0.354969 0.324963 L 0.369972 0.324963 L 0.369972 0.329964 L 0.364971 0.329964 L 0.364971 0.339966 L 0.369972 0.339966 L 0.369972 0.334965 L 0.374973 0.334965 L 0.374973 0.339966 L 0.379974 0.339966 L 0.379974 0.329964 L 0.374973 0.329964 L 0.374973 0.324963 L 0.379974 0.324963 L 0.379974 0.31496 L 0.374973 0.31496 L 0.374973 0.319962 L 0.364971 0.319962 L 0.364971 0.31496 L 0.369972 0.31496 L 0.369972 0.309959 L 0.364971 0.309959 L 0.364971 0.304958 L 0.374973 0.304958 L 0.374973 0.309959 L 0.379974 0.309959 L 0.379974 0.304958 L 0.384975 0.304958 L 0.384975 0.309959 L 0.389977 0.309959 L 0.389977 0.304958 L 0.399979 0.304958 L 0.399979 0.309959 L 0.394978 0.309959 L 0.394978 0.31496 L 0.399979 0.31496 L 0.399979 0.319962 L 0.389977 0.319962 L 0.389977 0.31496 L 0.384975 0.31496 L 0.384975 0.324963 L 0.389977 0.324963 L 0.389977 0.329964 L 0.384975 0.329964 L 0.384975 0.339966 L 0.389977 0.339966 L 0.389977 0.334965 L 0.394978 0.334965 L 0.394978 0.339966 L 0.399979 0.339966 L 0.399979 0.329964 L 0.394978 0.329964 L 0.394978 0.324963 L 0.409981 0.324963 L 0.409981 0.329964 L 0.40498 0.329964 L 0.40498 0.339966 L 0.409981 0.339966 L 0.409981 0.334965 L 0.414982 0.334965 L 0.414982 0.339966 L 0.419983 0.339966 L 0.419983 0.329964 L 0.414982 0.329964 L 0.414982 0.324963 L 0.419983 0.324963 L 0.419983 0.31496 L 0.414982 0.31496 L 0.414982 0.319962 L 0.40498 0.319962 L 0.40498 0.31496 L 0.409981 0.31496 L 0.409981 0.309959 L 0.40498 0.309959 L 0.40498 0.304958 L 0.414982 0.304958 L 0.414982 0.309959 L 0.419983 0.309959 L 0.419983 0.299957 L 0.414982 0.299957 L 0.414982 0.294956 L 0.419983 0.294956 L 0.419983 0.284954 L 0.414982 0.284954 L 0.414982 0.289955 L 0.409981 0.289955 L 0.409981 0.284954 L 0.40498 0.284954 L 0.40498 0.294956 L 0.409981 0.294956 L 0.409981 0.299957 L 0.399979 0.299957 L 0.399979 0.294956 L 0.394978 0.294956 L 0.394978 0.299957 L 0.384975 0.299957 L 0.384975 0.294956 L 0.389977 0.294956 L 0.389977 0.289955 L 0.384975 0.289955 L 0.384975 0.284954 L 0.394978 0.284954 L 0.394978 0.289955 L 0.399979 0.289955 L 0.399979 0.274952 L 0.394978 0.274952 L 0.394978 0.279953 L 0.384975 0.279953 L 0.384975 0.274952 L 0.389977 0.274952 L 0.389977 0.269951 L 0.384975 0.269951 L 0.384975 0.26495 L 0.394978 0.26495 L 0.394978 0.269951 L 0.399979 0.269951 L 0.399979 0.26495 L 0.409981 0.26495 L 0.409981 0.269951 L 0.40498 0.269951 L 0.40498 0.279953 L 0.409981 0.279953 L 0.409981 0.274952 L 0.414982 0.274952 L 0.414982 0.279953 L 0.419983 0.279953 L 0.419983 0.269951 L 0.414982 0.269951 L 0.414982 0.26495 L 0.429985 0.26495 L 0.429985 0.269951 L 0.424984 0.269951 L 0.424984 0.279953 L 0.429985 0.279953 L 0.429985 0.274952 L 0.434986 0.274952 L 0.434986 0.279953 L 0.439987 0.279953 L 0.439987 0.269951 L 0.434986 0.269951 L 0.434986 0.26495 L 0.444988 0.26495 L 0.444988 0.269951 L 0.449989 0.269951 L 0.449989 0.26495 L 0.459991 0.26495 L 0.459991 0.269951 L 0.45499 0.269951 L 0.45499 0.274952 L 0.459991 0.274952 L 0.459991 0.279953 L 0.449989 0.279953 L 0.449989 0.274952 L 0.444988 0.274952 L 0.444988 0.289955 L 0.449989 0.289955 L 0.449989 0.284954 L 0.459991 0.284954 L 0.459991 0.289955 L 0.45499 0.289955 L 0.45499 0.294956 L 0.459991 0.294956 L 0.459991 0.299957 L 0.449989 0.299957 L 0.449989 0.294956 L 0.444988 0.294956 L 0.444988 0.299957 L 0.434986 0.299957 L 0.434986 0.294956 L 0.439987 0.294956 L 0.439987 0.284954 L 0.434986 0.284954 L 0.434986 0.289955 L 0.429985 0.289955 L 0.429985 0.284954 L 0.424984 0.284954 L 0.424984 0.294956 L 0.429985 0.294956 L 0.429985 0.299957 L 0.424984 0.299957 L 0.424984 0.309959 L 0.429985 0.309959 L 0.429985 0.304958 L 0.439987 0.304958 L 0.439987 0.309959 L 0.434986 0.309959 L 0.434986 0.31496 L 0.439987 0.31496 L 0.439987 0.319962 L 0.429985 0.319962 L 0.429985 0.31496 L 0.424984 0.31496 L 0.424984 0.324963 L 0.429985 0.324963 L 0.429985 0.329964 L 0.424984 0.329964 L 0.424984 0.339966 L 0.429985 0.339966 L 0.429985 0.334965 L 0.434986 0.334965 L 0.434986 0.339966 L 0.439987 0.339966 L 0.439987 0.329964 L 0.434986 0.329964 L 0.434986 0.324963 L 0.449989 0.324963 L 0.449989 0.329964 L 0.444988 0.329964 L 0.444988 0.339966 L 0.449989 0.339966 L 0.449989 0.334965 L 0.45499 0.334965 L 0.45499 0.339966 L 0.459991 0.339966 L 0.459991 0.329964 L 0.45499 0.329964 L 0.45499 0.324963 L 0.459991 0.324963 L 0.459991 0.31496 L 0.45499 0.31496 L 0.45499 0.319962 L 0.444988 0.319962 L 0.444988 0.31496 L 0.449989 0.31496 L 0.449989 0.309959 L 0.444988 0.309959 L 0.444988 0.304958 L 0.45499 0.304958 L 0.45499 0.309959 L 0.459991 0.309959 L 0.459991 0.304958 L 0.464993 0.304958 L 0.464993 0.309959 L 0.469994 0.309959 L 0.469994 0.304958 L 0.479996 0.304958 L 0.479996 0.309959 L 0.474995 0.309959 L 0.474995 0.31496 L 0.479996 0.31496 L 0.479996 0.319962 L 0.469994 0.319962 L 0.469994 0.31496 L 0.464993 0.31496 L 0.464993 0.324963 L 0.469994 0.324963 L 0.469994 0.329964 L 0.464993 0.329964 L 0.464993 0.339966 L 0.469994 0.339966 L 0.469994 0.334965 L 0.474995 0.334965 L 0.474995 0.339966 L 0.479996 0.339966 L 0.479996 0.329964 L 0.474995 0.329964 L 0.474995 0.324963 L 0.489998 0.324963 L 0.489998 0.329964 L 0.484997 0.329964 L 0.484997 0.339966 L 0.489998 0.339966 L 0.489998 0.334965 L 0.494999 0.334965 L 0.494999 0.339966 L 0.5 0.339966 L 0.5 0.329964 L 0.494999 0.329964 L 0.494999 0.324963 L 0.5 0.324963 L 0.5 0.31496 L 0.494999 0.31496 L 0.494999 0.319962 L 0.484997 0.319962 L 0.484997 0.31496 L 0.489998 0.31496 L 0.489998 0.309959 L 0.484997 0.309959 L 0.484997 0.304958 L 0.494999 0.304958 L 0.494999 0.309959 L 0.5 0.309959 L 0.5 0.299957 L 0.494999 0.299957 L 0.494999 0.294956 L 0.5 0.294956 L 0.5 0.284954 L 0.494999 0.284954 L 0.494999 0.289955 L 0.489998 0.289955 L 0.489998 0.284954 L 0.484997 0.284954 L 0.484997 0.294956 L 0.489998 0.294956 L 0.489998 0.299957 L 0.479996 0.299957 L 0.479996 0.294956 L 0.474995 0.294956 L 0.474995 0.299957 L 0.464993 0.299957 L 0.464993 0.294956 L 0.469994 0.294956 L 0.469994 0.289955 L 0.464993 0.289955 L 0.464993 0.284954 L 0.474995 0.284954 L 0.474995 0.289955 L 0.479996 0.289955 L 0.479996 0.274952 L 0.474995 0.274952 L 0.474995 0.279953 L 0.464993 0.279953 L 0.464993 0.274952 L 0.469994 0.274952 L 0.469994 0.269951 L 0.464993 0.269951 L 0.464993 0.26495 L 0.474995 0.26495 L 0.474995 0.269951 L 0.479996 0.269951 L 0.479996 0.26495 L 0.489998 0.26495 L 0.489998 0.269951 L 0.484997 0.269951 L 0.484997 0.279953 L 0.489998 0.279953 L 0.489998 0.274952 L 0.494999 0.274952 L 0.494999 0.279953 L 0.5 0.279953 L 0.5 0.269951 L 0.494999 0.269951 L 0.494999 0.26495 L 0.5 0.26495 L 0.5 0.254948 L 0.494999 0.254948 L 0.494999 0.259949 L 0.484997 0.259949 L 0.484997 0.254948 L 0.489998 0.254948 L 0.489998 0.249947 L 0.484997 0.249947 L 0.484997 0.244946 L 0.494999 0.244946 L 0.494999 0.249947 L 0.5 0.249947 L 0.5 0.239944 L 0.494999 0.239944 L 0.494999 0.234943 L 0.5 0.234943 L 0.5 0.224941 L 0.494999 0.224941 L 0.494999 0.229942 L 0.489998 0.229942 L 0.489998 0.224941 L 0.484997 0.224941 L 0.484997 0.234943 L 0.489998 0.234943 L 0.489998 0.239944 L 0.474995 0.239944 L 0.474995 0.234943 L 0.479996 0.234943 L 0.479996 0.224941 L 0.474995 0.224941 L 0.474995 0.229942 L 0.469994 0.229942 L 0.469994 0.224941 L 0.464993 0.224941 L 0.464993 0.234943 L 0.469994 0.234943 L 0.469994 0.239944 L 0.464993 0.239944 L 0.464993 0.249947 L 0.469994 0.249947 L 0.469994 0.244946 L 0.479996 0.244946 L 0.479996 0.249947 L 0.474995 0.249947 L 0.474995 0.254948 L 0.479996 0.254948 L 0.479996 0.259949 L 0.469994 0.259949 L 0.469994 0.254948 L 0.464993 0.254948 L 0.464993 0.259949 L 0.45499 0.259949 L 0.45499 0.254948 L 0.459991 0.254948 L 0.459991 0.244946 L 0.45499 0.244946 L 0.45499 0.249947 L 0.449989 0.249947 L 0.449989 0.244946 L 0.444988 0.244946 L 0.444988 0.254948 L 0.449989 0.254948 L 0.449989 0.259949 L 0.439987 0.259949 L 0.439987 0.254948 L 0.434986 0.254948 L 0.434986 0.259949 L 0.424984 0.259949 L 0.424984 0.254948 L 0.429985 0.254948 L 0.429985 0.249947 L 0.424984 0.249947 L 0.424984 0.244946 L 0.434986 0.244946 L 0.434986 0.249947 L 0.439987 0.249947 L 0.439987 0.234943 L 0.434986 0.234943 L 0.434986 0.239944 L 0.424984 0.239944 L 0.424984 0.234943 L 0.429985 0.234943 L 0.429985 0.229942 L 0.424984 0.229942 L 0.424984 0.224941 L 0.434986 0.224941 L 0.434986 0.229942 L 0.439987 0.229942 L 0.439987 0.224941 L 0.449989 0.224941 L 0.449989 0.229942 L 0.444988 0.229942 L 0.444988 0.239944 L 0.449989 0.239944 L 0.449989 0.234943 L 0.45499 0.234943 L 0.45499 0.239944 L 0.459991 0.239944 L 0.459991 0.229942 L 0.45499 0.229942 L 0.45499 0.224941 L 0.459991 0.224941 L 0.459991 0.21994 L 0.45499 0.21994 L 0.45499 0.214939 L 0.459991 0.214939 L 0.459991 0.204937 L 0.45499 0.204937 L 0.45499 0.209938 L 0.449989 0.209938 L 0.449989 0.204937 L 0.444988 0.204937 L 0.444988 0.214939 L 0.449989 0.214939 L 0.449989 0.21994 L 0.439987 0.21994 L 0.439987 0.214939 L 0.434986 0.214939 L 0.434986 0.21994 L 0.424984 0.21994 L 0.424984 0.214939 L 0.429985 0.214939 L 0.429985 0.209938 L 0.424984 0.209938 L 0.424984 0.204937 L 0.434986 0.204937 L 0.434986 0.209938 L 0.439987 0.209938 L 0.439987 0.194935 L 0.434986 0.194935 L 0.434986 0.199936 L 0.424984 0.199936 L 0.424984 0.194935 L 0.429985 0.194935 L 0.429985 0.189934 L 0.424984 0.189934 L 0.424984 0.184933 L 0.434986 0.184933 L 0.434986 0.189934 L 0.439987 0.189934 L 0.439987 0.184933 L 0.449989 0.184933 L 0.449989 0.189934 L 0.444988 0.189934 L 0.444988 0.199936 L 0.449989 0.199936 L 0.449989 0.194935 L 0.45499 0.194935 L 0.45499 0.199936 L 0.459991 0.199936 L 0.459991 0.189934 L 0.45499 0.189934 L 0.45499 0.184933 L 0.464993 0.184933 L 0.464993 0.189934 L 0.469994 0.189934 L 0.469994 0.184933 L 0.479996 0.184933 L 0.479996 0.189934 L 0.474995 0.189934 L 0.474995 0.194935 L 0.479996 0.194935 L 0.479996 0.199936 L 0.469994 0.199936 L 0.469994 0.194935 L 0.464993 0.194935 L 0.464993 0.204937 L 0.469994 0.204937 L 0.469994 0.209938 L 0.464993 0.209938 L 0.464993 0.21994 L 0.469994 0.21994 L 0.469994 0.214939 L 0.474995 0.214939 L 0.474995 0.21994 L 0.479996 0.21994 L 0.479996 0.209938 L 0.474995 0.209938 L 0.474995 0.204937 L 0.489998 0.204937 L 0.489998 0.209938 L 0.484997 0.209938 L 0.484997 0.21994 L 0.489998 0.21994 L 0.489998 0.214939 L 0.494999 0.214939 L 0.494999 0.21994 L 0.5 0.21994 L 0.5 0.209938 L 0.494999 0.209938 L 0.494999 0.204937 L 0.5 0.204937 L 0.5 0.194935 L 0.494999 0.194935 L 0.494999 0.199936 L 0.484997 0.199936 L 0.484997 0.194935 L 0.489998 0.194935 L 0.489998 0.189934 L 0.484997 0.189934 L 0.484997 0.184933 L 0.494999 0.184933 L 0.494999 0.189934 L 0.5 0.189934 L 0.5 0.184933 " transform="matrix(1024,0,0,1024,0,0)"/>
</g>
</svg>
