<?xml version="1.0" encoding="UTF-8"?>
<svg xmlns="http://www.w3.org/2000/svg" xmlns:xlink="http://www.w3.org/1999/xlink" width="1024pt" height="1024pt" viewBox="0 0 1024 1024" version="1.1">
<g id="surface1">
<path style="fill:none;stroke-width:0.001;stroke-linecap:butt;stroke-linejoin:miter;stroke:rgb(0%,0%,0%);stroke-opacity:1;stroke-miterlimit:10;" d="M -0 0.5 L 0.00999832 0.5 L 0.00999832 0.490002 L 0.0199966 0.490002 L 0.0199966 0.5 L 0.029995 0.5 L 0.029995 0.490002 L 0.0199966 0.490002 L 0.0199966 0.480003 L 0.029995 0.480003 L 0.029995 0.470005 L 0.0399933 0.470005 L 0.0399933 0.460007 L 0.0499916 0.460007 L 0.0499916 0.470005 L 0.0599899 0.470005 L 0.0599899 0.480003 L 0.0699883 0.480003 L 0.0699883 0.490002 L 0.0599899 0.490002 L 0.0599899 0.5 L 0.0699883 0.5 L 0.0699883 0.490002 L 0.0799866 0.490002 L 0.0799866 0.5 L 0.0899849 0.5 L 0.0899849 0.490002 L 0.0799866 0.490002 L 0.0799866 0.480003 L 0.0899849 0.480003 L 0.0899849 0.470005 L 0.0799866 0.470005 L 0.0799866 0.480003 L 0.0699883 0.480003 L 0.0699883 0.470005 L 0.0599899 0.470005 L 0.0599899 0.460007 L 0.0499916 0.460007 L 0.0499916 0.450008 L 0.0599899 0.450008 L 0.0599899 0.44001 L 0.0699883 0.44001 L 0.0699883 0.430012 L 0.0799866 0.430012 L 0.0799866 0.44001 L 0.0899849 0.44001 L 0.0899849 0.430012 L 0.0799866 0.430012 L 0.0799866 0.420013 L 0.0899849 0.420013 L 0.0899849 0.410015 L 0.0999832 0.410015 L 0.0999832 0.400017 L 0.109982 0.400017 L 0.109982 0.410015 L 0.11998 0.410015 L 0.11998 0.400017 L 0.109982 0.400017 L 0.109982 0.390018 L 0.11998 0.390018 L 0.11998 0.38002 L 0.129978 0.38002 L 0.129978 0.370022 L 0.139977 0.370022 L 0.139977 0.38002 L 0.149975 0.38002 L 0.149975 0.390018 L 0.159973 0.390018 L 0.159973 0.400017 L 0.149975 0.400017 L 0.149975 0.410015 L 0.159973 0.410015 L 0.159973 0.400017 L 0.169971 0.400017 L 0.169971 0.410015 L 0.17997 0.410015 L 0.17997 0.420013 L 0.189968 0.420013 L 0.189968 0.430012 L 0.17997 0.430012 L 0.17997 0.44001 L 0.189968 0.44001 L 0.189968 0.430012 L 0.199966 0.430012 L 0.199966 0.44001 L 0.209965 0.44001 L 0.209965 0.450008 L 0.219963 0.450008 L 0.219963 0.460007 L 0.209965 0.460007 L 0.209965 0.470005 L 0.199966 0.470005 L 0.199966 0.480003 L 0.189968 0.480003 L 0.189968 0.470005 L 0.17997 0.470005 L 0.17997 0.480003 L 0.189968 0.480003 L 0.189968 0.490002 L 0.17997 0.490002 L 0.17997 0.5 L 0.189968 0.5 L 0.189968 0.490002 L 0.199966 0.490002 L 0.199966 0.5 L 0.209965 0.5 L 0.209965 0.490002 L 0.199966 0.490002 L 0.199966 0.480003 L 0.209965 0.480003 L 0.209965 0.470005 L 0.219963 0.470005 L 0.219963 0.460007 L 0.229961 0.460007 L 0.229961 0.470005 L 0.23996 0.470005 L 0.23996 0.480003 L 0.249958 0.480003 L 0.249958 0.490002 L 0.23996 0.490002 L 0.23996 0.5 L 0.249958 0.5 L 0.249958 0.490002 L 0.259956 0.490002 L 0.259956 0.5 L 0.269955 0.5 L 0.269955 0.490002 L 0.259956 0.490002 L 0.259956 0.480003 L 0.269955 0.480003 L 0.269955 0.470005 L 0.259956 0.470005 L 0.259956 0.480003 L 0.249958 0.480003 L 0.249958 0.470005 L 0.23996 0.470005 L 0.23996 0.460007 L 0.229961 0.460007 L 0.229961 0.450008 L 0.23996 0.450008 L 0.23996 0.44001 L 0.249958 0.44001 L 0.249958 0.430012 L 0.259956 0.430012 L 0.259956 0.44001 L 0.269955 0.44001 L 0.269955 0.430012 L 0.259956 0.430012 L 0.259956 0.420013 L 0.269955 0.420013 L 0.269955 0.410015 L 0.259956 0.410015 L 0.259956 0.420013 L 0.249958 0.420013 L 0.249958 0.410015 L 0.23996 0.410015 L 0.23996 0.420013 L 0.249958 0.420013 L 0.249958 0.430012 L 0.23996 0.430012 L 0.23996 0.44001 L 0.229961 0.44001 L 0.229961 0.450008 L 0.219963 0.450008 L 0.219963 0.44001 L 0.209965 0.44001 L 0.209965 0.430012 L 0.199966 0.430012 L 0.199966 0.420013 L 0.209965 0.420013 L 0.209965 0.410015 L 0.199966 0.410015 L 0.199966 0.420013 L 0.189968 0.420013 L 0.189968 0.410015 L 0.17997 0.410015 L 0.17997 0.400017 L 0.169971 0.400017 L 0.169971 0.390018 L 0.17997 0.390018 L 0.17997 0.38002 L 0.169971 0.38002 L 0.169971 0.390018 L 0.159973 0.390018 L 0.159973 0.38002 L 0.149975 0.38002 L 0.149975 0.370022 L 0.139977 0.370022 L 0.139977 0.360023 L 0.149975 0.360023 L 0.149975 0.350025 L 0.159973 0.350025 L 0.159973 0.340027 L 0.169971 0.340027 L 0.169971 0.350025 L 0.17997 0.350025 L 0.17997 0.340027 L 0.169971 0.340027 L 0.169971 0.330029 L 0.17997 0.330029 L 0.17997 0.32003 L 0.189968 0.32003 L 0.189968 0.310032 L 0.199966 0.310032 L 0.199966 0.32003 L 0.209965 0.32003 L 0.209965 0.310032 L 0.199966 0.310032 L 0.199966 0.300034 L 0.209965 0.300034 L 0.209965 0.290035 L 0.219963 0.290035 L 0.219963 0.280037 L 0.229961 0.280037 L 0.229961 0.290035 L 0.23996 0.290035 L 0.23996 0.300034 L 0.249958 0.300034 L 0.249958 0.310032 L 0.23996 0.310032 L 0.23996 0.32003 L 0.249958 0.32003 L 0.249958 0.310032 L 0.259956 0.310032 L 0.259956 0.32003 L 0.269955 0.32003 L 0.269955 0.310032 L 0.259956 0.310032 L 0.259956 0.300034 L 0.269955 0.300034 L 0.269955 0.290035 L 0.259956 0.290035 L 0.259956 0.300034 L 0.249958 0.300034 L 0.249958 0.290035 L 0.23996 0.290035 L 0.23996 0.280037 L 0.229961 0.280037 L 0.229961 0.270039 L 0.23996 0.270039 L 0.23996 0.26004 L 0.249958 0.26004 L 0.249958 0.250042 L 0.259956 0.250042 L 0.259956 0.26004 L 0.269955 0.26004 L 0.269955 0.250042 L 0.259956 0.250042 L 0.259956 0.240044 L 0.269955 0.240044 L 0.269955 0.230045 L 0.279953 0.230045 L 0.279953 0.220047 L 0.289951 0.220047 L 0.289951 0.230045 L 0.29995 0.230045 L 0.29995 0.220047 L 0.289951 0.220047 L 0.289951 0.210049 L 0.29995 0.210049 L 0.29995 0.20005 L 0.309948 0.20005 L 0.309948 0.190052 L 0.319946 0.190052 L 0.319946 0.20005 L 0.329945 0.20005 L 0.329945 0.210049 L 0.339943 0.210049 L 0.339943 0.220047 L 0.329945 0.220047 L 0.329945 0.230045 L 0.339943 0.230045 L 0.339943 0.220047 L 0.349941 0.220047 L 0.349941 0.230045 L 0.35994 0.230045 L 0.35994 0.220047 L 0.349941 0.220047 L 0.349941 0.210049 L 0.35994 0.210049 L 0.35994 0.20005 L 0.349941 0.20005 L 0.349941 0.210049 L 0.339943 0.210049 L 0.339943 0.20005 L 0.329945 0.20005 L 0.329945 0.190052 L 0.319946 0.190052 L 0.319946 0.180054 L 0.329945 0.180054 L 0.329945 0.170055 L 0.339943 0.170055 L 0.339943 0.160057 L 0.349941 0.160057 L 0.349941 0.170055 L 0.35994 0.170055 L 0.35994 0.160057 L 0.349941 0.160057 L 0.349941 0.150059 L 0.35994 0.150059 L 0.35994 0.14006 L 0.369938 0.14006 L 0.369938 0.130062 L 0.379936 0.130062 L 0.379936 0.14006 L 0.389935 0.14006 L 0.389935 0.130062 L 0.379936 0.130062 L 0.379936 0.120064 L 0.389935 0.120064 L 0.389935 0.110065 L 0.399933 0.110065 L 0.399933 0.100067 L 0.409931 0.100067 L 0.409931 0.110065 L 0.41993 0.110065 L 0.41993 0.120064 L 0.429928 0.120064 L 0.429928 0.130062 L 0.41993 0.130062 L 0.41993 0.14006 L 0.429928 0.14006 L 0.429928 0.130062 L 0.439926 0.130062 L 0.439926 0.14006 L 0.449924 0.14006 L 0.449924 0.150059 L 0.459923 0.150059 L 0.459923 0.160057 L 0.449924 0.160057 L 0.449924 0.170055 L 0.459923 0.170055 L 0.459923 0.160057 L 0.469921 0.160057 L 0.469921 0.170055 L 0.479919 0.170055 L 0.479919 0.180054 L 0.489918 0.180054 L 0.489918 0.190052 L 0.479919 0.190052 L 0.479919 0.20005 L 0.469921 0.20005 L 0.469921 0.210049 L 0.459923 0.210049 L 0.459923 0.20005 L 0.449924 0.20005 L 0.449924 0.210049 L 0.459923 0.210049 L 0.459923 0.220047 L 0.449924 0.220047 L 0.449924 0.230045 L 0.459923 0.230045 L 0.459923 0.220047 L 0.469921 0.220047 L 0.469921 0.230045 L 0.479919 0.230045 L 0.479919 0.220047 L 0.469921 0.220047 L 0.469921 0.210049 L 0.479919 0.210049 L 0.479919 0.20005 L 0.489918 0.20005 L 0.489918 0.190052 L 0.499916 0.190052 L 0.499916 0.20005 L 0.509914 0.20005 L 0.509914 0.210049 L 0.519913 0.210049 L 0.519913 0.220047 L 0.509914 0.220047 L 0.509914 0.230045 L 0.519913 0.230045 L 0.519913 0.220047 L 0.529911 0.220047 L 0.529911 0.230045 L 0.539909 0.230045 L 0.539909 0.240044 L 0.549908 0.240044 L 0.549908 0.250042 L 0.539909 0.250042 L 0.539909 0.26004 L 0.549908 0.26004 L 0.549908 0.250042 L 0.559906 0.250042 L 0.559906 0.26004 L 0.569904 0.26004 L 0.569904 0.270039 L 0.579903 0.270039 L 0.579903 0.280037 L 0.569904 0.280037 L 0.569904 0.290035 L 0.559906 0.290035 L 0.559906 0.300034 L 0.549908 0.300034 L 0.549908 0.290035 L 0.539909 0.290035 L 0.539909 0.300034 L 0.549908 0.300034 L 0.549908 0.310032 L 0.539909 0.310032 L 0.539909 0.32003 L 0.549908 0.32003 L 0.549908 0.310032 L 0.559906 0.310032 L 0.559906 0.32003 L 0.569904 0.32003 L 0.569904 0.310032 L 0.559906 0.310032 L 0.559906 0.300034 L 0.569904 0.300034 L 0.569904 0.290035 L 0.579903 0.290035 L 0.579903 0.280037 L 0.589901 0.280037 L 0.589901 0.290035 L 0.599899 0.290035 L 0.599899 0.300034 L 0.609898 0.300034 L 0.609898 0.310032 L 0.599899 0.310032 L 0.599899 0.32003 L 0.609898 0.32003 L 0.609898 0.310032 L 0.619896 0.310032 L 0.619896 0.32003 L 0.629894 0.32003 L 0.629894 0.330029 L 0.639893 0.330029 L 0.639893 0.340027 L 0.629894 0.340027 L 0.629894 0.350025 L 0.639893 0.350025 L 0.639893 0.340027 L 0.649891 0.340027 L 0.649891 0.350025 L 0.659889 0.350025 L 0.659889 0.360023 L 0.669888 0.360023 L 0.669888 0.370022 L 0.659889 0.370022 L 0.659889 0.38002 L 0.649891 0.38002 L 0.649891 0.390018 L 0.639893 0.390018 L 0.639893 0.38002 L 0.629894 0.38002 L 0.629894 0.390018 L 0.639893 0.390018 L 0.639893 0.400017 L 0.629894 0.400017 L 0.629894 0.410015 L 0.619896 0.410015 L 0.619896 0.420013 L 0.609898 0.420013 L 0.609898 0.410015 L 0.599899 0.410015 L 0.599899 0.420013 L 0.609898 0.420013 L 0.609898 0.430012 L 0.599899 0.430012 L 0.599899 0.44001 L 0.589901 0.44001 L 0.589901 0.450008 L 0.579903 0.450008 L 0.579903 0.44001 L 0.569904 0.44001 L 0.569904 0.430012 L 0.559906 0.430012 L 0.559906 0.420013 L 0.569904 0.420013 L 0.569904 0.410015 L 0.559906 0.410015 L 0.559906 0.420013 L 0.549908 0.420013 L 0.549908 0.410015 L 0.539909 0.410015 L 0.539909 0.420013 L 0.549908 0.420013 L 0.549908 0.430012 L 0.539909 0.430012 L 0.539909 0.44001 L 0.549908 0.44001 L 0.549908 0.430012 L 0.559906 0.430012 L 0.559906 0.44001 L 0.569904 0.44001 L 0.569904 0.450008 L 0.579903 0.450008 L 0.579903 0.460007 L 0.569904 0.460007 L 0.569904 0.470005 L 0.559906 0.470005 L 0.559906 0.480003 L 0.549908 0.480003 L 0.549908 0.470005 L 0.539909 0.470005 L 0.539909 0.480003 L 0.549908 0.480003 L 0.549908 0.490002 L 0.539909 0.490002 L 0.539909 0.5 L 0.549908 0.5 L 0.549908 0.490002 L 0.559906 0.490002 L 0.559906 0.5 L 0.569904 0.5 L 0.569904 0.490002 L 0.559906 0.490002 L 0.559906 0.480003 L 0.569904 0.480003 L 0.569904 0.470005 L 0.579903 0.470005 L 0.579903 0.460007 L 0.589901 0.460007 L 0.589901 0.470005 L 0.599899 0.470005 L 0.599899 0.480003 L 0.609898 0.480003 L 0.609898 0.490002 L 0.599899 0.490002 L 0.599899 0.5 L 0.609898 0.5 L 0.609898 0.490002 L 0.619896 0.490002 L 0.619896 0.5 L 0.629894 0.5 L 0.629894 0.490002 L 0.619896 0.490002 L 0.619896 0.480003 L 0.629894 0.480003 L 0.629894 0.470005 L 0.619896 0.470005 L 0.619896 0.480003 L 0.609898 0.480003 L 0.609898 0.470005 L 0.599899 0.470005 L 0.599899 0.460007 L 0.589901 0.460007 L 0.589901 0.450008 L 0.599899 0.450008 L 0.599899 0.44001 L 0.609898 0.44001 L 0.609898 0.430012 L 0.619896 0.430012 L 0.619896 0.44001 L 0.629894 0.44001 L 0.629894 0.430012 L 0.619896 0.430012 L 0.619896 0.420013 L 0.629894 0.420013 L 0.629894 0.410015 L 0.639893 0.410015 L 0.639893 0.400017 L 0.649891 0.400017 L 0.649891 0.410015 L 0.659889 0.410015 L 0.659889 0.400017 L 0.649891 0.400017 L 0.649891 0.390018 L 0.659889 0.390018 L 0.659889 0.38002 L 0.669888 0.38002 L 0.669888 0.370022 L 0.679886 0.370022 L 0.679886 0.38002 L 0.689884 0.38002 L 0.689884 0.390018 L 0.699883 0.390018 L 0.699883 0.400017 L 0.689884 0.400017 L 0.689884 0.410015 L 0.699883 0.410015 L 0.699883 0.400017 L 0.709881 0.400017 L 0.709881 0.410015 L 0.719879 0.410015 L 0.719879 0.420013 L 0.729877 0.420013 L 0.729877 0.430012 L 0.719879 0.430012 L 0.719879 0.44001 L 0.729877 0.44001 L 0.729877 0.430012 L 0.739876 0.430012 L 0.739876 0.44001 L 0.749874 0.44001 L 0.749874 0.450008 L 0.759872 0.450008 L 0.759872 0.460007 L 0.749874 0.460007 L 0.749874 0.470005 L 0.739876 0.470005 L 0.739876 0.480003 L 0.729877 0.480003 L 0.729877 0.470005 L 0.719879 0.470005 L 0.719879 0.480003 L 0.729877 0.480003 L 0.729877 0.490002 L 0.719879 0.490002 L 0.719879 0.5 L 0.729877 0.5 L 0.729877 0.490002 L 0.739876 0.490002 L 0.739876 0.5 L 0.749874 0.5 L 0.749874 0.490002 L 0.739876 0.490002 L 0.739876 0.480003 L 0.749874 0.480003 L 0.749874 0.470005 L 0.759872 0.470005 L 0.759872 0.460007 L 0.769871 0.460007 L 0.769871 0.470005 L 0.779869 0.470005 L 0.779869 0.480003 L 0.789867 0.480003 L 0.789867 0.490002 L 0.779869 0.490002 L 0.779869 0.5 L 0.789867 0.5 L 0.789867 0.490002 L 0.799866 0.490002 L 0.799866 0.5 L 0.809864 0.5 " transform="matrix(1024,-0,0,1024,0,0)"/>
</g>
</svg>
