<?xml version="1.0" encoding="UTF-8"?>
<svg xmlns="http://www.w3.org/2000/svg" xmlns:xlink="http://www.w3.org/1999/xlink" width="1024pt" height="1024pt" viewBox="0 0 1024 1024" version="1.1">
<g id="surface51">
<path style="fill:none;stroke-width:0.001;stroke-linecap:butt;stroke-linejoin:miter;stroke:rgb(0%,0%,0%);stroke-opacity:1;stroke-miterlimit:10;" d="M 0.5 0.5 L 0.496464 0.496464 L 0.482319 0.510609 L 0.478783 0.507072 L 0.492928 0.492928 L 0.489391 0.489391 L 0.475246 0.503536 L 0.464638 0.492928 L 0.478783 0.478783 L 0.475246 0.475246 L 0.461102 0.489391 L 0.457565 0.485855 L 0.47171 0.47171 L 0.468174 0.468174 L 0.464638 0.47171 L 0.478783 0.485855 L 0.475246 0.489391 L 0.461102 0.475246 L 0.457565 0.478783 L 0.47171 0.492928 L 0.461102 0.503536 L 0.446957 0.489391 L 0.44342 0.492928 L 0.457565 0.507072 L 0.454029 0.510609 L 0.439884 0.496464 L 0.429276 0.507072 L 0.44342 0.521217 L 0.439884 0.524754 L 0.425739 0.510609 L 0.422203 0.514145 L 0.436348 0.52829 L 0.425739 0.538898 L 0.411594 0.524754 L 0.408058 0.52829 L 0.422203 0.542435 L 0.418667 0.545971 L 0.404522 0.531826 L 0.400986 0.535362 L 0.404522 0.538898 L 0.418667 0.524754 L 0.422203 0.52829 L 0.408058 0.542435 L 0.411594 0.545971 L 0.425739 0.531826 L 0.436348 0.542435 L 0.422203 0.55658 L 0.425739 0.560116 L 0.439884 0.545971 L 0.44342 0.549507 L 0.429276 0.563652 L 0.432812 0.567188 L 0.436348 0.563652 L 0.422203 0.549507 L 0.425739 0.545971 L 0.439884 0.560116 L 0.44342 0.55658 L 0.429276 0.542435 L 0.439884 0.531826 L 0.454029 0.545971 L 0.457565 0.542435 L 0.44342 0.52829 L 0.446957 0.524754 L 0.461102 0.538898 L 0.464638 0.535362 L 0.461102 0.531826 L 0.446957 0.545971 L 0.44342 0.542435 L 0.457565 0.52829 L 0.454029 0.524754 L 0.439884 0.538898 L 0.429276 0.52829 L 0.44342 0.514145 L 0.439884 0.510609 L 0.425739 0.524754 L 0.422203 0.521217 L 0.436348 0.507072 L 0.425739 0.496464 L 0.411594 0.510609 L 0.408058 0.507072 L 0.422203 0.492928 L 0.418667 0.489391 L 0.404522 0.503536 L 0.393913 0.492928 L 0.408058 0.478783 L 0.404522 0.475246 L 0.390377 0.489391 L 0.386841 0.485855 L 0.400986 0.47171 L 0.397449 0.468174 L 0.393913 0.47171 L 0.408058 0.485855 L 0.404522 0.489391 L 0.390377 0.475246 L 0.386841 0.478783 L 0.400986 0.492928 L 0.390377 0.503536 L 0.376232 0.489391 L 0.372696 0.492928 L 0.386841 0.507072 L 0.383305 0.510609 L 0.36916 0.496464 L 0.365623 0.5 L 0.36916 0.503536 L 0.383305 0.489391 L 0.386841 0.492928 L 0.372696 0.507072 L 0.376232 0.510609 L 0.390377 0.496464 L 0.400986 0.507072 L 0.386841 0.521217 L 0.390377 0.524754 L 0.404522 0.510609 L 0.408058 0.514145 L 0.393913 0.52829 L 0.397449 0.531826 L 0.400986 0.52829 L 0.386841 0.514145 L 0.390377 0.510609 L 0.404522 0.524754 L 0.408058 0.521217 L 0.393913 0.507072 L 0.404522 0.496464 L 0.418667 0.510609 L 0.422203 0.507072 L 0.408058 0.492928 L 0.411594 0.489391 L 0.425739 0.503536 L 0.436348 0.492928 L 0.422203 0.478783 L 0.425739 0.475246 L 0.439884 0.489391 L 0.44342 0.485855 L 0.429276 0.47171 L 0.439884 0.461102 L 0.454029 0.475246 L 0.457565 0.47171 L 0.44342 0.457565 L 0.446957 0.454029 L 0.461102 0.468174 L 0.464638 0.464638 L 0.461102 0.461102 L 0.446957 0.475246 L 0.44342 0.47171 L 0.457565 0.457565 L 0.454029 0.454029 L 0.439884 0.468174 L 0.429276 0.457565 L 0.44342 0.44342 L 0.439884 0.439884 L 0.425739 0.454029 L 0.422203 0.450493 L 0.436348 0.436348 L 0.432812 0.432812 L 0.429276 0.436348 L 0.44342 0.450493 L 0.439884 0.454029 L 0.425739 0.439884 L 0.422203 0.44342 L 0.436348 0.457565 L 0.425739 0.468174 L 0.411594 0.454029 L 0.408058 0.457565 L 0.422203 0.47171 L 0.418667 0.475246 L 0.404522 0.461102 L 0.400986 0.464638 L 0.404522 0.468174 L 0.418667 0.454029 L 0.422203 0.457565 L 0.408058 0.47171 L 0.411594 0.475246 L 0.425739 0.461102 L 0.436348 0.47171 L 0.422203 0.485855 L 0.425739 0.489391 L 0.439884 0.475246 L 0.44342 0.478783 L 0.429276 0.492928 L 0.439884 0.503536 L 0.454029 0.489391 L 0.457565 0.492928 L 0.44342 0.507072 L 0.446957 0.510609 L 0.461102 0.496464 L 0.47171 0.507072 L 0.457565 0.521217 L 0.461102 0.524754 L 0.475246 0.510609 L 0.478783 0.514145 L 0.464638 0.52829 L 0.468174 0.531826 L 0.47171 0.52829 L 0.457565 0.514145 L 0.461102 0.510609 L 0.475246 0.524754 L 0.478783 0.521217 L 0.464638 0.507072 L 0.475246 0.496464 L 0.489391 0.510609 L 0.492928 0.507072 L 0.478783 0.492928 L 0.482319 0.489391 L 0.496464 0.503536 L 0.5 0.5 " transform="matrix(1024,0,0,1024,0,0)"/>
</g>
</svg>
