<?xml version="1.0" encoding="UTF-8"?>
<svg xmlns="http://www.w3.org/2000/svg" xmlns:xlink="http://www.w3.org/1999/xlink" width="1024pt" height="1024pt" viewBox="0 0 1024 1024" version="1.1">
<g id="surface26">
<path style="fill:none;stroke-width:0.001;stroke-linecap:butt;stroke-linejoin:miter;stroke:rgb(0%,0%,0%);stroke-opacity:1;stroke-miterlimit:10;" d="M 0.5 0.5 L 0.494999 0.5 L 0.494999 0.494999 L 0.5 0.494999 L 0.5 0.484997 L 0.494999 0.484997 L 0.494999 0.489998 L 0.489998 0.489998 L 0.489998 0.484997 L 0.484997 0.484997 L 0.484997 0.494999 L 0.489998 0.494999 L 0.489998 0.5 L 0.479996 0.5 L 0.479996 0.494999 L 0.474995 0.494999 L 0.474995 0.5 L 0.464993 0.5 L 0.464993 0.494999 L 0.469994 0.494999 L 0.469994 0.489998 L 0.464993 0.489998 L 0.464993 0.484997 L 0.474995 0.484997 L 0.474995 0.489998 L 0.479996 0.489998 L 0.479996 0.474995 L 0.474995 0.474995 L 0.474995 0.479996 L 0.464993 0.479996 L 0.464993 0.474995 L 0.469994 0.474995 L 0.469994 0.469994 L 0.464993 0.469994 L 0.464993 0.464993 L 0.474995 0.464993 L 0.474995 0.469994 L 0.479996 0.469994 L 0.479996 0.464993 L 0.489998 0.464993 L 0.489998 0.469994 L 0.484997 0.469994 L 0.484997 0.479996 L 0.489998 0.479996 L 0.489998 0.474995 L 0.494999 0.474995 L 0.494999 0.479996 L 0.5 0.479996 L 0.5 0.469994 L 0.494999 0.469994 L 0.494999 0.464993 L 0.5 0.464993 L 0.5 0.45499 L 0.494999 0.45499 L 0.494999 0.459991 L 0.484997 0.459991 L 0.484997 0.45499 L 0.489998 0.45499 L 0.489998 0.449989 L 0.484997 0.449989 L 0.484997 0.444988 L 0.494999 0.444988 L 0.494999 0.449989 L 0.5 0.449989 L 0.5 0.439987 L 0.494999 0.439987 L 0.494999 0.434986 L 0.5 0.434986 L 0.5 0.424984 L 0.494999 0.424984 L 0.494999 0.429985 L 0.489998 0.429985 L 0.489998 0.424984 L 0.484997 0.424984 L 0.484997 0.434986 L 0.489998 0.434986 L 0.489998 0.439987 L 0.474995 0.439987 L 0.474995 0.434986 L 0.479996 0.434986 L 0.479996 0.424984 L 0.474995 0.424984 L 0.474995 0.429985 L 0.469994 0.429985 L 0.469994 0.424984 L 0.464993 0.424984 L 0.464993 0.434986 L 0.469994 0.434986 L 0.469994 0.439987 L 0.464993 0.439987 L 0.464993 0.449989 L 0.469994 0.449989 L 0.469994 0.444988 L 0.479996 0.444988 L 0.479996 0.449989 L 0.474995 0.449989 L 0.474995 0.45499 L 0.479996 0.45499 L 0.479996 0.459991 L 0.469994 0.459991 L 0.469994 0.45499 L 0.464993 0.45499 L 0.464993 0.459991 L 0.459991 0.459991 L 0.459991 0.45499 L 0.45499 0.45499 L 0.45499 0.459991 L 0.444988 0.459991 L 0.444988 0.45499 L 0.449989 0.45499 L 0.449989 0.449989 L 0.444988 0.449989 L 0.444988 0.444988 L 0.45499 0.444988 L 0.45499 0.449989 L 0.459991 0.449989 L 0.459991 0.439987 L 0.45499 0.439987 L 0.45499 0.434986 L 0.459991 0.434986 L 0.459991 0.424984 L 0.45499 0.424984 L 0.45499 0.429985 L 0.449989 0.429985 L 0.449989 0.424984 L 0.444988 0.424984 L 0.444988 0.434986 L 0.449989 0.434986 L 0.449989 0.439987 L 0.434986 0.439987 L 0.434986 0.434986 L 0.439987 0.434986 L 0.439987 0.424984 L 0.434986 0.424984 L 0.434986 0.429985 L 0.429985 0.429985 L 0.429985 0.424984 L 0.424984 0.424984 L 0.424984 0.434986 L 0.429985 0.434986 L 0.429985 0.439987 L 0.424984 0.439987 L 0.424984 0.449989 L 0.429985 0.449989 L 0.429985 0.444988 L 0.439987 0.444988 L 0.439987 0.449989 L 0.434986 0.449989 L 0.434986 0.45499 L 0.439987 0.45499 L 0.439987 0.459991 L 0.429985 0.459991 L 0.429985 0.45499 L 0.424984 0.45499 L 0.424984 0.464993 L 0.429985 0.464993 L 0.429985 0.469994 L 0.424984 0.469994 L 0.424984 0.479996 L 0.429985 0.479996 L 0.429985 0.474995 L 0.434986 0.474995 L 0.434986 0.479996 L 0.439987 0.479996 L 0.439987 0.469994 L 0.434986 0.469994 L 0.434986 0.464993 L 0.444988 0.464993 L 0.444988 0.469994 L 0.449989 0.469994 L 0.449989 0.464993 L 0.459991 0.464993 L 0.459991 0.469994 L 0.45499 0.469994 L 0.45499 0.474995 L 0.459991 0.474995 L 0.459991 0.479996 L 0.449989 0.479996 L 0.449989 0.474995 L 0.444988 0.474995 L 0.444988 0.489998 L 0.449989 0.489998 L 0.449989 0.484997 L 0.459991 0.484997 L 0.459991 0.489998 L 0.45499 0.489998 L 0.45499 0.494999 L 0.459991 0.494999 L 0.459991 0.5 L 0.449989 0.5 L 0.449989 0.494999 L 0.444988 0.494999 L 0.444988 0.5 L 0.434986 0.5 L 0.434986 0.494999 L 0.439987 0.494999 L 0.439987 0.484997 L 0.434986 0.484997 L 0.434986 0.489998 L 0.429985 0.489998 L 0.429985 0.484997 L 0.424984 0.484997 L 0.424984 0.494999 L 0.429985 0.494999 L 0.429985 0.5 L 0.419983 0.5 L 0.419983 0.494999 L 0.414982 0.494999 L 0.414982 0.5 L 0.40498 0.5 L 0.40498 0.494999 L 0.409981 0.494999 L 0.409981 0.489998 L 0.40498 0.489998 L 0.40498 0.484997 L 0.414982 0.484997 L 0.414982 0.489998 L 0.419983 0.489998 L 0.419983 0.479996 L 0.414982 0.479996 L 0.414982 0.474995 L 0.419983 0.474995 L 0.419983 0.464993 L 0.414982 0.464993 L 0.414982 0.469994 L 0.409981 0.469994 L 0.409981 0.464993 L 0.40498 0.464993 L 0.40498 0.474995 L 0.409981 0.474995 L 0.409981 0.479996 L 0.394978 0.479996 L 0.394978 0.474995 L 0.399979 0.474995 L 0.399979 0.464993 L 0.394978 0.464993 L 0.394978 0.469994 L 0.389977 0.469994 L 0.389977 0.464993 L 0.384975 0.464993 L 0.384975 0.474995 L 0.389977 0.474995 L 0.389977 0.479996 L 0.384975 0.479996 L 0.384975 0.489998 L 0.389977 0.489998 L 0.389977 0.484997 L 0.399979 0.484997 L 0.399979 0.489998 L 0.394978 0.489998 L 0.394978 0.494999 L 0.399979 0.494999 L 0.399979 0.5 L 0.389977 0.5 L 0.389977 0.494999 L 0.384975 0.494999 L 0.384975 0.5 L 0.374973 0.5 L 0.374973 0.494999 L 0.379974 0.494999 L 0.379974 0.484997 L 0.374973 0.484997 L 0.374973 0.489998 L 0.369972 0.489998 L 0.369972 0.484997 L 0.364971 0.484997 L 0.364971 0.494999 L 0.369972 0.494999 L 0.369972 0.5 L 0.35997 0.5 L 0.35997 0.494999 L 0.354969 0.494999 L 0.354969 0.5 L 0.344967 0.5 L 0.344967 0.494999 L 0.349968 0.494999 L 0.349968 0.489998 L 0.344967 0.489998 L 0.344967 0.484997 L 0.354969 0.484997 L 0.354969 0.489998 L 0.35997 0.489998 L 0.35997 0.474995 L 0.354969 0.474995 L 0.354969 0.479996 L 0.344967 0.479996 L 0.344967 0.474995 L 0.349968 0.474995 L 0.349968 0.469994 L 0.344967 0.469994 L 0.344967 0.464993 L 0.354969 0.464993 L 0.354969 0.469994 L 0.35997 0.469994 L 0.35997 0.464993 L 0.369972 0.464993 L 0.369972 0.469994 L 0.364971 0.469994 L 0.364971 0.479996 L 0.369972 0.479996 L 0.369972 0.474995 L 0.374973 0.474995 L 0.374973 0.479996 L 0.379974 0.479996 L 0.379974 0.469994 L 0.374973 0.469994 L 0.374973 0.464993 L 0.379974 0.464993 L 0.379974 0.459991 L 0.374973 0.459991 L 0.374973 0.45499 L 0.379974 0.45499 L 0.379974 0.444988 L 0.374973 0.444988 L 0.374973 0.449989 L 0.369972 0.449989 L 0.369972 0.444988 L 0.364971 0.444988 L 0.364971 0.45499 L 0.369972 0.45499 L 0.369972 0.459991 L 0.35997 0.459991 L 0.35997 0.45499 L 0.354969 0.45499 L 0.354969 0.459991 L 0.344967 0.459991 L 0.344967 0.45499 L 0.349968 0.45499 L 0.349968 0.449989 L 0.344967 0.449989 L 0.344967 0.444988 L 0.354969 0.444988 L 0.354969 0.449989 L 0.35997 0.449989 L 0.35997 0.434986 L 0.354969 0.434986 L 0.354969 0.439987 L 0.344967 0.439987 L 0.344967 0.434986 L 0.349968 0.434986 L 0.349968 0.429985 L 0.344967 0.429985 L 0.344967 0.424984 L 0.354969 0.424984 L 0.354969 0.429985 L 0.35997 0.429985 L 0.35997 0.424984 L 0.369972 0.424984 L 0.369972 0.429985 L 0.364971 0.429985 L 0.364971 0.439987 L 0.369972 0.439987 L 0.369972 0.434986 L 0.374973 0.434986 L 0.374973 0.439987 L 0.379974 0.439987 L 0.379974 0.429985 L 0.374973 0.429985 L 0.374973 0.424984 L 0.384975 0.424984 L 0.384975 0.429985 L 0.389977 0.429985 L 0.389977 0.424984 L 0.399979 0.424984 L 0.399979 0.429985 L 0.394978 0.429985 L 0.394978 0.434986 L 0.399979 0.434986 L 0.399979 0.439987 L 0.389977 0.439987 L 0.389977 0.434986 L 0.384975 0.434986 L 0.384975 0.444988 L 0.389977 0.444988 L 0.389977 0.449989 L 0.384975 0.449989 L 0.384975 0.459991 L 0.389977 0.459991 L 0.389977 0.45499 L 0.394978 0.45499 L 0.394978 0.459991 L 0.399979 0.459991 L 0.399979 0.449989 L 0.394978 0.449989 L 0.394978 0.444988 L 0.409981 0.444988 L 0.409981 0.449989 L 0.40498 0.449989 L 0.40498 0.459991 L 0.409981 0.459991 L 0.409981 0.45499 L 0.414982 0.45499 L 0.414982 0.459991 L 0.419983 0.459991 L 0.419983 0.449989 L 0.414982 0.449989 L 0.414982 0.444988 L 0.419983 0.444988 L 0.419983 0.434986 L 0.414982 0.434986 L 0.414982 0.439987 L 0.40498 0.439987 L 0.40498 0.434986 L 0.409981 0.434986 L 0.409981 0.429985 L 0.40498 0.429985 L 0.40498 0.424984 L 0.414982 0.424984 L 0.414982 0.429985 L 0.419983 0.429985 L 0.419983 0.414982 L 0.414982 0.414982 L 0.414982 0.419983 L 0.40498 0.419983 L 0.40498 0.414982 L 0.409981 0.414982 L 0.409981 0.409981 L 0.40498 0.409981 L 0.40498 0.40498 L 0.414982 0.40498 L 0.414982 0.409981 L 0.419983 0.409981 L 0.419983 0.399979 L 0.414982 0.399979 L 0.414982 0.394978 L 0.419983 0.394978 L 0.419983 0.384975 L 0.414982 0.384975 L 0.414982 0.389977 L 0.409981 0.389977 L 0.409981 0.384975 L 0.40498 0.384975 L 0.40498 0.394978 L 0.409981 0.394978 L 0.409981 0.399979 L 0.394978 0.399979 L 0.394978 0.394978 L 0.399979 0.394978 L 0.399979 0.384975 L 0.394978 0.384975 L 0.394978 0.389977 L 0.389977 0.389977 L 0.389977 0.384975 L 0.384975 0.384975 L 0.384975 0.394978 L 0.389977 0.394978 L 0.389977 0.399979 L 0.384975 0.399979 L 0.384975 0.409981 L 0.389977 0.409981 L 0.389977 0.40498 L 0.399979 0.40498 L 0.399979 0.409981 L 0.394978 0.409981 L 0.394978 0.414982 L 0.399979 0.414982 L 0.399979 0.419983 L 0.389977 0.419983 L 0.389977 0.414982 L 0.384975 0.414982 L 0.384975 0.419983 L 0.374973 0.419983 L 0.374973 0.414982 L 0.379974 0.414982 L 0.379974 0.40498 L 0.374973 0.40498 L 0.374973 0.409981 L 0.369972 0.409981 L 0.369972 0.40498 L 0.364971 0.40498 L 0.364971 0.414982 L 0.369972 0.414982 L 0.369972 0.419983 L 0.35997 0.419983 L 0.35997 0.414982 L 0.354969 0.414982 L 0.354969 0.419983 L 0.344967 0.419983 L 0.344967 0.414982 L 0.349968 0.414982 L 0.349968 0.409981 L 0.344967 0.409981 L 0.344967 0.40498 L 0.354969 0.40498 L 0.354969 0.409981 L 0.35997 0.409981 L 0.35997 0.394978 L 0.354969 0.394978 L 0.354969 0.399979 L 0.344967 0.399979 L 0.344967 0.394978 L 0.349968 0.394978 L 0.349968 0.389977 L 0.344967 0.389977 L 0.344967 0.384975 L 0.354969 0.384975 L 0.354969 0.389977 L 0.35997 0.389977 L 0.35997 0.384975 L 0.369972 0.384975 L 0.369972 0.389977 L 0.364971 0.389977 L 0.364971 0.399979 L 0.369972 0.399979 L 0.369972 0.394978 L 0.374973 0.394978 L 0.374973 0.399979 L 0.379974 0.399979 L 0.379974 0.389977 L 0.374973 0.389977 L 0.374973 0.384975 L 0.379974 0.384975 L 0.379974 0.379974 L 0.374973 0.379974 L 0.374973 0.374973 L 0.379974 0.374973 L 0.379974 0.364971 L 0.374973 0.364971 L 0.374973 0.369972 L 0.369972 0.369972 L 0.369972 0.364971 L 0.364971 0.364971 L 0.364971 0.374973 L 0.369972 0.374973 L 0.369972 0.379974 L 0.35997 0.379974 L 0.35997 0.374973 L 0.354969 0.374973 L 0.354969 0.379974 L 0.344967 0.379974 L 0.344967 0.374973 L 0.349968 0.374973 L 0.349968 0.369972 L 0.344967 0.369972 L 0.344967 0.364971 L 0.354969 0.364971 L 0.354969 0.369972 L 0.35997 0.369972 L 0.35997 0.354969 L 0.354969 0.354969 L 0.354969 0.35997 L 0.344967 0.35997 L 0.344967 0.354969 L 0.349968 0.354969 L 0.349968 0.349968 L 0.344967 0.349968 L 0.344967 0.344967 L 0.354969 0.344967 L 0.354969 0.349968 L 0.35997 0.349968 L 0.35997 0.344967 L 0.369972 0.344967 L 0.369972 0.349968 L 0.364971 0.349968 L 0.364971 0.35997 L 0.369972 0.35997 L 0.369972 0.354969 L 0.374973 0.354969 L 0.374973 0.35997 L 0.379974 0.35997 L 0.379974 0.349968 L 0.374973 0.349968 L 0.374973 0.344967 L 0.384975 0.344967 L 0.384975 0.349968 L 0.389977 0.349968 L 0.389977 0.344967 L 0.399979 0.344967 L 0.399979 0.349968 L 0.394978 0.349968 L 0.394978 0.354969 L 0.399979 0.354969 L 0.399979 0.35997 L 0.389977 0.35997 L 0.389977 0.354969 L 0.384975 0.354969 L 0.384975 0.364971 L 0.389977 0.364971 L 0.389977 0.369972 L 0.384975 0.369972 L 0.384975 0.379974 L 0.389977 0.379974 L 0.389977 0.374973 L 0.394978 0.374973 L 0.394978 0.379974 L 0.399979 0.379974 L 0.399979 0.369972 L 0.394978 0.369972 L 0.394978 0.364971 L 0.409981 0.364971 L 0.409981 0.369972 L 0.40498 0.369972 L 0.40498 0.379974 L 0.409981 0.379974 L 0.409981 0.374973 L 0.414982 0.374973 L 0.414982 0.379974 L 0.419983 0.379974 L 0.419983 0.369972 L 0.414982 0.369972 L 0.414982 0.364971 L 0.419983 0.364971 L 0.419983 0.354969 L 0.414982 0.354969 L 0.414982 0.35997 L 0.40498 0.35997 L 0.40498 0.354969 L 0.409981 0.354969 L 0.409981 0.349968 L 0.40498 0.349968 L 0.40498 0.344967 L 0.414982 0.344967 L 0.414982 0.349968 L 0.419983 0.349968 L 0.419983 0.344967 L 0.429985 0.344967 L 0.429985 0.349968 L 0.424984 0.349968 L 0.424984 0.35997 L 0.429985 0.35997 L 0.429985 0.354969 L 0.434986 0.354969 L 0.434986 0.35997 L 0.439987 0.35997 L 0.439987 0.349968 L 0.434986 0.349968 L 0.434986 0.344967 L 0.444988 0.344967 L 0.444988 0.349968 L 0.449989 0.349968 L 0.449989 0.344967 L 0.459991 0.344967 L 0.459991 0.349968 L 0.45499 0.349968 L 0.45499 0.354969 L 0.459991 0.354969 L 0.459991 0.35997 L 0.449989 0.35997 L 0.449989 0.354969 L 0.444988 0.354969 L 0.444988 0.369972 L 0.449989 0.369972 L 0.449989 0.364971 L 0.459991 0.364971 L 0.459991 0.369972 L 0.45499 0.369972 L 0.45499 0.374973 L 0.459991 0.374973 L 0.459991 0.379974 L 0.449989 0.379974 L 0.449989 0.374973 L 0.444988 0.374973 L 0.444988 0.379974 L 0.434986 0.379974 L 0.434986 0.374973 L 0.439987 0.374973 L 0.439987 0.364971 L 0.434986 0.364971 L 0.434986 0.369972 L 0.429985 0.369972 L 0.429985 0.364971 L 0.424984 0.364971 L 0.424984 0.374973 L 0.429985 0.374973 L 0.429985 0.379974 L 0.424984 0.379974 L 0.424984 0.389977 L 0.429985 0.389977 L 0.429985 0.384975 L 0.439987 0.384975 L 0.439987 0.389977 L 0.434986 0.389977 L 0.434986 0.394978 L 0.439987 0.394978 L 0.439987 0.399979 L 0.429985 0.399979 L 0.429985 0.394978 L 0.424984 0.394978 L 0.424984 0.40498 L 0.429985 0.40498 L 0.429985 0.409981 L 0.424984 0.409981 L 0.424984 0.419983 L 0.429985 0.419983 L 0.429985 0.414982 L 0.434986 0.414982 L 0.434986 0.419983 L 0.439987 0.419983 L 0.439987 0.409981 L 0.434986 0.409981 L 0.434986 0.40498 L 0.449989 0.40498 L 0.449989 0.409981 L 0.444988 0.409981 L 0.444988 0.419983 L 0.449989 0.419983 L 0.449989 0.414982 L 0.45499 0.414982 L 0.45499 0.419983 L 0.459991 0.419983 L 0.459991 0.409981 L 0.45499 0.409981 L 0.45499 0.40498 L 0.459991 0.40498 L 0.459991 0.394978 L 0.45499 0.394978 L 0.45499 0.399979 L 0.444988 0.399979 L 0.444988 0.394978 L 0.449989 0.394978 L 0.449989 0.389977 L 0.444988 0.389977 L 0.444988 0.384975 L 0.45499 0.384975 L 0.45499 0.389977 L 0.459991 0.389977 L 0.459991 0.384975 L 0.464993 0.384975 L 0.464993 0.389977 L 0.469994 0.389977 L 0.469994 0.384975 L 0.479996 0.384975 L 0.479996 0.389977 L 0.474995 0.389977 L 0.474995 0.394978 L 0.479996 0.394978 L 0.479996 0.399979 L 0.469994 0.399979 L 0.469994 0.394978 L 0.464993 0.394978 L 0.464993 0.40498 L 0.469994 0.40498 L 0.469994 0.409981 L 0.464993 0.409981 L 0.464993 0.419983 L 0.469994 0.419983 L 0.469994 0.414982 L 0.474995 0.414982 L 0.474995 0.419983 L 0.479996 0.419983 L 0.479996 0.409981 L 0.474995 0.409981 L 0.474995 0.40498 L 0.489998 0.40498 L 0.489998 0.409981 L 0.484997 0.409981 L 0.484997 0.419983 L 0.489998 0.419983 L 0.489998 0.414982 L 0.494999 0.414982 L 0.494999 0.419983 L 0.5 0.419983 L 0.5 0.409981 L 0.494999 0.409981 L 0.494999 0.40498 L 0.5 0.40498 L 0.5 0.394978 L 0.494999 0.394978 L 0.494999 0.399979 L 0.484997 0.399979 L 0.484997 0.394978 L 0.489998 0.394978 L 0.489998 0.389977 L 0.484997 0.389977 L 0.484997 0.384975 L 0.494999 0.384975 L 0.494999 0.389977 L 0.5 0.389977 L 0.5 0.379974 L 0.494999 0.379974 L 0.494999 0.374973 L 0.5 0.374973 L 0.5 0.364971 L 0.494999 0.364971 L 0.494999 0.369972 L 0.489998 0.369972 L 0.489998 0.364971 L 0.484997 0.364971 L 0.484997 0.374973 L 0.489998 0.374973 L 0.489998 0.379974 L 0.479996 0.379974 L 0.479996 0.374973 L 0.474995 0.374973 L 0.474995 0.379974 L 0.464993 0.379974 L 0.464993 0.374973 L 0.469994 0.374973 L 0.469994 0.369972 L 0.464993 0.369972 L 0.464993 0.364971 L 0.474995 0.364971 L 0.474995 0.369972 L 0.479996 0.369972 L 0.479996 0.354969 L 0.474995 0.354969 L 0.474995 0.35997 L 0.464993 0.35997 L 0.464993 0.354969 L 0.469994 0.354969 L 0.469994 0.349968 L 0.464993 0.349968 L 0.464993 0.344967 L 0.474995 0.344967 L 0.474995 0.349968 L 0.479996 0.349968 L 0.479996 0.344967 L 0.489998 0.344967 L 0.489998 0.349968 L 0.484997 0.349968 L 0.484997 0.35997 L 0.489998 0.35997 L 0.489998 0.354969 L 0.494999 0.354969 L 0.494999 0.35997 L 0.5 0.35997 L 0.5 0.349968 L 0.494999 0.349968 L 0.494999 0.344967 L 0.5 0.344967 L 0.5 0.339966 L 0.494999 0.339966 L 0.494999 0.334965 L 0.5 0.334965 L 0.5 0.324963 L 0.494999 0.324963 L 0.494999 0.329964 L 0.489998 0.329964 L 0.489998 0.324963 L 0.484997 0.324963 L 0.484997 0.334965 L 0.489998 0.334965 L 0.489998 0.339966 L 0.479996 0.339966 L 0.479996 0.334965 L 0.474995 0.334965 L 0.474995 0.339966 L 0.464993 0.339966 L 0.464993 0.334965 L 0.469994 0.334965 L 0.469994 0.329964 L 0.464993 0.329964 L 0.464993 0.324963 L 0.474995 0.324963 L 0.474995 0.329964 L 0.479996 0.329964 L 0.479996 0.31496 L 0.474995 0.31496 L 0.474995 0.319962 L 0.464993 0.319962 L 0.464993 0.31496 L 0.469994 0.31496 L 0.469994 0.309959 L 0.464993 0.309959 L 0.464993 0.304958 L 0.474995 0.304958 L 0.474995 0.309959 L 0.479996 0.309959 L 0.479996 0.304958 L 0.489998 0.304958 L 0.489998 0.309959 L 0.484997 0.309959 L 0.484997 0.319962 L 0.489998 0.319962 L 0.489998 0.31496 L 0.494999 0.31496 L 0.494999 0.319962 L 0.5 0.319962 L 0.5 0.309959 L 0.494999 0.309959 L 0.494999 0.304958 L 0.5 0.304958 L 0.5 0.294956 L 0.494999 0.294956 L 0.494999 0.299957 L 0.484997 0.299957 L 0.484997 0.294956 L 0.489998 0.294956 L 0.489998 0.289955 L 0.484997 0.289955 L 0.484997 0.284954 L 0.494999 0.284954 L 0.494999 0.289955 L 0.5 0.289955 L 0.5 0.279953 L 0.494999 0.279953 L 0.494999 0.274952 L 0.5 0.274952 L 0.5 0.26495 L 0.494999 0.26495 L 0.494999 0.269951 L 0.489998 0.269951 L 0.489998 0.26495 L 0.484997 0.26495 L 0.484997 0.274952 L 0.489998 0.274952 L 0.489998 0.279953 L 0.474995 0.279953 L 0.474995 0.274952 L 0.479996 0.274952 L 0.479996 0.26495 L 0.474995 0.26495 L 0.474995 0.269951 L 0.469994 0.269951 L 0.469994 0.26495 L 0.464993 0.26495 L 0.464993 0.274952 L 0.469994 0.274952 L 0.469994 0.279953 L 0.464993 0.279953 L 0.464993 0.289955 L 0.469994 0.289955 L 0.469994 0.284954 L 0.479996 0.284954 L 0.479996 0.289955 L 0.474995 0.289955 L 0.474995 0.294956 L 0.479996 0.294956 L 0.479996 0.299957 L 0.469994 0.299957 L 0.469994 0.294956 L 0.464993 0.294956 L 0.464993 0.299957 L 0.459991 0.299957 L 0.459991 0.294956 L 0.45499 0.294956 L 0.45499 0.299957 L 0.444988 0.299957 L 0.444988 0.294956 L 0.449989 0.294956 L 0.449989 0.289955 L 0.444988 0.289955 L 0.444988 0.284954 L 0.45499 0.284954 L 0.45499 0.289955 L 0.459991 0.289955 L 0.459991 0.279953 L 0.45499 0.279953 L 0.45499 0.274952 L 0.459991 0.274952 L 0.459991 0.26495 L 0.45499 0.26495 L 0.45499 0.269951 L 0.449989 0.269951 L 0.449989 0.26495 L 0.444988 0.26495 L 0.444988 0.274952 L 0.449989 0.274952 L 0.449989 0.279953 L 0.434986 0.279953 L 0.434986 0.274952 L 0.439987 0.274952 L 0.439987 0.26495 L 0.434986 0.26495 L 0.434986 0.269951 L 0.429985 0.269951 L 0.429985 0.26495 L 0.424984 0.26495 L 0.424984 0.274952 L 0.429985 0.274952 L 0.429985 0.279953 L 0.424984 0.279953 L 0.424984 0.289955 L 0.429985 0.289955 L 0.429985 0.284954 L 0.439987 0.284954 L 0.439987 0.289955 L 0.434986 0.289955 L 0.434986 0.294956 L 0.439987 0.294956 L 0.439987 0.299957 L 0.429985 0.299957 L 0.429985 0.294956 L 0.424984 0.294956 L 0.424984 0.304958 L 0.429985 0.304958 L 0.429985 0.309959 L 0.424984 0.309959 L 0.424984 0.319962 L 0.429985 0.319962 L 0.429985 0.31496 L 0.434986 0.31496 L 0.434986 0.319962 L 0.439987 0.319962 L 0.439987 0.309959 L 0.434986 0.309959 L 0.434986 0.304958 L 0.444988 0.304958 L 0.444988 0.309959 L 0.449989 0.309959 L 0.449989 0.304958 L 0.459991 0.304958 L 0.459991 0.309959 L 0.45499 0.309959 L 0.45499 0.31496 L 0.459991 0.31496 L 0.459991 0.319962 L 0.449989 0.319962 L 0.449989 0.31496 L 0.444988 0.31496 L 0.444988 0.329964 L 0.449989 0.329964 L 0.449989 0.324963 L 0.459991 0.324963 L 0.459991 0.329964 L 0.45499 0.329964 L 0.45499 0.334965 L 0.459991 0.334965 L 0.459991 0.339966 L 0.449989 0.339966 L 0.449989 0.334965 L 0.444988 0.334965 L 0.444988 0.339966 L 0.434986 0.339966 L 0.434986 0.334965 L 0.439987 0.334965 L 0.439987 0.324963 L 0.434986 0.324963 L 0.434986 0.329964 L 0.429985 0.329964 L 0.429985 0.324963 L 0.424984 0.324963 L 0.424984 0.334965 L 0.429985 0.334965 L 0.429985 0.339966 L 0.419983 0.339966 L 0.419983 0.334965 L 0.414982 0.334965 L 0.414982 0.339966 L 0.40498 0.339966 L 0.40498 0.334965 L 0.409981 0.334965 L 0.409981 0.329964 L 0.40498 0.329964 L 0.40498 0.324963 L 0.414982 0.324963 L 0.414982 0.329964 L 0.419983 0.329964 L 0.419983 0.319962 L 0.414982 0.319962 L 0.414982 0.31496 L 0.419983 0.31496 L 0.419983 0.304958 L 0.414982 0.304958 L 0.414982 0.309959 L 0.409981 0.309959 L 0.409981 0.304958 L 0.40498 0.304958 L 0.40498 0.31496 L 0.409981 0.31496 L 0.409981 0.319962 L 0.394978 0.319962 L 0.394978 0.31496 L 0.399979 0.31496 L 0.399979 0.304958 L 0.394978 0.304958 L 0.394978 0.309959 L 0.389977 0.309959 L 0.389977 0.304958 L 0.384975 0.304958 L 0.384975 0.31496 L 0.389977 0.31496 L 0.389977 0.319962 L 0.384975 0.319962 L 0.384975 0.329964 L 0.389977 0.329964 L 0.389977 0.324963 L 0.399979 0.324963 L 0.399979 0.329964 L 0.394978 0.329964 L 0.394978 0.334965 L 0.399979 0.334965 L 0.399979 0.339966 L 0.389977 0.339966 L 0.389977 0.334965 L 0.384975 0.334965 L 0.384975 0.339966 L 0.374973 0.339966 L 0.374973 0.334965 L 0.379974 0.334965 L 0.379974 0.324963 L 0.374973 0.324963 L 0.374973 0.329964 L 0.369972 0.329964 L 0.369972 0.324963 L 0.364971 0.324963 L 0.364971 0.334965 L 0.369972 0.334965 L 0.369972 0.339966 L 0.35997 0.339966 L 0.35997 0.334965 L 0.354969 0.334965 L 0.354969 0.339966 L 0.344967 0.339966 L 0.344967 0.334965 L 0.349968 0.334965 L 0.349968 0.329964 L 0.344967 0.329964 L 0.344967 0.324963 L 0.354969 0.324963 L 0.354969 0.329964 L 0.35997 0.329964 L 0.35997 0.31496 L 0.354969 0.31496 L 0.354969 0.319962 L 0.344967 0.319962 L 0.344967 0.31496 L 0.349968 0.31496 L 0.349968 0.309959 L 0.344967 0.309959 L 0.344967 0.304958 L 0.354969 0.304958 L 0.354969 0.309959 L 0.35997 0.309959 L 0.35997 0.304958 L 0.369972 0.304958 L 0.369972 0.309959 L 0.364971 0.309959 L 0.364971 0.319962 L 0.369972 0.319962 L 0.369972 0.31496 L 0.374973 0.31496 L 0.374973 0.319962 L 0.379974 0.319962 L 0.379974 0.309959 L 0.374973 0.309959 L 0.374973 0.304958 L 0.379974 0.304958 L 0.379974 0.299957 L 0.374973 0.299957 L 0.374973 0.294956 L 0.379974 0.294956 L 0.379974 0.284954 L 0.374973 0.284954 L 0.374973 0.289955 L 0.369972 0.289955 L 0.369972 0.284954 L 0.364971 0.284954 L 0.364971 0.294956 L 0.369972 0.294956 L 0.369972 0.299957 L 0.35997 0.299957 L 0.35997 0.294956 L 0.354969 0.294956 L 0.354969 0.299957 L 0.344967 0.299957 L 0.344967 0.294956 L 0.349968 0.294956 L 0.349968 0.289955 L 0.344967 0.289955 L 0.344967 0.284954 L 0.354969 0.284954 L 0.354969 0.289955 L 0.35997 0.289955 L 0.35997 0.274952 L 0.354969 0.274952 L 0.354969 0.279953 L 0.344967 0.279953 L 0.344967 0.274952 L 0.349968 0.274952 L 0.349968 0.269951 L 0.344967 0.269951 L 0.344967 0.26495 L 0.354969 0.26495 L 0.354969 0.269951 L 0.35997 0.269951 L 0.35997 0.26495 L 0.369972 0.26495 L 0.369972 0.269951 L 0.364971 0.269951 L 0.364971 0.279953 L 0.369972 0.279953 L 0.369972 0.274952 L 0.374973 0.274952 L 0.374973 0.279953 L 0.379974 0.279953 L 0.379974 0.269951 L 0.374973 0.269951 L 0.374973 0.26495 L 0.384975 0.26495 L 0.384975 0.269951 L 0.389977 0.269951 L 0.389977 0.26495 L 0.399979 0.26495 L 0.399979 0.269951 L 0.394978 0.269951 L 0.394978 0.274952 L 0.399979 0.274952 L 0.399979 0.279953 L 0.389977 0.279953 L 0.389977 0.274952 L 0.384975 0.274952 L 0.384975 0.284954 L 0.389977 0.284954 L 0.389977 0.289955 L 0.384975 0.289955 L 0.384975 0.299957 L 0.389977 0.299957 L 0.389977 0.294956 L 0.394978 0.294956 L 0.394978 0.299957 L 0.399979 0.299957 L 0.399979 0.289955 L 0.394978 0.289955 L 0.394978 0.284954 L 0.409981 0.284954 L 0.409981 0.289955 L 0.40498 0.289955 L 0.40498 0.299957 L 0.409981 0.299957 L 0.409981 0.294956 L 0.414982 0.294956 L 0.414982 0.299957 L 0.419983 0.299957 L 0.419983 0.289955 L 0.414982 0.289955 L 0.414982 0.284954 L 0.419983 0.284954 L 0.419983 0.274952 L 0.414982 0.274952 L 0.414982 0.279953 L 0.40498 0.279953 L 0.40498 0.274952 L 0.409981 0.274952 L 0.409981 0.269951 L 0.40498 0.269951 L 0.40498 0.26495 L 0.414982 0.26495 L 0.414982 0.269951 L 0.419983 0.269951 L 0.419983 0.254948 L 0.414982 0.254948 L 0.414982 0.259949 L 0.40498 0.259949 L 0.40498 0.254948 L 0.409981 0.254948 L 0.409981 0.249947 L 0.40498 0.249947 L 0.40498 0.244946 L 0.414982 0.244946 L 0.414982 0.249947 L 0.419983 0.249947 L 0.419983 0.239944 L 0.414982 0.239944 L 0.414982 0.234943 L 0.419983 0.234943 L 0.419983 0.224941 L 0.414982 0.224941 L 0.414982 0.229942 L 0.409981 0.229942 L 0.409981 0.224941 L 0.40498 0.224941 L 0.40498 0.234943 L 0.409981 0.234943 L 0.409981 0.239944 L 0.394978 0.239944 L 0.394978 0.234943 L 0.399979 0.234943 L 0.399979 0.224941 L 0.394978 0.224941 L 0.394978 0.229942 L 0.389977 0.229942 L 0.389977 0.224941 L 0.384975 0.224941 L 0.384975 0.234943 L 0.389977 0.234943 L 0.389977 0.239944 L 0.384975 0.239944 L 0.384975 0.249947 L 0.389977 0.249947 L 0.389977 0.244946 L 0.399979 0.244946 L 0.399979 0.249947 L 0.394978 0.249947 L 0.394978 0.254948 L 0.399979 0.254948 L 0.399979 0.259949 L 0.389977 0.259949 L 0.389977 0.254948 L 0.384975 0.254948 L 0.384975 0.259949 L 0.374973 0.259949 L 0.374973 0.254948 L 0.379974 0.254948 L 0.379974 0.244946 L 0.374973 0.244946 L 0.374973 0.249947 L 0.369972 0.249947 L 0.369972 0.244946 L 0.364971 0.244946 L 0.364971 0.254948 L 0.369972 0.254948 L 0.369972 0.259949 L 0.35997 0.259949 L 0.35997 0.254948 L 0.354969 0.254948 L 0.354969 0.259949 L 0.344967 0.259949 L 0.344967 0.254948 L 0.349968 0.254948 L 0.349968 0.249947 L 0.344967 0.249947 L 0.344967 0.244946 L 0.354969 0.244946 L 0.354969 0.249947 L 0.35997 0.249947 L 0.35997 0.234943 L 0.354969 0.234943 L 0.354969 0.239944 L 0.344967 0.239944 L 0.344967 0.234943 L 0.349968 0.234943 L 0.349968 0.229942 L 0.344967 0.229942 L 0.344967 0.224941 L 0.354969 0.224941 L 0.354969 0.229942 L 0.35997 0.229942 L 0.35997 0.224941 L 0.369972 0.224941 L 0.369972 0.229942 L 0.364971 0.229942 L 0.364971 0.239944 L 0.369972 0.239944 L 0.369972 0.234943 L 0.374973 0.234943 L 0.374973 0.239944 L 0.379974 0.239944 L 0.379974 0.229942 L 0.374973 0.229942 L 0.374973 0.224941 L 0.379974 0.224941 L 0.379974 0.21994 L 0.374973 0.21994 L 0.374973 0.214939 L 0.379974 0.214939 L 0.379974 0.204937 L 0.374973 0.204937 L 0.374973 0.209938 L 0.369972 0.209938 L 0.369972 0.204937 L 0.364971 0.204937 L 0.364971 0.214939 L 0.369972 0.214939 L 0.369972 0.21994 L 0.35997 0.21994 L 0.35997 0.214939 L 0.354969 0.214939 L 0.354969 0.21994 L 0.344967 0.21994 L 0.344967 0.214939 L 0.349968 0.214939 L 0.349968 0.209938 L 0.344967 0.209938 L 0.344967 0.204937 L 0.354969 0.204937 L 0.354969 0.209938 L 0.35997 0.209938 L 0.35997 0.194935 L 0.354969 0.194935 L 0.354969 0.199936 L 0.344967 0.199936 L 0.344967 0.194935 L 0.349968 0.194935 L 0.349968 0.189934 L 0.344967 0.189934 L 0.344967 0.184933 L 0.354969 0.184933 L 0.354969 0.189934 L 0.35997 0.189934 L 0.35997 0.184933 L 0.369972 0.184933 L 0.369972 0.189934 L 0.364971 0.189934 L 0.364971 0.199936 L 0.369972 0.199936 L 0.369972 0.194935 L 0.374973 0.194935 L 0.374973 0.199936 L 0.379974 0.199936 L 0.379974 0.189934 L 0.374973 0.189934 L 0.374973 0.184933 L 0.384975 0.184933 L 0.384975 0.189934 L 0.389977 0.189934 L 0.389977 0.184933 L 0.399979 0.184933 L 0.399979 0.189934 L 0.394978 0.189934 L 0.394978 0.194935 L 0.399979 0.194935 L 0.399979 0.199936 L 0.389977 0.199936 L 0.389977 0.194935 L 0.384975 0.194935 L 0.384975 0.204937 L 0.389977 0.204937 L 0.389977 0.209938 L 0.384975 0.209938 L 0.384975 0.21994 L 0.389977 0.21994 L 0.389977 0.214939 L 0.394978 0.214939 L 0.394978 0.21994 L 0.399979 0.21994 L 0.399979 0.209938 L 0.394978 0.209938 L 0.394978 0.204937 L 0.409981 0.204937 L 0.409981 0.209938 L 0.40498 0.209938 L 0.40498 0.21994 L 0.409981 0.21994 L 0.409981 0.214939 L 0.414982 0.214939 L 0.414982 0.21994 L 0.419983 0.21994 L 0.419983 0.209938 L 0.414982 0.209938 L 0.414982 0.204937 L 0.419983 0.204937 L 0.419983 0.194935 L 0.414982 0.194935 L 0.414982 0.199936 L 0.40498 0.199936 L 0.40498 0.194935 L 0.409981 0.194935 L 0.409981 0.189934 L 0.40498 0.189934 L 0.40498 0.184933 L 0.414982 0.184933 L 0.414982 0.189934 L 0.419983 0.189934 L 0.419983 0.184933 L 0.429985 0.184933 L 0.429985 0.189934 L 0.424984 0.189934 L 0.424984 0.199936 L 0.429985 0.199936 L 0.429985 0.194935 L 0.434986 0.194935 L 0.434986 0.199936 L 0.439987 0.199936 L 0.439987 0.189934 L 0.434986 0.189934 L 0.434986 0.184933 L 0.444988 0.184933 L 0.444988 0.189934 L 0.449989 0.189934 L 0.449989 0.184933 L 0.459991 0.184933 L 0.459991 0.189934 L 0.45499 0.189934 L 0.45499 0.194935 L 0.459991 0.194935 L 0.459991 0.199936 L 0.449989 0.199936 L 0.449989 0.194935 L 0.444988 0.194935 L 0.444988 0.209938 L 0.449989 0.209938 L 0.449989 0.204937 L 0.459991 0.204937 L 0.459991 0.209938 L 0.45499 0.209938 L 0.45499 0.214939 L 0.459991 0.214939 L 0.459991 0.21994 L 0.449989 0.21994 L 0.449989 0.214939 L 0.444988 0.214939 L 0.444988 0.21994 L 0.434986 0.21994 L 0.434986 0.214939 L 0.439987 0.214939 L 0.439987 0.204937 L 0.434986 0.204937 L 0.434986 0.209938 L 0.429985 0.209938 L 0.429985 0.204937 L 0.424984 0.204937 L 0.424984 0.214939 L 0.429985 0.214939 L 0.429985 0.21994 L 0.424984 0.21994 L 0.424984 0.229942 L 0.429985 0.229942 L 0.429985 0.224941 L 0.439987 0.224941 L 0.439987 0.229942 L 0.434986 0.229942 L 0.434986 0.234943 L 0.439987 0.234943 L 0.439987 0.239944 L 0.429985 0.239944 L 0.429985 0.234943 L 0.424984 0.234943 L 0.424984 0.244946 L 0.429985 0.244946 L 0.429985 0.249947 L 0.424984 0.249947 L 0.424984 0.259949 L 0.429985 0.259949 L 0.429985 0.254948 L 0.434986 0.254948 L 0.434986 0.259949 L 0.439987 0.259949 L 0.439987 0.249947 L 0.434986 0.249947 L 0.434986 0.244946 L 0.449989 0.244946 L 0.449989 0.249947 L 0.444988 0.249947 L 0.444988 0.259949 L 0.449989 0.259949 L 0.449989 0.254948 L 0.45499 0.254948 L 0.45499 0.259949 L 0.459991 0.259949 L 0.459991 0.249947 L 0.45499 0.249947 L 0.45499 0.244946 L 0.459991 0.244946 L 0.459991 0.234943 L 0.45499 0.234943 L 0.45499 0.239944 L 0.444988 0.239944 L 0.444988 0.234943 L 0.449989 0.234943 L 0.449989 0.229942 L 0.444988 0.229942 L 0.444988 0.224941 L 0.45499 0.224941 L 0.45499 0.229942 L 0.459991 0.229942 L 0.459991 0.224941 L 0.464993 0.224941 L 0.464993 0.229942 L 0.469994 0.229942 L 0.469994 0.224941 L 0.479996 0.224941 L 0.479996 0.229942 L 0.474995 0.229942 L 0.474995 0.234943 L 0.479996 0.234943 L 0.479996 0.239944 L 0.469994 0.239944 L 0.469994 0.234943 L 0.464993 0.234943 L 0.464993 0.244946 L 0.469994 0.244946 L 0.469994 0.249947 L 0.464993 0.249947 L 0.464993 0.259949 L 0.469994 0.259949 L 0.469994 0.254948 L 0.474995 0.254948 L 0.474995 0.259949 L 0.479996 0.259949 L 0.479996 0.249947 L 0.474995 0.249947 L 0.474995 0.244946 L 0.489998 0.244946 L 0.489998 0.249947 L 0.484997 0.249947 L 0.484997 0.259949 L 0.489998 0.259949 L 0.489998 0.254948 L 0.494999 0.254948 L 0.494999 0.259949 L 0.5 0.259949 L 0.5 0.249947 L 0.494999 0.249947 L 0.494999 0.244946 L 0.5 0.244946 L 0.5 0.234943 L 0.494999 0.234943 L 0.494999 0.239944 L 0.484997 0.239944 L 0.484997 0.234943 L 0.489998 0.234943 L 0.489998 0.229942 L 0.484997 0.229942 L 0.484997 0.224941 L 0.494999 0.224941 L 0.494999 0.229942 L 0.5 0.229942 L 0.5 0.21994 L 0.494999 0.21994 L 0.494999 0.214939 L 0.5 0.214939 L 0.5 0.204937 L 0.494999 0.204937 L 0.494999 0.209938 L 0.489998 0.209938 L 0.489998 0.204937 L 0.484997 0.204937 L 0.484997 0.214939 L 0.489998 0.214939 L 0.489998 0.21994 L 0.479996 0.21994 L 0.479996 0.214939 L 0.474995 0.214939 L 0.474995 0.21994 L 0.464993 0.21994 L 0.464993 0.214939 L 0.469994 0.214939 L 0.469994 0.209938 L 0.464993 0.209938 L 0.464993 0.204937 L 0.474995 0.204937 L 0.474995 0.209938 L 0.479996 0.209938 L 0.479996 0.194935 L 0.474995 0.194935 L 0.474995 0.199936 L 0.464993 0.199936 L 0.464993 0.194935 L 0.469994 0.194935 L 0.469994 0.189934 L 0.464993 0.189934 L 0.464993 0.184933 L 0.474995 0.184933 L 0.474995 0.189934 L 0.479996 0.189934 L 0.479996 0.184933 L 0.489998 0.184933 L 0.489998 0.189934 L 0.484997 0.189934 L 0.484997 0.199936 L 0.489998 0.199936 L 0.489998 0.194935 L 0.494999 0.194935 L 0.494999 0.199936 L 0.5 0.199936 L 0.5 0.189934 L 0.494999 0.189934 L 0.494999 0.184933 L 0.510002 0.184933 L 0.510002 0.189934 L 0.505001 0.189934 L 0.505001 0.199936 L 0.510002 0.199936 L 0.510002 0.194935 L 0.515003 0.194935 L 0.515003 0.199936 L 0.520004 0.199936 L 0.520004 0.189934 L 0.515003 0.189934 L 0.515003 0.184933 L 0.525005 0.184933 L 0.525005 0.189934 L 0.530006 0.189934 L 0.530006 0.184933 L 0.540009 0.184933 L 0.540009 0.189934 L 0.535007 0.189934 L 0.535007 0.194935 L 0.540009 0.194935 L 0.540009 0.199936 L 0.530006 0.199936 L 0.530006 0.194935 L 0.525005 0.194935 L 0.525005 0.209938 L 0.530006 0.209938 L 0.530006 0.204937 L 0.540009 0.204937 L 0.540009 0.209938 L 0.535007 0.209938 L 0.535007 0.214939 L 0.540009 0.214939 L 0.540009 0.21994 L 0.530006 0.21994 L 0.530006 0.214939 L 0.525005 0.214939 L 0.525005 0.21994 L 0.515003 0.21994 L 0.515003 0.214939 L 0.520004 0.214939 L 0.520004 0.204937 L 0.515003 0.204937 L 0.515003 0.209938 L 0.510002 0.209938 L 0.510002 0.204937 L 0.505001 0.204937 L 0.505001 0.214939 L 0.510002 0.214939 L 0.510002 0.21994 L 0.505001 0.21994 L 0.505001 0.229942 L 0.510002 0.229942 L 0.510002 0.224941 L 0.520004 0.224941 L 0.520004 0.229942 L 0.515003 0.229942 L 0.515003 0.234943 L 0.520004 0.234943 L 0.520004 0.239944 L 0.510002 0.239944 L 0.510002 0.234943 L 0.505001 0.234943 L 0.505001 0.244946 L 0.510002 0.244946 L 0.510002 0.249947 L 0.505001 0.249947 L 0.505001 0.259949 L 0.510002 0.259949 L 0.510002 0.254948 L 0.515003 0.254948 L 0.515003 0.259949 L 0.520004 0.259949 L 0.520004 0.249947 L 0.515003 0.249947 L 0.515003 0.244946 L 0.530006 0.244946 L 0.530006 0.249947 L 0.525005 0.249947 L 0.525005 0.259949 L 0.530006 0.259949 L 0.530006 0.254948 L 0.535007 0.254948 L 0.535007 0.259949 L 0.540009 0.259949 L 0.540009 0.249947 L 0.535007 0.249947 L 0.535007 0.244946 L 0.540009 0.244946 L 0.540009 0.234943 L 0.535007 0.234943 L 0.535007 0.239944 L 0.525005 0.239944 L 0.525005 0.234943 L 0.530006 0.234943 L 0.530006 0.229942 L 0.525005 0.229942 L 0.525005 0.224941 L 0.535007 0.224941 L 0.535007 0.229942 L 0.540009 0.229942 L 0.540009 0.224941 L 0.54501 0.224941 L 0.54501 0.229942 L 0.550011 0.229942 L 0.550011 0.224941 L 0.560013 0.224941 L 0.560013 0.229942 L 0.555012 0.229942 L 0.555012 0.234943 L 0.560013 0.234943 L 0.560013 0.239944 L 0.550011 0.239944 L 0.550011 0.234943 L 0.54501 0.234943 L 0.54501 0.244946 L 0.550011 0.244946 L 0.550011 0.249947 L 0.54501 0.249947 L 0.54501 0.259949 L 0.550011 0.259949 L 0.550011 0.254948 L 0.555012 0.254948 L 0.555012 0.259949 L 0.560013 0.259949 L 0.560013 0.249947 L 0.555012 0.249947 L 0.555012 0.244946 L 0.570015 0.244946 L 0.570015 0.249947 L 0.565014 0.249947 L 0.565014 0.259949 L 0.570015 0.259949 L 0.570015 0.254948 L 0.575016 0.254948 L 0.575016 0.259949 L 0.580017 0.259949 L 0.580017 0.249947 L 0.575016 0.249947 L 0.575016 0.244946 L 0.580017 0.244946 L 0.580017 0.234943 L 0.575016 0.234943 L 0.575016 0.239944 L 0.565014 0.239944 L 0.565014 0.234943 L 0.570015 0.234943 L 0.570015 0.229942 L 0.565014 0.229942 L 0.565014 0.224941 L 0.575016 0.224941 L 0.575016 0.229942 L 0.580017 0.229942 L 0.580017 0.21994 L 0.575016 0.21994 L 0.575016 0.214939 L 0.580017 0.214939 L 0.580017 0.204937 L 0.575016 0.204937 L 0.575016 0.209938 L 0.570015 0.209938 L 0.570015 0.204937 L 0.565014 0.204937 L 0.565014 0.214939 L 0.570015 0.214939 L 0.570015 0.21994 L 0.560013 0.21994 L 0.560013 0.214939 L 0.555012 0.214939 L 0.555012 0.21994 L 0.54501 0.21994 L 0.54501 0.214939 L 0.550011 0.214939 L 0.550011 0.209938 L 0.54501 0.209938 L 0.54501 0.204937 L 0.555012 0.204937 L 0.555012 0.209938 L 0.560013 0.209938 L 0.560013 0.194935 L 0.555012 0.194935 L 0.555012 0.199936 L 0.54501 0.199936 L 0.54501 0.194935 L 0.550011 0.194935 L 0.550011 0.189934 L 0.54501 0.189934 L 0.54501 0.184933 L 0.555012 0.184933 L 0.555012 0.189934 L 0.560013 0.189934 L 0.560013 0.184933 L 0.570015 0.184933 L 0.570015 0.189934 L 0.565014 0.189934 L 0.565014 0.199936 L 0.570015 0.199936 L 0.570015 0.194935 L 0.575016 0.194935 L 0.575016 0.199936 L 0.580017 0.199936 L 0.580017 0.189934 L 0.575016 0.189934 L 0.575016 0.184933 L 0.585018 0.184933 L 0.585018 0.189934 L 0.590019 0.189934 L 0.590019 0.184933 L 0.600021 0.184933 L 0.600021 0.189934 L 0.59502 0.189934 L 0.59502 0.194935 L 0.600021 0.194935 L 0.600021 0.199936 L 0.590019 0.199936 L 0.590019 0.194935 L 0.585018 0.194935 L 0.585018 0.204937 L 0.590019 0.204937 L 0.590019 0.209938 L 0.585018 0.209938 L 0.585018 0.21994 L 0.590019 0.21994 L 0.590019 0.214939 L 0.59502 0.214939 L 0.59502 0.21994 L 0.600021 0.21994 L 0.600021 0.209938 L 0.59502 0.209938 L 0.59502 0.204937 L 0.610023 0.204937 L 0.610023 0.209938 L 0.605022 0.209938 L 0.605022 0.21994 L 0.610023 0.21994 L 0.610023 0.214939 L 0.615025 0.214939 L 0.615025 0.21994 L 0.620026 0.21994 L 0.620026 0.209938 L 0.615025 0.209938 L 0.615025 0.204937 L 0.620026 0.204937 L 0.620026 0.194935 L 0.615025 0.194935 L 0.615025 0.199936 L 0.605022 0.199936 L 0.605022 0.194935 L 0.610023 0.194935 L 0.610023 0.189934 L 0.605022 0.189934 L 0.605022 0.184933 L 0.615025 0.184933 L 0.615025 0.189934 L 0.620026 0.189934 L 0.620026 0.184933 L 0.630028 0.184933 L 0.630028 0.189934 L 0.625027 0.189934 L 0.625027 0.199936 L 0.630028 0.199936 L 0.630028 0.194935 L 0.635029 0.194935 L 0.635029 0.199936 L 0.64003 0.199936 L 0.64003 0.189934 L 0.635029 0.189934 L 0.635029 0.184933 L 0.645031 0.184933 L 0.645031 0.189934 L 0.650032 0.189934 L 0.650032 0.184933 L 0.660034 0.184933 L 0.660034 0.189934 L 0.655033 0.189934 L 0.655033 0.194935 L 0.660034 0.194935 L 0.660034 0.199936 L 0.650032 0.199936 L 0.650032 0.194935 L 0.645031 0.194935 L 0.645031 0.209938 L 0.650032 0.209938 L 0.650032 0.204937 L 0.660034 0.204937 L 0.660034 0.209938 L 0.655033 0.209938 L 0.655033 0.214939 L 0.660034 0.214939 L 0.660034 0.21994 L 0.650032 0.21994 L 0.650032 0.214939 L 0.645031 0.214939 L 0.645031 0.21994 L 0.635029 0.21994 L 0.635029 0.214939 L 0.64003 0.214939 L 0.64003 0.204937 L 0.635029 0.204937 L 0.635029 0.209938 L 0.630028 0.209938 L 0.630028 0.204937 L 0.625027 0.204937 L 0.625027 0.214939 L 0.630028 0.214939 L 0.630028 0.21994 L 0.625027 0.21994 L 0.625027 0.224941 L 0.630028 0.224941 L 0.630028 0.229942 L 0.625027 0.229942 L 0.625027 0.239944 L 0.630028 0.239944 L 0.630028 0.234943 L 0.635029 0.234943 L 0.635029 0.239944 L 0.64003 0.239944 L 0.64003 0.229942 L 0.635029 0.229942 L 0.635029 0.224941 L 0.645031 0.224941 L 0.645031 0.229942 L 0.650032 0.229942 L 0.650032 0.224941 L 0.660034 0.224941 L 0.660034 0.229942 L 0.655033 0.229942 L 0.655033 0.234943 L 0.660034 0.234943 L 0.660034 0.239944 L 0.650032 0.239944 L 0.650032 0.234943 L 0.645031 0.234943 L 0.645031 0.249947 L 0.650032 0.249947 L 0.650032 0.244946 L 0.660034 0.244946 L 0.660034 0.249947 L 0.655033 0.249947 L 0.655033 0.254948 L 0.660034 0.254948 L 0.660034 0.259949 L 0.650032 0.259949 L 0.650032 0.254948 L 0.645031 0.254948 L 0.645031 0.259949 L 0.635029 0.259949 L 0.635029 0.254948 L 0.64003 0.254948 L 0.64003 0.244946 L 0.635029 0.244946 L 0.635029 0.249947 L 0.630028 0.249947 L 0.630028 0.244946 L 0.625027 0.244946 L 0.625027 0.254948 L 0.630028 0.254948 L 0.630028 0.259949 L 0.620026 0.259949 L 0.620026 0.254948 L 0.615025 0.254948 L 0.615025 0.259949 L 0.605022 0.259949 L 0.605022 0.254948 L 0.610023 0.254948 L 0.610023 0.249947 L 0.605022 0.249947 L 0.605022 0.244946 L 0.615025 0.244946 L 0.615025 0.249947 L 0.620026 0.249947 L 0.620026 0.239944 L 0.615025 0.239944 L 0.615025 0.234943 L 0.620026 0.234943 L 0.620026 0.224941 L 0.615025 0.224941 L 0.615025 0.229942 L 0.610023 0.229942 L 0.610023 0.224941 L 0.605022 0.224941 L 0.605022 0.234943 L 0.610023 0.234943 L 0.610023 0.239944 L 0.59502 0.239944 L 0.59502 0.234943 L 0.600021 0.234943 L 0.600021 0.224941 L 0.59502 0.224941 L 0.59502 0.229942 L 0.590019 0.229942 L 0.590019 0.224941 L 0.585018 0.224941 L 0.585018 0.234943 L 0.590019 0.234943 L 0.590019 0.239944 L 0.585018 0.239944 L 0.585018 0.249947 L 0.590019 0.249947 L 0.590019 0.244946 L 0.600021 0.244946 L 0.600021 0.249947 L 0.59502 0.249947 L 0.59502 0.254948 L 0.600021 0.254948 L 0.600021 0.259949 L 0.590019 0.259949 L 0.590019 0.254948 L 0.585018 0.254948 L 0.585018 0.269951 L 0.590019 0.269951 L 0.590019 0.26495 L 0.600021 0.26495 L 0.600021 0.269951 L 0.59502 0.269951 L 0.59502 0.274952 L 0.600021 0.274952 L 0.600021 0.279953 L 0.590019 0.279953 L 0.590019 0.274952 L 0.585018 0.274952 L 0.585018 0.284954 L 0.590019 0.284954 L 0.590019 0.289955 L 0.585018 0.289955 L 0.585018 0.299957 L 0.590019 0.299957 L 0.590019 0.294956 L 0.59502 0.294956 L 0.59502 0.299957 L 0.600021 0.299957 L 0.600021 0.289955 L 0.59502 0.289955 L 0.59502 0.284954 L 0.610023 0.284954 L 0.610023 0.289955 L 0.605022 0.289955 L 0.605022 0.299957 L 0.610023 0.299957 L 0.610023 0.294956 L 0.615025 0.294956 L 0.615025 0.299957 L 0.620026 0.299957 L 0.620026 0.289955 L 0.615025 0.289955 L 0.615025 0.284954 L 0.620026 0.284954 L 0.620026 0.274952 L 0.615025 0.274952 L 0.615025 0.279953 L 0.605022 0.279953 L 0.605022 0.274952 L 0.610023 0.274952 L 0.610023 0.269951 L 0.605022 0.269951 L 0.605022 0.26495 L 0.615025 0.26495 L 0.615025 0.269951 L 0.620026 0.269951 L 0.620026 0.26495 L 0.630028 0.26495 L 0.630028 0.269951 L 0.625027 0.269951 L 0.625027 0.279953 L 0.630028 0.279953 L 0.630028 0.274952 L 0.635029 0.274952 L 0.635029 0.279953 L 0.64003 0.279953 L 0.64003 0.269951 L 0.635029 0.269951 L 0.635029 0.26495 L 0.645031 0.26495 L 0.645031 0.269951 L 0.650032 0.269951 L 0.650032 0.26495 L 0.660034 0.26495 L 0.660034 0.269951 L 0.655033 0.269951 L 0.655033 0.274952 L 0.660034 0.274952 L 0.660034 0.279953 L 0.650032 0.279953 L 0.650032 0.274952 L 0.645031 0.274952 L 0.645031 0.289955 L 0.650032 0.289955 L 0.650032 0.284954 L 0.660034 0.284954 L 0.660034 0.289955 L 0.655033 0.289955 L 0.655033 0.294956 L 0.660034 0.294956 L 0.660034 0.299957 L 0.650032 0.299957 L 0.650032 0.294956 L 0.645031 0.294956 L 0.645031 0.299957 L 0.635029 0.299957 L 0.635029 0.294956 L 0.64003 0.294956 L 0.64003 0.284954 L 0.635029 0.284954 L 0.635029 0.289955 L 0.630028 0.289955 L 0.630028 0.284954 L 0.625027 0.284954 L 0.625027 0.294956 L 0.630028 0.294956 L 0.630028 0.299957 L 0.625027 0.299957 L 0.625027 0.304958 L 0.630028 0.304958 L 0.630028 0.309959 L 0.625027 0.309959 L 0.625027 0.319962 L 0.630028 0.319962 L 0.630028 0.31496 L 0.635029 0.31496 L 0.635029 0.319962 L 0.64003 0.319962 L 0.64003 0.309959 L 0.635029 0.309959 L 0.635029 0.304958 L 0.645031 0.304958 L 0.645031 0.309959 L 0.650032 0.309959 L 0.650032 0.304958 L 0.660034 0.304958 L 0.660034 0.309959 L 0.655033 0.309959 L 0.655033 0.31496 L 0.660034 0.31496 L 0.660034 0.319962 L 0.650032 0.319962 L 0.650032 0.31496 L 0.645031 0.31496 L 0.645031 0.329964 L 0.650032 0.329964 L 0.650032 0.324963 L 0.660034 0.324963 L 0.660034 0.329964 L 0.655033 0.329964 L 0.655033 0.334965 L 0.660034 0.334965 L 0.660034 0.339966 L 0.650032 0.339966 L 0.650032 0.334965 L 0.645031 0.334965 L 0.645031 0.339966 L 0.635029 0.339966 L 0.635029 0.334965 L 0.64003 0.334965 L 0.64003 0.324963 L 0.635029 0.324963 L 0.635029 0.329964 L 0.630028 0.329964 L 0.630028 0.324963 L 0.625027 0.324963 L 0.625027 0.334965 L 0.630028 0.334965 L 0.630028 0.339966 L 0.620026 0.339966 L 0.620026 0.334965 L 0.615025 0.334965 L 0.615025 0.339966 L 0.605022 0.339966 L 0.605022 0.334965 L 0.610023 0.334965 L 0.610023 0.329964 L 0.605022 0.329964 L 0.605022 0.324963 L 0.615025 0.324963 L 0.615025 0.329964 L 0.620026 0.329964 L 0.620026 0.319962 L 0.615025 0.319962 L 0.615025 0.31496 L 0.620026 0.31496 L 0.620026 0.304958 L 0.615025 0.304958 L 0.615025 0.309959 L 0.610023 0.309959 L 0.610023 0.304958 L 0.605022 0.304958 L 0.605022 0.31496 L 0.610023 0.31496 L 0.610023 0.319962 L 0.59502 0.319962 L 0.59502 0.31496 L 0.600021 0.31496 L 0.600021 0.304958 L 0.59502 0.304958 L 0.59502 0.309959 L 0.590019 0.309959 L 0.590019 0.304958 L 0.585018 0.304958 L 0.585018 0.31496 L 0.590019 0.31496 L 0.590019 0.319962 L 0.585018 0.319962 L 0.585018 0.329964 L 0.590019 0.329964 L 0.590019 0.324963 L 0.600021 0.324963 L 0.600021 0.329964 L 0.59502 0.329964 L 0.59502 0.334965 L 0.600021 0.334965 L 0.600021 0.339966 L 0.590019 0.339966 L 0.590019 0.334965 L 0.585018 0.334965 L 0.585018 0.339966 L 0.575016 0.339966 L 0.575016 0.334965 L 0.580017 0.334965 L 0.580017 0.324963 L 0.575016 0.324963 L 0.575016 0.329964 L 0.570015 0.329964 L 0.570015 0.324963 L 0.565014 0.324963 L 0.565014 0.334965 L 0.570015 0.334965 L 0.570015 0.339966 L 0.560013 0.339966 L 0.560013 0.334965 L 0.555012 0.334965 L 0.555012 0.339966 L 0.54501 0.339966 L 0.54501 0.334965 L 0.550011 0.334965 L 0.550011 0.329964 L 0.54501 0.329964 L 0.54501 0.324963 L 0.555012 0.324963 L 0.555012 0.329964 L 0.560013 0.329964 L 0.560013 0.31496 L 0.555012 0.31496 L 0.555012 0.319962 L 0.54501 0.319962 L 0.54501 0.31496 L 0.550011 0.31496 L 0.550011 0.309959 L 0.54501 0.309959 L 0.54501 0.304958 L 0.555012 0.304958 L 0.555012 0.309959 L 0.560013 0.309959 L 0.560013 0.304958 L 0.570015 0.304958 L 0.570015 0.309959 L 0.565014 0.309959 L 0.565014 0.319962 L 0.570015 0.319962 L 0.570015 0.31496 L 0.575016 0.31496 L 0.575016 0.319962 L 0.580017 0.319962 L 0.580017 0.309959 L 0.575016 0.309959 L 0.575016 0.304958 L 0.580017 0.304958 L 0.580017 0.294956 L 0.575016 0.294956 L 0.575016 0.299957 L 0.565014 0.299957 L 0.565014 0.294956 L 0.570015 0.294956 L 0.570015 0.289955 L 0.565014 0.289955 L 0.565014 0.284954 L 0.575016 0.284954 L 0.575016 0.289955 L 0.580017 0.289955 L 0.580017 0.279953 L 0.575016 0.279953 L 0.575016 0.274952 L 0.580017 0.274952 L 0.580017 0.26495 L 0.575016 0.26495 L 0.575016 0.269951 L 0.570015 0.269951 L 0.570015 0.26495 L 0.565014 0.26495 L 0.565014 0.274952 L 0.570015 0.274952 L 0.570015 0.279953 L 0.555012 0.279953 L 0.555012 0.274952 L 0.560013 0.274952 L 0.560013 0.26495 L 0.555012 0.26495 L 0.555012 0.269951 L 0.550011 0.269951 L 0.550011 0.26495 L 0.54501 0.26495 L 0.54501 0.274952 L 0.550011 0.274952 L 0.550011 0.279953 L 0.54501 0.279953 L 0.54501 0.289955 L 0.550011 0.289955 L 0.550011 0.284954 L 0.560013 0.284954 L 0.560013 0.289955 L 0.555012 0.289955 L 0.555012 0.294956 L 0.560013 0.294956 L 0.560013 0.299957 L 0.550011 0.299957 L 0.550011 0.294956 L 0.54501 0.294956 L 0.54501 0.299957 L 0.540009 0.299957 L 0.540009 0.294956 L 0.535007 0.294956 L 0.535007 0.299957 L 0.525005 0.299957 L 0.525005 0.294956 L 0.530006 0.294956 L 0.530006 0.289955 L 0.525005 0.289955 L 0.525005 0.284954 L 0.535007 0.284954 L 0.535007 0.289955 L 0.540009 0.289955 L 0.540009 0.279953 L 0.535007 0.279953 L 0.535007 0.274952 L 0.540009 0.274952 L 0.540009 0.26495 L 0.535007 0.26495 L 0.535007 0.269951 L 0.530006 0.269951 L 0.530006 0.26495 L 0.525005 0.26495 L 0.525005 0.274952 L 0.530006 0.274952 L 0.530006 0.279953 L 0.515003 0.279953 L 0.515003 0.274952 L 0.520004 0.274952 L 0.520004 0.26495 L 0.515003 0.26495 L 0.515003 0.269951 L 0.510002 0.269951 L 0.510002 0.26495 L 0.505001 0.26495 L 0.505001 0.274952 L 0.510002 0.274952 L 0.510002 0.279953 L 0.505001 0.279953 L 0.505001 0.289955 L 0.510002 0.289955 L 0.510002 0.284954 L 0.520004 0.284954 L 0.520004 0.289955 L 0.515003 0.289955 L 0.515003 0.294956 L 0.520004 0.294956 L 0.520004 0.299957 L 0.510002 0.299957 L 0.510002 0.294956 L 0.505001 0.294956 L 0.505001 0.304958 L 0.510002 0.304958 L 0.510002 0.309959 L 0.505001 0.309959 L 0.505001 0.319962 L 0.510002 0.319962 L 0.510002 0.31496 L 0.515003 0.31496 L 0.515003 0.319962 L 0.520004 0.319962 L 0.520004 0.309959 L 0.515003 0.309959 L 0.515003 0.304958 L 0.525005 0.304958 L 0.525005 0.309959 L 0.530006 0.309959 L 0.530006 0.304958 L 0.540009 0.304958 L 0.540009 0.309959 L 0.535007 0.309959 L 0.535007 0.31496 L 0.540009 0.31496 L 0.540009 0.319962 L 0.530006 0.319962 L 0.530006 0.31496 L 0.525005 0.31496 L 0.525005 0.329964 L 0.530006 0.329964 L 0.530006 0.324963 L 0.540009 0.324963 L 0.540009 0.329964 L 0.535007 0.329964 L 0.535007 0.334965 L 0.540009 0.334965 L 0.540009 0.339966 L 0.530006 0.339966 L 0.530006 0.334965 L 0.525005 0.334965 L 0.525005 0.339966 L 0.515003 0.339966 L 0.515003 0.334965 L 0.520004 0.334965 L 0.520004 0.324963 L 0.515003 0.324963 L 0.515003 0.329964 L 0.510002 0.329964 L 0.510002 0.324963 L 0.505001 0.324963 L 0.505001 0.334965 L 0.510002 0.334965 L 0.510002 0.339966 L 0.505001 0.339966 L 0.505001 0.344967 L 0.510002 0.344967 L 0.510002 0.349968 L 0.505001 0.349968 L 0.505001 0.35997 L 0.510002 0.35997 L 0.510002 0.354969 L 0.515003 0.354969 L 0.515003 0.35997 L 0.520004 0.35997 L 0.520004 0.349968 L 0.515003 0.349968 L 0.515003 0.344967 L 0.525005 0.344967 L 0.525005 0.349968 L 0.530006 0.349968 L 0.530006 0.344967 L 0.540009 0.344967 L 0.540009 0.349968 L 0.535007 0.349968 L 0.535007 0.354969 L 0.540009 0.354969 L 0.540009 0.35997 L 0.530006 0.35997 L 0.530006 0.354969 L 0.525005 0.354969 L 0.525005 0.369972 L 0.530006 0.369972 L 0.530006 0.364971 L 0.540009 0.364971 L 0.540009 0.369972 L 0.535007 0.369972 L 0.535007 0.374973 L 0.540009 0.374973 L 0.540009 0.379974 L 0.530006 0.379974 L 0.530006 0.374973 L 0.525005 0.374973 L 0.525005 0.379974 L 0.515003 0.379974 L 0.515003 0.374973 L 0.520004 0.374973 L 0.520004 0.364971 L 0.515003 0.364971 L 0.515003 0.369972 L 0.510002 0.369972 L 0.510002 0.364971 L 0.505001 0.364971 L 0.505001 0.374973 L 0.510002 0.374973 L 0.510002 0.379974 L 0.505001 0.379974 L 0.505001 0.389977 L 0.510002 0.389977 L 0.510002 0.384975 L 0.520004 0.384975 L 0.520004 0.389977 L 0.515003 0.389977 L 0.515003 0.394978 L 0.520004 0.394978 L 0.520004 0.399979 L 0.510002 0.399979 L 0.510002 0.394978 L 0.505001 0.394978 L 0.505001 0.40498 L 0.510002 0.40498 L 0.510002 0.409981 L 0.505001 0.409981 L 0.505001 0.419983 L 0.510002 0.419983 L 0.510002 0.414982 L 0.515003 0.414982 L 0.515003 0.419983 L 0.520004 0.419983 L 0.520004 0.409981 L 0.515003 0.409981 L 0.515003 0.40498 L 0.530006 0.40498 L 0.530006 0.409981 L 0.525005 0.409981 L 0.525005 0.419983 L 0.530006 0.419983 L 0.530006 0.414982 L 0.535007 0.414982 L 0.535007 0.419983 L 0.540009 0.419983 L 0.540009 0.409981 L 0.535007 0.409981 L 0.535007 0.40498 L 0.540009 0.40498 L 0.540009 0.394978 L 0.535007 0.394978 L 0.535007 0.399979 L 0.525005 0.399979 L 0.525005 0.394978 L 0.530006 0.394978 L 0.530006 0.389977 L 0.525005 0.389977 L 0.525005 0.384975 L 0.535007 0.384975 L 0.535007 0.389977 L 0.540009 0.389977 L 0.540009 0.384975 L 0.54501 0.384975 L 0.54501 0.389977 L 0.550011 0.389977 L 0.550011 0.384975 L 0.560013 0.384975 L 0.560013 0.389977 L 0.555012 0.389977 L 0.555012 0.394978 L 0.560013 0.394978 L 0.560013 0.399979 L 0.550011 0.399979 L 0.550011 0.394978 L 0.54501 0.394978 L 0.54501 0.40498 L 0.550011 0.40498 L 0.550011 0.409981 L 0.54501 0.409981 L 0.54501 0.419983 L 0.550011 0.419983 L 0.550011 0.414982 L 0.555012 0.414982 L 0.555012 0.419983 L 0.560013 0.419983 L 0.560013 0.409981 L 0.555012 0.409981 L 0.555012 0.40498 L 0.570015 0.40498 L 0.570015 0.409981 L 0.565014 0.409981 L 0.565014 0.419983 L 0.570015 0.419983 L 0.570015 0.414982 L 0.575016 0.414982 L 0.575016 0.419983 L 0.580017 0.419983 L 0.580017 0.409981 L 0.575016 0.409981 L 0.575016 0.40498 L 0.580017 0.40498 L 0.580017 0.394978 L 0.575016 0.394978 L 0.575016 0.399979 L 0.565014 0.399979 L 0.565014 0.394978 L 0.570015 0.394978 L 0.570015 0.389977 L 0.565014 0.389977 L 0.565014 0.384975 L 0.575016 0.384975 L 0.575016 0.389977 L 0.580017 0.389977 L 0.580017 0.379974 L 0.575016 0.379974 L 0.575016 0.374973 L 0.580017 0.374973 L 0.580017 0.364971 L 0.575016 0.364971 L 0.575016 0.369972 L 0.570015 0.369972 L 0.570015 0.364971 L 0.565014 0.364971 L 0.565014 0.374973 L 0.570015 0.374973 L 0.570015 0.379974 L 0.560013 0.379974 L 0.560013 0.374973 L 0.555012 0.374973 L 0.555012 0.379974 L 0.54501 0.379974 L 0.54501 0.374973 L 0.550011 0.374973 L 0.550011 0.369972 L 0.54501 0.369972 L 0.54501 0.364971 L 0.555012 0.364971 L 0.555012 0.369972 L 0.560013 0.369972 L 0.560013 0.354969 L 0.555012 0.354969 L 0.555012 0.35997 L 0.54501 0.35997 L 0.54501 0.354969 L 0.550011 0.354969 L 0.550011 0.349968 L 0.54501 0.349968 L 0.54501 0.344967 L 0.555012 0.344967 L 0.555012 0.349968 L 0.560013 0.349968 L 0.560013 0.344967 L 0.570015 0.344967 L 0.570015 0.349968 L 0.565014 0.349968 L 0.565014 0.35997 L 0.570015 0.35997 L 0.570015 0.354969 L 0.575016 0.354969 L 0.575016 0.35997 L 0.580017 0.35997 L 0.580017 0.349968 L 0.575016 0.349968 L 0.575016 0.344967 L 0.585018 0.344967 L 0.585018 0.349968 L 0.590019 0.349968 L 0.590019 0.344967 L 0.600021 0.344967 L 0.600021 0.349968 L 0.59502 0.349968 L 0.59502 0.354969 L 0.600021 0.354969 L 0.600021 0.35997 L 0.590019 0.35997 L 0.590019 0.354969 L 0.585018 0.354969 L 0.585018 0.364971 L 0.590019 0.364971 L 0.590019 0.369972 L 0.585018 0.369972 L 0.585018 0.379974 L 0.590019 0.379974 L 0.590019 0.374973 L 0.59502 0.374973 L 0.59502 0.379974 L 0.600021 0.379974 L 0.600021 0.369972 L 0.59502 0.369972 L 0.59502 0.364971 L 0.610023 0.364971 L 0.610023 0.369972 L 0.605022 0.369972 L 0.605022 0.379974 L 0.610023 0.379974 L 0.610023 0.374973 L 0.615025 0.374973 L 0.615025 0.379974 L 0.620026 0.379974 L 0.620026 0.369972 L 0.615025 0.369972 L 0.615025 0.364971 L 0.620026 0.364971 L 0.620026 0.354969 L 0.615025 0.354969 L 0.615025 0.35997 L 0.605022 0.35997 L 0.605022 0.354969 L 0.610023 0.354969 L 0.610023 0.349968 L 0.605022 0.349968 L 0.605022 0.344967 L 0.615025 0.344967 L 0.615025 0.349968 L 0.620026 0.349968 L 0.620026 0.344967 L 0.630028 0.344967 L 0.630028 0.349968 L 0.625027 0.349968 L 0.625027 0.35997 L 0.630028 0.35997 L 0.630028 0.354969 L 0.635029 0.354969 L 0.635029 0.35997 L 0.64003 0.35997 L 0.64003 0.349968 L 0.635029 0.349968 L 0.635029 0.344967 L 0.645031 0.344967 L 0.645031 0.349968 L 0.650032 0.349968 L 0.650032 0.344967 L 0.660034 0.344967 L 0.660034 0.349968 L 0.655033 0.349968 L 0.655033 0.354969 L 0.660034 0.354969 L 0.660034 0.35997 L 0.650032 0.35997 L 0.650032 0.354969 L 0.645031 0.354969 L 0.645031 0.369972 L 0.650032 0.369972 L 0.650032 0.364971 L 0.660034 0.364971 L 0.660034 0.369972 L 0.655033 0.369972 L 0.655033 0.374973 L 0.660034 0.374973 L 0.660034 0.379974 L 0.650032 0.379974 L 0.650032 0.374973 L 0.645031 0.374973 L 0.645031 0.379974 L 0.635029 0.379974 L 0.635029 0.374973 L 0.64003 0.374973 L 0.64003 0.364971 L 0.635029 0.364971 L 0.635029 0.369972 L 0.630028 0.369972 L 0.630028 0.364971 L 0.625027 0.364971 L 0.625027 0.374973 L 0.630028 0.374973 L 0.630028 0.379974 L 0.625027 0.379974 L 0.625027 0.384975 L 0.630028 0.384975 L 0.630028 0.389977 L 0.625027 0.389977 L 0.625027 0.399979 L 0.630028 0.399979 L 0.630028 0.394978 L 0.635029 0.394978 L 0.635029 0.399979 L 0.64003 0.399979 L 0.64003 0.389977 L 0.635029 0.389977 L 0.635029 0.384975 L 0.645031 0.384975 L 0.645031 0.389977 L 0.650032 0.389977 L 0.650032 0.384975 L 0.660034 0.384975 L 0.660034 0.389977 L 0.655033 0.389977 L 0.655033 0.394978 L 0.660034 0.394978 L 0.660034 0.399979 L 0.650032 0.399979 L 0.650032 0.394978 L 0.645031 0.394978 L 0.645031 0.409981 L 0.650032 0.409981 L 0.650032 0.40498 L 0.660034 0.40498 L 0.660034 0.409981 L 0.655033 0.409981 L 0.655033 0.414982 L 0.660034 0.414982 L 0.660034 0.419983 L 0.650032 0.419983 L 0.650032 0.414982 L 0.645031 0.414982 L 0.645031 0.419983 L 0.635029 0.419983 L 0.635029 0.414982 L 0.64003 0.414982 L 0.64003 0.40498 L 0.635029 0.40498 L 0.635029 0.409981 L 0.630028 0.409981 L 0.630028 0.40498 L 0.625027 0.40498 L 0.625027 0.414982 L 0.630028 0.414982 L 0.630028 0.419983 L 0.620026 0.419983 L 0.620026 0.414982 L 0.615025 0.414982 L 0.615025 0.419983 L 0.605022 0.419983 L 0.605022 0.414982 L 0.610023 0.414982 L 0.610023 0.409981 L 0.605022 0.409981 L 0.605022 0.40498 L 0.615025 0.40498 L 0.615025 0.409981 L 0.620026 0.409981 L 0.620026 0.399979 L 0.615025 0.399979 L 0.615025 0.394978 L 0.620026 0.394978 L 0.620026 0.384975 L 0.615025 0.384975 L 0.615025 0.389977 L 0.610023 0.389977 L 0.610023 0.384975 L 0.605022 0.384975 L 0.605022 0.394978 L 0.610023 0.394978 L 0.610023 0.399979 L 0.59502 0.399979 L 0.59502 0.394978 L 0.600021 0.394978 L 0.600021 0.384975 L 0.59502 0.384975 L 0.59502 0.389977 L 0.590019 0.389977 L 0.590019 0.384975 L 0.585018 0.384975 L 0.585018 0.394978 L 0.590019 0.394978 L 0.590019 0.399979 L 0.585018 0.399979 L 0.585018 0.409981 L 0.590019 0.409981 L 0.590019 0.40498 L 0.600021 0.40498 L 0.600021 0.409981 L 0.59502 0.409981 L 0.59502 0.414982 L 0.600021 0.414982 L 0.600021 0.419983 L 0.590019 0.419983 L 0.590019 0.414982 L 0.585018 0.414982 L 0.585018 0.429985 L 0.590019 0.429985 L 0.590019 0.424984 L 0.600021 0.424984 L 0.600021 0.429985 L 0.59502 0.429985 L 0.59502 0.434986 L 0.600021 0.434986 L 0.600021 0.439987 L 0.590019 0.439987 L 0.590019 0.434986 L 0.585018 0.434986 L 0.585018 0.444988 L 0.590019 0.444988 L 0.590019 0.449989 L 0.585018 0.449989 L 0.585018 0.459991 L 0.590019 0.459991 L 0.590019 0.45499 L 0.59502 0.45499 L 0.59502 0.459991 L 0.600021 0.459991 L 0.600021 0.449989 L 0.59502 0.449989 L 0.59502 0.444988 L 0.610023 0.444988 L 0.610023 0.449989 L 0.605022 0.449989 L 0.605022 0.459991 L 0.610023 0.459991 L 0.610023 0.45499 L 0.615025 0.45499 L 0.615025 0.459991 L 0.620026 0.459991 L 0.620026 0.449989 L 0.615025 0.449989 L 0.615025 0.444988 L 0.620026 0.444988 L 0.620026 0.434986 L 0.615025 0.434986 L 0.615025 0.439987 L 0.605022 0.439987 L 0.605022 0.434986 L 0.610023 0.434986 L 0.610023 0.429985 L 0.605022 0.429985 L 0.605022 0.424984 L 0.615025 0.424984 L 0.615025 0.429985 L 0.620026 0.429985 L 0.620026 0.424984 L 0.630028 0.424984 L 0.630028 0.429985 L 0.625027 0.429985 L 0.625027 0.439987 L 0.630028 0.439987 L 0.630028 0.434986 L 0.635029 0.434986 L 0.635029 0.439987 L 0.64003 0.439987 L 0.64003 0.429985 L 0.635029 0.429985 L 0.635029 0.424984 L 0.645031 0.424984 L 0.645031 0.429985 L 0.650032 0.429985 L 0.650032 0.424984 L 0.660034 0.424984 L 0.660034 0.429985 L 0.655033 0.429985 L 0.655033 0.434986 L 0.660034 0.434986 L 0.660034 0.439987 L 0.650032 0.439987 L 0.650032 0.434986 L 0.645031 0.434986 L 0.645031 0.449989 L 0.650032 0.449989 L 0.650032 0.444988 L 0.660034 0.444988 L 0.660034 0.449989 L 0.655033 0.449989 L 0.655033 0.45499 L 0.660034 0.45499 L 0.660034 0.459991 L 0.650032 0.459991 L 0.650032 0.45499 L 0.645031 0.45499 L 0.645031 0.459991 L 0.635029 0.459991 L 0.635029 0.45499 L 0.64003 0.45499 L 0.64003 0.444988 L 0.635029 0.444988 L 0.635029 0.449989 L 0.630028 0.449989 L 0.630028 0.444988 L 0.625027 0.444988 L 0.625027 0.45499 L 0.630028 0.45499 L 0.630028 0.459991 L 0.625027 0.459991 L 0.625027 0.464993 L 0.630028 0.464993 L 0.630028 0.469994 L 0.625027 0.469994 L 0.625027 0.479996 L 0.630028 0.479996 L 0.630028 0.474995 L 0.635029 0.474995 L 0.635029 0.479996 L 0.64003 0.479996 L 0.64003 0.469994 L 0.635029 0.469994 L 0.635029 0.464993 L 0.645031 0.464993 L 0.645031 0.469994 L 0.650032 0.469994 L 0.650032 0.464993 L 0.660034 0.464993 L 0.660034 0.469994 L 0.655033 0.469994 L 0.655033 0.474995 L 0.660034 0.474995 L 0.660034 0.479996 L 0.650032 0.479996 L 0.650032 0.474995 L 0.645031 0.474995 L 0.645031 0.489998 L 0.650032 0.489998 L 0.650032 0.484997 L 0.660034 0.484997 L 0.660034 0.489998 L 0.655033 0.489998 L 0.655033 0.494999 L 0.660034 0.494999 L 0.660034 0.5 L 0.650032 0.5 L 0.650032 0.494999 L 0.645031 0.494999 L 0.645031 0.5 L 0.635029 0.5 L 0.635029 0.494999 L 0.64003 0.494999 L 0.64003 0.484997 L 0.635029 0.484997 L 0.635029 0.489998 L 0.630028 0.489998 L 0.630028 0.484997 L 0.625027 0.484997 L 0.625027 0.494999 L 0.630028 0.494999 L 0.630028 0.5 L 0.620026 0.5 L 0.620026 0.494999 L 0.615025 0.494999 L 0.615025 0.5 L 0.605022 0.5 L 0.605022 0.494999 L 0.610023 0.494999 L 0.610023 0.489998 L 0.605022 0.489998 L 0.605022 0.484997 L 0.615025 0.484997 L 0.615025 0.489998 L 0.620026 0.489998 L 0.620026 0.479996 L 0.615025 0.479996 L 0.615025 0.474995 L 0.620026 0.474995 L 0.620026 0.464993 L 0.615025 0.464993 L 0.615025 0.469994 L 0.610023 0.469994 L 0.610023 0.464993 L 0.605022 0.464993 L 0.605022 0.474995 L 0.610023 0.474995 L 0.610023 0.479996 L 0.59502 0.479996 L 0.59502 0.474995 L 0.600021 0.474995 L 0.600021 0.464993 L 0.59502 0.464993 L 0.59502 0.469994 L 0.590019 0.469994 L 0.590019 0.464993 L 0.585018 0.464993 L 0.585018 0.474995 L 0.590019 0.474995 L 0.590019 0.479996 L 0.585018 0.479996 L 0.585018 0.489998 L 0.590019 0.489998 L 0.590019 0.484997 L 0.600021 0.484997 L 0.600021 0.489998 L 0.59502 0.489998 L 0.59502 0.494999 L 0.600021 0.494999 L 0.600021 0.5 L 0.590019 0.5 L 0.590019 0.494999 L 0.585018 0.494999 L 0.585018 0.5 L 0.575016 0.5 L 0.575016 0.494999 L 0.580017 0.494999 L 0.580017 0.484997 L 0.575016 0.484997 L 0.575016 0.489998 L 0.570015 0.489998 L 0.570015 0.484997 L 0.565014 0.484997 L 0.565014 0.494999 L 0.570015 0.494999 L 0.570015 0.5 L 0.560013 0.5 L 0.560013 0.494999 L 0.555012 0.494999 L 0.555012 0.5 L 0.54501 0.5 L 0.54501 0.494999 L 0.550011 0.494999 L 0.550011 0.489998 L 0.54501 0.489998 L 0.54501 0.484997 L 0.555012 0.484997 L 0.555012 0.489998 L 0.560013 0.489998 L 0.560013 0.474995 L 0.555012 0.474995 L 0.555012 0.479996 L 0.54501 0.479996 L 0.54501 0.474995 L 0.550011 0.474995 L 0.550011 0.469994 L 0.54501 0.469994 L 0.54501 0.464993 L 0.555012 0.464993 L 0.555012 0.469994 L 0.560013 0.469994 L 0.560013 0.464993 L 0.570015 0.464993 L 0.570015 0.469994 L 0.565014 0.469994 L 0.565014 0.479996 L 0.570015 0.479996 L 0.570015 0.474995 L 0.575016 0.474995 L 0.575016 0.479996 L 0.580017 0.479996 L 0.580017 0.469994 L 0.575016 0.469994 L 0.575016 0.464993 L 0.580017 0.464993 L 0.580017 0.45499 L 0.575016 0.45499 L 0.575016 0.459991 L 0.565014 0.459991 L 0.565014 0.45499 L 0.570015 0.45499 L 0.570015 0.449989 L 0.565014 0.449989 L 0.565014 0.444988 L 0.575016 0.444988 L 0.575016 0.449989 L 0.580017 0.449989 L 0.580017 0.439987 L 0.575016 0.439987 L 0.575016 0.434986 L 0.580017 0.434986 L 0.580017 0.424984 L 0.575016 0.424984 L 0.575016 0.429985 L 0.570015 0.429985 L 0.570015 0.424984 L 0.565014 0.424984 L 0.565014 0.434986 L 0.570015 0.434986 L 0.570015 0.439987 L 0.555012 0.439987 L 0.555012 0.434986 L 0.560013 0.434986 L 0.560013 0.424984 L 0.555012 0.424984 L 0.555012 0.429985 L 0.550011 0.429985 L 0.550011 0.424984 L 0.54501 0.424984 L 0.54501 0.434986 L 0.550011 0.434986 L 0.550011 0.439987 L 0.54501 0.439987 L 0.54501 0.449989 L 0.550011 0.449989 L 0.550011 0.444988 L 0.560013 0.444988 L 0.560013 0.449989 L 0.555012 0.449989 L 0.555012 0.45499 L 0.560013 0.45499 L 0.560013 0.459991 L 0.550011 0.459991 L 0.550011 0.45499 L 0.54501 0.45499 L 0.54501 0.459991 L 0.540009 0.459991 L 0.540009 0.45499 L 0.535007 0.45499 L 0.535007 0.459991 L 0.525005 0.459991 L 0.525005 0.45499 L 0.530006 0.45499 L 0.530006 0.449989 L 0.525005 0.449989 L 0.525005 0.444988 L 0.535007 0.444988 L 0.535007 0.449989 L 0.540009 0.449989 L 0.540009 0.439987 L 0.535007 0.439987 L 0.535007 0.434986 L 0.540009 0.434986 L 0.540009 0.424984 L 0.535007 0.424984 L 0.535007 0.429985 L 0.530006 0.429985 L 0.530006 0.424984 L 0.525005 0.424984 L 0.525005 0.434986 L 0.530006 0.434986 L 0.530006 0.439987 L 0.515003 0.439987 L 0.515003 0.434986 L 0.520004 0.434986 L 0.520004 0.424984 L 0.515003 0.424984 L 0.515003 0.429985 L 0.510002 0.429985 L 0.510002 0.424984 L 0.505001 0.424984 L 0.505001 0.434986 L 0.510002 0.434986 L 0.510002 0.439987 L 0.505001 0.439987 L 0.505001 0.449989 L 0.510002 0.449989 L 0.510002 0.444988 L 0.520004 0.444988 L 0.520004 0.449989 L 0.515003 0.449989 L 0.515003 0.45499 L 0.520004 0.45499 L 0.520004 0.459991 L 0.510002 0.459991 L 0.510002 0.45499 L 0.505001 0.45499 L 0.505001 0.464993 L 0.510002 0.464993 L 0.510002 0.469994 L 0.505001 0.469994 L 0.505001 0.479996 L 0.510002 0.479996 L 0.510002 0.474995 L 0.515003 0.474995 L 0.515003 0.479996 L 0.520004 0.479996 L 0.520004 0.469994 L 0.515003 0.469994 L 0.515003 0.464993 L 0.525005 0.464993 L 0.525005 0.469994 L 0.530006 0.469994 L 0.530006 0.464993 L 0.540009 0.464993 L 0.540009 0.469994 L 0.535007 0.469994 L 0.535007 0.474995 L 0.540009 0.474995 L 0.540009 0.479996 L 0.530006 0.479996 L 0.530006 0.474995 L 0.525005 0.474995 L 0.525005 0.489998 L 0.530006 0.489998 L 0.530006 0.484997 L 0.540009 0.484997 L 0.540009 0.489998 L 0.535007 0.489998 L 0.535007 0.494999 L 0.540009 0.494999 L 0.540009 0.5 L 0.530006 0.5 L 0.530006 0.494999 L 0.525005 0.494999 L 0.525005 0.5 L 0.515003 0.5 L 0.515003 0.494999 L 0.520004 0.494999 L 0.520004 0.484997 L 0.515003 0.484997 L 0.515003 0.489998 L 0.510002 0.489998 L 0.510002 0.484997 L 0.505001 0.484997 L 0.505001 0.494999 L 0.510002 0.494999 L 0.510002 0.5 L 0.505001 0.5 " transform="matrix(1024,0,0,1024,0,0)"/>
</g>
</svg>
