<?xml version="1.0" encoding="UTF-8"?>
<svg xmlns="http://www.w3.org/2000/svg" xmlns:xlink="http://www.w3.org/1999/xlink" width="1024pt" height="1024pt" viewBox="0 0 1024 1024" version="1.1">
<g id="surface21">
<path style="fill:none;stroke-width:0.001;stroke-linecap:butt;stroke-linejoin:miter;stroke:rgb(0%,0%,0%);stroke-opacity:1;stroke-miterlimit:10;" d="M 0.5 0.5 L 0.5 0.419983 L 0.483093 0.383728 L 0.467773 0.370865 L 0.458115 0.368279 L 0.45319 0.369148 M 0.45319 0.369148 L 0.448265 0.370018 L 0.443436 0.368725 M 0.458115 0.368279 L 0.453285 0.366985 M 0.453285 0.366985 L 0.448456 0.365692 L 0.444626 0.362476 M 0.458115 0.368279 L 0.448456 0.365692 L 0.436966 0.356045 M 0.436966 0.356045 L 0.433136 0.352829 L 0.431023 0.348297 M 0.448456 0.365692 L 0.443531 0.366562 M 0.443531 0.366562 L 0.438606 0.367432 L 0.433777 0.366138 M 0.467773 0.370865 L 0.460114 0.364433 L 0.455284 0.36314 M 0.455284 0.36314 L 0.450455 0.361847 L 0.446625 0.358631 M 0.460114 0.364433 L 0.456284 0.361217 M 0.456284 0.361217 L 0.452454 0.358002 L 0.45034 0.35347 M 0.460114 0.364433 L 0.452454 0.358002 L 0.446114 0.344406 M 0.446114 0.344406 L 0.444 0.339874 L 0.444 0.334873 M 0.452454 0.358002 L 0.447624 0.356709 M 0.447624 0.356709 L 0.442795 0.355415 L 0.438965 0.3522 M 0.467773 0.370865 L 0.452454 0.358002 L 0.439774 0.330811 L 0.435944 0.327595 M 0.435944 0.327595 L 0.432114 0.324379 L 0.43 0.319847 M 0.439774 0.330811 L 0.43766 0.326279 M 0.43766 0.326279 L 0.435547 0.321747 L 0.435547 0.316746 M 0.439774 0.330811 L 0.435547 0.321747 L 0.435547 0.306744 M 0.435547 0.306744 L 0.435547 0.301743 L 0.43766 0.297211 M 0.435547 0.321747 L 0.431717 0.318531 M 0.431717 0.318531 L 0.427887 0.315315 L 0.425774 0.310783 M 0.452454 0.358002 L 0.442795 0.355415 L 0.43787 0.356285 M 0.43787 0.356285 L 0.432945 0.357155 L 0.428116 0.355862 M 0.442795 0.355415 L 0.437965 0.354122 M 0.437965 0.354122 L 0.433136 0.352829 L 0.429306 0.349613 M 0.442795 0.355415 L 0.433136 0.352829 L 0.421646 0.343182 M 0.421646 0.343182 L 0.417816 0.339966 L 0.415703 0.335434 M 0.433136 0.352829 L 0.428211 0.353699 M 0.428211 0.353699 L 0.423286 0.354568 L 0.418457 0.353275 M 0.483093 0.383728 L 0.47464 0.365601 L 0.46698 0.359169 L 0.462151 0.357876 M 0.462151 0.357876 L 0.457321 0.356583 L 0.453491 0.353367 M 0.46698 0.359169 L 0.46315 0.355953 M 0.46315 0.355953 L 0.45932 0.352737 L 0.457207 0.348206 M 0.46698 0.359169 L 0.45932 0.352737 L 0.45298 0.339142 M 0.45298 0.339142 L 0.450867 0.33461 L 0.450867 0.329609 M 0.45932 0.352737 L 0.454491 0.351444 M 0.454491 0.351444 L 0.449661 0.350151 L 0.445831 0.346935 M 0.47464 0.365601 L 0.470413 0.356537 L 0.466583 0.353321 M 0.466583 0.353321 L 0.462753 0.350105 L 0.46064 0.345573 M 0.470413 0.356537 L 0.4683 0.352005 M 0.4683 0.352005 L 0.466187 0.347473 L 0.466187 0.342472 M 0.470413 0.356537 L 0.466187 0.347473 L 0.466187 0.33247 M 0.466187 0.33247 L 0.466187 0.327469 L 0.4683 0.322937 M 0.466187 0.347473 L 0.462357 0.344257 M 0.462357 0.344257 L 0.458527 0.341042 L 0.456413 0.33651 M 0.47464 0.365601 L 0.466187 0.347473 L 0.466187 0.317467 L 0.464073 0.312935 M 0.464073 0.312935 L 0.46196 0.308403 L 0.46196 0.303402 M 0.466187 0.317467 L 0.466187 0.312466 M 0.466187 0.312466 L 0.466187 0.307465 L 0.4683 0.302933 M 0.466187 0.317467 L 0.466187 0.307465 L 0.472527 0.293869 M 0.472527 0.293869 L 0.47464 0.289337 L 0.47847 0.286121 M 0.466187 0.307465 L 0.464073 0.302933 M 0.464073 0.302933 L 0.46196 0.298401 L 0.46196 0.2934 M 0.466187 0.347473 L 0.458527 0.341042 L 0.453697 0.339748 M 0.453697 0.339748 L 0.448868 0.338455 L 0.445038 0.335239 M 0.458527 0.341042 L 0.454697 0.337826 M 0.454697 0.337826 L 0.450867 0.33461 L 0.448753 0.330078 M 0.458527 0.341042 L 0.450867 0.33461 L 0.444527 0.321014 M 0.444527 0.321014 L 0.442413 0.316483 L 0.442413 0.311481 M 0.450867 0.33461 L 0.446037 0.333317 M 0.446037 0.333317 L 0.441208 0.332024 L 0.437378 0.328808 M 0.483093 0.383728 L 0.466187 0.347473 L 0.466187 0.28746 L 0.46196 0.278397 L 0.45813 0.275181 M 0.45813 0.275181 L 0.4543 0.271965 L 0.452187 0.267433 M 0.46196 0.278397 L 0.459846 0.273865 M 0.459846 0.273865 L 0.457733 0.269333 L 0.457733 0.264332 M 0.46196 0.278397 L 0.457733 0.269333 L 0.457733 0.25433 M 0.457733 0.25433 L 0.457733 0.249329 L 0.459846 0.244797 M 0.457733 0.269333 L 0.453903 0.266117 M 0.453903 0.266117 L 0.450073 0.262901 L 0.44796 0.258369 M 0.466187 0.28746 L 0.466187 0.277458 L 0.464073 0.272926 M 0.464073 0.272926 L 0.46196 0.268394 L 0.46196 0.263393 M 0.466187 0.277458 L 0.466187 0.272457 M 0.466187 0.272457 L 0.466187 0.267456 L 0.4683 0.262924 M 0.466187 0.277458 L 0.466187 0.267456 L 0.472527 0.25386 M 0.472527 0.25386 L 0.47464 0.249329 L 0.47847 0.246113 M 0.466187 0.267456 L 0.464073 0.262924 M 0.464073 0.262924 L 0.46196 0.258392 L 0.46196 0.253391 M 0.466187 0.28746 L 0.466187 0.267456 L 0.478867 0.240265 L 0.478867 0.235264 M 0.478867 0.235264 L 0.478867 0.230263 L 0.48098 0.225731 M 0.478867 0.240265 L 0.48098 0.235733 M 0.48098 0.235733 L 0.483093 0.231201 L 0.486923 0.227985 M 0.478867 0.240265 L 0.483093 0.231201 L 0.494583 0.221554 M 0.494583 0.221554 L 0.498413 0.218338 L 0.503242 0.217045 M 0.483093 0.231201 L 0.483093 0.2262 M 0.483093 0.2262 L 0.483093 0.221199 L 0.485207 0.216667 M 0.466187 0.267456 L 0.46196 0.258392 L 0.45813 0.255177 M 0.45813 0.255177 L 0.4543 0.251961 L 0.452187 0.247429 M 0.46196 0.258392 L 0.459846 0.25386 M 0.459846 0.25386 L 0.457733 0.249329 L 0.457733 0.244328 M 0.46196 0.258392 L 0.457733 0.249329 L 0.457733 0.234325 M 0.457733 0.234325 L 0.457733 0.229324 L 0.459846 0.224792 M 0.457733 0.249329 L 0.453903 0.246113 M 0.453903 0.246113 L 0.450073 0.242897 L 0.44796 0.238365 M 0.466187 0.347473 L 0.450867 0.33461 L 0.441208 0.332024 L 0.436283 0.332893 M 0.436283 0.332893 L 0.431358 0.333763 L 0.426529 0.33247 M 0.441208 0.332024 L 0.436378 0.33073 M 0.436378 0.33073 L 0.431549 0.329437 L 0.427719 0.326221 M 0.441208 0.332024 L 0.431549 0.329437 L 0.420059 0.31979 M 0.420059 0.31979 L 0.416229 0.316574 L 0.414116 0.312042 M 0.431549 0.329437 L 0.426624 0.330307 M 0.426624 0.330307 L 0.4217 0.331177 L 0.41687 0.329884 M 0.450867 0.33461 L 0.443207 0.328178 L 0.438377 0.326885 M 0.438377 0.326885 L 0.433548 0.325592 L 0.429718 0.322376 M 0.443207 0.328178 L 0.439377 0.324963 M 0.439377 0.324963 L 0.435547 0.321747 L 0.433434 0.317215 M 0.443207 0.328178 L 0.435547 0.321747 L 0.429207 0.308151 M 0.429207 0.308151 L 0.427094 0.303619 L 0.427094 0.298618 M 0.435547 0.321747 L 0.430717 0.320454 M 0.430717 0.320454 L 0.425888 0.31916 L 0.422058 0.315945 M 0.450867 0.33461 L 0.435547 0.321747 L 0.422867 0.294556 L 0.419037 0.29134 M 0.419037 0.29134 L 0.415207 0.288124 L 0.413094 0.283592 M 0.422867 0.294556 L 0.420753 0.290024 M 0.420753 0.290024 L 0.41864 0.285492 L 0.41864 0.280491 M 0.422867 0.294556 L 0.41864 0.285492 L 0.41864 0.270489 M 0.41864 0.270489 L 0.41864 0.265488 L 0.420753 0.260956 M 0.41864 0.285492 L 0.41481 0.282276 M 0.41481 0.282276 L 0.41098 0.27906 L 0.408867 0.274529 M 0.435547 0.321747 L 0.425888 0.31916 L 0.420963 0.32003 M 0.420963 0.32003 L 0.416039 0.3209 L 0.411209 0.319607 M 0.425888 0.31916 L 0.421059 0.317867 M 0.421059 0.317867 L 0.416229 0.316574 L 0.412399 0.313358 M 0.425888 0.31916 L 0.416229 0.316574 L 0.404739 0.306927 M 0.404739 0.306927 L 0.400909 0.303711 L 0.398796 0.299179 M 0.416229 0.316574 L 0.411304 0.317444 M 0.411304 0.317444 L 0.40638 0.318314 L 0.40155 0.31702 M 0.5 0.419983 L 0.5 0.379974 L 0.491547 0.361847 L 0.483887 0.355415 L 0.479057 0.354122 M 0.479057 0.354122 L 0.474228 0.352829 L 0.470398 0.349613 M 0.483887 0.355415 L 0.480057 0.3522 M 0.480057 0.3522 L 0.476227 0.348984 L 0.474113 0.344452 M 0.483887 0.355415 L 0.476227 0.348984 L 0.469887 0.335388 M 0.469887 0.335388 L 0.467773 0.330856 L 0.467773 0.325855 M 0.476227 0.348984 L 0.471397 0.347691 M 0.471397 0.347691 L 0.466568 0.346397 L 0.462738 0.343182 M 0.491547 0.361847 L 0.48732 0.352783 L 0.48349 0.349567 M 0.48349 0.349567 L 0.47966 0.346352 L 0.477547 0.34182 M 0.48732 0.352783 L 0.485207 0.348251 M 0.485207 0.348251 L 0.483093 0.343719 L 0.483093 0.338718 M 0.48732 0.352783 L 0.483093 0.343719 L 0.483093 0.328716 M 0.483093 0.328716 L 0.483093 0.323715 L 0.485207 0.319183 M 0.483093 0.343719 L 0.479263 0.340504 M 0.479263 0.340504 L 0.475433 0.337288 L 0.47332 0.332756 M 0.491547 0.361847 L 0.483093 0.343719 L 0.483093 0.313713 L 0.48098 0.309181 M 0.48098 0.309181 L 0.478867 0.304649 L 0.478867 0.299648 M 0.483093 0.313713 L 0.483093 0.308712 M 0.483093 0.308712 L 0.483093 0.303711 L 0.485207 0.299179 M 0.483093 0.313713 L 0.483093 0.303711 L 0.489433 0.290115 M 0.489433 0.290115 L 0.491547 0.285583 L 0.495377 0.282368 M 0.483093 0.303711 L 0.48098 0.299179 M 0.48098 0.299179 L 0.478867 0.294647 L 0.478867 0.289646 M 0.483093 0.343719 L 0.475433 0.337288 L 0.470604 0.335995 M 0.470604 0.335995 L 0.465775 0.334702 L 0.461945 0.331486 M 0.475433 0.337288 L 0.471603 0.334072 M 0.471603 0.334072 L 0.467773 0.330856 L 0.46566 0.326324 M 0.475433 0.337288 L 0.467773 0.330856 L 0.461433 0.317261 M 0.461433 0.317261 L 0.45932 0.312729 L 0.45932 0.307728 M 0.467773 0.330856 L 0.462944 0.329563 M 0.462944 0.329563 L 0.458115 0.32827 L 0.454285 0.325054 M 0.5 0.379974 L 0.5 0.35997 L 0.495773 0.350906 L 0.491943 0.347691 M 0.491943 0.347691 L 0.488113 0.344475 L 0.486 0.339943 M 0.495773 0.350906 L 0.49366 0.346375 M 0.49366 0.346375 L 0.491547 0.341843 L 0.491547 0.336842 M 0.495773 0.350906 L 0.491547 0.341843 L 0.491547 0.326839 M 0.491547 0.326839 L 0.491547 0.321838 L 0.49366 0.317307 M 0.491547 0.341843 L 0.487717 0.338627 M 0.487717 0.338627 L 0.483887 0.335411 L 0.481773 0.330879 M 0.5 0.35997 L 0.5 0.349968 L 0.497887 0.345436 M 0.497887 0.345436 L 0.495773 0.340904 L 0.495773 0.335903 M 0.5 0.349968 L 0.5 0.344967 M 0.5 0.344967 L 0.5 0.339966 L 0.502113 0.335434 M 0.5 0.349968 L 0.5 0.339966 L 0.50634 0.32637 M 0.50634 0.32637 L 0.508453 0.321838 L 0.512283 0.318623 M 0.5 0.339966 L 0.497887 0.335434 M 0.497887 0.335434 L 0.495773 0.330902 L 0.495773 0.325901 M 0.5 0.35997 L 0.5 0.339966 L 0.51268 0.312775 L 0.51268 0.307774 M 0.51268 0.307774 L 0.51268 0.302773 L 0.514793 0.298241 M 0.51268 0.312775 L 0.514793 0.308243 M 0.514793 0.308243 L 0.516907 0.303711 L 0.520737 0.300495 M 0.51268 0.312775 L 0.516907 0.303711 L 0.528397 0.294064 M 0.528397 0.294064 L 0.532227 0.290848 L 0.537056 0.289555 M 0.516907 0.303711 L 0.516907 0.29871 M 0.516907 0.29871 L 0.516907 0.293709 L 0.51902 0.289177 M 0.5 0.339966 L 0.495773 0.330902 L 0.491943 0.327686 M 0.491943 0.327686 L 0.488113 0.324471 L 0.486 0.319939 M 0.495773 0.330902 L 0.49366 0.32637 M 0.49366 0.32637 L 0.491547 0.321838 L 0.491547 0.316837 M 0.495773 0.330902 L 0.491547 0.321838 L 0.491547 0.306835 M 0.491547 0.306835 L 0.491547 0.301834 L 0.49366 0.297302 M 0.491547 0.321838 L 0.487717 0.318623 M 0.487717 0.318623 L 0.483887 0.315407 L 0.481773 0.310875 M 0.5 0.379974 L 0.5 0.339966 L 0.52536 0.285583 L 0.52536 0.275581 L 0.523247 0.271049 M 0.523247 0.271049 L 0.521133 0.266518 L 0.521133 0.261517 M 0.52536 0.275581 L 0.52536 0.27058 M 0.52536 0.27058 L 0.52536 0.265579 L 0.527473 0.261047 M 0.52536 0.275581 L 0.52536 0.265579 L 0.5317 0.251984 M 0.5317 0.251984 L 0.533813 0.247452 L 0.537643 0.244236 M 0.52536 0.265579 L 0.523247 0.261047 M 0.523247 0.261047 L 0.521133 0.256516 L 0.521133 0.251514 M 0.52536 0.285583 L 0.529587 0.27652 L 0.529587 0.271519 M 0.529587 0.271519 L 0.529587 0.266518 L 0.5317 0.261986 M 0.529587 0.27652 L 0.5317 0.271988 M 0.5317 0.271988 L 0.533813 0.267456 L 0.537643 0.26424 M 0.529587 0.27652 L 0.533813 0.267456 L 0.545303 0.257809 M 0.545303 0.257809 L 0.549133 0.254593 L 0.553963 0.2533 M 0.533813 0.267456 L 0.533813 0.262455 M 0.533813 0.262455 L 0.533813 0.257454 L 0.535927 0.252922 M 0.52536 0.285583 L 0.533813 0.267456 L 0.556793 0.248161 L 0.558907 0.243629 M 0.558907 0.243629 L 0.56102 0.239098 L 0.56485 0.235882 M 0.556793 0.248161 L 0.560623 0.244946 M 0.560623 0.244946 L 0.564453 0.24173 L 0.569283 0.240437 M 0.556793 0.248161 L 0.564453 0.24173 L 0.578941 0.23785 M 0.578941 0.23785 L 0.583771 0.236557 L 0.588696 0.237427 M 0.564453 0.24173 L 0.566566 0.237198 M 0.566566 0.237198 L 0.56868 0.232666 L 0.57251 0.22945 M 0.533813 0.267456 L 0.533813 0.257454 L 0.5317 0.252922 M 0.5317 0.252922 L 0.529587 0.24839 L 0.529587 0.243389 M 0.533813 0.257454 L 0.533813 0.252453 M 0.533813 0.252453 L 0.533813 0.247452 L 0.535927 0.24292 M 0.533813 0.257454 L 0.533813 0.247452 L 0.540154 0.233856 M 0.540154 0.233856 L 0.542267 0.229324 L 0.546097 0.226109 M 0.533813 0.247452 L 0.5317 0.24292 M 0.5317 0.24292 L 0.529587 0.238388 L 0.529587 0.233387 M 0.5 0.339966 L 0.491547 0.321838 L 0.483887 0.315407 L 0.479057 0.314114 M 0.479057 0.314114 L 0.474228 0.31282 L 0.470398 0.309605 M 0.483887 0.315407 L 0.480057 0.312191 M 0.480057 0.312191 L 0.476227 0.308975 L 0.474113 0.304443 M 0.483887 0.315407 L 0.476227 0.308975 L 0.469887 0.29538 M 0.469887 0.29538 L 0.467773 0.290848 L 0.467773 0.285847 M 0.476227 0.308975 L 0.471397 0.307682 M 0.471397 0.307682 L 0.466568 0.306389 L 0.462738 0.303173 M 0.491547 0.321838 L 0.48732 0.312775 L 0.48349 0.309559 M 0.48349 0.309559 L 0.47966 0.306343 L 0.477547 0.301811 M 0.48732 0.312775 L 0.485207 0.308243 M 0.485207 0.308243 L 0.483093 0.303711 L 0.483093 0.29871 M 0.48732 0.312775 L 0.483093 0.303711 L 0.483093 0.288708 M 0.483093 0.288708 L 0.483093 0.283707 L 0.485207 0.279175 M 0.483093 0.303711 L 0.479263 0.300495 M 0.479263 0.300495 L 0.475433 0.297279 L 0.47332 0.292747 M 0.491547 0.321838 L 0.483093 0.303711 L 0.483093 0.273705 L 0.48098 0.269173 M 0.48098 0.269173 L 0.478867 0.264641 L 0.478867 0.25964 M 0.483093 0.273705 L 0.483093 0.268703 M 0.483093 0.268703 L 0.483093 0.263702 L 0.485207 0.259171 M 0.483093 0.273705 L 0.483093 0.263702 L 0.489433 0.250107 M 0.489433 0.250107 L 0.491547 0.245575 L 0.495377 0.242359 M 0.483093 0.263702 L 0.48098 0.259171 M 0.48098 0.259171 L 0.478867 0.254639 L 0.478867 0.249638 M 0.483093 0.303711 L 0.475433 0.297279 L 0.470604 0.295986 M 0.470604 0.295986 L 0.465775 0.294693 L 0.461945 0.291477 M 0.475433 0.297279 L 0.471603 0.294064 M 0.471603 0.294064 L 0.467773 0.290848 L 0.46566 0.286316 M 0.475433 0.297279 L 0.467773 0.290848 L 0.461433 0.277252 M 0.461433 0.277252 L 0.45932 0.27272 L 0.45932 0.267719 M 0.467773 0.290848 L 0.462944 0.289555 M 0.462944 0.289555 L 0.458115 0.288261 L 0.454285 0.285046 M 0.5 0.419983 L 0.5 0.339966 L 0.55072 0.231201 L 0.55072 0.211197 L 0.546494 0.202133 L 0.542664 0.198917 M 0.542664 0.198917 L 0.538834 0.195702 L 0.53672 0.19117 M 0.546494 0.202133 L 0.54438 0.197601 M 0.54438 0.197601 L 0.542267 0.193069 L 0.542267 0.188068 M 0.546494 0.202133 L 0.542267 0.193069 L 0.542267 0.178066 M 0.542267 0.178066 L 0.542267 0.173065 L 0.54438 0.168533 M 0.542267 0.193069 L 0.538437 0.189854 M 0.538437 0.189854 L 0.534607 0.186638 L 0.532494 0.182106 M 0.55072 0.211197 L 0.55072 0.201195 L 0.548607 0.196663 M 0.548607 0.196663 L 0.546494 0.192131 L 0.546494 0.18713 M 0.55072 0.201195 L 0.55072 0.196194 M 0.55072 0.196194 L 0.55072 0.191193 L 0.552834 0.186661 M 0.55072 0.201195 L 0.55072 0.191193 L 0.55706 0.177597 M 0.55706 0.177597 L 0.559174 0.173065 L 0.563004 0.169849 M 0.55072 0.191193 L 0.548607 0.186661 M 0.548607 0.186661 L 0.546494 0.182129 L 0.546494 0.177128 M 0.55072 0.211197 L 0.55072 0.191193 L 0.5634 0.164001 L 0.5634 0.159 M 0.5634 0.159 L 0.5634 0.153999 L 0.565514 0.149467 M 0.5634 0.164001 L 0.565514 0.15947 M 0.565514 0.15947 L 0.567627 0.154938 L 0.571457 0.151722 M 0.5634 0.164001 L 0.567627 0.154938 L 0.579117 0.14529 M 0.579117 0.14529 L 0.582947 0.142075 L 0.587776 0.140781 M 0.567627 0.154938 L 0.567627 0.149937 M 0.567627 0.149937 L 0.567627 0.144936 L 0.56974 0.140404 M 0.55072 0.191193 L 0.546494 0.182129 L 0.542664 0.178913 M 0.542664 0.178913 L 0.538834 0.175697 L 0.53672 0.171165 M 0.546494 0.182129 L 0.54438 0.177597 M 0.54438 0.177597 L 0.542267 0.173065 L 0.542267 0.168064 M 0.546494 0.182129 L 0.542267 0.173065 L 0.542267 0.158062 M 0.542267 0.158062 L 0.542267 0.153061 L 0.54438 0.148529 M 0.542267 0.173065 L 0.538437 0.169849 M 0.538437 0.169849 L 0.534607 0.166634 L 0.532494 0.162102 M 0.55072 0.231201 L 0.559174 0.213074 L 0.559174 0.203072 L 0.55706 0.19854 M 0.55706 0.19854 L 0.554947 0.194008 L 0.554947 0.189007 M 0.559174 0.203072 L 0.559174 0.198071 M 0.559174 0.198071 L 0.559174 0.193069 L 0.561287 0.188538 M 0.559174 0.203072 L 0.559174 0.193069 L 0.565514 0.179474 M 0.565514 0.179474 L 0.567627 0.174942 L 0.571457 0.171726 M 0.559174 0.193069 L 0.55706 0.188538 M 0.55706 0.188538 L 0.554947 0.184006 L 0.554947 0.179005 M 0.559174 0.213074 L 0.5634 0.20401 L 0.5634 0.199009 M 0.5634 0.199009 L 0.5634 0.194008 L 0.565514 0.189476 M 0.5634 0.20401 L 0.565514 0.199478 M 0.565514 0.199478 L 0.567627 0.194946 L 0.571457 0.19173 M 0.5634 0.20401 L 0.567627 0.194946 L 0.579117 0.185299 M 0.579117 0.185299 L 0.582947 0.182083 L 0.587776 0.18079 M 0.567627 0.194946 L 0.567627 0.189945 M 0.567627 0.189945 L 0.567627 0.184944 L 0.56974 0.180412 M 0.559174 0.213074 L 0.567627 0.194946 L 0.590607 0.175652 L 0.59272 0.17112 M 0.59272 0.17112 L 0.594833 0.166588 L 0.598663 0.163372 M 0.590607 0.175652 L 0.594437 0.172436 M 0.594437 0.172436 L 0.598267 0.16922 L 0.603096 0.167927 M 0.590607 0.175652 L 0.598267 0.16922 L 0.612755 0.16534 M 0.612755 0.16534 L 0.617584 0.164047 L 0.622509 0.164917 M 0.598267 0.16922 L 0.60038 0.164688 M 0.60038 0.164688 L 0.602493 0.160156 L 0.606323 0.15694 M 0.567627 0.194946 L 0.567627 0.184944 L 0.565514 0.180412 M 0.565514 0.180412 L 0.5634 0.17588 L 0.5634 0.170879 M 0.567627 0.184944 L 0.567627 0.179943 M 0.567627 0.179943 L 0.567627 0.174942 L 0.56974 0.17041 M 0.567627 0.184944 L 0.567627 0.174942 L 0.573967 0.161346 M 0.573967 0.161346 L 0.57608 0.156815 L 0.57991 0.153599 M 0.567627 0.174942 L 0.565514 0.17041 M 0.565514 0.17041 L 0.5634 0.165878 L 0.5634 0.160877 M 0.55072 0.231201 L 0.567627 0.194946 L 0.613586 0.156357 L 0.617813 0.147293 L 0.617813 0.142292 M 0.617813 0.142292 L 0.617813 0.137291 L 0.619926 0.132759 M 0.617813 0.147293 L 0.619926 0.142761 M 0.619926 0.142761 L 0.62204 0.138229 L 0.62587 0.135014 M 0.617813 0.147293 L 0.62204 0.138229 L 0.63353 0.128582 M 0.63353 0.128582 L 0.63736 0.125366 L 0.642189 0.124073 M 0.62204 0.138229 L 0.62204 0.133228 M 0.62204 0.133228 L 0.62204 0.128227 L 0.624153 0.123695 M 0.613586 0.156357 L 0.621246 0.149925 L 0.62336 0.145393 M 0.62336 0.145393 L 0.625473 0.140862 L 0.629303 0.137646 M 0.621246 0.149925 L 0.625076 0.146709 M 0.625076 0.146709 L 0.628906 0.143494 L 0.633736 0.1422 M 0.621246 0.149925 L 0.628906 0.143494 L 0.643394 0.139614 M 0.643394 0.139614 L 0.648224 0.138321 L 0.653149 0.139191 M 0.628906 0.143494 L 0.63102 0.138962 M 0.63102 0.138962 L 0.633133 0.13443 L 0.636963 0.131214 M 0.613586 0.156357 L 0.628906 0.143494 L 0.657883 0.135735 L 0.661713 0.132519 M 0.661713 0.132519 L 0.665543 0.129303 L 0.670372 0.12801 M 0.657883 0.135735 L 0.662712 0.134441 M 0.662712 0.134441 L 0.667542 0.133148 L 0.672466 0.134018 M 0.657883 0.135735 L 0.667542 0.133148 L 0.682316 0.135757 M 0.682316 0.135757 L 0.687241 0.136627 L 0.691338 0.139496 M 0.667542 0.133148 L 0.671371 0.129932 M 0.671371 0.129932 L 0.675201 0.126717 L 0.680031 0.125423 M 0.628906 0.143494 L 0.633133 0.13443 L 0.633133 0.129429 M 0.633133 0.129429 L 0.633133 0.124428 L 0.635246 0.119896 M 0.633133 0.13443 L 0.635246 0.129898 M 0.635246 0.129898 L 0.63736 0.125366 L 0.64119 0.12215 M 0.633133 0.13443 L 0.63736 0.125366 L 0.648849 0.115719 M 0.648849 0.115719 L 0.652679 0.112503 L 0.657509 0.11121 M 0.63736 0.125366 L 0.63736 0.120365 M 0.63736 0.120365 L 0.63736 0.115364 L 0.639473 0.110832 M 0.567627 0.194946 L 0.567627 0.174942 L 0.5634 0.165878 L 0.55957 0.162663 M 0.55957 0.162663 L 0.55574 0.159447 L 0.553627 0.154915 M 0.5634 0.165878 L 0.561287 0.161346 M 0.561287 0.161346 L 0.559174 0.156815 L 0.559174 0.151814 M 0.5634 0.165878 L 0.559174 0.156815 L 0.559174 0.141811 M 0.559174 0.141811 L 0.559174 0.13681 L 0.561287 0.132278 M 0.559174 0.156815 L 0.555344 0.153599 M 0.555344 0.153599 L 0.551514 0.150383 L 0.5494 0.145851 M 0.567627 0.174942 L 0.567627 0.16494 L 0.565514 0.160408 M 0.565514 0.160408 L 0.5634 0.155876 L 0.5634 0.150875 M 0.567627 0.16494 L 0.567627 0.159939 M 0.567627 0.159939 L 0.567627 0.154938 L 0.56974 0.150406 M 0.567627 0.16494 L 0.567627 0.154938 L 0.573967 0.141342 M 0.573967 0.141342 L 0.57608 0.13681 L 0.57991 0.133595 M 0.567627 0.154938 L 0.565514 0.150406 M 0.565514 0.150406 L 0.5634 0.145874 L 0.5634 0.140873 M 0.567627 0.174942 L 0.567627 0.154938 L 0.580307 0.127747 L 0.580307 0.122746 M 0.580307 0.122746 L 0.580307 0.117744 L 0.58242 0.113213 M 0.580307 0.127747 L 0.58242 0.123215 M 0.58242 0.123215 L 0.584534 0.118683 L 0.588364 0.115467 M 0.580307 0.127747 L 0.584534 0.118683 L 0.596024 0.109035 M 0.596024 0.109035 L 0.599854 0.10582 L 0.604683 0.104527 M 0.584534 0.118683 L 0.584534 0.113682 M 0.584534 0.113682 L 0.584534 0.108681 L 0.586647 0.104149 M 0.567627 0.154938 L 0.5634 0.145874 L 0.55957 0.142658 M 0.55957 0.142658 L 0.55574 0.139442 L 0.553627 0.134911 M 0.5634 0.145874 L 0.561287 0.141342 M 0.561287 0.141342 L 0.559174 0.13681 L 0.559174 0.131809 M 0.5634 0.145874 L 0.559174 0.13681 L 0.559174 0.121807 M 0.559174 0.121807 L 0.559174 0.116806 L 0.561287 0.112274 M 0.559174 0.13681 L 0.555344 0.133595 M 0.555344 0.133595 L 0.551514 0.130379 L 0.5494 0.125847 M 0.5 0.339966 L 0.483093 0.303711 L 0.467773 0.290848 L 0.458115 0.288261 L 0.45319 0.289131 M 0.45319 0.289131 L 0.448265 0.290001 L 0.443436 0.288708 M 0.458115 0.288261 L 0.453285 0.286968 M 0.453285 0.286968 L 0.448456 0.285675 L 0.444626 0.282459 M 0.458115 0.288261 L 0.448456 0.285675 L 0.436966 0.276028 M 0.436966 0.276028 L 0.433136 0.272812 L 0.431023 0.26828 M 0.448456 0.285675 L 0.443531 0.286545 M 0.443531 0.286545 L 0.438606 0.287415 L 0.433777 0.286121 M 0.467773 0.290848 L 0.460114 0.284416 L 0.455284 0.283123 M 0.455284 0.283123 L 0.450455 0.28183 L 0.446625 0.278614 M 0.460114 0.284416 L 0.456284 0.2812 M 0.456284 0.2812 L 0.452454 0.277985 L 0.45034 0.273453 M 0.460114 0.284416 L 0.452454 0.277985 L 0.446114 0.264389 M 0.446114 0.264389 L 0.444 0.259857 L 0.444 0.254856 M 0.452454 0.277985 L 0.447624 0.276691 M 0.447624 0.276691 L 0.442795 0.275398 L 0.438965 0.272182 M 0.467773 0.290848 L 0.452454 0.277985 L 0.439774 0.250793 L 0.435944 0.247578 M 0.435944 0.247578 L 0.432114 0.244362 L 0.43 0.23983 M 0.439774 0.250793 L 0.43766 0.246262 M 0.43766 0.246262 L 0.435547 0.24173 L 0.435547 0.236729 M 0.439774 0.250793 L 0.435547 0.24173 L 0.435547 0.226727 M 0.435547 0.226727 L 0.435547 0.221725 L 0.43766 0.217194 M 0.435547 0.24173 L 0.431717 0.238514 M 0.431717 0.238514 L 0.427887 0.235298 L 0.425774 0.230766 M 0.452454 0.277985 L 0.442795 0.275398 L 0.43787 0.276268 M 0.43787 0.276268 L 0.432945 0.277138 L 0.428116 0.275845 M 0.442795 0.275398 L 0.437965 0.274105 M 0.437965 0.274105 L 0.433136 0.272812 L 0.429306 0.269596 M 0.442795 0.275398 L 0.433136 0.272812 L 0.421646 0.263165 M 0.421646 0.263165 L 0.417816 0.259949 L 0.415703 0.255417 M 0.433136 0.272812 L 0.428211 0.273682 M 0.428211 0.273682 L 0.423286 0.274551 L 0.418457 0.273258 M 0.483093 0.303711 L 0.47464 0.285583 L 0.46698 0.279152 L 0.462151 0.277859 M 0.462151 0.277859 L 0.457321 0.276566 L 0.453491 0.27335 M 0.46698 0.279152 L 0.46315 0.275936 M 0.46315 0.275936 L 0.45932 0.27272 L 0.457207 0.268188 M 0.46698 0.279152 L 0.45932 0.27272 L 0.45298 0.259125 M 0.45298 0.259125 L 0.450867 0.254593 L 0.450867 0.249592 M 0.45932 0.27272 L 0.454491 0.271427 M 0.454491 0.271427 L 0.449661 0.270134 L 0.445831 0.266918 M 0.47464 0.285583 L 0.470413 0.27652 L 0.466583 0.273304 M 0.466583 0.273304 L 0.462753 0.270088 L 0.46064 0.265556 M 0.470413 0.27652 L 0.4683 0.271988 M 0.4683 0.271988 L 0.466187 0.267456 L 0.466187 0.262455 M 0.470413 0.27652 L 0.466187 0.267456 L 0.466187 0.252453 M 0.466187 0.252453 L 0.466187 0.247452 L 0.4683 0.24292 M 0.466187 0.267456 L 0.462357 0.26424 M 0.462357 0.26424 L 0.458527 0.261024 L 0.456413 0.256493 M 0.47464 0.285583 L 0.466187 0.267456 L 0.466187 0.23745 L 0.464073 0.232918 M 0.464073 0.232918 L 0.46196 0.228386 L 0.46196 0.223385 M 0.466187 0.23745 L 0.466187 0.232449 M 0.466187 0.232449 L 0.466187 0.227448 L 0.4683 0.222916 M 0.466187 0.23745 L 0.466187 0.227448 L 0.472527 0.213852 M 0.472527 0.213852 L 0.47464 0.20932 L 0.47847 0.206104 M 0.466187 0.227448 L 0.464073 0.222916 M 0.464073 0.222916 L 0.46196 0.218384 L 0.46196 0.213383 M 0.466187 0.267456 L 0.458527 0.261024 L 0.453697 0.259731 M 0.453697 0.259731 L 0.448868 0.258438 L 0.445038 0.255222 M 0.458527 0.261024 L 0.454697 0.257809 M 0.454697 0.257809 L 0.450867 0.254593 L 0.448753 0.250061 M 0.458527 0.261024 L 0.450867 0.254593 L 0.444527 0.240997 M 0.444527 0.240997 L 0.442413 0.236465 L 0.442413 0.231464 M 0.450867 0.254593 L 0.446037 0.2533 M 0.446037 0.2533 L 0.441208 0.252007 L 0.437378 0.248791 M 0.483093 0.303711 L 0.466187 0.267456 L 0.466187 0.207443 L 0.46196 0.19838 L 0.45813 0.195164 M 0.45813 0.195164 L 0.4543 0.191948 L 0.452187 0.187416 M 0.46196 0.19838 L 0.459846 0.193848 M 0.459846 0.193848 L 0.457733 0.189316 L 0.457733 0.184315 M 0.46196 0.19838 L 0.457733 0.189316 L 0.457733 0.174313 M 0.457733 0.174313 L 0.457733 0.169312 L 0.459846 0.16478 M 0.457733 0.189316 L 0.453903 0.1861 M 0.453903 0.1861 L 0.450073 0.182884 L 0.44796 0.178352 M 0.466187 0.207443 L 0.466187 0.197441 L 0.464073 0.192909 M 0.464073 0.192909 L 0.46196 0.188377 L 0.46196 0.183376 M 0.466187 0.197441 L 0.466187 0.19244 M 0.466187 0.19244 L 0.466187 0.187439 L 0.4683 0.182907 M 0.466187 0.197441 L 0.466187 0.187439 L 0.472527 0.173843 M 0.472527 0.173843 L 0.47464 0.169312 L 0.47847 0.166096 M 0.466187 0.187439 L 0.464073 0.182907 M 0.464073 0.182907 L 0.46196 0.178375 L 0.46196 0.173374 M 0.466187 0.207443 L 0.466187 0.187439 L 0.478867 0.160248 L 0.478867 0.155247 M 0.478867 0.155247 L 0.478867 0.150246 L 0.48098 0.145714 M 0.478867 0.160248 L 0.48098 0.155716 M 0.48098 0.155716 L 0.483093 0.151184 L 0.486923 0.147968 M 0.478867 0.160248 L 0.483093 0.151184 L 0.494583 0.141537 M 0.494583 0.141537 L 0.498413 0.138321 L 0.503242 0.137028 M 0.483093 0.151184 L 0.483093 0.146183 M 0.483093 0.146183 L 0.483093 0.141182 L 0.485207 0.13665 M 0.466187 0.187439 L 0.46196 0.178375 L 0.45813 0.175159 M 0.45813 0.175159 L 0.4543 0.171944 L 0.452187 0.167412 M 0.46196 0.178375 L 0.459846 0.173843 M 0.459846 0.173843 L 0.457733 0.169312 L 0.457733 0.16431 M 0.46196 0.178375 L 0.457733 0.169312 L 0.457733 0.154308 M 0.457733 0.154308 L 0.457733 0.149307 L 0.459846 0.144775 M 0.457733 0.169312 L 0.453903 0.166096 M 0.453903 0.166096 L 0.450073 0.16288 L 0.44796 0.158348 M 0.466187 0.267456 L 0.450867 0.254593 L 0.441208 0.252007 L 0.436283 0.252876 M 0.436283 0.252876 L 0.431358 0.253746 L 0.426529 0.252453 M 0.441208 0.252007 L 0.436378 0.250713 M 0.436378 0.250713 L 0.431549 0.24942 L 0.427719 0.246204 M 0.441208 0.252007 L 0.431549 0.24942 L 0.420059 0.239773 M 0.420059 0.239773 L 0.416229 0.236557 L 0.414116 0.232025 M 0.431549 0.24942 L 0.426624 0.25029 M 0.426624 0.25029 L 0.4217 0.25116 L 0.41687 0.249866 M 0.450867 0.254593 L 0.443207 0.248161 L 0.438377 0.246868 M 0.438377 0.246868 L 0.433548 0.245575 L 0.429718 0.242359 M 0.443207 0.248161 L 0.439377 0.244946 M 0.439377 0.244946 L 0.435547 0.24173 L 0.433434 0.237198 M 0.443207 0.248161 L 0.435547 0.24173 L 0.429207 0.228134 M 0.429207 0.228134 L 0.427094 0.223602 L 0.427094 0.218601 M 0.435547 0.24173 L 0.430717 0.240437 M 0.430717 0.240437 L 0.425888 0.239143 L 0.422058 0.235928 M 0.450867 0.254593 L 0.435547 0.24173 L 0.422867 0.214539 L 0.419037 0.211323 M 0.419037 0.211323 L 0.415207 0.208107 L 0.413094 0.203575 M 0.422867 0.214539 L 0.420753 0.210007 M 0.420753 0.210007 L 0.41864 0.205475 L 0.41864 0.200474 M 0.422867 0.214539 L 0.41864 0.205475 L 0.41864 0.190472 M 0.41864 0.190472 L 0.41864 0.185471 L 0.420753 0.180939 M 0.41864 0.205475 L 0.41481 0.202259 M 0.41481 0.202259 L 0.41098 0.199043 L 0.408867 0.194511 M 0.435547 0.24173 L 0.425888 0.239143 L 0.420963 0.240013 M 0.420963 0.240013 L 0.416039 0.240883 L 0.411209 0.23959 M 0.425888 0.239143 L 0.421059 0.23785 M 0.421059 0.23785 L 0.416229 0.236557 L 0.412399 0.233341 M 0.425888 0.239143 L 0.416229 0.236557 L 0.404739 0.22691 M 0.404739 0.22691 L 0.400909 0.223694 L 0.398796 0.219162 M 0.416229 0.236557 L 0.411304 0.237427 M 0.411304 0.237427 L 0.40638 0.238297 L 0.40155 0.237003 M 0.40638 0.238297 " transform="matrix(1024,0,0,1024,0,0)"/>
</g>
</svg>
