<?xml version="1.0" encoding="UTF-8"?>
<svg xmlns="http://www.w3.org/2000/svg" xmlns:xlink="http://www.w3.org/1999/xlink" width="1024pt" height="1024pt" viewBox="0 0 1024 1024" version="1.1">
<g id="surface6">
<path style="fill:none;stroke-width:0.001;stroke-linecap:butt;stroke-linejoin:miter;stroke:rgb(0%,0%,0%);stroke-opacity:1;stroke-miterlimit:10;" d="M 0.5 0.5 L 0.5 0.494999 L 0.49567 0.497498 L 0.49567 0.492496 L 0.5 0.494995 L 0.5 0.489994 L 0.491341 0.494991 L 0.491341 0.48999 L 0.487011 0.492489 L 0.487011 0.487488 L 0.491341 0.489986 L 0.491341 0.484985 L 0.5 0.489983 L 0.5 0.484982 L 0.49567 0.48748 L 0.49567 0.482479 L 0.5 0.484978 L 0.5 0.479977 L 0.482681 0.489971 L 0.482681 0.48497 L 0.478352 0.487469 L 0.478352 0.482468 L 0.482681 0.484966 L 0.482681 0.479965 L 0.474022 0.484962 L 0.474022 0.479961 L 0.469692 0.48246 L 0.469692 0.477459 L 0.474022 0.479958 L 0.474022 0.474957 L 0.482681 0.479954 L 0.482681 0.474953 L 0.478352 0.477451 L 0.478352 0.47245 L 0.482681 0.474949 L 0.482681 0.469948 L 0.5 0.479942 L 0.5 0.474941 L 0.49567 0.47744 L 0.49567 0.472439 L 0.5 0.474937 L 0.5 0.469936 L 0.491341 0.474934 L 0.491341 0.469933 L 0.487011 0.472431 L 0.487011 0.46743 L 0.491341 0.469929 L 0.491341 0.464928 L 0.5 0.469925 L 0.5 0.464924 L 0.49567 0.467422 L 0.49567 0.462421 L 0.5 0.46492 L 0.5 0.459919 L 0.465363 0.479908 L 0.465363 0.474907 L 0.461033 0.477406 L 0.461033 0.472404 L 0.465363 0.474903 L 0.465363 0.469902 L 0.456703 0.474899 L 0.456703 0.469898 L 0.452374 0.472397 L 0.452374 0.467396 L 0.456703 0.469894 L 0.456703 0.464893 L 0.465363 0.469891 L 0.465363 0.46489 L 0.461033 0.467388 L 0.461033 0.462387 L 0.465363 0.464886 L 0.465363 0.459885 L 0.448044 0.469879 L 0.448044 0.464878 L 0.443714 0.467377 L 0.443714 0.462376 L 0.448044 0.464874 L 0.448044 0.459873 L 0.439384 0.46487 L 0.439384 0.459869 L 0.435055 0.462368 L 0.435055 0.457367 L 0.439384 0.459866 L 0.439384 0.454865 L 0.448044 0.459862 L 0.448044 0.454861 L 0.443714 0.457359 L 0.443714 0.452358 L 0.448044 0.454857 L 0.448044 0.449856 L 0.465363 0.45985 L 0.465363 0.454849 L 0.461033 0.457348 L 0.461033 0.452347 L 0.465363 0.454845 L 0.465363 0.449844 L 0.456703 0.454842 L 0.456703 0.449841 L 0.452374 0.452339 L 0.452374 0.447338 L 0.456703 0.449837 L 0.456703 0.444836 L 0.465363 0.449833 L 0.465363 0.444832 L 0.461033 0.44733 L 0.461033 0.442329 L 0.465363 0.444828 L 0.465363 0.439827 L 0.5 0.459816 L 0.5 0.454815 L 0.49567 0.457314 L 0.49567 0.452312 L 0.5 0.454811 L 0.5 0.44981 L 0.491341 0.454807 L 0.491341 0.449806 L 0.487011 0.452305 L 0.487011 0.447304 L 0.491341 0.449802 L 0.491341 0.444801 L 0.5 0.449799 L 0.5 0.444798 L 0.49567 0.447296 L 0.49567 0.442295 L 0.5 0.444794 L 0.5 0.439793 L 0.482681 0.449787 L 0.482681 0.444786 L 0.478352 0.447285 L 0.478352 0.442284 L 0.482681 0.444782 L 0.482681 0.439781 L 0.474022 0.444778 L 0.474022 0.439777 L 0.469692 0.442276 L 0.469692 0.437275 L 0.474022 0.439774 L 0.474022 0.434772 L 0.482681 0.43977 L 0.482681 0.434769 L 0.478352 0.437267 L 0.478352 0.432266 L 0.482681 0.434765 L 0.482681 0.429764 L 0.5 0.439758 L 0.5 0.434757 L 0.49567 0.437256 L 0.49567 0.432255 L 0.5 0.434753 L 0.5 0.429752 L 0.491341 0.43475 L 0.491341 0.429749 L 0.487011 0.432247 L 0.487011 0.427246 L 0.491341 0.429745 L 0.491341 0.424744 L 0.5 0.429741 L 0.5 0.42474 L 0.49567 0.427238 L 0.49567 0.422237 L 0.5 0.424736 L 0.5 0.419735 L 0.430725 0.459713 L 0.430725 0.454712 L 0.426395 0.457211 L 0.426395 0.452209 L 0.430725 0.454708 L 0.430725 0.449707 L 0.422066 0.454704 L 0.422066 0.449703 L 0.417736 0.452202 L 0.417736 0.447201 L 0.422066 0.449699 L 0.422066 0.444698 L 0.430725 0.449696 L 0.430725 0.444695 L 0.426395 0.447193 L 0.426395 0.442192 L 0.430725 0.444691 L 0.430725 0.43969 L 0.413406 0.449684 L 0.413406 0.444683 L 0.409077 0.447182 L 0.409077 0.442181 L 0.413406 0.444679 L 0.413406 0.439678 L 0.404747 0.444675 L 0.404747 0.439674 L 0.400417 0.442173 L 0.400417 0.437172 L 0.404747 0.439671 L 0.404747 0.434669 L 0.413406 0.439667 L 0.413406 0.434666 L 0.409077 0.437164 L 0.409077 0.432163 L 0.413406 0.434662 L 0.413406 0.429661 L 0.430725 0.439655 L 0.430725 0.434654 L 0.426395 0.437153 L 0.426395 0.432152 L 0.430725 0.43465 L 0.430725 0.429649 L 0.422066 0.434647 L 0.422066 0.429646 L 0.417736 0.432144 L 0.417736 0.427143 L 0.422066 0.429642 L 0.422066 0.424641 L 0.430725 0.429638 L 0.430725 0.424637 L 0.426395 0.427135 L 0.426395 0.422134 L 0.430725 0.424633 L 0.430725 0.419632 L 0.396088 0.439621 L 0.396088 0.43462 L 0.391758 0.437119 L 0.391758 0.432117 L 0.396088 0.434616 L 0.396088 0.429615 L 0.387428 0.434612 L 0.387428 0.429611 L 0.383099 0.43211 L 0.383099 0.427109 L 0.387428 0.429607 L 0.387428 0.424606 L 0.396088 0.429604 L 0.396088 0.424603 L 0.391758 0.427101 L 0.391758 0.4221 L 0.396088 0.424599 L 0.396088 0.419598 L 0.378769 0.429592 L 0.378769 0.424591 L 0.374439 0.42709 L 0.374439 0.422089 L 0.378769 0.424587 L 0.378769 0.419586 L 0.37011 0.424583 L 0.37011 0.419582 L 0.36578 0.422081 L 0.36578 0.41708 L 0.37011 0.419579 L 0.37011 0.414577 L 0.378769 0.419575 L 0.378769 0.414574 L 0.374439 0.417072 L 0.374439 0.412071 L 0.378769 0.41457 L 0.378769 0.409569 L 0.396088 0.419563 L 0.396088 0.414562 L 0.391758 0.417061 L 0.391758 0.41206 L 0.396088 0.414558 L 0.396088 0.409557 L 0.387428 0.414555 L 0.387428 0.409554 L 0.383099 0.412052 L 0.383099 0.407051 L 0.387428 0.40955 L 0.387428 0.404549 L 0.396088 0.409546 L 0.396088 0.404545 L 0.391758 0.407043 L 0.391758 0.402042 L 0.396088 0.404541 L 0.396088 0.39954 L 0.430725 0.419529 L 0.430725 0.414528 L 0.426395 0.417027 L 0.426395 0.412025 L 0.430725 0.414524 L 0.430725 0.409523 L 0.422066 0.41452 L 0.422066 0.409519 L 0.417736 0.412018 L 0.417736 0.407017 L 0.422066 0.409515 L 0.422066 0.404514 L 0.430725 0.409512 L 0.430725 0.40451 L 0.426395 0.407009 L 0.426395 0.402008 L 0.430725 0.404507 L 0.430725 0.399506 L 0.413406 0.4095 L 0.413406 0.404499 L 0.409077 0.406998 L 0.409077 0.401997 L 0.413406 0.404495 L 0.413406 0.399494 L 0.404747 0.404491 L 0.404747 0.39949 L 0.400417 0.401989 L 0.400417 0.396988 L 0.404747 0.399487 L 0.404747 0.394485 L 0.413406 0.399483 L 0.413406 0.394482 L 0.409077 0.39698 L 0.409077 0.391979 L 0.413406 0.394478 L 0.413406 0.389477 L 0.430725 0.399471 L 0.430725 0.39447 L 0.426395 0.396969 L 0.426395 0.391968 L 0.430725 0.394466 L 0.430725 0.389465 L 0.422066 0.394463 L 0.422066 0.389462 L 0.417736 0.39196 L 0.417736 0.386959 L 0.422066 0.389458 L 0.422066 0.384457 L 0.430725 0.389454 L 0.430725 0.384453 L 0.426395 0.386951 L 0.426395 0.38195 L 0.430725 0.384449 L 0.430725 0.379448 L 0.5 0.419426 L 0.5 0.414425 L 0.49567 0.416924 L 0.49567 0.411922 L 0.5 0.414421 L 0.5 0.40942 L 0.491341 0.414417 L 0.491341 0.409416 L 0.487011 0.411915 L 0.487011 0.406914 L 0.491341 0.409412 L 0.491341 0.404411 L 0.5 0.409409 L 0.5 0.404408 L 0.49567 0.406906 L 0.49567 0.401905 L 0.5 0.404404 L 0.5 0.399403 L 0.482681 0.409397 L 0.482681 0.404396 L 0.478352 0.406895 L 0.478352 0.401894 L 0.482681 0.404392 L 0.482681 0.399391 L 0.474022 0.404388 L 0.474022 0.399387 L 0.469692 0.401886 L 0.469692 0.396885 L 0.474022 0.399384 L 0.474022 0.394382 L 0.482681 0.39938 L 0.482681 0.394379 L 0.478352 0.396877 L 0.478352 0.391876 L 0.482681 0.394375 L 0.482681 0.389374 L 0.5 0.399368 L 0.5 0.394367 L 0.49567 0.396866 L 0.49567 0.391865 L 0.5 0.394363 L 0.5 0.389362 L 0.491341 0.39436 L 0.491341 0.389359 L 0.487011 0.391857 L 0.487011 0.386856 L 0.491341 0.389355 L 0.491341 0.384354 L 0.5 0.389351 L 0.5 0.38435 L 0.49567 0.386848 L 0.49567 0.381847 L 0.5 0.384346 L 0.5 0.379345 L 0.465363 0.399334 L 0.465363 0.394333 L 0.461033 0.396832 L 0.461033 0.39183 L 0.465363 0.394329 L 0.465363 0.389328 L 0.456703 0.394325 L 0.456703 0.389324 L 0.452374 0.391823 L 0.452374 0.386822 L 0.456703 0.38932 L 0.456703 0.384319 L 0.465363 0.389317 L 0.465363 0.384315 L 0.461033 0.386814 L 0.461033 0.381813 L 0.465363 0.384312 L 0.465363 0.379311 L 0.448044 0.389305 L 0.448044 0.384304 L 0.443714 0.386803 L 0.443714 0.381802 L 0.448044 0.3843 L 0.448044 0.379299 L 0.439384 0.384296 L 0.439384 0.379295 L 0.435055 0.381794 L 0.435055 0.376793 L 0.439384 0.379292 L 0.439384 0.37429 L 0.448044 0.379288 L 0.448044 0.374287 L 0.443714 0.376785 L 0.443714 0.371784 L 0.448044 0.374283 L 0.448044 0.369282 L 0.465363 0.379276 L 0.465363 0.374275 L 0.461033 0.376774 L 0.461033 0.371773 L 0.465363 0.374271 L 0.465363 0.36927 L 0.456703 0.374268 L 0.456703 0.369267 L 0.452374 0.371765 L 0.452374 0.366764 L 0.456703 0.369263 L 0.456703 0.364262 L 0.465363 0.369259 L 0.465363 0.364258 L 0.461033 0.366756 L 0.461033 0.361755 L 0.465363 0.364254 L 0.465363 0.359253 L 0.5 0.379242 L 0.5 0.374241 L 0.49567 0.37674 L 0.49567 0.371738 L 0.5 0.374237 L 0.5 0.369236 L 0.491341 0.374233 L 0.491341 0.369232 L 0.487011 0.371731 L 0.487011 0.36673 L 0.491341 0.369228 L 0.491341 0.364227 L 0.5 0.369225 L 0.5 0.364223 L 0.49567 0.366722 L 0.49567 0.361721 L 0.5 0.36422 L 0.5 0.359219 L 0.482681 0.369213 L 0.482681 0.364212 L 0.478352 0.366711 L 0.478352 0.36171 L 0.482681 0.364208 L 0.482681 0.359207 L 0.474022 0.364204 L 0.474022 0.359203 L 0.469692 0.361702 L 0.469692 0.356701 L 0.474022 0.3592 L 0.474022 0.354198 L 0.482681 0.359196 L 0.482681 0.354195 L 0.478352 0.356693 L 0.478352 0.351692 L 0.482681 0.354191 L 0.482681 0.34919 L 0.5 0.359184 L 0.5 0.354183 L 0.49567 0.356682 L 0.49567 0.351681 L 0.5 0.354179 L 0.5 0.349178 L 0.491341 0.354176 L 0.491341 0.349174 L 0.487011 0.351673 L 0.487011 0.346672 L 0.491341 0.349171 L 0.491341 0.34417 L 0.5 0.349167 L 0.5 0.344166 L 0.49567 0.346664 L 0.49567 0.341663 L 0.5 0.344162 L 0.5 0.339161 L 0.36145 0.419117 L 0.36145 0.414116 L 0.357121 0.416615 L 0.357121 0.411613 L 0.36145 0.414112 L 0.36145 0.409111 L 0.352791 0.414108 L 0.352791 0.409107 L 0.348461 0.411606 L 0.348461 0.406605 L 0.352791 0.409103 L 0.352791 0.404102 L 0.36145 0.4091 L 0.36145 0.404099 L 0.357121 0.406597 L 0.357121 0.401596 L 0.36145 0.404095 L 0.36145 0.399094 L 0.344131 0.409088 L 0.344131 0.404087 L 0.339802 0.406586 L 0.339802 0.401585 L 0.344131 0.404083 L 0.344131 0.399082 L 0.335472 0.404079 L 0.335472 0.399078 L 0.331142 0.401577 L 0.331142 0.396576 L 0.335472 0.399075 L 0.335472 0.394073 L 0.344131 0.399071 L 0.344131 0.39407 L 0.339802 0.396568 L 0.339802 0.391567 L 0.344131 0.394066 L 0.344131 0.389065 L 0.36145 0.399059 L 0.36145 0.394058 L 0.357121 0.396557 L 0.357121 0.391556 L 0.36145 0.394054 L 0.36145 0.389053 L 0.352791 0.394051 L 0.352791 0.38905 L 0.348461 0.391548 L 0.348461 0.386547 L 0.352791 0.389046 L 0.352791 0.384045 L 0.36145 0.389042 L 0.36145 0.384041 L 0.357121 0.386539 L 0.357121 0.381538 L 0.36145 0.384037 L 0.36145 0.379036 L 0.326813 0.399025 L 0.326813 0.394024 L 0.322483 0.396523 L 0.322483 0.391521 L 0.326813 0.39402 L 0.326813 0.389019 L 0.318153 0.394016 L 0.318153 0.389015 L 0.313824 0.391514 L 0.313824 0.386513 L 0.318153 0.389011 L 0.318153 0.38401 L 0.326813 0.389008 L 0.326813 0.384007 L 0.322483 0.386505 L 0.322483 0.381504 L 0.326813 0.384003 L 0.326813 0.379002 L 0.309494 0.388996 L 0.309494 0.383995 L 0.305164 0.386494 L 0.305164 0.381493 L 0.309494 0.383991 L 0.309494 0.37899 L 0.300835 0.383987 L 0.300835 0.378986 L 0.296505 0.381485 L 0.296505 0.376484 L 0.300835 0.378983 L 0.300835 0.373981 L 0.309494 0.378979 L 0.309494 0.373978 L 0.305164 0.376476 L 0.305164 0.371475 L 0.309494 0.373974 L 0.309494 0.368973 L 0.326813 0.378967 L 0.326813 0.373966 L 0.322483 0.376465 L 0.322483 0.371464 L 0.326813 0.373962 L 0.326813 0.368961 L 0.318153 0.373959 L 0.318153 0.368958 L 0.313824 0.371456 L 0.313824 0.366455 L 0.318153 0.368954 L 0.318153 0.363953 L 0.326813 0.36895 L 0.326813 0.363949 L 0.322483 0.366447 L 0.322483 0.361446 L 0.326813 0.363945 L 0.326813 0.358944 L 0.36145 0.378933 L 0.36145 0.373932 L 0.357121 0.376431 L 0.357121 0.371429 L 0.36145 0.373928 L 0.36145 0.368927 L 0.352791 0.373924 L 0.352791 0.368923 L 0.348461 0.371422 L 0.348461 0.366421 L 0.352791 0.368919 L 0.352791 0.363918 L 0.36145 0.368916 L 0.36145 0.363914 L 0.357121 0.366413 L 0.357121 0.361412 L 0.36145 0.363911 L 0.36145 0.35891 L 0.344131 0.368904 L 0.344131 0.363903 L 0.339802 0.366402 L 0.339802 0.361401 L 0.344131 0.363899 L 0.344131 0.358898 L 0.335472 0.363895 L 0.335472 0.358894 L 0.331142 0.361393 L 0.331142 0.356392 L 0.335472 0.358891 L 0.335472 0.353889 L 0.344131 0.358887 L 0.344131 0.353886 L 0.339802 0.356384 L 0.339802 0.351383 L 0.344131 0.353882 L 0.344131 0.348881 L 0.36145 0.358875 L 0.36145 0.353874 L 0.357121 0.356373 L 0.357121 0.351372 L 0.36145 0.35387 L 0.36145 0.348869 L 0.352791 0.353867 L 0.352791 0.348866 L 0.348461 0.351364 L 0.348461 0.346363 L 0.352791 0.348862 L 0.352791 0.343861 L 0.36145 0.348858 L 0.36145 0.343857 L 0.357121 0.346355 L 0.357121 0.341354 L 0.36145 0.343853 L 0.36145 0.338852 L 0.292175 0.37883 L 0.292175 0.373829 L 0.287846 0.376328 L 0.287846 0.371326 L 0.292175 0.373825 L 0.292175 0.368824 L 0.283516 0.373821 L 0.283516 0.36882 L 0.279186 0.371319 L 0.279186 0.366318 L 0.283516 0.368816 L 0.283516 0.363815 L 0.292175 0.368813 L 0.292175 0.363811 L 0.287846 0.36631 L 0.287846 0.361309 L 0.292175 0.363808 L 0.292175 0.358807 L 0.274857 0.368801 L 0.274857 0.3638 L 0.270527 0.366299 L 0.270527 0.361298 L 0.274857 0.363796 L 0.274857 0.358795 L 0.266197 0.363792 L 0.266197 0.358791 L 0.261868 0.36129 L 0.261868 0.356289 L 0.266197 0.358788 L 0.266197 0.353786 L 0.274857 0.358784 L 0.274857 0.353783 L 0.270527 0.356281 L 0.270527 0.35128 L 0.274857 0.353779 L 0.274857 0.348778 L 0.292175 0.358772 L 0.292175 0.353771 L 0.287846 0.35627 L 0.287846 0.351269 L 0.292175 0.353767 L 0.292175 0.348766 L 0.283516 0.353764 L 0.283516 0.348763 L 0.279186 0.351261 L 0.279186 0.34626 L 0.283516 0.348759 L 0.283516 0.343758 L 0.292175 0.348755 L 0.292175 0.343754 L 0.287846 0.346252 L 0.287846 0.341251 L 0.292175 0.34375 L 0.292175 0.338749 L 0.257538 0.358738 L 0.257538 0.353737 L 0.253208 0.356236 L 0.253208 0.351234 L 0.257538 0.353733 L 0.257538 0.348732 L 0.248878 0.353729 L 0.248878 0.348728 L 0.244549 0.351227 L 0.244549 0.346226 L 0.248878 0.348724 L 0.248878 0.343723 L 0.257538 0.348721 L 0.257538 0.343719 L 0.253208 0.346218 L 0.253208 0.341217 L 0.257538 0.343716 L 0.257538 0.338715 L 0.240219 0.348709 L 0.240219 0.343708 L 0.235889 0.346207 L 0.235889 0.341206 L 0.240219 0.343704 L 0.240219 0.338703 L 0.23156 0.3437 L 0.23156 0.338699 L 0.22723 0.341198 L 0.22723 0.336197 L 0.23156 0.338696 L 0.23156 0.333694 L 0.240219 0.338692 L 0.240219 0.333691 L 0.235889 0.336189 L 0.235889 0.331188 L 0.240219 0.333687 L 0.240219 0.328686 L 0.257538 0.33868 L 0.257538 0.333679 L 0.253208 0.336178 L 0.253208 0.331177 L 0.257538 0.333675 L 0.257538 0.328674 L 0.248878 0.333672 L 0.248878 0.328671 L 0.244549 0.331169 L 0.244549 0.326168 L 0.248878 0.328667 L 0.248878 0.323666 L 0.257538 0.328663 L 0.257538 0.323662 L 0.253208 0.32616 L 0.253208 0.321159 L 0.257538 0.323658 L 0.257538 0.318657 L 0.292175 0.338646 L 0.292175 0.333645 L 0.287846 0.336143 L 0.287846 0.331142 L 0.292175 0.333641 L 0.292175 0.32864 L 0.283516 0.333637 L 0.283516 0.328636 L 0.279186 0.331135 L 0.279186 0.326134 L 0.283516 0.328632 L 0.283516 0.323631 L 0.292175 0.328629 L 0.292175 0.323627 L 0.287846 0.326126 L 0.287846 0.321125 L 0.292175 0.323624 L 0.292175 0.318623 L 0.274857 0.328617 L 0.274857 0.323616 L 0.270527 0.326115 L 0.270527 0.321114 L 0.274857 0.323612 L 0.274857 0.318611 L 0.266197 0.323608 L 0.266197 0.318607 L 0.261868 0.321106 L 0.261868 0.316105 L 0.266197 0.318604 L 0.266197 0.313602 L 0.274857 0.3186 L 0.274857 0.313599 L 0.270527 0.316097 L 0.270527 0.311096 L 0.274857 0.313595 L 0.274857 0.308594 L 0.292175 0.318588 L 0.292175 0.313587 L 0.287846 0.316086 L 0.287846 0.311085 L 0.292175 0.313583 L 0.292175 0.308582 L 0.283516 0.31358 L 0.283516 0.308578 L 0.279186 0.311077 L 0.279186 0.306076 L 0.283516 0.308575 L 0.283516 0.303574 L 0.292175 0.308571 L 0.292175 0.30357 L 0.287846 0.306068 L 0.287846 0.301067 L 0.292175 0.303566 L 0.292175 0.298565 L 0.36145 0.338543 L 0.36145 0.333542 L 0.357121 0.33604 L 0.357121 0.331039 L 0.36145 0.333538 L 0.36145 0.328537 L 0.352791 0.333534 L 0.352791 0.328533 L 0.348461 0.331032 L 0.348461 0.326031 L 0.352791 0.328529 L 0.352791 0.323528 L 0.36145 0.328526 L 0.36145 0.323524 L 0.357121 0.326023 L 0.357121 0.321022 L 0.36145 0.323521 L 0.36145 0.31852 L 0.344131 0.328514 L 0.344131 0.323513 L 0.339802 0.326012 L 0.339802 0.321011 L 0.344131 0.323509 L 0.344131 0.318508 L 0.335472 0.323505 L 0.335472 0.318504 L 0.331142 0.321003 L 0.331142 0.316002 L 0.335472 0.318501 L 0.335472 0.313499 L 0.344131 0.318497 L 0.344131 0.313496 L 0.339802 0.315994 L 0.339802 0.310993 L 0.344131 0.313492 L 0.344131 0.308491 L 0.36145 0.318485 L 0.36145 0.313484 L 0.357121 0.315983 L 0.357121 0.310982 L 0.36145 0.31348 L 0.36145 0.308479 L 0.352791 0.313477 L 0.352791 0.308475 L 0.348461 0.310974 L 0.348461 0.305973 L 0.352791 0.308472 L 0.352791 0.303471 L 0.36145 0.308468 L 0.36145 0.303467 L 0.357121 0.305965 L 0.357121 0.300964 L 0.36145 0.303463 L 0.36145 0.298462 L 0.326813 0.318451 L 0.326813 0.31345 L 0.322483 0.315948 L 0.322483 0.310947 L 0.326813 0.313446 L 0.326813 0.308445 L 0.318153 0.313442 L 0.318153 0.308441 L 0.313824 0.31094 L 0.313824 0.305939 L 0.318153 0.308437 L 0.318153 0.303436 L 0.326813 0.308434 L 0.326813 0.303432 L 0.322483 0.305931 L 0.322483 0.30093 L 0.326813 0.303429 L 0.326813 0.298428 L 0.309494 0.308422 L 0.309494 0.303421 L 0.305164 0.30592 L 0.305164 0.300919 L 0.309494 0.303417 L 0.309494 0.298416 L 0.300835 0.303413 L 0.300835 0.298412 L 0.296505 0.300911 L 0.296505 0.29591 L 0.300835 0.298409 L 0.300835 0.293407 L 0.309494 0.298405 L 0.309494 0.293404 L 0.305164 0.295902 L 0.305164 0.290901 L 0.309494 0.2934 L 0.309494 0.288399 L 0.326813 0.298393 L 0.326813 0.293392 L 0.322483 0.295891 L 0.322483 0.29089 L 0.326813 0.293388 L 0.326813 0.288387 L 0.318153 0.293385 L 0.318153 0.288383 L 0.313824 0.290882 L 0.313824 0.285881 L 0.318153 0.28838 L 0.318153 0.283379 L 0.326813 0.288376 L 0.326813 0.283375 L 0.322483 0.285873 L 0.322483 0.280872 L 0.326813 0.283371 L 0.326813 0.27837 L 0.36145 0.298359 L 0.36145 0.293358 L 0.357121 0.295856 L 0.357121 0.290855 L 0.36145 0.293354 L 0.36145 0.288353 L 0.352791 0.29335 L 0.352791 0.288349 L 0.348461 0.290848 L 0.348461 0.285847 L 0.352791 0.288345 L 0.352791 0.283344 L 0.36145 0.288342 L 0.36145 0.28334 L 0.357121 0.285839 L 0.357121 0.280838 L 0.36145 0.283337 L 0.36145 0.278336 L 0.344131 0.28833 L 0.344131 0.283329 L 0.339802 0.285828 L 0.339802 0.280827 L 0.344131 0.283325 L 0.344131 0.278324 L 0.335472 0.283321 L 0.335472 0.27832 L 0.331142 0.280819 L 0.331142 0.275818 L 0.335472 0.278316 L 0.335472 0.273315 L 0.344131 0.278313 L 0.344131 0.273312 L 0.339802 0.27581 L 0.339802 0.270809 L 0.344131 0.273308 L 0.344131 0.268307 L 0.36145 0.278301 L 0.36145 0.2733 L 0.357121 0.275799 L 0.357121 0.270798 L 0.36145 0.273296 L 0.36145 0.268295 L 0.352791 0.273293 L 0.352791 0.268291 L 0.348461 0.27079 L 0.348461 0.265789 L 0.352791 0.268288 L 0.352791 0.263287 L 0.36145 0.268284 L 0.36145 0.263283 L 0.357121 0.265781 L 0.357121 0.26078 L 0.36145 0.263279 L 0.36145 0.258278 L 0.5 0.338234 L 0.5 0.333233 L 0.49567 0.335732 L 0.49567 0.33073 L 0.5 0.333229 L 0.5 0.328228 L 0.491341 0.333225 L 0.491341 0.328224 L 0.487011 0.330723 L 0.487011 0.325722 L 0.491341 0.32822 L 0.491341 0.323219 L 0.5 0.328217 L 0.5 0.323215 L 0.49567 0.325714 L 0.49567 0.320713 L 0.5 0.323212 L 0.5 0.318211 L 0.482681 0.328205 L 0.482681 0.323204 L 0.478352 0.325703 L 0.478352 0.320702 L 0.482681 0.3232 L 0.482681 0.318199 L 0.474022 0.323196 L 0.474022 0.318195 L 0.469692 0.320694 L 0.469692 0.315693 L 0.474022 0.318192 L 0.474022 0.31319 L 0.482681 0.318188 L 0.482681 0.313187 L 0.478352 0.315685 L 0.478352 0.310684 L 0.482681 0.313183 L 0.482681 0.308182 L 0.5 0.318176 L 0.5 0.313175 L 0.49567 0.315674 L 0.49567 0.310673 L 0.5 0.313171 L 0.5 0.30817 L 0.491341 0.313168 L 0.491341 0.308167 L 0.487011 0.310665 L 0.487011 0.305664 L 0.491341 0.308163 L 0.491341 0.303162 L 0.5 0.308159 L 0.5 0.303158 L 0.49567 0.305656 L 0.49567 0.300655 L 0.5 0.303154 L 0.5 0.298153 L 0.465363 0.318142 L 0.465363 0.313141 L 0.461033 0.315639 L 0.461033 0.310638 L 0.465363 0.313137 L 0.465363 0.308136 L 0.456703 0.313133 L 0.456703 0.308132 L 0.452374 0.310631 L 0.452374 0.30563 L 0.456703 0.308128 L 0.456703 0.303127 L 0.465363 0.308125 L 0.465363 0.303123 L 0.461033 0.305622 L 0.461033 0.300621 L 0.465363 0.30312 L 0.465363 0.298119 L 0.448044 0.308113 L 0.448044 0.303112 L 0.443714 0.305611 L 0.443714 0.30061 L 0.448044 0.303108 L 0.448044 0.298107 L 0.439384 0.303104 L 0.439384 0.298103 L 0.435055 0.300602 L 0.435055 0.295601 L 0.439384 0.2981 L 0.439384 0.293098 L 0.448044 0.298096 L 0.448044 0.293095 L 0.443714 0.295593 L 0.443714 0.290592 L 0.448044 0.293091 L 0.448044 0.28809 L 0.465363 0.298084 L 0.465363 0.293083 L 0.461033 0.295582 L 0.461033 0.290581 L 0.465363 0.293079 L 0.465363 0.288078 L 0.456703 0.293076 L 0.456703 0.288074 L 0.452374 0.290573 L 0.452374 0.285572 L 0.456703 0.288071 L 0.456703 0.28307 L 0.465363 0.288067 L 0.465363 0.283066 L 0.461033 0.285564 L 0.461033 0.280563 L 0.465363 0.283062 L 0.465363 0.278061 L 0.5 0.29805 L 0.5 0.293049 L 0.49567 0.295547 L 0.49567 0.290546 L 0.5 0.293045 L 0.5 0.288044 L 0.491341 0.293041 L 0.491341 0.28804 L 0.487011 0.290539 L 0.487011 0.285538 L 0.491341 0.288036 L 0.491341 0.283035 L 0.5 0.288033 L 0.5 0.283031 L 0.49567 0.28553 L 0.49567 0.280529 L 0.5 0.283028 L 0.5 0.278027 L 0.482681 0.288021 L 0.482681 0.28302 L 0.478352 0.285519 L 0.478352 0.280518 L 0.482681 0.283016 L 0.482681 0.278015 L 0.474022 0.283012 L 0.474022 0.278011 L 0.469692 0.28051 L 0.469692 0.275509 L 0.474022 0.278008 L 0.474022 0.273006 L 0.482681 0.278004 L 0.482681 0.273003 L 0.478352 0.275501 L 0.478352 0.2705 L 0.482681 0.272999 L 0.482681 0.267998 L 0.5 0.277992 L 0.5 0.272991 L 0.49567 0.27549 L 0.49567 0.270489 L 0.5 0.272987 L 0.5 0.267986 L 0.491341 0.272984 L 0.491341 0.267982 L 0.487011 0.270481 L 0.487011 0.26548 L 0.491341 0.267979 L 0.491341 0.262978 L 0.5 0.267975 L 0.5 0.262974 L 0.49567 0.265472 L 0.49567 0.260471 L 0.5 0.26297 L 0.5 0.257969 L 0.430725 0.297947 L 0.430725 0.292946 L 0.426395 0.295444 L 0.426395 0.290443 L 0.430725 0.292942 L 0.430725 0.287941 L 0.422066 0.292938 L 0.422066 0.287937 L 0.417736 0.290436 L 0.417736 0.285435 L 0.422066 0.287933 L 0.422066 0.282932 L 0.430725 0.28793 L 0.430725 0.282928 L 0.426395 0.285427 L 0.426395 0.280426 L 0.430725 0.282925 L 0.430725 0.277924 L 0.413406 0.287918 L 0.413406 0.282917 L 0.409077 0.285416 L 0.409077 0.280415 L 0.413406 0.282913 L 0.413406 0.277912 L 0.404747 0.282909 L 0.404747 0.277908 L 0.400417 0.280407 L 0.400417 0.275406 L 0.404747 0.277905 L 0.404747 0.272903 L 0.413406 0.277901 L 0.413406 0.2729 L 0.409077 0.275398 L 0.409077 0.270397 L 0.413406 0.272896 L 0.413406 0.267895 L 0.430725 0.277889 L 0.430725 0.272888 L 0.426395 0.275387 L 0.426395 0.270386 L 0.430725 0.272884 L 0.430725 0.267883 L 0.422066 0.272881 L 0.422066 0.267879 L 0.417736 0.270378 L 0.417736 0.265377 L 0.422066 0.267876 L 0.422066 0.262875 L 0.430725 0.267872 L 0.430725 0.262871 L 0.426395 0.265369 L 0.426395 0.260368 L 0.430725 0.262867 L 0.430725 0.257866 L 0.396088 0.277855 L 0.396088 0.272854 L 0.391758 0.275352 L 0.391758 0.270351 L 0.396088 0.27285 L 0.396088 0.267849 L 0.387428 0.272846 L 0.387428 0.267845 L 0.383099 0.270344 L 0.383099 0.265343 L 0.387428 0.267841 L 0.387428 0.26284 L 0.396088 0.267838 L 0.396088 0.262836 L 0.391758 0.265335 L 0.391758 0.260334 L 0.396088 0.262833 L 0.396088 0.257832 L 0.378769 0.267826 L 0.378769 0.262825 L 0.374439 0.265324 L 0.374439 0.260323 L 0.378769 0.262821 L 0.378769 0.25782 L 0.37011 0.262817 L 0.37011 0.257816 L 0.36578 0.260315 L 0.36578 0.255314 L 0.37011 0.257812 L 0.37011 0.252811 L 0.378769 0.257809 L 0.378769 0.252808 L 0.374439 0.255306 L 0.374439 0.250305 L 0.378769 0.252804 L 0.378769 0.247803 L 0.396088 0.257797 L 0.396088 0.252796 L 0.391758 0.255295 L 0.391758 0.250294 L 0.396088 0.252792 L 0.396088 0.247791 L 0.387428 0.252789 L 0.387428 0.247787 L 0.383099 0.250286 L 0.383099 0.245285 L 0.387428 0.247784 L 0.387428 0.242783 L 0.396088 0.24778 L 0.396088 0.242779 L 0.391758 0.245277 L 0.391758 0.240276 L 0.396088 0.242775 L 0.396088 0.237774 L 0.430725 0.257763 L 0.430725 0.252762 L 0.426395 0.25526 L 0.426395 0.250259 L 0.430725 0.252758 L 0.430725 0.247757 L 0.422066 0.252754 L 0.422066 0.247753 L 0.417736 0.250252 L 0.417736 0.245251 L 0.422066 0.247749 L 0.422066 0.242748 L 0.430725 0.247746 L 0.430725 0.242744 L 0.426395 0.245243 L 0.426395 0.240242 L 0.430725 0.242741 L 0.430725 0.23774 L 0.413406 0.247734 L 0.413406 0.242733 L 0.409077 0.245232 L 0.409077 0.240231 L 0.413406 0.242729 L 0.413406 0.237728 L 0.404747 0.242725 L 0.404747 0.237724 L 0.400417 0.240223 L 0.400417 0.235222 L 0.404747 0.23772 L 0.404747 0.232719 L 0.413406 0.237717 L 0.413406 0.232716 L 0.409077 0.235214 L 0.409077 0.230213 L 0.413406 0.232712 L 0.413406 0.227711 L 0.430725 0.237705 L 0.430725 0.232704 L 0.426395 0.235203 L 0.426395 0.230202 L 0.430725 0.2327 L 0.430725 0.227699 L 0.422066 0.232697 L 0.422066 0.227695 L 0.417736 0.230194 L 0.417736 0.225193 L 0.422066 0.227692 L 0.422066 0.222691 L 0.430725 0.227688 L 0.430725 0.222687 L 0.426395 0.225185 L 0.426395 0.220184 L 0.430725 0.222683 L 0.430725 0.217682 L 0.5 0.25766 L 0.5 0.252659 L 0.49567 0.255157 L 0.49567 0.250156 L 0.5 0.252655 L 0.5 0.247654 L 0.491341 0.252651 L 0.491341 0.24765 L 0.487011 0.250149 L 0.487011 0.245148 L 0.491341 0.247646 L 0.491341 0.242645 L 0.5 0.247643 L 0.5 0.242641 L 0.49567 0.24514 L 0.49567 0.240139 L 0.5 0.242638 L 0.5 0.237637 L 0.482681 0.247631 L 0.482681 0.24263 L 0.478352 0.245129 L 0.478352 0.240128 L 0.482681 0.242626 L 0.482681 0.237625 L 0.474022 0.242622 L 0.474022 0.237621 L 0.469692 0.24012 L 0.469692 0.235119 L 0.474022 0.237617 L 0.474022 0.232616 L 0.482681 0.237614 L 0.482681 0.232613 L 0.478352 0.235111 L 0.478352 0.23011 L 0.482681 0.232609 L 0.482681 0.227608 L 0.5 0.237602 L 0.5 0.232601 L 0.49567 0.2351 L 0.49567 0.230099 L 0.5 0.232597 L 0.5 0.227596 L 0.491341 0.232594 L 0.491341 0.227592 L 0.487011 0.230091 L 0.487011 0.22509 L 0.491341 0.227589 L 0.491341 0.222588 L 0.5 0.227585 L 0.5 0.222584 L 0.49567 0.225082 L 0.49567 0.220081 L 0.5 0.22258 L 0.5 0.217579 L 0.465363 0.237568 L 0.465363 0.232567 L 0.461033 0.235065 L 0.461033 0.230064 L 0.465363 0.232563 L 0.465363 0.227562 L 0.456703 0.232559 L 0.456703 0.227558 L 0.452374 0.230057 L 0.452374 0.225056 L 0.456703 0.227554 L 0.456703 0.222553 L 0.465363 0.227551 L 0.465363 0.222549 L 0.461033 0.225048 L 0.461033 0.220047 L 0.465363 0.222546 L 0.465363 0.217545 L 0.448044 0.227539 L 0.448044 0.222538 L 0.443714 0.225037 L 0.443714 0.220036 L 0.448044 0.222534 L 0.448044 0.217533 L 0.439384 0.22253 L 0.439384 0.217529 L 0.435055 0.220028 L 0.435055 0.215027 L 0.439384 0.217525 L 0.439384 0.212524 L 0.448044 0.217522 L 0.448044 0.212521 L 0.443714 0.215019 L 0.443714 0.210018 L 0.448044 0.212517 L 0.448044 0.207516 L 0.465363 0.21751 L 0.465363 0.212509 L 0.461033 0.215008 L 0.461033 0.210007 L 0.465363 0.212505 L 0.465363 0.207504 L 0.456703 0.212502 L 0.456703 0.2075 L 0.452374 0.209999 L 0.452374 0.204998 L 0.456703 0.207497 L 0.456703 0.202496 L 0.465363 0.207493 L 0.465363 0.202492 L 0.461033 0.20499 L 0.461033 0.199989 L 0.465363 0.202488 L 0.465363 0.197487 L 0.5 0.217476 L 0.5 0.212475 L 0.49567 0.214973 L 0.49567 0.209972 L 0.5 0.212471 L 0.5 0.20747 L 0.491341 0.212467 L 0.491341 0.207466 L 0.487011 0.209965 L 0.487011 0.204964 L 0.491341 0.207462 L 0.491341 0.202461 L 0.5 0.207458 L 0.5 0.202457 L 0.49567 0.204956 L 0.49567 0.199955 L 0.5 0.202454 L 0.5 0.197453 L 0.482681 0.207447 L 0.482681 0.202446 L 0.478352 0.204945 L 0.478352 0.199944 L 0.482681 0.202442 L 0.482681 0.197441 L 0.474022 0.202438 L 0.474022 0.197437 L 0.469692 0.199936 L 0.469692 0.194935 L 0.474022 0.197433 L 0.474022 0.192432 L 0.482681 0.19743 L 0.482681 0.192429 L 0.478352 0.194927 L 0.478352 0.189926 L 0.482681 0.192425 L 0.482681 0.187424 L 0.5 0.197418 L 0.5 0.192417 L 0.49567 0.194916 L 0.49567 0.189915 L 0.5 0.192413 L 0.5 0.187412 L 0.491341 0.19241 L 0.491341 0.187408 L 0.487011 0.189907 L 0.487011 0.184906 L 0.491341 0.187405 L 0.491341 0.182404 L 0.5 0.187401 L 0.5 0.1824 L 0.49567 0.184898 L 0.49567 0.179897 L 0.5 0.182396 L 0.5 0.177395 L 0.2229 0.337307 L 0.5 0.497219 " transform="matrix(1024,0,0,1024,0,0)"/>
</g>
</svg>
