<?xml version="1.0" encoding="UTF-8"?>
<svg xmlns="http://www.w3.org/2000/svg" xmlns:xlink="http://www.w3.org/1999/xlink" width="1024pt" height="1024pt" viewBox="0 0 1024 1024" version="1.1">
<g id="surface6">
<path style="fill:none;stroke-width:0.001;stroke-linecap:butt;stroke-linejoin:miter;stroke:rgb(0%,0%,0%);stroke-opacity:1;stroke-miterlimit:10;" d="M 0.5 0.5 L 0.5 0.494999 L 0.49567 0.497498 L 0.49567 0.492496 L 0.5 0.494995 L 0.5 0.489994 L 0.491341 0.494991 L 0.491341 0.48999 L 0.487011 0.492489 L 0.487011 0.487488 L 0.491341 0.489986 L 0.491341 0.484985 L 0.5 0.489983 L 0.5 0.484982 L 0.49567 0.48748 L 0.49567 0.482479 L 0.5 0.484978 L 0.5 0.479977 L 0.482681 0.489971 L 0.482681 0.48497 L 0.478352 0.487469 L 0.478352 0.482468 L 0.482681 0.484966 L 0.482681 0.479965 L 0.474022 0.484962 L 0.474022 0.479961 L 0.469692 0.48246 L 0.469692 0.477459 L 0.474022 0.479958 L 0.474022 0.474957 L 0.482681 0.479954 L 0.482681 0.474953 L 0.478352 0.477451 L 0.478352 0.47245 L 0.482681 0.474949 L 0.482681 0.469948 L 0.5 0.479942 L 0.5 0.474941 L 0.49567 0.47744 L 0.49567 0.472439 L 0.5 0.474937 L 0.5 0.469936 L 0.491341 0.474934 L 0.491341 0.469933 L 0.487011 0.472431 L 0.487011 0.46743 L 0.491341 0.469929 L 0.491341 0.464928 L 0.5 0.469925 L 0.5 0.464924 L 0.49567 0.467422 L 0.49567 0.462421 L 0.5 0.46492 L 0.5 0.459919 L 0.465363 0.479908 L 0.465363 0.474907 L 0.461033 0.477406 L 0.461033 0.472404 L 0.465363 0.474903 L 0.465363 0.469902 L 0.456703 0.474899 L 0.456703 0.469898 L 0.452374 0.472397 L 0.452374 0.467396 L 0.456703 0.469894 L 0.456703 0.464893 L 0.465363 0.469891 L 0.465363 0.46489 L 0.461033 0.467388 L 0.461033 0.462387 L 0.465363 0.464886 L 0.465363 0.459885 L 0.448044 0.469879 L 0.448044 0.464878 L 0.443714 0.467377 L 0.443714 0.462376 L 0.448044 0.464874 L 0.448044 0.459873 L 0.439384 0.46487 L 0.439384 0.459869 L 0.435055 0.462368 L 0.435055 0.457367 L 0.439384 0.459866 L 0.439384 0.454865 L 0.448044 0.459862 L 0.448044 0.454861 L 0.443714 0.457359 L 0.443714 0.452358 L 0.448044 0.454857 L 0.448044 0.449856 L 0.465363 0.45985 L 0.465363 0.454849 L 0.461033 0.457348 L 0.461033 0.452347 L 0.465363 0.454845 L 0.465363 0.449844 L 0.456703 0.454842 L 0.456703 0.449841 L 0.452374 0.452339 L 0.452374 0.447338 L 0.456703 0.449837 L 0.456703 0.444836 L 0.465363 0.449833 L 0.465363 0.444832 L 0.461033 0.44733 L 0.461033 0.442329 L 0.465363 0.444828 L 0.465363 0.439827 L 0.5 0.459816 L 0.5 0.454815 L 0.49567 0.457314 L 0.49567 0.452312 L 0.5 0.454811 L 0.5 0.44981 L 0.491341 0.454807 L 0.491341 0.449806 L 0.487011 0.452305 L 0.487011 0.447304 L 0.491341 0.449802 L 0.491341 0.444801 L 0.5 0.449799 L 0.5 0.444798 L 0.49567 0.447296 L 0.49567 0.442295 L 0.5 0.444794 L 0.5 0.439793 L 0.482681 0.449787 L 0.482681 0.444786 L 0.478352 0.447285 L 0.478352 0.442284 L 0.482681 0.444782 L 0.482681 0.439781 L 0.474022 0.444778 L 0.474022 0.439777 L 0.469692 0.442276 L 0.469692 0.437275 L 0.474022 0.439774 L 0.474022 0.434772 L 0.482681 0.43977 L 0.482681 0.434769 L 0.478352 0.437267 L 0.478352 0.432266 L 0.482681 0.434765 L 0.482681 0.429764 L 0.5 0.439758 L 0.5 0.434757 L 0.49567 0.437256 L 0.49567 0.432255 L 0.5 0.434753 L 0.5 0.429752 L 0.491341 0.43475 L 0.491341 0.429749 L 0.487011 0.432247 L 0.487011 0.427246 L 0.491341 0.429745 L 0.491341 0.424744 L 0.5 0.429741 L 0.5 0.42474 L 0.49567 0.427238 L 0.49567 0.422237 L 0.5 0.424736 L 0.5 0.419735 L 0.430725 0.459713 L 0.5 0.499691 " transform="matrix(1024,0,0,1024,0,0)"/>
</g>
</svg>
