<?xml version="1.0" encoding="UTF-8"?>
<svg xmlns="http://www.w3.org/2000/svg" xmlns:xlink="http://www.w3.org/1999/xlink" width="1024pt" height="1024pt" viewBox="0 0 1024 1024" version="1.1">
<g id="surface11">
<path style="fill:none;stroke-width:0.001;stroke-linecap:butt;stroke-linejoin:miter;stroke:rgb(0%,0%,0%);stroke-opacity:1;stroke-miterlimit:10;" d="M 0.5 0.5 L 0.5 0.494999 L 0.50433 0.4925 L 0.508659 0.494999 L 0.512989 0.4925 L 0.512989 0.487499 L 0.508659 0.485001 L 0.50433 0.487499 L 0.5 0.485001 L 0.5 0.48 L 0.50433 0.477501 L 0.50433 0.4725 L 0.5 0.470001 L 0.5 0.465 L 0.50433 0.462502 L 0.508659 0.465 L 0.508659 0.470001 L 0.512989 0.4725 L 0.517319 0.470001 L 0.521648 0.4725 L 0.521648 0.477501 L 0.517319 0.48 L 0.517319 0.485001 L 0.521648 0.487499 L 0.525978 0.485001 L 0.525978 0.48 L 0.530308 0.477501 L 0.534637 0.48 L 0.538967 0.477501 L 0.538967 0.4725 L 0.534637 0.470001 L 0.534637 0.465 L 0.538967 0.462502 L 0.543297 0.465 L 0.543297 0.470001 L 0.547626 0.4725 L 0.551956 0.470001 L 0.551956 0.465 L 0.556286 0.462502 L 0.560616 0.465 L 0.564945 0.462502 L 0.564945 0.4575 L 0.560616 0.455002 L 0.556286 0.4575 L 0.551956 0.455002 L 0.551956 0.450001 L 0.547626 0.447502 L 0.543297 0.450001 L 0.543297 0.455002 L 0.538967 0.4575 L 0.534637 0.455002 L 0.534637 0.450001 L 0.538967 0.447502 L 0.538967 0.442501 L 0.534637 0.440002 L 0.530308 0.442501 L 0.525978 0.440002 L 0.525978 0.435001 L 0.521648 0.432503 L 0.517319 0.435001 L 0.517319 0.440002 L 0.521648 0.442501 L 0.521648 0.447502 L 0.517319 0.450001 L 0.512989 0.447502 L 0.508659 0.450001 L 0.508659 0.455002 L 0.50433 0.4575 L 0.5 0.455002 L 0.5 0.450001 L 0.50433 0.447502 L 0.50433 0.442501 L 0.5 0.440002 L 0.5 0.435001 L 0.50433 0.432503 L 0.508659 0.435001 L 0.512989 0.432503 L 0.512989 0.427502 L 0.508659 0.425003 L 0.50433 0.427502 L 0.5 0.425003 L 0.5 0.420002 L 0.50433 0.417503 L 0.50433 0.412502 L 0.5 0.410004 L 0.5 0.405003 L 0.50433 0.402504 L 0.508659 0.405003 L 0.508659 0.410004 L 0.512989 0.412502 L 0.517319 0.410004 L 0.517319 0.405003 L 0.521648 0.402504 L 0.525978 0.405003 L 0.530308 0.402504 L 0.530308 0.397503 L 0.525978 0.395004 L 0.521648 0.397503 L 0.517319 0.395004 L 0.517319 0.390003 L 0.512989 0.387505 L 0.508659 0.390003 L 0.508659 0.395004 L 0.50433 0.397503 L 0.5 0.395004 L 0.5 0.390003 L 0.50433 0.387505 L 0.50433 0.382504 L 0.5 0.380005 L 0.5 0.375004 L 0.50433 0.372505 L 0.508659 0.375004 L 0.512989 0.372505 L 0.512989 0.367504 L 0.508659 0.365005 L 0.50433 0.367504 L 0.5 0.365005 L 0.5 0.360004 L 0.50433 0.357506 L 0.50433 0.352505 L 0.5 0.350006 L 0.5 0.345005 L 0.50433 0.342506 L 0.508659 0.345005 L 0.508659 0.350006 L 0.512989 0.352505 L 0.517319 0.350006 L 0.521648 0.352505 L 0.521648 0.357506 L 0.517319 0.360004 L 0.517319 0.365005 L 0.521648 0.367504 L 0.525978 0.365005 L 0.525978 0.360004 L 0.530308 0.357506 L 0.534637 0.360004 L 0.534637 0.365005 L 0.538967 0.367504 L 0.543297 0.365005 L 0.547626 0.367504 L 0.547626 0.372505 L 0.543297 0.375004 L 0.538967 0.372505 L 0.534637 0.375004 L 0.534637 0.380005 L 0.538967 0.382504 L 0.538967 0.387505 L 0.534637 0.390003 L 0.534637 0.395004 L 0.538967 0.397503 L 0.543297 0.395004 L 0.543297 0.390003 L 0.547626 0.387505 L 0.551956 0.390003 L 0.556286 0.387505 L 0.556286 0.382504 L 0.551956 0.380005 L 0.551956 0.375004 L 0.556286 0.372505 L 0.560616 0.375004 L 0.560616 0.380005 L 0.564945 0.382504 L 0.569275 0.380005 L 0.573605 0.382504 L 0.573605 0.387505 L 0.569275 0.390003 L 0.569275 0.395004 L 0.573605 0.397503 L 0.577934 0.395004 L 0.577934 0.390003 L 0.582264 0.387505 L 0.586594 0.390003 L 0.586594 0.395004 L 0.590923 0.397503 L 0.595253 0.395004 L 0.599583 0.397503 L 0.599583 0.402504 L 0.595253 0.405003 L 0.590923 0.402504 L 0.586594 0.405003 L 0.586594 0.410004 L 0.582264 0.412502 L 0.577934 0.410004 L 0.577934 0.405003 L 0.573605 0.402504 L 0.569275 0.405003 L 0.569275 0.410004 L 0.573605 0.412502 L 0.573605 0.417503 L 0.569275 0.420002 L 0.569275 0.425003 L 0.573605 0.427502 L 0.577934 0.425003 L 0.582264 0.427502 L 0.582264 0.432503 L 0.577934 0.435001 L 0.573605 0.432503 L 0.569275 0.435001 L 0.569275 0.440002 L 0.573605 0.442501 L 0.573605 0.447502 L 0.569275 0.450001 L 0.569275 0.455002 L 0.573605 0.4575 L 0.577934 0.455002 L 0.577934 0.450001 L 0.582264 0.447502 L 0.586594 0.450001 L 0.590923 0.447502 L 0.590923 0.442501 L 0.586594 0.440002 L 0.586594 0.435001 L 0.590923 0.432503 L 0.595253 0.435001 L 0.595253 0.440002 L 0.599583 0.442501 L 0.603912 0.440002 L 0.603912 0.435001 L 0.608242 0.432503 L 0.612572 0.435001 L 0.616901 0.432503 L 0.616901 0.427502 L 0.612572 0.425003 L 0.608242 0.427502 L 0.603912 0.425003 L 0.603912 0.420002 L 0.608242 0.417503 L 0.608242 0.412502 L 0.603912 0.410004 L 0.603912 0.405003 L 0.608242 0.402504 L 0.612572 0.405003 L 0.612572 0.410004 L 0.616901 0.412502 L 0.621231 0.410004 L 0.625561 0.412502 L 0.625561 0.417503 L 0.621231 0.420002 L 0.621231 0.425003 L 0.625561 0.427502 L 0.62989 0.425003 L 0.62989 0.420002 L 0.63422 0.417503 L 0.63855 0.420002 L 0.642879 0.417503 L 0.642879 0.412502 L 0.63855 0.410004 L 0.63855 0.405003 L 0.642879 0.402504 L 0.647209 0.405003 L 0.647209 0.410004 L 0.651539 0.412502 L 0.655869 0.410004 L 0.655869 0.405003 L 0.660198 0.402504 L 0.664528 0.405003 L 0.668858 0.402504 L 0.668858 0.397503 L 0.664528 0.395004 L 0.660198 0.397503 L 0.655869 0.395004 L 0.655869 0.390003 L 0.651539 0.387505 L 0.647209 0.390003 L 0.647209 0.395004 L 0.642879 0.397503 L 0.63855 0.395004 L 0.63855 0.390003 L 0.642879 0.387505 L 0.642879 0.382504 L 0.63855 0.380005 L 0.63855 0.375004 L 0.642879 0.372505 L 0.647209 0.375004 L 0.651539 0.372505 L 0.651539 0.367504 L 0.647209 0.365005 L 0.642879 0.367504 L 0.63855 0.365005 L 0.63855 0.360004 L 0.642879 0.357506 L 0.642879 0.352505 L 0.63855 0.350006 L 0.63855 0.345005 L 0.642879 0.342506 L 0.647209 0.345005 L 0.647209 0.350006 L 0.651539 0.352505 L 0.655869 0.350006 L 0.660198 0.352505 L 0.660198 0.357506 L 0.655869 0.360004 L 0.655869 0.365005 L 0.660198 0.367504 L 0.664528 0.365005 L 0.664528 0.360004 L 0.668858 0.357506 L 0.673187 0.360004 L 0.673187 0.365005 L 0.677517 0.367504 L 0.681847 0.365005 L 0.686176 0.367504 L 0.686176 0.372505 L 0.681847 0.375004 L 0.677517 0.372505 L 0.673187 0.375004 L 0.673187 0.380005 L 0.677517 0.382504 L 0.677517 0.387505 L 0.673187 0.390003 L 0.673187 0.395004 L 0.677517 0.397503 L 0.681847 0.395004 L 0.681847 0.390003 L 0.686176 0.387505 L 0.690506 0.390003 L 0.694836 0.387505 L 0.694836 0.382504 L 0.690506 0.380005 L 0.690506 0.375004 L 0.694836 0.372505 L 0.699165 0.375004 L 0.699165 0.380005 L 0.703495 0.382504 L 0.707825 0.380005 L 0.707825 0.375004 L 0.712154 0.372505 L 0.716484 0.375004 L 0.720814 0.372505 L 0.720814 0.367504 L 0.716484 0.365005 L 0.712154 0.367504 L 0.707825 0.365005 L 0.707825 0.360004 L 0.712154 0.357506 L 0.712154 0.352505 L 0.707825 0.350006 L 0.707825 0.345005 L 0.712154 0.342506 L 0.716484 0.345005 L 0.716484 0.350006 L 0.720814 0.352505 L 0.725143 0.350006 L 0.729473 0.352505 L 0.729473 0.357506 L 0.725143 0.360004 L 0.725143 0.365005 L 0.729473 0.367504 L 0.733803 0.365005 L 0.733803 0.360004 L 0.738132 0.357506 L 0.742462 0.360004 L 0.746792 0.357506 L 0.746792 0.352505 L 0.742462 0.350006 L 0.742462 0.345005 L 0.746792 0.342506 L 0.751122 0.345005 L 0.751122 0.350006 L 0.755451 0.352505 L 0.759781 0.350006 L 0.759781 0.345005 L 0.764111 0.342506 L 0.76844 0.345005 L 0.77277 0.342506 L 0.77277 0.337505 L 0.76844 0.335007 L 0.764111 0.337505 L 0.759781 0.335007 L 0.759781 0.330006 L 0.755451 0.327507 L 0.751122 0.330006 L 0.751122 0.335007 L 0.746792 0.337505 L 0.742462 0.335007 L 0.742462 0.330006 L 0.746792 0.327507 L 0.746792 0.322506 L 0.742462 0.320007 L 0.738132 0.322506 L 0.733803 0.320007 L 0.733803 0.315006 L 0.729473 0.312508 L 0.725143 0.315006 L 0.725143 0.320007 L 0.729473 0.322506 L 0.729473 0.327507 L 0.725143 0.330006 L 0.720814 0.327507 L 0.716484 0.330006 L 0.716484 0.335007 L 0.712154 0.337505 L 0.707825 0.335007 L 0.707825 0.330006 L 0.712154 0.327507 L 0.712154 0.322506 L 0.707825 0.320007 L 0.707825 0.315006 L 0.712154 0.312508 L 0.716484 0.315006 L 0.720814 0.312508 L 0.720814 0.307507 L 0.716484 0.305008 L 0.712154 0.307507 L 0.707825 0.305008 L 0.707825 0.300007 L 0.703495 0.297508 L 0.699165 0.300007 L 0.699165 0.305008 L 0.694836 0.307507 L 0.690506 0.305008 L 0.690506 0.300007 L 0.694836 0.297508 L 0.694836 0.292507 L 0.690506 0.290009 L 0.686176 0.292507 L 0.681847 0.290009 L 0.681847 0.285007 L 0.677517 0.282509 L 0.673187 0.285007 L 0.673187 0.290009 L 0.677517 0.292507 L 0.677517 0.297508 L 0.673187 0.300007 L 0.673187 0.305008 L 0.677517 0.307507 L 0.681847 0.305008 L 0.686176 0.307507 L 0.686176 0.312508 L 0.681847 0.315006 L 0.677517 0.312508 L 0.673187 0.315006 L 0.673187 0.320007 L 0.668858 0.322506 L 0.664528 0.320007 L 0.664528 0.315006 L 0.660198 0.312508 L 0.655869 0.315006 L 0.655869 0.320007 L 0.660198 0.322506 L 0.660198 0.327507 L 0.655869 0.330006 L 0.651539 0.327507 L 0.647209 0.330006 L 0.647209 0.335007 L 0.642879 0.337505 L 0.63855 0.335007 L 0.63855 0.330006 L 0.642879 0.327507 L 0.642879 0.322506 L 0.63855 0.320007 L 0.63855 0.315006 L 0.642879 0.312508 L 0.647209 0.315006 L 0.651539 0.312508 L 0.651539 0.307507 L 0.647209 0.305008 L 0.642879 0.307507 L 0.63855 0.305008 L 0.63855 0.300007 L 0.642879 0.297508 L 0.642879 0.292507 L 0.63855 0.290009 L 0.63855 0.285007 L 0.642879 0.282509 L 0.647209 0.285007 L 0.647209 0.290009 L 0.651539 0.292507 L 0.655869 0.290009 L 0.655869 0.285007 L 0.660198 0.282509 L 0.664528 0.285007 L 0.668858 0.282509 L 0.668858 0.277508 L 0.664528 0.275009 L 0.660198 0.277508 L 0.655869 0.275009 L 0.655869 0.270008 L 0.651539 0.267509 L 0.647209 0.270008 L 0.647209 0.275009 L 0.642879 0.277508 L 0.63855 0.275009 L 0.63855 0.270008 L 0.642879 0.267509 L 0.642879 0.262508 L 0.63855 0.26001 L 0.63422 0.262508 L 0.62989 0.26001 L 0.62989 0.255009 L 0.625561 0.25251 L 0.621231 0.255009 L 0.621231 0.26001 L 0.625561 0.262508 L 0.625561 0.267509 L 0.621231 0.270008 L 0.616901 0.267509 L 0.612572 0.270008 L 0.612572 0.275009 L 0.608242 0.277508 L 0.603912 0.275009 L 0.603912 0.270008 L 0.608242 0.267509 L 0.608242 0.262508 L 0.603912 0.26001 L 0.603912 0.255009 L 0.608242 0.25251 L 0.612572 0.255009 L 0.616901 0.25251 L 0.616901 0.247509 L 0.612572 0.24501 L 0.608242 0.247509 L 0.603912 0.24501 L 0.603912 0.240009 L 0.599583 0.237511 L 0.595253 0.240009 L 0.595253 0.24501 L 0.590923 0.247509 L 0.586594 0.24501 L 0.586594 0.240009 L 0.590923 0.237511 L 0.590923 0.23251 L 0.586594 0.230011 L 0.582264 0.23251 L 0.577934 0.230011 L 0.577934 0.22501 L 0.573605 0.222511 L 0.569275 0.22501 L 0.569275 0.230011 L 0.573605 0.23251 L 0.573605 0.237511 L 0.569275 0.240009 L 0.569275 0.24501 L 0.573605 0.247509 L 0.577934 0.24501 L 0.582264 0.247509 L 0.582264 0.25251 L 0.577934 0.255009 L 0.573605 0.25251 L 0.569275 0.255009 L 0.569275 0.26001 L 0.573605 0.262508 L 0.573605 0.267509 L 0.569275 0.270008 L 0.569275 0.275009 L 0.573605 0.277508 L 0.577934 0.275009 L 0.577934 0.270008 L 0.582264 0.267509 L 0.586594 0.270008 L 0.586594 0.275009 L 0.590923 0.277508 L 0.595253 0.275009 L 0.599583 0.277508 L 0.599583 0.282509 L 0.595253 0.285007 L 0.590923 0.282509 L 0.586594 0.285007 L 0.586594 0.290009 L 0.582264 0.292507 L 0.577934 0.290009 L 0.577934 0.285007 L 0.573605 0.282509 L 0.569275 0.285007 L 0.569275 0.290009 L 0.573605 0.292507 L 0.573605 0.297508 L 0.569275 0.300007 L 0.564945 0.297508 L 0.560616 0.300007 L 0.560616 0.305008 L 0.556286 0.307507 L 0.551956 0.305008 L 0.551956 0.300007 L 0.556286 0.297508 L 0.556286 0.292507 L 0.551956 0.290009 L 0.547626 0.292507 L 0.543297 0.290009 L 0.543297 0.285007 L 0.538967 0.282509 L 0.534637 0.285007 L 0.534637 0.290009 L 0.538967 0.292507 L 0.538967 0.297508 L 0.534637 0.300007 L 0.534637 0.305008 L 0.538967 0.307507 L 0.543297 0.305008 L 0.547626 0.307507 L 0.547626 0.312508 L 0.543297 0.315006 L 0.538967 0.312508 L 0.534637 0.315006 L 0.534637 0.320007 L 0.530308 0.322506 L 0.525978 0.320007 L 0.525978 0.315006 L 0.521648 0.312508 L 0.517319 0.315006 L 0.517319 0.320007 L 0.521648 0.322506 L 0.521648 0.327507 L 0.517319 0.330006 L 0.512989 0.327507 L 0.508659 0.330006 L 0.508659 0.335007 L 0.50433 0.337505 L 0.5 0.335007 L 0.5 0.330006 L 0.50433 0.327507 L 0.50433 0.322506 L 0.5 0.320007 L 0.5 0.315006 L 0.50433 0.312508 L 0.508659 0.315006 L 0.512989 0.312508 L 0.512989 0.307507 L 0.508659 0.305008 L 0.50433 0.307507 L 0.5 0.305008 L 0.5 0.300007 L 0.50433 0.297508 L 0.50433 0.292507 L 0.5 0.290009 L 0.5 0.285007 L 0.50433 0.282509 L 0.508659 0.285007 L 0.508659 0.290009 L 0.512989 0.292507 L 0.517319 0.290009 L 0.517319 0.285007 L 0.521648 0.282509 L 0.525978 0.285007 L 0.530308 0.282509 L 0.530308 0.277508 L 0.525978 0.275009 L 0.521648 0.277508 L 0.517319 0.275009 L 0.517319 0.270008 L 0.512989 0.267509 L 0.508659 0.270008 L 0.508659 0.275009 L 0.50433 0.277508 L 0.5 0.275009 L 0.5 0.270008 L 0.50433 0.267509 L 0.50433 0.262508 L 0.5 0.26001 L 0.5 0.255009 L 0.50433 0.25251 L 0.508659 0.255009 L 0.512989 0.25251 L 0.512989 0.247509 L 0.508659 0.24501 L 0.50433 0.247509 L 0.5 0.24501 L 0.5 0.240009 L 0.50433 0.237511 L 0.50433 0.23251 L 0.5 0.230011 L 0.5 0.22501 L 0.50433 0.222511 L 0.508659 0.22501 L 0.508659 0.230011 L 0.512989 0.23251 L 0.517319 0.230011 L 0.521648 0.23251 L 0.521648 0.237511 L 0.517319 0.240009 L 0.517319 0.24501 L 0.521648 0.247509 L 0.525978 0.24501 L 0.525978 0.240009 L 0.530308 0.237511 L 0.534637 0.240009 L 0.538967 0.237511 L 0.538967 0.23251 L 0.534637 0.230011 L 0.534637 0.22501 L 0.538967 0.222511 L 0.543297 0.22501 L 0.543297 0.230011 L 0.547626 0.23251 L 0.551956 0.230011 L 0.551956 0.22501 L 0.556286 0.222511 L 0.560616 0.22501 L 0.564945 0.222511 L 0.564945 0.21751 L 0.560616 0.215012 L 0.556286 0.21751 L 0.551956 0.215012 L 0.551956 0.210011 L 0.547626 0.207512 L 0.543297 0.210011 L 0.543297 0.215012 L 0.538967 0.21751 L 0.534637 0.215012 L 0.534637 0.210011 L 0.538967 0.207512 L 0.538967 0.202511 L 0.534637 0.200012 L 0.530308 0.202511 L 0.525978 0.200012 L 0.525978 0.195011 L 0.521648 0.192513 L 0.517319 0.195011 L 0.517319 0.200012 L 0.521648 0.202511 L 0.521648 0.207512 L 0.517319 0.210011 L 0.512989 0.207512 L 0.508659 0.210011 L 0.508659 0.215012 L 0.50433 0.21751 L 0.5 0.215012 L 0.5 0.210011 L 0.50433 0.207512 L 0.50433 0.202511 L 0.5 0.200012 L 0.5 0.195011 L 0.50433 0.192513 L 0.508659 0.195011 L 0.512989 0.192513 L 0.512989 0.187511 L 0.508659 0.185013 L 0.50433 0.187511 L 0.5 0.185013 L 0.5 0.180012 " transform="matrix(1024,0,0,1024,0,0)"/>
</g>
</svg>
