<?xml version="1.0" encoding="UTF-8"?>
<svg xmlns="http://www.w3.org/2000/svg" xmlns:xlink="http://www.w3.org/1999/xlink" width="1920pt" height="1080pt" viewBox="0 0 1920 1080" version="1.1">
<g id="surface11">
<rect x="0" y="0" width="1920" height="1080" style="fill:rgb(0%,0%,0%);fill-opacity:1;stroke:none;"/>
<path style="fill:none;stroke-width:0.00185185;stroke-linecap:butt;stroke-linejoin:miter;stroke:rgb(100%,100%,100%);stroke-opacity:1;stroke-miterlimit:10;" d="M 1.388889 1 L 1.381076 0.996047 L 1.373264 1 L 1.365451 0.996047 L 1.365451 0.988144 L 1.373264 0.984191 L 1.381076 0.988144 L 1.388889 0.984191 L 1.388889 0.976284 L 1.381076 0.972331 L 1.381076 0.964428 L 1.388889 0.960475 L 1.388889 0.952568 L 1.381076 0.948618 L 1.373264 0.952568 L 1.373264 0.960475 L 1.365451 0.964428 L 1.357639 0.960475 L 1.349826 0.964428 L 1.349826 0.972331 L 1.357639 0.976284 L 1.357639 0.984191 L 1.349826 0.988144 L 1.342014 0.984191 L 1.342014 0.976284 L 1.334201 0.972331 L 1.326389 0.976284 L 1.318576 0.972331 L 1.318576 0.964428 L 1.326389 0.960475 L 1.326389 0.952568 L 1.318576 0.948618 L 1.310764 0.952568 L 1.310764 0.960475 L 1.302951 0.964428 L 1.295139 0.960475 L 1.295139 0.952568 L 1.287326 0.948618 L 1.279514 0.952568 L 1.271701 0.948618 L 1.271701 0.940712 L 1.279514 0.936759 L 1.287326 0.940712 L 1.295139 0.936759 L 1.295139 0.928852 L 1.302951 0.924902 L 1.310764 0.928852 L 1.310764 0.936759 L 1.318576 0.940712 L 1.326389 0.936759 L 1.326389 0.928852 L 1.318576 0.924902 L 1.318576 0.916996 L 1.326389 0.913043 L 1.334201 0.916996 L 1.342014 0.913043 L 1.342014 0.90514 L 1.349826 0.901186 L 1.357639 0.90514 L 1.357639 0.913043 L 1.349826 0.916996 L 1.349826 0.924902 L 1.357639 0.928852 L 1.365451 0.924902 L 1.373264 0.928852 L 1.373264 0.936759 L 1.381076 0.940712 L 1.388889 0.936759 L 1.388889 0.928852 L 1.381076 0.924902 L 1.381076 0.916996 L 1.388889 0.913043 L 1.388889 0.90514 L 1.381076 0.901186 L 1.373264 0.90514 L 1.365451 0.901186 L 1.365451 0.89328 L 1.373264 0.889327 L 1.381076 0.89328 L 1.388889 0.889327 L 1.388889 0.881424 L 1.381076 0.87747 L 1.381076 0.869564 L 1.388889 0.865614 L 1.388889 0.857708 L 1.381076 0.853754 L 1.373264 0.857708 L 1.373264 0.865614 L 1.365451 0.869564 L 1.357639 0.865614 L 1.357639 0.857708 L 1.349826 0.853754 L 1.342014 0.857708 L 1.334201 0.853754 L 1.334201 0.845851 L 1.342014 0.841898 L 1.349826 0.845851 L 1.357639 0.841898 L 1.357639 0.833992 L 1.365451 0.830038 L 1.373264 0.833992 L 1.373264 0.841898 L 1.381076 0.845851 L 1.388889 0.841898 L 1.388889 0.833992 L 1.381076 0.830038 L 1.381076 0.822135 L 1.388889 0.818182 L 1.388889 0.810276 L 1.381076 0.806322 L 1.373264 0.810276 L 1.365451 0.806322 L 1.365451 0.798419 L 1.373264 0.794466 L 1.381076 0.798419 L 1.388889 0.794466 L 1.388889 0.78656 L 1.381076 0.78261 L 1.381076 0.774703 L 1.388889 0.77075 L 1.388889 0.762847 L 1.381076 0.758894 L 1.373264 0.762847 L 1.373264 0.77075 L 1.365451 0.774703 L 1.357639 0.77075 L 1.349826 0.774703 L 1.349826 0.78261 L 1.357639 0.78656 L 1.357639 0.794466 L 1.349826 0.798419 L 1.342014 0.794466 L 1.342014 0.78656 L 1.334201 0.78261 L 1.326389 0.78656 L 1.326389 0.794466 L 1.318576 0.798419 L 1.310764 0.794466 L 1.302951 0.798419 L 1.302951 0.806322 L 1.310764 0.810276 L 1.318576 0.806322 L 1.326389 0.810276 L 1.326389 0.818182 L 1.318576 0.822135 L 1.318576 0.830038 L 1.326389 0.833992 L 1.326389 0.841898 L 1.318576 0.845851 L 1.310764 0.841898 L 1.310764 0.833992 L 1.302951 0.830038 L 1.295139 0.833992 L 1.287326 0.830038 L 1.287326 0.822135 L 1.295139 0.818182 L 1.295139 0.810276 L 1.287326 0.806322 L 1.279514 0.810276 L 1.279514 0.818182 L 1.271701 0.822135 L 1.263889 0.818182 L 1.256076 0.822135 L 1.256076 0.830038 L 1.263889 0.833992 L 1.263889 0.841898 L 1.256076 0.845851 L 1.248264 0.841898 L 1.248264 0.833992 L 1.240451 0.830038 L 1.232639 0.833992 L 1.232639 0.841898 L 1.224826 0.845851 L 1.217014 0.841898 L 1.209201 0.845851 L 1.209201 0.853754 L 1.217014 0.857708 L 1.224826 0.853754 L 1.232639 0.857708 L 1.232639 0.865614 L 1.240451 0.869564 L 1.248264 0.865614 L 1.248264 0.857708 L 1.256076 0.853754 L 1.263889 0.857708 L 1.263889 0.865614 L 1.256076 0.869564 L 1.256076 0.87747 L 1.263889 0.881424 L 1.263889 0.889327 L 1.256076 0.89328 L 1.248264 0.889327 L 1.240451 0.89328 L 1.240451 0.901186 L 1.248264 0.90514 L 1.256076 0.901186 L 1.263889 0.90514 L 1.263889 0.913043 L 1.256076 0.916996 L 1.256076 0.924902 L 1.263889 0.928852 L 1.263889 0.936759 L 1.256076 0.940712 L 1.248264 0.936759 L 1.248264 0.928852 L 1.240451 0.924902 L 1.232639 0.928852 L 1.224826 0.924902 L 1.224826 0.916996 L 1.232639 0.913043 L 1.232639 0.90514 L 1.224826 0.901186 L 1.217014 0.90514 L 1.217014 0.913043 L 1.209201 0.916996 L 1.201389 0.913043 L 1.201389 0.90514 L 1.193576 0.901186 L 1.185764 0.90514 L 1.177951 0.901186 L 1.177951 0.89328 L 1.185764 0.889327 L 1.193576 0.89328 L 1.201389 0.889327 L 1.201389 0.881424 L 1.193576 0.87747 L 1.193576 0.869564 L 1.201389 0.865614 L 1.201389 0.857708 L 1.193576 0.853754 L 1.185764 0.857708 L 1.185764 0.865614 L 1.177951 0.869564 L 1.170139 0.865614 L 1.162326 0.869564 L 1.162326 0.87747 L 1.170139 0.881424 L 1.170139 0.889327 L 1.162326 0.89328 L 1.154514 0.889327 L 1.154514 0.881424 L 1.146701 0.87747 L 1.138889 0.881424 L 1.131076 0.87747 L 1.131076 0.869564 L 1.138889 0.865614 L 1.138889 0.857708 L 1.131076 0.853754 L 1.123264 0.857708 L 1.123264 0.865614 L 1.115451 0.869564 L 1.107639 0.865614 L 1.107639 0.857708 L 1.099826 0.853754 L 1.092014 0.857708 L 1.084201 0.853754 L 1.084201 0.845851 L 1.092014 0.841898 L 1.099826 0.845851 L 1.107639 0.841898 L 1.107639 0.833992 L 1.115451 0.830038 L 1.123264 0.833992 L 1.123264 0.841898 L 1.131076 0.845851 L 1.138889 0.841898 L 1.138889 0.833992 L 1.131076 0.830038 L 1.131076 0.822135 L 1.138889 0.818182 L 1.138889 0.810276 L 1.131076 0.806322 L 1.123264 0.810276 L 1.115451 0.806322 L 1.115451 0.798419 L 1.123264 0.794466 L 1.131076 0.798419 L 1.138889 0.794466 L 1.138889 0.78656 L 1.131076 0.78261 L 1.131076 0.774703 L 1.138889 0.77075 L 1.138889 0.762847 L 1.131076 0.758894 L 1.123264 0.762847 L 1.123264 0.77075 L 1.115451 0.774703 L 1.107639 0.77075 L 1.099826 0.774703 L 1.099826 0.78261 L 1.107639 0.78656 L 1.107639 0.794466 L 1.099826 0.798419 L 1.092014 0.794466 L 1.092014 0.78656 L 1.084201 0.78261 L 1.076389 0.78656 L 1.076389 0.794466 L 1.068576 0.798419 L 1.060764 0.794466 L 1.052951 0.798419 L 1.052951 0.806322 L 1.060764 0.810276 L 1.068576 0.806322 L 1.076389 0.810276 L 1.076389 0.818182 L 1.068576 0.822135 L 1.068576 0.830038 L 1.076389 0.833992 L 1.076389 0.841898 L 1.068576 0.845851 L 1.060764 0.841898 L 1.060764 0.833992 L 1.052951 0.830038 L 1.045139 0.833992 L 1.037326 0.830038 L 1.037326 0.822135 L 1.045139 0.818182 L 1.045139 0.810276 L 1.037326 0.806322 L 1.029514 0.810276 L 1.029514 0.818182 L 1.021701 0.822135 L 1.013889 0.818182 L 1.013889 0.810276 L 1.006076 0.806322 L 0.998264 0.810276 L 0.990451 0.806322 L 0.990451 0.798419 L 0.998264 0.794466 L 1.006076 0.798419 L 1.013889 0.794466 L 1.013889 0.78656 L 1.006076 0.78261 L 1.006076 0.774703 L 1.013889 0.77075 L 1.013889 0.762847 L 1.006076 0.758894 L 0.998264 0.762847 L 0.998264 0.77075 L 0.990451 0.774703 L 0.982639 0.77075 L 0.974826 0.774703 L 0.974826 0.78261 L 0.982639 0.78656 L 0.982639 0.794466 L 0.974826 0.798419 L 0.967014 0.794466 L 0.967014 0.78656 L 0.959201 0.78261 L 0.951389 0.78656 L 0.943576 0.78261 L 0.943576 0.774703 L 0.951389 0.77075 L 0.951389 0.762847 L 0.943576 0.758894 L 0.935764 0.762847 L 0.935764 0.77075 L 0.927951 0.774703 L 0.920139 0.77075 L 0.920139 0.762847 L 0.912326 0.758894 L 0.904514 0.762847 L 0.896701 0.758894 L 0.896701 0.750987 L 0.904514 0.747034 L 0.912326 0.750987 L 0.920139 0.747034 L 0.920139 0.739131 L 0.927951 0.735178 L 0.935764 0.739131 L 0.935764 0.747034 L 0.943576 0.750987 L 0.951389 0.747034 L 0.951389 0.739131 L 0.943576 0.735178 L 0.943576 0.727271 L 0.951389 0.723322 L 0.959201 0.727271 L 0.967014 0.723322 L 0.967014 0.715415 L 0.974826 0.711462 L 0.982639 0.715415 L 0.982639 0.723322 L 0.974826 0.727271 L 0.974826 0.735178 L 0.982639 0.739131 L 0.990451 0.735178 L 0.998264 0.739131 L 0.998264 0.747034 L 1.006076 0.750987 L 1.013889 0.747034 L 1.013889 0.739131 L 1.006076 0.735178 L 1.006076 0.727271 L 1.013889 0.723322 L 1.013889 0.715415 L 1.006076 0.711462 L 0.998264 0.715415 L 0.990451 0.711462 L 0.990451 0.703559 L 0.998264 0.699606 L 1.006076 0.703559 L 1.013889 0.699606 L 1.013889 0.691699 L 1.021701 0.687746 L 1.029514 0.691699 L 1.029514 0.699606 L 1.037326 0.703559 L 1.045139 0.699606 L 1.045139 0.691699 L 1.037326 0.687746 L 1.037326 0.679843 L 1.045139 0.67589 L 1.052951 0.679843 L 1.060764 0.67589 L 1.060764 0.667983 L 1.068576 0.66403 L 1.076389 0.667983 L 1.076389 0.67589 L 1.068576 0.679843 L 1.068576 0.687746 L 1.076389 0.691699 L 1.076389 0.699606 L 1.068576 0.703559 L 1.060764 0.699606 L 1.052951 0.703559 L 1.052951 0.711462 L 1.060764 0.715415 L 1.068576 0.711462 L 1.076389 0.715415 L 1.076389 0.723322 L 1.084201 0.727271 L 1.092014 0.723322 L 1.092014 0.715415 L 1.099826 0.711462 L 1.107639 0.715415 L 1.107639 0.723322 L 1.099826 0.727271 L 1.099826 0.735178 L 1.107639 0.739131 L 1.115451 0.735178 L 1.123264 0.739131 L 1.123264 0.747034 L 1.131076 0.750987 L 1.138889 0.747034 L 1.138889 0.739131 L 1.131076 0.735178 L 1.131076 0.727271 L 1.138889 0.723322 L 1.138889 0.715415 L 1.131076 0.711462 L 1.123264 0.715415 L 1.115451 0.711462 L 1.115451 0.703559 L 1.123264 0.699606 L 1.131076 0.703559 L 1.138889 0.699606 L 1.138889 0.691699 L 1.131076 0.687746 L 1.131076 0.679843 L 1.138889 0.67589 L 1.138889 0.667983 L 1.131076 0.66403 L 1.123264 0.667983 L 1.123264 0.67589 L 1.115451 0.679843 L 1.107639 0.67589 L 1.107639 0.667983 L 1.099826 0.66403 L 1.092014 0.667983 L 1.084201 0.66403 L 1.084201 0.656127 L 1.092014 0.652174 L 1.099826 0.656127 L 1.107639 0.652174 L 1.107639 0.644267 L 1.115451 0.640318 L 1.123264 0.644267 L 1.123264 0.652174 L 1.131076 0.656127 L 1.138889 0.652174 L 1.138889 0.644267 L 1.131076 0.640318 L 1.131076 0.632411 L 1.138889 0.628458 L 1.146701 0.632411 L 1.154514 0.628458 L 1.154514 0.620555 L 1.162326 0.616602 L 1.170139 0.620555 L 1.170139 0.628458 L 1.162326 0.632411 L 1.162326 0.640318 L 1.170139 0.644267 L 1.177951 0.640318 L 1.185764 0.644267 L 1.185764 0.652174 L 1.193576 0.656127 L 1.201389 0.652174 L 1.201389 0.644267 L 1.193576 0.640318 L 1.193576 0.632411 L 1.201389 0.628458 L 1.201389 0.620555 L 1.193576 0.616602 L 1.185764 0.620555 L 1.177951 0.616602 L 1.177951 0.608695 L 1.185764 0.604742 L 1.193576 0.608695 L 1.201389 0.604742 L 1.201389 0.596839 L 1.209201 0.592886 L 1.217014 0.596839 L 1.217014 0.604742 L 1.224826 0.608695 L 1.232639 0.604742 L 1.232639 0.596839 L 1.224826 0.592886 L 1.224826 0.584979 L 1.232639 0.581029 L 1.240451 0.584979 L 1.248264 0.581029 L 1.248264 0.573123 L 1.256076 0.56917 L 1.263889 0.573123 L 1.263889 0.581029 L 1.256076 0.584979 L 1.256076 0.592886 L 1.263889 0.596839 L 1.263889 0.604742 L 1.256076 0.608695 L 1.248264 0.604742 L 1.240451 0.608695 L 1.240451 0.616602 L 1.248264 0.620555 L 1.256076 0.616602 L 1.263889 0.620555 L 1.263889 0.628458 L 1.256076 0.632411 L 1.256076 0.640318 L 1.263889 0.644267 L 1.263889 0.652174 L 1.256076 0.656127 L 1.248264 0.652174 L 1.248264 0.644267 L 1.240451 0.640318 L 1.232639 0.644267 L 1.232639 0.652174 L 1.224826 0.656127 L 1.217014 0.652174 L 1.209201 0.656127 L 1.209201 0.66403 L 1.217014 0.667983 L 1.224826 0.66403 L 1.232639 0.667983 L 1.232639 0.67589 L 1.240451 0.679843 L 1.248264 0.67589 L 1.248264 0.667983 L 1.256076 0.66403 L 1.263889 0.667983 L 1.263889 0.67589 L 1.256076 0.679843 L 1.256076 0.687746 L 1.263889 0.691699 L 1.271701 0.687746 L 1.279514 0.691699 L 1.279514 0.699606 L 1.287326 0.703559 L 1.295139 0.699606 L 1.295139 0.691699 L 1.287326 0.687746 L 1.287326 0.679843 L 1.295139 0.67589 L 1.302951 0.679843 L 1.310764 0.67589 L 1.310764 0.667983 L 1.318576 0.66403 L 1.326389 0.667983 L 1.326389 0.67589 L 1.318576 0.679843 L 1.318576 0.687746 L 1.326389 0.691699 L 1.326389 0.699606 L 1.318576 0.703559 L 1.310764 0.699606 L 1.302951 0.703559 L 1.302951 0.711462 L 1.310764 0.715415 L 1.318576 0.711462 L 1.326389 0.715415 L 1.326389 0.723322 L 1.334201 0.727271 L 1.342014 0.723322 L 1.342014 0.715415 L 1.349826 0.711462 L 1.357639 0.715415 L 1.357639 0.723322 L 1.349826 0.727271 L 1.349826 0.735178 L 1.357639 0.739131 L 1.365451 0.735178 L 1.373264 0.739131 L 1.373264 0.747034 L 1.381076 0.750987 L 1.388889 0.747034 L 1.388889 0.739131 L 1.381076 0.735178 L 1.381076 0.727271 L 1.388889 0.723322 L 1.388889 0.715415 L 1.381076 0.711462 L 1.373264 0.715415 L 1.365451 0.711462 L 1.365451 0.703559 L 1.373264 0.699606 L 1.381076 0.703559 L 1.388889 0.699606 L 1.388889 0.691699 L 1.381076 0.687746 L 1.381076 0.679843 L 1.388889 0.67589 L 1.388889 0.667983 L 1.381076 0.66403 L 1.373264 0.667983 L 1.373264 0.67589 L 1.365451 0.679843 L 1.357639 0.67589 L 1.357639 0.667983 L 1.349826 0.66403 L 1.342014 0.667983 L 1.334201 0.66403 L 1.334201 0.656127 L 1.342014 0.652174 L 1.349826 0.656127 L 1.357639 0.652174 L 1.357639 0.644267 L 1.365451 0.640318 L 1.373264 0.644267 L 1.373264 0.652174 L 1.381076 0.656127 L 1.388889 0.652174 L 1.388889 0.644267 L 1.381076 0.640318 L 1.381076 0.632411 L 1.388889 0.628458 L 1.388889 0.620555 L 1.381076 0.616602 L 1.373264 0.620555 L 1.365451 0.616602 L 1.365451 0.608695 L 1.373264 0.604742 L 1.381076 0.608695 L 1.388889 0.604742 L 1.388889 0.596839 L 1.381076 0.592886 L 1.381076 0.584979 L 1.388889 0.581029 L 1.388889 0.573123 L 1.381076 0.56917 L 1.373264 0.573123 L 1.373264 0.581029 L 1.365451 0.584979 L 1.357639 0.581029 L 1.349826 0.584979 L 1.349826 0.592886 L 1.357639 0.596839 L 1.357639 0.604742 L 1.349826 0.608695 L 1.342014 0.604742 L 1.342014 0.596839 L 1.334201 0.592886 L 1.326389 0.596839 L 1.318576 0.592886 L 1.318576 0.584979 L 1.326389 0.581029 L 1.326389 0.573123 L 1.318576 0.56917 L 1.310764 0.573123 L 1.310764 0.581029 L 1.302951 0.584979 L 1.295139 0.581029 L 1.295139 0.573123 L 1.287326 0.56917 L 1.279514 0.573123 L 1.271701 0.56917 L 1.271701 0.561263 L 1.279514 0.557313 L 1.287326 0.561263 L 1.295139 0.557313 L 1.295139 0.549407 L 1.302951 0.545454 L 1.310764 0.549407 L 1.310764 0.557313 L 1.318576 0.561263 L 1.326389 0.557313 L 1.326389 0.549407 L 1.318576 0.545454 L 1.318576 0.537551 L 1.326389 0.533597 L 1.334201 0.537551 L 1.342014 0.533597 L 1.342014 0.525691 L 1.349826 0.521738 L 1.357639 0.525691 L 1.357639 0.533597 L 1.349826 0.537551 L 1.349826 0.545454 L 1.357639 0.549407 L 1.365451 0.545454 L 1.373264 0.549407 L 1.373264 0.557313 L 1.381076 0.561263 L 1.388889 0.557313 L 1.388889 0.549407 L 1.381076 0.545454 L 1.381076 0.537551 L 1.388889 0.533597 L 1.388889 0.525691 L 1.381076 0.521738 L 1.373264 0.525691 L 1.365451 0.521738 L 1.365451 0.513835 L 1.373264 0.509881 L 1.381076 0.513835 L 1.388889 0.509881 L 1.388889 0.501975 L 1.381076 0.498025 L 1.381076 0.490119 L 1.388889 0.486165 L 1.388889 0.478262 L 1.381076 0.474309 L 1.373264 0.478262 L 1.373264 0.486165 L 1.365451 0.490119 L 1.357639 0.486165 L 1.357639 0.478262 L 1.349826 0.474309 L 1.342014 0.478262 L 1.334201 0.474309 L 1.334201 0.466403 L 1.342014 0.462449 L 1.349826 0.466403 L 1.357639 0.462449 L 1.357639 0.454546 L 1.365451 0.450593 L 1.373264 0.454546 L 1.373264 0.462449 L 1.381076 0.466403 L 1.388889 0.462449 L 1.388889 0.454546 L 1.381076 0.450593 L 1.381076 0.442687 L 1.388889 0.438737 L 1.388889 0.43083 L 1.381076 0.426877 L 1.373264 0.43083 L 1.365451 0.426877 L 1.365451 0.418971 L 1.373264 0.415021 L 1.381076 0.418971 L 1.388889 0.415021 L 1.388889 0.407114 L 1.381076 0.403161 L 1.381076 0.395258 L 1.388889 0.391305 L 1.388889 0.383398 L 1.381076 0.379445 L 1.373264 0.383398 L 1.373264 0.391305 L 1.365451 0.395258 L 1.357639 0.391305 L 1.349826 0.395258 L 1.349826 0.403161 L 1.357639 0.407114 L 1.357639 0.415021 L 1.349826 0.418971 L 1.342014 0.415021 L 1.342014 0.407114 L 1.334201 0.403161 L 1.326389 0.407114 L 1.326389 0.415021 L 1.318576 0.418971 L 1.310764 0.415021 L 1.302951 0.418971 L 1.302951 0.426877 L 1.310764 0.43083 L 1.318576 0.426877 L 1.326389 0.43083 L 1.326389 0.438737 L 1.318576 0.442687 L 1.318576 0.450593 L 1.326389 0.454546 L 1.326389 0.462449 L 1.318576 0.466403 L 1.310764 0.462449 L 1.310764 0.454546 L 1.302951 0.450593 L 1.295139 0.454546 L 1.287326 0.450593 L 1.287326 0.442687 L 1.295139 0.438737 L 1.295139 0.43083 L 1.287326 0.426877 L 1.279514 0.43083 L 1.279514 0.438737 L 1.271701 0.442687 L 1.263889 0.438737 L 1.263889 0.43083 L 1.256076 0.426877 L 1.248264 0.43083 L 1.240451 0.426877 L 1.240451 0.418971 L 1.248264 0.415021 L 1.256076 0.418971 L 1.263889 0.415021 L 1.263889 0.407114 L 1.256076 0.403161 L 1.256076 0.395258 L 1.263889 0.391305 L 1.263889 0.383398 L 1.256076 0.379445 L 1.248264 0.383398 L 1.248264 0.391305 L 1.240451 0.395258 L 1.232639 0.391305 L 1.224826 0.395258 L 1.224826 0.403161 L 1.232639 0.407114 L 1.232639 0.415021 L 1.224826 0.418971 L 1.217014 0.415021 L 1.217014 0.407114 L 1.209201 0.403161 L 1.201389 0.407114 L 1.193576 0.403161 L 1.193576 0.395258 L 1.201389 0.391305 L 1.201389 0.383398 L 1.193576 0.379445 L 1.185764 0.383398 L 1.185764 0.391305 L 1.177951 0.395258 L 1.170139 0.391305 L 1.170139 0.383398 L 1.162326 0.379445 L 1.154514 0.383398 L 1.146701 0.379445 L 1.146701 0.371542 L 1.154514 0.367589 L 1.162326 0.371542 L 1.170139 0.367589 L 1.170139 0.359682 L 1.177951 0.355733 L 1.185764 0.359682 L 1.185764 0.367589 L 1.193576 0.371542 L 1.201389 0.367589 L 1.201389 0.359682 L 1.193576 0.355733 L 1.193576 0.347826 L 1.201389 0.343873 L 1.209201 0.347826 L 1.217014 0.343873 L 1.217014 0.33597 L 1.224826 0.332017 L 1.232639 0.33597 L 1.232639 0.343873 L 1.224826 0.347826 L 1.224826 0.355733 L 1.232639 0.359682 L 1.240451 0.355733 L 1.248264 0.359682 L 1.248264 0.367589 L 1.256076 0.371542 L 1.263889 0.367589 L 1.263889 0.359682 L 1.256076 0.355733 L 1.256076 0.347826 L 1.263889 0.343873 L 1.263889 0.33597 L 1.256076 0.332017 L 1.248264 0.33597 L 1.240451 0.332017 L 1.240451 0.32411 L 1.248264 0.320157 L 1.256076 0.32411 L 1.263889 0.320157 L 1.263889 0.312254 L 1.271701 0.308301 L 1.279514 0.312254 L 1.279514 0.320157 L 1.287326 0.32411 L 1.295139 0.320157 L 1.295139 0.312254 L 1.287326 0.308301 L 1.287326 0.300394 L 1.295139 0.296441 L 1.302951 0.300394 L 1.310764 0.296441 L 1.310764 0.288538 L 1.318576 0.284585 L 1.326389 0.288538 L 1.326389 0.296441 L 1.318576 0.300394 L 1.318576 0.308301 L 1.326389 0.312254 L 1.326389 0.320157 L 1.318576 0.32411 L 1.310764 0.320157 L 1.302951 0.32411 L 1.302951 0.332017 L 1.310764 0.33597 L 1.318576 0.332017 L 1.326389 0.33597 L 1.326389 0.343873 L 1.334201 0.347826 L 1.342014 0.343873 L 1.342014 0.33597 L 1.349826 0.332017 L 1.357639 0.33597 L 1.357639 0.343873 L 1.349826 0.347826 L 1.349826 0.355733 L 1.357639 0.359682 L 1.365451 0.355733 L 1.373264 0.359682 L 1.373264 0.367589 L 1.381076 0.371542 L 1.388889 0.367589 L 1.388889 0.359682 L 1.381076 0.355733 L 1.381076 0.347826 L 1.388889 0.343873 L 1.388889 0.33597 L 1.381076 0.332017 L 1.373264 0.33597 L 1.365451 0.332017 L 1.365451 0.32411 L 1.373264 0.320157 L 1.381076 0.32411 L 1.388889 0.320157 L 1.388889 0.312254 L 1.381076 0.308301 L 1.381076 0.300394 L 1.388889 0.296441 L 1.388889 0.288538 L 1.381076 0.284585 L 1.373264 0.288538 L 1.373264 0.296441 L 1.365451 0.300394 L 1.357639 0.296441 L 1.357639 0.288538 L 1.349826 0.284585 L 1.342014 0.288538 L 1.334201 0.284585 L 1.334201 0.276678 L 1.342014 0.272729 L 1.349826 0.276678 L 1.357639 0.272729 L 1.357639 0.264822 L 1.365451 0.260869 L 1.373264 0.264822 L 1.373264 0.272729 L 1.381076 0.276678 L 1.388889 0.272729 L 1.388889 0.264822 L 1.381076 0.260869 L 1.381076 0.252966 L 1.388889 0.249013 L 1.388889 0.241106 L 1.381076 0.237153 L 1.373264 0.241106 L 1.365451 0.237153 L 1.365451 0.22925 L 1.373264 0.225297 L 1.381076 0.22925 L 1.388889 0.225297 L 1.388889 0.21739 L 1.381076 0.21344 L 1.381076 0.205534 L 1.388889 0.201581 L 1.388889 0.193678 L 1.381076 0.189724 L 1.373264 0.193678 L 1.373264 0.201581 L 1.365451 0.205534 L 1.357639 0.201581 L 1.349826 0.205534 L 1.349826 0.21344 L 1.357639 0.21739 L 1.357639 0.225297 L 1.349826 0.22925 L 1.342014 0.225297 L 1.342014 0.21739 L 1.334201 0.21344 L 1.326389 0.21739 L 1.318576 0.21344 L 1.318576 0.205534 L 1.326389 0.201581 L 1.326389 0.193678 L 1.318576 0.189724 L 1.310764 0.193678 L 1.310764 0.201581 L 1.302951 0.205534 L 1.295139 0.201581 L 1.295139 0.193678 L 1.287326 0.189724 L 1.279514 0.193678 L 1.271701 0.189724 L 1.271701 0.181818 L 1.279514 0.177865 L 1.287326 0.181818 L 1.295139 0.177865 L 1.295139 0.169962 L 1.302951 0.166008 L 1.310764 0.169962 L 1.310764 0.177865 L 1.318576 0.181818 L 1.326389 0.177865 L 1.326389 0.169962 L 1.318576 0.166008 L 1.318576 0.158102 L 1.326389 0.154149 L 1.334201 0.158102 L 1.342014 0.154149 L 1.342014 0.146246 L 1.349826 0.142292 L 1.357639 0.146246 L 1.357639 0.154149 L 1.349826 0.158102 L 1.349826 0.166008 L 1.357639 0.169962 L 1.365451 0.166008 L 1.373264 0.169962 L 1.373264 0.177865 L 1.381076 0.181818 L 1.388889 0.177865 L 1.388889 0.169962 L 1.381076 0.166008 L 1.381076 0.158102 L 1.388889 0.154149 L 1.388889 0.146246 L 1.381076 0.142292 L 1.373264 0.146246 L 1.365451 0.142292 L 1.365451 0.134386 L 1.373264 0.130436 L 1.381076 0.134386 L 1.388889 0.130436 L 1.388889 0.12253 L 1.381076 0.118576 L 1.381076 0.110673 L 1.388889 0.10672 L 1.388889 0.0988137 L 1.381076 0.0948604 L 1.373264 0.0988137 L 1.373264 0.10672 L 1.365451 0.110673 L 1.357639 0.10672 L 1.357639 0.0988137 L 1.349826 0.0948604 L 1.342014 0.0988137 L 1.334201 0.0948604 L 1.334201 0.0869575 L 1.342014 0.0830042 L 1.349826 0.0869575 L 1.357639 0.0830042 L 1.357639 0.0750977 L 1.365451 0.071148 L 1.373264 0.0750977 L 1.373264 0.0830042 L 1.381076 0.0869575 L 1.388889 0.0830042 L 1.388889 0.0750977 L 1.381076 0.071148 L 1.381076 0.0632415 L 1.388889 0.0592882 L 1.388889 0.0513817 L 1.381076 0.047432 L 1.373264 0.0513817 L 1.365451 0.047432 L 1.365451 0.0395255 L 1.373264 0.0355722 L 1.381076 0.0395255 L 1.388889 0.0355722 L 1.388889 0.0276693 L 1.381076 0.023716 L 1.381076 0.0158095 L 1.388889 0.0118562 L 1.388889 0.00395327 L 1.381076 0 L 1.373264 0.00395327 L 1.373264 0.0118562 L 1.365451 0.0158095 L 1.357639 0.0118562 L 1.349826 0.0158095 L 1.349826 0.023716 L 1.357639 0.0276693 L 1.357639 0.0355722 L 1.349826 0.0395255 L 1.342014 0.0355722 L 1.342014 0.0276693 L 1.334201 0.023716 L 1.326389 0.0276693 L 1.326389 0.0355722 L 1.318576 0.0395255 L 1.310764 0.0355722 L 1.302951 0.0395255 L 1.302951 0.047432 L 1.310764 0.0513817 L 1.318576 0.047432 L 1.326389 0.0513817 L 1.326389 0.0592882 L 1.318576 0.0632415 L 1.318576 0.071148 L 1.326389 0.0750977 L 1.326389 0.0830042 L 1.318576 0.0869575 L 1.310764 0.0830042 L 1.310764 0.0750977 L 1.302951 0.071148 L 1.295139 0.0750977 L 1.287326 0.071148 L 1.287326 0.0632415 L 1.295139 0.0592882 L 1.295139 0.0513817 L 1.287326 0.047432 L 1.279514 0.0513817 L 1.279514 0.0592882 L 1.271701 0.0632415 L 1.263889 0.0592882 L 1.256076 0.0632415 L 1.256076 0.071148 L 1.263889 0.0750977 L 1.263889 0.0830042 L 1.256076 0.0869575 L 1.248264 0.0830042 L 1.248264 0.0750977 L 1.240451 0.071148 L 1.232639 0.0750977 L 1.232639 0.0830042 L 1.224826 0.0869575 L 1.217014 0.0830042 L 1.209201 0.0869575 L 1.209201 0.0948604 L 1.217014 0.0988137 L 1.224826 0.0948604 L 1.232639 0.0988137 L 1.232639 0.10672 L 1.240451 0.110673 L 1.248264 0.10672 L 1.248264 0.0988137 L 1.256076 0.0948604 L 1.263889 0.0988137 L 1.263889 0.10672 L 1.256076 0.110673 L 1.256076 0.118576 L 1.263889 0.12253 L 1.263889 0.130436 L 1.256076 0.134386 L 1.248264 0.130436 L 1.240451 0.134386 L 1.240451 0.142292 L 1.248264 0.146246 L 1.256076 0.142292 L 1.263889 0.146246 L 1.263889 0.154149 L 1.256076 0.158102 L 1.256076 0.166008 L 1.263889 0.169962 L 1.263889 0.177865 L 1.256076 0.181818 L 1.248264 0.177865 L 1.248264 0.169962 L 1.240451 0.166008 L 1.232639 0.169962 L 1.224826 0.166008 L 1.224826 0.158102 L 1.232639 0.154149 L 1.232639 0.146246 L 1.224826 0.142292 L 1.217014 0.146246 L 1.217014 0.154149 L 1.209201 0.158102 L 1.201389 0.154149 L 1.201389 0.146246 L 1.193576 0.142292 L 1.185764 0.146246 L 1.177951 0.142292 L 1.177951 0.134386 L 1.185764 0.130436 L 1.193576 0.134386 L 1.201389 0.130436 L 1.201389 0.12253 L 1.193576 0.118576 L 1.193576 0.110673 L 1.201389 0.10672 L 1.201389 0.0988137 L 1.193576 0.0948604 L 1.185764 0.0988137 L 1.185764 0.10672 L 1.177951 0.110673 L 1.170139 0.10672 L 1.162326 0.110673 L 1.162326 0.118576 L 1.170139 0.12253 L 1.170139 0.130436 L 1.162326 0.134386 L 1.154514 0.130436 L 1.154514 0.12253 L 1.146701 0.118576 L 1.138889 0.12253 L 1.138889 0.130436 L 1.131076 0.134386 L 1.123264 0.130436 L 1.115451 0.134386 L 1.115451 0.142292 L 1.123264 0.146246 L 1.131076 0.142292 L 1.138889 0.146246 L 1.138889 0.154149 L 1.131076 0.158102 L 1.131076 0.166008 L 1.138889 0.169962 L 1.138889 0.177865 L 1.131076 0.181818 L 1.123264 0.177865 L 1.123264 0.169962 L 1.115451 0.166008 L 1.107639 0.169962 L 1.099826 0.166008 L 1.099826 0.158102 L 1.107639 0.154149 L 1.107639 0.146246 L 1.099826 0.142292 L 1.092014 0.146246 L 1.092014 0.154149 L 1.084201 0.158102 L 1.076389 0.154149 L 1.068576 0.158102 L 1.068576 0.166008 L 1.076389 0.169962 L 1.076389 0.177865 L 1.068576 0.181818 L 1.060764 0.177865 L 1.060764 0.169962 L 1.052951 0.166008 L 1.045139 0.169962 L 1.045139 0.177865 L 1.037326 0.181818 L 1.029514 0.177865 L 1.021701 0.181818 L 1.021701 0.189724 L 1.029514 0.193678 L 1.037326 0.189724 L 1.045139 0.193678 L 1.045139 0.201581 L 1.052951 0.205534 L 1.060764 0.201581 L 1.060764 0.193678 L 1.068576 0.189724 L 1.076389 0.193678 L 1.076389 0.201581 L 1.068576 0.205534 L 1.068576 0.21344 L 1.076389 0.21739 L 1.084201 0.21344 L 1.092014 0.21739 L 1.092014 0.225297 L 1.099826 0.22925 L 1.107639 0.225297 L 1.107639 0.21739 L 1.099826 0.21344 L 1.099826 0.205534 L 1.107639 0.201581 L 1.115451 0.205534 L 1.123264 0.201581 L 1.123264 0.193678 L 1.131076 0.189724 L 1.138889 0.193678 L 1.138889 0.201581 L 1.131076 0.205534 L 1.131076 0.21344 L 1.138889 0.21739 L 1.138889 0.225297 L 1.131076 0.22925 L 1.123264 0.225297 L 1.115451 0.22925 L 1.115451 0.237153 L 1.123264 0.241106 L 1.131076 0.237153 L 1.138889 0.241106 L 1.138889 0.249013 L 1.131076 0.252966 L 1.131076 0.260869 L 1.138889 0.264822 L 1.138889 0.272729 L 1.131076 0.276678 L 1.123264 0.272729 L 1.123264 0.264822 L 1.115451 0.260869 L 1.107639 0.264822 L 1.107639 0.272729 L 1.099826 0.276678 L 1.092014 0.272729 L 1.084201 0.276678 L 1.084201 0.284585 L 1.092014 0.288538 L 1.099826 0.284585 L 1.107639 0.288538 L 1.107639 0.296441 L 1.115451 0.300394 L 1.123264 0.296441 L 1.123264 0.288538 L 1.131076 0.284585 L 1.138889 0.288538 L 1.138889 0.296441 L 1.131076 0.300394 L 1.131076 0.308301 L 1.138889 0.312254 L 1.138889 0.320157 L 1.131076 0.32411 L 1.123264 0.320157 L 1.115451 0.32411 L 1.115451 0.332017 L 1.123264 0.33597 L 1.131076 0.332017 L 1.138889 0.33597 L 1.138889 0.343873 L 1.131076 0.347826 L 1.131076 0.355733 L 1.138889 0.359682 L 1.138889 0.367589 L 1.131076 0.371542 L 1.123264 0.367589 L 1.123264 0.359682 L 1.115451 0.355733 L 1.107639 0.359682 L 1.099826 0.355733 L 1.099826 0.347826 L 1.107639 0.343873 L 1.107639 0.33597 L 1.099826 0.332017 L 1.092014 0.33597 L 1.092014 0.343873 L 1.084201 0.347826 L 1.076389 0.343873 L 1.076389 0.33597 L 1.068576 0.332017 L 1.060764 0.33597 L 1.052951 0.332017 L 1.052951 0.32411 L 1.060764 0.320157 L 1.068576 0.32411 L 1.076389 0.320157 L 1.076389 0.312254 L 1.068576 0.308301 L 1.068576 0.300394 L 1.076389 0.296441 L 1.076389 0.288538 L 1.068576 0.284585 L 1.060764 0.288538 L 1.060764 0.296441 L 1.052951 0.300394 L 1.045139 0.296441 L 1.037326 0.300394 L 1.037326 0.308301 L 1.045139 0.312254 L 1.045139 0.320157 L 1.037326 0.32411 L 1.029514 0.320157 L 1.029514 0.312254 L 1.021701 0.308301 L 1.013889 0.312254 L 1.006076 0.308301 L 1.006076 0.300394 L 1.013889 0.296441 L 1.013889 0.288538 L 1.006076 0.284585 L 0.998264 0.288538 L 0.998264 0.296441 L 0.990451 0.300394 L 0.982639 0.296441 L 0.982639 0.288538 L 0.974826 0.284585 L 0.967014 0.288538 L 0.959201 0.284585 L 0.959201 0.276678 L 0.967014 0.272729 L 0.974826 0.276678 L 0.982639 0.272729 L 0.982639 0.264822 L 0.990451 0.260869 L 0.998264 0.264822 L 0.998264 0.272729 L 1.006076 0.276678 L 1.013889 0.272729 L 1.013889 0.264822 L 1.006076 0.260869 L 1.006076 0.252966 L 1.013889 0.249013 L 1.013889 0.241106 L 1.006076 0.237153 L 0.998264 0.241106 L 0.990451 0.237153 L 0.990451 0.22925 L 0.998264 0.225297 L 1.006076 0.22925 L 1.013889 0.225297 L 1.013889 0.21739 L 1.006076 0.21344 L 1.006076 0.205534 L 1.013889 0.201581 L 1.013889 0.193678 L 1.006076 0.189724 L 0.998264 0.193678 L 0.998264 0.201581 L 0.990451 0.205534 L 0.982639 0.201581 L 0.974826 0.205534 L 0.974826 0.21344 L 0.982639 0.21739 L 0.982639 0.225297 L 0.974826 0.22925 L 0.967014 0.225297 L 0.967014 0.21739 L 0.959201 0.21344 L 0.951389 0.21739 L 0.951389 0.225297 L 0.943576 0.22925 L 0.935764 0.225297 L 0.927951 0.22925 L 0.927951 0.237153 L 0.935764 0.241106 L 0.943576 0.237153 L 0.951389 0.241106 L 0.951389 0.249013 L 0.943576 0.252966 L 0.943576 0.260869 L 0.951389 0.264822 L 0.951389 0.272729 L 0.943576 0.276678 L 0.935764 0.272729 L 0.935764 0.264822 L 0.927951 0.260869 L 0.920139 0.264822 L 0.912326 0.260869 L 0.912326 0.252966 L 0.920139 0.249013 L 0.920139 0.241106 L 0.912326 0.237153 L 0.904514 0.241106 L 0.904514 0.249013 L 0.896701 0.252966 L 0.888889 0.249013 L 0.881076 0.252966 L 0.881076 0.260869 L 0.888889 0.264822 L 0.888889 0.272729 L 0.881076 0.276678 L 0.873264 0.272729 L 0.873264 0.264822 L 0.865451 0.260869 L 0.857639 0.264822 L 0.857639 0.272729 L 0.849826 0.276678 L 0.842014 0.272729 L 0.834201 0.276678 L 0.834201 0.284585 L 0.842014 0.288538 L 0.849826 0.284585 L 0.857639 0.288538 L 0.857639 0.296441 L 0.865451 0.300394 L 0.873264 0.296441 L 0.873264 0.288538 L 0.881076 0.284585 L 0.888889 0.288538 L 0.888889 0.296441 L 0.881076 0.300394 L 0.881076 0.308301 L 0.888889 0.312254 L 0.888889 0.320157 L 0.881076 0.32411 L 0.873264 0.320157 L 0.865451 0.32411 L 0.865451 0.332017 L 0.873264 0.33597 L 0.881076 0.332017 L 0.888889 0.33597 L 0.888889 0.343873 L 0.881076 0.347826 L 0.881076 0.355733 L 0.888889 0.359682 L 0.888889 0.367589 L 0.881076 0.371542 L 0.873264 0.367589 L 0.873264 0.359682 L 0.865451 0.355733 L 0.857639 0.359682 L 0.849826 0.355733 L 0.849826 0.347826 L 0.857639 0.343873 L 0.857639 0.33597 L 0.849826 0.332017 L 0.842014 0.33597 L 0.842014 0.343873 L 0.834201 0.347826 L 0.826389 0.343873 L 0.826389 0.33597 L 0.818576 0.332017 L 0.810764 0.33597 L 0.802951 0.332017 L 0.802951 0.32411 L 0.810764 0.320157 L 0.818576 0.32411 L 0.826389 0.320157 L 0.826389 0.312254 L 0.818576 0.308301 L 0.818576 0.300394 L 0.826389 0.296441 L 0.826389 0.288538 L 0.818576 0.284585 L 0.810764 0.288538 L 0.810764 0.296441 L 0.802951 0.300394 L 0.795139 0.296441 L 0.787326 0.300394 L 0.787326 0.308301 L 0.795139 0.312254 L 0.795139 0.320157 L 0.787326 0.32411 L 0.779514 0.320157 L 0.779514 0.312254 L 0.771701 0.308301 L 0.763889 0.312254 L 0.763889 0.320157 L 0.756076 0.32411 L 0.748264 0.320157 L 0.740451 0.32411 L 0.740451 0.332017 L 0.748264 0.33597 L 0.756076 0.332017 L 0.763889 0.33597 L 0.763889 0.343873 L 0.756076 0.347826 L 0.756076 0.355733 L 0.763889 0.359682 L 0.763889 0.367589 L 0.756076 0.371542 L 0.748264 0.367589 L 0.748264 0.359682 L 0.740451 0.355733 L 0.732639 0.359682 L 0.724826 0.355733 L 0.724826 0.347826 L 0.732639 0.343873 L 0.732639 0.33597 L 0.724826 0.332017 L 0.717014 0.33597 L 0.717014 0.343873 L 0.709201 0.347826 L 0.701389 0.343873 L 0.693576 0.347826 L 0.693576 0.355733 L 0.701389 0.359682 L 0.701389 0.367589 L 0.693576 0.371542 L 0.685764 0.367589 L 0.685764 0.359682 L 0.677951 0.355733 L 0.670139 0.359682 L 0.670139 0.367589 L 0.662326 0.371542 L 0.654514 0.367589 L 0.646701 0.371542 L 0.646701 0.379445 L 0.654514 0.383398 L 0.662326 0.379445 L 0.670139 0.383398 L 0.670139 0.391305 L 0.677951 0.395258 L 0.685764 0.391305 L 0.685764 0.383398 L 0.693576 0.379445 L 0.701389 0.383398 L 0.701389 0.391305 L 0.693576 0.395258 L 0.693576 0.403161 L 0.701389 0.407114 L 0.709201 0.403161 L 0.717014 0.407114 L 0.717014 0.415021 L 0.724826 0.418971 L 0.732639 0.415021 L 0.732639 0.407114 L 0.724826 0.403161 L 0.724826 0.395258 L 0.732639 0.391305 L 0.740451 0.395258 L 0.748264 0.391305 L 0.748264 0.383398 L 0.756076 0.379445 L 0.763889 0.383398 L 0.763889 0.391305 L 0.756076 0.395258 L 0.756076 0.403161 L 0.763889 0.407114 L 0.763889 0.415021 L 0.756076 0.418971 L 0.748264 0.415021 L 0.740451 0.418971 L 0.740451 0.426877 L 0.748264 0.43083 L 0.756076 0.426877 L 0.763889 0.43083 L 0.763889 0.438737 L 0.771701 0.442687 L 0.779514 0.438737 L 0.779514 0.43083 L 0.787326 0.426877 L 0.795139 0.43083 L 0.795139 0.438737 L 0.787326 0.442687 L 0.787326 0.450593 L 0.795139 0.454546 L 0.802951 0.450593 L 0.810764 0.454546 L 0.810764 0.462449 L 0.818576 0.466403 L 0.826389 0.462449 L 0.826389 0.454546 L 0.818576 0.450593 L 0.818576 0.442687 L 0.826389 0.438737 L 0.826389 0.43083 L 0.818576 0.426877 L 0.810764 0.43083 L 0.802951 0.426877 L 0.802951 0.418971 L 0.810764 0.415021 L 0.818576 0.418971 L 0.826389 0.415021 L 0.826389 0.407114 L 0.834201 0.403161 L 0.842014 0.407114 L 0.842014 0.415021 L 0.849826 0.418971 L 0.857639 0.415021 L 0.857639 0.407114 L 0.849826 0.403161 L 0.849826 0.395258 L 0.857639 0.391305 L 0.865451 0.395258 L 0.873264 0.391305 L 0.873264 0.383398 L 0.881076 0.379445 L 0.888889 0.383398 L 0.888889 0.391305 L 0.881076 0.395258 L 0.881076 0.403161 L 0.888889 0.407114 L 0.888889 0.415021 L 0.881076 0.418971 L 0.873264 0.415021 L 0.865451 0.418971 L 0.865451 0.426877 L 0.873264 0.43083 L 0.881076 0.426877 L 0.888889 0.43083 L 0.888889 0.438737 L 0.881076 0.442687 L 0.881076 0.450593 L 0.888889 0.454546 L 0.888889 0.462449 L 0.881076 0.466403 L 0.873264 0.462449 L 0.873264 0.454546 L 0.865451 0.450593 L 0.857639 0.454546 L 0.857639 0.462449 L 0.849826 0.466403 L 0.842014 0.462449 L 0.834201 0.466403 L 0.834201 0.474309 L 0.842014 0.478262 L 0.849826 0.474309 L 0.857639 0.478262 L 0.857639 0.486165 L 0.865451 0.490119 L 0.873264 0.486165 L 0.873264 0.478262 L 0.881076 0.474309 L 0.888889 0.478262 L 0.888889 0.486165 L 0.881076 0.490119 L 0.881076 0.498025 L 0.888889 0.501975 L 0.888889 0.509881 L 0.881076 0.513835 L 0.873264 0.509881 L 0.865451 0.513835 L 0.865451 0.521738 L 0.873264 0.525691 L 0.881076 0.521738 L 0.888889 0.525691 L 0.888889 0.533597 L 0.881076 0.537551 L 0.881076 0.545454 L 0.888889 0.549407 L 0.888889 0.557313 L 0.881076 0.561263 L 0.873264 0.557313 L 0.873264 0.549407 L 0.865451 0.545454 L 0.857639 0.549407 L 0.849826 0.545454 L 0.849826 0.537551 L 0.857639 0.533597 L 0.857639 0.525691 L 0.849826 0.521738 L 0.842014 0.525691 L 0.842014 0.533597 L 0.834201 0.537551 L 0.826389 0.533597 L 0.818576 0.537551 L 0.818576 0.545454 L 0.826389 0.549407 L 0.826389 0.557313 L 0.818576 0.561263 L 0.810764 0.557313 L 0.810764 0.549407 L 0.802951 0.545454 L 0.795139 0.549407 L 0.795139 0.557313 L 0.787326 0.561263 L 0.779514 0.557313 L 0.771701 0.561263 L 0.771701 0.56917 L 0.779514 0.573123 L 0.787326 0.56917 L 0.795139 0.573123 L 0.795139 0.581029 L 0.802951 0.584979 L 0.810764 0.581029 L 0.810764 0.573123 L 0.818576 0.56917 L 0.826389 0.573123 L 0.826389 0.581029 L 0.818576 0.584979 L 0.818576 0.592886 L 0.826389 0.596839 L 0.834201 0.592886 L 0.842014 0.596839 L 0.842014 0.604742 L 0.849826 0.608695 L 0.857639 0.604742 L 0.857639 0.596839 L 0.849826 0.592886 L 0.849826 0.584979 L 0.857639 0.581029 L 0.865451 0.584979 L 0.873264 0.581029 L 0.873264 0.573123 L 0.881076 0.56917 L 0.888889 0.573123 L 0.888889 0.581029 L 0.881076 0.584979 L 0.881076 0.592886 L 0.888889 0.596839 L 0.888889 0.604742 L 0.881076 0.608695 L 0.873264 0.604742 L 0.865451 0.608695 L 0.865451 0.616602 L 0.873264 0.620555 L 0.881076 0.616602 L 0.888889 0.620555 L 0.888889 0.628458 L 0.881076 0.632411 L 0.881076 0.640318 L 0.888889 0.644267 L 0.888889 0.652174 L 0.881076 0.656127 L 0.873264 0.652174 L 0.873264 0.644267 L 0.865451 0.640318 L 0.857639 0.644267 L 0.857639 0.652174 L 0.849826 0.656127 L 0.842014 0.652174 L 0.834201 0.656127 L 0.834201 0.66403 L 0.842014 0.667983 L 0.849826 0.66403 L 0.857639 0.667983 L 0.857639 0.67589 L 0.865451 0.679843 L 0.873264 0.67589 L 0.873264 0.667983 L 0.881076 0.66403 L 0.888889 0.667983 L 0.888889 0.67589 L 0.881076 0.679843 L 0.881076 0.687746 L 0.888889 0.691699 L 0.888889 0.699606 L 0.881076 0.703559 L 0.873264 0.699606 L 0.865451 0.703559 L 0.865451 0.711462 L 0.873264 0.715415 L 0.881076 0.711462 L 0.888889 0.715415 L 0.888889 0.723322 L 0.881076 0.727271 L 0.881076 0.735178 L 0.888889 0.739131 L 0.888889 0.747034 L 0.881076 0.750987 L 0.873264 0.747034 L 0.873264 0.739131 L 0.865451 0.735178 L 0.857639 0.739131 L 0.849826 0.735178 L 0.849826 0.727271 L 0.857639 0.723322 L 0.857639 0.715415 L 0.849826 0.711462 L 0.842014 0.715415 L 0.842014 0.723322 L 0.834201 0.727271 L 0.826389 0.723322 L 0.826389 0.715415 L 0.818576 0.711462 L 0.810764 0.715415 L 0.802951 0.711462 L 0.802951 0.703559 L 0.810764 0.699606 L 0.818576 0.703559 L 0.826389 0.699606 L 0.826389 0.691699 L 0.818576 0.687746 L 0.818576 0.679843 L 0.826389 0.67589 L 0.826389 0.667983 L 0.818576 0.66403 L 0.810764 0.667983 L 0.810764 0.67589 L 0.802951 0.679843 L 0.795139 0.67589 L 0.787326 0.679843 L 0.787326 0.687746 L 0.795139 0.691699 L 0.795139 0.699606 L 0.787326 0.703559 L 0.779514 0.699606 L 0.779514 0.691699 L 0.771701 0.687746 L 0.763889 0.691699 L 0.756076 0.687746 L 0.756076 0.679843 L 0.763889 0.67589 L 0.763889 0.667983 L 0.756076 0.66403 L 0.748264 0.667983 L 0.748264 0.67589 L 0.740451 0.679843 L 0.732639 0.67589 L 0.732639 0.667983 L 0.724826 0.66403 L 0.717014 0.667983 L 0.709201 0.66403 L 0.709201 0.656127 L 0.717014 0.652174 L 0.724826 0.656127 L 0.732639 0.652174 L 0.732639 0.644267 L 0.740451 0.640318 L 0.748264 0.644267 L 0.748264 0.652174 L 0.756076 0.656127 L 0.763889 0.652174 L 0.763889 0.644267 L 0.756076 0.640318 L 0.756076 0.632411 L 0.763889 0.628458 L 0.763889 0.620555 L 0.756076 0.616602 L 0.748264 0.620555 L 0.740451 0.616602 L 0.740451 0.608695 L 0.748264 0.604742 L 0.756076 0.608695 L 0.763889 0.604742 L 0.763889 0.596839 L 0.756076 0.592886 L 0.756076 0.584979 L 0.763889 0.581029 L 0.763889 0.573123 L 0.756076 0.56917 L 0.748264 0.573123 L 0.748264 0.581029 L 0.740451 0.584979 L 0.732639 0.581029 L 0.724826 0.584979 L 0.724826 0.592886 L 0.732639 0.596839 L 0.732639 0.604742 L 0.724826 0.608695 L 0.717014 0.604742 L 0.717014 0.596839 L 0.709201 0.592886 L 0.701389 0.596839 L 0.701389 0.604742 L 0.693576 0.608695 L 0.685764 0.604742 L 0.677951 0.608695 L 0.677951 0.616602 L 0.685764 0.620555 L 0.693576 0.616602 L 0.701389 0.620555 L 0.701389 0.628458 L 0.693576 0.632411 L 0.693576 0.640318 L 0.701389 0.644267 L 0.701389 0.652174 L 0.693576 0.656127 L 0.685764 0.652174 L 0.685764 0.644267 L 0.677951 0.640318 L 0.670139 0.644267 L 0.662326 0.640318 L 0.662326 0.632411 L 0.670139 0.628458 L 0.670139 0.620555 L 0.662326 0.616602 L 0.654514 0.620555 L 0.654514 0.628458 L 0.646701 0.632411 L 0.638889 0.628458 L 0.638889 0.620555 L 0.631076 0.616602 L 0.623264 0.620555 L 0.615451 0.616602 L 0.615451 0.608695 L 0.623264 0.604742 L 0.631076 0.608695 L 0.638889 0.604742 L 0.638889 0.596839 L 0.631076 0.592886 L 0.631076 0.584979 L 0.638889 0.581029 L 0.638889 0.573123 L 0.631076 0.56917 L 0.623264 0.573123 L 0.623264 0.581029 L 0.615451 0.584979 L 0.607639 0.581029 L 0.599826 0.584979 L 0.599826 0.592886 L 0.607639 0.596839 L 0.607639 0.604742 L 0.599826 0.608695 L 0.592014 0.604742 L 0.592014 0.596839 L 0.584201 0.592886 L 0.576389 0.596839 L 0.568576 0.592886 L 0.568576 0.584979 L 0.576389 0.581029 L 0.576389 0.573123 L 0.568576 0.56917 L 0.560764 0.573123 L 0.560764 0.581029 L 0.552951 0.584979 L 0.545139 0.581029 L 0.545139 0.573123 L 0.537326 0.56917 L 0.529514 0.573123 L 0.521701 0.56917 L 0.521701 0.561263 L 0.529514 0.557313 L 0.537326 0.561263 L 0.545139 0.557313 L 0.545139 0.549407 L 0.552951 0.545454 L 0.560764 0.549407 L 0.560764 0.557313 L 0.568576 0.561263 L 0.576389 0.557313 L 0.576389 0.549407 L 0.568576 0.545454 L 0.568576 0.537551 L 0.576389 0.533597 L 0.584201 0.537551 L 0.592014 0.533597 L 0.592014 0.525691 L 0.599826 0.521738 L 0.607639 0.525691 L 0.607639 0.533597 L 0.599826 0.537551 L 0.599826 0.545454 L 0.607639 0.549407 L 0.615451 0.545454 L 0.623264 0.549407 L 0.623264 0.557313 L 0.631076 0.561263 L 0.638889 0.557313 L 0.638889 0.549407 L 0.631076 0.545454 L 0.631076 0.537551 L 0.638889 0.533597 L 0.638889 0.525691 L 0.631076 0.521738 L 0.623264 0.525691 L 0.615451 0.521738 L 0.615451 0.513835 L 0.623264 0.509881 L 0.631076 0.513835 L 0.638889 0.509881 L 0.638889 0.501975 L 0.631076 0.498025 L 0.631076 0.490119 L 0.638889 0.486165 L 0.638889 0.478262 L 0.631076 0.474309 L 0.623264 0.478262 L 0.623264 0.486165 L 0.615451 0.490119 L 0.607639 0.486165 L 0.607639 0.478262 L 0.599826 0.474309 L 0.592014 0.478262 L 0.584201 0.474309 L 0.584201 0.466403 L 0.592014 0.462449 L 0.599826 0.466403 L 0.607639 0.462449 L 0.607639 0.454546 L 0.615451 0.450593 L 0.623264 0.454546 L 0.623264 0.462449 L 0.631076 0.466403 L 0.638889 0.462449 L 0.638889 0.454546 L 0.631076 0.450593 L 0.631076 0.442687 L 0.638889 0.438737 L 0.638889 0.43083 L 0.631076 0.426877 L 0.623264 0.43083 L 0.615451 0.426877 L 0.615451 0.418971 L 0.623264 0.415021 L 0.631076 0.418971 L 0.638889 0.415021 L 0.638889 0.407114 L 0.631076 0.403161 L 0.631076 0.395258 L 0.638889 0.391305 L 0.638889 0.383398 L 0.631076 0.379445 L 0.623264 0.383398 L 0.623264 0.391305 L 0.615451 0.395258 L 0.607639 0.391305 L 0.599826 0.395258 L 0.599826 0.403161 L 0.607639 0.407114 L 0.607639 0.415021 L 0.599826 0.418971 L 0.592014 0.415021 L 0.592014 0.407114 L 0.584201 0.403161 L 0.576389 0.407114 L 0.576389 0.415021 L 0.568576 0.418971 L 0.560764 0.415021 L 0.552951 0.418971 L 0.552951 0.426877 L 0.560764 0.43083 L 0.568576 0.426877 L 0.576389 0.43083 L 0.576389 0.438737 L 0.568576 0.442687 L 0.568576 0.450593 L 0.576389 0.454546 L 0.576389 0.462449 L 0.568576 0.466403 L 0.560764 0.462449 L 0.560764 0.454546 L 0.552951 0.450593 L 0.545139 0.454546 L 0.537326 0.450593 L 0.537326 0.442687 L 0.545139 0.438737 L 0.545139 0.43083 L 0.537326 0.426877 L 0.529514 0.43083 L 0.529514 0.438737 L 0.521701 0.442687 L 0.513889 0.438737 L 0.506076 0.442687 L 0.506076 0.450593 L 0.513889 0.454546 L 0.513889 0.462449 L 0.506076 0.466403 L 0.498264 0.462449 L 0.498264 0.454546 L 0.490451 0.450593 L 0.482639 0.454546 L 0.482639 0.462449 L 0.474826 0.466403 L 0.467014 0.462449 L 0.459201 0.466403 L 0.459201 0.474309 L 0.467014 0.478262 L 0.474826 0.474309 L 0.482639 0.478262 L 0.482639 0.486165 L 0.490451 0.490119 L 0.498264 0.486165 L 0.498264 0.478262 L 0.506076 0.474309 L 0.513889 0.478262 L 0.513889 0.486165 L 0.506076 0.490119 L 0.506076 0.498025 L 0.513889 0.501975 L 0.513889 0.509881 L 0.506076 0.513835 L 0.498264 0.509881 L 0.490451 0.513835 L 0.490451 0.521738 L 0.498264 0.525691 L 0.506076 0.521738 L 0.513889 0.525691 L 0.513889 0.533597 L 0.506076 0.537551 L 0.506076 0.545454 L 0.513889 0.549407 L 0.513889 0.557313 L 0.506076 0.561263 L 0.498264 0.557313 L 0.498264 0.549407 L 0.490451 0.545454 L 0.482639 0.549407 L 0.474826 0.545454 L 0.474826 0.537551 L 0.482639 0.533597 L 0.482639 0.525691 L 0.474826 0.521738 L 0.467014 0.525691 L 0.467014 0.533597 L 0.459201 0.537551 L 0.451389 0.533597 L 0.451389 0.525691 L 0.443576 0.521738 L 0.435764 0.525691 L 0.427951 0.521738 L 0.427951 0.513835 L 0.435764 0.509881 L 0.443576 0.513835 L 0.451389 0.509881 L 0.451389 0.501975 L 0.443576 0.498025 L 0.443576 0.490119 L 0.451389 0.486165 L 0.451389 0.478262 L 0.443576 0.474309 L 0.435764 0.478262 L 0.435764 0.486165 L 0.427951 0.490119 L 0.420139 0.486165 L 0.412326 0.490119 L 0.412326 0.498025 L 0.420139 0.501975 L 0.420139 0.509881 L 0.412326 0.513835 L 0.404514 0.509881 L 0.404514 0.501975 L 0.396701 0.498025 L 0.388889 0.501975 " transform="matrix(1080,0,0,1080,0,0)"/>
</g>
</svg>
