<?xml version="1.0" encoding="UTF-8"?>
<svg xmlns="http://www.w3.org/2000/svg" xmlns:xlink="http://www.w3.org/1999/xlink" width="1920pt" height="1080pt" viewBox="0 0 1920 1080" version="1.1">
<g id="surface56">
<rect x="0" y="0" width="1920" height="1080" style="fill:rgb(0%,0%,0%);fill-opacity:1;stroke:none;"/>
<path style="fill:none;stroke-width:0.00185185;stroke-linecap:butt;stroke-linejoin:miter;stroke:rgb(100%,100%,100%);stroke-opacity:1;stroke-miterlimit:10;" d="M 0.388889 0.987656 L 0.388889 0.975307 L 0.401233 0.975307 L 0.388889 0.975307 L 0.388889 0.93827 L 0.401233 0.93827 L 0.388889 0.93827 L 0.388889 0.925926 L 0.413581 0.925926 L 0.413581 0.93827 L 0.413581 0.925926 L 0.425926 0.925926 L 0.401233 0.925926 L 0.401233 0.913581 L 0.401233 0.925926 L 0.388889 0.925926 L 0.388889 0.901233 L 0.401233 0.901233 L 0.388889 0.901233 L 0.388889 0.864196 L 0.401233 0.864196 L 0.388889 0.864196 L 0.388889 0.827159 L 0.401233 0.827159 L 0.388889 0.827159 L 0.388889 0.814815 L 0.413581 0.814815 L 0.413581 0.827159 L 0.413581 0.814815 L 0.425926 0.814815 L 0.401233 0.814815 L 0.401233 0.80247 L 0.401233 0.814815 L 0.388889 0.814815 L 0.388889 0.790122 L 0.401233 0.790122 L 0.388889 0.790122 L 0.388889 0.777778 L 0.413581 0.777778 L 0.413581 0.790122 L 0.413581 0.777778 L 0.450618 0.777778 L 0.450618 0.790122 L 0.450618 0.777778 L 0.462963 0.777778 L 0.462963 0.80247 L 0.450618 0.80247 L 0.462963 0.80247 L 0.462963 0.814815 L 0.462963 0.790122 L 0.475307 0.790122 L 0.462963 0.790122 L 0.462963 0.777778 L 0.487656 0.777778 L 0.487656 0.790122 L 0.487656 0.777778 L 0.5 0.777778 L 0.475307 0.777778 L 0.475307 0.765433 L 0.475307 0.777778 L 0.43827 0.777778 L 0.43827 0.765433 L 0.43827 0.777778 L 0.425926 0.777778 L 0.425926 0.753085 L 0.43827 0.753085 L 0.425926 0.753085 L 0.425926 0.740741 L 0.425926 0.765433 L 0.413581 0.765433 L 0.425926 0.765433 L 0.425926 0.777778 L 0.401233 0.777778 L 0.401233 0.765433 L 0.401233 0.777778 L 0.388889 0.777778 L 0.388889 0.753085 L 0.401233 0.753085 L 0.388889 0.753085 L 0.388889 0.716048 L 0.401233 0.716048 L 0.388889 0.716048 L 0.388889 0.703704 L 0.413581 0.703704 L 0.413581 0.716048 L 0.413581 0.703704 L 0.425926 0.703704 L 0.401233 0.703704 L 0.401233 0.691359 L 0.401233 0.703704 L 0.388889 0.703704 L 0.388889 0.679011 L 0.401233 0.679011 L 0.388889 0.679011 L 0.388889 0.641974 L 0.401233 0.641974 L 0.388889 0.641974 L 0.388889 0.604937 L 0.401233 0.604937 L 0.388889 0.604937 L 0.388889 0.592593 L 0.413581 0.592593 L 0.413581 0.604937 L 0.413581 0.592593 L 0.425926 0.592593 L 0.401233 0.592593 L 0.401233 0.580248 L 0.401233 0.592593 L 0.388889 0.592593 L 0.388889 0.5679 L 0.401233 0.5679 L 0.388889 0.5679 L 0.388889 0.530863 L 0.401233 0.530863 L 0.388889 0.530863 L 0.388889 0.493826 L 0.401233 0.493826 L 0.388889 0.493826 L 0.388889 0.481481 L 0.413581 0.481481 L 0.413581 0.493826 L 0.413581 0.481481 L 0.425926 0.481481 L 0.401233 0.481481 L 0.401233 0.469137 L 0.401233 0.481481 L 0.388889 0.481481 L 0.388889 0.456789 L 0.401233 0.456789 L 0.388889 0.456789 L 0.388889 0.444444 L 0.413581 0.444444 L 0.413581 0.456789 L 0.413581 0.444444 L 0.450618 0.444444 L 0.450618 0.456789 L 0.450618 0.444444 L 0.462963 0.444444 L 0.462963 0.469137 L 0.450618 0.469137 L 0.462963 0.469137 L 0.462963 0.481481 L 0.462963 0.456789 L 0.475307 0.456789 L 0.462963 0.456789 L 0.462963 0.444444 L 0.487656 0.444444 L 0.487656 0.456789 L 0.487656 0.444444 L 0.5 0.444444 L 0.475307 0.444444 L 0.475307 0.4321 L 0.475307 0.444444 L 0.43827 0.444444 L 0.43827 0.4321 L 0.43827 0.444444 L 0.425926 0.444444 L 0.425926 0.419752 L 0.43827 0.419752 L 0.425926 0.419752 L 0.425926 0.407407 L 0.425926 0.4321 L 0.413581 0.4321 L 0.425926 0.4321 L 0.425926 0.444444 L 0.401233 0.444444 L 0.401233 0.4321 L 0.401233 0.444444 L 0.388889 0.444444 L 0.388889 0.419752 L 0.401233 0.419752 L 0.388889 0.419752 L 0.388889 0.382715 L 0.401233 0.382715 L 0.388889 0.382715 L 0.388889 0.37037 L 0.413581 0.37037 L 0.413581 0.382715 L 0.413581 0.37037 L 0.425926 0.37037 L 0.401233 0.37037 L 0.401233 0.358026 L 0.401233 0.37037 L 0.388889 0.37037 L 0.388889 0.345678 L 0.401233 0.345678 L 0.388889 0.345678 L 0.388889 0.333333 L 0.413581 0.333333 L 0.413581 0.345678 L 0.413581 0.333333 L 0.450618 0.333333 L 0.450618 0.345678 L 0.450618 0.333333 L 0.462963 0.333333 L 0.462963 0.358026 L 0.450618 0.358026 L 0.462963 0.358026 L 0.462963 0.37037 L 0.462963 0.345678 L 0.475307 0.345678 L 0.462963 0.345678 L 0.462963 0.333333 L 0.487656 0.333333 L 0.487656 0.345678 L 0.487656 0.333333 L 0.524693 0.333333 L 0.524693 0.345678 L 0.524693 0.333333 L 0.56173 0.333333 L 0.56173 0.345678 L 0.56173 0.333333 L 0.574074 0.333333 L 0.574074 0.358026 L 0.56173 0.358026 L 0.574074 0.358026 L 0.574074 0.37037 L 0.574074 0.345678 L 0.586419 0.345678 L 0.574074 0.345678 L 0.574074 0.333333 L 0.598767 0.333333 L 0.598767 0.345678 L 0.598767 0.333333 L 0.611111 0.333333 L 0.611111 0.358026 L 0.598767 0.358026 L 0.611111 0.358026 L 0.611111 0.395063 L 0.598767 0.395063 L 0.611111 0.395063 L 0.611111 0.407407 L 0.586419 0.407407 L 0.586419 0.395063 L 0.586419 0.407407 L 0.574074 0.407407 L 0.598767 0.407407 L 0.598767 0.419752 L 0.598767 0.407407 L 0.611111 0.407407 L 0.611111 0.4321 L 0.598767 0.4321 L 0.611111 0.4321 L 0.611111 0.444444 L 0.611111 0.419752 L 0.623456 0.419752 L 0.611111 0.419752 L 0.611111 0.382715 L 0.623456 0.382715 L 0.611111 0.382715 L 0.611111 0.37037 L 0.635804 0.37037 L 0.635804 0.382715 L 0.635804 0.37037 L 0.648148 0.37037 L 0.623456 0.37037 L 0.623456 0.358026 L 0.623456 0.37037 L 0.611111 0.37037 L 0.611111 0.345678 L 0.623456 0.345678 L 0.611111 0.345678 L 0.611111 0.333333 L 0.635804 0.333333 L 0.635804 0.345678 L 0.635804 0.333333 L 0.672841 0.333333 L 0.672841 0.345678 L 0.672841 0.333333 L 0.685185 0.333333 L 0.685185 0.358026 L 0.672841 0.358026 L 0.685185 0.358026 L 0.685185 0.37037 L 0.685185 0.345678 L 0.69753 0.345678 L 0.685185 0.345678 L 0.685185 0.333333 L 0.709878 0.333333 L 0.709878 0.345678 L 0.709878 0.333333 L 0.722222 0.333333 L 0.69753 0.333333 L 0.69753 0.320989 L 0.69753 0.333333 L 0.660493 0.333333 L 0.660493 0.320989 L 0.660493 0.333333 L 0.648148 0.333333 L 0.648148 0.308641 L 0.660493 0.308641 L 0.648148 0.308641 L 0.648148 0.296296 L 0.648148 0.320989 L 0.635804 0.320989 L 0.648148 0.320989 L 0.648148 0.333333 L 0.623456 0.333333 L 0.623456 0.320989 L 0.623456 0.333333 L 0.586419 0.333333 L 0.586419 0.320989 L 0.586419 0.333333 L 0.549382 0.333333 L 0.549382 0.320989 L 0.549382 0.333333 L 0.537037 0.333333 L 0.537037 0.308641 L 0.549382 0.308641 L 0.537037 0.308641 L 0.537037 0.296296 L 0.537037 0.320989 L 0.524693 0.320989 L 0.537037 0.320989 L 0.537037 0.333333 L 0.512344 0.333333 L 0.512344 0.320989 L 0.512344 0.333333 L 0.5 0.333333 L 0.5 0.308641 L 0.512344 0.308641 L 0.5 0.308641 L 0.5 0.271604 L 0.512344 0.271604 L 0.5 0.271604 L 0.5 0.259259 L 0.524693 0.259259 L 0.524693 0.271604 L 0.524693 0.259259 L 0.537037 0.259259 L 0.512344 0.259259 L 0.512344 0.246915 L 0.512344 0.259259 L 0.5 0.259259 L 0.5 0.234567 L 0.512344 0.234567 L 0.5 0.234567 L 0.5 0.222222 L 0.5 0.246915 L 0.487656 0.246915 L 0.5 0.246915 L 0.5 0.283952 L 0.487656 0.283952 L 0.5 0.283952 L 0.5 0.296296 L 0.475307 0.296296 L 0.475307 0.283952 L 0.475307 0.296296 L 0.462963 0.296296 L 0.487656 0.296296 L 0.487656 0.308641 L 0.487656 0.296296 L 0.5 0.296296 L 0.5 0.320989 L 0.487656 0.320989 L 0.5 0.320989 L 0.5 0.333333 L 0.475307 0.333333 L 0.475307 0.320989 L 0.475307 0.333333 L 0.43827 0.333333 L 0.43827 0.320989 L 0.43827 0.333333 L 0.425926 0.333333 L 0.425926 0.308641 L 0.43827 0.308641 L 0.425926 0.308641 L 0.425926 0.296296 L 0.425926 0.320989 L 0.413581 0.320989 L 0.425926 0.320989 L 0.425926 0.333333 L 0.401233 0.333333 L 0.401233 0.320989 L 0.401233 0.333333 L 0.388889 0.333333 L 0.388889 0.308641 L 0.401233 0.308641 L 0.388889 0.308641 L 0.388889 0.271604 L 0.401233 0.271604 L 0.388889 0.271604 L 0.388889 0.259259 L 0.413581 0.259259 L 0.413581 0.271604 L 0.413581 0.259259 L 0.425926 0.259259 L 0.401233 0.259259 L 0.401233 0.246915 L 0.401233 0.259259 L 0.388889 0.259259 L 0.388889 0.234567 L 0.401233 0.234567 L 0.388889 0.234567 L 0.388889 0.19753 L 0.401233 0.19753 L 0.388889 0.19753 L 0.388889 0.160493 L 0.401233 0.160493 L 0.388889 0.160493 L 0.388889 0.148148 L 0.413581 0.148148 L 0.413581 0.160493 L 0.413581 0.148148 L 0.425926 0.148148 L 0.401233 0.148148 L 0.401233 0.135804 L 0.401233 0.148148 L 0.388889 0.148148 L 0.388889 0.123456 L 0.401233 0.123456 L 0.388889 0.123456 L 0.388889 0.111111 L 0.413581 0.111111 L 0.413581 0.123456 L 0.413581 0.111111 L 0.450618 0.111111 L 0.450618 0.123456 L 0.450618 0.111111 L 0.462963 0.111111 L 0.462963 0.135804 L 0.450618 0.135804 L 0.462963 0.135804 L 0.462963 0.148148 L 0.462963 0.123456 L 0.475307 0.123456 L 0.462963 0.123456 L 0.462963 0.111111 L 0.487656 0.111111 L 0.487656 0.123456 L 0.487656 0.111111 L 0.5 0.111111 L 0.475307 0.111111 L 0.475307 0.0987666 L 0.475307 0.111111 L 0.43827 0.111111 L 0.43827 0.0987666 L 0.43827 0.111111 L 0.425926 0.111111 L 0.425926 0.0864185 L 0.43827 0.0864185 L 0.425926 0.0864185 L 0.425926 0.0740741 L 0.425926 0.0987666 L 0.413581 0.0987666 L 0.425926 0.0987666 L 0.425926 0.111111 L 0.401233 0.111111 L 0.401233 0.0987666 L 0.401233 0.111111 L 0.388889 0.111111 L 0.388889 0.0864185 L 0.401233 0.0864185 L 0.388889 0.0864185 L 0.388889 0.0493815 L 0.401233 0.0493815 L 0.388889 0.0493815 L 0.388889 0.037037 L 0.413581 0.037037 L 0.413581 0.0493815 L 0.413581 0.037037 L 0.425926 0.037037 L 0.401233 0.037037 L 0.401233 0.0246926 L 0.401233 0.037037 L 0.388889 0.037037 L 0.388889 0.0123445 L 0.401233 0.0123445 L 0.388889 0.0123445 L 0.388889 0 L 0.413581 0 L 0.413581 0.0123445 L 0.413581 0 L 0.450618 0 L 0.450618 0.0123445 L 0.450618 0 L 0.462963 0 L 0.462963 0.0246926 L 0.450618 0.0246926 L 0.462963 0.0246926 L 0.462963 0.037037 L 0.462963 0.0123445 L 0.475307 0.0123445 L 0.462963 0.0123445 L 0.462963 0 L 0.487656 0 L 0.487656 0.0123445 L 0.487656 0 L 0.524693 0 L 0.524693 0.0123445 L 0.524693 0 L 0.56173 0 L 0.56173 0.0123445 L 0.56173 0 L 0.574074 0 L 0.574074 0.0246926 L 0.56173 0.0246926 L 0.574074 0.0246926 L 0.574074 0.037037 L 0.574074 0.0123445 L 0.586419 0.0123445 L 0.574074 0.0123445 L 0.574074 0 L 0.598767 0 L 0.598767 0.0123445 L 0.598767 0 L 0.611111 0 L 0.611111 0.0246926 L 0.598767 0.0246926 L 0.611111 0.0246926 L 0.611111 0.0617296 L 0.598767 0.0617296 L 0.611111 0.0617296 L 0.611111 0.0740741 L 0.586419 0.0740741 L 0.586419 0.0617296 L 0.586419 0.0740741 L 0.574074 0.0740741 L 0.598767 0.0740741 L 0.598767 0.0864185 L 0.598767 0.0740741 L 0.611111 0.0740741 L 0.611111 0.0987666 L 0.598767 0.0987666 L 0.611111 0.0987666 L 0.611111 0.111111 L 0.611111 0.0864185 L 0.623456 0.0864185 L 0.611111 0.0864185 L 0.611111 0.0493815 L 0.623456 0.0493815 L 0.611111 0.0493815 L 0.611111 0.037037 L 0.635804 0.037037 L 0.635804 0.0493815 L 0.635804 0.037037 L 0.648148 0.037037 L 0.623456 0.037037 L 0.623456 0.0246926 L 0.623456 0.037037 L 0.611111 0.037037 L 0.611111 0.0123445 L 0.623456 0.0123445 L 0.611111 0.0123445 L 0.611111 0 L 0.635804 0 L 0.635804 0.0123445 L 0.635804 0 L 0.672841 0 L 0.672841 0.0123445 L 0.672841 0 L 0.685185 0 L 0.685185 0.0246926 L 0.672841 0.0246926 L 0.685185 0.0246926 L 0.685185 0.037037 L 0.685185 0.0123445 L 0.69753 0.0123445 L 0.685185 0.0123445 L 0.685185 0 L 0.709878 0 L 0.709878 0.0123445 L 0.709878 0 L 0.746915 0 L 0.746915 0.0123445 L 0.746915 0 L 0.783952 0 L 0.783952 0.0123445 L 0.783952 0 L 0.796296 0 L 0.796296 0.0246926 L 0.783952 0.0246926 L 0.796296 0.0246926 L 0.796296 0.037037 L 0.796296 0.0123445 L 0.808641 0.0123445 L 0.796296 0.0123445 L 0.796296 0 L 0.820989 0 L 0.820989 0.0123445 L 0.820989 0 L 0.858026 0 L 0.858026 0.0123445 L 0.858026 0 L 0.895063 0 L 0.895063 0.0123445 L 0.895063 0 L 0.907407 0 L 0.907407 0.0246926 L 0.895063 0.0246926 L 0.907407 0.0246926 L 0.907407 0.037037 L 0.907407 0.0123445 L 0.919752 0.0123445 L 0.907407 0.0123445 L 0.907407 0 L 0.9321 0 L 0.9321 0.0123445 L 0.9321 0 L 0.944444 0 L 0.944444 0.0246926 L 0.9321 0.0246926 L 0.944444 0.0246926 L 0.944444 0.0617296 L 0.9321 0.0617296 L 0.944444 0.0617296 L 0.944444 0.0740741 L 0.919752 0.0740741 L 0.919752 0.0617296 L 0.919752 0.0740741 L 0.907407 0.0740741 L 0.9321 0.0740741 L 0.9321 0.0864185 L 0.9321 0.0740741 L 0.944444 0.0740741 L 0.944444 0.0987666 L 0.9321 0.0987666 L 0.944444 0.0987666 L 0.944444 0.111111 L 0.944444 0.0864185 L 0.956789 0.0864185 L 0.944444 0.0864185 L 0.944444 0.0493815 L 0.956789 0.0493815 L 0.944444 0.0493815 L 0.944444 0.037037 L 0.969137 0.037037 L 0.969137 0.0493815 L 0.969137 0.037037 L 0.981481 0.037037 L 0.956789 0.037037 L 0.956789 0.0246926 L 0.956789 0.037037 L 0.944444 0.037037 L 0.944444 0.0123445 L 0.956789 0.0123445 L 0.944444 0.0123445 L 0.944444 0 L 0.969137 0 L 0.969137 0.0123445 L 0.969137 0 L 1.006174 0 L 1.006174 0.0123445 L 1.006174 0 L 1.018519 0 L 1.018519 0.0246926 L 1.006174 0.0246926 L 1.018519 0.0246926 L 1.018519 0.037037 L 1.018519 0.0123445 L 1.030863 0.0123445 L 1.018519 0.0123445 L 1.018519 0 L 1.043211 0 L 1.043211 0.0123445 L 1.043211 0 L 1.055556 0 L 1.055556 0.0246926 L 1.043211 0.0246926 L 1.055556 0.0246926 L 1.055556 0.0617296 L 1.043211 0.0617296 L 1.055556 0.0617296 L 1.055556 0.0740741 L 1.030863 0.0740741 L 1.030863 0.0617296 L 1.030863 0.0740741 L 1.018519 0.0740741 L 1.043211 0.0740741 L 1.043211 0.0864185 L 1.043211 0.0740741 L 1.055556 0.0740741 L 1.055556 0.0987666 L 1.043211 0.0987666 L 1.055556 0.0987666 L 1.055556 0.135804 L 1.043211 0.135804 L 1.055556 0.135804 L 1.055556 0.172841 L 1.043211 0.172841 L 1.055556 0.172841 L 1.055556 0.185185 L 1.030863 0.185185 L 1.030863 0.172841 L 1.030863 0.185185 L 1.018519 0.185185 L 1.043211 0.185185 L 1.043211 0.19753 L 1.043211 0.185185 L 1.055556 0.185185 L 1.055556 0.209878 L 1.043211 0.209878 L 1.055556 0.209878 L 1.055556 0.222222 L 1.030863 0.222222 L 1.030863 0.209878 L 1.030863 0.222222 L 0.993826 0.222222 L 0.993826 0.209878 L 0.993826 0.222222 L 0.981481 0.222222 L 0.981481 0.19753 L 0.993826 0.19753 L 0.981481 0.19753 L 0.981481 0.185185 L 0.981481 0.209878 L 0.969137 0.209878 L 0.981481 0.209878 L 0.981481 0.222222 L 0.956789 0.222222 L 0.956789 0.209878 L 0.956789 0.222222 L 0.944444 0.222222 L 0.969137 0.222222 L 0.969137 0.234567 L 0.969137 0.222222 L 1.006174 0.222222 L 1.006174 0.234567 L 1.006174 0.222222 L 1.018519 0.222222 L 1.018519 0.246915 L 1.006174 0.246915 L 1.018519 0.246915 L 1.018519 0.259259 L 1.018519 0.234567 L 1.030863 0.234567 L 1.018519 0.234567 L 1.018519 0.222222 L 1.043211 0.222222 L 1.043211 0.234567 L 1.043211 0.222222 L 1.055556 0.222222 L 1.055556 0.246915 L 1.043211 0.246915 L 1.055556 0.246915 L 1.055556 0.283952 L 1.043211 0.283952 L 1.055556 0.283952 L 1.055556 0.296296 L 1.030863 0.296296 L 1.030863 0.283952 L 1.030863 0.296296 L 1.018519 0.296296 L 1.043211 0.296296 L 1.043211 0.308641 L 1.043211 0.296296 L 1.055556 0.296296 L 1.055556 0.320989 L 1.043211 0.320989 L 1.055556 0.320989 L 1.055556 0.333333 L 1.055556 0.308641 L 1.0679 0.308641 L 1.055556 0.308641 L 1.055556 0.271604 L 1.0679 0.271604 L 1.055556 0.271604 L 1.055556 0.259259 L 1.080248 0.259259 L 1.080248 0.271604 L 1.080248 0.259259 L 1.092593 0.259259 L 1.0679 0.259259 L 1.0679 0.246915 L 1.0679 0.259259 L 1.055556 0.259259 L 1.055556 0.234567 L 1.0679 0.234567 L 1.055556 0.234567 L 1.055556 0.19753 L 1.0679 0.19753 L 1.055556 0.19753 L 1.055556 0.160493 L 1.0679 0.160493 L 1.055556 0.160493 L 1.055556 0.148148 L 1.080248 0.148148 L 1.080248 0.160493 L 1.080248 0.148148 L 1.092593 0.148148 L 1.0679 0.148148 L 1.0679 0.135804 L 1.0679 0.148148 L 1.055556 0.148148 L 1.055556 0.123456 L 1.0679 0.123456 L 1.055556 0.123456 L 1.055556 0.111111 L 1.080248 0.111111 L 1.080248 0.123456 L 1.080248 0.111111 L 1.117285 0.111111 L 1.117285 0.123456 L 1.117285 0.111111 L 1.12963 0.111111 L 1.12963 0.135804 L 1.117285 0.135804 L 1.12963 0.135804 L 1.12963 0.148148 L 1.12963 0.123456 L 1.141974 0.123456 L 1.12963 0.123456 L 1.12963 0.111111 L 1.154322 0.111111 L 1.154322 0.123456 L 1.154322 0.111111 L 1.166667 0.111111 L 1.141974 0.111111 L 1.141974 0.0987666 L 1.141974 0.111111 L 1.104937 0.111111 L 1.104937 0.0987666 L 1.104937 0.111111 L 1.092593 0.111111 L 1.092593 0.0864185 L 1.104937 0.0864185 L 1.092593 0.0864185 L 1.092593 0.0740741 L 1.092593 0.0987666 L 1.080248 0.0987666 L 1.092593 0.0987666 L 1.092593 0.111111 L 1.0679 0.111111 L 1.0679 0.0987666 L 1.0679 0.111111 L 1.055556 0.111111 L 1.055556 0.0864185 L 1.0679 0.0864185 L 1.055556 0.0864185 L 1.055556 0.0493815 L 1.0679 0.0493815 L 1.055556 0.0493815 L 1.055556 0.037037 L 1.080248 0.037037 L 1.080248 0.0493815 L 1.080248 0.037037 L 1.092593 0.037037 L 1.0679 0.037037 L 1.0679 0.0246926 L 1.0679 0.037037 L 1.055556 0.037037 L 1.055556 0.0123445 L 1.0679 0.0123445 L 1.055556 0.0123445 L 1.055556 0 L 1.080248 0 L 1.080248 0.0123445 L 1.080248 0 L 1.117285 0 L 1.117285 0.0123445 L 1.117285 0 L 1.12963 0 L 1.12963 0.0246926 L 1.117285 0.0246926 L 1.12963 0.0246926 L 1.12963 0.037037 L 1.12963 0.0123445 L 1.141974 0.0123445 L 1.12963 0.0123445 L 1.12963 0 L 1.154322 0 L 1.154322 0.0123445 L 1.154322 0 L 1.191359 0 L 1.191359 0.0123445 L 1.191359 0 L 1.228396 0 L 1.228396 0.0123445 L 1.228396 0 L 1.240741 0 L 1.240741 0.0246926 L 1.228396 0.0246926 L 1.240741 0.0246926 L 1.240741 0.037037 L 1.240741 0.0123445 L 1.253085 0.0123445 L 1.240741 0.0123445 L 1.240741 0 L 1.265433 0 L 1.265433 0.0123445 L 1.265433 0 L 1.277778 0 L 1.277778 0.0246926 L 1.265433 0.0246926 L 1.277778 0.0246926 L 1.277778 0.0617296 L 1.265433 0.0617296 L 1.277778 0.0617296 L 1.277778 0.0740741 L 1.253085 0.0740741 L 1.253085 0.0617296 L 1.253085 0.0740741 L 1.240741 0.0740741 L 1.265433 0.0740741 L 1.265433 0.0864185 L 1.265433 0.0740741 L 1.277778 0.0740741 L 1.277778 0.0987666 L 1.265433 0.0987666 L 1.277778 0.0987666 L 1.277778 0.111111 L 1.277778 0.0864185 L 1.290122 0.0864185 L 1.277778 0.0864185 L 1.277778 0.0493815 L 1.290122 0.0493815 L 1.277778 0.0493815 L 1.277778 0.037037 L 1.30247 0.037037 L 1.30247 0.0493815 L 1.30247 0.037037 L 1.314815 0.037037 L 1.290122 0.037037 L 1.290122 0.0246926 L 1.290122 0.037037 L 1.277778 0.037037 L 1.277778 0.0123445 L 1.290122 0.0123445 L 1.277778 0.0123445 L 1.277778 0 L 1.30247 0 L 1.30247 0.0123445 L 1.30247 0 L 1.339507 0 L 1.339507 0.0123445 L 1.339507 0 L 1.351852 0 L 1.351852 0.0246926 L 1.339507 0.0246926 L 1.351852 0.0246926 L 1.351852 0.037037 L 1.351852 0.0123445 L 1.364196 0.0123445 L 1.351852 0.0123445 L 1.351852 0 L 1.376544 0 L 1.376544 0.0123445 L 1.376544 0 L 1.388889 0 L 1.388889 0.0246926 L 1.376544 0.0246926 L 1.388889 0.0246926 L 1.388889 0.0617296 L 1.376544 0.0617296 L 1.388889 0.0617296 L 1.388889 0.0740741 L 1.364196 0.0740741 L 1.364196 0.0617296 L 1.364196 0.0740741 L 1.351852 0.0740741 L 1.376544 0.0740741 L 1.376544 0.0864185 L 1.376544 0.0740741 L 1.388889 0.0740741 L 1.388889 0.0987666 L 1.376544 0.0987666 L 1.388889 0.0987666 L 1.388889 0.135804 L 1.376544 0.135804 L 1.388889 0.135804 L 1.388889 0.172841 L 1.376544 0.172841 L 1.388889 0.172841 L 1.388889 0.185185 L 1.364196 0.185185 L 1.364196 0.172841 L 1.364196 0.185185 L 1.351852 0.185185 L 1.376544 0.185185 L 1.376544 0.19753 L 1.376544 0.185185 L 1.388889 0.185185 L 1.388889 0.209878 L 1.376544 0.209878 L 1.388889 0.209878 L 1.388889 0.222222 L 1.364196 0.222222 L 1.364196 0.209878 L 1.364196 0.222222 L 1.327159 0.222222 L 1.327159 0.209878 L 1.327159 0.222222 L 1.314815 0.222222 L 1.314815 0.19753 L 1.327159 0.19753 L 1.314815 0.19753 L 1.314815 0.185185 L 1.314815 0.209878 L 1.30247 0.209878 L 1.314815 0.209878 L 1.314815 0.222222 L 1.290122 0.222222 L 1.290122 0.209878 L 1.290122 0.222222 L 1.277778 0.222222 L 1.30247 0.222222 L 1.30247 0.234567 L 1.30247 0.222222 L 1.339507 0.222222 L 1.339507 0.234567 L 1.339507 0.222222 L 1.351852 0.222222 L 1.351852 0.246915 L 1.339507 0.246915 L 1.351852 0.246915 L 1.351852 0.259259 L 1.351852 0.234567 L 1.364196 0.234567 L 1.351852 0.234567 L 1.351852 0.222222 L 1.376544 0.222222 L 1.376544 0.234567 L 1.376544 0.222222 L 1.388889 0.222222 L 1.388889 0.246915 L 1.376544 0.246915 L 1.388889 0.246915 L 1.388889 0.283952 L 1.376544 0.283952 L 1.388889 0.283952 L 1.388889 0.296296 L 1.364196 0.296296 L 1.364196 0.283952 L 1.364196 0.296296 L 1.351852 0.296296 L 1.376544 0.296296 L 1.376544 0.308641 L 1.376544 0.296296 L 1.388889 0.296296 L 1.388889 0.320989 L 1.376544 0.320989 L 1.388889 0.320989 L 1.388889 0.358026 L 1.376544 0.358026 L 1.388889 0.358026 L 1.388889 0.395063 L 1.376544 0.395063 L 1.388889 0.395063 L 1.388889 0.407407 L 1.364196 0.407407 L 1.364196 0.395063 L 1.364196 0.407407 L 1.351852 0.407407 L 1.376544 0.407407 L 1.376544 0.419752 L 1.376544 0.407407 L 1.388889 0.407407 L 1.388889 0.4321 L 1.376544 0.4321 L 1.388889 0.4321 L 1.388889 0.469137 L 1.376544 0.469137 L 1.388889 0.469137 L 1.388889 0.506174 L 1.376544 0.506174 L 1.388889 0.506174 L 1.388889 0.518519 L 1.364196 0.518519 L 1.364196 0.506174 L 1.364196 0.518519 L 1.351852 0.518519 L 1.376544 0.518519 L 1.376544 0.530863 L 1.376544 0.518519 L 1.388889 0.518519 L 1.388889 0.543211 L 1.376544 0.543211 L 1.388889 0.543211 L 1.388889 0.555556 L 1.364196 0.555556 L 1.364196 0.543211 L 1.364196 0.555556 L 1.327159 0.555556 L 1.327159 0.543211 L 1.327159 0.555556 L 1.314815 0.555556 L 1.314815 0.530863 L 1.327159 0.530863 L 1.314815 0.530863 L 1.314815 0.518519 L 1.314815 0.543211 L 1.30247 0.543211 L 1.314815 0.543211 L 1.314815 0.555556 L 1.290122 0.555556 L 1.290122 0.543211 L 1.290122 0.555556 L 1.277778 0.555556 L 1.30247 0.555556 L 1.30247 0.5679 L 1.30247 0.555556 L 1.339507 0.555556 L 1.339507 0.5679 L 1.339507 0.555556 L 1.351852 0.555556 L 1.351852 0.580248 L 1.339507 0.580248 L 1.351852 0.580248 L 1.351852 0.592593 L 1.351852 0.5679 L 1.364196 0.5679 L 1.351852 0.5679 L 1.351852 0.555556 L 1.376544 0.555556 L 1.376544 0.5679 L 1.376544 0.555556 L 1.388889 0.555556 L 1.388889 0.580248 L 1.376544 0.580248 L 1.388889 0.580248 L 1.388889 0.617285 L 1.376544 0.617285 L 1.388889 0.617285 L 1.388889 0.62963 L 1.364196 0.62963 L 1.364196 0.617285 L 1.364196 0.62963 L 1.351852 0.62963 L 1.376544 0.62963 L 1.376544 0.641974 L 1.376544 0.62963 L 1.388889 0.62963 L 1.388889 0.654322 L 1.376544 0.654322 L 1.388889 0.654322 L 1.388889 0.666667 L 1.364196 0.666667 L 1.364196 0.654322 L 1.364196 0.666667 L 1.327159 0.666667 L 1.327159 0.654322 L 1.327159 0.666667 L 1.314815 0.666667 L 1.314815 0.641974 L 1.327159 0.641974 L 1.314815 0.641974 L 1.314815 0.62963 L 1.314815 0.654322 L 1.30247 0.654322 L 1.314815 0.654322 L 1.314815 0.666667 L 1.290122 0.666667 L 1.290122 0.654322 L 1.290122 0.666667 L 1.253085 0.666667 L 1.253085 0.654322 L 1.253085 0.666667 L 1.216048 0.666667 L 1.216048 0.654322 L 1.216048 0.666667 L 1.203704 0.666667 L 1.203704 0.641974 L 1.216048 0.641974 L 1.203704 0.641974 L 1.203704 0.62963 L 1.203704 0.654322 L 1.191359 0.654322 L 1.203704 0.654322 L 1.203704 0.666667 L 1.179011 0.666667 L 1.179011 0.654322 L 1.179011 0.666667 L 1.166667 0.666667 L 1.166667 0.641974 L 1.179011 0.641974 L 1.166667 0.641974 L 1.166667 0.604937 L 1.179011 0.604937 L 1.166667 0.604937 L 1.166667 0.592593 L 1.191359 0.592593 L 1.191359 0.604937 L 1.191359 0.592593 L 1.203704 0.592593 L 1.179011 0.592593 L 1.179011 0.580248 L 1.179011 0.592593 L 1.166667 0.592593 L 1.166667 0.5679 L 1.179011 0.5679 L 1.166667 0.5679 L 1.166667 0.555556 L 1.166667 0.580248 L 1.154322 0.580248 L 1.166667 0.580248 L 1.166667 0.617285 L 1.154322 0.617285 L 1.166667 0.617285 L 1.166667 0.62963 L 1.141974 0.62963 L 1.141974 0.617285 L 1.141974 0.62963 L 1.12963 0.62963 L 1.154322 0.62963 L 1.154322 0.641974 L 1.154322 0.62963 L 1.166667 0.62963 L 1.166667 0.654322 L 1.154322 0.654322 L 1.166667 0.654322 L 1.166667 0.666667 L 1.141974 0.666667 L 1.141974 0.654322 L 1.141974 0.666667 L 1.104937 0.666667 L 1.104937 0.654322 L 1.104937 0.666667 L 1.092593 0.666667 L 1.092593 0.641974 L 1.104937 0.641974 L 1.092593 0.641974 L 1.092593 0.62963 L 1.092593 0.654322 L 1.080248 0.654322 L 1.092593 0.654322 L 1.092593 0.666667 L 1.0679 0.666667 L 1.0679 0.654322 L 1.0679 0.666667 L 1.055556 0.666667 L 1.080248 0.666667 L 1.080248 0.679011 L 1.080248 0.666667 L 1.117285 0.666667 L 1.117285 0.679011 L 1.117285 0.666667 L 1.12963 0.666667 L 1.12963 0.691359 L 1.117285 0.691359 L 1.12963 0.691359 L 1.12963 0.703704 L 1.12963 0.679011 L 1.141974 0.679011 L 1.12963 0.679011 L 1.12963 0.666667 L 1.154322 0.666667 L 1.154322 0.679011 L 1.154322 0.666667 L 1.191359 0.666667 L 1.191359 0.679011 L 1.191359 0.666667 L 1.228396 0.666667 L 1.228396 0.679011 L 1.228396 0.666667 L 1.240741 0.666667 L 1.240741 0.691359 L 1.228396 0.691359 L 1.240741 0.691359 L 1.240741 0.703704 L 1.240741 0.679011 L 1.253085 0.679011 L 1.240741 0.679011 L 1.240741 0.666667 L 1.265433 0.666667 L 1.265433 0.679011 L 1.265433 0.666667 L 1.277778 0.666667 L 1.277778 0.691359 L 1.265433 0.691359 L 1.277778 0.691359 L 1.277778 0.728396 L 1.265433 0.728396 L 1.277778 0.728396 L 1.277778 0.740741 L 1.253085 0.740741 L 1.253085 0.728396 L 1.253085 0.740741 L 1.240741 0.740741 L 1.265433 0.740741 L 1.265433 0.753085 L 1.265433 0.740741 L 1.277778 0.740741 L 1.277778 0.765433 L 1.265433 0.765433 L 1.277778 0.765433 L 1.277778 0.777778 L 1.277778 0.753085 L 1.290122 0.753085 L 1.277778 0.753085 L 1.277778 0.716048 L 1.290122 0.716048 L 1.277778 0.716048 L 1.277778 0.703704 L 1.30247 0.703704 L 1.30247 0.716048 L 1.30247 0.703704 L 1.314815 0.703704 L 1.290122 0.703704 L 1.290122 0.691359 L 1.290122 0.703704 L 1.277778 0.703704 L 1.277778 0.679011 L 1.290122 0.679011 L 1.277778 0.679011 L 1.277778 0.666667 L 1.30247 0.666667 L 1.30247 0.679011 L 1.30247 0.666667 L 1.339507 0.666667 L 1.339507 0.679011 L 1.339507 0.666667 L 1.351852 0.666667 L 1.351852 0.691359 L 1.339507 0.691359 L 1.351852 0.691359 L 1.351852 0.703704 L 1.351852 0.679011 L 1.364196 0.679011 L 1.351852 0.679011 L 1.351852 0.666667 L 1.376544 0.666667 L 1.376544 0.679011 L 1.376544 0.666667 L 1.388889 0.666667 L 1.388889 0.691359 L 1.376544 0.691359 L 1.388889 0.691359 L 1.388889 0.728396 L 1.376544 0.728396 L 1.388889 0.728396 L 1.388889 0.740741 L 1.364196 0.740741 L 1.364196 0.728396 L 1.364196 0.740741 L 1.351852 0.740741 L 1.376544 0.740741 L 1.376544 0.753085 L 1.376544 0.740741 L 1.388889 0.740741 L 1.388889 0.765433 L 1.376544 0.765433 L 1.388889 0.765433 L 1.388889 0.80247 L 1.376544 0.80247 L 1.388889 0.80247 L 1.388889 0.839507 L 1.376544 0.839507 L 1.388889 0.839507 L 1.388889 0.851852 L 1.364196 0.851852 L 1.364196 0.839507 L 1.364196 0.851852 L 1.351852 0.851852 L 1.376544 0.851852 L 1.376544 0.864196 L 1.376544 0.851852 L 1.388889 0.851852 L 1.388889 0.876544 L 1.376544 0.876544 L 1.388889 0.876544 L 1.388889 0.888889 L 1.364196 0.888889 L 1.364196 0.876544 L 1.364196 0.888889 L 1.327159 0.888889 L 1.327159 0.876544 L 1.327159 0.888889 L 1.314815 0.888889 L 1.314815 0.864196 L 1.327159 0.864196 L 1.314815 0.864196 L 1.314815 0.851852 L 1.314815 0.876544 L 1.30247 0.876544 L 1.314815 0.876544 L 1.314815 0.888889 L 1.290122 0.888889 L 1.290122 0.876544 L 1.290122 0.888889 L 1.277778 0.888889 L 1.30247 0.888889 L 1.30247 0.901233 L 1.30247 0.888889 L 1.339507 0.888889 L 1.339507 0.901233 L 1.339507 0.888889 L 1.351852 0.888889 L 1.351852 0.913581 L 1.339507 0.913581 L 1.351852 0.913581 L 1.351852 0.925926 L 1.351852 0.901233 L 1.364196 0.901233 L 1.351852 0.901233 L 1.351852 0.888889 L 1.376544 0.888889 L 1.376544 0.901233 L 1.376544 0.888889 L 1.388889 0.888889 L 1.388889 0.913581 L 1.376544 0.913581 L 1.388889 0.913581 L 1.388889 0.950618 L 1.376544 0.950618 L 1.388889 0.950618 L 1.388889 0.962963 L 1.364196 0.962963 L 1.364196 0.950618 L 1.364196 0.962963 L 1.351852 0.962963 L 1.376544 0.962963 L 1.376544 0.975307 L 1.376544 0.962963 L 1.388889 0.962963 L 1.388889 0.987656 L 1.376544 0.987656 L 1.388889 0.987656 L 1.388889 1 L 1.364196 1 L 1.364196 0.987656 L 1.364196 1 L 1.327159 1 L 1.327159 0.987656 L 1.327159 1 L 1.314815 1 L 1.314815 0.975307 L 1.327159 0.975307 L 1.314815 0.975307 L 1.314815 0.962963 L 1.314815 0.987656 L 1.30247 0.987656 L 1.314815 0.987656 L 1.314815 1 L 1.290122 1 L 1.290122 0.987656 L 1.290122 1 L 1.253085 1 L 1.253085 0.987656 L 1.253085 1 L 1.216048 1 L 1.216048 0.987656 L 1.216048 1 L 1.203704 1 L 1.203704 0.975307 L 1.216048 0.975307 L 1.203704 0.975307 L 1.203704 0.962963 L 1.203704 0.987656 L 1.191359 0.987656 L 1.203704 0.987656 L 1.203704 1 L 1.179011 1 L 1.179011 0.987656 L 1.179011 1 L 1.166667 1 L 1.166667 0.975307 L 1.179011 0.975307 L 1.166667 0.975307 L 1.166667 0.93827 L 1.179011 0.93827 L 1.166667 0.93827 L 1.166667 0.925926 L 1.191359 0.925926 L 1.191359 0.93827 L 1.191359 0.925926 L 1.203704 0.925926 L 1.179011 0.925926 L 1.179011 0.913581 L 1.179011 0.925926 L 1.166667 0.925926 L 1.166667 0.901233 L 1.179011 0.901233 L 1.166667 0.901233 L 1.166667 0.888889 L 1.166667 0.913581 L 1.154322 0.913581 L 1.166667 0.913581 L 1.166667 0.950618 L 1.154322 0.950618 L 1.166667 0.950618 L 1.166667 0.962963 L 1.141974 0.962963 L 1.141974 0.950618 L 1.141974 0.962963 L 1.12963 0.962963 L 1.154322 0.962963 L 1.154322 0.975307 L 1.154322 0.962963 L 1.166667 0.962963 L 1.166667 0.987656 L 1.154322 0.987656 L 1.166667 0.987656 L 1.166667 1 L 1.141974 1 L 1.141974 0.987656 L 1.141974 1 L 1.104937 1 L 1.104937 0.987656 L 1.104937 1 L 1.092593 1 L 1.092593 0.975307 L 1.104937 0.975307 L 1.092593 0.975307 L 1.092593 0.962963 L 1.092593 0.987656 L 1.080248 0.987656 L 1.092593 0.987656 L 1.092593 1 L 1.0679 1 L 1.0679 0.987656 L 1.0679 1 L 1.030863 1 L 1.030863 0.987656 L 1.030863 1 L 0.993826 1 L 0.993826 0.987656 L 0.993826 1 L 0.981481 1 L 0.981481 0.975307 L 0.993826 0.975307 L 0.981481 0.975307 L 0.981481 0.962963 L 0.981481 0.987656 L 0.969137 0.987656 L 0.981481 0.987656 L 0.981481 1 L 0.956789 1 L 0.956789 0.987656 L 0.956789 1 L 0.919752 1 L 0.919752 0.987656 L 0.919752 1 L 0.882715 1 L 0.882715 0.987656 L 0.882715 1 L 0.87037 1 L 0.87037 0.975307 L 0.882715 0.975307 L 0.87037 0.975307 L 0.87037 0.962963 L 0.87037 0.987656 L 0.858026 0.987656 L 0.87037 0.987656 L 0.87037 1 L 0.845678 1 L 0.845678 0.987656 L 0.845678 1 L 0.833333 1 L 0.833333 0.975307 L 0.845678 0.975307 L 0.833333 0.975307 L 0.833333 0.93827 L 0.845678 0.93827 L 0.833333 0.93827 L 0.833333 0.925926 L 0.858026 0.925926 L 0.858026 0.93827 L 0.858026 0.925926 L 0.87037 0.925926 L 0.845678 0.925926 L 0.845678 0.913581 L 0.845678 0.925926 L 0.833333 0.925926 L 0.833333 0.901233 L 0.845678 0.901233 L 0.833333 0.901233 L 0.833333 0.888889 L 0.833333 0.913581 L 0.820989 0.913581 L 0.833333 0.913581 L 0.833333 0.950618 L 0.820989 0.950618 L 0.833333 0.950618 L 0.833333 0.962963 L 0.808641 0.962963 L 0.808641 0.950618 L 0.808641 0.962963 L 0.796296 0.962963 L 0.820989 0.962963 L 0.820989 0.975307 L 0.820989 0.962963 L 0.833333 0.962963 L 0.833333 0.987656 L 0.820989 0.987656 L 0.833333 0.987656 L 0.833333 1 L 0.808641 1 L 0.808641 0.987656 L 0.808641 1 L 0.771604 1 L 0.771604 0.987656 L 0.771604 1 L 0.759259 1 L 0.759259 0.975307 L 0.771604 0.975307 L 0.759259 0.975307 L 0.759259 0.962963 L 0.759259 0.987656 L 0.746915 0.987656 L 0.759259 0.987656 L 0.759259 1 L 0.734567 1 L 0.734567 0.987656 L 0.734567 1 L 0.722222 1 L 0.722222 0.975307 L 0.734567 0.975307 L 0.722222 0.975307 L 0.722222 0.93827 L 0.734567 0.93827 L 0.722222 0.93827 L 0.722222 0.925926 L 0.746915 0.925926 L 0.746915 0.93827 L 0.746915 0.925926 L 0.759259 0.925926 L 0.734567 0.925926 L 0.734567 0.913581 L 0.734567 0.925926 L 0.722222 0.925926 L 0.722222 0.901233 L 0.734567 0.901233 L 0.722222 0.901233 L 0.722222 0.864196 L 0.734567 0.864196 L 0.722222 0.864196 L 0.722222 0.827159 L 0.734567 0.827159 L 0.722222 0.827159 L 0.722222 0.814815 L 0.746915 0.814815 L 0.746915 0.827159 L 0.746915 0.814815 L 0.759259 0.814815 L 0.734567 0.814815 L 0.734567 0.80247 L 0.734567 0.814815 L 0.722222 0.814815 L 0.722222 0.790122 L 0.734567 0.790122 L 0.722222 0.790122 L 0.722222 0.777778 L 0.746915 0.777778 L 0.746915 0.790122 L 0.746915 0.777778 L 0.783952 0.777778 L 0.783952 0.790122 L 0.783952 0.777778 L 0.796296 0.777778 L 0.796296 0.80247 L 0.783952 0.80247 L 0.796296 0.80247 L 0.796296 0.814815 L 0.796296 0.790122 L 0.808641 0.790122 L 0.796296 0.790122 L 0.796296 0.777778 L 0.820989 0.777778 L 0.820989 0.790122 L 0.820989 0.777778 L 0.833333 0.777778 L 0.808641 0.777778 L 0.808641 0.765433 L 0.808641 0.777778 L 0.771604 0.777778 L 0.771604 0.765433 L 0.771604 0.777778 L 0.759259 0.777778 L 0.759259 0.753085 L 0.771604 0.753085 L 0.759259 0.753085 L 0.759259 0.740741 L 0.759259 0.765433 L 0.746915 0.765433 L 0.759259 0.765433 L 0.759259 0.777778 L 0.734567 0.777778 L 0.734567 0.765433 L 0.734567 0.777778 L 0.722222 0.777778 L 0.722222 0.753085 L 0.734567 0.753085 L 0.722222 0.753085 L 0.722222 0.716048 L 0.734567 0.716048 L 0.722222 0.716048 L 0.722222 0.703704 L 0.746915 0.703704 L 0.746915 0.716048 L 0.746915 0.703704 L 0.759259 0.703704 L 0.734567 0.703704 L 0.734567 0.691359 L 0.734567 0.703704 L 0.722222 0.703704 L 0.722222 0.679011 L 0.734567 0.679011 L 0.722222 0.679011 L 0.722222 0.666667 L 0.722222 0.691359 L 0.709878 0.691359 L 0.722222 0.691359 L 0.722222 0.728396 L 0.709878 0.728396 L 0.722222 0.728396 L 0.722222 0.740741 L 0.69753 0.740741 L 0.69753 0.728396 L 0.69753 0.740741 L 0.685185 0.740741 L 0.709878 0.740741 L 0.709878 0.753085 L 0.709878 0.740741 L 0.722222 0.740741 L 0.722222 0.765433 L 0.709878 0.765433 L 0.722222 0.765433 L 0.722222 0.80247 L 0.709878 0.80247 L 0.722222 0.80247 L 0.722222 0.839507 L 0.709878 0.839507 L 0.722222 0.839507 L 0.722222 0.851852 L 0.69753 0.851852 L 0.69753 0.839507 L 0.69753 0.851852 L 0.685185 0.851852 L 0.709878 0.851852 L 0.709878 0.864196 L 0.709878 0.851852 L 0.722222 0.851852 L 0.722222 0.876544 L 0.709878 0.876544 L 0.722222 0.876544 L 0.722222 0.888889 L 0.69753 0.888889 L 0.69753 0.876544 L 0.69753 0.888889 L 0.660493 0.888889 L 0.660493 0.876544 L 0.660493 0.888889 L 0.648148 0.888889 L 0.648148 0.864196 L 0.660493 0.864196 L 0.648148 0.864196 L 0.648148 0.851852 L 0.648148 0.876544 L 0.635804 0.876544 L 0.648148 0.876544 L 0.648148 0.888889 L 0.623456 0.888889 L 0.623456 0.876544 L 0.623456 0.888889 L 0.611111 0.888889 L 0.635804 0.888889 L 0.635804 0.901233 L 0.635804 0.888889 L 0.672841 0.888889 L 0.672841 0.901233 L 0.672841 0.888889 L 0.685185 0.888889 L 0.685185 0.913581 L 0.672841 0.913581 L 0.685185 0.913581 L 0.685185 0.925926 L 0.685185 0.901233 L 0.69753 0.901233 L 0.685185 0.901233 L 0.685185 0.888889 L 0.709878 0.888889 L 0.709878 0.901233 L 0.709878 0.888889 L 0.722222 0.888889 L 0.722222 0.913581 L 0.709878 0.913581 L 0.722222 0.913581 L 0.722222 0.950618 L 0.709878 0.950618 L 0.722222 0.950618 L 0.722222 0.962963 L 0.69753 0.962963 L 0.69753 0.950618 L 0.69753 0.962963 L 0.685185 0.962963 L 0.709878 0.962963 L 0.709878 0.975307 L 0.709878 0.962963 L 0.722222 0.962963 L 0.722222 0.987656 L 0.709878 0.987656 L 0.722222 0.987656 L 0.722222 1 L 0.69753 1 L 0.69753 0.987656 L 0.69753 1 L 0.660493 1 L 0.660493 0.987656 L 0.660493 1 L 0.648148 1 L 0.648148 0.975307 L 0.660493 0.975307 L 0.648148 0.975307 L 0.648148 0.962963 L 0.648148 0.987656 L 0.635804 0.987656 L 0.648148 0.987656 L 0.648148 1 L 0.623456 1 L 0.623456 0.987656 L 0.623456 1 L 0.586419 1 L 0.586419 0.987656 L 0.586419 1 L 0.549382 1 L 0.549382 0.987656 L 0.549382 1 L 0.537037 1 L 0.537037 0.975307 L 0.549382 0.975307 L 0.537037 0.975307 L 0.537037 0.962963 L 0.537037 0.987656 L 0.524693 0.987656 L 0.537037 0.987656 L 0.537037 1 L 0.512344 1 L 0.512344 0.987656 L 0.512344 1 L 0.5 1 L 0.5 0.975307 L 0.512344 0.975307 L 0.5 0.975307 L 0.5 0.93827 L 0.512344 0.93827 L 0.5 0.93827 L 0.5 0.925926 L 0.524693 0.925926 L 0.524693 0.93827 L 0.524693 0.925926 L 0.537037 0.925926 L 0.512344 0.925926 L 0.512344 0.913581 L 0.512344 0.925926 L 0.5 0.925926 L 0.5 0.901233 L 0.512344 0.901233 L 0.5 0.901233 L 0.5 0.888889 L 0.5 0.913581 L 0.487656 0.913581 L 0.5 0.913581 L 0.5 0.950618 L 0.487656 0.950618 L 0.5 0.950618 L 0.5 0.962963 L 0.475307 0.962963 L 0.475307 0.950618 L 0.475307 0.962963 L 0.462963 0.962963 L 0.487656 0.962963 L 0.487656 0.975307 L 0.487656 0.962963 L 0.5 0.962963 L 0.5 0.987656 L 0.487656 0.987656 L 0.5 0.987656 L 0.5 1 L 0.475307 1 L 0.475307 0.987656 L 0.475307 1 L 0.43827 1 L 0.43827 0.987656 L 0.43827 1 L 0.425926 1 L 0.425926 0.975307 L 0.43827 0.975307 L 0.425926 0.975307 L 0.425926 0.962963 L 0.425926 0.987656 L 0.413581 0.987656 L 0.425926 0.987656 L 0.425926 1 L 0.401233 1 L 0.401233 0.987656 L 0.401233 1 L 0.388889 1 " transform="matrix(1080,0,0,1080,0,0)"/>
</g>
</svg>
