<?xml version="1.0" encoding="UTF-8"?>
<svg xmlns="http://www.w3.org/2000/svg" xmlns:xlink="http://www.w3.org/1999/xlink" width="1920pt" height="1080pt" viewBox="0 0 1920 1080" version="1.1">
<g id="surface16">
<rect x="0" y="0" width="1920" height="1080" style="fill:rgb(0%,0%,0%);fill-opacity:1;stroke:none;"/>
<path style="fill:none;stroke-width:0.00185185;stroke-linecap:butt;stroke-linejoin:miter;stroke:rgb(100%,100%,100%);stroke-opacity:1;stroke-miterlimit:10;" d="M 0.722222 0.210525 L 0.738097 0.210525 L 0.738097 0.221054 L 0.753968 0.221054 L 0.753968 0.231579 L 0.738097 0.231579 L 0.738097 0.242104 L 0.753968 0.242104 L 0.753968 0.252633 L 0.738097 0.252633 L 0.738097 0.242104 L 0.722222 0.242104 L 0.722222 0.252633 L 0.706348 0.252633 L 0.706348 0.263158 L 0.722222 0.263158 L 0.722222 0.273683 L 0.706348 0.273683 L 0.706348 0.263158 L 0.690477 0.263158 L 0.690477 0.252633 L 0.706348 0.252633 L 0.706348 0.242104 L 0.690477 0.242104 L 0.690477 0.252633 L 0.674602 0.252633 L 0.674602 0.242104 L 0.658731 0.242104 L 0.658731 0.252633 L 0.642857 0.252633 L 0.642857 0.263158 L 0.658731 0.263158 L 0.658731 0.273683 L 0.642857 0.273683 L 0.642857 0.263158 L 0.626986 0.263158 L 0.626986 0.252633 L 0.642857 0.252633 L 0.642857 0.242104 L 0.626986 0.242104 L 0.626986 0.231579 L 0.642857 0.231579 L 0.642857 0.242104 L 0.658731 0.242104 L 0.658731 0.231579 L 0.674602 0.231579 L 0.674602 0.221054 L 0.658731 0.221054 L 0.658731 0.231579 L 0.642857 0.231579 L 0.642857 0.221054 L 0.626986 0.221054 L 0.626986 0.210525 L 0.642857 0.210525 L 0.642857 0.2 L 0.626986 0.2 L 0.626986 0.210525 L 0.611111 0.210525 L 0.611111 0.2 L 0.595237 0.2 L 0.595237 0.210525 L 0.579366 0.210525 L 0.579366 0.221054 L 0.595237 0.221054 L 0.595237 0.231579 L 0.579366 0.231579 L 0.579366 0.221054 L 0.563491 0.221054 L 0.563491 0.210525 L 0.579366 0.210525 L 0.579366 0.2 L 0.563491 0.2 L 0.563491 0.189475 L 0.579366 0.189475 L 0.579366 0.2 L 0.595237 0.2 L 0.595237 0.189475 L 0.611111 0.189475 L 0.611111 0.178946 L 0.595237 0.178946 L 0.595237 0.168421 L 0.611111 0.168421 L 0.611111 0.178946 L 0.626986 0.178946 L 0.626986 0.189475 L 0.611111 0.189475 L 0.611111 0.2 L 0.626986 0.2 L 0.626986 0.189475 L 0.642857 0.189475 L 0.642857 0.2 L 0.658731 0.2 L 0.658731 0.189475 L 0.674602 0.189475 L 0.674602 0.178946 L 0.658731 0.178946 L 0.658731 0.189475 L 0.642857 0.189475 L 0.642857 0.178946 L 0.626986 0.178946 L 0.626986 0.168421 L 0.642857 0.168421 L 0.642857 0.157896 L 0.626986 0.157896 L 0.626986 0.147367 L 0.642857 0.147367 L 0.642857 0.157896 L 0.658731 0.157896 L 0.658731 0.147367 L 0.674602 0.147367 L 0.674602 0.136842 L 0.658731 0.136842 L 0.658731 0.147367 L 0.642857 0.147367 L 0.642857 0.136842 L 0.626986 0.136842 L 0.626986 0.126317 L 0.642857 0.126317 L 0.642857 0.115788 L 0.626986 0.115788 L 0.626986 0.126317 L 0.611111 0.126317 L 0.611111 0.115788 L 0.595237 0.115788 L 0.595237 0.126317 L 0.579366 0.126317 L 0.579366 0.136842 L 0.595237 0.136842 L 0.595237 0.147367 L 0.579366 0.147367 L 0.579366 0.136842 L 0.563491 0.136842 L 0.563491 0.126317 L 0.579366 0.126317 L 0.579366 0.115788 L 0.563491 0.115788 L 0.563491 0.105263 L 0.579366 0.105263 L 0.579366 0.115788 L 0.595237 0.115788 L 0.595237 0.105263 L 0.611111 0.105263 L 0.611111 0.0947374 L 0.595237 0.0947374 L 0.595237 0.0842122 L 0.611111 0.0842122 L 0.611111 0.0947374 L 0.626986 0.0947374 L 0.626986 0.105263 L 0.611111 0.105263 L 0.611111 0.115788 L 0.626986 0.115788 L 0.626986 0.105263 L 0.642857 0.105263 L 0.642857 0.115788 L 0.658731 0.115788 L 0.658731 0.105263 L 0.674602 0.105263 L 0.674602 0.0947374 L 0.658731 0.0947374 L 0.658731 0.0842122 L 0.674602 0.0842122 L 0.674602 0.0947374 L 0.690477 0.0947374 L 0.690477 0.105263 L 0.674602 0.105263 L 0.674602 0.115788 L 0.690477 0.115788 L 0.690477 0.126317 L 0.674602 0.126317 L 0.674602 0.115788 L 0.658731 0.115788 L 0.658731 0.126317 L 0.642857 0.126317 L 0.642857 0.136842 L 0.658731 0.136842 L 0.658731 0.126317 L 0.674602 0.126317 L 0.674602 0.136842 L 0.690477 0.136842 L 0.690477 0.147367 L 0.674602 0.147367 L 0.674602 0.157896 L 0.690477 0.157896 L 0.690477 0.147367 L 0.706348 0.147367 L 0.706348 0.157896 L 0.722222 0.157896 L 0.722222 0.147367 L 0.738097 0.147367 L 0.738097 0.136842 L 0.722222 0.136842 L 0.722222 0.147367 L 0.706348 0.147367 L 0.706348 0.136842 L 0.690477 0.136842 L 0.690477 0.126317 L 0.706348 0.126317 L 0.706348 0.115788 L 0.690477 0.115788 L 0.690477 0.105263 L 0.706348 0.105263 L 0.706348 0.115788 L 0.722222 0.115788 L 0.722222 0.105263 L 0.738097 0.105263 L 0.738097 0.0947374 L 0.722222 0.0947374 L 0.722222 0.0842122 L 0.738097 0.0842122 L 0.738097 0.0947374 L 0.753968 0.0947374 L 0.753968 0.105263 L 0.738097 0.105263 L 0.738097 0.115788 L 0.753968 0.115788 L 0.753968 0.105263 L 0.769842 0.105263 L 0.769842 0.115788 L 0.785713 0.115788 L 0.785713 0.105263 L 0.801588 0.105263 L 0.801588 0.0947374 L 0.785713 0.0947374 L 0.785713 0.105263 L 0.769842 0.105263 L 0.769842 0.0947374 L 0.753968 0.0947374 L 0.753968 0.0842122 L 0.769842 0.0842122 L 0.769842 0.0736834 L 0.753968 0.0736834 L 0.753968 0.0631583 L 0.769842 0.0631583 L 0.769842 0.0736834 L 0.785713 0.0736834 L 0.785713 0.0631583 L 0.801588 0.0631583 L 0.801588 0.0526331 L 0.785713 0.0526331 L 0.785713 0.0631583 L 0.769842 0.0631583 L 0.769842 0.0526331 L 0.753968 0.0526331 L 0.753968 0.0421043 L 0.769842 0.0421043 L 0.769842 0.0315791 L 0.753968 0.0315791 L 0.753968 0.0421043 L 0.738097 0.0421043 L 0.738097 0.0315791 L 0.722222 0.0315791 L 0.722222 0.0421043 L 0.706348 0.0421043 L 0.706348 0.0526331 L 0.722222 0.0526331 L 0.722222 0.0631583 L 0.706348 0.0631583 L 0.706348 0.0526331 L 0.690477 0.0526331 L 0.690477 0.0421043 L 0.706348 0.0421043 L 0.706348 0.0315791 L 0.690477 0.0315791 L 0.690477 0.021054 L 0.706348 0.021054 L 0.706348 0.0315791 L 0.722222 0.0315791 L 0.722222 0.021054 L 0.738097 0.021054 L 0.738097 0.0105252 L 0.722222 0.0105252 L 0.722222 0 L 0.738097 0 L 0.738097 0.0105252 L 0.753968 0.0105252 L 0.753968 0.021054 L 0.738097 0.021054 L 0.738097 0.0315791 L 0.753968 0.0315791 L 0.753968 0.021054 L 0.769842 0.021054 L 0.769842 0.0315791 L 0.785713 0.0315791 L 0.785713 0.021054 L 0.801588 0.021054 L 0.801588 0.0105252 L 0.785713 0.0105252 L 0.785713 0 L 0.801588 0 L 0.801588 0.0105252 L 0.817459 0.0105252 L 0.817459 0.021054 L 0.801588 0.021054 L 0.801588 0.0315791 L 0.817459 0.0315791 L 0.817459 0.0421043 L 0.801588 0.0421043 L 0.801588 0.0315791 L 0.785713 0.0315791 L 0.785713 0.0421043 L 0.769842 0.0421043 L 0.769842 0.0526331 L 0.785713 0.0526331 L 0.785713 0.0421043 L 0.801588 0.0421043 L 0.801588 0.0526331 L 0.817459 0.0526331 L 0.817459 0.0631583 L 0.801588 0.0631583 L 0.801588 0.0736834 L 0.817459 0.0736834 L 0.817459 0.0631583 L 0.833333 0.0631583 L 0.833333 0.0736834 L 0.849208 0.0736834 L 0.849208 0.0631583 L 0.865079 0.0631583 L 0.865079 0.0526331 L 0.849208 0.0526331 L 0.849208 0.0421043 L 0.865079 0.0421043 L 0.865079 0.0526331 L 0.880953 0.0526331 L 0.880953 0.0631583 L 0.865079 0.0631583 L 0.865079 0.0736834 L 0.880953 0.0736834 L 0.880953 0.0842122 L 0.865079 0.0842122 L 0.865079 0.0736834 L 0.849208 0.0736834 L 0.849208 0.0842122 L 0.833333 0.0842122 L 0.833333 0.0947374 L 0.849208 0.0947374 L 0.849208 0.105263 L 0.833333 0.105263 L 0.833333 0.0947374 L 0.817459 0.0947374 L 0.817459 0.0842122 L 0.833333 0.0842122 L 0.833333 0.0736834 L 0.817459 0.0736834 L 0.817459 0.0842122 L 0.801588 0.0842122 L 0.801588 0.0736834 L 0.785713 0.0736834 L 0.785713 0.0842122 L 0.769842 0.0842122 L 0.769842 0.0947374 L 0.785713 0.0947374 L 0.785713 0.0842122 L 0.801588 0.0842122 L 0.801588 0.0947374 L 0.817459 0.0947374 L 0.817459 0.105263 L 0.801588 0.105263 L 0.801588 0.115788 L 0.817459 0.115788 L 0.817459 0.126317 L 0.801588 0.126317 L 0.801588 0.115788 L 0.785713 0.115788 L 0.785713 0.126317 L 0.769842 0.126317 L 0.769842 0.136842 L 0.785713 0.136842 L 0.785713 0.126317 L 0.801588 0.126317 L 0.801588 0.136842 L 0.817459 0.136842 L 0.817459 0.147367 L 0.801588 0.147367 L 0.801588 0.157896 L 0.817459 0.157896 L 0.817459 0.147367 L 0.833333 0.147367 L 0.833333 0.157896 L 0.849208 0.157896 L 0.849208 0.147367 L 0.865079 0.147367 L 0.865079 0.136842 L 0.849208 0.136842 L 0.849208 0.147367 L 0.833333 0.147367 L 0.833333 0.136842 L 0.817459 0.136842 L 0.817459 0.126317 L 0.833333 0.126317 L 0.833333 0.115788 L 0.817459 0.115788 L 0.817459 0.105263 L 0.833333 0.105263 L 0.833333 0.115788 L 0.849208 0.115788 L 0.849208 0.105263 L 0.865079 0.105263 L 0.865079 0.0947374 L 0.849208 0.0947374 L 0.849208 0.0842122 L 0.865079 0.0842122 L 0.865079 0.0947374 L 0.880953 0.0947374 L 0.880953 0.105263 L 0.865079 0.105263 L 0.865079 0.115788 L 0.880953 0.115788 L 0.880953 0.105263 L 0.896824 0.105263 L 0.896824 0.115788 L 0.912699 0.115788 L 0.912699 0.105263 L 0.92857 0.105263 L 0.92857 0.0947374 L 0.912699 0.0947374 L 0.912699 0.0842122 L 0.92857 0.0842122 L 0.92857 0.0947374 L 0.944444 0.0947374 L 0.944444 0.105263 L 0.92857 0.105263 L 0.92857 0.115788 L 0.944444 0.115788 L 0.944444 0.126317 L 0.92857 0.126317 L 0.92857 0.115788 L 0.912699 0.115788 L 0.912699 0.126317 L 0.896824 0.126317 L 0.896824 0.136842 L 0.912699 0.136842 L 0.912699 0.126317 L 0.92857 0.126317 L 0.92857 0.136842 L 0.944444 0.136842 L 0.944444 0.147367 L 0.92857 0.147367 L 0.92857 0.157896 L 0.944444 0.157896 L 0.944444 0.147367 L 0.960319 0.147367 L 0.960319 0.157896 L 0.97619 0.157896 L 0.97619 0.147367 L 0.992065 0.147367 L 0.992065 0.136842 L 0.97619 0.136842 L 0.97619 0.147367 L 0.960319 0.147367 L 0.960319 0.136842 L 0.944444 0.136842 L 0.944444 0.126317 L 0.960319 0.126317 L 0.960319 0.115788 L 0.944444 0.115788 L 0.944444 0.105263 L 0.960319 0.105263 L 0.960319 0.115788 L 0.97619 0.115788 L 0.97619 0.105263 L 0.992065 0.105263 L 0.992065 0.0947374 L 0.97619 0.0947374 L 0.97619 0.0842122 L 0.992065 0.0842122 L 0.992065 0.0947374 L 1.007935 0.0947374 L 1.007935 0.105263 L 0.992065 0.105263 L 0.992065 0.115788 L 1.007935 0.115788 L 1.007935 0.105263 L 1.02381 0.105263 L 1.02381 0.115788 L 1.039681 0.115788 L 1.039681 0.105263 L 1.055556 0.105263 L 1.055556 0.0947374 L 1.039681 0.0947374 L 1.039681 0.105263 L 1.02381 0.105263 L 1.02381 0.0947374 L 1.007935 0.0947374 L 1.007935 0.0842122 L 1.02381 0.0842122 L 1.02381 0.0736834 L 1.007935 0.0736834 L 1.007935 0.0631583 L 1.02381 0.0631583 L 1.02381 0.0736834 L 1.039681 0.0736834 L 1.039681 0.0631583 L 1.055556 0.0631583 L 1.055556 0.0526331 L 1.039681 0.0526331 L 1.039681 0.0631583 L 1.02381 0.0631583 L 1.02381 0.0526331 L 1.007935 0.0526331 L 1.007935 0.0421043 L 1.02381 0.0421043 L 1.02381 0.0315791 L 1.007935 0.0315791 L 1.007935 0.0421043 L 0.992065 0.0421043 L 0.992065 0.0315791 L 0.97619 0.0315791 L 0.97619 0.0421043 L 0.960319 0.0421043 L 0.960319 0.0526331 L 0.97619 0.0526331 L 0.97619 0.0631583 L 0.960319 0.0631583 L 0.960319 0.0526331 L 0.944444 0.0526331 L 0.944444 0.0421043 L 0.960319 0.0421043 L 0.960319 0.0315791 L 0.944444 0.0315791 L 0.944444 0.021054 L 0.960319 0.021054 L 0.960319 0.0315791 L 0.97619 0.0315791 L 0.97619 0.021054 L 0.992065 0.021054 L 0.992065 0.0105252 L 0.97619 0.0105252 L 0.97619 0 L 0.992065 0 L 0.992065 0.0105252 L 1.007935 0.0105252 L 1.007935 0.021054 L 0.992065 0.021054 L 0.992065 0.0315791 L 1.007935 0.0315791 L 1.007935 0.021054 L 1.02381 0.021054 L 1.02381 0.0315791 L 1.039681 0.0315791 L 1.039681 0.021054 L 1.055556 0.021054 L 1.055556 0.0105252 L 1.039681 0.0105252 L 1.039681 0 L 1.055556 0 L 1.055556 0.0105252 L 1.07143 0.0105252 L 1.07143 0.021054 L 1.055556 0.021054 L 1.055556 0.0315791 L 1.07143 0.0315791 L 1.07143 0.0421043 L 1.055556 0.0421043 L 1.055556 0.0315791 L 1.039681 0.0315791 L 1.039681 0.0421043 L 1.02381 0.0421043 L 1.02381 0.0526331 L 1.039681 0.0526331 L 1.039681 0.0421043 L 1.055556 0.0421043 L 1.055556 0.0526331 L 1.07143 0.0526331 L 1.07143 0.0631583 L 1.055556 0.0631583 L 1.055556 0.0736834 L 1.07143 0.0736834 L 1.07143 0.0631583 L 1.087301 0.0631583 L 1.087301 0.0736834 L 1.103176 0.0736834 L 1.103176 0.0631583 L 1.119047 0.0631583 L 1.119047 0.0526331 L 1.103176 0.0526331 L 1.103176 0.0421043 L 1.119047 0.0421043 L 1.119047 0.0526331 L 1.134921 0.0526331 L 1.134921 0.0631583 L 1.119047 0.0631583 L 1.119047 0.0736834 L 1.134921 0.0736834 L 1.134921 0.0842122 L 1.119047 0.0842122 L 1.119047 0.0736834 L 1.103176 0.0736834 L 1.103176 0.0842122 L 1.087301 0.0842122 L 1.087301 0.0947374 L 1.103176 0.0947374 L 1.103176 0.105263 L 1.087301 0.105263 L 1.087301 0.0947374 L 1.07143 0.0947374 L 1.07143 0.0842122 L 1.087301 0.0842122 L 1.087301 0.0736834 L 1.07143 0.0736834 L 1.07143 0.0842122 L 1.055556 0.0842122 L 1.055556 0.0736834 L 1.039681 0.0736834 L 1.039681 0.0842122 L 1.02381 0.0842122 L 1.02381 0.0947374 L 1.039681 0.0947374 L 1.039681 0.0842122 L 1.055556 0.0842122 L 1.055556 0.0947374 L 1.07143 0.0947374 L 1.07143 0.105263 L 1.055556 0.105263 L 1.055556 0.115788 L 1.07143 0.115788 L 1.07143 0.126317 L 1.055556 0.126317 L 1.055556 0.115788 L 1.039681 0.115788 L 1.039681 0.126317 L 1.02381 0.126317 L 1.02381 0.136842 L 1.039681 0.136842 L 1.039681 0.126317 L 1.055556 0.126317 L 1.055556 0.136842 L 1.07143 0.136842 L 1.07143 0.147367 L 1.055556 0.147367 L 1.055556 0.157896 L 1.07143 0.157896 L 1.07143 0.147367 L 1.087301 0.147367 L 1.087301 0.157896 L 1.103176 0.157896 L 1.103176 0.147367 L 1.119047 0.147367 L 1.119047 0.136842 L 1.103176 0.136842 L 1.103176 0.126317 L 1.119047 0.126317 L 1.119047 0.136842 L 1.134921 0.136842 L 1.134921 0.147367 L 1.119047 0.147367 L 1.119047 0.157896 L 1.134921 0.157896 L 1.134921 0.168421 L 1.119047 0.168421 L 1.119047 0.157896 L 1.103176 0.157896 L 1.103176 0.168421 L 1.087301 0.168421 L 1.087301 0.178946 L 1.103176 0.178946 L 1.103176 0.189475 L 1.087301 0.189475 L 1.087301 0.178946 L 1.07143 0.178946 L 1.07143 0.168421 L 1.087301 0.168421 L 1.087301 0.157896 L 1.07143 0.157896 L 1.07143 0.168421 L 1.055556 0.168421 L 1.055556 0.157896 L 1.039681 0.157896 L 1.039681 0.168421 L 1.02381 0.168421 L 1.02381 0.178946 L 1.039681 0.178946 L 1.039681 0.189475 L 1.02381 0.189475 L 1.02381 0.178946 L 1.007935 0.178946 L 1.007935 0.168421 L 1.02381 0.168421 L 1.02381 0.157896 L 1.007935 0.157896 L 1.007935 0.147367 L 1.02381 0.147367 L 1.02381 0.157896 L 1.039681 0.157896 L 1.039681 0.147367 L 1.055556 0.147367 L 1.055556 0.136842 L 1.039681 0.136842 L 1.039681 0.147367 L 1.02381 0.147367 L 1.02381 0.136842 L 1.007935 0.136842 L 1.007935 0.126317 L 1.02381 0.126317 L 1.02381 0.115788 L 1.007935 0.115788 L 1.007935 0.126317 L 0.992065 0.126317 L 0.992065 0.115788 L 0.97619 0.115788 L 0.97619 0.126317 L 0.960319 0.126317 L 0.960319 0.136842 L 0.97619 0.136842 L 0.97619 0.126317 L 0.992065 0.126317 L 0.992065 0.136842 L 1.007935 0.136842 L 1.007935 0.147367 L 0.992065 0.147367 L 0.992065 0.157896 L 1.007935 0.157896 L 1.007935 0.168421 L 0.992065 0.168421 L 0.992065 0.157896 L 0.97619 0.157896 L 0.97619 0.168421 L 0.960319 0.168421 L 0.960319 0.178946 L 0.97619 0.178946 L 0.97619 0.189475 L 0.960319 0.189475 L 0.960319 0.178946 L 0.944444 0.178946 L 0.944444 0.168421 L 0.960319 0.168421 L 0.960319 0.157896 L 0.944444 0.157896 L 0.944444 0.168421 L 0.92857 0.168421 L 0.92857 0.157896 L 0.912699 0.157896 L 0.912699 0.168421 L 0.896824 0.168421 L 0.896824 0.178946 L 0.912699 0.178946 L 0.912699 0.168421 L 0.92857 0.168421 L 0.92857 0.178946 L 0.944444 0.178946 L 0.944444 0.189475 L 0.92857 0.189475 L 0.92857 0.2 L 0.944444 0.2 L 0.944444 0.210525 L 0.92857 0.210525 L 0.92857 0.2 L 0.912699 0.2 L 0.912699 0.210525 L 0.896824 0.210525 L 0.896824 0.221054 L 0.912699 0.221054 L 0.912699 0.210525 L 0.92857 0.210525 L 0.92857 0.221054 L 0.944444 0.221054 L 0.944444 0.231579 L 0.92857 0.231579 L 0.92857 0.242104 L 0.944444 0.242104 L 0.944444 0.231579 L 0.960319 0.231579 L 0.960319 0.242104 L 0.97619 0.242104 L 0.97619 0.231579 L 0.992065 0.231579 L 0.992065 0.221054 L 0.97619 0.221054 L 0.97619 0.231579 L 0.960319 0.231579 L 0.960319 0.221054 L 0.944444 0.221054 L 0.944444 0.210525 L 0.960319 0.210525 L 0.960319 0.2 L 0.944444 0.2 L 0.944444 0.189475 L 0.960319 0.189475 L 0.960319 0.2 L 0.97619 0.2 L 0.97619 0.189475 L 0.992065 0.189475 L 0.992065 0.178946 L 0.97619 0.178946 L 0.97619 0.168421 L 0.992065 0.168421 L 0.992065 0.178946 L 1.007935 0.178946 L 1.007935 0.189475 L 0.992065 0.189475 L 0.992065 0.2 L 1.007935 0.2 L 1.007935 0.189475 L 1.02381 0.189475 L 1.02381 0.2 L 1.039681 0.2 L 1.039681 0.189475 L 1.055556 0.189475 L 1.055556 0.178946 L 1.039681 0.178946 L 1.039681 0.168421 L 1.055556 0.168421 L 1.055556 0.178946 L 1.07143 0.178946 L 1.07143 0.189475 L 1.055556 0.189475 L 1.055556 0.2 L 1.07143 0.2 L 1.07143 0.210525 L 1.055556 0.210525 L 1.055556 0.2 L 1.039681 0.2 L 1.039681 0.210525 L 1.02381 0.210525 L 1.02381 0.221054 L 1.039681 0.221054 L 1.039681 0.210525 L 1.055556 0.210525 L 1.055556 0.221054 L 1.07143 0.221054 L 1.07143 0.231579 L 1.055556 0.231579 L 1.055556 0.242104 L 1.07143 0.242104 L 1.07143 0.231579 L 1.087301 0.231579 L 1.087301 0.242104 L 1.103176 0.242104 L 1.103176 0.231579 L 1.119047 0.231579 L 1.119047 0.221054 L 1.103176 0.221054 L 1.103176 0.210525 L 1.119047 0.210525 L 1.119047 0.221054 L 1.134921 0.221054 L 1.134921 0.231579 L 1.119047 0.231579 L 1.119047 0.242104 L 1.134921 0.242104 L 1.134921 0.252633 L 1.119047 0.252633 L 1.119047 0.242104 L 1.103176 0.242104 L 1.103176 0.252633 L 1.087301 0.252633 L 1.087301 0.263158 L 1.103176 0.263158 L 1.103176 0.273683 L 1.087301 0.273683 L 1.087301 0.263158 L 1.07143 0.263158 L 1.07143 0.252633 L 1.087301 0.252633 L 1.087301 0.242104 L 1.07143 0.242104 L 1.07143 0.252633 L 1.055556 0.252633 L 1.055556 0.242104 L 1.039681 0.242104 L 1.039681 0.252633 L 1.02381 0.252633 L 1.02381 0.263158 L 1.039681 0.263158 L 1.039681 0.252633 L 1.055556 0.252633 L 1.055556 0.263158 L 1.07143 0.263158 L 1.07143 0.273683 L 1.055556 0.273683 L 1.055556 0.284212 L 1.07143 0.284212 L 1.07143 0.294737 L 1.055556 0.294737 L 1.055556 0.284212 L 1.039681 0.284212 L 1.039681 0.294737 L 1.02381 0.294737 L 1.02381 0.305263 L 1.039681 0.305263 L 1.039681 0.294737 L 1.055556 0.294737 L 1.055556 0.305263 L 1.07143 0.305263 L 1.07143 0.315788 L 1.055556 0.315788 L 1.055556 0.326317 L 1.07143 0.326317 L 1.07143 0.315788 L 1.087301 0.315788 L 1.087301 0.326317 L 1.103176 0.326317 L 1.103176 0.315788 L 1.119047 0.315788 L 1.119047 0.305263 L 1.103176 0.305263 L 1.103176 0.315788 L 1.087301 0.315788 L 1.087301 0.305263 L 1.07143 0.305263 L 1.07143 0.294737 L 1.087301 0.294737 L 1.087301 0.284212 L 1.07143 0.284212 L 1.07143 0.273683 L 1.087301 0.273683 L 1.087301 0.284212 L 1.103176 0.284212 L 1.103176 0.273683 L 1.119047 0.273683 L 1.119047 0.263158 L 1.103176 0.263158 L 1.103176 0.252633 L 1.119047 0.252633 L 1.119047 0.263158 L 1.134921 0.263158 L 1.134921 0.273683 L 1.119047 0.273683 L 1.119047 0.284212 L 1.134921 0.284212 L 1.134921 0.273683 L 1.150792 0.273683 L 1.150792 0.284212 L 1.166667 0.284212 L 1.166667 0.273683 L 1.182541 0.273683 L 1.182541 0.263158 L 1.166667 0.263158 L 1.166667 0.252633 L 1.182541 0.252633 L 1.182541 0.263158 L 1.198412 0.263158 L 1.198412 0.273683 L 1.182541 0.273683 L 1.182541 0.284212 L 1.198412 0.284212 L 1.198412 0.294737 L 1.182541 0.294737 L 1.182541 0.284212 L 1.166667 0.284212 L 1.166667 0.294737 L 1.150792 0.294737 L 1.150792 0.305263 L 1.166667 0.305263 L 1.166667 0.294737 L 1.182541 0.294737 L 1.182541 0.305263 L 1.198412 0.305263 L 1.198412 0.315788 L 1.182541 0.315788 L 1.182541 0.326317 L 1.198412 0.326317 L 1.198412 0.315788 L 1.214287 0.315788 L 1.214287 0.326317 L 1.230158 0.326317 L 1.230158 0.315788 L 1.246032 0.315788 L 1.246032 0.305263 L 1.230158 0.305263 L 1.230158 0.315788 L 1.214287 0.315788 L 1.214287 0.305263 L 1.198412 0.305263 L 1.198412 0.294737 L 1.214287 0.294737 L 1.214287 0.284212 L 1.198412 0.284212 L 1.198412 0.273683 L 1.214287 0.273683 L 1.214287 0.284212 L 1.230158 0.284212 L 1.230158 0.273683 L 1.246032 0.273683 L 1.246032 0.263158 L 1.230158 0.263158 L 1.230158 0.252633 L 1.246032 0.252633 L 1.246032 0.263158 L 1.261903 0.263158 L 1.261903 0.273683 L 1.246032 0.273683 L 1.246032 0.284212 L 1.261903 0.284212 L 1.261903 0.273683 L 1.277778 0.273683 L 1.277778 0.284212 L 1.293652 0.284212 L 1.293652 0.273683 L 1.309523 0.273683 L 1.309523 0.263158 L 1.293652 0.263158 L 1.293652 0.273683 L 1.277778 0.273683 L 1.277778 0.263158 L 1.261903 0.263158 L 1.261903 0.252633 L 1.277778 0.252633 L 1.277778 0.242104 L 1.261903 0.242104 L 1.261903 0.231579 L 1.277778 0.231579 L 1.277778 0.242104 L 1.293652 0.242104 L 1.293652 0.231579 L 1.309523 0.231579 L 1.309523 0.221054 L 1.293652 0.221054 L 1.293652 0.231579 L 1.277778 0.231579 L 1.277778 0.221054 L 1.261903 0.221054 L 1.261903 0.210525 L 1.277778 0.210525 L 1.277778 0.2 L 1.261903 0.2 L 1.261903 0.210525 L 1.246032 0.210525 L 1.246032 0.2 L 1.230158 0.2 L 1.230158 0.210525 L 1.214287 0.210525 L 1.214287 0.221054 L 1.230158 0.221054 L 1.230158 0.231579 L 1.214287 0.231579 L 1.214287 0.221054 L 1.198412 0.221054 L 1.198412 0.210525 L 1.214287 0.210525 L 1.214287 0.2 L 1.198412 0.2 L 1.198412 0.189475 L 1.214287 0.189475 L 1.214287 0.2 L 1.230158 0.2 L 1.230158 0.189475 L 1.246032 0.189475 L 1.246032 0.178946 L 1.230158 0.178946 L 1.230158 0.168421 L 1.246032 0.168421 L 1.246032 0.178946 L 1.261903 0.178946 L 1.261903 0.189475 L 1.246032 0.189475 L 1.246032 0.2 L 1.261903 0.2 L 1.261903 0.189475 L 1.277778 0.189475 L 1.277778 0.2 L 1.293652 0.2 L 1.293652 0.189475 L 1.309523 0.189475 L 1.309523 0.178946 L 1.293652 0.178946 L 1.293652 0.168421 L 1.309523 0.168421 L 1.309523 0.178946 L 1.325398 0.178946 L 1.325398 0.189475 L 1.309523 0.189475 L 1.309523 0.2 L 1.325398 0.2 L 1.325398 0.210525 L 1.309523 0.210525 L 1.309523 0.2 L 1.293652 0.2 L 1.293652 0.210525 L 1.277778 0.210525 L 1.277778 0.221054 L 1.293652 0.221054 L 1.293652 0.210525 L 1.309523 0.210525 L 1.309523 0.221054 L 1.325398 0.221054 L 1.325398 0.231579 L 1.309523 0.231579 L 1.309523 0.242104 L 1.325398 0.242104 L 1.325398 0.231579 L 1.341269 0.231579 L 1.341269 0.242104 L 1.357143 0.242104 L 1.357143 0.231579 L 1.373014 0.231579 L 1.373014 0.221054 L 1.357143 0.221054 L 1.357143 0.210525 L 1.373014 0.210525 L 1.373014 0.221054 L 1.388889 0.221054 L 1.388889 0.231579 L 1.373014 0.231579 L 1.373014 0.242104 L 1.388889 0.242104 L 1.388889 0.252633 L 1.373014 0.252633 L 1.373014 0.242104 L 1.357143 0.242104 L 1.357143 0.252633 L 1.341269 0.252633 L 1.341269 0.263158 L 1.357143 0.263158 L 1.357143 0.273683 L 1.341269 0.273683 L 1.341269 0.263158 L 1.325398 0.263158 L 1.325398 0.252633 L 1.341269 0.252633 L 1.341269 0.242104 L 1.325398 0.242104 L 1.325398 0.252633 L 1.309523 0.252633 L 1.309523 0.242104 L 1.293652 0.242104 L 1.293652 0.252633 L 1.277778 0.252633 L 1.277778 0.263158 L 1.293652 0.263158 L 1.293652 0.252633 L 1.309523 0.252633 L 1.309523 0.263158 L 1.325398 0.263158 L 1.325398 0.273683 L 1.309523 0.273683 L 1.309523 0.284212 L 1.325398 0.284212 L 1.325398 0.294737 L 1.309523 0.294737 L 1.309523 0.284212 L 1.293652 0.284212 L 1.293652 0.294737 L 1.277778 0.294737 L 1.277778 0.305263 L 1.293652 0.305263 L 1.293652 0.294737 L 1.309523 0.294737 L 1.309523 0.305263 L 1.325398 0.305263 L 1.325398 0.315788 L 1.309523 0.315788 L 1.309523 0.326317 L 1.325398 0.326317 L 1.325398 0.315788 L 1.341269 0.315788 L 1.341269 0.326317 L 1.357143 0.326317 L 1.357143 0.315788 L 1.373014 0.315788 L 1.373014 0.305263 L 1.357143 0.305263 L 1.357143 0.294737 L 1.373014 0.294737 L 1.373014 0.305263 L 1.388889 0.305263 L 1.388889 0.315788 L 1.373014 0.315788 L 1.373014 0.326317 L 1.388889 0.326317 L 1.388889 0.336842 L 1.373014 0.336842 L 1.373014 0.326317 L 1.357143 0.326317 L 1.357143 0.336842 L 1.341269 0.336842 L 1.341269 0.347367 L 1.357143 0.347367 L 1.357143 0.357896 L 1.341269 0.357896 L 1.341269 0.347367 L 1.325398 0.347367 L 1.325398 0.336842 L 1.341269 0.336842 L 1.341269 0.326317 L 1.325398 0.326317 L 1.325398 0.336842 L 1.309523 0.336842 L 1.309523 0.326317 L 1.293652 0.326317 L 1.293652 0.336842 L 1.277778 0.336842 L 1.277778 0.347367 L 1.293652 0.347367 L 1.293652 0.357896 L 1.277778 0.357896 L 1.277778 0.347367 L 1.261903 0.347367 L 1.261903 0.336842 L 1.277778 0.336842 L 1.277778 0.326317 L 1.261903 0.326317 L 1.261903 0.315788 L 1.277778 0.315788 L 1.277778 0.326317 L 1.293652 0.326317 L 1.293652 0.315788 L 1.309523 0.315788 L 1.309523 0.305263 L 1.293652 0.305263 L 1.293652 0.315788 L 1.277778 0.315788 L 1.277778 0.305263 L 1.261903 0.305263 L 1.261903 0.294737 L 1.277778 0.294737 L 1.277778 0.284212 L 1.261903 0.284212 L 1.261903 0.294737 L 1.246032 0.294737 L 1.246032 0.284212 L 1.230158 0.284212 L 1.230158 0.294737 L 1.214287 0.294737 L 1.214287 0.305263 L 1.230158 0.305263 L 1.230158 0.294737 L 1.246032 0.294737 L 1.246032 0.305263 L 1.261903 0.305263 L 1.261903 0.315788 L 1.246032 0.315788 L 1.246032 0.326317 L 1.261903 0.326317 L 1.261903 0.336842 L 1.246032 0.336842 L 1.246032 0.326317 L 1.230158 0.326317 L 1.230158 0.336842 L 1.214287 0.336842 L 1.214287 0.347367 L 1.230158 0.347367 L 1.230158 0.357896 L 1.214287 0.357896 L 1.214287 0.347367 L 1.198412 0.347367 L 1.198412 0.336842 L 1.214287 0.336842 L 1.214287 0.326317 L 1.198412 0.326317 L 1.198412 0.336842 L 1.182541 0.336842 L 1.182541 0.326317 L 1.166667 0.326317 L 1.166667 0.336842 L 1.150792 0.336842 L 1.150792 0.347367 L 1.166667 0.347367 L 1.166667 0.336842 L 1.182541 0.336842 L 1.182541 0.347367 L 1.198412 0.347367 L 1.198412 0.357896 L 1.182541 0.357896 L 1.182541 0.368421 L 1.198412 0.368421 L 1.198412 0.378946 L 1.182541 0.378946 L 1.182541 0.368421 L 1.166667 0.368421 L 1.166667 0.378946 L 1.150792 0.378946 L 1.150792 0.389475 L 1.166667 0.389475 L 1.166667 0.378946 L 1.182541 0.378946 L 1.182541 0.389475 L 1.198412 0.389475 L 1.198412 0.4 L 1.182541 0.4 L 1.182541 0.410525 L 1.198412 0.410525 L 1.198412 0.4 L 1.214287 0.4 L 1.214287 0.410525 L 1.230158 0.410525 L 1.230158 0.4 L 1.246032 0.4 L 1.246032 0.389475 L 1.230158 0.389475 L 1.230158 0.378946 L 1.246032 0.378946 L 1.246032 0.389475 L 1.261903 0.389475 L 1.261903 0.4 L 1.246032 0.4 L 1.246032 0.410525 L 1.261903 0.410525 L 1.261903 0.421054 L 1.246032 0.421054 L 1.246032 0.410525 L 1.230158 0.410525 L 1.230158 0.421054 L 1.214287 0.421054 L 1.214287 0.431579 L 1.230158 0.431579 L 1.230158 0.442104 L 1.214287 0.442104 L 1.214287 0.431579 L 1.198412 0.431579 L 1.198412 0.421054 L 1.214287 0.421054 L 1.214287 0.410525 L 1.198412 0.410525 L 1.198412 0.421054 L 1.182541 0.421054 L 1.182541 0.410525 L 1.166667 0.410525 L 1.166667 0.421054 L 1.150792 0.421054 L 1.150792 0.431579 L 1.166667 0.431579 L 1.166667 0.442104 L 1.150792 0.442104 L 1.150792 0.431579 L 1.134921 0.431579 L 1.134921 0.421054 L 1.150792 0.421054 L 1.150792 0.410525 L 1.134921 0.410525 L 1.134921 0.4 L 1.150792 0.4 L 1.150792 0.410525 L 1.166667 0.410525 L 1.166667 0.4 L 1.182541 0.4 L 1.182541 0.389475 L 1.166667 0.389475 L 1.166667 0.4 L 1.150792 0.4 L 1.150792 0.389475 L 1.134921 0.389475 L 1.134921 0.378946 L 1.150792 0.378946 L 1.150792 0.368421 L 1.134921 0.368421 L 1.134921 0.378946 L 1.119047 0.378946 L 1.119047 0.368421 L 1.103176 0.368421 L 1.103176 0.378946 L 1.087301 0.378946 L 1.087301 0.389475 L 1.103176 0.389475 L 1.103176 0.4 L 1.087301 0.4 L 1.087301 0.389475 L 1.07143 0.389475 L 1.07143 0.378946 L 1.087301 0.378946 L 1.087301 0.368421 L 1.07143 0.368421 L 1.07143 0.357896 L 1.087301 0.357896 L 1.087301 0.368421 L 1.103176 0.368421 L 1.103176 0.357896 L 1.119047 0.357896 L 1.119047 0.347367 L 1.103176 0.347367 L 1.103176 0.336842 L 1.119047 0.336842 L 1.119047 0.347367 L 1.134921 0.347367 L 1.134921 0.357896 L 1.119047 0.357896 L 1.119047 0.368421 L 1.134921 0.368421 L 1.134921 0.357896 L 1.150792 0.357896 L 1.150792 0.368421 L 1.166667 0.368421 L 1.166667 0.357896 L 1.182541 0.357896 L 1.182541 0.347367 L 1.166667 0.347367 L 1.166667 0.357896 L 1.150792 0.357896 L 1.150792 0.347367 L 1.134921 0.347367 L 1.134921 0.336842 L 1.150792 0.336842 L 1.150792 0.326317 L 1.134921 0.326317 L 1.134921 0.315788 L 1.150792 0.315788 L 1.150792 0.326317 L 1.166667 0.326317 L 1.166667 0.315788 L 1.182541 0.315788 L 1.182541 0.305263 L 1.166667 0.305263 L 1.166667 0.315788 L 1.150792 0.315788 L 1.150792 0.305263 L 1.134921 0.305263 L 1.134921 0.294737 L 1.150792 0.294737 L 1.150792 0.284212 L 1.134921 0.284212 L 1.134921 0.294737 L 1.119047 0.294737 L 1.119047 0.284212 L 1.103176 0.284212 L 1.103176 0.294737 L 1.087301 0.294737 L 1.087301 0.305263 L 1.103176 0.305263 L 1.103176 0.294737 L 1.119047 0.294737 L 1.119047 0.305263 L 1.134921 0.305263 L 1.134921 0.315788 L 1.119047 0.315788 L 1.119047 0.326317 L 1.134921 0.326317 L 1.134921 0.336842 L 1.119047 0.336842 L 1.119047 0.326317 L 1.103176 0.326317 L 1.103176 0.336842 L 1.087301 0.336842 L 1.087301 0.347367 L 1.103176 0.347367 L 1.103176 0.357896 L 1.087301 0.357896 L 1.087301 0.347367 L 1.07143 0.347367 L 1.07143 0.336842 L 1.087301 0.336842 L 1.087301 0.326317 L 1.07143 0.326317 L 1.07143 0.336842 L 1.055556 0.336842 L 1.055556 0.326317 L 1.039681 0.326317 L 1.039681 0.336842 L 1.02381 0.336842 L 1.02381 0.347367 L 1.039681 0.347367 L 1.039681 0.357896 L 1.02381 0.357896 L 1.02381 0.347367 L 1.007935 0.347367 L 1.007935 0.336842 L 1.02381 0.336842 L 1.02381 0.326317 L 1.007935 0.326317 L 1.007935 0.315788 L 1.02381 0.315788 L 1.02381 0.326317 L 1.039681 0.326317 L 1.039681 0.315788 L 1.055556 0.315788 L 1.055556 0.305263 L 1.039681 0.305263 L 1.039681 0.315788 L 1.02381 0.315788 L 1.02381 0.305263 L 1.007935 0.305263 L 1.007935 0.294737 L 1.02381 0.294737 L 1.02381 0.284212 L 1.007935 0.284212 L 1.007935 0.294737 L 0.992065 0.294737 L 0.992065 0.284212 L 0.97619 0.284212 L 0.97619 0.294737 L 0.960319 0.294737 L 0.960319 0.305263 L 0.97619 0.305263 L 0.97619 0.294737 L 0.992065 0.294737 L 0.992065 0.305263 L 1.007935 0.305263 L 1.007935 0.315788 L 0.992065 0.315788 L 0.992065 0.326317 L 1.007935 0.326317 L 1.007935 0.336842 L 0.992065 0.336842 L 0.992065 0.326317 L 0.97619 0.326317 L 0.97619 0.336842 L 0.960319 0.336842 L 0.960319 0.347367 L 0.97619 0.347367 L 0.97619 0.357896 L 0.960319 0.357896 L 0.960319 0.347367 L 0.944444 0.347367 L 0.944444 0.336842 L 0.960319 0.336842 L 0.960319 0.326317 L 0.944444 0.326317 L 0.944444 0.336842 L 0.92857 0.336842 L 0.92857 0.326317 L 0.912699 0.326317 L 0.912699 0.336842 L 0.896824 0.336842 L 0.896824 0.347367 L 0.912699 0.347367 L 0.912699 0.336842 L 0.92857 0.336842 L 0.92857 0.347367 L 0.944444 0.347367 L 0.944444 0.357896 L 0.92857 0.357896 L 0.92857 0.368421 L 0.944444 0.368421 L 0.944444 0.378946 L 0.92857 0.378946 L 0.92857 0.368421 L 0.912699 0.368421 L 0.912699 0.378946 L 0.896824 0.378946 L 0.896824 0.389475 L 0.912699 0.389475 L 0.912699 0.378946 L 0.92857 0.378946 L 0.92857 0.389475 L 0.944444 0.389475 L 0.944444 0.4 L 0.92857 0.4 L 0.92857 0.410525 L 0.944444 0.410525 L 0.944444 0.4 L 0.960319 0.4 L 0.960319 0.410525 L 0.97619 0.410525 L 0.97619 0.4 L 0.992065 0.4 L 0.992065 0.389475 L 0.97619 0.389475 L 0.97619 0.4 L 0.960319 0.4 L 0.960319 0.389475 L 0.944444 0.389475 L 0.944444 0.378946 L 0.960319 0.378946 L 0.960319 0.368421 L 0.944444 0.368421 L 0.944444 0.357896 L 0.960319 0.357896 L 0.960319 0.368421 L 0.97619 0.368421 L 0.97619 0.357896 L 0.992065 0.357896 L 0.992065 0.347367 L 0.97619 0.347367 L 0.97619 0.336842 L 0.992065 0.336842 L 0.992065 0.347367 L 1.007935 0.347367 L 1.007935 0.357896 L 0.992065 0.357896 L 0.992065 0.368421 L 1.007935 0.368421 L 1.007935 0.357896 L 1.02381 0.357896 L 1.02381 0.368421 L 1.039681 0.368421 L 1.039681 0.357896 L 1.055556 0.357896 L 1.055556 0.347367 L 1.039681 0.347367 L 1.039681 0.336842 L 1.055556 0.336842 L 1.055556 0.347367 L 1.07143 0.347367 L 1.07143 0.357896 L 1.055556 0.357896 L 1.055556 0.368421 L 1.07143 0.368421 L 1.07143 0.378946 L 1.055556 0.378946 L 1.055556 0.368421 L 1.039681 0.368421 L 1.039681 0.378946 L 1.02381 0.378946 L 1.02381 0.389475 L 1.039681 0.389475 L 1.039681 0.378946 L 1.055556 0.378946 L 1.055556 0.389475 L 1.07143 0.389475 L 1.07143 0.4 L 1.055556 0.4 L 1.055556 0.410525 L 1.07143 0.410525 L 1.07143 0.4 L 1.087301 0.4 L 1.087301 0.410525 L 1.103176 0.410525 L 1.103176 0.4 L 1.119047 0.4 L 1.119047 0.389475 L 1.103176 0.389475 L 1.103176 0.378946 L 1.119047 0.378946 L 1.119047 0.389475 L 1.134921 0.389475 L 1.134921 0.4 L 1.119047 0.4 L 1.119047 0.410525 L 1.134921 0.410525 L 1.134921 0.421054 L 1.119047 0.421054 L 1.119047 0.410525 L 1.103176 0.410525 L 1.103176 0.421054 L 1.087301 0.421054 L 1.087301 0.431579 L 1.103176 0.431579 L 1.103176 0.442104 L 1.087301 0.442104 L 1.087301 0.431579 L 1.07143 0.431579 L 1.07143 0.421054 L 1.087301 0.421054 L 1.087301 0.410525 L 1.07143 0.410525 L 1.07143 0.421054 L 1.055556 0.421054 L 1.055556 0.410525 L 1.039681 0.410525 L 1.039681 0.421054 L 1.02381 0.421054 L 1.02381 0.431579 L 1.039681 0.431579 L 1.039681 0.421054 L 1.055556 0.421054 L 1.055556 0.431579 L 1.07143 0.431579 L 1.07143 0.442104 L 1.055556 0.442104 L 1.055556 0.452633 L 1.07143 0.452633 L 1.07143 0.463158 L 1.055556 0.463158 L 1.055556 0.452633 L 1.039681 0.452633 L 1.039681 0.463158 L 1.02381 0.463158 L 1.02381 0.473683 L 1.039681 0.473683 L 1.039681 0.463158 L 1.055556 0.463158 L 1.055556 0.473683 L 1.07143 0.473683 L 1.07143 0.484212 L 1.055556 0.484212 L 1.055556 0.494737 L 1.07143 0.494737 L 1.07143 0.484212 L 1.087301 0.484212 L 1.087301 0.494737 L 1.103176 0.494737 L 1.103176 0.484212 L 1.119047 0.484212 L 1.119047 0.473683 L 1.103176 0.473683 L 1.103176 0.463158 L 1.119047 0.463158 L 1.119047 0.473683 L 1.134921 0.473683 L 1.134921 0.484212 L 1.119047 0.484212 L 1.119047 0.494737 L 1.134921 0.494737 L 1.134921 0.505263 L 1.119047 0.505263 L 1.119047 0.494737 L 1.103176 0.494737 L 1.103176 0.505263 L 1.087301 0.505263 L 1.087301 0.515788 L 1.103176 0.515788 L 1.103176 0.526317 L 1.087301 0.526317 L 1.087301 0.515788 L 1.07143 0.515788 L 1.07143 0.505263 L 1.087301 0.505263 L 1.087301 0.494737 L 1.07143 0.494737 L 1.07143 0.505263 L 1.055556 0.505263 L 1.055556 0.494737 L 1.039681 0.494737 L 1.039681 0.505263 L 1.02381 0.505263 L 1.02381 0.515788 L 1.039681 0.515788 L 1.039681 0.526317 L 1.02381 0.526317 L 1.02381 0.515788 L 1.007935 0.515788 L 1.007935 0.505263 L 1.02381 0.505263 L 1.02381 0.494737 L 1.007935 0.494737 L 1.007935 0.484212 L 1.02381 0.484212 L 1.02381 0.494737 L 1.039681 0.494737 L 1.039681 0.484212 L 1.055556 0.484212 L 1.055556 0.473683 L 1.039681 0.473683 L 1.039681 0.484212 L 1.02381 0.484212 L 1.02381 0.473683 L 1.007935 0.473683 L 1.007935 0.463158 L 1.02381 0.463158 L 1.02381 0.452633 L 1.007935 0.452633 L 1.007935 0.463158 L 0.992065 0.463158 L 0.992065 0.452633 L 0.97619 0.452633 L 0.97619 0.463158 L 0.960319 0.463158 L 0.960319 0.473683 L 0.97619 0.473683 L 0.97619 0.463158 L 0.992065 0.463158 L 0.992065 0.473683 L 1.007935 0.473683 L 1.007935 0.484212 L 0.992065 0.484212 L 0.992065 0.494737 L 1.007935 0.494737 L 1.007935 0.505263 L 0.992065 0.505263 L 0.992065 0.494737 L 0.97619 0.494737 L 0.97619 0.505263 L 0.960319 0.505263 L 0.960319 0.515788 L 0.97619 0.515788 L 0.97619 0.526317 L 0.960319 0.526317 L 0.960319 0.515788 L 0.944444 0.515788 L 0.944444 0.505263 L 0.960319 0.505263 L 0.960319 0.494737 L 0.944444 0.494737 L 0.944444 0.505263 L 0.92857 0.505263 L 0.92857 0.494737 L 0.912699 0.494737 L 0.912699 0.505263 L 0.896824 0.505263 L 0.896824 0.515788 L 0.912699 0.515788 L 0.912699 0.505263 L 0.92857 0.505263 L 0.92857 0.515788 L 0.944444 0.515788 L 0.944444 0.526317 L 0.92857 0.526317 L 0.92857 0.536842 L 0.944444 0.536842 L 0.944444 0.547367 L 0.92857 0.547367 L 0.92857 0.536842 L 0.912699 0.536842 L 0.912699 0.547367 L 0.896824 0.547367 L 0.896824 0.557896 L 0.912699 0.557896 L 0.912699 0.547367 L 0.92857 0.547367 L 0.92857 0.557896 L 0.944444 0.557896 L 0.944444 0.568421 L 0.92857 0.568421 L 0.92857 0.578946 L 0.944444 0.578946 L 0.944444 0.568421 L 0.960319 0.568421 L 0.960319 0.578946 L 0.97619 0.578946 L 0.97619 0.568421 L 0.992065 0.568421 L 0.992065 0.557896 L 0.97619 0.557896 L 0.97619 0.568421 L 0.960319 0.568421 L 0.960319 0.557896 L 0.944444 0.557896 L 0.944444 0.547367 L 0.960319 0.547367 L 0.960319 0.536842 L 0.944444 0.536842 L 0.944444 0.526317 L 0.960319 0.526317 L 0.960319 0.536842 L 0.97619 0.536842 L 0.97619 0.526317 L 0.992065 0.526317 L 0.992065 0.515788 L 0.97619 0.515788 L 0.97619 0.505263 L 0.992065 0.505263 L 0.992065 0.515788 L 1.007935 0.515788 L 1.007935 0.526317 L 0.992065 0.526317 L 0.992065 0.536842 L 1.007935 0.536842 L 1.007935 0.526317 L 1.02381 0.526317 L 1.02381 0.536842 L 1.039681 0.536842 L 1.039681 0.526317 L 1.055556 0.526317 L 1.055556 0.515788 L 1.039681 0.515788 L 1.039681 0.505263 L 1.055556 0.505263 L 1.055556 0.515788 L 1.07143 0.515788 L 1.07143 0.526317 L 1.055556 0.526317 L 1.055556 0.536842 L 1.07143 0.536842 L 1.07143 0.547367 L 1.055556 0.547367 L 1.055556 0.536842 L 1.039681 0.536842 L 1.039681 0.547367 L 1.02381 0.547367 L 1.02381 0.557896 L 1.039681 0.557896 L 1.039681 0.547367 L 1.055556 0.547367 L 1.055556 0.557896 L 1.07143 0.557896 L 1.07143 0.568421 L 1.055556 0.568421 L 1.055556 0.578946 L 1.07143 0.578946 L 1.07143 0.568421 L 1.087301 0.568421 L 1.087301 0.578946 L 1.103176 0.578946 L 1.103176 0.568421 L 1.119047 0.568421 L 1.119047 0.557896 L 1.103176 0.557896 L 1.103176 0.547367 L 1.119047 0.547367 L 1.119047 0.557896 L 1.134921 0.557896 L 1.134921 0.568421 L 1.119047 0.568421 L 1.119047 0.578946 L 1.134921 0.578946 L 1.134921 0.589475 L 1.119047 0.589475 L 1.119047 0.578946 L 1.103176 0.578946 L 1.103176 0.589475 L 1.087301 0.589475 L 1.087301 0.6 L 1.103176 0.6 L 1.103176 0.610525 L 1.087301 0.610525 L 1.087301 0.6 L 1.07143 0.6 L 1.07143 0.589475 L 1.087301 0.589475 L 1.087301 0.578946 L 1.07143 0.578946 L 1.07143 0.589475 L 1.055556 0.589475 L 1.055556 0.578946 L 1.039681 0.578946 L 1.039681 0.589475 L 1.02381 0.589475 L 1.02381 0.6 L 1.039681 0.6 L 1.039681 0.589475 L 1.055556 0.589475 L 1.055556 0.6 L 1.07143 0.6 L 1.07143 0.610525 L 1.055556 0.610525 L 1.055556 0.621054 L 1.07143 0.621054 L 1.07143 0.631579 L 1.055556 0.631579 L 1.055556 0.621054 L 1.039681 0.621054 L 1.039681 0.631579 L 1.02381 0.631579 L 1.02381 0.642104 L 1.039681 0.642104 L 1.039681 0.631579 L 1.055556 0.631579 L 1.055556 0.642104 L 1.07143 0.642104 L 1.07143 0.652633 L 1.055556 0.652633 L 1.055556 0.663158 L 1.07143 0.663158 L 1.07143 0.652633 L 1.087301 0.652633 L 1.087301 0.663158 L 1.103176 0.663158 L 1.103176 0.652633 L 1.119047 0.652633 L 1.119047 0.642104 L 1.103176 0.642104 L 1.103176 0.652633 L 1.087301 0.652633 L 1.087301 0.642104 L 1.07143 0.642104 L 1.07143 0.631579 L 1.087301 0.631579 L 1.087301 0.621054 L 1.07143 0.621054 L 1.07143 0.610525 L 1.087301 0.610525 L 1.087301 0.621054 L 1.103176 0.621054 L 1.103176 0.610525 L 1.119047 0.610525 L 1.119047 0.6 L 1.103176 0.6 L 1.103176 0.589475 L 1.119047 0.589475 L 1.119047 0.6 L 1.134921 0.6 L 1.134921 0.610525 L 1.119047 0.610525 L 1.119047 0.621054 L 1.134921 0.621054 L 1.134921 0.610525 L 1.150792 0.610525 L 1.150792 0.621054 L 1.166667 0.621054 L 1.166667 0.610525 L 1.182541 0.610525 L 1.182541 0.6 L 1.166667 0.6 L 1.166667 0.589475 L 1.182541 0.589475 L 1.182541 0.6 L 1.198412 0.6 L 1.198412 0.610525 L 1.182541 0.610525 L 1.182541 0.621054 L 1.198412 0.621054 L 1.198412 0.631579 L 1.182541 0.631579 L 1.182541 0.621054 L 1.166667 0.621054 L 1.166667 0.631579 L 1.150792 0.631579 L 1.150792 0.642104 L 1.166667 0.642104 L 1.166667 0.631579 L 1.182541 0.631579 L 1.182541 0.642104 L 1.198412 0.642104 L 1.198412 0.652633 L 1.182541 0.652633 L 1.182541 0.663158 L 1.198412 0.663158 L 1.198412 0.652633 L 1.214287 0.652633 L 1.214287 0.663158 L 1.230158 0.663158 L 1.230158 0.652633 L 1.246032 0.652633 L 1.246032 0.642104 L 1.230158 0.642104 L 1.230158 0.652633 L 1.214287 0.652633 L 1.214287 0.642104 L 1.198412 0.642104 L 1.198412 0.631579 L 1.214287 0.631579 L 1.214287 0.621054 L 1.198412 0.621054 L 1.198412 0.610525 L 1.214287 0.610525 L 1.214287 0.621054 L 1.230158 0.621054 L 1.230158 0.610525 L 1.246032 0.610525 L 1.246032 0.6 L 1.230158 0.6 L 1.230158 0.589475 L 1.246032 0.589475 L 1.246032 0.6 L 1.261903 0.6 L 1.261903 0.610525 L 1.246032 0.610525 L 1.246032 0.621054 L 1.261903 0.621054 L 1.261903 0.610525 L 1.277778 0.610525 L 1.277778 0.621054 L 1.293652 0.621054 L 1.293652 0.610525 L 1.309523 0.610525 L 1.309523 0.6 L 1.293652 0.6 L 1.293652 0.610525 L 1.277778 0.610525 L 1.277778 0.6 L 1.261903 0.6 L 1.261903 0.589475 L 1.277778 0.589475 L 1.277778 0.578946 L 1.261903 0.578946 L 1.261903 0.568421 L 1.277778 0.568421 L 1.277778 0.578946 L 1.293652 0.578946 L 1.293652 0.568421 L 1.309523 0.568421 L 1.309523 0.557896 L 1.293652 0.557896 L 1.293652 0.568421 L 1.277778 0.568421 L 1.277778 0.557896 L 1.261903 0.557896 L 1.261903 0.547367 L 1.277778 0.547367 L 1.277778 0.536842 L 1.261903 0.536842 L 1.261903 0.547367 L 1.246032 0.547367 L 1.246032 0.536842 L 1.230158 0.536842 L 1.230158 0.547367 L 1.214287 0.547367 L 1.214287 0.557896 L 1.230158 0.557896 L 1.230158 0.568421 L 1.214287 0.568421 L 1.214287 0.557896 L 1.198412 0.557896 L 1.198412 0.547367 L 1.214287 0.547367 L 1.214287 0.536842 L 1.198412 0.536842 L 1.198412 0.526317 L 1.214287 0.526317 L 1.214287 0.536842 L 1.230158 0.536842 L 1.230158 0.526317 L 1.246032 0.526317 L 1.246032 0.515788 L 1.230158 0.515788 L 1.230158 0.505263 L 1.246032 0.505263 L 1.246032 0.515788 L 1.261903 0.515788 L 1.261903 0.526317 L 1.246032 0.526317 L 1.246032 0.536842 L 1.261903 0.536842 L 1.261903 0.526317 L 1.277778 0.526317 L 1.277778 0.536842 L 1.293652 0.536842 L 1.293652 0.526317 L 1.309523 0.526317 L 1.309523 0.515788 L 1.293652 0.515788 L 1.293652 0.505263 L 1.309523 0.505263 L 1.309523 0.515788 L 1.325398 0.515788 L 1.325398 0.526317 L 1.309523 0.526317 L 1.309523 0.536842 L 1.325398 0.536842 L 1.325398 0.547367 L 1.309523 0.547367 L 1.309523 0.536842 L 1.293652 0.536842 L 1.293652 0.547367 L 1.277778 0.547367 L 1.277778 0.557896 L 1.293652 0.557896 L 1.293652 0.547367 L 1.309523 0.547367 L 1.309523 0.557896 L 1.325398 0.557896 L 1.325398 0.568421 L 1.309523 0.568421 L 1.309523 0.578946 L 1.325398 0.578946 L 1.325398 0.568421 L 1.341269 0.568421 L 1.341269 0.578946 L 1.357143 0.578946 L 1.357143 0.568421 L 1.373014 0.568421 L 1.373014 0.557896 L 1.357143 0.557896 L 1.357143 0.547367 L 1.373014 0.547367 L 1.373014 0.557896 L 1.388889 0.557896 L 1.388889 0.568421 L 1.373014 0.568421 L 1.373014 0.578946 L 1.388889 0.578946 L 1.388889 0.589475 L 1.373014 0.589475 L 1.373014 0.578946 L 1.357143 0.578946 L 1.357143 0.589475 L 1.341269 0.589475 L 1.341269 0.6 L 1.357143 0.6 L 1.357143 0.610525 L 1.341269 0.610525 L 1.341269 0.6 L 1.325398 0.6 L 1.325398 0.589475 L 1.341269 0.589475 L 1.341269 0.578946 L 1.325398 0.578946 L 1.325398 0.589475 L 1.309523 0.589475 L 1.309523 0.578946 L 1.293652 0.578946 L 1.293652 0.589475 L 1.277778 0.589475 L 1.277778 0.6 L 1.293652 0.6 L 1.293652 0.589475 L 1.309523 0.589475 L 1.309523 0.6 L 1.325398 0.6 L 1.325398 0.610525 L 1.309523 0.610525 L 1.309523 0.621054 L 1.325398 0.621054 L 1.325398 0.631579 L 1.309523 0.631579 L 1.309523 0.621054 L 1.293652 0.621054 L 1.293652 0.631579 L 1.277778 0.631579 L 1.277778 0.642104 L 1.293652 0.642104 L 1.293652 0.631579 L 1.309523 0.631579 L 1.309523 0.642104 L 1.325398 0.642104 L 1.325398 0.652633 L 1.309523 0.652633 L 1.309523 0.663158 L 1.325398 0.663158 L 1.325398 0.652633 L 1.341269 0.652633 L 1.341269 0.663158 L 1.357143 0.663158 L 1.357143 0.652633 L 1.373014 0.652633 L 1.373014 0.642104 L 1.357143 0.642104 L 1.357143 0.631579 L 1.373014 0.631579 L 1.373014 0.642104 L 1.388889 0.642104 L 1.388889 0.652633 L 1.373014 0.652633 L 1.373014 0.663158 L 1.388889 0.663158 L 1.388889 0.673683 L 1.373014 0.673683 L 1.373014 0.663158 L 1.357143 0.663158 L 1.357143 0.673683 L 1.341269 0.673683 L 1.341269 0.684212 L 1.357143 0.684212 L 1.357143 0.694737 L 1.341269 0.694737 L 1.341269 0.684212 L 1.325398 0.684212 L 1.325398 0.673683 L 1.341269 0.673683 L 1.341269 0.663158 L 1.325398 0.663158 L 1.325398 0.673683 L 1.309523 0.673683 L 1.309523 0.663158 L 1.293652 0.663158 L 1.293652 0.673683 L 1.277778 0.673683 L 1.277778 0.684212 L 1.293652 0.684212 L 1.293652 0.694737 L 1.277778 0.694737 L 1.277778 0.684212 L 1.261903 0.684212 L 1.261903 0.673683 L 1.277778 0.673683 L 1.277778 0.663158 L 1.261903 0.663158 L 1.261903 0.652633 L 1.277778 0.652633 L 1.277778 0.663158 L 1.293652 0.663158 L 1.293652 0.652633 L 1.309523 0.652633 L 1.309523 0.642104 L 1.293652 0.642104 L 1.293652 0.652633 L 1.277778 0.652633 L 1.277778 0.642104 L 1.261903 0.642104 L 1.261903 0.631579 L 1.277778 0.631579 L 1.277778 0.621054 L 1.261903 0.621054 L 1.261903 0.631579 L 1.246032 0.631579 L 1.246032 0.621054 L 1.230158 0.621054 L 1.230158 0.631579 L 1.214287 0.631579 L 1.214287 0.642104 L 1.230158 0.642104 L 1.230158 0.631579 L 1.246032 0.631579 L 1.246032 0.642104 L 1.261903 0.642104 L 1.261903 0.652633 L 1.246032 0.652633 L 1.246032 0.663158 L 1.261903 0.663158 L 1.261903 0.673683 L 1.246032 0.673683 L 1.246032 0.663158 L 1.230158 0.663158 L 1.230158 0.673683 L 1.214287 0.673683 L 1.214287 0.684212 L 1.230158 0.684212 L 1.230158 0.694737 L 1.214287 0.694737 L 1.214287 0.684212 L 1.198412 0.684212 L 1.198412 0.673683 L 1.214287 0.673683 L 1.214287 0.663158 L 1.198412 0.663158 L 1.198412 0.673683 L 1.182541 0.673683 L 1.182541 0.663158 L 1.166667 0.663158 L 1.166667 0.673683 L 1.150792 0.673683 L 1.150792 0.684212 L 1.166667 0.684212 L 1.166667 0.673683 L 1.182541 0.673683 L 1.182541 0.684212 L 1.198412 0.684212 L 1.198412 0.694737 L 1.182541 0.694737 L 1.182541 0.705263 L 1.198412 0.705263 L 1.198412 0.715788 L 1.182541 0.715788 L 1.182541 0.705263 L 1.166667 0.705263 L 1.166667 0.715788 L 1.150792 0.715788 L 1.150792 0.726317 L 1.166667 0.726317 L 1.166667 0.715788 L 1.182541 0.715788 L 1.182541 0.726317 L 1.198412 0.726317 L 1.198412 0.736842 L 1.182541 0.736842 L 1.182541 0.747367 L 1.198412 0.747367 L 1.198412 0.736842 L 1.214287 0.736842 L 1.214287 0.747367 L 1.230158 0.747367 L 1.230158 0.736842 L 1.246032 0.736842 L 1.246032 0.726317 L 1.230158 0.726317 L 1.230158 0.715788 L 1.246032 0.715788 L 1.246032 0.726317 L 1.261903 0.726317 L 1.261903 0.736842 L 1.246032 0.736842 L 1.246032 0.747367 L 1.261903 0.747367 L 1.261903 0.757896 L 1.246032 0.757896 L 1.246032 0.747367 L 1.230158 0.747367 L 1.230158 0.757896 L 1.214287 0.757896 L 1.214287 0.768421 L 1.230158 0.768421 L 1.230158 0.778946 L 1.214287 0.778946 L 1.214287 0.768421 L 1.198412 0.768421 L 1.198412 0.757896 L 1.214287 0.757896 L 1.214287 0.747367 L 1.198412 0.747367 L 1.198412 0.757896 L 1.182541 0.757896 L 1.182541 0.747367 L 1.166667 0.747367 L 1.166667 0.757896 L 1.150792 0.757896 L 1.150792 0.768421 L 1.166667 0.768421 L 1.166667 0.778946 L 1.150792 0.778946 L 1.150792 0.768421 L 1.134921 0.768421 L 1.134921 0.757896 L 1.150792 0.757896 L 1.150792 0.747367 L 1.134921 0.747367 L 1.134921 0.736842 L 1.150792 0.736842 L 1.150792 0.747367 L 1.166667 0.747367 L 1.166667 0.736842 L 1.182541 0.736842 L 1.182541 0.726317 L 1.166667 0.726317 L 1.166667 0.736842 L 1.150792 0.736842 L 1.150792 0.726317 L 1.134921 0.726317 L 1.134921 0.715788 L 1.150792 0.715788 L 1.150792 0.705263 L 1.134921 0.705263 L 1.134921 0.715788 L 1.119047 0.715788 L 1.119047 0.705263 L 1.103176 0.705263 L 1.103176 0.715788 L 1.087301 0.715788 L 1.087301 0.726317 L 1.103176 0.726317 L 1.103176 0.736842 L 1.087301 0.736842 L 1.087301 0.726317 L 1.07143 0.726317 L 1.07143 0.715788 L 1.087301 0.715788 L 1.087301 0.705263 L 1.07143 0.705263 L 1.07143 0.694737 L 1.087301 0.694737 L 1.087301 0.705263 L 1.103176 0.705263 L 1.103176 0.694737 L 1.119047 0.694737 L 1.119047 0.684212 L 1.103176 0.684212 L 1.103176 0.673683 L 1.119047 0.673683 L 1.119047 0.684212 L 1.134921 0.684212 L 1.134921 0.694737 L 1.119047 0.694737 L 1.119047 0.705263 L 1.134921 0.705263 L 1.134921 0.694737 L 1.150792 0.694737 L 1.150792 0.705263 L 1.166667 0.705263 L 1.166667 0.694737 L 1.182541 0.694737 L 1.182541 0.684212 L 1.166667 0.684212 L 1.166667 0.694737 L 1.150792 0.694737 L 1.150792 0.684212 L 1.134921 0.684212 L 1.134921 0.673683 L 1.150792 0.673683 L 1.150792 0.663158 L 1.134921 0.663158 L 1.134921 0.652633 L 1.150792 0.652633 L 1.150792 0.663158 L 1.166667 0.663158 L 1.166667 0.652633 L 1.182541 0.652633 L 1.182541 0.642104 L 1.166667 0.642104 L 1.166667 0.652633 L 1.150792 0.652633 L 1.150792 0.642104 L 1.134921 0.642104 L 1.134921 0.631579 L 1.150792 0.631579 L 1.150792 0.621054 L 1.134921 0.621054 L 1.134921 0.631579 L 1.119047 0.631579 L 1.119047 0.621054 L 1.103176 0.621054 L 1.103176 0.631579 L 1.087301 0.631579 L 1.087301 0.642104 L 1.103176 0.642104 L 1.103176 0.631579 L 1.119047 0.631579 L 1.119047 0.642104 L 1.134921 0.642104 L 1.134921 0.652633 L 1.119047 0.652633 L 1.119047 0.663158 L 1.134921 0.663158 L 1.134921 0.673683 L 1.119047 0.673683 L 1.119047 0.663158 L 1.103176 0.663158 L 1.103176 0.673683 L 1.087301 0.673683 L 1.087301 0.684212 L 1.103176 0.684212 L 1.103176 0.694737 L 1.087301 0.694737 L 1.087301 0.684212 L 1.07143 0.684212 L 1.07143 0.673683 L 1.087301 0.673683 L 1.087301 0.663158 L 1.07143 0.663158 L 1.07143 0.673683 L 1.055556 0.673683 L 1.055556 0.663158 L 1.039681 0.663158 L 1.039681 0.673683 L 1.02381 0.673683 L 1.02381 0.684212 L 1.039681 0.684212 L 1.039681 0.694737 L 1.02381 0.694737 L 1.02381 0.684212 L 1.007935 0.684212 L 1.007935 0.673683 L 1.02381 0.673683 L 1.02381 0.663158 L 1.007935 0.663158 L 1.007935 0.652633 L 1.02381 0.652633 L 1.02381 0.663158 L 1.039681 0.663158 L 1.039681 0.652633 L 1.055556 0.652633 L 1.055556 0.642104 L 1.039681 0.642104 L 1.039681 0.652633 L 1.02381 0.652633 L 1.02381 0.642104 L 1.007935 0.642104 L 1.007935 0.631579 L 1.02381 0.631579 L 1.02381 0.621054 L 1.007935 0.621054 L 1.007935 0.631579 L 0.992065 0.631579 L 0.992065 0.621054 L 0.97619 0.621054 L 0.97619 0.631579 L 0.960319 0.631579 L 0.960319 0.642104 L 0.97619 0.642104 L 0.97619 0.631579 L 0.992065 0.631579 L 0.992065 0.642104 L 1.007935 0.642104 L 1.007935 0.652633 L 0.992065 0.652633 L 0.992065 0.663158 L 1.007935 0.663158 L 1.007935 0.673683 L 0.992065 0.673683 L 0.992065 0.663158 L 0.97619 0.663158 L 0.97619 0.673683 L 0.960319 0.673683 L 0.960319 0.684212 L 0.97619 0.684212 L 0.97619 0.694737 L 0.960319 0.694737 L 0.960319 0.684212 L 0.944444 0.684212 L 0.944444 0.673683 L 0.960319 0.673683 L 0.960319 0.663158 L 0.944444 0.663158 L 0.944444 0.673683 L 0.92857 0.673683 L 0.92857 0.663158 L 0.912699 0.663158 L 0.912699 0.673683 L 0.896824 0.673683 L 0.896824 0.684212 L 0.912699 0.684212 L 0.912699 0.673683 L 0.92857 0.673683 L 0.92857 0.684212 L 0.944444 0.684212 L 0.944444 0.694737 L 0.92857 0.694737 L 0.92857 0.705263 L 0.944444 0.705263 L 0.944444 0.715788 L 0.92857 0.715788 L 0.92857 0.705263 L 0.912699 0.705263 L 0.912699 0.715788 L 0.896824 0.715788 L 0.896824 0.726317 L 0.912699 0.726317 L 0.912699 0.715788 L 0.92857 0.715788 L 0.92857 0.726317 L 0.944444 0.726317 L 0.944444 0.736842 L 0.92857 0.736842 L 0.92857 0.747367 L 0.944444 0.747367 L 0.944444 0.736842 L 0.960319 0.736842 L 0.960319 0.747367 L 0.97619 0.747367 L 0.97619 0.736842 L 0.992065 0.736842 L 0.992065 0.726317 L 0.97619 0.726317 L 0.97619 0.715788 L 0.992065 0.715788 L 0.992065 0.726317 L 1.007935 0.726317 L 1.007935 0.736842 L 0.992065 0.736842 L 0.992065 0.747367 L 1.007935 0.747367 L 1.007935 0.757896 L 0.992065 0.757896 L 0.992065 0.747367 L 0.97619 0.747367 L 0.97619 0.757896 L 0.960319 0.757896 L 0.960319 0.768421 L 0.97619 0.768421 L 0.97619 0.778946 L 0.960319 0.778946 L 0.960319 0.768421 L 0.944444 0.768421 L 0.944444 0.757896 L 0.960319 0.757896 L 0.960319 0.747367 L 0.944444 0.747367 L 0.944444 0.757896 L 0.92857 0.757896 L 0.92857 0.747367 L 0.912699 0.747367 L 0.912699 0.757896 L 0.896824 0.757896 L 0.896824 0.768421 L 0.912699 0.768421 L 0.912699 0.778946 L 0.896824 0.778946 L 0.896824 0.768421 L 0.880953 0.768421 L 0.880953 0.757896 L 0.896824 0.757896 L 0.896824 0.747367 L 0.880953 0.747367 L 0.880953 0.736842 L 0.896824 0.736842 L 0.896824 0.747367 L 0.912699 0.747367 L 0.912699 0.736842 L 0.92857 0.736842 L 0.92857 0.726317 L 0.912699 0.726317 L 0.912699 0.736842 L 0.896824 0.736842 L 0.896824 0.726317 L 0.880953 0.726317 L 0.880953 0.715788 L 0.896824 0.715788 L 0.896824 0.705263 L 0.880953 0.705263 L 0.880953 0.715788 L 0.865079 0.715788 L 0.865079 0.705263 L 0.849208 0.705263 L 0.849208 0.715788 L 0.833333 0.715788 L 0.833333 0.726317 L 0.849208 0.726317 L 0.849208 0.736842 L 0.833333 0.736842 L 0.833333 0.726317 L 0.817459 0.726317 L 0.817459 0.715788 L 0.833333 0.715788 L 0.833333 0.705263 L 0.817459 0.705263 L 0.817459 0.694737 L 0.833333 0.694737 L 0.833333 0.705263 L 0.849208 0.705263 L 0.849208 0.694737 L 0.865079 0.694737 L 0.865079 0.684212 L 0.849208 0.684212 L 0.849208 0.673683 L 0.865079 0.673683 L 0.865079 0.684212 L 0.880953 0.684212 L 0.880953 0.694737 L 0.865079 0.694737 L 0.865079 0.705263 L 0.880953 0.705263 L 0.880953 0.694737 L 0.896824 0.694737 L 0.896824 0.705263 L 0.912699 0.705263 L 0.912699 0.694737 L 0.92857 0.694737 L 0.92857 0.684212 L 0.912699 0.684212 L 0.912699 0.694737 L 0.896824 0.694737 L 0.896824 0.684212 L 0.880953 0.684212 L 0.880953 0.673683 L 0.896824 0.673683 L 0.896824 0.663158 L 0.880953 0.663158 L 0.880953 0.652633 L 0.896824 0.652633 L 0.896824 0.663158 L 0.912699 0.663158 L 0.912699 0.652633 L 0.92857 0.652633 L 0.92857 0.642104 L 0.912699 0.642104 L 0.912699 0.652633 L 0.896824 0.652633 L 0.896824 0.642104 L 0.880953 0.642104 L 0.880953 0.631579 L 0.896824 0.631579 L 0.896824 0.621054 L 0.880953 0.621054 L 0.880953 0.631579 L 0.865079 0.631579 L 0.865079 0.621054 L 0.849208 0.621054 L 0.849208 0.631579 L 0.833333 0.631579 L 0.833333 0.642104 L 0.849208 0.642104 L 0.849208 0.652633 L 0.833333 0.652633 L 0.833333 0.642104 L 0.817459 0.642104 L 0.817459 0.631579 L 0.833333 0.631579 L 0.833333 0.621054 L 0.817459 0.621054 L 0.817459 0.610525 L 0.833333 0.610525 L 0.833333 0.621054 L 0.849208 0.621054 L 0.849208 0.610525 L 0.865079 0.610525 L 0.865079 0.6 L 0.849208 0.6 L 0.849208 0.589475 L 0.865079 0.589475 L 0.865079 0.6 L 0.880953 0.6 L 0.880953 0.610525 L 0.865079 0.610525 L 0.865079 0.621054 L 0.880953 0.621054 L 0.880953 0.610525 L 0.896824 0.610525 L 0.896824 0.621054 L 0.912699 0.621054 L 0.912699 0.610525 L 0.92857 0.610525 L 0.92857 0.6 L 0.912699 0.6 L 0.912699 0.589475 L 0.92857 0.589475 L 0.92857 0.6 L 0.944444 0.6 L 0.944444 0.610525 L 0.92857 0.610525 L 0.92857 0.621054 L 0.944444 0.621054 L 0.944444 0.631579 L 0.92857 0.631579 L 0.92857 0.621054 L 0.912699 0.621054 L 0.912699 0.631579 L 0.896824 0.631579 L 0.896824 0.642104 L 0.912699 0.642104 L 0.912699 0.631579 L 0.92857 0.631579 L 0.92857 0.642104 L 0.944444 0.642104 L 0.944444 0.652633 L 0.92857 0.652633 L 0.92857 0.663158 L 0.944444 0.663158 L 0.944444 0.652633 L 0.960319 0.652633 L 0.960319 0.663158 L 0.97619 0.663158 L 0.97619 0.652633 L 0.992065 0.652633 L 0.992065 0.642104 L 0.97619 0.642104 L 0.97619 0.652633 L 0.960319 0.652633 L 0.960319 0.642104 L 0.944444 0.642104 L 0.944444 0.631579 L 0.960319 0.631579 L 0.960319 0.621054 L 0.944444 0.621054 L 0.944444 0.610525 L 0.960319 0.610525 L 0.960319 0.621054 L 0.97619 0.621054 L 0.97619 0.610525 L 0.992065 0.610525 L 0.992065 0.6 L 0.97619 0.6 L 0.97619 0.589475 L 0.992065 0.589475 L 0.992065 0.6 L 1.007935 0.6 L 1.007935 0.610525 L 0.992065 0.610525 L 0.992065 0.621054 L 1.007935 0.621054 L 1.007935 0.610525 L 1.02381 0.610525 L 1.02381 0.621054 L 1.039681 0.621054 L 1.039681 0.610525 L 1.055556 0.610525 L 1.055556 0.6 L 1.039681 0.6 L 1.039681 0.610525 L 1.02381 0.610525 L 1.02381 0.6 L 1.007935 0.6 L 1.007935 0.589475 L 1.02381 0.589475 L 1.02381 0.578946 L 1.007935 0.578946 L 1.007935 0.568421 L 1.02381 0.568421 L 1.02381 0.578946 L 1.039681 0.578946 L 1.039681 0.568421 L 1.055556 0.568421 L 1.055556 0.557896 L 1.039681 0.557896 L 1.039681 0.568421 L 1.02381 0.568421 L 1.02381 0.557896 L 1.007935 0.557896 L 1.007935 0.547367 L 1.02381 0.547367 L 1.02381 0.536842 L 1.007935 0.536842 L 1.007935 0.547367 L 0.992065 0.547367 L 0.992065 0.536842 L 0.97619 0.536842 L 0.97619 0.547367 L 0.960319 0.547367 L 0.960319 0.557896 L 0.97619 0.557896 L 0.97619 0.547367 L 0.992065 0.547367 L 0.992065 0.557896 L 1.007935 0.557896 L 1.007935 0.568421 L 0.992065 0.568421 L 0.992065 0.578946 L 1.007935 0.578946 L 1.007935 0.589475 L 0.992065 0.589475 L 0.992065 0.578946 L 0.97619 0.578946 L 0.97619 0.589475 L 0.960319 0.589475 L 0.960319 0.6 L 0.97619 0.6 L 0.97619 0.610525 L 0.960319 0.610525 L 0.960319 0.6 L 0.944444 0.6 L 0.944444 0.589475 L 0.960319 0.589475 L 0.960319 0.578946 L 0.944444 0.578946 L 0.944444 0.589475 L 0.92857 0.589475 L 0.92857 0.578946 L 0.912699 0.578946 L 0.912699 0.589475 L 0.896824 0.589475 L 0.896824 0.6 L 0.912699 0.6 L 0.912699 0.610525 L 0.896824 0.610525 L 0.896824 0.6 L 0.880953 0.6 L 0.880953 0.589475 L 0.896824 0.589475 L 0.896824 0.578946 L 0.880953 0.578946 L 0.880953 0.568421 L 0.896824 0.568421 L 0.896824 0.578946 L 0.912699 0.578946 L 0.912699 0.568421 L 0.92857 0.568421 L 0.92857 0.557896 L 0.912699 0.557896 L 0.912699 0.568421 L 0.896824 0.568421 L 0.896824 0.557896 L 0.880953 0.557896 L 0.880953 0.547367 L 0.896824 0.547367 L 0.896824 0.536842 L 0.880953 0.536842 L 0.880953 0.547367 L 0.865079 0.547367 L 0.865079 0.536842 L 0.849208 0.536842 L 0.849208 0.547367 L 0.833333 0.547367 L 0.833333 0.557896 L 0.849208 0.557896 L 0.849208 0.568421 L 0.833333 0.568421 L 0.833333 0.557896 L 0.817459 0.557896 L 0.817459 0.547367 L 0.833333 0.547367 L 0.833333 0.536842 L 0.817459 0.536842 L 0.817459 0.526317 L 0.833333 0.526317 L 0.833333 0.536842 L 0.849208 0.536842 L 0.849208 0.526317 L 0.865079 0.526317 L 0.865079 0.515788 L 0.849208 0.515788 L 0.849208 0.505263 L 0.865079 0.505263 L 0.865079 0.515788 L 0.880953 0.515788 L 0.880953 0.526317 L 0.865079 0.526317 L 0.865079 0.536842 L 0.880953 0.536842 L 0.880953 0.526317 L 0.896824 0.526317 L 0.896824 0.536842 L 0.912699 0.536842 L 0.912699 0.526317 L 0.92857 0.526317 L 0.92857 0.515788 L 0.912699 0.515788 L 0.912699 0.526317 L 0.896824 0.526317 L 0.896824 0.515788 L 0.880953 0.515788 L 0.880953 0.505263 L 0.896824 0.505263 L 0.896824 0.494737 L 0.880953 0.494737 L 0.880953 0.484212 L 0.896824 0.484212 L 0.896824 0.494737 L 0.912699 0.494737 L 0.912699 0.484212 L 0.92857 0.484212 L 0.92857 0.473683 L 0.912699 0.473683 L 0.912699 0.484212 L 0.896824 0.484212 L 0.896824 0.473683 L 0.880953 0.473683 L 0.880953 0.463158 L 0.896824 0.463158 L 0.896824 0.452633 L 0.880953 0.452633 L 0.880953 0.463158 L 0.865079 0.463158 L 0.865079 0.452633 L 0.849208 0.452633 L 0.849208 0.463158 L 0.833333 0.463158 L 0.833333 0.473683 L 0.849208 0.473683 L 0.849208 0.463158 L 0.865079 0.463158 L 0.865079 0.473683 L 0.880953 0.473683 L 0.880953 0.484212 L 0.865079 0.484212 L 0.865079 0.494737 L 0.880953 0.494737 L 0.880953 0.505263 L 0.865079 0.505263 L 0.865079 0.494737 L 0.849208 0.494737 L 0.849208 0.505263 L 0.833333 0.505263 L 0.833333 0.515788 L 0.849208 0.515788 L 0.849208 0.526317 L 0.833333 0.526317 L 0.833333 0.515788 L 0.817459 0.515788 L 0.817459 0.505263 L 0.833333 0.505263 L 0.833333 0.494737 L 0.817459 0.494737 L 0.817459 0.505263 L 0.801588 0.505263 L 0.801588 0.494737 L 0.785713 0.494737 L 0.785713 0.505263 L 0.769842 0.505263 L 0.769842 0.515788 L 0.785713 0.515788 L 0.785713 0.526317 L 0.769842 0.526317 L 0.769842 0.515788 L 0.753968 0.515788 L 0.753968 0.505263 L 0.769842 0.505263 L 0.769842 0.494737 L 0.753968 0.494737 L 0.753968 0.484212 L 0.769842 0.484212 L 0.769842 0.494737 L 0.785713 0.494737 L 0.785713 0.484212 L 0.801588 0.484212 L 0.801588 0.473683 L 0.785713 0.473683 L 0.785713 0.484212 L 0.769842 0.484212 L 0.769842 0.473683 L 0.753968 0.473683 L 0.753968 0.463158 L 0.769842 0.463158 L 0.769842 0.452633 L 0.753968 0.452633 L 0.753968 0.463158 L 0.738097 0.463158 L 0.738097 0.452633 L 0.722222 0.452633 L 0.722222 0.463158 L 0.706348 0.463158 L 0.706348 0.473683 L 0.722222 0.473683 L 0.722222 0.463158 L 0.738097 0.463158 L 0.738097 0.473683 L 0.753968 0.473683 L 0.753968 0.484212 L 0.738097 0.484212 L 0.738097 0.494737 L 0.753968 0.494737 L 0.753968 0.505263 L 0.738097 0.505263 L 0.738097 0.494737 L 0.722222 0.494737 L 0.722222 0.505263 L 0.706348 0.505263 L 0.706348 0.515788 L 0.722222 0.515788 L 0.722222 0.526317 L 0.706348 0.526317 L 0.706348 0.515788 L 0.690477 0.515788 L 0.690477 0.505263 L 0.706348 0.505263 L 0.706348 0.494737 L 0.690477 0.494737 L 0.690477 0.505263 L 0.674602 0.505263 L 0.674602 0.494737 L 0.658731 0.494737 L 0.658731 0.505263 L 0.642857 0.505263 L 0.642857 0.515788 L 0.658731 0.515788 L 0.658731 0.505263 L 0.674602 0.505263 L 0.674602 0.515788 L 0.690477 0.515788 L 0.690477 0.526317 L 0.674602 0.526317 L 0.674602 0.536842 L 0.690477 0.536842 L 0.690477 0.547367 L 0.674602 0.547367 L 0.674602 0.536842 L 0.658731 0.536842 L 0.658731 0.547367 L 0.642857 0.547367 L 0.642857 0.557896 L 0.658731 0.557896 L 0.658731 0.547367 L 0.674602 0.547367 L 0.674602 0.557896 L 0.690477 0.557896 L 0.690477 0.568421 L 0.674602 0.568421 L 0.674602 0.578946 L 0.690477 0.578946 L 0.690477 0.568421 L 0.706348 0.568421 L 0.706348 0.578946 L 0.722222 0.578946 L 0.722222 0.568421 L 0.738097 0.568421 L 0.738097 0.557896 L 0.722222 0.557896 L 0.722222 0.568421 L 0.706348 0.568421 L 0.706348 0.557896 L 0.690477 0.557896 L 0.690477 0.547367 L 0.706348 0.547367 L 0.706348 0.536842 L 0.690477 0.536842 L 0.690477 0.526317 L 0.706348 0.526317 L 0.706348 0.536842 L 0.722222 0.536842 L 0.722222 0.526317 L 0.738097 0.526317 L 0.738097 0.515788 L 0.722222 0.515788 L 0.722222 0.505263 L 0.738097 0.505263 L 0.738097 0.515788 L 0.753968 0.515788 L 0.753968 0.526317 L 0.738097 0.526317 L 0.738097 0.536842 L 0.753968 0.536842 L 0.753968 0.526317 L 0.769842 0.526317 L 0.769842 0.536842 L 0.785713 0.536842 L 0.785713 0.526317 L 0.801588 0.526317 L 0.801588 0.515788 L 0.785713 0.515788 L 0.785713 0.505263 L 0.801588 0.505263 L 0.801588 0.515788 L 0.817459 0.515788 L 0.817459 0.526317 L 0.801588 0.526317 L 0.801588 0.536842 L 0.817459 0.536842 L 0.817459 0.547367 L 0.801588 0.547367 L 0.801588 0.536842 L 0.785713 0.536842 L 0.785713 0.547367 L 0.769842 0.547367 L 0.769842 0.557896 L 0.785713 0.557896 L 0.785713 0.547367 L 0.801588 0.547367 L 0.801588 0.557896 L 0.817459 0.557896 L 0.817459 0.568421 L 0.801588 0.568421 L 0.801588 0.578946 L 0.817459 0.578946 L 0.817459 0.568421 L 0.833333 0.568421 L 0.833333 0.578946 L 0.849208 0.578946 L 0.849208 0.568421 L 0.865079 0.568421 L 0.865079 0.557896 L 0.849208 0.557896 L 0.849208 0.547367 L 0.865079 0.547367 L 0.865079 0.557896 L 0.880953 0.557896 L 0.880953 0.568421 L 0.865079 0.568421 L 0.865079 0.578946 L 0.880953 0.578946 L 0.880953 0.589475 L 0.865079 0.589475 L 0.865079 0.578946 L 0.849208 0.578946 L 0.849208 0.589475 L 0.833333 0.589475 L 0.833333 0.6 L 0.849208 0.6 L 0.849208 0.610525 L 0.833333 0.610525 L 0.833333 0.6 L 0.817459 0.6 L 0.817459 0.589475 L 0.833333 0.589475 L 0.833333 0.578946 L 0.817459 0.578946 L 0.817459 0.589475 L 0.801588 0.589475 L 0.801588 0.578946 L 0.785713 0.578946 L 0.785713 0.589475 L 0.769842 0.589475 L 0.769842 0.6 L 0.785713 0.6 L 0.785713 0.589475 L 0.801588 0.589475 L 0.801588 0.6 L 0.817459 0.6 L 0.817459 0.610525 L 0.801588 0.610525 L 0.801588 0.621054 L 0.817459 0.621054 L 0.817459 0.631579 L 0.801588 0.631579 L 0.801588 0.621054 L 0.785713 0.621054 L 0.785713 0.631579 L 0.769842 0.631579 L 0.769842 0.642104 L 0.785713 0.642104 L 0.785713 0.631579 L 0.801588 0.631579 L 0.801588 0.642104 L 0.817459 0.642104 L 0.817459 0.652633 L 0.801588 0.652633 L 0.801588 0.663158 L 0.817459 0.663158 L 0.817459 0.652633 L 0.833333 0.652633 L 0.833333 0.663158 L 0.849208 0.663158 L 0.849208 0.652633 L 0.865079 0.652633 L 0.865079 0.642104 L 0.849208 0.642104 L 0.849208 0.631579 L 0.865079 0.631579 L 0.865079 0.642104 L 0.880953 0.642104 L 0.880953 0.652633 L 0.865079 0.652633 L 0.865079 0.663158 L 0.880953 0.663158 L 0.880953 0.673683 L 0.865079 0.673683 L 0.865079 0.663158 L 0.849208 0.663158 L 0.849208 0.673683 L 0.833333 0.673683 L 0.833333 0.684212 L 0.849208 0.684212 L 0.849208 0.694737 L 0.833333 0.694737 L 0.833333 0.684212 L 0.817459 0.684212 L 0.817459 0.673683 L 0.833333 0.673683 L 0.833333 0.663158 L 0.817459 0.663158 L 0.817459 0.673683 L 0.801588 0.673683 L 0.801588 0.663158 L 0.785713 0.663158 L 0.785713 0.673683 L 0.769842 0.673683 L 0.769842 0.684212 L 0.785713 0.684212 L 0.785713 0.694737 L 0.769842 0.694737 L 0.769842 0.684212 L 0.753968 0.684212 L 0.753968 0.673683 L 0.769842 0.673683 L 0.769842 0.663158 L 0.753968 0.663158 L 0.753968 0.652633 L 0.769842 0.652633 L 0.769842 0.663158 L 0.785713 0.663158 L 0.785713 0.652633 L 0.801588 0.652633 L 0.801588 0.642104 L 0.785713 0.642104 L 0.785713 0.652633 L 0.769842 0.652633 L 0.769842 0.642104 L 0.753968 0.642104 L 0.753968 0.631579 L 0.769842 0.631579 L 0.769842 0.621054 L 0.753968 0.621054 L 0.753968 0.631579 L 0.738097 0.631579 L 0.738097 0.621054 L 0.722222 0.621054 L 0.722222 0.631579 L 0.706348 0.631579 L 0.706348 0.642104 L 0.722222 0.642104 L 0.722222 0.631579 L 0.738097 0.631579 L 0.738097 0.642104 L 0.753968 0.642104 L 0.753968 0.652633 L 0.738097 0.652633 L 0.738097 0.663158 L 0.753968 0.663158 L 0.753968 0.673683 L 0.738097 0.673683 L 0.738097 0.663158 L 0.722222 0.663158 L 0.722222 0.673683 L 0.706348 0.673683 L 0.706348 0.684212 L 0.722222 0.684212 L 0.722222 0.694737 L 0.706348 0.694737 L 0.706348 0.684212 L 0.690477 0.684212 L 0.690477 0.673683 L 0.706348 0.673683 L 0.706348 0.663158 L 0.690477 0.663158 L 0.690477 0.673683 L 0.674602 0.673683 L 0.674602 0.663158 L 0.658731 0.663158 L 0.658731 0.673683 L 0.642857 0.673683 L 0.642857 0.684212 L 0.658731 0.684212 L 0.658731 0.673683 L 0.674602 0.673683 L 0.674602 0.684212 L 0.690477 0.684212 L 0.690477 0.694737 L 0.674602 0.694737 L 0.674602 0.705263 L 0.690477 0.705263 L 0.690477 0.715788 L 0.674602 0.715788 L 0.674602 0.705263 L 0.658731 0.705263 L 0.658731 0.715788 L 0.642857 0.715788 L 0.642857 0.726317 L 0.658731 0.726317 L 0.658731 0.715788 L 0.674602 0.715788 L 0.674602 0.726317 L 0.690477 0.726317 L 0.690477 0.736842 L 0.674602 0.736842 L 0.674602 0.747367 L 0.690477 0.747367 L 0.690477 0.736842 L 0.706348 0.736842 L 0.706348 0.747367 L 0.722222 0.747367 L 0.722222 0.736842 L 0.738097 0.736842 L 0.738097 0.726317 L 0.722222 0.726317 L 0.722222 0.715788 L 0.738097 0.715788 L 0.738097 0.726317 L 0.753968 0.726317 L 0.753968 0.736842 L 0.738097 0.736842 L 0.738097 0.747367 L 0.753968 0.747367 L 0.753968 0.757896 L 0.738097 0.757896 L 0.738097 0.747367 L 0.722222 0.747367 L 0.722222 0.757896 L 0.706348 0.757896 L 0.706348 0.768421 L 0.722222 0.768421 L 0.722222 0.778946 L 0.706348 0.778946 L 0.706348 0.768421 L 0.690477 0.768421 L 0.690477 0.757896 L 0.706348 0.757896 L 0.706348 0.747367 L 0.690477 0.747367 L 0.690477 0.757896 L 0.674602 0.757896 L 0.674602 0.747367 L 0.658731 0.747367 L 0.658731 0.757896 L 0.642857 0.757896 L 0.642857 0.768421 L 0.658731 0.768421 L 0.658731 0.778946 L 0.642857 0.778946 L 0.642857 0.768421 L 0.626986 0.768421 L 0.626986 0.757896 L 0.642857 0.757896 L 0.642857 0.747367 L 0.626986 0.747367 L 0.626986 0.736842 L 0.642857 0.736842 L 0.642857 0.747367 L 0.658731 0.747367 L 0.658731 0.736842 L 0.674602 0.736842 L 0.674602 0.726317 L 0.658731 0.726317 L 0.658731 0.736842 L 0.642857 0.736842 L 0.642857 0.726317 L 0.626986 0.726317 L 0.626986 0.715788 L 0.642857 0.715788 L 0.642857 0.705263 L 0.626986 0.705263 L 0.626986 0.715788 L 0.611111 0.715788 L 0.611111 0.705263 L 0.595237 0.705263 L 0.595237 0.715788 L 0.579366 0.715788 L 0.579366 0.726317 L 0.595237 0.726317 L 0.595237 0.736842 L 0.579366 0.736842 L 0.579366 0.726317 L 0.563491 0.726317 L 0.563491 0.715788 L 0.579366 0.715788 L 0.579366 0.705263 L 0.563491 0.705263 L 0.563491 0.694737 L 0.579366 0.694737 L 0.579366 0.705263 L 0.595237 0.705263 L 0.595237 0.694737 L 0.611111 0.694737 L 0.611111 0.684212 L 0.595237 0.684212 L 0.595237 0.673683 L 0.611111 0.673683 L 0.611111 0.684212 L 0.626986 0.684212 L 0.626986 0.694737 L 0.611111 0.694737 L 0.611111 0.705263 L 0.626986 0.705263 L 0.626986 0.694737 L 0.642857 0.694737 L 0.642857 0.705263 L 0.658731 0.705263 L 0.658731 0.694737 L 0.674602 0.694737 L 0.674602 0.684212 L 0.658731 0.684212 L 0.658731 0.694737 L 0.642857 0.694737 L 0.642857 0.684212 L 0.626986 0.684212 L 0.626986 0.673683 L 0.642857 0.673683 L 0.642857 0.663158 L 0.626986 0.663158 L 0.626986 0.652633 L 0.642857 0.652633 L 0.642857 0.663158 L 0.658731 0.663158 L 0.658731 0.652633 L 0.674602 0.652633 L 0.674602 0.642104 L 0.658731 0.642104 L 0.658731 0.652633 L 0.642857 0.652633 L 0.642857 0.642104 L 0.626986 0.642104 L 0.626986 0.631579 L 0.642857 0.631579 L 0.642857 0.621054 L 0.626986 0.621054 L 0.626986 0.631579 L 0.611111 0.631579 L 0.611111 0.621054 L 0.595237 0.621054 L 0.595237 0.631579 L 0.579366 0.631579 L 0.579366 0.642104 L 0.595237 0.642104 L 0.595237 0.631579 L 0.611111 0.631579 L 0.611111 0.642104 L 0.626986 0.642104 L 0.626986 0.652633 L 0.611111 0.652633 L 0.611111 0.663158 L 0.626986 0.663158 L 0.626986 0.673683 L 0.611111 0.673683 L 0.611111 0.663158 L 0.595237 0.663158 L 0.595237 0.673683 L 0.579366 0.673683 L 0.579366 0.684212 L 0.595237 0.684212 L 0.595237 0.694737 L 0.579366 0.694737 L 0.579366 0.684212 L 0.563491 0.684212 L 0.563491 0.673683 L 0.579366 0.673683 L 0.579366 0.663158 L 0.563491 0.663158 L 0.563491 0.673683 L 0.54762 0.673683 L 0.54762 0.663158 L 0.531746 0.663158 L 0.531746 0.673683 L 0.515875 0.673683 L 0.515875 0.684212 L 0.531746 0.684212 L 0.531746 0.694737 L 0.515875 0.694737 L 0.515875 0.684212 L 0.5 0.684212 L 0.5 0.673683 L 0.515875 0.673683 L 0.515875 0.663158 L 0.5 0.663158 L 0.5 0.652633 L 0.515875 0.652633 L 0.515875 0.663158 L 0.531746 0.663158 L 0.531746 0.652633 L 0.54762 0.652633 L 0.54762 0.642104 L 0.531746 0.642104 L 0.531746 0.652633 L 0.515875 0.652633 L 0.515875 0.642104 L 0.5 0.642104 L 0.5 0.631579 L 0.515875 0.631579 L 0.515875 0.621054 L 0.5 0.621054 L 0.5 0.631579 L 0.484125 0.631579 L 0.484125 0.621054 L 0.468254 0.621054 L 0.468254 0.631579 L 0.45238 0.631579 L 0.45238 0.642104 L 0.468254 0.642104 L 0.468254 0.631579 L 0.484125 0.631579 L 0.484125 0.642104 L 0.5 0.642104 L 0.5 0.652633 L 0.484125 0.652633 L 0.484125 0.663158 L 0.5 0.663158 L 0.5 0.673683 L 0.484125 0.673683 L 0.484125 0.663158 L 0.468254 0.663158 L 0.468254 0.673683 L 0.45238 0.673683 L 0.45238 0.684212 L 0.468254 0.684212 L 0.468254 0.694737 L 0.45238 0.694737 L 0.45238 0.684212 L 0.436509 0.684212 L 0.436509 0.673683 L 0.45238 0.673683 L 0.45238 0.663158 L 0.436509 0.663158 L 0.436509 0.673683 L 0.420634 0.673683 L 0.420634 0.663158 L 0.404763 0.663158 L 0.404763 0.673683 L 0.388889 0.673683 L 0.388889 0.684212 L 0.404763 0.684212 L 0.404763 0.673683 L 0.420634 0.673683 L 0.420634 0.684212 L 0.436509 0.684212 L 0.436509 0.694737 L 0.420634 0.694737 L 0.420634 0.705263 L 0.436509 0.705263 L 0.436509 0.715788 L 0.420634 0.715788 L 0.420634 0.705263 L 0.404763 0.705263 L 0.404763 0.715788 L 0.388889 0.715788 L 0.388889 0.726317 L 0.404763 0.726317 L 0.404763 0.715788 L 0.420634 0.715788 L 0.420634 0.726317 L 0.436509 0.726317 L 0.436509 0.736842 L 0.420634 0.736842 L 0.420634 0.747367 L 0.436509 0.747367 L 0.436509 0.736842 L 0.45238 0.736842 L 0.45238 0.747367 L 0.468254 0.747367 L 0.468254 0.736842 L 0.484125 0.736842 L 0.484125 0.726317 L 0.468254 0.726317 L 0.468254 0.736842 L 0.45238 0.736842 L 0.45238 0.726317 L 0.436509 0.726317 L 0.436509 0.715788 L 0.45238 0.715788 L 0.45238 0.705263 L 0.436509 0.705263 L 0.436509 0.694737 L 0.45238 0.694737 L 0.45238 0.705263 L 0.468254 0.705263 L 0.468254 0.694737 L 0.484125 0.694737 L 0.484125 0.684212 L 0.468254 0.684212 L 0.468254 0.673683 L 0.484125 0.673683 L 0.484125 0.684212 L 0.5 0.684212 L 0.5 0.694737 L 0.484125 0.694737 L 0.484125 0.705263 L 0.5 0.705263 L 0.5 0.694737 L 0.515875 0.694737 L 0.515875 0.705263 L 0.531746 0.705263 L 0.531746 0.694737 L 0.54762 0.694737 L 0.54762 0.684212 L 0.531746 0.684212 L 0.531746 0.673683 L 0.54762 0.673683 L 0.54762 0.684212 L 0.563491 0.684212 L 0.563491 0.694737 L 0.54762 0.694737 L 0.54762 0.705263 L 0.563491 0.705263 L 0.563491 0.715788 L 0.54762 0.715788 L 0.54762 0.705263 L 0.531746 0.705263 L 0.531746 0.715788 L 0.515875 0.715788 L 0.515875 0.726317 L 0.531746 0.726317 L 0.531746 0.715788 L 0.54762 0.715788 L 0.54762 0.726317 L 0.563491 0.726317 L 0.563491 0.736842 L 0.54762 0.736842 L 0.54762 0.747367 L 0.563491 0.747367 L 0.563491 0.736842 L 0.579366 0.736842 L 0.579366 0.747367 L 0.595237 0.747367 L 0.595237 0.736842 L 0.611111 0.736842 L 0.611111 0.726317 L 0.595237 0.726317 L 0.595237 0.715788 L 0.611111 0.715788 L 0.611111 0.726317 L 0.626986 0.726317 L 0.626986 0.736842 L 0.611111 0.736842 L 0.611111 0.747367 L 0.626986 0.747367 L 0.626986 0.757896 L 0.611111 0.757896 L 0.611111 0.747367 L 0.595237 0.747367 L 0.595237 0.757896 L 0.579366 0.757896 L 0.579366 0.768421 L 0.595237 0.768421 L 0.595237 0.778946 L 0.579366 0.778946 L 0.579366 0.768421 L 0.563491 0.768421 L 0.563491 0.757896 L 0.579366 0.757896 L 0.579366 0.747367 L 0.563491 0.747367 L 0.563491 0.757896 L 0.54762 0.757896 L 0.54762 0.747367 L 0.531746 0.747367 L 0.531746 0.757896 L 0.515875 0.757896 L 0.515875 0.768421 L 0.531746 0.768421 L 0.531746 0.757896 L 0.54762 0.757896 L 0.54762 0.768421 L 0.563491 0.768421 L 0.563491 0.778946 L 0.54762 0.778946 L 0.54762 0.789475 L 0.563491 0.789475 L 0.563491 0.8 L 0.54762 0.8 L 0.54762 0.789475 L 0.531746 0.789475 L 0.531746 0.8 L 0.515875 0.8 L 0.515875 0.810525 L 0.531746 0.810525 L 0.531746 0.8 L 0.54762 0.8 L 0.54762 0.810525 L 0.563491 0.810525 L 0.563491 0.821054 L 0.54762 0.821054 L 0.54762 0.831579 L 0.563491 0.831579 L 0.563491 0.821054 L 0.579366 0.821054 L 0.579366 0.831579 L 0.595237 0.831579 L 0.595237 0.821054 L 0.611111 0.821054 L 0.611111 0.810525 L 0.595237 0.810525 L 0.595237 0.8 L 0.611111 0.8 L 0.611111 0.810525 L 0.626986 0.810525 L 0.626986 0.821054 L 0.611111 0.821054 L 0.611111 0.831579 L 0.626986 0.831579 L 0.626986 0.842104 L 0.611111 0.842104 L 0.611111 0.831579 L 0.595237 0.831579 L 0.595237 0.842104 L 0.579366 0.842104 L 0.579366 0.852633 L 0.595237 0.852633 L 0.595237 0.863158 L 0.579366 0.863158 L 0.579366 0.852633 L 0.563491 0.852633 L 0.563491 0.842104 L 0.579366 0.842104 L 0.579366 0.831579 L 0.563491 0.831579 L 0.563491 0.842104 L 0.54762 0.842104 L 0.54762 0.831579 L 0.531746 0.831579 L 0.531746 0.842104 L 0.515875 0.842104 L 0.515875 0.852633 L 0.531746 0.852633 L 0.531746 0.863158 L 0.515875 0.863158 L 0.515875 0.852633 L 0.5 0.852633 L 0.5 0.842104 L 0.515875 0.842104 L 0.515875 0.831579 L 0.5 0.831579 L 0.5 0.821054 L 0.515875 0.821054 L 0.515875 0.831579 L 0.531746 0.831579 L 0.531746 0.821054 L 0.54762 0.821054 L 0.54762 0.810525 L 0.531746 0.810525 L 0.531746 0.821054 L 0.515875 0.821054 L 0.515875 0.810525 L 0.5 0.810525 L 0.5 0.8 L 0.515875 0.8 L 0.515875 0.789475 L 0.5 0.789475 L 0.5 0.8 L 0.484125 0.8 L 0.484125 0.789475 L 0.468254 0.789475 L 0.468254 0.8 L 0.45238 0.8 L 0.45238 0.810525 L 0.468254 0.810525 L 0.468254 0.8 L 0.484125 0.8 L 0.484125 0.810525 L 0.5 0.810525 L 0.5 0.821054 L 0.484125 0.821054 L 0.484125 0.831579 L 0.5 0.831579 L 0.5 0.842104 L 0.484125 0.842104 L 0.484125 0.831579 L 0.468254 0.831579 L 0.468254 0.842104 L 0.45238 0.842104 L 0.45238 0.852633 L 0.468254 0.852633 L 0.468254 0.863158 L 0.45238 0.863158 L 0.45238 0.852633 L 0.436509 0.852633 L 0.436509 0.842104 L 0.45238 0.842104 L 0.45238 0.831579 L 0.436509 0.831579 L 0.436509 0.842104 L 0.420634 0.842104 L 0.420634 0.831579 L 0.404763 0.831579 L 0.404763 0.842104 L 0.388889 0.842104 L 0.388889 0.852633 L 0.404763 0.852633 L 0.404763 0.842104 L 0.420634 0.842104 L 0.420634 0.852633 L 0.436509 0.852633 L 0.436509 0.863158 L 0.420634 0.863158 L 0.420634 0.873683 L 0.436509 0.873683 L 0.436509 0.884212 L 0.420634 0.884212 L 0.420634 0.873683 L 0.404763 0.873683 L 0.404763 0.884212 L 0.388889 0.884212 L 0.388889 0.894737 L 0.404763 0.894737 L 0.404763 0.884212 L 0.420634 0.884212 L 0.420634 0.894737 L 0.436509 0.894737 L 0.436509 0.905263 L 0.420634 0.905263 L 0.420634 0.915788 L 0.436509 0.915788 L 0.436509 0.905263 L 0.45238 0.905263 L 0.45238 0.915788 L 0.468254 0.915788 L 0.468254 0.905263 L 0.484125 0.905263 L 0.484125 0.894737 L 0.468254 0.894737 L 0.468254 0.905263 L 0.45238 0.905263 L 0.45238 0.894737 L 0.436509 0.894737 L 0.436509 0.884212 L 0.45238 0.884212 L 0.45238 0.873683 L 0.436509 0.873683 L 0.436509 0.863158 L 0.45238 0.863158 L 0.45238 0.873683 L 0.468254 0.873683 L 0.468254 0.863158 L 0.484125 0.863158 L 0.484125 0.852633 L 0.468254 0.852633 L 0.468254 0.842104 L 0.484125 0.842104 L 0.484125 0.852633 L 0.5 0.852633 L 0.5 0.863158 L 0.484125 0.863158 L 0.484125 0.873683 L 0.5 0.873683 L 0.5 0.863158 L 0.515875 0.863158 L 0.515875 0.873683 L 0.531746 0.873683 L 0.531746 0.863158 L 0.54762 0.863158 L 0.54762 0.852633 L 0.531746 0.852633 L 0.531746 0.842104 L 0.54762 0.842104 L 0.54762 0.852633 L 0.563491 0.852633 L 0.563491 0.863158 L 0.54762 0.863158 L 0.54762 0.873683 L 0.563491 0.873683 L 0.563491 0.884212 L 0.54762 0.884212 L 0.54762 0.873683 L 0.531746 0.873683 L 0.531746 0.884212 L 0.515875 0.884212 L 0.515875 0.894737 L 0.531746 0.894737 L 0.531746 0.884212 L 0.54762 0.884212 L 0.54762 0.894737 L 0.563491 0.894737 L 0.563491 0.905263 L 0.54762 0.905263 L 0.54762 0.915788 L 0.563491 0.915788 L 0.563491 0.905263 L 0.579366 0.905263 L 0.579366 0.915788 L 0.595237 0.915788 L 0.595237 0.905263 L 0.611111 0.905263 L 0.611111 0.894737 L 0.595237 0.894737 L 0.595237 0.884212 L 0.611111 0.884212 L 0.611111 0.894737 L 0.626986 0.894737 L 0.626986 0.905263 L 0.611111 0.905263 L 0.611111 0.915788 L 0.626986 0.915788 L 0.626986 0.926317 L 0.611111 0.926317 L 0.611111 0.915788 L 0.595237 0.915788 L 0.595237 0.926317 L 0.579366 0.926317 L 0.579366 0.936842 L 0.595237 0.936842 L 0.595237 0.947367 L 0.579366 0.947367 L 0.579366 0.936842 L 0.563491 0.936842 L 0.563491 0.926317 L 0.579366 0.926317 L 0.579366 0.915788 L 0.563491 0.915788 L 0.563491 0.926317 L 0.54762 0.926317 L 0.54762 0.915788 L 0.531746 0.915788 L 0.531746 0.926317 L 0.515875 0.926317 L 0.515875 0.936842 L 0.531746 0.936842 L 0.531746 0.926317 L 0.54762 0.926317 L 0.54762 0.936842 L 0.563491 0.936842 L 0.563491 0.947367 L 0.54762 0.947367 L 0.54762 0.957896 L 0.563491 0.957896 L 0.563491 0.968421 L 0.54762 0.968421 L 0.54762 0.957896 L 0.531746 0.957896 L 0.531746 0.968421 L 0.515875 0.968421 L 0.515875 0.978946 L 0.531746 0.978946 L 0.531746 0.968421 L 0.54762 0.968421 L 0.54762 0.978946 L 0.563491 0.978946 L 0.563491 0.989475 L 0.54762 0.989475 L 0.54762 1 L 0.563491 1 L 0.563491 0.989475 L 0.579366 0.989475 L 0.579366 1 L 0.595237 1 L 0.595237 0.989475 L 0.611111 0.989475 L 0.611111 0.978946 L 0.595237 0.978946 L 0.595237 0.989475 L 0.579366 0.989475 L 0.579366 0.978946 L 0.563491 0.978946 L 0.563491 0.968421 L 0.579366 0.968421 L 0.579366 0.957896 L 0.563491 0.957896 L 0.563491 0.947367 L 0.579366 0.947367 L 0.579366 0.957896 L 0.595237 0.957896 L 0.595237 0.947367 L 0.611111 0.947367 L 0.611111 0.936842 L 0.595237 0.936842 L 0.595237 0.926317 L 0.611111 0.926317 L 0.611111 0.936842 L 0.626986 0.936842 L 0.626986 0.947367 L 0.611111 0.947367 L 0.611111 0.957896 L 0.626986 0.957896 L 0.626986 0.947367 L 0.642857 0.947367 L 0.642857 0.957896 L 0.658731 0.957896 L 0.658731 0.947367 L 0.674602 0.947367 L 0.674602 0.936842 L 0.658731 0.936842 L 0.658731 0.926317 L 0.674602 0.926317 L 0.674602 0.936842 L 0.690477 0.936842 L 0.690477 0.947367 L 0.674602 0.947367 L 0.674602 0.957896 L 0.690477 0.957896 L 0.690477 0.968421 L 0.674602 0.968421 L 0.674602 0.957896 L 0.658731 0.957896 L 0.658731 0.968421 L 0.642857 0.968421 L 0.642857 0.978946 L 0.658731 0.978946 L 0.658731 0.968421 L 0.674602 0.968421 L 0.674602 0.978946 L 0.690477 0.978946 L 0.690477 0.989475 L 0.674602 0.989475 L 0.674602 1 L 0.690477 1 L 0.690477 0.989475 L 0.706348 0.989475 L 0.706348 1 L 0.722222 1 L 0.722222 0.989475 L 0.738097 0.989475 L 0.738097 0.978946 L 0.722222 0.978946 L 0.722222 0.989475 L 0.706348 0.989475 L 0.706348 0.978946 L 0.690477 0.978946 L 0.690477 0.968421 L 0.706348 0.968421 L 0.706348 0.957896 L 0.690477 0.957896 L 0.690477 0.947367 L 0.706348 0.947367 L 0.706348 0.957896 L 0.722222 0.957896 L 0.722222 0.947367 L 0.738097 0.947367 L 0.738097 0.936842 L 0.722222 0.936842 L 0.722222 0.926317 L 0.738097 0.926317 L 0.738097 0.936842 L 0.753968 0.936842 L 0.753968 0.947367 L 0.738097 0.947367 L 0.738097 0.957896 L 0.753968 0.957896 L 0.753968 0.947367 L 0.769842 0.947367 L 0.769842 0.957896 L 0.785713 0.957896 L 0.785713 0.947367 L 0.801588 0.947367 L 0.801588 0.936842 L 0.785713 0.936842 L 0.785713 0.947367 L 0.769842 0.947367 L 0.769842 0.936842 L 0.753968 0.936842 L 0.753968 0.926317 L 0.769842 0.926317 L 0.769842 0.915788 L 0.753968 0.915788 L 0.753968 0.905263 L 0.769842 0.905263 L 0.769842 0.915788 L 0.785713 0.915788 L 0.785713 0.905263 L 0.801588 0.905263 L 0.801588 0.894737 L 0.785713 0.894737 L 0.785713 0.905263 L 0.769842 0.905263 L 0.769842 0.894737 L 0.753968 0.894737 L 0.753968 0.884212 L 0.769842 0.884212 L 0.769842 0.873683 L 0.753968 0.873683 L 0.753968 0.884212 L 0.738097 0.884212 L 0.738097 0.873683 L 0.722222 0.873683 L 0.722222 0.884212 L 0.706348 0.884212 L 0.706348 0.894737 L 0.722222 0.894737 " transform="matrix(1080,0,0,1080,0,0)"/>
</g>
</svg>
