<?xml version="1.0" encoding="UTF-8"?>
<svg xmlns="http://www.w3.org/2000/svg" xmlns:xlink="http://www.w3.org/1999/xlink" width="1024pt" height="1024pt" viewBox="0 0 1024 1024" version="1.1">
<g id="surface1">
<path style="fill:none;stroke-width:0.001;stroke-linecap:butt;stroke-linejoin:miter;stroke:rgb(0%,0%,0%);stroke-opacity:1;stroke-miterlimit:10;" d="M 0.5 0.5 L 0.5 0.494999 L 0.505001 0.494999 L 0.505001 0.489998 L 0.5 0.489998 L 0.5 0.484997 L 0.505001 0.484997 L 0.505001 0.489998 L 0.510002 0.489998 L 0.510002 0.484997 L 0.515003 0.484997 L 0.515003 0.479996 L 0.520004 0.479996 L 0.520004 0.474995 L 0.515003 0.474995 L 0.515003 0.469994 L 0.510002 0.469994 L 0.510002 0.464993 L 0.505001 0.464993 L 0.505001 0.469994 L 0.5 0.469994 L 0.5 0.464993 L 0.505001 0.464993 L 0.505001 0.459991 L 0.5 0.459991 L 0.5 0.45499 L 0.505001 0.45499 L 0.505001 0.459991 L 0.510002 0.459991 L 0.510002 0.45499 L 0.515003 0.45499 L 0.515003 0.459991 L 0.510002 0.459991 L 0.510002 0.464993 L 0.515003 0.464993 L 0.515003 0.469994 L 0.520004 0.469994 L 0.520004 0.474995 L 0.525005 0.474995 L 0.525005 0.469994 L 0.530006 0.469994 L 0.530006 0.464993 L 0.535007 0.464993 L 0.535007 0.459991 L 0.530006 0.459991 L 0.530006 0.45499 L 0.535007 0.45499 L 0.535007 0.459991 L 0.540009 0.459991 L 0.540009 0.45499 L 0.54501 0.45499 L 0.54501 0.449989 L 0.550011 0.449989 L 0.550011 0.444988 L 0.54501 0.444988 L 0.54501 0.439987 L 0.550011 0.439987 L 0.550011 0.444988 L 0.555012 0.444988 L 0.555012 0.439987 L 0.560013 0.439987 L 0.560013 0.434986 L 0.565014 0.434986 L 0.565014 0.429985 L 0.560013 0.429985 L 0.560013 0.424984 L 0.555012 0.424984 L 0.555012 0.419983 L 0.550011 0.419983 L 0.550011 0.424984 L 0.54501 0.424984 L 0.54501 0.419983 L 0.550011 0.419983 L 0.550011 0.414982 L 0.54501 0.414982 L 0.54501 0.409981 L 0.540009 0.409981 L 0.540009 0.40498 L 0.535007 0.40498 L 0.535007 0.409981 L 0.530006 0.409981 L 0.530006 0.40498 L 0.535007 0.40498 L 0.535007 0.399979 L 0.530006 0.399979 L 0.530006 0.394978 L 0.525005 0.394978 L 0.525005 0.389977 L 0.520004 0.389977 L 0.520004 0.394978 L 0.515003 0.394978 L 0.515003 0.399979 L 0.510002 0.399979 L 0.510002 0.40498 L 0.515003 0.40498 L 0.515003 0.409981 L 0.510002 0.409981 L 0.510002 0.40498 L 0.505001 0.40498 L 0.505001 0.409981 L 0.5 0.409981 L 0.5 0.40498 L 0.505001 0.40498 L 0.505001 0.399979 L 0.5 0.399979 L 0.5 0.394978 L 0.505001 0.394978 L 0.505001 0.399979 L 0.510002 0.399979 L 0.510002 0.394978 L 0.515003 0.394978 L 0.515003 0.389977 L 0.520004 0.389977 L 0.520004 0.384975 L 0.515003 0.384975 L 0.515003 0.379974 L 0.510002 0.379974 L 0.510002 0.374973 L 0.505001 0.374973 L 0.505001 0.379974 L 0.5 0.379974 L 0.5 0.374973 L 0.505001 0.374973 L 0.505001 0.369972 L 0.5 0.369972 L 0.5 0.364971 L 0.505001 0.364971 L 0.505001 0.369972 L 0.510002 0.369972 L 0.510002 0.364971 L 0.515003 0.364971 L 0.515003 0.369972 L 0.510002 0.369972 L 0.510002 0.374973 L 0.515003 0.374973 L 0.515003 0.379974 L 0.520004 0.379974 L 0.520004 0.384975 L 0.525005 0.384975 L 0.525005 0.379974 L 0.530006 0.379974 L 0.530006 0.374973 L 0.535007 0.374973 L 0.535007 0.369972 L 0.530006 0.369972 L 0.530006 0.364971 L 0.535007 0.364971 L 0.535007 0.369972 L 0.540009 0.369972 L 0.540009 0.364971 L 0.54501 0.364971 L 0.54501 0.369972 L 0.540009 0.369972 L 0.540009 0.374973 L 0.54501 0.374973 L 0.54501 0.379974 L 0.540009 0.379974 L 0.540009 0.374973 L 0.535007 0.374973 L 0.535007 0.379974 L 0.530006 0.379974 L 0.530006 0.384975 L 0.525005 0.384975 L 0.525005 0.389977 L 0.530006 0.389977 L 0.530006 0.394978 L 0.535007 0.394978 L 0.535007 0.399979 L 0.540009 0.399979 L 0.540009 0.394978 L 0.54501 0.394978 L 0.54501 0.399979 L 0.540009 0.399979 L 0.540009 0.40498 L 0.54501 0.40498 L 0.54501 0.409981 L 0.550011 0.409981 L 0.550011 0.414982 L 0.555012 0.414982 L 0.555012 0.409981 L 0.560013 0.409981 L 0.560013 0.414982 L 0.555012 0.414982 L 0.555012 0.419983 L 0.560013 0.419983 L 0.560013 0.424984 L 0.565014 0.424984 L 0.565014 0.429985 L 0.570015 0.429985 L 0.570015 0.424984 L 0.575016 0.424984 L 0.575016 0.419983 L 0.580017 0.419983 L 0.580017 0.414982 L 0.575016 0.414982 L 0.575016 0.409981 L 0.580017 0.409981 L 0.580017 0.414982 L 0.585018 0.414982 L 0.585018 0.409981 L 0.590019 0.409981 L 0.590019 0.40498 L 0.59502 0.40498 L 0.59502 0.399979 L 0.590019 0.399979 L 0.590019 0.394978 L 0.59502 0.394978 L 0.59502 0.399979 L 0.600021 0.399979 L 0.600021 0.394978 L 0.605022 0.394978 L 0.605022 0.389977 L 0.610023 0.389977 L 0.610023 0.384975 L 0.605022 0.384975 L 0.605022 0.379974 L 0.600021 0.379974 L 0.600021 0.374973 L 0.59502 0.374973 L 0.59502 0.379974 L 0.590019 0.379974 L 0.590019 0.374973 L 0.59502 0.374973 L 0.59502 0.369972 L 0.590019 0.369972 L 0.590019 0.364971 L 0.59502 0.364971 L 0.59502 0.369972 L 0.600021 0.369972 L 0.600021 0.364971 L 0.605022 0.364971 L 0.605022 0.369972 L 0.600021 0.369972 L 0.600021 0.374973 L 0.605022 0.374973 L 0.605022 0.379974 L 0.610023 0.379974 L 0.610023 0.384975 L 0.615025 0.384975 L 0.615025 0.379974 L 0.620026 0.379974 L 0.620026 0.374973 L 0.625027 0.374973 L 0.625027 0.369972 L 0.620026 0.369972 L 0.620026 0.364971 L 0.625027 0.364971 L 0.625027 0.369972 L 0.630028 0.369972 L 0.630028 0.364971 L 0.635029 0.364971 L 0.635029 0.35997 L 0.64003 0.35997 L 0.64003 0.354969 L 0.635029 0.354969 L 0.635029 0.349968 L 0.64003 0.349968 L 0.64003 0.354969 L 0.645031 0.354969 L 0.645031 0.349968 L 0.650032 0.349968 L 0.650032 0.344967 L 0.655033 0.344967 L 0.655033 0.339966 L 0.650032 0.339966 L 0.650032 0.334965 L 0.645031 0.334965 L 0.645031 0.329964 L 0.64003 0.329964 L 0.64003 0.334965 L 0.635029 0.334965 L 0.635029 0.329964 L 0.64003 0.329964 L 0.64003 0.324963 L 0.635029 0.324963 L 0.635029 0.319962 L 0.64003 0.319962 L 0.64003 0.324963 L 0.645031 0.324963 L 0.645031 0.319962 L 0.650032 0.319962 L 0.650032 0.324963 L 0.645031 0.324963 L 0.645031 0.329964 L 0.650032 0.329964 L 0.650032 0.334965 L 0.655033 0.334965 L 0.655033 0.339966 L 0.660034 0.339966 L 0.660034 0.334965 L 0.665035 0.334965 L 0.665035 0.329964 L 0.670036 0.329964 L 0.670036 0.324963 L 0.665035 0.324963 L 0.665035 0.319962 L 0.670036 0.319962 L 0.670036 0.324963 L 0.675037 0.324963 L 0.675037 0.319962 L 0.680038 0.319962 L 0.680038 0.31496 L 0.68504 0.31496 L 0.68504 0.309959 L 0.680038 0.309959 L 0.680038 0.304958 L 0.68504 0.304958 L 0.68504 0.309959 L 0.690041 0.309959 L 0.690041 0.304958 L 0.695042 0.304958 L 0.695042 0.299957 L 0.700043 0.299957 L 0.700043 0.294956 L 0.695042 0.294956 L 0.695042 0.289955 L 0.690041 0.289955 L 0.690041 0.284954 L 0.68504 0.284954 L 0.68504 0.289955 L 0.680038 0.289955 L 0.680038 0.284954 L 0.68504 0.284954 L 0.68504 0.279953 L 0.680038 0.279953 L 0.680038 0.274952 L 0.675037 0.274952 L 0.675037 0.269951 L 0.670036 0.269951 L 0.670036 0.274952 L 0.665035 0.274952 L 0.665035 0.269951 L 0.670036 0.269951 L 0.670036 0.26495 L 0.665035 0.26495 L 0.665035 0.259949 L 0.660034 0.259949 L 0.660034 0.254948 L 0.655033 0.254948 L 0.655033 0.259949 L 0.650032 0.259949 L 0.650032 0.26495 L 0.645031 0.26495 L 0.645031 0.269951 L 0.650032 0.269951 L 0.650032 0.274952 L 0.645031 0.274952 L 0.645031 0.269951 L 0.64003 0.269951 L 0.64003 0.274952 L 0.635029 0.274952 L 0.635029 0.269951 L 0.64003 0.269951 L 0.64003 0.26495 L 0.635029 0.26495 L 0.635029 0.259949 L 0.64003 0.259949 L 0.64003 0.26495 L 0.645031 0.26495 L 0.645031 0.259949 L 0.650032 0.259949 L 0.650032 0.254948 L 0.655033 0.254948 L 0.655033 0.249947 L 0.650032 0.249947 L 0.650032 0.244946 L 0.645031 0.244946 L 0.645031 0.239944 L 0.64003 0.239944 L 0.64003 0.244946 L 0.635029 0.244946 L 0.635029 0.239944 L 0.64003 0.239944 L 0.64003 0.234943 L 0.635029 0.234943 L 0.635029 0.229942 L 0.630028 0.229942 L 0.630028 0.224941 L 0.625027 0.224941 L 0.625027 0.229942 L 0.620026 0.229942 L 0.620026 0.224941 L 0.625027 0.224941 L 0.625027 0.21994 L 0.620026 0.21994 L 0.620026 0.214939 L 0.615025 0.214939 L 0.615025 0.209938 L 0.610023 0.209938 L 0.610023 0.214939 L 0.605022 0.214939 L 0.605022 0.21994 L 0.600021 0.21994 L 0.600021 0.224941 L 0.605022 0.224941 L 0.605022 0.229942 L 0.600021 0.229942 L 0.600021 0.224941 L 0.59502 0.224941 L 0.59502 0.229942 L 0.590019 0.229942 L 0.590019 0.224941 L 0.59502 0.224941 L 0.59502 0.21994 L 0.590019 0.21994 L 0.590019 0.214939 L 0.59502 0.214939 L 0.59502 0.21994 L 0.600021 0.21994 L 0.600021 0.214939 L 0.605022 0.214939 L 0.605022 0.209938 L 0.610023 0.209938 L 0.610023 0.204937 L 0.605022 0.204937 L 0.605022 0.199936 L 0.600021 0.199936 L 0.600021 0.194935 L 0.59502 0.194935 L 0.59502 0.199936 L 0.590019 0.199936 L 0.590019 0.194935 L 0.59502 0.194935 L 0.59502 0.189934 L 0.590019 0.189934 L 0.590019 0.184933 L 0.585018 0.184933 L 0.585018 0.179932 L 0.580017 0.179932 L 0.580017 0.184933 L 0.575016 0.184933 L 0.575016 0.179932 L 0.580017 0.179932 L 0.580017 0.174931 L 0.575016 0.174931 L 0.575016 0.16993 L 0.570015 0.16993 L 0.570015 0.164928 L 0.565014 0.164928 L 0.565014 0.16993 L 0.560013 0.16993 L 0.560013 0.174931 L 0.555012 0.174931 L 0.555012 0.179932 L 0.560013 0.179932 L 0.560013 0.184933 L 0.555012 0.184933 L 0.555012 0.179932 L 0.550011 0.179932 L 0.550011 0.184933 L 0.54501 0.184933 L 0.54501 0.189934 L 0.540009 0.189934 L 0.540009 0.194935 L 0.54501 0.194935 L 0.54501 0.199936 L 0.540009 0.199936 L 0.540009 0.194935 L 0.535007 0.194935 L 0.535007 0.199936 L 0.530006 0.199936 L 0.530006 0.204937 L 0.525005 0.204937 L 0.525005 0.209938 L 0.530006 0.209938 L 0.530006 0.214939 L 0.535007 0.214939 L 0.535007 0.21994 L 0.540009 0.21994 L 0.540009 0.214939 L 0.54501 0.214939 L 0.54501 0.21994 L 0.540009 0.21994 L 0.540009 0.224941 L 0.54501 0.224941 L 0.54501 0.229942 L 0.540009 0.229942 L 0.540009 0.224941 L 0.535007 0.224941 L 0.535007 0.229942 L 0.530006 0.229942 L 0.530006 0.224941 L 0.535007 0.224941 L 0.535007 0.21994 L 0.530006 0.21994 L 0.530006 0.214939 L 0.525005 0.214939 L 0.525005 0.209938 L 0.520004 0.209938 L 0.520004 0.214939 L 0.515003 0.214939 L 0.515003 0.21994 L 0.510002 0.21994 L 0.510002 0.224941 L 0.515003 0.224941 L 0.515003 0.229942 L 0.510002 0.229942 L 0.510002 0.224941 L 0.505001 0.224941 L 0.505001 0.229942 L 0.5 0.229942 L 0.5 0.224941 L 0.505001 0.224941 L 0.505001 0.21994 L 0.5 0.21994 L 0.5 0.214939 L 0.505001 0.214939 L 0.505001 0.21994 L 0.510002 0.21994 L 0.510002 0.214939 L 0.515003 0.214939 L 0.515003 0.209938 L 0.520004 0.209938 L 0.520004 0.204937 L 0.515003 0.204937 L 0.515003 0.199936 L 0.510002 0.199936 L 0.510002 0.194935 L 0.505001 0.194935 L 0.505001 0.199936 L 0.5 0.199936 L 0.5 0.194935 L 0.505001 0.194935 L 0.505001 0.189934 L 0.5 0.189934 L 0.5 0.184933 L 0.505001 0.184933 L 0.505001 0.189934 L 0.510002 0.189934 L 0.510002 0.184933 L 0.515003 0.184933 L 0.515003 0.189934 L 0.510002 0.189934 L 0.510002 0.194935 L 0.515003 0.194935 L 0.515003 0.199936 L 0.520004 0.199936 L 0.520004 0.204937 L 0.525005 0.204937 L 0.525005 0.199936 L 0.530006 0.199936 L 0.530006 0.194935 L 0.535007 0.194935 L 0.535007 0.189934 L 0.530006 0.189934 L 0.530006 0.184933 L 0.535007 0.184933 L 0.535007 0.189934 L 0.540009 0.189934 L 0.540009 0.184933 L 0.54501 0.184933 L 0.54501 0.179932 L 0.550011 0.179932 L 0.550011 0.174931 L 0.54501 0.174931 L 0.54501 0.16993 L 0.550011 0.16993 L 0.550011 0.174931 L 0.555012 0.174931 L 0.555012 0.16993 L 0.560013 0.16993 L 0.560013 0.164928 L 0.565014 0.164928 L 0.565014 0.159927 L 0.560013 0.159927 L 0.560013 0.154926 L 0.555012 0.154926 L 0.555012 0.149925 L 0.550011 0.149925 L 0.550011 0.154926 L 0.54501 0.154926 L 0.54501 0.149925 L 0.550011 0.149925 L 0.550011 0.144924 L 0.54501 0.144924 L 0.54501 0.139923 L 0.540009 0.139923 L 0.540009 0.134922 L 0.535007 0.134922 L 0.535007 0.139923 L 0.530006 0.139923 L 0.530006 0.134922 L 0.535007 0.134922 L 0.535007 0.129921 L 0.530006 0.129921 L 0.530006 0.12492 L 0.525005 0.12492 L 0.525005 0.119919 L 0.520004 0.119919 L 0.520004 0.12492 L 0.515003 0.12492 L 0.515003 0.129921 L 0.510002 0.129921 L 0.510002 0.134922 L 0.515003 0.134922 L 0.515003 0.139923 L 0.510002 0.139923 L 0.510002 0.134922 L 0.505001 0.134922 L 0.505001 0.139923 L 0.5 0.139923 L 0.5 0.134922 L 0.505001 0.134922 L 0.505001 0.129921 L 0.5 0.129921 L 0.5 0.12492 L 0.505001 0.12492 L 0.505001 0.129921 L 0.510002 0.129921 L 0.510002 0.12492 L 0.515003 0.12492 L 0.515003 0.119919 L 0.520004 0.119919 L 0.520004 0.114918 L 0.515003 0.114918 L 0.515003 0.109917 L 0.510002 0.109917 L 0.510002 0.104916 L 0.505001 0.104916 L 0.505001 0.109917 L 0.5 0.109917 L 0.5 0.104916 L 0.505001 0.104916 L 0.505001 0.0999146 L 0.5 0.0999146 L 0.5 0.0949135 " transform="matrix(1024,0,0,1024,0,0)"/>
</g>
</svg>
