<?xml version="1.0" encoding="UTF-8"?>
<svg xmlns="http://www.w3.org/2000/svg" xmlns:xlink="http://www.w3.org/1999/xlink" width="1920pt" height="1080pt" viewBox="0 0 1920 1080" version="1.1">
<g id="surface1">
<rect x="0" y="0" width="1920" height="1080" style="fill:rgb(0%,0%,0%);fill-opacity:1;stroke:none;"/>
<path style="fill:none;stroke-width:0.00185185;stroke-linecap:butt;stroke-linejoin:miter;stroke:rgb(100%,100%,100%);stroke-opacity:1;stroke-miterlimit:10;" d="M 0.388889 1 L 0.413889 1 L 0.413889 0.9875 L 0.388889 0.9875 L 0.388889 0.975 L 0.413889 0.975 L 0.413889 0.9875 L 0.438889 0.9875 L 0.438889 0.975 L 0.463889 0.975 L 0.463889 0.9625 L 0.488889 0.9625 L 0.488889 0.95 L 0.463889 0.95 L 0.463889 0.9375 L 0.438889 0.9375 L 0.438889 0.925 L 0.413889 0.925 L 0.413889 0.9375 L 0.388889 0.9375 L 0.388889 0.925 L 0.413889 0.925 L 0.413889 0.9125 L 0.388889 0.9125 L 0.388889 0.9 L 0.413889 0.9 L 0.413889 0.9125 L 0.438889 0.9125 L 0.438889 0.9 L 0.463889 0.9 L 0.463889 0.9125 L 0.438889 0.9125 L 0.438889 0.925 L 0.463889 0.925 L 0.463889 0.9375 L 0.488889 0.9375 L 0.488889 0.95 L 0.513889 0.95 L 0.513889 0.9375 L 0.538889 0.9375 L 0.538889 0.925 L 0.563889 0.925 L 0.563889 0.9125 L 0.538889 0.9125 L 0.538889 0.9 L 0.563889 0.9 L 0.563889 0.9125 L 0.588889 0.9125 L 0.588889 0.9 L 0.613889 0.9 L 0.613889 0.8875 L 0.638889 0.8875 L 0.638889 0.875 L 0.613889 0.875 L 0.613889 0.8625 L 0.638889 0.8625 L 0.638889 0.875 L 0.663889 0.875 L 0.663889 0.8625 L 0.688889 0.8625 L 0.688889 0.85 L 0.713889 0.85 L 0.713889 0.8375 L 0.688889 0.8375 L 0.688889 0.825 L 0.663889 0.825 L 0.663889 0.8125 L 0.638889 0.8125 L 0.638889 0.825 L 0.613889 0.825 L 0.613889 0.8125 L 0.638889 0.8125 L 0.638889 0.8 L 0.613889 0.8 L 0.613889 0.7875 L 0.588889 0.7875 L 0.588889 0.775 L 0.563889 0.775 L 0.563889 0.7875 L 0.538889 0.7875 L 0.538889 0.775 L 0.563889 0.775 L 0.563889 0.7625 L 0.538889 0.7625 L 0.538889 0.75 L 0.513889 0.75 L 0.513889 0.7375 L 0.488889 0.7375 L 0.488889 0.75 L 0.463889 0.75 L 0.463889 0.7625 L 0.438889 0.7625 L 0.438889 0.775 L 0.463889 0.775 L 0.463889 0.7875 L 0.438889 0.7875 L 0.438889 0.775 L 0.413889 0.775 L 0.413889 0.7875 L 0.388889 0.7875 L 0.388889 0.775 L 0.413889 0.775 L 0.413889 0.7625 L 0.388889 0.7625 L 0.388889 0.75 L 0.413889 0.75 L 0.413889 0.7625 L 0.438889 0.7625 L 0.438889 0.75 L 0.463889 0.75 L 0.463889 0.7375 L 0.488889 0.7375 L 0.488889 0.725 L 0.463889 0.725 L 0.463889 0.7125 L 0.438889 0.7125 L 0.438889 0.7 L 0.413889 0.7 L 0.413889 0.7125 L 0.388889 0.7125 L 0.388889 0.7 L 0.413889 0.7 L 0.413889 0.6875 L 0.388889 0.6875 L 0.388889 0.675 L 0.413889 0.675 L 0.413889 0.6875 L 0.438889 0.6875 L 0.438889 0.675 L 0.463889 0.675 L 0.463889 0.6875 L 0.438889 0.6875 L 0.438889 0.7 L 0.463889 0.7 L 0.463889 0.7125 L 0.488889 0.7125 L 0.488889 0.725 L 0.513889 0.725 L 0.513889 0.7125 L 0.538889 0.7125 L 0.538889 0.7 L 0.563889 0.7 L 0.563889 0.6875 L 0.538889 0.6875 L 0.538889 0.675 L 0.563889 0.675 L 0.563889 0.6875 L 0.588889 0.6875 L 0.588889 0.675 L 0.613889 0.675 L 0.613889 0.6875 L 0.588889 0.6875 L 0.588889 0.7 L 0.613889 0.7 L 0.613889 0.7125 L 0.588889 0.7125 L 0.588889 0.7 L 0.563889 0.7 L 0.563889 0.7125 L 0.538889 0.7125 L 0.538889 0.725 L 0.513889 0.725 L 0.513889 0.7375 L 0.538889 0.7375 L 0.538889 0.75 L 0.563889 0.75 L 0.563889 0.7625 L 0.588889 0.7625 L 0.588889 0.75 L 0.613889 0.75 L 0.613889 0.7625 L 0.588889 0.7625 L 0.588889 0.775 L 0.613889 0.775 L 0.613889 0.7875 L 0.638889 0.7875 L 0.638889 0.8 L 0.663889 0.8 L 0.663889 0.7875 L 0.688889 0.7875 L 0.688889 0.8 L 0.663889 0.8 L 0.663889 0.8125 L 0.688889 0.8125 L 0.688889 0.825 L 0.713889 0.825 L 0.713889 0.8375 L 0.738889 0.8375 L 0.738889 0.825 L 0.763889 0.825 L 0.763889 0.8125 L 0.788889 0.8125 L 0.788889 0.8 L 0.763889 0.8 L 0.763889 0.7875 L 0.788889 0.7875 L 0.788889 0.8 L 0.813889 0.8 L 0.813889 0.7875 L 0.838889 0.7875 L 0.838889 0.775 L 0.863889 0.775 L 0.863889 0.7625 L 0.838889 0.7625 L 0.838889 0.75 L 0.863889 0.75 L 0.863889 0.7625 L 0.888889 0.7625 L 0.888889 0.75 L 0.913889 0.75 L 0.913889 0.7375 L 0.938889 0.7375 L 0.938889 0.725 L 0.913889 0.725 L 0.913889 0.7125 L 0.888889 0.7125 L 0.888889 0.7 L 0.863889 0.7 L 0.863889 0.7125 L 0.838889 0.7125 L 0.838889 0.7 L 0.863889 0.7 L 0.863889 0.6875 L 0.838889 0.6875 L 0.838889 0.675 L 0.863889 0.675 L 0.863889 0.6875 L 0.888889 0.6875 L 0.888889 0.675 L 0.913889 0.675 L 0.913889 0.6875 L 0.888889 0.6875 L 0.888889 0.7 L 0.913889 0.7 L 0.913889 0.7125 L 0.938889 0.7125 L 0.938889 0.725 L 0.963889 0.725 L 0.963889 0.7125 L 0.988889 0.7125 L 0.988889 0.7 L 1.013889 0.7 L 1.013889 0.6875 L 0.988889 0.6875 L 0.988889 0.675 L 1.013889 0.675 L 1.013889 0.6875 L 1.038889 0.6875 L 1.038889 0.675 L 1.063889 0.675 L 1.063889 0.6625 L 1.088889 0.6625 L 1.088889 0.65 L 1.063889 0.65 L 1.063889 0.6375 L 1.088889 0.6375 L 1.088889 0.65 L 1.113889 0.65 L 1.113889 0.6375 L 1.138889 0.6375 L 1.138889 0.625 L 1.163889 0.625 L 1.163889 0.6125 L 1.138889 0.6125 L 1.138889 0.6 L 1.113889 0.6 L 1.113889 0.5875 L 1.088889 0.5875 L 1.088889 0.6 L 1.063889 0.6 L 1.063889 0.5875 L 1.088889 0.5875 L 1.088889 0.575 L 1.063889 0.575 L 1.063889 0.5625 L 1.088889 0.5625 L 1.088889 0.575 L 1.113889 0.575 L 1.113889 0.5625 L 1.138889 0.5625 L 1.138889 0.575 L 1.113889 0.575 L 1.113889 0.5875 L 1.138889 0.5875 L 1.138889 0.6 L 1.163889 0.6 L 1.163889 0.6125 L 1.188889 0.6125 L 1.188889 0.6 L 1.213889 0.6 L 1.213889 0.5875 L 1.238889 0.5875 L 1.238889 0.575 L 1.213889 0.575 L 1.213889 0.5625 L 1.238889 0.5625 L 1.238889 0.575 L 1.263889 0.575 L 1.263889 0.5625 L 1.288889 0.5625 L 1.288889 0.55 L 1.313889 0.55 L 1.313889 0.5375 L 1.288889 0.5375 L 1.288889 0.525 L 1.313889 0.525 L 1.313889 0.5375 L 1.338889 0.5375 L 1.338889 0.525 L 1.363889 0.525 L 1.363889 0.5125 L 1.388889 0.5125 L 1.388889 0.5 L 1.363889 0.5 L 1.363889 0.4875 L 1.338889 0.4875 L 1.338889 0.475 L 1.313889 0.475 L 1.313889 0.4875 L 1.288889 0.4875 L 1.288889 0.475 L 1.313889 0.475 L 1.313889 0.4625 L 1.288889 0.4625 L 1.288889 0.45 L 1.263889 0.45 L 1.263889 0.4375 L 1.238889 0.4375 L 1.238889 0.45 L 1.213889 0.45 L 1.213889 0.4375 L 1.238889 0.4375 L 1.238889 0.425 L 1.213889 0.425 L 1.213889 0.4125 L 1.188889 0.4125 L 1.188889 0.4 L 1.163889 0.4 L 1.163889 0.4125 L 1.138889 0.4125 L 1.138889 0.425 L 1.113889 0.425 L 1.113889 0.4375 L 1.138889 0.4375 L 1.138889 0.45 L 1.113889 0.45 L 1.113889 0.4375 L 1.088889 0.4375 L 1.088889 0.45 L 1.063889 0.45 L 1.063889 0.4375 L 1.088889 0.4375 L 1.088889 0.425 L 1.063889 0.425 L 1.063889 0.4125 L 1.088889 0.4125 L 1.088889 0.425 L 1.113889 0.425 L 1.113889 0.4125 L 1.138889 0.4125 L 1.138889 0.4 L 1.163889 0.4 L 1.163889 0.3875 L 1.138889 0.3875 L 1.138889 0.375 L 1.113889 0.375 L 1.113889 0.3625 L 1.088889 0.3625 L 1.088889 0.375 L 1.063889 0.375 L 1.063889 0.3625 L 1.088889 0.3625 L 1.088889 0.35 L 1.063889 0.35 L 1.063889 0.3375 L 1.038889 0.3375 L 1.038889 0.325 L 1.013889 0.325 L 1.013889 0.3375 L 0.988889 0.3375 L 0.988889 0.325 L 1.013889 0.325 L 1.013889 0.3125 L 0.988889 0.3125 L 0.988889 0.3 L 0.963889 0.3 L 0.963889 0.2875 L 0.938889 0.2875 L 0.938889 0.3 L 0.913889 0.3 L 0.913889 0.3125 L 0.888889 0.3125 L 0.888889 0.325 L 0.913889 0.325 L 0.913889 0.3375 L 0.888889 0.3375 L 0.888889 0.325 L 0.863889 0.325 L 0.863889 0.3375 L 0.838889 0.3375 L 0.838889 0.325 L 0.863889 0.325 L 0.863889 0.3125 L 0.838889 0.3125 L 0.838889 0.3 L 0.863889 0.3 L 0.863889 0.3125 L 0.888889 0.3125 L 0.888889 0.3 L 0.913889 0.3 L 0.913889 0.2875 L 0.938889 0.2875 L 0.938889 0.275 L 0.913889 0.275 L 0.913889 0.2625 L 0.888889 0.2625 L 0.888889 0.25 L 0.863889 0.25 L 0.863889 0.2625 L 0.838889 0.2625 L 0.838889 0.25 L 0.863889 0.25 L 0.863889 0.2375 L 0.838889 0.2375 L 0.838889 0.225 L 0.813889 0.225 L 0.813889 0.2125 L 0.788889 0.2125 L 0.788889 0.225 L 0.763889 0.225 L 0.763889 0.2125 L 0.788889 0.2125 L 0.788889 0.2 L 0.763889 0.2 L 0.763889 0.1875 L 0.738889 0.1875 L 0.738889 0.175 L 0.713889 0.175 L 0.713889 0.1875 L 0.688889 0.1875 L 0.688889 0.2 L 0.663889 0.2 L 0.663889 0.2125 L 0.688889 0.2125 L 0.688889 0.225 L 0.663889 0.225 L 0.663889 0.2125 L 0.638889 0.2125 L 0.638889 0.225 L 0.613889 0.225 L 0.613889 0.2375 L 0.588889 0.2375 L 0.588889 0.25 L 0.613889 0.25 L 0.613889 0.2625 L 0.588889 0.2625 L 0.588889 0.25 L 0.563889 0.25 L 0.563889 0.2625 L 0.538889 0.2625 L 0.538889 0.275 L 0.513889 0.275 L 0.513889 0.2875 L 0.538889 0.2875 L 0.538889 0.3 L 0.563889 0.3 L 0.563889 0.3125 L 0.588889 0.3125 L 0.588889 0.3 L 0.613889 0.3 L 0.613889 0.3125 L 0.588889 0.3125 L 0.588889 0.325 L 0.613889 0.325 L 0.613889 0.3375 L 0.588889 0.3375 L 0.588889 0.325 L 0.563889 0.325 L 0.563889 0.3375 L 0.538889 0.3375 L 0.538889 0.325 L 0.563889 0.325 L 0.563889 0.3125 L 0.538889 0.3125 L 0.538889 0.3 L 0.513889 0.3 L 0.513889 0.2875 L 0.488889 0.2875 L 0.488889 0.3 L 0.463889 0.3 L 0.463889 0.3125 L 0.438889 0.3125 L 0.438889 0.325 L 0.463889 0.325 L 0.463889 0.3375 L 0.438889 0.3375 L 0.438889 0.325 L 0.413889 0.325 L 0.413889 0.3375 L 0.388889 0.3375 L 0.388889 0.325 L 0.413889 0.325 L 0.413889 0.3125 L 0.388889 0.3125 L 0.388889 0.3 L 0.413889 0.3 L 0.413889 0.3125 L 0.438889 0.3125 L 0.438889 0.3 L 0.463889 0.3 L 0.463889 0.2875 L 0.488889 0.2875 L 0.488889 0.275 L 0.463889 0.275 L 0.463889 0.2625 L 0.438889 0.2625 L 0.438889 0.25 L 0.413889 0.25 L 0.413889 0.2625 L 0.388889 0.2625 L 0.388889 0.25 L 0.413889 0.25 L 0.413889 0.2375 L 0.388889 0.2375 L 0.388889 0.225 L 0.413889 0.225 L 0.413889 0.2375 L 0.438889 0.2375 L 0.438889 0.225 L 0.463889 0.225 L 0.463889 0.2375 L 0.438889 0.2375 L 0.438889 0.25 L 0.463889 0.25 L 0.463889 0.2625 L 0.488889 0.2625 L 0.488889 0.275 L 0.513889 0.275 L 0.513889 0.2625 L 0.538889 0.2625 L 0.538889 0.25 L 0.563889 0.25 L 0.563889 0.2375 L 0.538889 0.2375 L 0.538889 0.225 L 0.563889 0.225 L 0.563889 0.2375 L 0.588889 0.2375 L 0.588889 0.225 L 0.613889 0.225 L 0.613889 0.2125 L 0.638889 0.2125 L 0.638889 0.2 L 0.613889 0.2 L 0.613889 0.1875 L 0.638889 0.1875 L 0.638889 0.2 L 0.663889 0.2 L 0.663889 0.1875 L 0.688889 0.1875 L 0.688889 0.175 L 0.713889 0.175 L 0.713889 0.1625 L 0.688889 0.1625 L 0.688889 0.15 L 0.663889 0.15 L 0.663889 0.1375 L 0.638889 0.1375 L 0.638889 0.15 L 0.613889 0.15 L 0.613889 0.1375 L 0.638889 0.1375 L 0.638889 0.125 L 0.613889 0.125 L 0.613889 0.1125 L 0.588889 0.1125 L 0.588889 0.1 L 0.563889 0.1 L 0.563889 0.1125 L 0.538889 0.1125 L 0.538889 0.1 L 0.563889 0.1 L 0.563889 0.0875 L 0.538889 0.0875 L 0.538889 0.075 L 0.513889 0.075 L 0.513889 0.0625 L 0.488889 0.0625 L 0.488889 0.075 L 0.463889 0.075 L 0.463889 0.0875 L 0.438889 0.0875 L 0.438889 0.1 L 0.463889 0.1 L 0.463889 0.1125 L 0.438889 0.1125 L 0.438889 0.1 L 0.413889 0.1 L 0.413889 0.1125 L 0.388889 0.1125 L 0.388889 0.1 L 0.413889 0.1 L 0.413889 0.0875 L 0.388889 0.0875 L 0.388889 0.075 L 0.413889 0.075 L 0.413889 0.0875 L 0.438889 0.0875 L 0.438889 0.075 L 0.463889 0.075 L 0.463889 0.0625 L 0.488889 0.0625 L 0.488889 0.05 L 0.463889 0.05 L 0.463889 0.0375 L 0.438889 0.0375 L 0.438889 0.025 L 0.413889 0.025 L 0.413889 0.0375 L 0.388889 0.0375 L 0.388889 0.025 L 0.413889 0.025 L 0.413889 0.0125 L 0.388889 0.0125 L 0.388889 0 " transform="matrix(1080,0,0,1080,0,0)"/>
</g>
</svg>
