<?xml version="1.0" encoding="UTF-8"?>
<svg xmlns="http://www.w3.org/2000/svg" xmlns:xlink="http://www.w3.org/1999/xlink" width="1920pt" height="1080pt" viewBox="0 0 1920 1080" version="1.1">
<g id="surface51">
<rect x="0" y="0" width="1920" height="1080" style="fill:rgb(0%,0%,0%);fill-opacity:1;stroke:none;"/>
<path style="fill:none;stroke-width:0.00185185;stroke-linecap:butt;stroke-linejoin:miter;stroke:rgb(100%,100%,100%);stroke-opacity:1;stroke-miterlimit:10;" d="M 1.362572 0.473683 L 1.336256 0.5 L 1.309943 0.526317 L 1.283626 0.552633 L 1.25731 0.578946 L 1.230993 0.552633 L 1.309943 0.473683 L 1.336256 0.447367 L 1.309943 0.421054 L 1.283626 0.447367 L 1.204677 0.526317 L 1.178364 0.5 L 1.125731 0.447367 L 1.152047 0.421054 L 1.178364 0.394737 L 1.204677 0.368421 L 1.230993 0.342104 L 1.204677 0.315788 L 1.178364 0.342104 L 1.099414 0.421054 L 1.073101 0.394737 L 1.099414 0.368421 L 1.152047 0.315788 L 1.178364 0.289475 L 1.152047 0.263158 L 1.125731 0.289475 L 1.152047 0.315788 L 1.178364 0.342104 L 1.204677 0.368421 L 1.230993 0.394737 L 1.204677 0.421054 L 1.178364 0.394737 L 1.099414 0.315788 L 1.073101 0.342104 L 1.099414 0.368421 L 1.152047 0.421054 L 1.178364 0.447367 L 1.099414 0.526317 L 1.073101 0.5 L 1.020468 0.447367 L 0.994151 0.421054 L 0.967835 0.447367 L 1.073101 0.552633 L 1.046785 0.578946 L 1.020468 0.552633 L 0.967835 0.5 L 0.941522 0.473683 L 0.862572 0.552633 L 0.888889 0.578946 L 0.941522 0.631579 L 0.967835 0.657896 L 0.941522 0.684212 L 0.836256 0.578946 L 0.809943 0.605263 L 0.836256 0.631579 L 0.888889 0.684212 L 0.915205 0.710525 L 0.836256 0.789475 L 0.809943 0.763158 L 0.75731 0.710525 L 0.730993 0.684212 L 0.704677 0.710525 L 0.783626 0.789475 L 0.809943 0.815788 L 0.783626 0.842104 L 0.75731 0.815788 L 0.730993 0.789475 L 0.704677 0.763158 L 0.678364 0.736842 L 0.652047 0.763158 L 0.678364 0.789475 L 0.704677 0.763158 L 0.75731 0.710525 L 0.783626 0.684212 L 0.809943 0.710525 L 0.730993 0.789475 L 0.704677 0.815788 L 0.730993 0.842104 L 0.75731 0.815788 L 0.783626 0.789475 L 0.809943 0.763158 L 0.836256 0.736842 L 0.888889 0.789475 L 0.915205 0.815788 L 0.836256 0.894737 L 0.809943 0.921054 L 0.836256 0.947367 L 0.862572 0.921054 L 0.941522 0.842104 L 0.967835 0.868421 L 0.941522 0.894737 L 0.915205 0.921054 L 0.888889 0.947367 L 0.862572 0.973683 L 0.888889 1 L 0.915205 0.973683 L 0.888889 0.947367 L 0.862572 0.921054 L 0.836256 0.894737 L 0.809943 0.868421 L 0.836256 0.842104 L 0.915205 0.921054 L 0.941522 0.947367 L 0.967835 0.921054 L 0.941522 0.894737 L 0.862572 0.815788 L 0.888889 0.789475 L 0.941522 0.736842 L 0.967835 0.763158 L 0.994151 0.789475 L 1.020468 0.815788 L 1.046785 0.842104 L 1.073101 0.815788 L 1.046785 0.789475 L 0.967835 0.710525 L 0.994151 0.684212 L 1.020468 0.710525 L 1.073101 0.763158 L 1.099414 0.789475 L 1.125731 0.763158 L 1.099414 0.736842 L 1.073101 0.763158 L 1.046785 0.789475 L 1.020468 0.815788 L 0.994151 0.842104 L 0.967835 0.815788 L 0.994151 0.789475 L 1.073101 0.710525 L 1.046785 0.684212 L 1.020468 0.710525 L 0.967835 0.763158 L 0.941522 0.789475 L 0.862572 0.710525 L 0.888889 0.684212 L 0.941522 0.631579 L 0.967835 0.605263 L 0.941522 0.578946 L 0.836256 0.684212 L 0.809943 0.657896 L 0.836256 0.631579 L 0.888889 0.578946 L 0.915205 0.552633 L 0.836256 0.473683 L 0.809943 0.5 L 0.75731 0.552633 L 0.730993 0.578946 L 0.704677 0.552633 L 0.809943 0.447367 L 0.783626 0.421054 L 0.75731 0.447367 L 0.704677 0.5 L 0.678364 0.526317 L 0.599414 0.447367 L 0.625731 0.421054 L 0.678364 0.368421 L 0.704677 0.342104 L 0.678364 0.315788 L 0.599414 0.394737 L 0.573101 0.421054 L 0.546785 0.394737 L 0.573101 0.368421 L 0.599414 0.342104 L 0.625731 0.315788 L 0.652047 0.289475 L 0.625731 0.263158 L 0.599414 0.289475 L 0.625731 0.315788 L 0.678364 0.368421 L 0.704677 0.394737 L 0.678364 0.421054 L 0.599414 0.342104 L 0.573101 0.315788 L 0.546785 0.342104 L 0.573101 0.368421 L 0.599414 0.394737 L 0.625731 0.421054 L 0.652047 0.447367 L 0.599414 0.5 L 0.573101 0.526317 L 0.494151 0.447367 L 0.467835 0.421054 L 0.441522 0.447367 L 0.467835 0.473683 L 0.546785 0.552633 L 0.520468 0.578946 L 0.494151 0.552633 L 0.467835 0.526317 L 0.441522 0.5 L 0.415205 0.473683 L 0.388889 0.5 L 0.415205 0.526317 L 0.441522 0.5 L 0.467835 0.473683 L 0.494151 0.447367 L 0.520468 0.421054 L 0.546785 0.447367 L 0.467835 0.526317 L 0.441522 0.552633 L 0.467835 0.578946 L 0.494151 0.552633 L 0.573101 0.473683 L 0.599414 0.5 L 0.652047 0.552633 L 0.625731 0.578946 L 0.599414 0.605263 L 0.573101 0.631579 L 0.546785 0.657896 L 0.573101 0.684212 L 0.599414 0.657896 L 0.678364 0.578946 L 0.704677 0.605263 L 0.678364 0.631579 L 0.625731 0.684212 L 0.599414 0.710525 L 0.625731 0.736842 L 0.652047 0.710525 L 0.625731 0.684212 L 0.599414 0.657896 L 0.573101 0.631579 L 0.546785 0.605263 L 0.573101 0.578946 L 0.599414 0.605263 L 0.678364 0.684212 L 0.704677 0.657896 L 0.678364 0.631579 L 0.625731 0.578946 L 0.599414 0.552633 L 0.678364 0.473683 L 0.704677 0.5 L 0.75731 0.552633 L 0.783626 0.578946 L 0.809943 0.552633 L 0.704677 0.447367 L 0.730993 0.421054 L 0.75731 0.447367 L 0.809943 0.5 L 0.836256 0.526317 L 0.915205 0.447367 L 0.888889 0.421054 L 0.836256 0.368421 L 0.809943 0.342104 L 0.836256 0.315788 L 0.941522 0.421054 L 0.967835 0.394737 L 0.941522 0.368421 L 0.888889 0.315788 L 0.862572 0.289475 L 0.941522 0.210525 L 0.967835 0.236842 L 1.020468 0.289475 L 1.046785 0.315788 L 1.073101 0.289475 L 0.994151 0.210525 L 0.967835 0.184212 L 0.994151 0.157896 L 1.020468 0.184212 L 1.046785 0.210525 L 1.073101 0.236842 L 1.099414 0.263158 L 1.125731 0.236842 L 1.099414 0.210525 L 1.073101 0.236842 L 1.020468 0.289475 L 0.994151 0.315788 L 0.967835 0.289475 L 1.046785 0.210525 L 1.073101 0.184212 L 1.046785 0.157896 L 1.020468 0.184212 L 0.994151 0.210525 L 0.967835 0.236842 L 0.941522 0.263158 L 0.888889 0.210525 L 0.862572 0.184212 L 0.941522 0.105263 L 0.967835 0.078946 L 0.941522 0.0526331 L 0.915205 0.078946 L 0.836256 0.157896 L 0.809943 0.131579 L 0.836256 0.105263 L 0.862572 0.078946 L 0.888889 0.0526331 L 0.915205 0.0263166 L 0.888889 0 L 0.862572 0.0263166 L 0.888889 0.0526331 L 0.915205 0.078946 L 0.941522 0.105263 L 0.967835 0.131579 L 0.941522 0.157896 L 0.862572 0.078946 L 0.836256 0.0526331 L 0.809943 0.078946 L 0.836256 0.105263 L 0.915205 0.184212 L 0.888889 0.210525 L 0.836256 0.263158 L 0.809943 0.236842 L 0.783626 0.210525 L 0.75731 0.184212 L 0.730993 0.157896 L 0.704677 0.184212 L 0.730993 0.210525 L 0.809943 0.289475 L 0.783626 0.315788 L 0.75731 0.289475 L 0.704677 0.236842 L 0.678364 0.210525 L 0.652047 0.236842 L 0.678364 0.263158 L 0.704677 0.236842 L 0.730993 0.210525 L 0.75731 0.184212 L 0.783626 0.157896 L 0.809943 0.184212 L 0.783626 0.210525 L 0.704677 0.289475 L 0.730993 0.315788 L 0.75731 0.289475 L 0.809943 0.236842 L 0.836256 0.210525 L 0.915205 0.289475 L 0.888889 0.315788 L 0.836256 0.368421 L 0.809943 0.394737 L 0.836256 0.421054 L 0.941522 0.315788 L 0.967835 0.342104 L 0.941522 0.368421 L 0.888889 0.421054 L 0.862572 0.447367 L 0.941522 0.526317 L 0.967835 0.5 L 1.020468 0.447367 L 1.046785 0.421054 L 1.073101 0.447367 L 0.967835 0.552633 L 0.994151 0.578946 L 1.020468 0.552633 L 1.073101 0.5 L 1.099414 0.473683 L 1.178364 0.552633 L 1.152047 0.578946 L 1.099414 0.631579 L 1.073101 0.657896 L 1.099414 0.684212 L 1.178364 0.605263 L 1.204677 0.578946 L 1.230993 0.605263 L 1.204677 0.631579 L 1.178364 0.657896 L 1.152047 0.684212 L 1.125731 0.710525 L 1.152047 0.736842 L 1.178364 0.710525 L 1.152047 0.684212 L 1.099414 0.631579 L 1.073101 0.605263 L 1.099414 0.578946 L 1.178364 0.657896 L 1.204677 0.684212 L 1.230993 0.657896 L 1.204677 0.631579 L 1.178364 0.605263 L 1.152047 0.578946 L 1.125731 0.552633 L 1.178364 0.5 L 1.204677 0.473683 L 1.283626 0.552633 L 1.309943 0.578946 L 1.336256 0.552633 L 1.309943 0.526317 L 1.230993 0.447367 L 1.25731 0.421054 L 1.283626 0.447367 L 1.309943 0.473683 L 1.336256 0.5 L 1.362572 0.526317 L 1.388889 0.5 " transform="matrix(1080,0,0,1080,0,0)"/>
</g>
</svg>
