<?xml version="1.0" encoding="UTF-8"?>
<svg xmlns="http://www.w3.org/2000/svg" xmlns:xlink="http://www.w3.org/1999/xlink" width="1920pt" height="1080pt" viewBox="0 0 1920 1080" version="1.1">
<g id="surface26">
<rect x="0" y="0" width="1920" height="1080" style="fill:rgb(0%,0%,0%);fill-opacity:1;stroke:none;"/>
<path style="fill:none;stroke-width:0.00185185;stroke-linecap:butt;stroke-linejoin:miter;stroke:rgb(100%,100%,100%);stroke-opacity:1;stroke-miterlimit:10;" d="M 0.865079 1 L 0.865079 0.984125 L 0.880953 0.984125 L 0.880953 0.95238 L 0.865079 0.95238 L 0.865079 0.968254 L 0.849208 0.968254 L 0.849208 0.95238 L 0.833333 0.95238 L 0.833333 0.984125 L 0.849208 0.984125 L 0.849208 1 L 0.817459 1 L 0.817459 0.984125 L 0.801588 0.984125 L 0.801588 1 L 0.769842 1 L 0.769842 0.984125 L 0.785713 0.984125 L 0.785713 0.968254 L 0.769842 0.968254 L 0.769842 0.95238 L 0.801588 0.95238 L 0.801588 0.968254 L 0.817459 0.968254 L 0.817459 0.920634 L 0.801588 0.920634 L 0.801588 0.936509 L 0.769842 0.936509 L 0.769842 0.920634 L 0.785713 0.920634 L 0.785713 0.904763 L 0.769842 0.904763 L 0.769842 0.888889 L 0.801588 0.888889 L 0.801588 0.904763 L 0.817459 0.904763 L 0.817459 0.888889 L 0.849208 0.888889 L 0.849208 0.904763 L 0.833333 0.904763 L 0.833333 0.936509 L 0.849208 0.936509 L 0.849208 0.920634 L 0.865079 0.920634 L 0.865079 0.936509 L 0.880953 0.936509 L 0.880953 0.904763 L 0.865079 0.904763 L 0.865079 0.888889 L 0.880953 0.888889 L 0.880953 0.857143 L 0.865079 0.857143 L 0.865079 0.873014 L 0.833333 0.873014 L 0.833333 0.857143 L 0.849208 0.857143 L 0.849208 0.841269 L 0.833333 0.841269 L 0.833333 0.825398 L 0.865079 0.825398 L 0.865079 0.841269 L 0.880953 0.841269 L 0.880953 0.809523 L 0.865079 0.809523 L 0.865079 0.793652 L 0.880953 0.793652 L 0.880953 0.761903 L 0.865079 0.761903 L 0.865079 0.777778 L 0.849208 0.777778 L 0.849208 0.761903 L 0.833333 0.761903 L 0.833333 0.793652 L 0.849208 0.793652 L 0.849208 0.809523 L 0.801588 0.809523 L 0.801588 0.793652 L 0.817459 0.793652 L 0.817459 0.761903 L 0.801588 0.761903 L 0.801588 0.777778 L 0.785713 0.777778 L 0.785713 0.761903 L 0.769842 0.761903 L 0.769842 0.793652 L 0.785713 0.793652 L 0.785713 0.809523 L 0.769842 0.809523 L 0.769842 0.841269 L 0.785713 0.841269 L 0.785713 0.825398 L 0.817459 0.825398 L 0.817459 0.841269 L 0.801588 0.841269 L 0.801588 0.857143 L 0.817459 0.857143 L 0.817459 0.873014 L 0.785713 0.873014 L 0.785713 0.857143 L 0.769842 0.857143 L 0.769842 0.873014 L 0.753968 0.873014 L 0.753968 0.857143 L 0.738097 0.857143 L 0.738097 0.873014 L 0.706348 0.873014 L 0.706348 0.857143 L 0.722222 0.857143 L 0.722222 0.841269 L 0.706348 0.841269 L 0.706348 0.825398 L 0.738097 0.825398 L 0.738097 0.841269 L 0.753968 0.841269 L 0.753968 0.809523 L 0.738097 0.809523 L 0.738097 0.793652 L 0.753968 0.793652 L 0.753968 0.761903 L 0.738097 0.761903 L 0.738097 0.777778 L 0.722222 0.777778 L 0.722222 0.761903 L 0.706348 0.761903 L 0.706348 0.793652 L 0.722222 0.793652 L 0.722222 0.809523 L 0.674602 0.809523 L 0.674602 0.793652 L 0.690477 0.793652 L 0.690477 0.761903 L 0.674602 0.761903 L 0.674602 0.777778 L 0.658731 0.777778 L 0.658731 0.761903 L 0.642857 0.761903 L 0.642857 0.793652 L 0.658731 0.793652 L 0.658731 0.809523 L 0.642857 0.809523 L 0.642857 0.841269 L 0.658731 0.841269 L 0.658731 0.825398 L 0.690477 0.825398 L 0.690477 0.841269 L 0.674602 0.841269 L 0.674602 0.857143 L 0.690477 0.857143 L 0.690477 0.873014 L 0.658731 0.873014 L 0.658731 0.857143 L 0.642857 0.857143 L 0.642857 0.888889 L 0.658731 0.888889 L 0.658731 0.904763 L 0.642857 0.904763 L 0.642857 0.936509 L 0.658731 0.936509 L 0.658731 0.920634 L 0.674602 0.920634 L 0.674602 0.936509 L 0.690477 0.936509 L 0.690477 0.904763 L 0.674602 0.904763 L 0.674602 0.888889 L 0.706348 0.888889 L 0.706348 0.904763 L 0.722222 0.904763 L 0.722222 0.888889 L 0.753968 0.888889 L 0.753968 0.904763 L 0.738097 0.904763 L 0.738097 0.920634 L 0.753968 0.920634 L 0.753968 0.936509 L 0.722222 0.936509 L 0.722222 0.920634 L 0.706348 0.920634 L 0.706348 0.968254 L 0.722222 0.968254 L 0.722222 0.95238 L 0.753968 0.95238 L 0.753968 0.968254 L 0.738097 0.968254 L 0.738097 0.984125 L 0.753968 0.984125 L 0.753968 1 L 0.722222 1 L 0.722222 0.984125 L 0.706348 0.984125 L 0.706348 1 L 0.674602 1 L 0.674602 0.984125 L 0.690477 0.984125 L 0.690477 0.95238 L 0.674602 0.95238 L 0.674602 0.968254 L 0.658731 0.968254 L 0.658731 0.95238 L 0.642857 0.95238 L 0.642857 0.984125 L 0.658731 0.984125 L 0.658731 1 L 0.626986 1 L 0.626986 0.984125 L 0.611111 0.984125 L 0.611111 1 L 0.579366 1 L 0.579366 0.984125 L 0.595237 0.984125 L 0.595237 0.968254 L 0.579366 0.968254 L 0.579366 0.95238 L 0.611111 0.95238 L 0.611111 0.968254 L 0.626986 0.968254 L 0.626986 0.936509 L 0.611111 0.936509 L 0.611111 0.920634 L 0.626986 0.920634 L 0.626986 0.888889 L 0.611111 0.888889 L 0.611111 0.904763 L 0.595237 0.904763 L 0.595237 0.888889 L 0.579366 0.888889 L 0.579366 0.920634 L 0.595237 0.920634 L 0.595237 0.936509 L 0.54762 0.936509 L 0.54762 0.920634 L 0.563491 0.920634 L 0.563491 0.888889 L 0.54762 0.888889 L 0.54762 0.904763 L 0.531746 0.904763 L 0.531746 0.888889 L 0.515875 0.888889 L 0.515875 0.920634 L 0.531746 0.920634 L 0.531746 0.936509 L 0.515875 0.936509 L 0.515875 0.968254 L 0.531746 0.968254 L 0.531746 0.95238 L 0.563491 0.95238 L 0.563491 0.968254 L 0.54762 0.968254 L 0.54762 0.984125 L 0.563491 0.984125 L 0.563491 1 L 0.531746 1 L 0.531746 0.984125 L 0.515875 0.984125 L 0.515875 1 L 0.484125 1 L 0.484125 0.984125 L 0.5 0.984125 L 0.5 0.95238 L 0.484125 0.95238 L 0.484125 0.968254 L 0.468254 0.968254 L 0.468254 0.95238 L 0.45238 0.95238 L 0.45238 0.984125 L 0.468254 0.984125 L 0.468254 1 L 0.436509 1 L 0.436509 0.984125 L 0.420634 0.984125 L 0.420634 1 L 0.388889 1 L 0.388889 0.984125 L 0.404763 0.984125 L 0.404763 0.968254 L 0.388889 0.968254 L 0.388889 0.95238 L 0.420634 0.95238 L 0.420634 0.968254 L 0.436509 0.968254 L 0.436509 0.920634 L 0.420634 0.920634 L 0.420634 0.936509 L 0.388889 0.936509 L 0.388889 0.920634 L 0.404763 0.920634 L 0.404763 0.904763 L 0.388889 0.904763 L 0.388889 0.888889 L 0.420634 0.888889 L 0.420634 0.904763 L 0.436509 0.904763 L 0.436509 0.888889 L 0.468254 0.888889 L 0.468254 0.904763 L 0.45238 0.904763 L 0.45238 0.936509 L 0.468254 0.936509 L 0.468254 0.920634 L 0.484125 0.920634 L 0.484125 0.936509 L 0.5 0.936509 L 0.5 0.904763 L 0.484125 0.904763 L 0.484125 0.888889 L 0.5 0.888889 L 0.5 0.873014 L 0.484125 0.873014 L 0.484125 0.857143 L 0.5 0.857143 L 0.5 0.825398 L 0.484125 0.825398 L 0.484125 0.841269 L 0.468254 0.841269 L 0.468254 0.825398 L 0.45238 0.825398 L 0.45238 0.857143 L 0.468254 0.857143 L 0.468254 0.873014 L 0.436509 0.873014 L 0.436509 0.857143 L 0.420634 0.857143 L 0.420634 0.873014 L 0.388889 0.873014 L 0.388889 0.857143 L 0.404763 0.857143 L 0.404763 0.841269 L 0.388889 0.841269 L 0.388889 0.825398 L 0.420634 0.825398 L 0.420634 0.841269 L 0.436509 0.841269 L 0.436509 0.793652 L 0.420634 0.793652 L 0.420634 0.809523 L 0.388889 0.809523 L 0.388889 0.793652 L 0.404763 0.793652 L 0.404763 0.777778 L 0.388889 0.777778 L 0.388889 0.761903 L 0.420634 0.761903 L 0.420634 0.777778 L 0.436509 0.777778 L 0.436509 0.761903 L 0.468254 0.761903 L 0.468254 0.777778 L 0.45238 0.777778 L 0.45238 0.809523 L 0.468254 0.809523 L 0.468254 0.793652 L 0.484125 0.793652 L 0.484125 0.809523 L 0.5 0.809523 L 0.5 0.777778 L 0.484125 0.777778 L 0.484125 0.761903 L 0.515875 0.761903 L 0.515875 0.777778 L 0.531746 0.777778 L 0.531746 0.761903 L 0.563491 0.761903 L 0.563491 0.777778 L 0.54762 0.777778 L 0.54762 0.793652 L 0.563491 0.793652 L 0.563491 0.809523 L 0.531746 0.809523 L 0.531746 0.793652 L 0.515875 0.793652 L 0.515875 0.825398 L 0.531746 0.825398 L 0.531746 0.841269 L 0.515875 0.841269 L 0.515875 0.873014 L 0.531746 0.873014 L 0.531746 0.857143 L 0.54762 0.857143 L 0.54762 0.873014 L 0.563491 0.873014 L 0.563491 0.841269 L 0.54762 0.841269 L 0.54762 0.825398 L 0.595237 0.825398 L 0.595237 0.841269 L 0.579366 0.841269 L 0.579366 0.873014 L 0.595237 0.873014 L 0.595237 0.857143 L 0.611111 0.857143 L 0.611111 0.873014 L 0.626986 0.873014 L 0.626986 0.841269 L 0.611111 0.841269 L 0.611111 0.825398 L 0.626986 0.825398 L 0.626986 0.793652 L 0.611111 0.793652 L 0.611111 0.809523 L 0.579366 0.809523 L 0.579366 0.793652 L 0.595237 0.793652 L 0.595237 0.777778 L 0.579366 0.777778 L 0.579366 0.761903 L 0.611111 0.761903 L 0.611111 0.777778 L 0.626986 0.777778 L 0.626986 0.730158 L 0.611111 0.730158 L 0.611111 0.746032 L 0.579366 0.746032 L 0.579366 0.730158 L 0.595237 0.730158 L 0.595237 0.714287 L 0.579366 0.714287 L 0.579366 0.698412 L 0.611111 0.698412 L 0.611111 0.714287 L 0.626986 0.714287 L 0.626986 0.682541 L 0.611111 0.682541 L 0.611111 0.666667 L 0.626986 0.666667 L 0.626986 0.634921 L 0.611111 0.634921 L 0.611111 0.650792 L 0.595237 0.650792 L 0.595237 0.634921 L 0.579366 0.634921 L 0.579366 0.666667 L 0.595237 0.666667 L 0.595237 0.682541 L 0.54762 0.682541 L 0.54762 0.666667 L 0.563491 0.666667 L 0.563491 0.634921 L 0.54762 0.634921 L 0.54762 0.650792 L 0.531746 0.650792 L 0.531746 0.634921 L 0.515875 0.634921 L 0.515875 0.666667 L 0.531746 0.666667 L 0.531746 0.682541 L 0.515875 0.682541 L 0.515875 0.714287 L 0.531746 0.714287 L 0.531746 0.698412 L 0.563491 0.698412 L 0.563491 0.714287 L 0.54762 0.714287 L 0.54762 0.730158 L 0.563491 0.730158 L 0.563491 0.746032 L 0.531746 0.746032 L 0.531746 0.730158 L 0.515875 0.730158 L 0.515875 0.746032 L 0.484125 0.746032 L 0.484125 0.730158 L 0.5 0.730158 L 0.5 0.698412 L 0.484125 0.698412 L 0.484125 0.714287 L 0.468254 0.714287 L 0.468254 0.698412 L 0.45238 0.698412 L 0.45238 0.730158 L 0.468254 0.730158 L 0.468254 0.746032 L 0.436509 0.746032 L 0.436509 0.730158 L 0.420634 0.730158 L 0.420634 0.746032 L 0.388889 0.746032 L 0.388889 0.730158 L 0.404763 0.730158 L 0.404763 0.714287 L 0.388889 0.714287 L 0.388889 0.698412 L 0.420634 0.698412 L 0.420634 0.714287 L 0.436509 0.714287 L 0.436509 0.666667 L 0.420634 0.666667 L 0.420634 0.682541 L 0.388889 0.682541 L 0.388889 0.666667 L 0.404763 0.666667 L 0.404763 0.650792 L 0.388889 0.650792 L 0.388889 0.634921 L 0.420634 0.634921 L 0.420634 0.650792 L 0.436509 0.650792 L 0.436509 0.634921 L 0.468254 0.634921 L 0.468254 0.650792 L 0.45238 0.650792 L 0.45238 0.682541 L 0.468254 0.682541 L 0.468254 0.666667 L 0.484125 0.666667 L 0.484125 0.682541 L 0.5 0.682541 L 0.5 0.650792 L 0.484125 0.650792 L 0.484125 0.634921 L 0.5 0.634921 L 0.5 0.619047 L 0.484125 0.619047 L 0.484125 0.603176 L 0.5 0.603176 L 0.5 0.57143 L 0.484125 0.57143 L 0.484125 0.587301 L 0.468254 0.587301 L 0.468254 0.57143 L 0.45238 0.57143 L 0.45238 0.603176 L 0.468254 0.603176 L 0.468254 0.619047 L 0.436509 0.619047 L 0.436509 0.603176 L 0.420634 0.603176 L 0.420634 0.619047 L 0.388889 0.619047 L 0.388889 0.603176 L 0.404763 0.603176 L 0.404763 0.587301 L 0.388889 0.587301 L 0.388889 0.57143 L 0.420634 0.57143 L 0.420634 0.587301 L 0.436509 0.587301 L 0.436509 0.539681 L 0.420634 0.539681 L 0.420634 0.555556 L 0.388889 0.555556 L 0.388889 0.539681 L 0.404763 0.539681 L 0.404763 0.52381 L 0.388889 0.52381 L 0.388889 0.507935 L 0.420634 0.507935 L 0.420634 0.52381 L 0.436509 0.52381 L 0.436509 0.507935 L 0.468254 0.507935 L 0.468254 0.52381 L 0.45238 0.52381 L 0.45238 0.555556 L 0.468254 0.555556 L 0.468254 0.539681 L 0.484125 0.539681 L 0.484125 0.555556 L 0.5 0.555556 L 0.5 0.52381 L 0.484125 0.52381 L 0.484125 0.507935 L 0.515875 0.507935 L 0.515875 0.52381 L 0.531746 0.52381 L 0.531746 0.507935 L 0.563491 0.507935 L 0.563491 0.52381 L 0.54762 0.52381 L 0.54762 0.539681 L 0.563491 0.539681 L 0.563491 0.555556 L 0.531746 0.555556 L 0.531746 0.539681 L 0.515875 0.539681 L 0.515875 0.57143 L 0.531746 0.57143 L 0.531746 0.587301 L 0.515875 0.587301 L 0.515875 0.619047 L 0.531746 0.619047 L 0.531746 0.603176 L 0.54762 0.603176 L 0.54762 0.619047 L 0.563491 0.619047 L 0.563491 0.587301 L 0.54762 0.587301 L 0.54762 0.57143 L 0.595237 0.57143 L 0.595237 0.587301 L 0.579366 0.587301 L 0.579366 0.619047 L 0.595237 0.619047 L 0.595237 0.603176 L 0.611111 0.603176 L 0.611111 0.619047 L 0.626986 0.619047 L 0.626986 0.587301 L 0.611111 0.587301 L 0.611111 0.57143 L 0.626986 0.57143 L 0.626986 0.539681 L 0.611111 0.539681 L 0.611111 0.555556 L 0.579366 0.555556 L 0.579366 0.539681 L 0.595237 0.539681 L 0.595237 0.52381 L 0.579366 0.52381 L 0.579366 0.507935 L 0.611111 0.507935 L 0.611111 0.52381 L 0.626986 0.52381 L 0.626986 0.507935 L 0.658731 0.507935 L 0.658731 0.52381 L 0.642857 0.52381 L 0.642857 0.555556 L 0.658731 0.555556 L 0.658731 0.539681 L 0.674602 0.539681 L 0.674602 0.555556 L 0.690477 0.555556 L 0.690477 0.52381 L 0.674602 0.52381 L 0.674602 0.507935 L 0.706348 0.507935 L 0.706348 0.52381 L 0.722222 0.52381 L 0.722222 0.507935 L 0.753968 0.507935 L 0.753968 0.52381 L 0.738097 0.52381 L 0.738097 0.539681 L 0.753968 0.539681 L 0.753968 0.555556 L 0.722222 0.555556 L 0.722222 0.539681 L 0.706348 0.539681 L 0.706348 0.587301 L 0.722222 0.587301 L 0.722222 0.57143 L 0.753968 0.57143 L 0.753968 0.587301 L 0.738097 0.587301 L 0.738097 0.603176 L 0.753968 0.603176 L 0.753968 0.619047 L 0.722222 0.619047 L 0.722222 0.603176 L 0.706348 0.603176 L 0.706348 0.619047 L 0.674602 0.619047 L 0.674602 0.603176 L 0.690477 0.603176 L 0.690477 0.57143 L 0.674602 0.57143 L 0.674602 0.587301 L 0.658731 0.587301 L 0.658731 0.57143 L 0.642857 0.57143 L 0.642857 0.603176 L 0.658731 0.603176 L 0.658731 0.619047 L 0.642857 0.619047 L 0.642857 0.650792 L 0.658731 0.650792 L 0.658731 0.634921 L 0.690477 0.634921 L 0.690477 0.650792 L 0.674602 0.650792 L 0.674602 0.666667 L 0.690477 0.666667 L 0.690477 0.682541 L 0.658731 0.682541 L 0.658731 0.666667 L 0.642857 0.666667 L 0.642857 0.698412 L 0.658731 0.698412 L 0.658731 0.714287 L 0.642857 0.714287 L 0.642857 0.746032 L 0.658731 0.746032 L 0.658731 0.730158 L 0.674602 0.730158 L 0.674602 0.746032 L 0.690477 0.746032 L 0.690477 0.714287 L 0.674602 0.714287 L 0.674602 0.698412 L 0.722222 0.698412 L 0.722222 0.714287 L 0.706348 0.714287 L 0.706348 0.746032 L 0.722222 0.746032 L 0.722222 0.730158 L 0.738097 0.730158 L 0.738097 0.746032 L 0.753968 0.746032 L 0.753968 0.714287 L 0.738097 0.714287 L 0.738097 0.698412 L 0.753968 0.698412 L 0.753968 0.666667 L 0.738097 0.666667 L 0.738097 0.682541 L 0.706348 0.682541 L 0.706348 0.666667 L 0.722222 0.666667 L 0.722222 0.650792 L 0.706348 0.650792 L 0.706348 0.634921 L 0.738097 0.634921 L 0.738097 0.650792 L 0.753968 0.650792 L 0.753968 0.634921 L 0.769842 0.634921 L 0.769842 0.650792 L 0.785713 0.650792 L 0.785713 0.634921 L 0.817459 0.634921 L 0.817459 0.650792 L 0.801588 0.650792 L 0.801588 0.666667 L 0.817459 0.666667 L 0.817459 0.682541 L 0.785713 0.682541 L 0.785713 0.666667 L 0.769842 0.666667 L 0.769842 0.698412 L 0.785713 0.698412 L 0.785713 0.714287 L 0.769842 0.714287 L 0.769842 0.746032 L 0.785713 0.746032 L 0.785713 0.730158 L 0.801588 0.730158 L 0.801588 0.746032 L 0.817459 0.746032 L 0.817459 0.714287 L 0.801588 0.714287 L 0.801588 0.698412 L 0.849208 0.698412 L 0.849208 0.714287 L 0.833333 0.714287 L 0.833333 0.746032 L 0.849208 0.746032 L 0.849208 0.730158 L 0.865079 0.730158 L 0.865079 0.746032 L 0.880953 0.746032 L 0.880953 0.714287 L 0.865079 0.714287 L 0.865079 0.698412 L 0.880953 0.698412 L 0.880953 0.666667 L 0.865079 0.666667 L 0.865079 0.682541 L 0.833333 0.682541 L 0.833333 0.666667 L 0.849208 0.666667 L 0.849208 0.650792 L 0.833333 0.650792 L 0.833333 0.634921 L 0.865079 0.634921 L 0.865079 0.650792 L 0.880953 0.650792 L 0.880953 0.619047 L 0.865079 0.619047 L 0.865079 0.603176 L 0.880953 0.603176 L 0.880953 0.57143 L 0.865079 0.57143 L 0.865079 0.587301 L 0.849208 0.587301 L 0.849208 0.57143 L 0.833333 0.57143 L 0.833333 0.603176 L 0.849208 0.603176 L 0.849208 0.619047 L 0.817459 0.619047 L 0.817459 0.603176 L 0.801588 0.603176 L 0.801588 0.619047 L 0.769842 0.619047 L 0.769842 0.603176 L 0.785713 0.603176 L 0.785713 0.587301 L 0.769842 0.587301 L 0.769842 0.57143 L 0.801588 0.57143 L 0.801588 0.587301 L 0.817459 0.587301 L 0.817459 0.539681 L 0.801588 0.539681 L 0.801588 0.555556 L 0.769842 0.555556 L 0.769842 0.539681 L 0.785713 0.539681 L 0.785713 0.52381 L 0.769842 0.52381 L 0.769842 0.507935 L 0.801588 0.507935 L 0.801588 0.52381 L 0.817459 0.52381 L 0.817459 0.507935 L 0.849208 0.507935 L 0.849208 0.52381 L 0.833333 0.52381 L 0.833333 0.555556 L 0.849208 0.555556 L 0.849208 0.539681 L 0.865079 0.539681 L 0.865079 0.555556 L 0.880953 0.555556 L 0.880953 0.52381 L 0.865079 0.52381 L 0.865079 0.507935 L 0.880953 0.507935 L 0.880953 0.492065 L 0.865079 0.492065 L 0.865079 0.47619 L 0.880953 0.47619 L 0.880953 0.444444 L 0.865079 0.444444 L 0.865079 0.460319 L 0.849208 0.460319 L 0.849208 0.444444 L 0.833333 0.444444 L 0.833333 0.47619 L 0.849208 0.47619 L 0.849208 0.492065 L 0.817459 0.492065 L 0.817459 0.47619 L 0.801588 0.47619 L 0.801588 0.492065 L 0.769842 0.492065 L 0.769842 0.47619 L 0.785713 0.47619 L 0.785713 0.460319 L 0.769842 0.460319 L 0.769842 0.444444 L 0.801588 0.444444 L 0.801588 0.460319 L 0.817459 0.460319 L 0.817459 0.412699 L 0.801588 0.412699 L 0.801588 0.42857 L 0.769842 0.42857 L 0.769842 0.412699 L 0.785713 0.412699 L 0.785713 0.396824 L 0.769842 0.396824 L 0.769842 0.380953 L 0.801588 0.380953 L 0.801588 0.396824 L 0.817459 0.396824 L 0.817459 0.380953 L 0.849208 0.380953 L 0.849208 0.396824 L 0.833333 0.396824 L 0.833333 0.42857 L 0.849208 0.42857 L 0.849208 0.412699 L 0.865079 0.412699 L 0.865079 0.42857 L 0.880953 0.42857 L 0.880953 0.396824 L 0.865079 0.396824 L 0.865079 0.380953 L 0.880953 0.380953 L 0.880953 0.349208 L 0.865079 0.349208 L 0.865079 0.365079 L 0.833333 0.365079 L 0.833333 0.349208 L 0.849208 0.349208 L 0.849208 0.333333 L 0.833333 0.333333 L 0.833333 0.317459 L 0.865079 0.317459 L 0.865079 0.333333 L 0.880953 0.333333 L 0.880953 0.301588 L 0.865079 0.301588 L 0.865079 0.285713 L 0.880953 0.285713 L 0.880953 0.253968 L 0.865079 0.253968 L 0.865079 0.269842 L 0.849208 0.269842 L 0.849208 0.253968 L 0.833333 0.253968 L 0.833333 0.285713 L 0.849208 0.285713 L 0.849208 0.301588 L 0.801588 0.301588 L 0.801588 0.285713 L 0.817459 0.285713 L 0.817459 0.253968 L 0.801588 0.253968 L 0.801588 0.269842 L 0.785713 0.269842 L 0.785713 0.253968 L 0.769842 0.253968 L 0.769842 0.285713 L 0.785713 0.285713 L 0.785713 0.301588 L 0.769842 0.301588 L 0.769842 0.333333 L 0.785713 0.333333 L 0.785713 0.317459 L 0.817459 0.317459 L 0.817459 0.333333 L 0.801588 0.333333 L 0.801588 0.349208 L 0.817459 0.349208 L 0.817459 0.365079 L 0.785713 0.365079 L 0.785713 0.349208 L 0.769842 0.349208 L 0.769842 0.365079 L 0.753968 0.365079 L 0.753968 0.349208 L 0.738097 0.349208 L 0.738097 0.365079 L 0.706348 0.365079 L 0.706348 0.349208 L 0.722222 0.349208 L 0.722222 0.333333 L 0.706348 0.333333 L 0.706348 0.317459 L 0.738097 0.317459 L 0.738097 0.333333 L 0.753968 0.333333 L 0.753968 0.301588 L 0.738097 0.301588 L 0.738097 0.285713 L 0.753968 0.285713 L 0.753968 0.253968 L 0.738097 0.253968 L 0.738097 0.269842 L 0.722222 0.269842 L 0.722222 0.253968 L 0.706348 0.253968 L 0.706348 0.285713 L 0.722222 0.285713 L 0.722222 0.301588 L 0.674602 0.301588 L 0.674602 0.285713 L 0.690477 0.285713 L 0.690477 0.253968 L 0.674602 0.253968 L 0.674602 0.269842 L 0.658731 0.269842 L 0.658731 0.253968 L 0.642857 0.253968 L 0.642857 0.285713 L 0.658731 0.285713 L 0.658731 0.301588 L 0.642857 0.301588 L 0.642857 0.333333 L 0.658731 0.333333 L 0.658731 0.317459 L 0.690477 0.317459 L 0.690477 0.333333 L 0.674602 0.333333 L 0.674602 0.349208 L 0.690477 0.349208 L 0.690477 0.365079 L 0.658731 0.365079 L 0.658731 0.349208 L 0.642857 0.349208 L 0.642857 0.380953 L 0.658731 0.380953 L 0.658731 0.396824 L 0.642857 0.396824 L 0.642857 0.42857 L 0.658731 0.42857 L 0.658731 0.412699 L 0.674602 0.412699 L 0.674602 0.42857 L 0.690477 0.42857 L 0.690477 0.396824 L 0.674602 0.396824 L 0.674602 0.380953 L 0.706348 0.380953 L 0.706348 0.396824 L 0.722222 0.396824 L 0.722222 0.380953 L 0.753968 0.380953 L 0.753968 0.396824 L 0.738097 0.396824 L 0.738097 0.412699 L 0.753968 0.412699 L 0.753968 0.42857 L 0.722222 0.42857 L 0.722222 0.412699 L 0.706348 0.412699 L 0.706348 0.460319 L 0.722222 0.460319 L 0.722222 0.444444 L 0.753968 0.444444 L 0.753968 0.460319 L 0.738097 0.460319 L 0.738097 0.47619 L 0.753968 0.47619 L 0.753968 0.492065 L 0.722222 0.492065 L 0.722222 0.47619 L 0.706348 0.47619 L 0.706348 0.492065 L 0.674602 0.492065 L 0.674602 0.47619 L 0.690477 0.47619 L 0.690477 0.444444 L 0.674602 0.444444 L 0.674602 0.460319 L 0.658731 0.460319 L 0.658731 0.444444 L 0.642857 0.444444 L 0.642857 0.47619 L 0.658731 0.47619 L 0.658731 0.492065 L 0.626986 0.492065 L 0.626986 0.47619 L 0.611111 0.47619 L 0.611111 0.492065 L 0.579366 0.492065 L 0.579366 0.47619 L 0.595237 0.47619 L 0.595237 0.460319 L 0.579366 0.460319 L 0.579366 0.444444 L 0.611111 0.444444 L 0.611111 0.460319 L 0.626986 0.460319 L 0.626986 0.42857 L 0.611111 0.42857 L 0.611111 0.412699 L 0.626986 0.412699 L 0.626986 0.380953 L 0.611111 0.380953 L 0.611111 0.396824 L 0.595237 0.396824 L 0.595237 0.380953 L 0.579366 0.380953 L 0.579366 0.412699 L 0.595237 0.412699 L 0.595237 0.42857 L 0.54762 0.42857 L 0.54762 0.412699 L 0.563491 0.412699 L 0.563491 0.380953 L 0.54762 0.380953 L 0.54762 0.396824 L 0.531746 0.396824 L 0.531746 0.380953 L 0.515875 0.380953 L 0.515875 0.412699 L 0.531746 0.412699 L 0.531746 0.42857 L 0.515875 0.42857 L 0.515875 0.460319 L 0.531746 0.460319 L 0.531746 0.444444 L 0.563491 0.444444 L 0.563491 0.460319 L 0.54762 0.460319 L 0.54762 0.47619 L 0.563491 0.47619 L 0.563491 0.492065 L 0.531746 0.492065 L 0.531746 0.47619 L 0.515875 0.47619 L 0.515875 0.492065 L 0.484125 0.492065 L 0.484125 0.47619 L 0.5 0.47619 L 0.5 0.444444 L 0.484125 0.444444 L 0.484125 0.460319 L 0.468254 0.460319 L 0.468254 0.444444 L 0.45238 0.444444 L 0.45238 0.47619 L 0.468254 0.47619 L 0.468254 0.492065 L 0.436509 0.492065 L 0.436509 0.47619 L 0.420634 0.47619 L 0.420634 0.492065 L 0.388889 0.492065 L 0.388889 0.47619 L 0.404763 0.47619 L 0.404763 0.460319 L 0.388889 0.460319 L 0.388889 0.444444 L 0.420634 0.444444 L 0.420634 0.460319 L 0.436509 0.460319 L 0.436509 0.412699 L 0.420634 0.412699 L 0.420634 0.42857 L 0.388889 0.42857 L 0.388889 0.412699 L 0.404763 0.412699 L 0.404763 0.396824 L 0.388889 0.396824 L 0.388889 0.380953 L 0.420634 0.380953 L 0.420634 0.396824 L 0.436509 0.396824 L 0.436509 0.380953 L 0.468254 0.380953 L 0.468254 0.396824 L 0.45238 0.396824 L 0.45238 0.42857 L 0.468254 0.42857 L 0.468254 0.412699 L 0.484125 0.412699 L 0.484125 0.42857 L 0.5 0.42857 L 0.5 0.396824 L 0.484125 0.396824 L 0.484125 0.380953 L 0.5 0.380953 L 0.5 0.365079 L 0.484125 0.365079 L 0.484125 0.349208 L 0.5 0.349208 L 0.5 0.317459 L 0.484125 0.317459 L 0.484125 0.333333 L 0.468254 0.333333 L 0.468254 0.317459 L 0.45238 0.317459 L 0.45238 0.349208 L 0.468254 0.349208 L 0.468254 0.365079 L 0.436509 0.365079 L 0.436509 0.349208 L 0.420634 0.349208 L 0.420634 0.365079 L 0.388889 0.365079 L 0.388889 0.349208 L 0.404763 0.349208 L 0.404763 0.333333 L 0.388889 0.333333 L 0.388889 0.317459 L 0.420634 0.317459 L 0.420634 0.333333 L 0.436509 0.333333 L 0.436509 0.285713 L 0.420634 0.285713 L 0.420634 0.301588 L 0.388889 0.301588 L 0.388889 0.285713 L 0.404763 0.285713 L 0.404763 0.269842 L 0.388889 0.269842 L 0.388889 0.253968 L 0.420634 0.253968 L 0.420634 0.269842 L 0.436509 0.269842 L 0.436509 0.253968 L 0.468254 0.253968 L 0.468254 0.269842 L 0.45238 0.269842 L 0.45238 0.301588 L 0.468254 0.301588 L 0.468254 0.285713 L 0.484125 0.285713 L 0.484125 0.301588 L 0.5 0.301588 L 0.5 0.269842 L 0.484125 0.269842 L 0.484125 0.253968 L 0.515875 0.253968 L 0.515875 0.269842 L 0.531746 0.269842 L 0.531746 0.253968 L 0.563491 0.253968 L 0.563491 0.269842 L 0.54762 0.269842 L 0.54762 0.285713 L 0.563491 0.285713 L 0.563491 0.301588 L 0.531746 0.301588 L 0.531746 0.285713 L 0.515875 0.285713 L 0.515875 0.317459 L 0.531746 0.317459 L 0.531746 0.333333 L 0.515875 0.333333 L 0.515875 0.365079 L 0.531746 0.365079 L 0.531746 0.349208 L 0.54762 0.349208 L 0.54762 0.365079 L 0.563491 0.365079 L 0.563491 0.333333 L 0.54762 0.333333 L 0.54762 0.317459 L 0.595237 0.317459 L 0.595237 0.333333 L 0.579366 0.333333 L 0.579366 0.365079 L 0.595237 0.365079 L 0.595237 0.349208 L 0.611111 0.349208 L 0.611111 0.365079 L 0.626986 0.365079 L 0.626986 0.333333 L 0.611111 0.333333 L 0.611111 0.317459 L 0.626986 0.317459 L 0.626986 0.285713 L 0.611111 0.285713 L 0.611111 0.301588 L 0.579366 0.301588 L 0.579366 0.285713 L 0.595237 0.285713 L 0.595237 0.269842 L 0.579366 0.269842 L 0.579366 0.253968 L 0.611111 0.253968 L 0.611111 0.269842 L 0.626986 0.269842 L 0.626986 0.222222 L 0.611111 0.222222 L 0.611111 0.238097 L 0.579366 0.238097 L 0.579366 0.222222 L 0.595237 0.222222 L 0.595237 0.206348 L 0.579366 0.206348 L 0.579366 0.190477 L 0.611111 0.190477 L 0.611111 0.206348 L 0.626986 0.206348 L 0.626986 0.174602 L 0.611111 0.174602 L 0.611111 0.158731 L 0.626986 0.158731 L 0.626986 0.126986 L 0.611111 0.126986 L 0.611111 0.142857 L 0.595237 0.142857 L 0.595237 0.126986 L 0.579366 0.126986 L 0.579366 0.158731 L 0.595237 0.158731 L 0.595237 0.174602 L 0.54762 0.174602 L 0.54762 0.158731 L 0.563491 0.158731 L 0.563491 0.126986 L 0.54762 0.126986 L 0.54762 0.142857 L 0.531746 0.142857 L 0.531746 0.126986 L 0.515875 0.126986 L 0.515875 0.158731 L 0.531746 0.158731 L 0.531746 0.174602 L 0.515875 0.174602 L 0.515875 0.206348 L 0.531746 0.206348 L 0.531746 0.190477 L 0.563491 0.190477 L 0.563491 0.206348 L 0.54762 0.206348 L 0.54762 0.222222 L 0.563491 0.222222 L 0.563491 0.238097 L 0.531746 0.238097 L 0.531746 0.222222 L 0.515875 0.222222 L 0.515875 0.238097 L 0.484125 0.238097 L 0.484125 0.222222 L 0.5 0.222222 L 0.5 0.190477 L 0.484125 0.190477 L 0.484125 0.206348 L 0.468254 0.206348 L 0.468254 0.190477 L 0.45238 0.190477 L 0.45238 0.222222 L 0.468254 0.222222 L 0.468254 0.238097 L 0.436509 0.238097 L 0.436509 0.222222 L 0.420634 0.222222 L 0.420634 0.238097 L 0.388889 0.238097 L 0.388889 0.222222 L 0.404763 0.222222 L 0.404763 0.206348 L 0.388889 0.206348 L 0.388889 0.190477 L 0.420634 0.190477 L 0.420634 0.206348 L 0.436509 0.206348 L 0.436509 0.158731 L 0.420634 0.158731 L 0.420634 0.174602 L 0.388889 0.174602 L 0.388889 0.158731 L 0.404763 0.158731 L 0.404763 0.142857 L 0.388889 0.142857 L 0.388889 0.126986 L 0.420634 0.126986 L 0.420634 0.142857 L 0.436509 0.142857 L 0.436509 0.126986 L 0.468254 0.126986 L 0.468254 0.142857 L 0.45238 0.142857 L 0.45238 0.174602 L 0.468254 0.174602 L 0.468254 0.158731 L 0.484125 0.158731 L 0.484125 0.174602 L 0.5 0.174602 L 0.5 0.142857 L 0.484125 0.142857 L 0.484125 0.126986 L 0.5 0.126986 L 0.5 0.111111 L 0.484125 0.111111 L 0.484125 0.0952365 L 0.5 0.0952365 L 0.5 0.063491 L 0.484125 0.063491 L 0.484125 0.0793656 L 0.468254 0.0793656 L 0.468254 0.063491 L 0.45238 0.063491 L 0.45238 0.0952365 L 0.468254 0.0952365 L 0.468254 0.111111 L 0.436509 0.111111 L 0.436509 0.0952365 L 0.420634 0.0952365 L 0.420634 0.111111 L 0.388889 0.111111 L 0.388889 0.0952365 L 0.404763 0.0952365 L 0.404763 0.0793656 L 0.388889 0.0793656 L 0.388889 0.063491 L 0.420634 0.063491 L 0.420634 0.0793656 L 0.436509 0.0793656 L 0.436509 0.0317455 L 0.420634 0.0317455 L 0.420634 0.0476201 L 0.388889 0.0476201 L 0.388889 0.0317455 L 0.404763 0.0317455 L 0.404763 0.0158746 L 0.388889 0.0158746 L 0.388889 0 L 0.420634 0 L 0.420634 0.0158746 L 0.436509 0.0158746 L 0.436509 0 L 0.468254 0 L 0.468254 0.0158746 L 0.45238 0.0158746 L 0.45238 0.0476201 L 0.468254 0.0476201 L 0.468254 0.0317455 L 0.484125 0.0317455 L 0.484125 0.0476201 L 0.5 0.0476201 L 0.5 0.0158746 L 0.484125 0.0158746 L 0.484125 0 L 0.515875 0 L 0.515875 0.0158746 L 0.531746 0.0158746 L 0.531746 0 L 0.563491 0 L 0.563491 0.0158746 L 0.54762 0.0158746 L 0.54762 0.0317455 L 0.563491 0.0317455 L 0.563491 0.0476201 L 0.531746 0.0476201 L 0.531746 0.0317455 L 0.515875 0.0317455 L 0.515875 0.063491 L 0.531746 0.063491 L 0.531746 0.0793656 L 0.515875 0.0793656 L 0.515875 0.111111 L 0.531746 0.111111 L 0.531746 0.0952365 L 0.54762 0.0952365 L 0.54762 0.111111 L 0.563491 0.111111 L 0.563491 0.0793656 L 0.54762 0.0793656 L 0.54762 0.063491 L 0.595237 0.063491 L 0.595237 0.0793656 L 0.579366 0.0793656 L 0.579366 0.111111 L 0.595237 0.111111 L 0.595237 0.0952365 L 0.611111 0.0952365 L 0.611111 0.111111 L 0.626986 0.111111 L 0.626986 0.0793656 L 0.611111 0.0793656 L 0.611111 0.063491 L 0.626986 0.063491 L 0.626986 0.0317455 L 0.611111 0.0317455 L 0.611111 0.0476201 L 0.579366 0.0476201 L 0.579366 0.0317455 L 0.595237 0.0317455 L 0.595237 0.0158746 L 0.579366 0.0158746 L 0.579366 0 L 0.611111 0 L 0.611111 0.0158746 L 0.626986 0.0158746 L 0.626986 0 L 0.658731 0 L 0.658731 0.0158746 L 0.642857 0.0158746 L 0.642857 0.0476201 L 0.658731 0.0476201 L 0.658731 0.0317455 L 0.674602 0.0317455 L 0.674602 0.0476201 L 0.690477 0.0476201 L 0.690477 0.0158746 L 0.674602 0.0158746 L 0.674602 0 L 0.706348 0 L 0.706348 0.0158746 L 0.722222 0.0158746 L 0.722222 0 L 0.753968 0 L 0.753968 0.0158746 L 0.738097 0.0158746 L 0.738097 0.0317455 L 0.753968 0.0317455 L 0.753968 0.0476201 L 0.722222 0.0476201 L 0.722222 0.0317455 L 0.706348 0.0317455 L 0.706348 0.0793656 L 0.722222 0.0793656 L 0.722222 0.063491 L 0.753968 0.063491 L 0.753968 0.0793656 L 0.738097 0.0793656 L 0.738097 0.0952365 L 0.753968 0.0952365 L 0.753968 0.111111 L 0.722222 0.111111 L 0.722222 0.0952365 L 0.706348 0.0952365 L 0.706348 0.111111 L 0.674602 0.111111 L 0.674602 0.0952365 L 0.690477 0.0952365 L 0.690477 0.063491 L 0.674602 0.063491 L 0.674602 0.0793656 L 0.658731 0.0793656 L 0.658731 0.063491 L 0.642857 0.063491 L 0.642857 0.0952365 L 0.658731 0.0952365 L 0.658731 0.111111 L 0.642857 0.111111 L 0.642857 0.142857 L 0.658731 0.142857 L 0.658731 0.126986 L 0.690477 0.126986 L 0.690477 0.142857 L 0.674602 0.142857 L 0.674602 0.158731 L 0.690477 0.158731 L 0.690477 0.174602 L 0.658731 0.174602 L 0.658731 0.158731 L 0.642857 0.158731 L 0.642857 0.190477 L 0.658731 0.190477 L 0.658731 0.206348 L 0.642857 0.206348 L 0.642857 0.238097 L 0.658731 0.238097 L 0.658731 0.222222 L 0.674602 0.222222 L 0.674602 0.238097 L 0.690477 0.238097 L 0.690477 0.206348 L 0.674602 0.206348 L 0.674602 0.190477 L 0.722222 0.190477 L 0.722222 0.206348 L 0.706348 0.206348 L 0.706348 0.238097 L 0.722222 0.238097 L 0.722222 0.222222 L 0.738097 0.222222 L 0.738097 0.238097 L 0.753968 0.238097 L 0.753968 0.206348 L 0.738097 0.206348 L 0.738097 0.190477 L 0.753968 0.190477 L 0.753968 0.158731 L 0.738097 0.158731 L 0.738097 0.174602 L 0.706348 0.174602 L 0.706348 0.158731 L 0.722222 0.158731 L 0.722222 0.142857 L 0.706348 0.142857 L 0.706348 0.126986 L 0.738097 0.126986 L 0.738097 0.142857 L 0.753968 0.142857 L 0.753968 0.126986 L 0.769842 0.126986 L 0.769842 0.142857 L 0.785713 0.142857 L 0.785713 0.126986 L 0.817459 0.126986 L 0.817459 0.142857 L 0.801588 0.142857 L 0.801588 0.158731 L 0.817459 0.158731 L 0.817459 0.174602 L 0.785713 0.174602 L 0.785713 0.158731 L 0.769842 0.158731 L 0.769842 0.190477 L 0.785713 0.190477 L 0.785713 0.206348 L 0.769842 0.206348 L 0.769842 0.238097 L 0.785713 0.238097 L 0.785713 0.222222 L 0.801588 0.222222 L 0.801588 0.238097 L 0.817459 0.238097 L 0.817459 0.206348 L 0.801588 0.206348 L 0.801588 0.190477 L 0.849208 0.190477 L 0.849208 0.206348 L 0.833333 0.206348 L 0.833333 0.238097 L 0.849208 0.238097 L 0.849208 0.222222 L 0.865079 0.222222 L 0.865079 0.238097 L 0.880953 0.238097 L 0.880953 0.206348 L 0.865079 0.206348 L 0.865079 0.190477 L 0.880953 0.190477 L 0.880953 0.158731 L 0.865079 0.158731 L 0.865079 0.174602 L 0.833333 0.174602 L 0.833333 0.158731 L 0.849208 0.158731 L 0.849208 0.142857 L 0.833333 0.142857 L 0.833333 0.126986 L 0.865079 0.126986 L 0.865079 0.142857 L 0.880953 0.142857 L 0.880953 0.111111 L 0.865079 0.111111 L 0.865079 0.0952365 L 0.880953 0.0952365 L 0.880953 0.063491 L 0.865079 0.063491 L 0.865079 0.0793656 L 0.849208 0.0793656 L 0.849208 0.063491 L 0.833333 0.063491 L 0.833333 0.0952365 L 0.849208 0.0952365 L 0.849208 0.111111 L 0.817459 0.111111 L 0.817459 0.0952365 L 0.801588 0.0952365 L 0.801588 0.111111 L 0.769842 0.111111 L 0.769842 0.0952365 L 0.785713 0.0952365 L 0.785713 0.0793656 L 0.769842 0.0793656 L 0.769842 0.063491 L 0.801588 0.063491 L 0.801588 0.0793656 L 0.817459 0.0793656 L 0.817459 0.0317455 L 0.801588 0.0317455 L 0.801588 0.0476201 L 0.769842 0.0476201 L 0.769842 0.0317455 L 0.785713 0.0317455 L 0.785713 0.0158746 L 0.769842 0.0158746 L 0.769842 0 L 0.801588 0 L 0.801588 0.0158746 L 0.817459 0.0158746 L 0.817459 0 L 0.849208 0 L 0.849208 0.0158746 L 0.833333 0.0158746 L 0.833333 0.0476201 L 0.849208 0.0476201 L 0.849208 0.0317455 L 0.865079 0.0317455 L 0.865079 0.0476201 L 0.880953 0.0476201 L 0.880953 0.0158746 L 0.865079 0.0158746 L 0.865079 0 L 0.912699 0 L 0.912699 0.0158746 L 0.896824 0.0158746 L 0.896824 0.0476201 L 0.912699 0.0476201 L 0.912699 0.0317455 L 0.92857 0.0317455 L 0.92857 0.0476201 L 0.944444 0.0476201 L 0.944444 0.0158746 L 0.92857 0.0158746 L 0.92857 0 L 0.960319 0 L 0.960319 0.0158746 L 0.97619 0.0158746 L 0.97619 0 L 1.007935 0 L 1.007935 0.0158746 L 0.992065 0.0158746 L 0.992065 0.0317455 L 1.007935 0.0317455 L 1.007935 0.0476201 L 0.97619 0.0476201 L 0.97619 0.0317455 L 0.960319 0.0317455 L 0.960319 0.0793656 L 0.97619 0.0793656 L 0.97619 0.063491 L 1.007935 0.063491 L 1.007935 0.0793656 L 0.992065 0.0793656 L 0.992065 0.0952365 L 1.007935 0.0952365 L 1.007935 0.111111 L 0.97619 0.111111 L 0.97619 0.0952365 L 0.960319 0.0952365 L 0.960319 0.111111 L 0.92857 0.111111 L 0.92857 0.0952365 L 0.944444 0.0952365 L 0.944444 0.063491 L 0.92857 0.063491 L 0.92857 0.0793656 L 0.912699 0.0793656 L 0.912699 0.063491 L 0.896824 0.063491 L 0.896824 0.0952365 L 0.912699 0.0952365 L 0.912699 0.111111 L 0.896824 0.111111 L 0.896824 0.142857 L 0.912699 0.142857 L 0.912699 0.126986 L 0.944444 0.126986 L 0.944444 0.142857 L 0.92857 0.142857 L 0.92857 0.158731 L 0.944444 0.158731 L 0.944444 0.174602 L 0.912699 0.174602 L 0.912699 0.158731 L 0.896824 0.158731 L 0.896824 0.190477 L 0.912699 0.190477 L 0.912699 0.206348 L 0.896824 0.206348 L 0.896824 0.238097 L 0.912699 0.238097 L 0.912699 0.222222 L 0.92857 0.222222 L 0.92857 0.238097 L 0.944444 0.238097 L 0.944444 0.206348 L 0.92857 0.206348 L 0.92857 0.190477 L 0.97619 0.190477 L 0.97619 0.206348 L 0.960319 0.206348 L 0.960319 0.238097 L 0.97619 0.238097 L 0.97619 0.222222 L 0.992065 0.222222 L 0.992065 0.238097 L 1.007935 0.238097 L 1.007935 0.206348 L 0.992065 0.206348 L 0.992065 0.190477 L 1.007935 0.190477 L 1.007935 0.158731 L 0.992065 0.158731 L 0.992065 0.174602 L 0.960319 0.174602 L 0.960319 0.158731 L 0.97619 0.158731 L 0.97619 0.142857 L 0.960319 0.142857 L 0.960319 0.126986 L 0.992065 0.126986 L 0.992065 0.142857 L 1.007935 0.142857 L 1.007935 0.126986 L 1.02381 0.126986 L 1.02381 0.142857 L 1.039681 0.142857 L 1.039681 0.126986 L 1.07143 0.126986 L 1.07143 0.142857 L 1.055556 0.142857 L 1.055556 0.158731 L 1.07143 0.158731 L 1.07143 0.174602 L 1.039681 0.174602 L 1.039681 0.158731 L 1.02381 0.158731 L 1.02381 0.190477 L 1.039681 0.190477 L 1.039681 0.206348 L 1.02381 0.206348 L 1.02381 0.238097 L 1.039681 0.238097 L 1.039681 0.222222 L 1.055556 0.222222 L 1.055556 0.238097 L 1.07143 0.238097 L 1.07143 0.206348 L 1.055556 0.206348 L 1.055556 0.190477 L 1.103176 0.190477 L 1.103176 0.206348 L 1.087301 0.206348 L 1.087301 0.238097 L 1.103176 0.238097 L 1.103176 0.222222 L 1.119047 0.222222 L 1.119047 0.238097 L 1.134921 0.238097 L 1.134921 0.206348 L 1.119047 0.206348 L 1.119047 0.190477 L 1.134921 0.190477 L 1.134921 0.158731 L 1.119047 0.158731 L 1.119047 0.174602 L 1.087301 0.174602 L 1.087301 0.158731 L 1.103176 0.158731 L 1.103176 0.142857 L 1.087301 0.142857 L 1.087301 0.126986 L 1.119047 0.126986 L 1.119047 0.142857 L 1.134921 0.142857 L 1.134921 0.111111 L 1.119047 0.111111 L 1.119047 0.0952365 L 1.134921 0.0952365 L 1.134921 0.063491 L 1.119047 0.063491 L 1.119047 0.0793656 L 1.103176 0.0793656 L 1.103176 0.063491 L 1.087301 0.063491 L 1.087301 0.0952365 L 1.103176 0.0952365 L 1.103176 0.111111 L 1.07143 0.111111 L 1.07143 0.0952365 L 1.055556 0.0952365 L 1.055556 0.111111 L 1.02381 0.111111 L 1.02381 0.0952365 L 1.039681 0.0952365 L 1.039681 0.0793656 L 1.02381 0.0793656 L 1.02381 0.063491 L 1.055556 0.063491 L 1.055556 0.0793656 L 1.07143 0.0793656 L 1.07143 0.0317455 L 1.055556 0.0317455 L 1.055556 0.0476201 L 1.02381 0.0476201 L 1.02381 0.0317455 L 1.039681 0.0317455 L 1.039681 0.0158746 L 1.02381 0.0158746 L 1.02381 0 L 1.055556 0 L 1.055556 0.0158746 L 1.07143 0.0158746 L 1.07143 0 L 1.103176 0 L 1.103176 0.0158746 L 1.087301 0.0158746 L 1.087301 0.0476201 L 1.103176 0.0476201 L 1.103176 0.0317455 L 1.119047 0.0317455 L 1.119047 0.0476201 L 1.134921 0.0476201 L 1.134921 0.0158746 L 1.119047 0.0158746 L 1.119047 0 L 1.150792 0 L 1.150792 0.0158746 L 1.166667 0.0158746 L 1.166667 0 L 1.198412 0 L 1.198412 0.0158746 L 1.182541 0.0158746 L 1.182541 0.0317455 L 1.198412 0.0317455 L 1.198412 0.0476201 L 1.166667 0.0476201 L 1.166667 0.0317455 L 1.150792 0.0317455 L 1.150792 0.063491 L 1.166667 0.063491 L 1.166667 0.0793656 L 1.150792 0.0793656 L 1.150792 0.111111 L 1.166667 0.111111 L 1.166667 0.0952365 L 1.182541 0.0952365 L 1.182541 0.111111 L 1.198412 0.111111 L 1.198412 0.0793656 L 1.182541 0.0793656 L 1.182541 0.063491 L 1.230158 0.063491 L 1.230158 0.0793656 L 1.214287 0.0793656 L 1.214287 0.111111 L 1.230158 0.111111 L 1.230158 0.0952365 L 1.246032 0.0952365 L 1.246032 0.111111 L 1.261903 0.111111 L 1.261903 0.0793656 L 1.246032 0.0793656 L 1.246032 0.063491 L 1.261903 0.063491 L 1.261903 0.0317455 L 1.246032 0.0317455 L 1.246032 0.0476201 L 1.214287 0.0476201 L 1.214287 0.0317455 L 1.230158 0.0317455 L 1.230158 0.0158746 L 1.214287 0.0158746 L 1.214287 0 L 1.246032 0 L 1.246032 0.0158746 L 1.261903 0.0158746 L 1.261903 0 L 1.293652 0 L 1.293652 0.0158746 L 1.277778 0.0158746 L 1.277778 0.0476201 L 1.293652 0.0476201 L 1.293652 0.0317455 L 1.309523 0.0317455 L 1.309523 0.0476201 L 1.325398 0.0476201 L 1.325398 0.0158746 L 1.309523 0.0158746 L 1.309523 0 L 1.341269 0 L 1.341269 0.0158746 L 1.357143 0.0158746 L 1.357143 0 L 1.388889 0 L 1.388889 0.0158746 L 1.373014 0.0158746 L 1.373014 0.0317455 L 1.388889 0.0317455 L 1.388889 0.0476201 L 1.357143 0.0476201 L 1.357143 0.0317455 L 1.341269 0.0317455 L 1.341269 0.0793656 L 1.357143 0.0793656 L 1.357143 0.063491 L 1.388889 0.063491 L 1.388889 0.0793656 L 1.373014 0.0793656 L 1.373014 0.0952365 L 1.388889 0.0952365 L 1.388889 0.111111 L 1.357143 0.111111 L 1.357143 0.0952365 L 1.341269 0.0952365 L 1.341269 0.111111 L 1.309523 0.111111 L 1.309523 0.0952365 L 1.325398 0.0952365 L 1.325398 0.063491 L 1.309523 0.063491 L 1.309523 0.0793656 L 1.293652 0.0793656 L 1.293652 0.063491 L 1.277778 0.063491 L 1.277778 0.0952365 L 1.293652 0.0952365 L 1.293652 0.111111 L 1.277778 0.111111 L 1.277778 0.126986 L 1.293652 0.126986 L 1.293652 0.142857 L 1.277778 0.142857 L 1.277778 0.174602 L 1.293652 0.174602 L 1.293652 0.158731 L 1.309523 0.158731 L 1.309523 0.174602 L 1.325398 0.174602 L 1.325398 0.142857 L 1.309523 0.142857 L 1.309523 0.126986 L 1.341269 0.126986 L 1.341269 0.142857 L 1.357143 0.142857 L 1.357143 0.126986 L 1.388889 0.126986 L 1.388889 0.142857 L 1.373014 0.142857 L 1.373014 0.158731 L 1.388889 0.158731 L 1.388889 0.174602 L 1.357143 0.174602 L 1.357143 0.158731 L 1.341269 0.158731 L 1.341269 0.206348 L 1.357143 0.206348 L 1.357143 0.190477 L 1.388889 0.190477 L 1.388889 0.206348 L 1.373014 0.206348 L 1.373014 0.222222 L 1.388889 0.222222 L 1.388889 0.238097 L 1.357143 0.238097 L 1.357143 0.222222 L 1.341269 0.222222 L 1.341269 0.238097 L 1.309523 0.238097 L 1.309523 0.222222 L 1.325398 0.222222 L 1.325398 0.190477 L 1.309523 0.190477 L 1.309523 0.206348 L 1.293652 0.206348 L 1.293652 0.190477 L 1.277778 0.190477 L 1.277778 0.222222 L 1.293652 0.222222 L 1.293652 0.238097 L 1.261903 0.238097 L 1.261903 0.222222 L 1.246032 0.222222 L 1.246032 0.238097 L 1.214287 0.238097 L 1.214287 0.222222 L 1.230158 0.222222 L 1.230158 0.206348 L 1.214287 0.206348 L 1.214287 0.190477 L 1.246032 0.190477 L 1.246032 0.206348 L 1.261903 0.206348 L 1.261903 0.174602 L 1.246032 0.174602 L 1.246032 0.158731 L 1.261903 0.158731 L 1.261903 0.126986 L 1.246032 0.126986 L 1.246032 0.142857 L 1.230158 0.142857 L 1.230158 0.126986 L 1.214287 0.126986 L 1.214287 0.158731 L 1.230158 0.158731 L 1.230158 0.174602 L 1.182541 0.174602 L 1.182541 0.158731 L 1.198412 0.158731 L 1.198412 0.126986 L 1.182541 0.126986 L 1.182541 0.142857 L 1.166667 0.142857 L 1.166667 0.126986 L 1.150792 0.126986 L 1.150792 0.158731 L 1.166667 0.158731 L 1.166667 0.174602 L 1.150792 0.174602 L 1.150792 0.206348 L 1.166667 0.206348 L 1.166667 0.190477 L 1.198412 0.190477 L 1.198412 0.206348 L 1.182541 0.206348 L 1.182541 0.222222 L 1.198412 0.222222 L 1.198412 0.238097 L 1.166667 0.238097 L 1.166667 0.222222 L 1.150792 0.222222 L 1.150792 0.269842 L 1.166667 0.269842 L 1.166667 0.253968 L 1.198412 0.253968 L 1.198412 0.269842 L 1.182541 0.269842 L 1.182541 0.285713 L 1.198412 0.285713 L 1.198412 0.301588 L 1.166667 0.301588 L 1.166667 0.285713 L 1.150792 0.285713 L 1.150792 0.317459 L 1.166667 0.317459 L 1.166667 0.333333 L 1.150792 0.333333 L 1.150792 0.365079 L 1.166667 0.365079 L 1.166667 0.349208 L 1.182541 0.349208 L 1.182541 0.365079 L 1.198412 0.365079 L 1.198412 0.333333 L 1.182541 0.333333 L 1.182541 0.317459 L 1.230158 0.317459 L 1.230158 0.333333 L 1.214287 0.333333 L 1.214287 0.365079 L 1.230158 0.365079 L 1.230158 0.349208 L 1.246032 0.349208 L 1.246032 0.365079 L 1.261903 0.365079 L 1.261903 0.333333 L 1.246032 0.333333 L 1.246032 0.317459 L 1.261903 0.317459 L 1.261903 0.285713 L 1.246032 0.285713 L 1.246032 0.301588 L 1.214287 0.301588 L 1.214287 0.285713 L 1.230158 0.285713 L 1.230158 0.269842 L 1.214287 0.269842 L 1.214287 0.253968 L 1.246032 0.253968 L 1.246032 0.269842 L 1.261903 0.269842 L 1.261903 0.253968 L 1.293652 0.253968 L 1.293652 0.269842 L 1.277778 0.269842 L 1.277778 0.301588 L 1.293652 0.301588 L 1.293652 0.285713 L 1.309523 0.285713 L 1.309523 0.301588 L 1.325398 0.301588 L 1.325398 0.269842 L 1.309523 0.269842 L 1.309523 0.253968 L 1.341269 0.253968 L 1.341269 0.269842 L 1.357143 0.269842 L 1.357143 0.253968 L 1.388889 0.253968 L 1.388889 0.269842 L 1.373014 0.269842 L 1.373014 0.285713 L 1.388889 0.285713 L 1.388889 0.301588 L 1.357143 0.301588 L 1.357143 0.285713 L 1.341269 0.285713 L 1.341269 0.333333 L 1.357143 0.333333 L 1.357143 0.317459 L 1.388889 0.317459 L 1.388889 0.333333 L 1.373014 0.333333 L 1.373014 0.349208 L 1.388889 0.349208 L 1.388889 0.365079 L 1.357143 0.365079 L 1.357143 0.349208 L 1.341269 0.349208 L 1.341269 0.365079 L 1.309523 0.365079 L 1.309523 0.349208 L 1.325398 0.349208 L 1.325398 0.317459 L 1.309523 0.317459 L 1.309523 0.333333 L 1.293652 0.333333 L 1.293652 0.317459 L 1.277778 0.317459 L 1.277778 0.349208 L 1.293652 0.349208 L 1.293652 0.365079 L 1.277778 0.365079 L 1.277778 0.380953 L 1.293652 0.380953 L 1.293652 0.396824 L 1.277778 0.396824 L 1.277778 0.42857 L 1.293652 0.42857 L 1.293652 0.412699 L 1.309523 0.412699 L 1.309523 0.42857 L 1.325398 0.42857 L 1.325398 0.396824 L 1.309523 0.396824 L 1.309523 0.380953 L 1.341269 0.380953 L 1.341269 0.396824 L 1.357143 0.396824 L 1.357143 0.380953 L 1.388889 0.380953 L 1.388889 0.396824 L 1.373014 0.396824 L 1.373014 0.412699 L 1.388889 0.412699 L 1.388889 0.42857 L 1.357143 0.42857 L 1.357143 0.412699 L 1.341269 0.412699 L 1.341269 0.460319 L 1.357143 0.460319 L 1.357143 0.444444 L 1.388889 0.444444 L 1.388889 0.460319 L 1.373014 0.460319 L 1.373014 0.47619 L 1.388889 0.47619 L 1.388889 0.492065 L 1.357143 0.492065 L 1.357143 0.47619 L 1.341269 0.47619 L 1.341269 0.492065 L 1.309523 0.492065 L 1.309523 0.47619 L 1.325398 0.47619 L 1.325398 0.444444 L 1.309523 0.444444 L 1.309523 0.460319 L 1.293652 0.460319 L 1.293652 0.444444 L 1.277778 0.444444 L 1.277778 0.47619 L 1.293652 0.47619 L 1.293652 0.492065 L 1.261903 0.492065 L 1.261903 0.47619 L 1.246032 0.47619 L 1.246032 0.492065 L 1.214287 0.492065 L 1.214287 0.47619 L 1.230158 0.47619 L 1.230158 0.460319 L 1.214287 0.460319 L 1.214287 0.444444 L 1.246032 0.444444 L 1.246032 0.460319 L 1.261903 0.460319 L 1.261903 0.42857 L 1.246032 0.42857 L 1.246032 0.412699 L 1.261903 0.412699 L 1.261903 0.380953 L 1.246032 0.380953 L 1.246032 0.396824 L 1.230158 0.396824 L 1.230158 0.380953 L 1.214287 0.380953 L 1.214287 0.412699 L 1.230158 0.412699 L 1.230158 0.42857 L 1.182541 0.42857 L 1.182541 0.412699 L 1.198412 0.412699 L 1.198412 0.380953 L 1.182541 0.380953 L 1.182541 0.396824 L 1.166667 0.396824 L 1.166667 0.380953 L 1.150792 0.380953 L 1.150792 0.412699 L 1.166667 0.412699 L 1.166667 0.42857 L 1.150792 0.42857 L 1.150792 0.460319 L 1.166667 0.460319 L 1.166667 0.444444 L 1.198412 0.444444 L 1.198412 0.460319 L 1.182541 0.460319 L 1.182541 0.47619 L 1.198412 0.47619 L 1.198412 0.492065 L 1.166667 0.492065 L 1.166667 0.47619 L 1.150792 0.47619 L 1.150792 0.492065 L 1.119047 0.492065 L 1.119047 0.47619 L 1.134921 0.47619 L 1.134921 0.444444 L 1.119047 0.444444 L 1.119047 0.460319 L 1.103176 0.460319 L 1.103176 0.444444 L 1.087301 0.444444 L 1.087301 0.47619 L 1.103176 0.47619 L 1.103176 0.492065 L 1.07143 0.492065 L 1.07143 0.47619 L 1.055556 0.47619 L 1.055556 0.492065 L 1.02381 0.492065 L 1.02381 0.47619 L 1.039681 0.47619 L 1.039681 0.460319 L 1.02381 0.460319 L 1.02381 0.444444 L 1.055556 0.444444 L 1.055556 0.460319 L 1.07143 0.460319 L 1.07143 0.412699 L 1.055556 0.412699 L 1.055556 0.42857 L 1.02381 0.42857 L 1.02381 0.412699 L 1.039681 0.412699 L 1.039681 0.396824 L 1.02381 0.396824 L 1.02381 0.380953 L 1.055556 0.380953 L 1.055556 0.396824 L 1.07143 0.396824 L 1.07143 0.380953 L 1.103176 0.380953 L 1.103176 0.396824 L 1.087301 0.396824 L 1.087301 0.42857 L 1.103176 0.42857 L 1.103176 0.412699 L 1.119047 0.412699 L 1.119047 0.42857 L 1.134921 0.42857 L 1.134921 0.396824 L 1.119047 0.396824 L 1.119047 0.380953 L 1.134921 0.380953 L 1.134921 0.349208 L 1.119047 0.349208 L 1.119047 0.365079 L 1.087301 0.365079 L 1.087301 0.349208 L 1.103176 0.349208 L 1.103176 0.333333 L 1.087301 0.333333 L 1.087301 0.317459 L 1.119047 0.317459 L 1.119047 0.333333 L 1.134921 0.333333 L 1.134921 0.301588 L 1.119047 0.301588 L 1.119047 0.285713 L 1.134921 0.285713 L 1.134921 0.253968 L 1.119047 0.253968 L 1.119047 0.269842 L 1.103176 0.269842 L 1.103176 0.253968 L 1.087301 0.253968 L 1.087301 0.285713 L 1.103176 0.285713 L 1.103176 0.301588 L 1.055556 0.301588 L 1.055556 0.285713 L 1.07143 0.285713 L 1.07143 0.253968 L 1.055556 0.253968 L 1.055556 0.269842 L 1.039681 0.269842 L 1.039681 0.253968 L 1.02381 0.253968 L 1.02381 0.285713 L 1.039681 0.285713 L 1.039681 0.301588 L 1.02381 0.301588 L 1.02381 0.333333 L 1.039681 0.333333 L 1.039681 0.317459 L 1.07143 0.317459 L 1.07143 0.333333 L 1.055556 0.333333 L 1.055556 0.349208 L 1.07143 0.349208 L 1.07143 0.365079 L 1.039681 0.365079 L 1.039681 0.349208 L 1.02381 0.349208 L 1.02381 0.365079 L 1.007935 0.365079 L 1.007935 0.349208 L 0.992065 0.349208 L 0.992065 0.365079 L 0.960319 0.365079 L 0.960319 0.349208 L 0.97619 0.349208 L 0.97619 0.333333 L 0.960319 0.333333 L 0.960319 0.317459 L 0.992065 0.317459 L 0.992065 0.333333 L 1.007935 0.333333 L 1.007935 0.301588 L 0.992065 0.301588 L 0.992065 0.285713 L 1.007935 0.285713 L 1.007935 0.253968 L 0.992065 0.253968 L 0.992065 0.269842 L 0.97619 0.269842 L 0.97619 0.253968 L 0.960319 0.253968 L 0.960319 0.285713 L 0.97619 0.285713 L 0.97619 0.301588 L 0.92857 0.301588 L 0.92857 0.285713 L 0.944444 0.285713 L 0.944444 0.253968 L 0.92857 0.253968 L 0.92857 0.269842 L 0.912699 0.269842 L 0.912699 0.253968 L 0.896824 0.253968 L 0.896824 0.285713 L 0.912699 0.285713 L 0.912699 0.301588 L 0.896824 0.301588 L 0.896824 0.333333 L 0.912699 0.333333 L 0.912699 0.317459 L 0.944444 0.317459 L 0.944444 0.333333 L 0.92857 0.333333 L 0.92857 0.349208 L 0.944444 0.349208 L 0.944444 0.365079 L 0.912699 0.365079 L 0.912699 0.349208 L 0.896824 0.349208 L 0.896824 0.380953 L 0.912699 0.380953 L 0.912699 0.396824 L 0.896824 0.396824 L 0.896824 0.42857 L 0.912699 0.42857 L 0.912699 0.412699 L 0.92857 0.412699 L 0.92857 0.42857 L 0.944444 0.42857 L 0.944444 0.396824 L 0.92857 0.396824 L 0.92857 0.380953 L 0.960319 0.380953 L 0.960319 0.396824 L 0.97619 0.396824 L 0.97619 0.380953 L 1.007935 0.380953 L 1.007935 0.396824 L 0.992065 0.396824 L 0.992065 0.412699 L 1.007935 0.412699 L 1.007935 0.42857 L 0.97619 0.42857 L 0.97619 0.412699 L 0.960319 0.412699 L 0.960319 0.460319 L 0.97619 0.460319 L 0.97619 0.444444 L 1.007935 0.444444 L 1.007935 0.460319 L 0.992065 0.460319 L 0.992065 0.47619 L 1.007935 0.47619 L 1.007935 0.492065 L 0.97619 0.492065 L 0.97619 0.47619 L 0.960319 0.47619 L 0.960319 0.492065 L 0.92857 0.492065 L 0.92857 0.47619 L 0.944444 0.47619 L 0.944444 0.444444 L 0.92857 0.444444 L 0.92857 0.460319 L 0.912699 0.460319 L 0.912699 0.444444 L 0.896824 0.444444 L 0.896824 0.47619 L 0.912699 0.47619 L 0.912699 0.492065 L 0.896824 0.492065 L 0.896824 0.507935 L 0.912699 0.507935 L 0.912699 0.52381 L 0.896824 0.52381 L 0.896824 0.555556 L 0.912699 0.555556 L 0.912699 0.539681 L 0.92857 0.539681 L 0.92857 0.555556 L 0.944444 0.555556 L 0.944444 0.52381 L 0.92857 0.52381 L 0.92857 0.507935 L 0.960319 0.507935 L 0.960319 0.52381 L 0.97619 0.52381 L 0.97619 0.507935 L 1.007935 0.507935 L 1.007935 0.52381 L 0.992065 0.52381 L 0.992065 0.539681 L 1.007935 0.539681 L 1.007935 0.555556 L 0.97619 0.555556 L 0.97619 0.539681 L 0.960319 0.539681 L 0.960319 0.587301 L 0.97619 0.587301 L 0.97619 0.57143 L 1.007935 0.57143 L 1.007935 0.587301 L 0.992065 0.587301 L 0.992065 0.603176 L 1.007935 0.603176 L 1.007935 0.619047 L 0.97619 0.619047 L 0.97619 0.603176 L 0.960319 0.603176 L 0.960319 0.619047 L 0.92857 0.619047 L 0.92857 0.603176 L 0.944444 0.603176 L 0.944444 0.57143 L 0.92857 0.57143 L 0.92857 0.587301 L 0.912699 0.587301 L 0.912699 0.57143 L 0.896824 0.57143 L 0.896824 0.603176 L 0.912699 0.603176 L 0.912699 0.619047 L 0.896824 0.619047 L 0.896824 0.650792 L 0.912699 0.650792 L 0.912699 0.634921 L 0.944444 0.634921 L 0.944444 0.650792 L 0.92857 0.650792 L 0.92857 0.666667 L 0.944444 0.666667 L 0.944444 0.682541 L 0.912699 0.682541 L 0.912699 0.666667 L 0.896824 0.666667 L 0.896824 0.698412 L 0.912699 0.698412 L 0.912699 0.714287 L 0.896824 0.714287 L 0.896824 0.746032 L 0.912699 0.746032 L 0.912699 0.730158 L 0.92857 0.730158 L 0.92857 0.746032 L 0.944444 0.746032 L 0.944444 0.714287 L 0.92857 0.714287 L 0.92857 0.698412 L 0.97619 0.698412 L 0.97619 0.714287 L 0.960319 0.714287 L 0.960319 0.746032 L 0.97619 0.746032 L 0.97619 0.730158 L 0.992065 0.730158 L 0.992065 0.746032 L 1.007935 0.746032 L 1.007935 0.714287 L 0.992065 0.714287 L 0.992065 0.698412 L 1.007935 0.698412 L 1.007935 0.666667 L 0.992065 0.666667 L 0.992065 0.682541 L 0.960319 0.682541 L 0.960319 0.666667 L 0.97619 0.666667 L 0.97619 0.650792 L 0.960319 0.650792 L 0.960319 0.634921 L 0.992065 0.634921 L 0.992065 0.650792 L 1.007935 0.650792 L 1.007935 0.634921 L 1.02381 0.634921 L 1.02381 0.650792 L 1.039681 0.650792 L 1.039681 0.634921 L 1.07143 0.634921 L 1.07143 0.650792 L 1.055556 0.650792 L 1.055556 0.666667 L 1.07143 0.666667 L 1.07143 0.682541 L 1.039681 0.682541 L 1.039681 0.666667 L 1.02381 0.666667 L 1.02381 0.698412 L 1.039681 0.698412 L 1.039681 0.714287 L 1.02381 0.714287 L 1.02381 0.746032 L 1.039681 0.746032 L 1.039681 0.730158 L 1.055556 0.730158 L 1.055556 0.746032 L 1.07143 0.746032 L 1.07143 0.714287 L 1.055556 0.714287 L 1.055556 0.698412 L 1.103176 0.698412 L 1.103176 0.714287 L 1.087301 0.714287 L 1.087301 0.746032 L 1.103176 0.746032 L 1.103176 0.730158 L 1.119047 0.730158 L 1.119047 0.746032 L 1.134921 0.746032 L 1.134921 0.714287 L 1.119047 0.714287 L 1.119047 0.698412 L 1.134921 0.698412 L 1.134921 0.666667 L 1.119047 0.666667 L 1.119047 0.682541 L 1.087301 0.682541 L 1.087301 0.666667 L 1.103176 0.666667 L 1.103176 0.650792 L 1.087301 0.650792 L 1.087301 0.634921 L 1.119047 0.634921 L 1.119047 0.650792 L 1.134921 0.650792 L 1.134921 0.619047 L 1.119047 0.619047 L 1.119047 0.603176 L 1.134921 0.603176 L 1.134921 0.57143 L 1.119047 0.57143 L 1.119047 0.587301 L 1.103176 0.587301 L 1.103176 0.57143 L 1.087301 0.57143 L 1.087301 0.603176 L 1.103176 0.603176 L 1.103176 0.619047 L 1.07143 0.619047 L 1.07143 0.603176 L 1.055556 0.603176 L 1.055556 0.619047 L 1.02381 0.619047 L 1.02381 0.603176 L 1.039681 0.603176 L 1.039681 0.587301 L 1.02381 0.587301 L 1.02381 0.57143 L 1.055556 0.57143 L 1.055556 0.587301 L 1.07143 0.587301 L 1.07143 0.539681 L 1.055556 0.539681 L 1.055556 0.555556 L 1.02381 0.555556 L 1.02381 0.539681 L 1.039681 0.539681 L 1.039681 0.52381 L 1.02381 0.52381 L 1.02381 0.507935 L 1.055556 0.507935 L 1.055556 0.52381 L 1.07143 0.52381 L 1.07143 0.507935 L 1.103176 0.507935 L 1.103176 0.52381 L 1.087301 0.52381 L 1.087301 0.555556 L 1.103176 0.555556 L 1.103176 0.539681 L 1.119047 0.539681 L 1.119047 0.555556 L 1.134921 0.555556 L 1.134921 0.52381 L 1.119047 0.52381 L 1.119047 0.507935 L 1.150792 0.507935 L 1.150792 0.52381 L 1.166667 0.52381 L 1.166667 0.507935 L 1.198412 0.507935 L 1.198412 0.52381 L 1.182541 0.52381 L 1.182541 0.539681 L 1.198412 0.539681 L 1.198412 0.555556 L 1.166667 0.555556 L 1.166667 0.539681 L 1.150792 0.539681 L 1.150792 0.57143 L 1.166667 0.57143 L 1.166667 0.587301 L 1.150792 0.587301 L 1.150792 0.619047 L 1.166667 0.619047 L 1.166667 0.603176 L 1.182541 0.603176 L 1.182541 0.619047 L 1.198412 0.619047 L 1.198412 0.587301 L 1.182541 0.587301 L 1.182541 0.57143 L 1.230158 0.57143 L 1.230158 0.587301 L 1.214287 0.587301 L 1.214287 0.619047 L 1.230158 0.619047 L 1.230158 0.603176 L 1.246032 0.603176 L 1.246032 0.619047 L 1.261903 0.619047 L 1.261903 0.587301 L 1.246032 0.587301 L 1.246032 0.57143 L 1.261903 0.57143 L 1.261903 0.539681 L 1.246032 0.539681 L 1.246032 0.555556 L 1.214287 0.555556 L 1.214287 0.539681 L 1.230158 0.539681 L 1.230158 0.52381 L 1.214287 0.52381 L 1.214287 0.507935 L 1.246032 0.507935 L 1.246032 0.52381 L 1.261903 0.52381 L 1.261903 0.507935 L 1.293652 0.507935 L 1.293652 0.52381 L 1.277778 0.52381 L 1.277778 0.555556 L 1.293652 0.555556 L 1.293652 0.539681 L 1.309523 0.539681 L 1.309523 0.555556 L 1.325398 0.555556 L 1.325398 0.52381 L 1.309523 0.52381 L 1.309523 0.507935 L 1.341269 0.507935 L 1.341269 0.52381 L 1.357143 0.52381 L 1.357143 0.507935 L 1.388889 0.507935 L 1.388889 0.52381 L 1.373014 0.52381 L 1.373014 0.539681 L 1.388889 0.539681 L 1.388889 0.555556 L 1.357143 0.555556 L 1.357143 0.539681 L 1.341269 0.539681 L 1.341269 0.587301 L 1.357143 0.587301 L 1.357143 0.57143 L 1.388889 0.57143 L 1.388889 0.587301 L 1.373014 0.587301 L 1.373014 0.603176 L 1.388889 0.603176 L 1.388889 0.619047 L 1.357143 0.619047 L 1.357143 0.603176 L 1.341269 0.603176 L 1.341269 0.619047 L 1.309523 0.619047 L 1.309523 0.603176 L 1.325398 0.603176 L 1.325398 0.57143 L 1.309523 0.57143 L 1.309523 0.587301 L 1.293652 0.587301 L 1.293652 0.57143 L 1.277778 0.57143 L 1.277778 0.603176 L 1.293652 0.603176 L 1.293652 0.619047 L 1.277778 0.619047 L 1.277778 0.634921 L 1.293652 0.634921 L 1.293652 0.650792 L 1.277778 0.650792 L 1.277778 0.682541 L 1.293652 0.682541 L 1.293652 0.666667 L 1.309523 0.666667 L 1.309523 0.682541 L 1.325398 0.682541 L 1.325398 0.650792 L 1.309523 0.650792 L 1.309523 0.634921 L 1.341269 0.634921 L 1.341269 0.650792 L 1.357143 0.650792 L 1.357143 0.634921 L 1.388889 0.634921 L 1.388889 0.650792 L 1.373014 0.650792 L 1.373014 0.666667 L 1.388889 0.666667 L 1.388889 0.682541 L 1.357143 0.682541 L 1.357143 0.666667 L 1.341269 0.666667 L 1.341269 0.714287 L 1.357143 0.714287 L 1.357143 0.698412 L 1.388889 0.698412 L 1.388889 0.714287 L 1.373014 0.714287 L 1.373014 0.730158 L 1.388889 0.730158 L 1.388889 0.746032 L 1.357143 0.746032 L 1.357143 0.730158 L 1.341269 0.730158 L 1.341269 0.746032 L 1.309523 0.746032 L 1.309523 0.730158 L 1.325398 0.730158 L 1.325398 0.698412 L 1.309523 0.698412 L 1.309523 0.714287 L 1.293652 0.714287 L 1.293652 0.698412 L 1.277778 0.698412 L 1.277778 0.730158 L 1.293652 0.730158 L 1.293652 0.746032 L 1.261903 0.746032 L 1.261903 0.730158 L 1.246032 0.730158 L 1.246032 0.746032 L 1.214287 0.746032 L 1.214287 0.730158 L 1.230158 0.730158 L 1.230158 0.714287 L 1.214287 0.714287 L 1.214287 0.698412 L 1.246032 0.698412 L 1.246032 0.714287 L 1.261903 0.714287 L 1.261903 0.682541 L 1.246032 0.682541 L 1.246032 0.666667 L 1.261903 0.666667 L 1.261903 0.634921 L 1.246032 0.634921 L 1.246032 0.650792 L 1.230158 0.650792 L 1.230158 0.634921 L 1.214287 0.634921 L 1.214287 0.666667 L 1.230158 0.666667 L 1.230158 0.682541 L 1.182541 0.682541 L 1.182541 0.666667 L 1.198412 0.666667 L 1.198412 0.634921 L 1.182541 0.634921 L 1.182541 0.650792 L 1.166667 0.650792 L 1.166667 0.634921 L 1.150792 0.634921 L 1.150792 0.666667 L 1.166667 0.666667 L 1.166667 0.682541 L 1.150792 0.682541 L 1.150792 0.714287 L 1.166667 0.714287 L 1.166667 0.698412 L 1.198412 0.698412 L 1.198412 0.714287 L 1.182541 0.714287 L 1.182541 0.730158 L 1.198412 0.730158 L 1.198412 0.746032 L 1.166667 0.746032 L 1.166667 0.730158 L 1.150792 0.730158 L 1.150792 0.777778 L 1.166667 0.777778 L 1.166667 0.761903 L 1.198412 0.761903 L 1.198412 0.777778 L 1.182541 0.777778 L 1.182541 0.793652 L 1.198412 0.793652 L 1.198412 0.809523 L 1.166667 0.809523 L 1.166667 0.793652 L 1.150792 0.793652 L 1.150792 0.825398 L 1.166667 0.825398 L 1.166667 0.841269 L 1.150792 0.841269 L 1.150792 0.873014 L 1.166667 0.873014 L 1.166667 0.857143 L 1.182541 0.857143 L 1.182541 0.873014 L 1.198412 0.873014 L 1.198412 0.841269 L 1.182541 0.841269 L 1.182541 0.825398 L 1.230158 0.825398 L 1.230158 0.841269 L 1.214287 0.841269 L 1.214287 0.873014 L 1.230158 0.873014 L 1.230158 0.857143 L 1.246032 0.857143 L 1.246032 0.873014 L 1.261903 0.873014 L 1.261903 0.841269 L 1.246032 0.841269 L 1.246032 0.825398 L 1.261903 0.825398 L 1.261903 0.793652 L 1.246032 0.793652 L 1.246032 0.809523 L 1.214287 0.809523 L 1.214287 0.793652 L 1.230158 0.793652 L 1.230158 0.777778 L 1.214287 0.777778 L 1.214287 0.761903 L 1.246032 0.761903 L 1.246032 0.777778 L 1.261903 0.777778 L 1.261903 0.761903 L 1.293652 0.761903 L 1.293652 0.777778 L 1.277778 0.777778 L 1.277778 0.809523 L 1.293652 0.809523 L 1.293652 0.793652 L 1.309523 0.793652 L 1.309523 0.809523 L 1.325398 0.809523 L 1.325398 0.777778 L 1.309523 0.777778 L 1.309523 0.761903 L 1.341269 0.761903 L 1.341269 0.777778 L 1.357143 0.777778 L 1.357143 0.761903 L 1.388889 0.761903 L 1.388889 0.777778 L 1.373014 0.777778 L 1.373014 0.793652 L 1.388889 0.793652 L 1.388889 0.809523 L 1.357143 0.809523 L 1.357143 0.793652 L 1.341269 0.793652 L 1.341269 0.841269 L 1.357143 0.841269 L 1.357143 0.825398 L 1.388889 0.825398 L 1.388889 0.841269 L 1.373014 0.841269 L 1.373014 0.857143 L 1.388889 0.857143 L 1.388889 0.873014 L 1.357143 0.873014 L 1.357143 0.857143 L 1.341269 0.857143 L 1.341269 0.873014 L 1.309523 0.873014 L 1.309523 0.857143 L 1.325398 0.857143 L 1.325398 0.825398 L 1.309523 0.825398 L 1.309523 0.841269 L 1.293652 0.841269 L 1.293652 0.825398 L 1.277778 0.825398 L 1.277778 0.857143 L 1.293652 0.857143 L 1.293652 0.873014 L 1.277778 0.873014 L 1.277778 0.888889 L 1.293652 0.888889 L 1.293652 0.904763 L 1.277778 0.904763 L 1.277778 0.936509 L 1.293652 0.936509 L 1.293652 0.920634 L 1.309523 0.920634 L 1.309523 0.936509 L 1.325398 0.936509 L 1.325398 0.904763 L 1.309523 0.904763 L 1.309523 0.888889 L 1.341269 0.888889 L 1.341269 0.904763 L 1.357143 0.904763 L 1.357143 0.888889 L 1.388889 0.888889 L 1.388889 0.904763 L 1.373014 0.904763 L 1.373014 0.920634 L 1.388889 0.920634 L 1.388889 0.936509 L 1.357143 0.936509 L 1.357143 0.920634 L 1.341269 0.920634 L 1.341269 0.968254 L 1.357143 0.968254 L 1.357143 0.95238 L 1.388889 0.95238 L 1.388889 0.968254 L 1.373014 0.968254 L 1.373014 0.984125 L 1.388889 0.984125 L 1.388889 1 L 1.357143 1 L 1.357143 0.984125 L 1.341269 0.984125 L 1.341269 1 L 1.309523 1 L 1.309523 0.984125 L 1.325398 0.984125 L 1.325398 0.95238 L 1.309523 0.95238 L 1.309523 0.968254 L 1.293652 0.968254 L 1.293652 0.95238 L 1.277778 0.95238 L 1.277778 0.984125 L 1.293652 0.984125 L 1.293652 1 L 1.261903 1 L 1.261903 0.984125 L 1.246032 0.984125 L 1.246032 1 L 1.214287 1 L 1.214287 0.984125 L 1.230158 0.984125 L 1.230158 0.968254 L 1.214287 0.968254 L 1.214287 0.95238 L 1.246032 0.95238 L 1.246032 0.968254 L 1.261903 0.968254 L 1.261903 0.936509 L 1.246032 0.936509 L 1.246032 0.920634 L 1.261903 0.920634 L 1.261903 0.888889 L 1.246032 0.888889 L 1.246032 0.904763 L 1.230158 0.904763 L 1.230158 0.888889 L 1.214287 0.888889 L 1.214287 0.920634 L 1.230158 0.920634 L 1.230158 0.936509 L 1.182541 0.936509 L 1.182541 0.920634 L 1.198412 0.920634 L 1.198412 0.888889 L 1.182541 0.888889 L 1.182541 0.904763 L 1.166667 0.904763 L 1.166667 0.888889 L 1.150792 0.888889 L 1.150792 0.920634 L 1.166667 0.920634 L 1.166667 0.936509 L 1.150792 0.936509 L 1.150792 0.968254 L 1.166667 0.968254 L 1.166667 0.95238 L 1.198412 0.95238 L 1.198412 0.968254 L 1.182541 0.968254 L 1.182541 0.984125 L 1.198412 0.984125 L 1.198412 1 L 1.166667 1 L 1.166667 0.984125 L 1.150792 0.984125 L 1.150792 1 L 1.119047 1 L 1.119047 0.984125 L 1.134921 0.984125 L 1.134921 0.95238 L 1.119047 0.95238 L 1.119047 0.968254 L 1.103176 0.968254 L 1.103176 0.95238 L 1.087301 0.95238 L 1.087301 0.984125 L 1.103176 0.984125 L 1.103176 1 L 1.07143 1 L 1.07143 0.984125 L 1.055556 0.984125 L 1.055556 1 L 1.02381 1 L 1.02381 0.984125 L 1.039681 0.984125 L 1.039681 0.968254 L 1.02381 0.968254 L 1.02381 0.95238 L 1.055556 0.95238 L 1.055556 0.968254 L 1.07143 0.968254 L 1.07143 0.920634 L 1.055556 0.920634 L 1.055556 0.936509 L 1.02381 0.936509 L 1.02381 0.920634 L 1.039681 0.920634 L 1.039681 0.904763 L 1.02381 0.904763 L 1.02381 0.888889 L 1.055556 0.888889 L 1.055556 0.904763 L 1.07143 0.904763 L 1.07143 0.888889 L 1.103176 0.888889 L 1.103176 0.904763 L 1.087301 0.904763 L 1.087301 0.936509 L 1.103176 0.936509 L 1.103176 0.920634 L 1.119047 0.920634 L 1.119047 0.936509 L 1.134921 0.936509 L 1.134921 0.904763 L 1.119047 0.904763 L 1.119047 0.888889 L 1.134921 0.888889 L 1.134921 0.857143 L 1.119047 0.857143 L 1.119047 0.873014 L 1.087301 0.873014 L 1.087301 0.857143 L 1.103176 0.857143 L 1.103176 0.841269 L 1.087301 0.841269 L 1.087301 0.825398 L 1.119047 0.825398 L 1.119047 0.841269 L 1.134921 0.841269 L 1.134921 0.809523 L 1.119047 0.809523 L 1.119047 0.793652 L 1.134921 0.793652 L 1.134921 0.761903 L 1.119047 0.761903 L 1.119047 0.777778 L 1.103176 0.777778 L 1.103176 0.761903 L 1.087301 0.761903 L 1.087301 0.793652 L 1.103176 0.793652 L 1.103176 0.809523 L 1.055556 0.809523 L 1.055556 0.793652 L 1.07143 0.793652 L 1.07143 0.761903 L 1.055556 0.761903 L 1.055556 0.777778 L 1.039681 0.777778 L 1.039681 0.761903 L 1.02381 0.761903 L 1.02381 0.793652 L 1.039681 0.793652 L 1.039681 0.809523 L 1.02381 0.809523 L 1.02381 0.841269 L 1.039681 0.841269 L 1.039681 0.825398 L 1.07143 0.825398 L 1.07143 0.841269 L 1.055556 0.841269 L 1.055556 0.857143 L 1.07143 0.857143 L 1.07143 0.873014 L 1.039681 0.873014 L 1.039681 0.857143 L 1.02381 0.857143 L 1.02381 0.873014 L 1.007935 0.873014 L 1.007935 0.857143 L 0.992065 0.857143 L 0.992065 0.873014 L 0.960319 0.873014 L 0.960319 0.857143 L 0.97619 0.857143 L 0.97619 0.841269 L 0.960319 0.841269 L 0.960319 0.825398 L 0.992065 0.825398 L 0.992065 0.841269 L 1.007935 0.841269 L 1.007935 0.809523 L 0.992065 0.809523 L 0.992065 0.793652 L 1.007935 0.793652 L 1.007935 0.761903 L 0.992065 0.761903 L 0.992065 0.777778 L 0.97619 0.777778 L 0.97619 0.761903 L 0.960319 0.761903 L 0.960319 0.793652 L 0.97619 0.793652 L 0.97619 0.809523 L 0.92857 0.809523 L 0.92857 0.793652 L 0.944444 0.793652 L 0.944444 0.761903 L 0.92857 0.761903 L 0.92857 0.777778 L 0.912699 0.777778 L 0.912699 0.761903 L 0.896824 0.761903 L 0.896824 0.793652 L 0.912699 0.793652 L 0.912699 0.809523 L 0.896824 0.809523 L 0.896824 0.841269 L 0.912699 0.841269 L 0.912699 0.825398 L 0.944444 0.825398 L 0.944444 0.841269 L 0.92857 0.841269 L 0.92857 0.857143 L 0.944444 0.857143 L 0.944444 0.873014 L 0.912699 0.873014 L 0.912699 0.857143 L 0.896824 0.857143 L 0.896824 0.888889 L 0.912699 0.888889 L 0.912699 0.904763 L 0.896824 0.904763 L 0.896824 0.936509 L 0.912699 0.936509 L 0.912699 0.920634 L 0.92857 0.920634 L 0.92857 0.936509 L 0.944444 0.936509 L 0.944444 0.904763 L 0.92857 0.904763 L 0.92857 0.888889 L 0.960319 0.888889 L 0.960319 0.904763 L 0.97619 0.904763 L 0.97619 0.888889 L 1.007935 0.888889 L 1.007935 0.904763 L 0.992065 0.904763 L 0.992065 0.920634 L 1.007935 0.920634 L 1.007935 0.936509 L 0.97619 0.936509 L 0.97619 0.920634 L 0.960319 0.920634 L 0.960319 0.968254 L 0.97619 0.968254 L 0.97619 0.95238 L 1.007935 0.95238 L 1.007935 0.968254 L 0.992065 0.968254 L 0.992065 0.984125 L 1.007935 0.984125 L 1.007935 1 L 0.97619 1 L 0.97619 0.984125 L 0.960319 0.984125 L 0.960319 1 L 0.92857 1 L 0.92857 0.984125 L 0.944444 0.984125 L 0.944444 0.95238 L 0.92857 0.95238 L 0.92857 0.968254 L 0.912699 0.968254 L 0.912699 0.95238 L 0.896824 0.95238 L 0.896824 0.984125 L 0.912699 0.984125 L 0.912699 1 L 0.896824 1 " transform="matrix(1080,0,0,1080,0,0)"/>
</g>
</svg>
