<?xml version="1.0" encoding="UTF-8"?>
<svg xmlns="http://www.w3.org/2000/svg" xmlns:xlink="http://www.w3.org/1999/xlink" width="1920pt" height="1080pt" viewBox="0 0 1920 1080" version="1.1">
<g id="surface6">
<rect x="0" y="0" width="1920" height="1080" style="fill:rgb(0%,0%,0%);fill-opacity:1;stroke:none;"/>
<path style="fill:none;stroke-width:0.00185185;stroke-linecap:butt;stroke-linejoin:miter;stroke:rgb(100%,100%,100%);stroke-opacity:1;stroke-miterlimit:10;" d="M 1.388889 0.984375 L 1.373264 0.992188 L 1.373264 0.976562 L 1.388889 0.984375 L 1.388889 0.96875 L 1.357639 0.984375 L 1.357639 0.96875 L 1.342014 0.976562 L 1.342014 0.960938 L 1.357639 0.96875 L 1.357639 0.953125 L 1.388889 0.96875 L 1.388889 0.953125 L 1.373264 0.960938 L 1.373264 0.945312 L 1.388889 0.953125 L 1.388889 0.9375 L 1.326389 0.96875 L 1.326389 0.953125 L 1.310764 0.960938 L 1.310764 0.945312 L 1.326389 0.953125 L 1.326389 0.9375 L 1.295139 0.953125 L 1.295139 0.9375 L 1.279514 0.945312 L 1.279514 0.929688 L 1.295139 0.9375 L 1.295139 0.921875 L 1.326389 0.9375 L 1.326389 0.921875 L 1.310764 0.929688 L 1.310764 0.914062 L 1.326389 0.921875 L 1.326389 0.90625 L 1.388889 0.9375 L 1.388889 0.921875 L 1.373264 0.929688 L 1.373264 0.914062 L 1.388889 0.921875 L 1.388889 0.90625 L 1.357639 0.921875 L 1.357639 0.90625 L 1.342014 0.914062 L 1.342014 0.898438 L 1.357639 0.90625 L 1.357639 0.890625 L 1.388889 0.90625 L 1.388889 0.890625 L 1.373264 0.898438 L 1.373264 0.882812 L 1.388889 0.890625 L 1.388889 0.875 L 1.263889 0.9375 L 1.263889 0.921875 L 1.248264 0.929688 L 1.248264 0.914062 L 1.263889 0.921875 L 1.263889 0.90625 L 1.232639 0.921875 L 1.232639 0.90625 L 1.217014 0.914062 L 1.217014 0.898438 L 1.232639 0.90625 L 1.232639 0.890625 L 1.263889 0.90625 L 1.263889 0.890625 L 1.248264 0.898438 L 1.248264 0.882812 L 1.263889 0.890625 L 1.263889 0.875 L 1.201389 0.90625 L 1.201389 0.890625 L 1.185764 0.898438 L 1.185764 0.882812 L 1.201389 0.890625 L 1.201389 0.875 L 1.170139 0.890625 L 1.170139 0.875 L 1.154514 0.882812 L 1.154514 0.867188 L 1.170139 0.875 L 1.170139 0.859375 L 1.201389 0.875 L 1.201389 0.859375 L 1.185764 0.867188 L 1.185764 0.851562 L 1.201389 0.859375 L 1.201389 0.84375 L 1.263889 0.875 L 1.263889 0.859375 L 1.248264 0.867188 L 1.248264 0.851562 L 1.263889 0.859375 L 1.263889 0.84375 L 1.232639 0.859375 L 1.232639 0.84375 L 1.217014 0.851562 L 1.217014 0.835938 L 1.232639 0.84375 L 1.232639 0.828125 L 1.263889 0.84375 L 1.263889 0.828125 L 1.248264 0.835938 L 1.248264 0.820312 L 1.263889 0.828125 L 1.263889 0.8125 L 1.388889 0.875 L 1.388889 0.859375 L 1.373264 0.867188 L 1.373264 0.851562 L 1.388889 0.859375 L 1.388889 0.84375 L 1.357639 0.859375 L 1.357639 0.84375 L 1.342014 0.851562 L 1.342014 0.835938 L 1.357639 0.84375 L 1.357639 0.828125 L 1.388889 0.84375 L 1.388889 0.828125 L 1.373264 0.835938 L 1.373264 0.820312 L 1.388889 0.828125 L 1.388889 0.8125 L 1.326389 0.84375 L 1.326389 0.828125 L 1.310764 0.835938 L 1.310764 0.820312 L 1.326389 0.828125 L 1.326389 0.8125 L 1.295139 0.828125 L 1.295139 0.8125 L 1.279514 0.820312 L 1.279514 0.804688 L 1.295139 0.8125 L 1.295139 0.796875 L 1.326389 0.8125 L 1.326389 0.796875 L 1.310764 0.804688 L 1.310764 0.789062 L 1.326389 0.796875 L 1.326389 0.78125 L 1.388889 0.8125 L 1.388889 0.796875 L 1.373264 0.804688 L 1.373264 0.789062 L 1.388889 0.796875 L 1.388889 0.78125 L 1.357639 0.796875 L 1.357639 0.78125 L 1.342014 0.789062 L 1.342014 0.773438 L 1.357639 0.78125 L 1.357639 0.765625 L 1.388889 0.78125 L 1.388889 0.765625 L 1.373264 0.773438 L 1.373264 0.757812 L 1.388889 0.765625 L 1.388889 0.75 L 1.138889 0.875 L 1.138889 0.859375 L 1.123264 0.867188 L 1.123264 0.851562 L 1.138889 0.859375 L 1.138889 0.84375 L 1.107639 0.859375 L 1.107639 0.84375 L 1.092014 0.851562 L 1.092014 0.835938 L 1.107639 0.84375 L 1.107639 0.828125 L 1.138889 0.84375 L 1.138889 0.828125 L 1.123264 0.835938 L 1.123264 0.820312 L 1.138889 0.828125 L 1.138889 0.8125 L 1.076389 0.84375 L 1.076389 0.828125 L 1.060764 0.835938 L 1.060764 0.820312 L 1.076389 0.828125 L 1.076389 0.8125 L 1.045139 0.828125 L 1.045139 0.8125 L 1.029514 0.820312 L 1.029514 0.804688 L 1.045139 0.8125 L 1.045139 0.796875 L 1.076389 0.8125 L 1.076389 0.796875 L 1.060764 0.804688 L 1.060764 0.789062 L 1.076389 0.796875 L 1.076389 0.78125 L 1.138889 0.8125 L 1.138889 0.796875 L 1.123264 0.804688 L 1.123264 0.789062 L 1.138889 0.796875 L 1.138889 0.78125 L 1.107639 0.796875 L 1.107639 0.78125 L 1.092014 0.789062 L 1.092014 0.773438 L 1.107639 0.78125 L 1.107639 0.765625 L 1.138889 0.78125 L 1.138889 0.765625 L 1.123264 0.773438 L 1.123264 0.757812 L 1.138889 0.765625 L 1.138889 0.75 L 1.013889 0.8125 L 1.013889 0.796875 L 0.998264 0.804688 L 0.998264 0.789062 L 1.013889 0.796875 L 1.013889 0.78125 L 0.982639 0.796875 L 0.982639 0.78125 L 0.967014 0.789062 L 0.967014 0.773438 L 0.982639 0.78125 L 0.982639 0.765625 L 1.013889 0.78125 L 1.013889 0.765625 L 0.998264 0.773438 L 0.998264 0.757812 L 1.013889 0.765625 L 1.013889 0.75 L 0.951389 0.78125 L 0.951389 0.765625 L 0.935764 0.773438 L 0.935764 0.757812 L 0.951389 0.765625 L 0.951389 0.75 L 0.920139 0.765625 L 0.920139 0.75 L 0.904514 0.757812 L 0.904514 0.742188 L 0.920139 0.75 L 0.920139 0.734375 L 0.951389 0.75 L 0.951389 0.734375 L 0.935764 0.742188 L 0.935764 0.726562 L 0.951389 0.734375 L 0.951389 0.71875 L 1.013889 0.75 L 1.013889 0.734375 L 0.998264 0.742188 L 0.998264 0.726562 L 1.013889 0.734375 L 1.013889 0.71875 L 0.982639 0.734375 L 0.982639 0.71875 L 0.967014 0.726562 L 0.967014 0.710938 L 0.982639 0.71875 L 0.982639 0.703125 L 1.013889 0.71875 L 1.013889 0.703125 L 0.998264 0.710938 L 0.998264 0.695312 L 1.013889 0.703125 L 1.013889 0.6875 L 1.138889 0.75 L 1.138889 0.734375 L 1.123264 0.742188 L 1.123264 0.726562 L 1.138889 0.734375 L 1.138889 0.71875 L 1.107639 0.734375 L 1.107639 0.71875 L 1.092014 0.726562 L 1.092014 0.710938 L 1.107639 0.71875 L 1.107639 0.703125 L 1.138889 0.71875 L 1.138889 0.703125 L 1.123264 0.710938 L 1.123264 0.695312 L 1.138889 0.703125 L 1.138889 0.6875 L 1.076389 0.71875 L 1.076389 0.703125 L 1.060764 0.710938 L 1.060764 0.695312 L 1.076389 0.703125 L 1.076389 0.6875 L 1.045139 0.703125 L 1.045139 0.6875 L 1.029514 0.695312 L 1.029514 0.679688 L 1.045139 0.6875 L 1.045139 0.671875 L 1.076389 0.6875 L 1.076389 0.671875 L 1.060764 0.679688 L 1.060764 0.664062 L 1.076389 0.671875 L 1.076389 0.65625 L 1.138889 0.6875 L 1.138889 0.671875 L 1.123264 0.679688 L 1.123264 0.664062 L 1.138889 0.671875 L 1.138889 0.65625 L 1.107639 0.671875 L 1.107639 0.65625 L 1.092014 0.664062 L 1.092014 0.648438 L 1.107639 0.65625 L 1.107639 0.640625 L 1.138889 0.65625 L 1.138889 0.640625 L 1.123264 0.648438 L 1.123264 0.632812 L 1.138889 0.640625 L 1.138889 0.625 L 1.388889 0.75 L 1.388889 0.734375 L 1.373264 0.742188 L 1.373264 0.726562 L 1.388889 0.734375 L 1.388889 0.71875 L 1.357639 0.734375 L 1.357639 0.71875 L 1.342014 0.726562 L 1.342014 0.710938 L 1.357639 0.71875 L 1.357639 0.703125 L 1.388889 0.71875 L 1.388889 0.703125 L 1.373264 0.710938 L 1.373264 0.695312 L 1.388889 0.703125 L 1.388889 0.6875 L 1.326389 0.71875 L 1.326389 0.703125 L 1.310764 0.710938 L 1.310764 0.695312 L 1.326389 0.703125 L 1.326389 0.6875 L 1.295139 0.703125 L 1.295139 0.6875 L 1.279514 0.695312 L 1.279514 0.679688 L 1.295139 0.6875 L 1.295139 0.671875 L 1.326389 0.6875 L 1.326389 0.671875 L 1.310764 0.679688 L 1.310764 0.664062 L 1.326389 0.671875 L 1.326389 0.65625 L 1.388889 0.6875 L 1.388889 0.671875 L 1.373264 0.679688 L 1.373264 0.664062 L 1.388889 0.671875 L 1.388889 0.65625 L 1.357639 0.671875 L 1.357639 0.65625 L 1.342014 0.664062 L 1.342014 0.648438 L 1.357639 0.65625 L 1.357639 0.640625 L 1.388889 0.65625 L 1.388889 0.640625 L 1.373264 0.648438 L 1.373264 0.632812 L 1.388889 0.640625 L 1.388889 0.625 L 1.263889 0.6875 L 1.263889 0.671875 L 1.248264 0.679688 L 1.248264 0.664062 L 1.263889 0.671875 L 1.263889 0.65625 L 1.232639 0.671875 L 1.232639 0.65625 L 1.217014 0.664062 L 1.217014 0.648438 L 1.232639 0.65625 L 1.232639 0.640625 L 1.263889 0.65625 L 1.263889 0.640625 L 1.248264 0.648438 L 1.248264 0.632812 L 1.263889 0.640625 L 1.263889 0.625 L 1.201389 0.65625 L 1.201389 0.640625 L 1.185764 0.648438 L 1.185764 0.632812 L 1.201389 0.640625 L 1.201389 0.625 L 1.170139 0.640625 L 1.170139 0.625 L 1.154514 0.632812 L 1.154514 0.617188 L 1.170139 0.625 L 1.170139 0.609375 L 1.201389 0.625 L 1.201389 0.609375 L 1.185764 0.617188 L 1.185764 0.601562 L 1.201389 0.609375 L 1.201389 0.59375 L 1.263889 0.625 L 1.263889 0.609375 L 1.248264 0.617188 L 1.248264 0.601562 L 1.263889 0.609375 L 1.263889 0.59375 L 1.232639 0.609375 L 1.232639 0.59375 L 1.217014 0.601562 L 1.217014 0.585938 L 1.232639 0.59375 L 1.232639 0.578125 L 1.263889 0.59375 L 1.263889 0.578125 L 1.248264 0.585938 L 1.248264 0.570312 L 1.263889 0.578125 L 1.263889 0.5625 L 1.388889 0.625 L 1.388889 0.609375 L 1.373264 0.617188 L 1.373264 0.601562 L 1.388889 0.609375 L 1.388889 0.59375 L 1.357639 0.609375 L 1.357639 0.59375 L 1.342014 0.601562 L 1.342014 0.585938 L 1.357639 0.59375 L 1.357639 0.578125 L 1.388889 0.59375 L 1.388889 0.578125 L 1.373264 0.585938 L 1.373264 0.570312 L 1.388889 0.578125 L 1.388889 0.5625 L 1.326389 0.59375 L 1.326389 0.578125 L 1.310764 0.585938 L 1.310764 0.570312 L 1.326389 0.578125 L 1.326389 0.5625 L 1.295139 0.578125 L 1.295139 0.5625 L 1.279514 0.570312 L 1.279514 0.554688 L 1.295139 0.5625 L 1.295139 0.546875 L 1.326389 0.5625 L 1.326389 0.546875 L 1.310764 0.554688 L 1.310764 0.539062 L 1.326389 0.546875 L 1.326389 0.53125 L 1.388889 0.5625 L 1.388889 0.546875 L 1.373264 0.554688 L 1.373264 0.539062 L 1.388889 0.546875 L 1.388889 0.53125 L 1.357639 0.546875 L 1.357639 0.53125 L 1.342014 0.539062 L 1.342014 0.523438 L 1.357639 0.53125 L 1.357639 0.515625 L 1.388889 0.53125 L 1.388889 0.515625 L 1.373264 0.523438 L 1.373264 0.507812 L 1.388889 0.515625 L 1.388889 0.5 L 0.888889 0.75 L 0.888889 0.734375 L 0.873264 0.742188 L 0.873264 0.726562 L 0.888889 0.734375 L 0.888889 0.71875 L 0.857639 0.734375 L 0.857639 0.71875 L 0.842014 0.726562 L 0.842014 0.710938 L 0.857639 0.71875 L 0.857639 0.703125 L 0.888889 0.71875 L 0.888889 0.703125 L 0.873264 0.710938 L 0.873264 0.695312 L 0.888889 0.703125 L 0.888889 0.6875 L 0.826389 0.71875 L 0.826389 0.703125 L 0.810764 0.710938 L 0.810764 0.695312 L 0.826389 0.703125 L 0.826389 0.6875 L 0.795139 0.703125 L 0.795139 0.6875 L 0.779514 0.695312 L 0.779514 0.679688 L 0.795139 0.6875 L 0.795139 0.671875 L 0.826389 0.6875 L 0.826389 0.671875 L 0.810764 0.679688 L 0.810764 0.664062 L 0.826389 0.671875 L 0.826389 0.65625 L 0.888889 0.6875 L 0.888889 0.671875 L 0.873264 0.679688 L 0.873264 0.664062 L 0.888889 0.671875 L 0.888889 0.65625 L 0.857639 0.671875 L 0.857639 0.65625 L 0.842014 0.664062 L 0.842014 0.648438 L 0.857639 0.65625 L 0.857639 0.640625 L 0.888889 0.65625 L 0.888889 0.640625 L 0.873264 0.648438 L 0.873264 0.632812 L 0.888889 0.640625 L 0.888889 0.625 L 0.763889 0.6875 L 0.763889 0.671875 L 0.748264 0.679688 L 0.748264 0.664062 L 0.763889 0.671875 L 0.763889 0.65625 L 0.732639 0.671875 L 0.732639 0.65625 L 0.717014 0.664062 L 0.717014 0.648438 L 0.732639 0.65625 L 0.732639 0.640625 L 0.763889 0.65625 L 0.763889 0.640625 L 0.748264 0.648438 L 0.748264 0.632812 L 0.763889 0.640625 L 0.763889 0.625 L 0.701389 0.65625 L 0.701389 0.640625 L 0.685764 0.648438 L 0.685764 0.632812 L 0.701389 0.640625 L 0.701389 0.625 L 0.670139 0.640625 L 0.670139 0.625 L 0.654514 0.632812 L 0.654514 0.617188 L 0.670139 0.625 L 0.670139 0.609375 L 0.701389 0.625 L 0.701389 0.609375 L 0.685764 0.617188 L 0.685764 0.601562 L 0.701389 0.609375 L 0.701389 0.59375 L 0.763889 0.625 L 0.763889 0.609375 L 0.748264 0.617188 L 0.748264 0.601562 L 0.763889 0.609375 L 0.763889 0.59375 L 0.732639 0.609375 L 0.732639 0.59375 L 0.717014 0.601562 L 0.717014 0.585938 L 0.732639 0.59375 L 0.732639 0.578125 L 0.763889 0.59375 L 0.763889 0.578125 L 0.748264 0.585938 L 0.748264 0.570312 L 0.763889 0.578125 L 0.763889 0.5625 L 0.888889 0.625 L 0.888889 0.609375 L 0.873264 0.617188 L 0.873264 0.601562 L 0.888889 0.609375 L 0.888889 0.59375 L 0.857639 0.609375 L 0.857639 0.59375 L 0.842014 0.601562 L 0.842014 0.585938 L 0.857639 0.59375 L 0.857639 0.578125 L 0.888889 0.59375 L 0.888889 0.578125 L 0.873264 0.585938 L 0.873264 0.570312 L 0.888889 0.578125 L 0.888889 0.5625 L 0.826389 0.59375 L 0.826389 0.578125 L 0.810764 0.585938 L 0.810764 0.570312 L 0.826389 0.578125 L 0.826389 0.5625 L 0.795139 0.578125 L 0.795139 0.5625 L 0.779514 0.570312 L 0.779514 0.554688 L 0.795139 0.5625 L 0.795139 0.546875 L 0.826389 0.5625 L 0.826389 0.546875 L 0.810764 0.554688 L 0.810764 0.539062 L 0.826389 0.546875 L 0.826389 0.53125 L 0.888889 0.5625 L 0.888889 0.546875 L 0.873264 0.554688 L 0.873264 0.539062 L 0.888889 0.546875 L 0.888889 0.53125 L 0.857639 0.546875 L 0.857639 0.53125 L 0.842014 0.539062 L 0.842014 0.523438 L 0.857639 0.53125 L 0.857639 0.515625 L 0.888889 0.53125 L 0.888889 0.515625 L 0.873264 0.523438 L 0.873264 0.507812 L 0.888889 0.515625 L 0.888889 0.5 L 0.638889 0.625 L 0.638889 0.609375 L 0.623264 0.617188 L 0.623264 0.601562 L 0.638889 0.609375 L 0.638889 0.59375 L 0.607639 0.609375 L 0.607639 0.59375 L 0.592014 0.601562 L 0.592014 0.585938 L 0.607639 0.59375 L 0.607639 0.578125 L 0.638889 0.59375 L 0.638889 0.578125 L 0.623264 0.585938 L 0.623264 0.570312 L 0.638889 0.578125 L 0.638889 0.5625 L 0.576389 0.59375 L 0.576389 0.578125 L 0.560764 0.585938 L 0.560764 0.570312 L 0.576389 0.578125 L 0.576389 0.5625 L 0.545139 0.578125 L 0.545139 0.5625 L 0.529514 0.570312 L 0.529514 0.554688 L 0.545139 0.5625 L 0.545139 0.546875 L 0.576389 0.5625 L 0.576389 0.546875 L 0.560764 0.554688 L 0.560764 0.539062 L 0.576389 0.546875 L 0.576389 0.53125 L 0.638889 0.5625 L 0.638889 0.546875 L 0.623264 0.554688 L 0.623264 0.539062 L 0.638889 0.546875 L 0.638889 0.53125 L 0.607639 0.546875 L 0.607639 0.53125 L 0.592014 0.539062 L 0.592014 0.523438 L 0.607639 0.53125 L 0.607639 0.515625 L 0.638889 0.53125 L 0.638889 0.515625 L 0.623264 0.523438 L 0.623264 0.507812 L 0.638889 0.515625 L 0.638889 0.5 L 0.513889 0.5625 L 0.513889 0.546875 L 0.498264 0.554688 L 0.498264 0.539062 L 0.513889 0.546875 L 0.513889 0.53125 L 0.482639 0.546875 L 0.482639 0.53125 L 0.467014 0.539062 L 0.467014 0.523438 L 0.482639 0.53125 L 0.482639 0.515625 L 0.513889 0.53125 L 0.513889 0.515625 L 0.498264 0.523438 L 0.498264 0.507812 L 0.513889 0.515625 L 0.513889 0.5 L 0.451389 0.53125 L 0.451389 0.515625 L 0.435764 0.523438 L 0.435764 0.507812 L 0.451389 0.515625 L 0.451389 0.5 L 0.420139 0.515625 L 0.420139 0.5 L 0.404514 0.507812 L 0.404514 0.492188 L 0.420139 0.5 L 0.420139 0.484375 L 0.451389 0.5 L 0.451389 0.484375 L 0.435764 0.492188 L 0.435764 0.476562 L 0.451389 0.484375 L 0.451389 0.46875 L 0.513889 0.5 L 0.513889 0.484375 L 0.498264 0.492188 L 0.498264 0.476562 L 0.513889 0.484375 L 0.513889 0.46875 L 0.482639 0.484375 L 0.482639 0.46875 L 0.467014 0.476562 L 0.467014 0.460938 L 0.482639 0.46875 L 0.482639 0.453125 L 0.513889 0.46875 L 0.513889 0.453125 L 0.498264 0.460938 L 0.498264 0.445312 L 0.513889 0.453125 L 0.513889 0.4375 L 0.638889 0.5 L 0.638889 0.484375 L 0.623264 0.492188 L 0.623264 0.476562 L 0.638889 0.484375 L 0.638889 0.46875 L 0.607639 0.484375 L 0.607639 0.46875 L 0.592014 0.476562 L 0.592014 0.460938 L 0.607639 0.46875 L 0.607639 0.453125 L 0.638889 0.46875 L 0.638889 0.453125 L 0.623264 0.460938 L 0.623264 0.445312 L 0.638889 0.453125 L 0.638889 0.4375 L 0.576389 0.46875 L 0.576389 0.453125 L 0.560764 0.460938 L 0.560764 0.445312 L 0.576389 0.453125 L 0.576389 0.4375 L 0.545139 0.453125 L 0.545139 0.4375 L 0.529514 0.445312 L 0.529514 0.429688 L 0.545139 0.4375 L 0.545139 0.421875 L 0.576389 0.4375 L 0.576389 0.421875 L 0.560764 0.429688 L 0.560764 0.414062 L 0.576389 0.421875 L 0.576389 0.40625 L 0.638889 0.4375 L 0.638889 0.421875 L 0.623264 0.429688 L 0.623264 0.414062 L 0.638889 0.421875 L 0.638889 0.40625 L 0.607639 0.421875 L 0.607639 0.40625 L 0.592014 0.414062 L 0.592014 0.398438 L 0.607639 0.40625 L 0.607639 0.390625 L 0.638889 0.40625 L 0.638889 0.390625 L 0.623264 0.398438 L 0.623264 0.382812 L 0.638889 0.390625 L 0.638889 0.375 L 0.888889 0.5 L 0.888889 0.484375 L 0.873264 0.492188 L 0.873264 0.476562 L 0.888889 0.484375 L 0.888889 0.46875 L 0.857639 0.484375 L 0.857639 0.46875 L 0.842014 0.476562 L 0.842014 0.460938 L 0.857639 0.46875 L 0.857639 0.453125 L 0.888889 0.46875 L 0.888889 0.453125 L 0.873264 0.460938 L 0.873264 0.445312 L 0.888889 0.453125 L 0.888889 0.4375 L 0.826389 0.46875 L 0.826389 0.453125 L 0.810764 0.460938 L 0.810764 0.445312 L 0.826389 0.453125 L 0.826389 0.4375 L 0.795139 0.453125 L 0.795139 0.4375 L 0.779514 0.445312 L 0.779514 0.429688 L 0.795139 0.4375 L 0.795139 0.421875 L 0.826389 0.4375 L 0.826389 0.421875 L 0.810764 0.429688 L 0.810764 0.414062 L 0.826389 0.421875 L 0.826389 0.40625 L 0.888889 0.4375 L 0.888889 0.421875 L 0.873264 0.429688 L 0.873264 0.414062 L 0.888889 0.421875 L 0.888889 0.40625 L 0.857639 0.421875 L 0.857639 0.40625 L 0.842014 0.414062 L 0.842014 0.398438 L 0.857639 0.40625 L 0.857639 0.390625 L 0.888889 0.40625 L 0.888889 0.390625 L 0.873264 0.398438 L 0.873264 0.382812 L 0.888889 0.390625 L 0.888889 0.375 L 0.763889 0.4375 L 0.763889 0.421875 L 0.748264 0.429688 L 0.748264 0.414062 L 0.763889 0.421875 L 0.763889 0.40625 L 0.732639 0.421875 L 0.732639 0.40625 L 0.717014 0.414062 L 0.717014 0.398438 L 0.732639 0.40625 L 0.732639 0.390625 L 0.763889 0.40625 L 0.763889 0.390625 L 0.748264 0.398438 L 0.748264 0.382812 L 0.763889 0.390625 L 0.763889 0.375 L 0.701389 0.40625 L 0.701389 0.390625 L 0.685764 0.398438 L 0.685764 0.382812 L 0.701389 0.390625 L 0.701389 0.375 L 0.670139 0.390625 L 0.670139 0.375 L 0.654514 0.382812 L 0.654514 0.367188 L 0.670139 0.375 L 0.670139 0.359375 L 0.701389 0.375 L 0.701389 0.359375 L 0.685764 0.367188 L 0.685764 0.351562 L 0.701389 0.359375 L 0.701389 0.34375 L 0.763889 0.375 L 0.763889 0.359375 L 0.748264 0.367188 L 0.748264 0.351562 L 0.763889 0.359375 L 0.763889 0.34375 L 0.732639 0.359375 L 0.732639 0.34375 L 0.717014 0.351562 L 0.717014 0.335938 L 0.732639 0.34375 L 0.732639 0.328125 L 0.763889 0.34375 L 0.763889 0.328125 L 0.748264 0.335938 L 0.748264 0.320312 L 0.763889 0.328125 L 0.763889 0.3125 L 0.888889 0.375 L 0.888889 0.359375 L 0.873264 0.367188 L 0.873264 0.351562 L 0.888889 0.359375 L 0.888889 0.34375 L 0.857639 0.359375 L 0.857639 0.34375 L 0.842014 0.351562 L 0.842014 0.335938 L 0.857639 0.34375 L 0.857639 0.328125 L 0.888889 0.34375 L 0.888889 0.328125 L 0.873264 0.335938 L 0.873264 0.320312 L 0.888889 0.328125 L 0.888889 0.3125 L 0.826389 0.34375 L 0.826389 0.328125 L 0.810764 0.335938 L 0.810764 0.320312 L 0.826389 0.328125 L 0.826389 0.3125 L 0.795139 0.328125 L 0.795139 0.3125 L 0.779514 0.320312 L 0.779514 0.304688 L 0.795139 0.3125 L 0.795139 0.296875 L 0.826389 0.3125 L 0.826389 0.296875 L 0.810764 0.304688 L 0.810764 0.289062 L 0.826389 0.296875 L 0.826389 0.28125 L 0.888889 0.3125 L 0.888889 0.296875 L 0.873264 0.304688 L 0.873264 0.289062 L 0.888889 0.296875 L 0.888889 0.28125 L 0.857639 0.296875 L 0.857639 0.28125 L 0.842014 0.289062 L 0.842014 0.273438 L 0.857639 0.28125 L 0.857639 0.265625 L 0.888889 0.28125 L 0.888889 0.265625 L 0.873264 0.273438 L 0.873264 0.257812 L 0.888889 0.265625 L 0.888889 0.25 L 1.388889 0.5 L 1.388889 0.484375 L 1.373264 0.492188 L 1.373264 0.476562 L 1.388889 0.484375 L 1.388889 0.46875 L 1.357639 0.484375 L 1.357639 0.46875 L 1.342014 0.476562 L 1.342014 0.460938 L 1.357639 0.46875 L 1.357639 0.453125 L 1.388889 0.46875 L 1.388889 0.453125 L 1.373264 0.460938 L 1.373264 0.445312 L 1.388889 0.453125 L 1.388889 0.4375 L 1.326389 0.46875 L 1.326389 0.453125 L 1.310764 0.460938 L 1.310764 0.445312 L 1.326389 0.453125 L 1.326389 0.4375 L 1.295139 0.453125 L 1.295139 0.4375 L 1.279514 0.445312 L 1.279514 0.429688 L 1.295139 0.4375 L 1.295139 0.421875 L 1.326389 0.4375 L 1.326389 0.421875 L 1.310764 0.429688 L 1.310764 0.414062 L 1.326389 0.421875 L 1.326389 0.40625 L 1.388889 0.4375 L 1.388889 0.421875 L 1.373264 0.429688 L 1.373264 0.414062 L 1.388889 0.421875 L 1.388889 0.40625 L 1.357639 0.421875 L 1.357639 0.40625 L 1.342014 0.414062 L 1.342014 0.398438 L 1.357639 0.40625 L 1.357639 0.390625 L 1.388889 0.40625 L 1.388889 0.390625 L 1.373264 0.398438 L 1.373264 0.382812 L 1.388889 0.390625 L 1.388889 0.375 L 1.263889 0.4375 L 1.263889 0.421875 L 1.248264 0.429688 L 1.248264 0.414062 L 1.263889 0.421875 L 1.263889 0.40625 L 1.232639 0.421875 L 1.232639 0.40625 L 1.217014 0.414062 L 1.217014 0.398438 L 1.232639 0.40625 L 1.232639 0.390625 L 1.263889 0.40625 L 1.263889 0.390625 L 1.248264 0.398438 L 1.248264 0.382812 L 1.263889 0.390625 L 1.263889 0.375 L 1.201389 0.40625 L 1.201389 0.390625 L 1.185764 0.398438 L 1.185764 0.382812 L 1.201389 0.390625 L 1.201389 0.375 L 1.170139 0.390625 L 1.170139 0.375 L 1.154514 0.382812 L 1.154514 0.367188 L 1.170139 0.375 L 1.170139 0.359375 L 1.201389 0.375 L 1.201389 0.359375 L 1.185764 0.367188 L 1.185764 0.351562 L 1.201389 0.359375 L 1.201389 0.34375 L 1.263889 0.375 L 1.263889 0.359375 L 1.248264 0.367188 L 1.248264 0.351562 L 1.263889 0.359375 L 1.263889 0.34375 L 1.232639 0.359375 L 1.232639 0.34375 L 1.217014 0.351562 L 1.217014 0.335938 L 1.232639 0.34375 L 1.232639 0.328125 L 1.263889 0.34375 L 1.263889 0.328125 L 1.248264 0.335938 L 1.248264 0.320312 L 1.263889 0.328125 L 1.263889 0.3125 L 1.388889 0.375 L 1.388889 0.359375 L 1.373264 0.367188 L 1.373264 0.351562 L 1.388889 0.359375 L 1.388889 0.34375 L 1.357639 0.359375 L 1.357639 0.34375 L 1.342014 0.351562 L 1.342014 0.335938 L 1.357639 0.34375 L 1.357639 0.328125 L 1.388889 0.34375 L 1.388889 0.328125 L 1.373264 0.335938 L 1.373264 0.320312 L 1.388889 0.328125 L 1.388889 0.3125 L 1.326389 0.34375 L 1.326389 0.328125 L 1.310764 0.335938 L 1.310764 0.320312 L 1.326389 0.328125 L 1.326389 0.3125 L 1.295139 0.328125 L 1.295139 0.3125 L 1.279514 0.320312 L 1.279514 0.304688 L 1.295139 0.3125 L 1.295139 0.296875 L 1.326389 0.3125 L 1.326389 0.296875 L 1.310764 0.304688 L 1.310764 0.289062 L 1.326389 0.296875 L 1.326389 0.28125 L 1.388889 0.3125 L 1.388889 0.296875 L 1.373264 0.304688 L 1.373264 0.289062 L 1.388889 0.296875 L 1.388889 0.28125 L 1.357639 0.296875 L 1.357639 0.28125 L 1.342014 0.289062 L 1.342014 0.273438 L 1.357639 0.28125 L 1.357639 0.265625 L 1.388889 0.28125 L 1.388889 0.265625 L 1.373264 0.273438 L 1.373264 0.257812 L 1.388889 0.265625 L 1.388889 0.25 L 1.138889 0.375 L 1.138889 0.359375 L 1.123264 0.367188 L 1.123264 0.351562 L 1.138889 0.359375 L 1.138889 0.34375 L 1.107639 0.359375 L 1.107639 0.34375 L 1.092014 0.351562 L 1.092014 0.335938 L 1.107639 0.34375 L 1.107639 0.328125 L 1.138889 0.34375 L 1.138889 0.328125 L 1.123264 0.335938 L 1.123264 0.320312 L 1.138889 0.328125 L 1.138889 0.3125 L 1.076389 0.34375 L 1.076389 0.328125 L 1.060764 0.335938 L 1.060764 0.320312 L 1.076389 0.328125 L 1.076389 0.3125 L 1.045139 0.328125 L 1.045139 0.3125 L 1.029514 0.320312 L 1.029514 0.304688 L 1.045139 0.3125 L 1.045139 0.296875 L 1.076389 0.3125 L 1.076389 0.296875 L 1.060764 0.304688 L 1.060764 0.289062 L 1.076389 0.296875 L 1.076389 0.28125 L 1.138889 0.3125 L 1.138889 0.296875 L 1.123264 0.304688 L 1.123264 0.289062 L 1.138889 0.296875 L 1.138889 0.28125 L 1.107639 0.296875 L 1.107639 0.28125 L 1.092014 0.289062 L 1.092014 0.273438 L 1.107639 0.28125 L 1.107639 0.265625 L 1.138889 0.28125 L 1.138889 0.265625 L 1.123264 0.273438 L 1.123264 0.257812 L 1.138889 0.265625 L 1.138889 0.25 L 1.013889 0.3125 L 1.013889 0.296875 L 0.998264 0.304688 L 0.998264 0.289062 L 1.013889 0.296875 L 1.013889 0.28125 L 0.982639 0.296875 L 0.982639 0.28125 L 0.967014 0.289062 L 0.967014 0.273438 L 0.982639 0.28125 L 0.982639 0.265625 L 1.013889 0.28125 L 1.013889 0.265625 L 0.998264 0.273438 L 0.998264 0.257812 L 1.013889 0.265625 L 1.013889 0.25 L 0.951389 0.28125 L 0.951389 0.265625 L 0.935764 0.273438 L 0.935764 0.257812 L 0.951389 0.265625 L 0.951389 0.25 L 0.920139 0.265625 L 0.920139 0.25 L 0.904514 0.257812 L 0.904514 0.242188 L 0.920139 0.25 L 0.920139 0.234375 L 0.951389 0.25 L 0.951389 0.234375 L 0.935764 0.242188 L 0.935764 0.226562 L 0.951389 0.234375 L 0.951389 0.21875 L 1.013889 0.25 L 1.013889 0.234375 L 0.998264 0.242188 L 0.998264 0.226562 L 1.013889 0.234375 L 1.013889 0.21875 L 0.982639 0.234375 L 0.982639 0.21875 L 0.967014 0.226562 L 0.967014 0.210938 L 0.982639 0.21875 L 0.982639 0.203125 L 1.013889 0.21875 L 1.013889 0.203125 L 0.998264 0.210938 L 0.998264 0.195312 L 1.013889 0.203125 L 1.013889 0.1875 L 1.138889 0.25 L 1.138889 0.234375 L 1.123264 0.242188 L 1.123264 0.226562 L 1.138889 0.234375 L 1.138889 0.21875 L 1.107639 0.234375 L 1.107639 0.21875 L 1.092014 0.226562 L 1.092014 0.210938 L 1.107639 0.21875 L 1.107639 0.203125 L 1.138889 0.21875 L 1.138889 0.203125 L 1.123264 0.210938 L 1.123264 0.195312 L 1.138889 0.203125 L 1.138889 0.1875 L 1.076389 0.21875 L 1.076389 0.203125 L 1.060764 0.210938 L 1.060764 0.195312 L 1.076389 0.203125 L 1.076389 0.1875 L 1.045139 0.203125 L 1.045139 0.1875 L 1.029514 0.195312 L 1.029514 0.179688 L 1.045139 0.1875 L 1.045139 0.171875 L 1.076389 0.1875 L 1.076389 0.171875 L 1.060764 0.179688 L 1.060764 0.164062 L 1.076389 0.171875 L 1.076389 0.15625 L 1.138889 0.1875 L 1.138889 0.171875 L 1.123264 0.179688 L 1.123264 0.164062 L 1.138889 0.171875 L 1.138889 0.15625 L 1.107639 0.171875 L 1.107639 0.15625 L 1.092014 0.164062 L 1.092014 0.148438 L 1.107639 0.15625 L 1.107639 0.140625 L 1.138889 0.15625 L 1.138889 0.140625 L 1.123264 0.148438 L 1.123264 0.132812 L 1.138889 0.140625 L 1.138889 0.125 L 1.388889 0.25 L 1.388889 0.234375 L 1.373264 0.242188 L 1.373264 0.226562 L 1.388889 0.234375 L 1.388889 0.21875 L 1.357639 0.234375 L 1.357639 0.21875 L 1.342014 0.226562 L 1.342014 0.210938 L 1.357639 0.21875 L 1.357639 0.203125 L 1.388889 0.21875 L 1.388889 0.203125 L 1.373264 0.210938 L 1.373264 0.195312 L 1.388889 0.203125 L 1.388889 0.1875 L 1.326389 0.21875 L 1.326389 0.203125 L 1.310764 0.210938 L 1.310764 0.195312 L 1.326389 0.203125 L 1.326389 0.1875 L 1.295139 0.203125 L 1.295139 0.1875 L 1.279514 0.195312 L 1.279514 0.179688 L 1.295139 0.1875 L 1.295139 0.171875 L 1.326389 0.1875 L 1.326389 0.171875 L 1.310764 0.179688 L 1.310764 0.164062 L 1.326389 0.171875 L 1.326389 0.15625 L 1.388889 0.1875 L 1.388889 0.171875 L 1.373264 0.179688 L 1.373264 0.164062 L 1.388889 0.171875 L 1.388889 0.15625 L 1.357639 0.171875 L 1.357639 0.15625 L 1.342014 0.164062 L 1.342014 0.148438 L 1.357639 0.15625 L 1.357639 0.140625 L 1.388889 0.15625 L 1.388889 0.140625 L 1.373264 0.148438 L 1.373264 0.132812 L 1.388889 0.140625 L 1.388889 0.125 L 1.263889 0.1875 L 1.263889 0.171875 L 1.248264 0.179688 L 1.248264 0.164062 L 1.263889 0.171875 L 1.263889 0.15625 L 1.232639 0.171875 L 1.232639 0.15625 L 1.217014 0.164062 L 1.217014 0.148438 L 1.232639 0.15625 L 1.232639 0.140625 L 1.263889 0.15625 L 1.263889 0.140625 L 1.248264 0.148438 L 1.248264 0.132812 L 1.263889 0.140625 L 1.263889 0.125 L 1.201389 0.15625 L 1.201389 0.140625 L 1.185764 0.148438 L 1.185764 0.132812 L 1.201389 0.140625 L 1.201389 0.125 L 1.170139 0.140625 L 1.170139 0.125 L 1.154514 0.132812 L 1.154514 0.117188 L 1.170139 0.125 L 1.170139 0.109375 L 1.201389 0.125 L 1.201389 0.109375 L 1.185764 0.117188 L 1.185764 0.101562 L 1.201389 0.109375 L 1.201389 0.09375 L 1.263889 0.125 L 1.263889 0.109375 L 1.248264 0.117188 L 1.248264 0.101562 L 1.263889 0.109375 L 1.263889 0.09375 L 1.232639 0.109375 L 1.232639 0.09375 L 1.217014 0.101562 L 1.217014 0.0859375 L 1.232639 0.09375 L 1.232639 0.078125 L 1.263889 0.09375 L 1.263889 0.078125 L 1.248264 0.0859375 L 1.248264 0.0703125 L 1.263889 0.078125 L 1.263889 0.0625 L 1.388889 0.125 L 1.388889 0.109375 L 1.373264 0.117188 L 1.373264 0.101562 L 1.388889 0.109375 L 1.388889 0.09375 L 1.357639 0.109375 L 1.357639 0.09375 L 1.342014 0.101562 L 1.342014 0.0859375 L 1.357639 0.09375 L 1.357639 0.078125 L 1.388889 0.09375 L 1.388889 0.078125 L 1.373264 0.0859375 L 1.373264 0.0703125 L 1.388889 0.078125 L 1.388889 0.0625 L 1.326389 0.09375 L 1.326389 0.078125 L 1.310764 0.0859375 L 1.310764 0.0703125 L 1.326389 0.078125 L 1.326389 0.0625 L 1.295139 0.078125 L 1.295139 0.0625 L 1.279514 0.0703125 L 1.279514 0.0546875 L 1.295139 0.0625 L 1.295139 0.046875 L 1.326389 0.0625 L 1.326389 0.046875 L 1.310764 0.0546875 L 1.310764 0.0390625 L 1.326389 0.046875 L 1.326389 0.03125 L 1.388889 0.0625 L 1.388889 0.046875 L 1.373264 0.0546875 L 1.373264 0.0390625 L 1.388889 0.046875 L 1.388889 0.03125 L 1.357639 0.046875 L 1.357639 0.03125 L 1.342014 0.0390625 L 1.342014 0.0234375 L 1.357639 0.03125 L 1.357639 0.015625 L 1.388889 0.03125 L 1.388889 0.015625 L 1.373264 0.0234375 L 1.373264 0.0078125 L 1.388889 0.015625 L 1.388889 0 L 0.388889 0.5 L 1.388889 1 " transform="matrix(1080,0,0,1080,0,0)"/>
</g>
</svg>
