<?xml version="1.0" encoding="UTF-8"?>
<svg xmlns="http://www.w3.org/2000/svg" xmlns:xlink="http://www.w3.org/1999/xlink" width="1024pt" height="1024pt" viewBox="0 0 1024 1024" version="1.1">
<g id="surface41">
<path style="fill:none;stroke-width:0.001;stroke-linecap:butt;stroke-linejoin:miter;stroke:rgb(0%,0%,0%);stroke-opacity:1;stroke-miterlimit:10;" d="M 0.5 0.5 L 0.5 0.494999 L 0.49567 0.4925 L 0.5 0.490002 L 0.5 0.485001 L 0.49567 0.482502 L 0.491341 0.485001 L 0.491341 0.48 L 0.487011 0.477501 L 0.491341 0.475002 L 0.491341 0.470001 L 0.49567 0.4725 L 0.5 0.470001 L 0.5 0.465 L 0.49567 0.462502 L 0.5 0.460003 L 0.5 0.455002 L 0.49567 0.452503 L 0.491341 0.455002 L 0.491341 0.450001 L 0.487011 0.447502 L 0.482681 0.450001 L 0.482681 0.455002 L 0.478352 0.452503 L 0.474022 0.455002 L 0.474022 0.450001 L 0.469692 0.447502 L 0.474022 0.445004 L 0.474022 0.440002 L 0.469692 0.437504 L 0.465363 0.440002 L 0.465363 0.435001 L 0.461033 0.432503 L 0.465363 0.430004 L 0.465363 0.425003 L 0.469692 0.427502 L 0.474022 0.425003 L 0.474022 0.420002 L 0.469692 0.417503 L 0.474022 0.415005 L 0.474022 0.410004 L 0.478352 0.412502 L 0.482681 0.410004 L 0.482681 0.415005 L 0.487011 0.417503 L 0.491341 0.415005 L 0.491341 0.410004 L 0.49567 0.412502 L 0.5 0.410004 L 0.5 0.405003 L 0.49567 0.402504 L 0.5 0.400005 L 0.5 0.395004 L 0.49567 0.392506 L 0.491341 0.395004 L 0.491341 0.390003 L 0.487011 0.387505 L 0.491341 0.385006 L 0.491341 0.380005 L 0.49567 0.382504 L 0.5 0.380005 L 0.5 0.375004 L 0.49567 0.372505 L 0.5 0.370007 L 0.5 0.365005 L 0.49567 0.362507 L 0.491341 0.365005 L 0.491341 0.360004 L 0.487011 0.357506 L 0.482681 0.360004 L 0.482681 0.365005 L 0.478352 0.362507 L 0.474022 0.365005 L 0.474022 0.360004 L 0.469692 0.357506 L 0.474022 0.355007 L 0.474022 0.350006 L 0.469692 0.347507 L 0.465363 0.350006 L 0.465363 0.345005 L 0.461033 0.342506 L 0.456703 0.345005 L 0.456703 0.350006 L 0.452374 0.347507 L 0.448044 0.350006 L 0.448044 0.355007 L 0.452374 0.357506 L 0.448044 0.360004 L 0.448044 0.365005 L 0.443714 0.362507 L 0.439384 0.365005 L 0.439384 0.360004 L 0.435055 0.357506 L 0.430725 0.360004 L 0.430725 0.365005 L 0.426395 0.362507 L 0.422066 0.365005 L 0.422066 0.360004 L 0.417736 0.357506 L 0.422066 0.355007 L 0.422066 0.350006 L 0.417736 0.347507 L 0.413406 0.350006 L 0.413406 0.345005 L 0.409077 0.342506 L 0.413406 0.340008 L 0.413406 0.335007 L 0.417736 0.337505 L 0.422066 0.335007 L 0.422066 0.330006 L 0.417736 0.327507 L 0.422066 0.325008 L 0.422066 0.320007 L 0.417736 0.317509 L 0.413406 0.320007 L 0.413406 0.315006 L 0.409077 0.312508 L 0.404747 0.315006 L 0.404747 0.320007 L 0.400417 0.317509 L 0.396088 0.320007 L 0.396088 0.315006 L 0.391758 0.312508 L 0.396088 0.310009 L 0.396088 0.305008 L 0.391758 0.302509 L 0.387428 0.305008 L 0.387428 0.300007 L 0.383099 0.297508 L 0.387428 0.29501 L 0.387428 0.290009 L 0.391758 0.292507 L 0.396088 0.290009 L 0.396088 0.285007 L 0.391758 0.282509 L 0.396088 0.28001 L 0.396088 0.275009 L 0.400417 0.277508 L 0.404747 0.275009 L 0.404747 0.28001 L 0.409077 0.282509 L 0.413406 0.28001 L 0.413406 0.275009 L 0.417736 0.277508 L 0.422066 0.275009 L 0.422066 0.270008 L 0.417736 0.267509 L 0.422066 0.265011 L 0.422066 0.26001 L 0.417736 0.257511 L 0.413406 0.26001 L 0.413406 0.255009 L 0.409077 0.25251 L 0.413406 0.250011 L 0.413406 0.24501 L 0.417736 0.247509 L 0.422066 0.24501 L 0.422066 0.240009 L 0.417736 0.237511 L 0.422066 0.235012 L 0.422066 0.230011 L 0.426395 0.23251 L 0.430725 0.230011 L 0.430725 0.235012 L 0.435055 0.237511 L 0.439384 0.235012 L 0.439384 0.230011 L 0.443714 0.23251 L 0.448044 0.230011 L 0.448044 0.235012 L 0.452374 0.237511 L 0.448044 0.240009 L 0.448044 0.24501 L 0.452374 0.247509 L 0.456703 0.24501 L 0.456703 0.250011 L 0.461033 0.25251 L 0.465363 0.250011 L 0.465363 0.24501 L 0.469692 0.247509 L 0.474022 0.24501 L 0.474022 0.240009 L 0.469692 0.237511 L 0.474022 0.235012 L 0.474022 0.230011 L 0.478352 0.23251 L 0.482681 0.230011 L 0.482681 0.235012 L 0.487011 0.237511 L 0.491341 0.235012 L 0.491341 0.230011 L 0.49567 0.23251 L 0.5 0.230011 L 0.5 0.22501 L 0.49567 0.222511 L 0.5 0.220013 L 0.5 0.215012 L 0.49567 0.212513 L 0.491341 0.215012 L 0.491341 0.210011 L 0.487011 0.207512 L 0.491341 0.205013 L 0.491341 0.200012 L 0.49567 0.202511 L 0.5 0.200012 L 0.5 0.195011 L 0.49567 0.192513 L 0.5 0.190014 L 0.5 0.185013 L 0.49567 0.182514 L 0.491341 0.185013 L 0.491341 0.180012 L 0.487011 0.177513 L 0.482681 0.180012 L 0.482681 0.185013 L 0.478352 0.182514 L 0.474022 0.185013 L 0.474022 0.180012 L 0.469692 0.177513 L 0.474022 0.175014 L 0.474022 0.170013 L 0.469692 0.167515 L 0.465363 0.170013 L 0.465363 0.165012 L 0.461033 0.162514 L 0.465363 0.160015 L 0.465363 0.155014 L 0.469692 0.157513 L 0.474022 0.155014 L 0.474022 0.150013 L 0.469692 0.147514 L 0.474022 0.145016 L 0.474022 0.140015 L 0.478352 0.142513 L 0.482681 0.140015 L 0.482681 0.145016 L 0.487011 0.147514 L 0.491341 0.145016 L 0.491341 0.140015 L 0.49567 0.142513 L 0.5 0.140015 L 0.5 0.135014 L 0.49567 0.132515 L 0.5 0.130016 L 0.5 0.125015 L 0.49567 0.122517 L 0.491341 0.125015 L 0.491341 0.120014 L 0.487011 0.117516 L 0.491341 0.115017 L 0.491341 0.110016 L 0.49567 0.112514 L 0.5 0.110016 L 0.5 0.105015 L 0.49567 0.102516 L 0.5 0.100018 L 0.5 0.0950165 L 0.50433 0.0975151 L 0.508659 0.0950165 L 0.508659 0.100018 L 0.512989 0.102516 L 0.517319 0.100018 L 0.517319 0.0950165 L 0.521648 0.0975151 L 0.525978 0.0950165 L 0.525978 0.100018 L 0.530308 0.102516 L 0.525978 0.105015 L 0.525978 0.110016 L 0.530308 0.112514 L 0.534637 0.110016 L 0.534637 0.115017 L 0.538967 0.117516 L 0.543297 0.115017 L 0.543297 0.110016 L 0.547626 0.112514 L 0.551956 0.110016 L 0.551956 0.105015 L 0.547626 0.102516 L 0.551956 0.100018 L 0.551956 0.0950165 L 0.556286 0.0975151 L 0.560616 0.0950165 L 0.560616 0.100018 L 0.564945 0.102516 L 0.569275 0.100018 L 0.569275 0.0950165 L 0.573605 0.0975151 L 0.577934 0.0950165 L 0.577934 0.100018 L 0.582264 0.102516 L 0.577934 0.105015 L 0.577934 0.110016 L 0.582264 0.112514 L 0.586594 0.110016 L 0.586594 0.115017 L 0.590923 0.117516 L 0.586594 0.120014 L 0.586594 0.125015 L 0.582264 0.122517 L 0.577934 0.125015 L 0.577934 0.130016 L 0.582264 0.132515 L 0.577934 0.135014 L 0.577934 0.140015 L 0.582264 0.142513 L 0.586594 0.140015 L 0.586594 0.145016 L 0.590923 0.147514 L 0.595253 0.145016 L 0.595253 0.140015 L 0.599583 0.142513 L 0.603912 0.140015 L 0.603912 0.145016 L 0.608242 0.147514 L 0.603912 0.150013 L 0.603912 0.155014 L 0.608242 0.157513 L 0.612572 0.155014 L 0.612572 0.160015 L 0.616901 0.162514 L 0.621231 0.160015 L 0.621231 0.155014 L 0.625561 0.157513 L 0.62989 0.155014 L 0.62989 0.150013 L 0.625561 0.147514 L 0.62989 0.145016 L 0.62989 0.140015 L 0.63422 0.142513 L 0.63855 0.140015 L 0.63855 0.145016 L 0.642879 0.147514 L 0.647209 0.145016 L 0.647209 0.140015 L 0.651539 0.142513 L 0.655869 0.140015 L 0.655869 0.135014 L 0.651539 0.132515 L 0.655869 0.130016 L 0.655869 0.125015 L 0.651539 0.122517 L 0.647209 0.125015 L 0.647209 0.120014 L 0.642879 0.117516 L 0.647209 0.115017 L 0.647209 0.110016 L 0.651539 0.112514 L 0.655869 0.110016 L 0.655869 0.105015 L 0.651539 0.102516 L 0.655869 0.100018 L 0.655869 0.0950165 L 0.660198 0.0975151 L 0.664528 0.0950165 L 0.664528 0.100018 L 0.668858 0.102516 L 0.673187 0.100018 L 0.673187 0.0950165 L 0.677517 0.0975151 L 0.681847 0.0950165 L 0.681847 0.100018 L 0.686176 0.102516 L 0.681847 0.105015 L 0.681847 0.110016 L 0.686176 0.112514 L 0.690506 0.110016 L 0.690506 0.115017 L 0.694836 0.117516 L 0.699165 0.115017 L 0.699165 0.110016 L 0.703495 0.112514 L 0.707825 0.110016 L 0.707825 0.105015 L 0.703495 0.102516 L 0.707825 0.100018 L 0.707825 0.0950165 L 0.712154 0.0975151 L 0.716484 0.0950165 L 0.716484 0.100018 L 0.720814 0.102516 L 0.725143 0.100018 L 0.725143 0.0950165 L 0.729473 0.0975151 L 0.733803 0.0950165 L 0.733803 0.100018 L 0.738132 0.102516 L 0.733803 0.105015 L 0.733803 0.110016 L 0.738132 0.112514 L 0.742462 0.110016 L 0.742462 0.115017 L 0.746792 0.117516 L 0.742462 0.120014 L 0.742462 0.125015 L 0.738132 0.122517 L 0.733803 0.125015 L 0.733803 0.130016 L 0.738132 0.132515 L 0.733803 0.135014 L 0.733803 0.140015 L 0.738132 0.142513 L 0.742462 0.140015 L 0.742462 0.145016 L 0.746792 0.147514 L 0.751122 0.145016 L 0.751122 0.140015 L 0.755451 0.142513 L 0.759781 0.140015 L 0.759781 0.145016 L 0.764111 0.147514 L 0.759781 0.150013 L 0.759781 0.155014 L 0.764111 0.157513 L 0.76844 0.155014 L 0.76844 0.160015 L 0.77277 0.162514 L 0.76844 0.165012 L 0.76844 0.170013 L 0.764111 0.167515 L 0.759781 0.170013 L 0.759781 0.175014 L 0.764111 0.177513 L 0.759781 0.180012 L 0.759781 0.185013 L 0.755451 0.182514 L 0.751122 0.185013 L 0.751122 0.180012 L 0.746792 0.177513 L 0.742462 0.180012 L 0.742462 0.185013 L 0.738132 0.182514 L 0.733803 0.185013 L 0.733803 0.190014 L 0.738132 0.192513 L 0.733803 0.195011 L 0.733803 0.200012 L 0.738132 0.202511 L 0.742462 0.200012 L 0.742462 0.205013 L 0.746792 0.207512 L 0.742462 0.210011 L 0.742462 0.215012 L 0.738132 0.212513 L 0.733803 0.215012 L 0.733803 0.220013 L 0.738132 0.222511 L 0.733803 0.22501 L 0.733803 0.230011 L 0.738132 0.23251 L 0.742462 0.230011 L 0.742462 0.235012 L 0.746792 0.237511 L 0.751122 0.235012 L 0.751122 0.230011 L 0.755451 0.23251 L 0.759781 0.230011 L 0.759781 0.235012 L 0.764111 0.237511 L 0.759781 0.240009 L 0.759781 0.24501 L 0.764111 0.247509 L 0.76844 0.24501 L 0.76844 0.250011 L 0.77277 0.25251 L 0.7771 0.250011 L 0.7771 0.24501 L 0.781429 0.247509 L 0.785759 0.24501 L 0.785759 0.240009 L 0.781429 0.237511 L 0.785759 0.235012 L 0.785759 0.230011 L 0.790089 0.23251 L 0.794418 0.230011 L 0.794418 0.235012 L 0.798748 0.237511 L 0.803078 0.235012 L 0.803078 0.230011 L 0.807407 0.23251 L 0.811737 0.230011 L 0.811737 0.235012 L 0.816067 0.237511 L 0.811737 0.240009 L 0.811737 0.24501 L 0.816067 0.247509 L 0.820396 0.24501 L 0.820396 0.250011 L 0.824726 0.25251 L 0.820396 0.255009 L 0.820396 0.26001 L 0.816067 0.257511 L 0.811737 0.26001 L 0.811737 0.265011 L 0.816067 0.267509 L 0.811737 0.270008 L 0.811737 0.275009 L 0.816067 0.277508 L 0.820396 0.275009 L 0.820396 0.28001 L 0.824726 0.282509 L 0.829056 0.28001 L 0.829056 0.275009 L 0.833385 0.277508 L 0.837715 0.275009 L 0.837715 0.28001 L 0.842045 0.282509 L 0.837715 0.285007 L 0.837715 0.290009 L 0.842045 0.292507 L 0.846375 0.290009 L 0.846375 0.29501 L 0.850704 0.297508 L 0.846375 0.300007 L 0.846375 0.305008 L 0.842045 0.302509 L 0.837715 0.305008 L 0.837715 0.310009 L 0.842045 0.312508 L 0.837715 0.315006 L 0.837715 0.320007 L 0.833385 0.317509 L 0.829056 0.320007 L 0.829056 0.315006 L 0.824726 0.312508 L 0.820396 0.315006 L 0.820396 0.320007 L 0.816067 0.317509 L 0.811737 0.320007 L 0.811737 0.325008 L 0.816067 0.327507 L 0.811737 0.330006 L 0.811737 0.335007 L 0.816067 0.337505 L 0.820396 0.335007 L 0.820396 0.340008 L 0.824726 0.342506 L 0.820396 0.345005 L 0.820396 0.350006 L 0.816067 0.347507 L 0.811737 0.350006 L 0.811737 0.355007 L 0.816067 0.357506 L 0.811737 0.360004 L 0.811737 0.365005 L 0.807407 0.362507 L 0.803078 0.365005 L 0.803078 0.360004 L 0.798748 0.357506 L 0.794418 0.360004 L 0.794418 0.365005 L 0.790089 0.362507 L 0.785759 0.365005 L 0.785759 0.360004 L 0.781429 0.357506 L 0.785759 0.355007 L 0.785759 0.350006 L 0.781429 0.347507 L 0.7771 0.350006 L 0.7771 0.345005 L 0.77277 0.342506 L 0.76844 0.345005 L 0.76844 0.350006 L 0.764111 0.347507 L 0.759781 0.350006 L 0.759781 0.355007 L 0.764111 0.357506 L 0.759781 0.360004 L 0.759781 0.365005 L 0.755451 0.362507 L 0.751122 0.365005 L 0.751122 0.360004 L 0.746792 0.357506 L 0.742462 0.360004 L 0.742462 0.365005 L 0.738132 0.362507 L 0.733803 0.365005 L 0.733803 0.370007 L 0.738132 0.372505 L 0.733803 0.375004 L 0.733803 0.380005 L 0.738132 0.382504 L 0.742462 0.380005 L 0.742462 0.385006 L 0.746792 0.387505 L 0.742462 0.390003 L 0.742462 0.395004 L 0.738132 0.392506 L 0.733803 0.395004 L 0.733803 0.400005 L 0.738132 0.402504 L 0.733803 0.405003 L 0.733803 0.410004 L 0.738132 0.412502 L 0.742462 0.410004 L 0.742462 0.415005 L 0.746792 0.417503 L 0.751122 0.415005 L 0.751122 0.410004 L 0.755451 0.412502 L 0.759781 0.410004 L 0.759781 0.415005 L 0.764111 0.417503 L 0.759781 0.420002 L 0.759781 0.425003 L 0.764111 0.427502 L 0.76844 0.425003 L 0.76844 0.430004 L 0.77277 0.432503 L 0.76844 0.435001 L 0.76844 0.440002 L 0.764111 0.437504 L 0.759781 0.440002 L 0.759781 0.445004 L 0.764111 0.447502 L 0.759781 0.450001 L 0.759781 0.455002 L 0.755451 0.452503 L 0.751122 0.455002 L 0.751122 0.450001 L 0.746792 0.447502 L 0.742462 0.450001 L 0.742462 0.455002 L 0.738132 0.452503 L 0.733803 0.455002 L 0.733803 0.460003 L 0.738132 0.462502 L 0.733803 0.465 L 0.733803 0.470001 L 0.738132 0.4725 L 0.742462 0.470001 L 0.742462 0.475002 L 0.746792 0.477501 L 0.742462 0.48 L 0.742462 0.485001 L 0.738132 0.482502 L 0.733803 0.485001 L 0.733803 0.490002 L 0.738132 0.4925 L 0.733803 0.494999 L 0.733803 0.5 L 0.729473 0.497501 L 0.725143 0.5 L 0.725143 0.494999 L 0.720814 0.4925 L 0.716484 0.494999 L 0.716484 0.5 L 0.712154 0.497501 L 0.707825 0.5 L 0.707825 0.494999 L 0.703495 0.4925 L 0.707825 0.490002 L 0.707825 0.485001 L 0.703495 0.482502 L 0.699165 0.485001 L 0.699165 0.48 L 0.694836 0.477501 L 0.690506 0.48 L 0.690506 0.485001 L 0.686176 0.482502 L 0.681847 0.485001 L 0.681847 0.490002 L 0.686176 0.4925 L 0.681847 0.494999 L 0.681847 0.5 L 0.677517 0.497501 L 0.673187 0.5 L 0.673187 0.494999 L 0.668858 0.4925 L 0.664528 0.494999 L 0.664528 0.5 L 0.660198 0.497501 L 0.655869 0.5 L 0.655869 0.494999 L 0.651539 0.4925 L 0.655869 0.490002 L 0.655869 0.485001 L 0.651539 0.482502 L 0.647209 0.485001 L 0.647209 0.48 L 0.642879 0.477501 L 0.647209 0.475002 L 0.647209 0.470001 L 0.651539 0.4725 L 0.655869 0.470001 L 0.655869 0.465 L 0.651539 0.462502 L 0.655869 0.460003 L 0.655869 0.455002 L 0.651539 0.452503 L 0.647209 0.455002 L 0.647209 0.450001 L 0.642879 0.447502 L 0.63855 0.450001 L 0.63855 0.455002 L 0.63422 0.452503 L 0.62989 0.455002 L 0.62989 0.450001 L 0.625561 0.447502 L 0.62989 0.445004 L 0.62989 0.440002 L 0.625561 0.437504 L 0.621231 0.440002 L 0.621231 0.435001 L 0.616901 0.432503 L 0.612572 0.435001 L 0.612572 0.440002 L 0.608242 0.437504 L 0.603912 0.440002 L 0.603912 0.445004 L 0.608242 0.447502 L 0.603912 0.450001 L 0.603912 0.455002 L 0.599583 0.452503 L 0.595253 0.455002 L 0.595253 0.450001 L 0.590923 0.447502 L 0.586594 0.450001 L 0.586594 0.455002 L 0.582264 0.452503 L 0.577934 0.455002 L 0.577934 0.460003 L 0.582264 0.462502 L 0.577934 0.465 L 0.577934 0.470001 L 0.582264 0.4725 L 0.586594 0.470001 L 0.586594 0.475002 L 0.590923 0.477501 L 0.586594 0.48 L 0.586594 0.485001 L 0.582264 0.482502 L 0.577934 0.485001 L 0.577934 0.490002 L 0.582264 0.4925 L 0.577934 0.494999 L 0.577934 0.5 L 0.573605 0.497501 L 0.569275 0.5 L 0.569275 0.494999 L 0.564945 0.4925 L 0.560616 0.494999 L 0.560616 0.5 L 0.556286 0.497501 L 0.551956 0.5 L 0.551956 0.494999 L 0.547626 0.4925 L 0.551956 0.490002 L 0.551956 0.485001 L 0.547626 0.482502 L 0.543297 0.485001 L 0.543297 0.48 L 0.538967 0.477501 L 0.534637 0.48 L 0.534637 0.485001 L 0.530308 0.482502 L 0.525978 0.485001 L 0.525978 0.490002 L 0.530308 0.4925 L 0.525978 0.494999 L 0.525978 0.5 L 0.521648 0.497501 L 0.517319 0.5 L 0.517319 0.494999 L 0.512989 0.4925 L 0.508659 0.494999 L 0.508659 0.5 L 0.50433 0.497501 L 0.5 0.5 " transform="matrix(1024,0,0,1024,0,0)"/>
</g>
</svg>
