<?xml version="1.0" encoding="UTF-8"?>
<svg xmlns="http://www.w3.org/2000/svg" xmlns:xlink="http://www.w3.org/1999/xlink" width="1920pt" height="1080pt" viewBox="0 0 1920 1080" version="1.1">
<g id="surface41">
<rect x="0" y="0" width="1920" height="1080" style="fill:rgb(0%,0%,0%);fill-opacity:1;stroke:none;"/>
<path style="fill:none;stroke-width:0.00185185;stroke-linecap:butt;stroke-linejoin:miter;stroke:rgb(100%,100%,100%);stroke-opacity:1;stroke-miterlimit:10;" d="M 0.638889 0.987656 L 0.62963 0.981481 L 0.638889 0.975307 L 0.638889 0.962963 L 0.62963 0.956789 L 0.62037 0.962963 L 0.62037 0.950618 L 0.611111 0.944444 L 0.62037 0.93827 L 0.62037 0.925926 L 0.62963 0.9321 L 0.638889 0.925926 L 0.638889 0.913581 L 0.62963 0.907407 L 0.638889 0.901233 L 0.638889 0.888889 L 0.62963 0.882715 L 0.62037 0.888889 L 0.62037 0.876544 L 0.611111 0.87037 L 0.601852 0.876544 L 0.601852 0.888889 L 0.592593 0.882715 L 0.583333 0.888889 L 0.583333 0.876544 L 0.574074 0.87037 L 0.583333 0.864196 L 0.583333 0.851852 L 0.574074 0.845678 L 0.564815 0.851852 L 0.564815 0.839507 L 0.555556 0.833333 L 0.564815 0.827159 L 0.564815 0.814815 L 0.574074 0.820989 L 0.583333 0.814815 L 0.583333 0.80247 L 0.574074 0.796296 L 0.583333 0.790122 L 0.583333 0.777778 L 0.592593 0.783952 L 0.601852 0.777778 L 0.601852 0.790122 L 0.611111 0.796296 L 0.62037 0.790122 L 0.62037 0.777778 L 0.62963 0.783952 L 0.638889 0.777778 L 0.638889 0.765433 L 0.62963 0.759259 L 0.638889 0.753085 L 0.638889 0.740741 L 0.62963 0.734567 L 0.62037 0.740741 L 0.62037 0.728396 L 0.611111 0.722222 L 0.62037 0.716048 L 0.62037 0.703704 L 0.62963 0.709878 L 0.638889 0.703704 L 0.638889 0.691359 L 0.62963 0.685185 L 0.638889 0.679011 L 0.638889 0.666667 L 0.62963 0.660493 L 0.62037 0.666667 L 0.62037 0.654322 L 0.611111 0.648148 L 0.601852 0.654322 L 0.601852 0.666667 L 0.592593 0.660493 L 0.583333 0.666667 L 0.583333 0.654322 L 0.574074 0.648148 L 0.583333 0.641974 L 0.583333 0.62963 L 0.574074 0.623456 L 0.564815 0.62963 L 0.564815 0.617285 L 0.555556 0.611111 L 0.546296 0.617285 L 0.546296 0.62963 L 0.537037 0.623456 L 0.527778 0.62963 L 0.527778 0.641974 L 0.537037 0.648148 L 0.527778 0.654322 L 0.527778 0.666667 L 0.518519 0.660493 L 0.509259 0.666667 L 0.509259 0.654322 L 0.5 0.648148 L 0.490741 0.654322 L 0.490741 0.666667 L 0.481481 0.660493 L 0.472222 0.666667 L 0.472222 0.654322 L 0.462963 0.648148 L 0.472222 0.641974 L 0.472222 0.62963 L 0.462963 0.623456 L 0.453704 0.62963 L 0.453704 0.617285 L 0.444444 0.611111 L 0.453704 0.604937 L 0.453704 0.592593 L 0.462963 0.598767 L 0.472222 0.592593 L 0.472222 0.580248 L 0.462963 0.574074 L 0.472222 0.5679 L 0.472222 0.555556 L 0.462963 0.549382 L 0.453704 0.555556 L 0.453704 0.543211 L 0.444444 0.537037 L 0.435185 0.543211 L 0.435185 0.555556 L 0.425926 0.549382 L 0.416667 0.555556 L 0.416667 0.543211 L 0.407407 0.537037 L 0.416667 0.530863 L 0.416667 0.518519 L 0.407407 0.512344 L 0.398148 0.518519 L 0.398148 0.506174 L 0.388889 0.5 L 0.398148 0.493826 L 0.398148 0.481481 L 0.407407 0.487656 L 0.416667 0.481481 L 0.416667 0.469137 L 0.407407 0.462963 L 0.416667 0.456789 L 0.416667 0.444444 L 0.425926 0.450618 L 0.435185 0.444444 L 0.435185 0.456789 L 0.444444 0.462963 L 0.453704 0.456789 L 0.453704 0.444444 L 0.462963 0.450618 L 0.472222 0.444444 L 0.472222 0.4321 L 0.462963 0.425926 L 0.472222 0.419752 L 0.472222 0.407407 L 0.462963 0.401233 L 0.453704 0.407407 L 0.453704 0.395063 L 0.444444 0.388889 L 0.453704 0.382715 L 0.453704 0.37037 L 0.462963 0.376544 L 0.472222 0.37037 L 0.472222 0.358026 L 0.462963 0.351852 L 0.472222 0.345678 L 0.472222 0.333333 L 0.481481 0.339507 L 0.490741 0.333333 L 0.490741 0.345678 L 0.5 0.351852 L 0.509259 0.345678 L 0.509259 0.333333 L 0.518519 0.339507 L 0.527778 0.333333 L 0.527778 0.345678 L 0.537037 0.351852 L 0.527778 0.358026 L 0.527778 0.37037 L 0.537037 0.376544 L 0.546296 0.37037 L 0.546296 0.382715 L 0.555556 0.388889 L 0.564815 0.382715 L 0.564815 0.37037 L 0.574074 0.376544 L 0.583333 0.37037 L 0.583333 0.358026 L 0.574074 0.351852 L 0.583333 0.345678 L 0.583333 0.333333 L 0.592593 0.339507 L 0.601852 0.333333 L 0.601852 0.345678 L 0.611111 0.351852 L 0.62037 0.345678 L 0.62037 0.333333 L 0.62963 0.339507 L 0.638889 0.333333 L 0.638889 0.320989 L 0.62963 0.314815 L 0.638889 0.308641 L 0.638889 0.296296 L 0.62963 0.290122 L 0.62037 0.296296 L 0.62037 0.283952 L 0.611111 0.277778 L 0.62037 0.271604 L 0.62037 0.259259 L 0.62963 0.265433 L 0.638889 0.259259 L 0.638889 0.246915 L 0.62963 0.240741 L 0.638889 0.234567 L 0.638889 0.222222 L 0.62963 0.216048 L 0.62037 0.222222 L 0.62037 0.209878 L 0.611111 0.203704 L 0.601852 0.209878 L 0.601852 0.222222 L 0.592593 0.216048 L 0.583333 0.222222 L 0.583333 0.209878 L 0.574074 0.203704 L 0.583333 0.19753 L 0.583333 0.185185 L 0.574074 0.179011 L 0.564815 0.185185 L 0.564815 0.172841 L 0.555556 0.166667 L 0.564815 0.160493 L 0.564815 0.148148 L 0.574074 0.154322 L 0.583333 0.148148 L 0.583333 0.135804 L 0.574074 0.12963 L 0.583333 0.123456 L 0.583333 0.111111 L 0.592593 0.117285 L 0.601852 0.111111 L 0.601852 0.123456 L 0.611111 0.12963 L 0.62037 0.123456 L 0.62037 0.111111 L 0.62963 0.117285 L 0.638889 0.111111 L 0.638889 0.0987666 L 0.62963 0.0925926 L 0.638889 0.0864185 L 0.638889 0.0740741 L 0.62963 0.0679 L 0.62037 0.0740741 L 0.62037 0.0617296 L 0.611111 0.0555556 L 0.62037 0.0493815 L 0.62037 0.037037 L 0.62963 0.0432111 L 0.638889 0.037037 L 0.638889 0.0246926 L 0.62963 0.0185185 L 0.638889 0.0123445 L 0.638889 0 L 0.648148 0.00617405 L 0.657407 0 L 0.657407 0.0123445 L 0.666667 0.0185185 L 0.675926 0.0123445 L 0.675926 0 L 0.685185 0.00617405 L 0.694444 0 L 0.694444 0.0123445 L 0.703704 0.0185185 L 0.694444 0.0246926 L 0.694444 0.037037 L 0.703704 0.0432111 L 0.712963 0.037037 L 0.712963 0.0493815 L 0.722222 0.0555556 L 0.731481 0.0493815 L 0.731481 0.037037 L 0.740741 0.0432111 L 0.75 0.037037 L 0.75 0.0246926 L 0.740741 0.0185185 L 0.75 0.0123445 L 0.75 0 L 0.759259 0.00617405 L 0.768519 0 L 0.768519 0.0123445 L 0.777778 0.0185185 L 0.787037 0.0123445 L 0.787037 0 L 0.796296 0.00617405 L 0.805556 0 L 0.805556 0.0123445 L 0.814815 0.0185185 L 0.805556 0.0246926 L 0.805556 0.037037 L 0.814815 0.0432111 L 0.824074 0.037037 L 0.824074 0.0493815 L 0.833333 0.0555556 L 0.824074 0.0617296 L 0.824074 0.0740741 L 0.814815 0.0679 L 0.805556 0.0740741 L 0.805556 0.0864185 L 0.814815 0.0925926 L 0.805556 0.0987666 L 0.805556 0.111111 L 0.814815 0.117285 L 0.824074 0.111111 L 0.824074 0.123456 L 0.833333 0.12963 L 0.842593 0.123456 L 0.842593 0.111111 L 0.851852 0.117285 L 0.861111 0.111111 L 0.861111 0.123456 L 0.87037 0.12963 L 0.861111 0.135804 L 0.861111 0.148148 L 0.87037 0.154322 L 0.87963 0.148148 L 0.87963 0.160493 L 0.888889 0.166667 L 0.898148 0.160493 L 0.898148 0.148148 L 0.907407 0.154322 L 0.916667 0.148148 L 0.916667 0.135804 L 0.907407 0.12963 L 0.916667 0.123456 L 0.916667 0.111111 L 0.925926 0.117285 L 0.935185 0.111111 L 0.935185 0.123456 L 0.944444 0.12963 L 0.953704 0.123456 L 0.953704 0.111111 L 0.962963 0.117285 L 0.972222 0.111111 L 0.972222 0.0987666 L 0.962963 0.0925926 L 0.972222 0.0864185 L 0.972222 0.0740741 L 0.962963 0.0679 L 0.953704 0.0740741 L 0.953704 0.0617296 L 0.944444 0.0555556 L 0.953704 0.0493815 L 0.953704 0.037037 L 0.962963 0.0432111 L 0.972222 0.037037 L 0.972222 0.0246926 L 0.962963 0.0185185 L 0.972222 0.0123445 L 0.972222 0 L 0.981481 0.00617405 L 0.990741 0 L 0.990741 0.0123445 L 1 0.0185185 L 1.009259 0.0123445 L 1.009259 0 L 1.018519 0.00617405 L 1.027778 0 L 1.027778 0.0123445 L 1.037037 0.0185185 L 1.027778 0.0246926 L 1.027778 0.037037 L 1.037037 0.0432111 L 1.046296 0.037037 L 1.046296 0.0493815 L 1.055556 0.0555556 L 1.064815 0.0493815 L 1.064815 0.037037 L 1.074074 0.0432111 L 1.083333 0.037037 L 1.083333 0.0246926 L 1.074074 0.0185185 L 1.083333 0.0123445 L 1.083333 0 L 1.092593 0.00617405 L 1.101852 0 L 1.101852 0.0123445 L 1.111111 0.0185185 L 1.12037 0.0123445 L 1.12037 0 L 1.12963 0.00617405 L 1.138889 0 L 1.138889 0.0123445 L 1.148148 0.0185185 L 1.138889 0.0246926 L 1.138889 0.037037 L 1.148148 0.0432111 L 1.157407 0.037037 L 1.157407 0.0493815 L 1.166667 0.0555556 L 1.157407 0.0617296 L 1.157407 0.0740741 L 1.148148 0.0679 L 1.138889 0.0740741 L 1.138889 0.0864185 L 1.148148 0.0925926 L 1.138889 0.0987666 L 1.138889 0.111111 L 1.148148 0.117285 L 1.157407 0.111111 L 1.157407 0.123456 L 1.166667 0.12963 L 1.175926 0.123456 L 1.175926 0.111111 L 1.185185 0.117285 L 1.194444 0.111111 L 1.194444 0.123456 L 1.203704 0.12963 L 1.194444 0.135804 L 1.194444 0.148148 L 1.203704 0.154322 L 1.212963 0.148148 L 1.212963 0.160493 L 1.222222 0.166667 L 1.212963 0.172841 L 1.212963 0.185185 L 1.203704 0.179011 L 1.194444 0.185185 L 1.194444 0.19753 L 1.203704 0.203704 L 1.194444 0.209878 L 1.194444 0.222222 L 1.185185 0.216048 L 1.175926 0.222222 L 1.175926 0.209878 L 1.166667 0.203704 L 1.157407 0.209878 L 1.157407 0.222222 L 1.148148 0.216048 L 1.138889 0.222222 L 1.138889 0.234567 L 1.148148 0.240741 L 1.138889 0.246915 L 1.138889 0.259259 L 1.148148 0.265433 L 1.157407 0.259259 L 1.157407 0.271604 L 1.166667 0.277778 L 1.157407 0.283952 L 1.157407 0.296296 L 1.148148 0.290122 L 1.138889 0.296296 L 1.138889 0.308641 L 1.148148 0.314815 L 1.138889 0.320989 L 1.138889 0.333333 L 1.148148 0.339507 L 1.157407 0.333333 L 1.157407 0.345678 L 1.166667 0.351852 L 1.175926 0.345678 L 1.175926 0.333333 L 1.185185 0.339507 L 1.194444 0.333333 L 1.194444 0.345678 L 1.203704 0.351852 L 1.194444 0.358026 L 1.194444 0.37037 L 1.203704 0.376544 L 1.212963 0.37037 L 1.212963 0.382715 L 1.222222 0.388889 L 1.231481 0.382715 L 1.231481 0.37037 L 1.240741 0.376544 L 1.25 0.37037 L 1.25 0.358026 L 1.240741 0.351852 L 1.25 0.345678 L 1.25 0.333333 L 1.259259 0.339507 L 1.268519 0.333333 L 1.268519 0.345678 L 1.277778 0.351852 L 1.287037 0.345678 L 1.287037 0.333333 L 1.296296 0.339507 L 1.305556 0.333333 L 1.305556 0.345678 L 1.314815 0.351852 L 1.305556 0.358026 L 1.305556 0.37037 L 1.314815 0.376544 L 1.324074 0.37037 L 1.324074 0.382715 L 1.333333 0.388889 L 1.324074 0.395063 L 1.324074 0.407407 L 1.314815 0.401233 L 1.305556 0.407407 L 1.305556 0.419752 L 1.314815 0.425926 L 1.305556 0.4321 L 1.305556 0.444444 L 1.314815 0.450618 L 1.324074 0.444444 L 1.324074 0.456789 L 1.333333 0.462963 L 1.342593 0.456789 L 1.342593 0.444444 L 1.351852 0.450618 L 1.361111 0.444444 L 1.361111 0.456789 L 1.37037 0.462963 L 1.361111 0.469137 L 1.361111 0.481481 L 1.37037 0.487656 L 1.37963 0.481481 L 1.37963 0.493826 L 1.388889 0.5 L 1.37963 0.506174 L 1.37963 0.518519 L 1.37037 0.512344 L 1.361111 0.518519 L 1.361111 0.530863 L 1.37037 0.537037 L 1.361111 0.543211 L 1.361111 0.555556 L 1.351852 0.549382 L 1.342593 0.555556 L 1.342593 0.543211 L 1.333333 0.537037 L 1.324074 0.543211 L 1.324074 0.555556 L 1.314815 0.549382 L 1.305556 0.555556 L 1.305556 0.5679 L 1.314815 0.574074 L 1.305556 0.580248 L 1.305556 0.592593 L 1.314815 0.598767 L 1.324074 0.592593 L 1.324074 0.604937 L 1.333333 0.611111 L 1.324074 0.617285 L 1.324074 0.62963 L 1.314815 0.623456 L 1.305556 0.62963 L 1.305556 0.641974 L 1.314815 0.648148 L 1.305556 0.654322 L 1.305556 0.666667 L 1.296296 0.660493 L 1.287037 0.666667 L 1.287037 0.654322 L 1.277778 0.648148 L 1.268519 0.654322 L 1.268519 0.666667 L 1.259259 0.660493 L 1.25 0.666667 L 1.25 0.654322 L 1.240741 0.648148 L 1.25 0.641974 L 1.25 0.62963 L 1.240741 0.623456 L 1.231481 0.62963 L 1.231481 0.617285 L 1.222222 0.611111 L 1.212963 0.617285 L 1.212963 0.62963 L 1.203704 0.623456 L 1.194444 0.62963 L 1.194444 0.641974 L 1.203704 0.648148 L 1.194444 0.654322 L 1.194444 0.666667 L 1.185185 0.660493 L 1.175926 0.666667 L 1.175926 0.654322 L 1.166667 0.648148 L 1.157407 0.654322 L 1.157407 0.666667 L 1.148148 0.660493 L 1.138889 0.666667 L 1.138889 0.679011 L 1.148148 0.685185 L 1.138889 0.691359 L 1.138889 0.703704 L 1.148148 0.709878 L 1.157407 0.703704 L 1.157407 0.716048 L 1.166667 0.722222 L 1.157407 0.728396 L 1.157407 0.740741 L 1.148148 0.734567 L 1.138889 0.740741 L 1.138889 0.753085 L 1.148148 0.759259 L 1.138889 0.765433 L 1.138889 0.777778 L 1.148148 0.783952 L 1.157407 0.777778 L 1.157407 0.790122 L 1.166667 0.796296 L 1.175926 0.790122 L 1.175926 0.777778 L 1.185185 0.783952 L 1.194444 0.777778 L 1.194444 0.790122 L 1.203704 0.796296 L 1.194444 0.80247 L 1.194444 0.814815 L 1.203704 0.820989 L 1.212963 0.814815 L 1.212963 0.827159 L 1.222222 0.833333 L 1.212963 0.839507 L 1.212963 0.851852 L 1.203704 0.845678 L 1.194444 0.851852 L 1.194444 0.864196 L 1.203704 0.87037 L 1.194444 0.876544 L 1.194444 0.888889 L 1.185185 0.882715 L 1.175926 0.888889 L 1.175926 0.876544 L 1.166667 0.87037 L 1.157407 0.876544 L 1.157407 0.888889 L 1.148148 0.882715 L 1.138889 0.888889 L 1.138889 0.901233 L 1.148148 0.907407 L 1.138889 0.913581 L 1.138889 0.925926 L 1.148148 0.9321 L 1.157407 0.925926 L 1.157407 0.93827 L 1.166667 0.944444 L 1.157407 0.950618 L 1.157407 0.962963 L 1.148148 0.956789 L 1.138889 0.962963 L 1.138889 0.975307 L 1.148148 0.981481 L 1.138889 0.987656 L 1.138889 1 L 1.12963 0.993826 L 1.12037 1 L 1.12037 0.987656 L 1.111111 0.981481 L 1.101852 0.987656 L 1.101852 1 L 1.092593 0.993826 L 1.083333 1 L 1.083333 0.987656 L 1.074074 0.981481 L 1.083333 0.975307 L 1.083333 0.962963 L 1.074074 0.956789 L 1.064815 0.962963 L 1.064815 0.950618 L 1.055556 0.944444 L 1.046296 0.950618 L 1.046296 0.962963 L 1.037037 0.956789 L 1.027778 0.962963 L 1.027778 0.975307 L 1.037037 0.981481 L 1.027778 0.987656 L 1.027778 1 L 1.018519 0.993826 L 1.009259 1 L 1.009259 0.987656 L 1 0.981481 L 0.990741 0.987656 L 0.990741 1 L 0.981481 0.993826 L 0.972222 1 L 0.972222 0.987656 L 0.962963 0.981481 L 0.972222 0.975307 L 0.972222 0.962963 L 0.962963 0.956789 L 0.953704 0.962963 L 0.953704 0.950618 L 0.944444 0.944444 L 0.953704 0.93827 L 0.953704 0.925926 L 0.962963 0.9321 L 0.972222 0.925926 L 0.972222 0.913581 L 0.962963 0.907407 L 0.972222 0.901233 L 0.972222 0.888889 L 0.962963 0.882715 L 0.953704 0.888889 L 0.953704 0.876544 L 0.944444 0.87037 L 0.935185 0.876544 L 0.935185 0.888889 L 0.925926 0.882715 L 0.916667 0.888889 L 0.916667 0.876544 L 0.907407 0.87037 L 0.916667 0.864196 L 0.916667 0.851852 L 0.907407 0.845678 L 0.898148 0.851852 L 0.898148 0.839507 L 0.888889 0.833333 L 0.87963 0.839507 L 0.87963 0.851852 L 0.87037 0.845678 L 0.861111 0.851852 L 0.861111 0.864196 L 0.87037 0.87037 L 0.861111 0.876544 L 0.861111 0.888889 L 0.851852 0.882715 L 0.842593 0.888889 L 0.842593 0.876544 L 0.833333 0.87037 L 0.824074 0.876544 L 0.824074 0.888889 L 0.814815 0.882715 L 0.805556 0.888889 L 0.805556 0.901233 L 0.814815 0.907407 L 0.805556 0.913581 L 0.805556 0.925926 L 0.814815 0.9321 L 0.824074 0.925926 L 0.824074 0.93827 L 0.833333 0.944444 L 0.824074 0.950618 L 0.824074 0.962963 L 0.814815 0.956789 L 0.805556 0.962963 L 0.805556 0.975307 L 0.814815 0.981481 L 0.805556 0.987656 L 0.805556 1 L 0.796296 0.993826 L 0.787037 1 L 0.787037 0.987656 L 0.777778 0.981481 L 0.768519 0.987656 L 0.768519 1 L 0.759259 0.993826 L 0.75 1 L 0.75 0.987656 L 0.740741 0.981481 L 0.75 0.975307 L 0.75 0.962963 L 0.740741 0.956789 L 0.731481 0.962963 L 0.731481 0.950618 L 0.722222 0.944444 L 0.712963 0.950618 L 0.712963 0.962963 L 0.703704 0.956789 L 0.694444 0.962963 L 0.694444 0.975307 L 0.703704 0.981481 L 0.694444 0.987656 L 0.694444 1 L 0.685185 0.993826 L 0.675926 1 L 0.675926 0.987656 L 0.666667 0.981481 L 0.657407 0.987656 L 0.657407 1 L 0.648148 0.993826 L 0.638889 1 " transform="matrix(1080,0,0,1080,0,0)"/>
</g>
</svg>
